<?xml version="1.0" encoding="utf-8"?>
<!-- Generator: Avocode 2.6.0 - http://avocode.com -->
<svg height="23" width="22" xmlns:xlink="http://www.w3.org/1999/xlink" xmlns="http://www.w3.org/2000/svg" viewBox="0 0 22 23">
    <path stroke-linejoin="miter" stroke-linecap="butt" stroke-width="2" stroke="#98a4be" fill="none" fill-rule="evenodd" d="M 1 2 L 21 2 L 21 22 L 1 22 L 1 2 Z M 1 2" />
    <path stroke-linejoin="miter" stroke-linecap="butt" stroke-width="2" stroke="#98a4be" fill="none" fill-rule="evenodd" d="M 1 6 L 21 6" />
    <path stroke-linejoin="miter" stroke-linecap="butt" stroke-width="2" stroke="#98a4be" fill="none" fill-rule="evenodd" d="M 17 4 L 17 0" />
    <path stroke-linejoin="miter" stroke-linecap="butt" stroke-width="2" stroke="#98a4be" fill="none" fill-rule="evenodd" d="M 5 4 L 5 0" />
    <path fill="#98a4be" fill-rule="evenodd" d="M 16 9 L 18 9 L 18 11 L 16 11 L 16 9 Z M 16 9" />
    <path fill="#98a4be" fill-rule="evenodd" d="M 16 13 L 18 13 L 18 15 L 16 15 L 16 13 Z M 16 13" />
    <path fill="#98a4be" fill-rule="evenodd" d="M 12 9 L 14 9 L 14 11 L 12 11 L 12 9 Z M 12 9" />
    <path fill="#98a4be" fill-rule="evenodd" d="M 12 13 L 14 13 L 14 15 L 12 15 L 12 13 Z M 12 13" />
    <path fill="#98a4be" fill-rule="evenodd" d="M 8 9 L 10 9 L 10 11 L 8 11 L 8 9 Z M 8 9" />
    <path fill="#98a4be" fill-rule="evenodd" d="M 8 13 L 10 13 L 10 15 L 8 15 L 8 13 Z M 8 13" />
    <path fill="#98a4be" fill-rule="evenodd" d="M 4 13 L 6 13 L 6 15 L 4 15 L 4 13 Z M 4 13" />
    <path fill="#98a4be" fill-rule="evenodd" d="M 12 17 L 14 17 L 14 19 L 12 19 L 12 17 Z M 12 17" />
    <path fill="#98a4be" fill-rule="evenodd" d="M 8 17 L 10 17 L 10 19 L 8 19 L 8 17 Z M 8 17" />
    <path fill="#98a4be" fill-rule="evenodd" d="M 4 17 L 6 17 L 6 19 L 4 19 L 4 17 Z M 4 17" />
</svg>