<?xml version="1.0" encoding="utf-8"?>
<!-- Generator: Avocode 2.6.0 - http://avocode.com -->
<svg height="20" width="18" xmlns:xlink="http://www.w3.org/1999/xlink" xmlns="http://www.w3.org/2000/svg" viewBox="0 0 18 20">
    <path fill="#aebecf" fill-rule="evenodd" d="M 8 0 L 18 0 L 18 4 L 16 4 L 16 2 L 10 2 L 10 4 L 8 4 L 8 0 Z M 10 18 L 16 18 L 16 15 L 10 15 L 10 18 Z M 2 18 L 8 18 L 8 15 L 2 15 L 2 18 Z M 10 13 L 16 13 L 16 10 L 10 10 L 10 13 Z M 2 13 L 8 13 L 8 10 L 2 10 L 2 13 Z M 2 6 L 16 6 C 17.11 6 18 6.89 18 8 L 18 18 C 18 19.11 17.11 20 16 20 L 2 20 C 0.89 20 0 19.11 0 18 L 0 8 C 0 6.89 0.89 6 2 6 L 2 6 Z M 2 6" />
</svg>