<?xml version="1.0" encoding="UTF-8" standalone="no"?>
<svg width="30px" height="20px" viewBox="0 0 30 20" version="1.1" xmlns="http://www.w3.org/2000/svg" xmlns:xlink="http://www.w3.org/1999/xlink">
    <!-- Generator: Sketch 3.6.1 (26313) - http://www.bohemiancoding.com/sketch -->
    <title>kyrgyzia</title>
    <desc>Created with Sketch.</desc>
    <defs></defs>
    <g id="Page-1" stroke="none" stroke-width="1" fill="none" fill-rule="evenodd">
        <g id="Сведения-о-документе-Copy-6" transform="translate(-732.000000, -426.000000)">
            <g id="kyrgyzia" transform="translate(732.000000, 426.000000)">
                <g id="Layer_1">
                    <g id="XMLID_162_">
                        <rect id="XMLID_569_" fill="#ED1C2E" x="0" y="0" width="30" height="20"></rect>
                        <g id="XMLID_243_" transform="translate(8.846154, 3.461538)" fill="#FFE01B">
                            <path d="M6.07692308,2.42307692 C6.07692308,1.76923077 6.65384615,1.30769231 6.65384615,0.461538462 C7.03846154,0.961538462 6.38461538,1.96153846 6.61538462,2.5 C6.73076923,1.84615385 7.34615385,1.5 7.5,0.653846154 C7.80769231,1.23076923 7,2.07692308 7.15384615,2.69230769 C7.34615385,2.07692308 8.03846154,1.84615385 8.30769231,1 C8.53846154,1.61538462 7.61538462,2.34615385 7.65384615,2.96153846 C7.96153846,2.38461538 8.65384615,2.23076923 9.03846154,1.5 C9.15384615,2.15384615 8.15384615,2.69230769 8.11538462,3.30769231 C8.5,2.76923077 9.19230769,2.76923077 9.73076923,2.07692308 C9.76923077,2.73076923 8.65384615,3.11538462 8.53846154,3.73076923 C9,3.26923077 9.69230769,3.38461538 10.3076923,2.76923077 C10.2307692,3.42307692 9.11538462,3.61538462 8.88461538,4.19230769 C9.38461538,3.80769231 10.0769231,4.03846154 10.7692308,3.53846154 C10.6153846,4.19230769 9.42307692,4.19230769 9.15384615,4.73076923 C9.73076923,4.46153846 10.3461538,4.76923077 11.1153846,4.38461538 C10.8461538,5 9.69230769,4.80769231 9.30769231,5.30769231 C9.92307692,5.11538462 10.5,5.53846154 11.3076923,5.26923077 C10.9615385,5.80769231 9.84615385,5.46153846 9.38461538,5.88461538 C10,5.80769231 10.5384615,6.30769231 11.3461538,6.19230769 C10.9230769,6.69230769 9.88461538,6.15384615 9.38461538,6.5 C10,6.5 10.4615385,7.07692308 11.3076923,7.11538462 C10.8076923,7.53846154 9.84615385,6.84615385 9.30769231,7.07692308 C9.92307692,7.19230769 10.2692308,7.80769231 11.1153846,8 C10.5384615,8.30769231 9.73076923,7.5 9.15384615,7.65384615 C9.76923077,7.84615385 10,8.53846154 10.7692308,8.84615385 C10.1538462,9.07692308 9.46153846,8.11538462 8.88461538,8.19230769 C9.46153846,8.5 9.57692308,9.19230769 10.3076923,9.61538462 C9.69230769,9.73076923 9.15384615,8.69230769 8.53846154,8.65384615 C9.03846154,9.03846154 9.07692308,9.76923077 9.73076923,10.3076923 C9.07692308,10.3461538 8.69230769,9.23076923 8.11538462,9.07692308 C8.53846154,9.53846154 8.46153846,10.2692308 9.03846154,10.8846154 C8.46153846,10.7692308 8.26923077,9.57692308 7.69230769,9.34615385 C8.07692308,9.88461538 7.84615385,10.5769231 8.34615385,11.3076923 C7.73076923,11.1153846 7.69230769,9.96153846 7.19230769,9.61538462 C7.46153846,10.1923077 7.15384615,10.8461538 7.53846154,11.6538462 C6.96153846,11.3846154 7.11538462,10.1923077 6.65384615,9.80769231 C6.84615385,10.4230769 6.46153846,11.0384615 6.69230769,11.8461538 C6.15384615,11.5 6.5,10.3461538 6.11538462,9.88461538 C6.19230769,10.5384615 5.73076923,11.0769231 5.84615385,11.9230769 C5.38461538,11.4615385 5.88461538,10.4230769 5.57692308,9.88461538 C5.57692308,10.5384615 5,10.9615385 5,11.8461538 C4.61538462,11.3461538 5.26923077,10.3461538 5.03846154,9.80769231 C4.92307692,10.4615385 4.30769231,10.8076923 4.15384615,11.6538462 C3.84615385,11.0769231 4.65384615,10.2307692 4.5,9.61538462 C4.30769231,10.2307692 3.61538462,10.4615385 3.34615385,11.3076923 C3.11538462,10.6923077 4.03846154,9.96153846 4,9.34615385 C3.69230769,9.92307692 3,10.0769231 2.61538462,10.8076923 C2.5,10.1538462 3.5,9.61538462 3.53846154,9 C3.15384615,9.53846154 2.46153846,9.53846154 1.92307692,10.2307692 C1.88461538,9.57692308 3,9.19230769 3.11538462,8.57692308 C2.65384615,9.03846154 1.96153846,8.92307692 1.34615385,9.53846154 C1.42307692,8.88461538 2.53846154,8.69230769 2.76923077,8.11538462 C2.26923077,8.5 1.57692308,8.26923077 0.884615385,8.76923077 C1.03846154,8.11538462 2.23076923,8.11538462 2.5,7.57692308 C1.92307692,7.84615385 1.30769231,7.53846154 0.538461538,7.92307692 C0.807692308,7.30769231 1.96153846,7.5 2.34615385,7 C1.73076923,7.19230769 1.15384615,6.76923077 0.346153846,7.03846154 C0.692307692,6.5 1.80769231,6.84615385 2.26923077,6.42307692 C1.65384615,6.5 1.11538462,6 0.307692308,6.11538462 C0.730769231,5.61538462 1.76923077,6.15384615 2.26923077,5.80769231 C1.65384615,5.80769231 1.19230769,5.23076923 0.346153846,5.19230769 C0.846153846,4.76923077 1.80769231,5.46153846 2.34615385,5.23076923 C1.73076923,5.11538462 1.38461538,4.5 0.538461538,4.30769231 C1.11538462,4 1.92307692,4.80769231 2.5,4.65384615 C1.88461538,4.46153846 1.65384615,3.76923077 0.884615385,3.46153846 C1.5,3.23076923 2.19230769,4.19230769 2.76923077,4.11538462 C2.19230769,3.80769231 2.07692308,3.11538462 1.34615385,2.69230769 C1.96153846,2.57692308 2.53846154,3.61538462 3.11538462,3.65384615 C2.61538462,3.26923077 2.57692308,2.53846154 1.92307692,2 C2.57692308,1.96153846 2.92307692,3.07692308 3.53846154,3.23076923 C3.11538462,2.76923077 3.19230769,2.03846154 2.61538462,1.42307692 C3.26923077,1.5 3.46153846,2.65384615 4,2.88461538 C3.65384615,2.34615385 3.84615385,1.65384615 3.34615385,0.923076923 C3.96153846,1.11538462 4,2.26923077 4.5,2.61538462 C4.23076923,2.03846154 4.53846154,1.38461538 4.15384615,0.576923077 C4.73076923,0.846153846 4.57692308,2.03846154 5.03846154,2.42307692 C4.84615385,1.80769231 5.23076923,1.19230769 5,0.384615385 C5.53846154,0.730769231 5.19230769,1.88461538 5.57692308,2.34615385 C5.5,1.69230769 5.96153846,1.15384615 5.84615385,0.307692308 C6.26923077,0.846153846 5.76923077,1.92307692 6.07692308,2.42307692 L6.07692308,2.42307692 Z" id="XMLID_245_"></path>
                        </g>
                        <ellipse id="XMLID_239_" fill="#ED1C2E" cx="14.6538462" cy="9.61538462" rx="2.96153846" ry="3.03846154"></ellipse>
                        <g id="XMLID_163_" transform="translate(11.923077, 6.923077)" fill="#FFE01B">
                            <g id="XMLID_164_">
                                <path d="M2.73076923,0.0384615385 C3.5,0.0384615385 4.15384615,0.384615385 4.65384615,0.923076923 C3.92307692,1 3.26923077,1.19230769 2.73076923,1.46153846 C2.19230769,1.19230769 1.57692308,1 0.807692308,0.923076923 C1.26923077,0.384615385 1.96153846,0.0384615385 2.73076923,0.0384615385 L2.73076923,0.0384615385 Z" id="XMLID_223_"></path>
                                <path d="M2.53846154,1.53846154 C2.46153846,1.57692308 2.42307692,1.61538462 2.34615385,1.65384615 C1.84615385,1.38461538 1.26923077,1.23076923 0.615384615,1.15384615 C0.653846154,1.11538462 0.692307692,1.07692308 0.730769231,1.03846154 C1.42307692,1.11538462 2,1.26923077 2.53846154,1.53846154 L2.53846154,1.53846154 Z" id="XMLID_220_"></path>
                                <path d="M2.92307692,1.53846154 C3,1.57692308 3.03846154,1.61538462 3.11538462,1.65384615 C3.61538462,1.38461538 4.19230769,1.23076923 4.84615385,1.15384615 C4.80769231,1.11538462 4.76923077,1.07692308 4.73076923,1.03846154 C4.03846154,1.11538462 3.42307692,1.26923077 2.92307692,1.53846154 L2.92307692,1.53846154 Z" id="XMLID_218_"></path>
                                <path d="M0.5,1.30769231 C0.461538462,1.34615385 0.461538462,1.38461538 0.423076923,1.46153846 C1.07692308,1.46153846 1.61538462,1.61538462 2.03846154,1.88461538 C2.07692308,1.84615385 2.11538462,1.80769231 2.19230769,1.76923077 C1.73076923,1.5 1.19230769,1.34615385 0.5,1.30769231 L0.5,1.30769231 Z" id="XMLID_212_"></path>
                                <path d="M0.461538462,4.03846154 C0.230769231,3.65384615 0.115384615,3.19230769 0.115384615,2.69230769 C0.115384615,2.30769231 0.192307692,1.92307692 0.346153846,1.57692308 C0.961538462,1.57692308 1.5,1.73076923 1.92307692,1.96153846 C1.30769231,2.5 0.846153846,3.19230769 0.461538462,4.03846154 L0.461538462,4.03846154 Z" id="XMLID_211_"></path>
                                <path d="M1.76923077,5.19230769 C1.65384615,5.15384615 1.53846154,5.07692308 1.42307692,5.03846154 C1.5,4.03846154 1.80769231,3.07692308 2.42307692,2.38461538 C2.46153846,2.42307692 2.5,2.46153846 2.57692308,2.53846154 C2,3.23076923 1.76923077,4.19230769 1.76923077,5.19230769 L1.76923077,5.19230769 Z" id="XMLID_210_"></path>
                                <path d="M4.92307692,1.30769231 C4.96153846,1.34615385 4.96153846,1.38461538 5,1.46153846 C4.34615385,1.46153846 3.80769231,1.61538462 3.38461538,1.88461538 C3.34615385,1.84615385 3.30769231,1.80769231 3.23076923,1.76923077 C3.69230769,1.5 4.26923077,1.34615385 4.92307692,1.30769231 L4.92307692,1.30769231 Z" id="XMLID_208_"></path>
                                <path d="M4.96153846,4.03846154 C5.19230769,3.65384615 5.30769231,3.19230769 5.30769231,2.69230769 C5.30769231,2.30769231 5.23076923,1.92307692 5.07692308,1.57692308 C4.46153846,1.57692308 3.92307692,1.73076923 3.5,1.96153846 C4.15384615,2.5 4.61538462,3.19230769 4.96153846,4.03846154 L4.96153846,4.03846154 Z" id="XMLID_204_"></path>
                                <path d="M2.73076923,2.69230769 C3.26923077,3.38461538 3.46153846,4.34615385 3.34615385,5.30769231 C3.15384615,5.34615385 2.92307692,5.38461538 2.73076923,5.38461538 C2.5,5.38461538 2.30769231,5.34615385 2.11538462,5.30769231 C2,4.34615385 2.19230769,3.38461538 2.73076923,2.69230769 L2.73076923,2.69230769 Z" id="XMLID_202_"></path>
                                <path d="M3.65384615,5.19230769 C3.76923077,5.15384615 3.88461538,5.07692308 4,5.03846154 C3.92307692,4.03846154 3.61538462,3.07692308 3,2.38461538 C2.96153846,2.42307692 2.92307692,2.46153846 2.84615385,2.53846154 C3.42307692,3.23076923 3.69230769,4.19230769 3.65384615,5.19230769 L3.65384615,5.19230769 Z" id="XMLID_190_"></path>
                                <path d="M2.30769231,2.23076923 C2.26923077,2.19230769 2.19230769,2.15384615 2.11538462,2.07692308 C1.46153846,2.69230769 1.03846154,3.5 0.769230769,4.42307692 C0.884615385,4.53846154 1,4.65384615 1.11538462,4.76923077 C1.26923077,3.80769231 1.65384615,2.88461538 2.30769231,2.23076923 L2.30769231,2.23076923 Z" id="XMLID_189_"></path>
                                <path d="M3.11538462,2.23076923 C3.15384615,2.19230769 3.23076923,2.15384615 3.30769231,2.07692308 C3.96153846,2.69230769 4.38461538,3.5 4.65384615,4.42307692 C4.53846154,4.53846154 4.42307692,4.65384615 4.30769231,4.76923077 C4.15384615,3.80769231 3.76923077,2.88461538 3.11538462,2.23076923 L3.11538462,2.23076923 Z" id="XMLID_188_"></path>
                                <path id="XMLID_178_" d="M2.82692308,1.65384615 C2.88942308,1.73717949 3.07692308,1.82051282 3.07692308,1.90384615 C3.01442308,1.98717949 2.82692308,2.15384615 2.82692308,2.15384615 C2.76442308,2.07051282 2.63942308,1.98717949 2.57692308,1.90384615 C2.57692308,1.90384615 2.76442308,1.73717949 2.82692308,1.65384615 L2.82692308,1.65384615 Z"></path>
                                <path id="XMLID_175_" d="M2.45299145,1.88461538 C2.3974359,1.96794872 2.28632479,2.05128205 2.23076923,2.13461538 C2.34188034,2.21794872 2.45299145,2.38461538 2.50854701,2.38461538 C2.56410256,2.30128205 2.67521368,2.21794872 2.73076923,2.13461538 C2.67521368,2.05128205 2.50854701,1.88461538 2.45299145,1.88461538 L2.45299145,1.88461538 Z"></path>
                                <path id="XMLID_166_" d="M3.12393162,1.88461538 C3.17948718,1.96794872 3.29059829,2.05128205 3.34615385,2.13461538 C3.23504274,2.21794872 3.12393162,2.38461538 3.06837607,2.38461538 C3.01282051,2.30128205 2.9017094,2.21794872 2.84615385,2.13461538 C2.95726496,2.05128205 3.06837607,1.88461538 3.12393162,1.88461538 L3.12393162,1.88461538 Z"></path>
                                <path id="XMLID_165_" d="M2.86538462,2.11538462 C2.94871795,2.19871795 3.11538462,2.36538462 3.11538462,2.36538462 C3.03205128,2.44871795 2.86538462,2.53205128 2.86538462,2.61538462 C2.78205128,2.53205128 2.69871795,2.36538462 2.61538462,2.36538462 C2.61538462,2.36538462 2.78205128,2.19871795 2.86538462,2.11538462 L2.86538462,2.11538462 Z"></path>
                            </g>
                        </g>
                    </g>
                </g>
            </g>
        </g>
    </g>
</svg>