<?xml version="1.0" encoding="UTF-8" standalone="no"?>
<svg width="30px" height="20px" viewBox="0 0 30 20" version="1.1" xmlns="http://www.w3.org/2000/svg" xmlns:xlink="http://www.w3.org/1999/xlink">
    <!-- Generator: Sketch 3.6.1 (26313) - http://www.bohemiancoding.com/sketch -->
    <title>Group 2</title>
    <desc>Created with Sketch.</desc>
    <defs></defs>
    <g id="Page-1" stroke="none" stroke-width="1" fill="none" fill-rule="evenodd">
        <g id="Сведения-о-документе-Copy-6" transform="translate(-532.000000, -426.000000)">
            <g id="Group-2" transform="translate(532.000000, 426.000000)">
                <g id="belorussia">
                    <g id="Layer_1">
                        <rect id="XMLID_106_" fill="#ED3424" x="4.69230769" y="0" width="25.3076923" height="13.3076923"></rect>
                        <rect id="XMLID_105_" fill="#00B084" x="4.69230769" y="13.3076923" width="25.3076923" height="6.65384615"></rect>
                        <rect id="XMLID_104_" fill="#FFFFFF" x="0" y="0" width="4.42307692" height="19.9615385"></rect>
                        <rect id="XMLID_103_" fill="#FFFFFF" x="4.42307692" y="0" width="0.5" height="19.9615385"></rect>
                        <g id="XMLID_42_" transform="translate(0.384615, 0.384615)">
                            <g id="XMLID_44_">
                                <g id="XMLID_91_">
                                    <path d="M0.692307692,3.11538462 L0.692307692,3.34615385 L0.807692308,3.34615385 L0.807692308,3.61538462 L0.923076923,3.61538462 L0.923076923,3.92307692 L0.807692308,3.92307692 L0.807692308,4.19230769 L0.692307692,4.19230769 L0.692307692,4.46153846 L0.5,4.46153846 L0.5,4.19230769 L0.423076923,4.19230769 L0.423076923,3.92307692 L0.269230769,3.92307692 L0.269230769,3.61538462 L0.423076923,3.61538462 L0.423076923,3.34615385 L0.5,3.34615385 L0.5,3.11538462 L0.692307692,3.11538462 Z" id="XMLID_102_" fill="#ED3424"></path>
                                    <path d="M0.692307692,16.1153846 L0.692307692,15.8461538 L0.807692308,15.8461538 L0.807692308,15.5769231 L0.923076923,15.5769231 L0.923076923,15.3076923 L0.807692308,15.3076923 L0.807692308,15 L0.692307692,15 L0.692307692,14.7692308 L0.5,14.7692308 L0.5,15 L0.423076923,15 L0.423076923,15.3076923 L0.269230769,15.3076923 L0.269230769,15.5769231 L0.423076923,15.5769231 L0.423076923,15.8461538 L0.5,15.8461538 L0.5,16.1153846 L0.692307692,16.1153846 Z" id="XMLID_101_" fill="#ED3424"></path>
                                    <path d="M1.92307692,2.03846154 L1.92307692,2.42307692 L2.07692308,2.42307692 L2.07692308,2.84615385 L2.26923077,2.84615385 L2.26923077,3.11538462 L2.5,3.11538462 L2.5,3.5 L2.65384615,3.5 L2.65384615,3.11538462 L2.88461538,3.11538462 L2.88461538,2.84615385 L3.03846154,2.84615385 L3.03846154,2.42307692 L3.23076923,2.42307692 L3.23076923,2.03846154 L3.38461538,2.03846154 L3.38461538,1.53846154 L3.23076923,1.53846154 L3.23076923,1.11538462 L3.03846154,1.11538462 L3.03846154,0.615384615 L2.88461538,0.615384615 L2.88461538,0.307692308 L2.26923077,0.307692308 L2.26923077,0.615384615 L2.07692308,0.615384615 L2.07692308,1.11538462 L1.92307692,1.11538462 L1.92307692,1.53846154 L1.73076923,1.53846154 L1.73076923,1.11538462 L1.57692308,1.11538462 L1.57692308,0.615384615 L1.38461538,0.615384615 L1.38461538,0.307692308 L0.807692308,0.307692308 L0.807692308,0.615384615 L0.615384615,0.615384615 L0.615384615,1.11538462 L0.461538462,1.11538462 L0.461538462,1.53846154 L0.269230769,1.53846154 L0.269230769,2.03846154 L0.461538462,2.03846154 L0.461538462,2.42307692 L0.615384615,2.42307692 L0.615384615,2.84615385 L0.807692308,2.84615385 L0.807692308,3.11538462 L1,3.11538462 L1,3.5 L1.15384615,3.5 L1.15384615,3.11538462 L1.38461538,3.11538462 L1.38461538,2.84615385 L1.57692308,2.84615385 L1.57692308,2.42307692 L1.73076923,2.42307692 L1.73076923,2.03846154 L1.92307692,2.03846154 Z" id="XMLID_100_" fill="#ED3424"></path>
                                    <path d="M3,3.11538462 L3,3.34615385 L2.88461538,3.34615385 L2.88461538,3.61538462 L2.76923077,3.61538462 L2.76923077,3.92307692 L2.88461538,3.92307692 L2.88461538,4.19230769 L3,4.19230769 L3,4.46153846 L3.15384615,4.46153846 L3.15384615,4.19230769 L3.26923077,4.19230769 L3.26923077,3.92307692 L3.38461538,3.92307692 L3.38461538,3.61538462 L3.26923077,3.61538462 L3.26923077,3.34615385 L3.15384615,3.34615385 L3.15384615,3.11538462 L3,3.11538462 Z" id="XMLID_99_" fill="#ED3424"></path>
                                    <path d="M1.88461538,3.92307692 L1.88461538,4.19230769 L2,4.19230769 L2,4.46153846 L2.15384615,4.46153846 L2.15384615,4.19230769 L2.26923077,4.19230769 L2.26923077,3.92307692 L2.38461538,3.92307692 L2.38461538,3.61538462 L2.26923077,3.61538462 L2.26923077,3.34615385 L2.15384615,3.34615385 L2.15384615,3.11538462 L2,3.11538462 L2,3.34615385 L1.88461538,3.34615385 L1.88461538,3.61538462 L1.76923077,3.61538462 L1.76923077,3.34615385 L1.65384615,3.34615385 L1.65384615,3.11538462 L1.5,3.11538462 L1.5,3.34615385 L1.38461538,3.34615385 L1.38461538,3.61538462 L1.26923077,3.61538462 L1.26923077,3.92307692 L1.38461538,3.92307692 L1.38461538,4.19230769 L1.5,4.19230769 L1.5,4.46153846 L1.65384615,4.46153846 L1.65384615,4.19230769 L1.76923077,4.19230769 L1.76923077,3.92307692 L1.88461538,3.92307692 Z" id="XMLID_98_" fill="#ED3424"></path>
                                    <path d="M1.92307692,17.1538462 L1.92307692,16.7692308 L2.07692308,16.7692308 L2.07692308,16.3846154 L2.26923077,16.3846154 L2.26923077,16.0769231 L2.5,16.0769231 L2.5,15.6923077 L2.65384615,15.6923077 L2.65384615,16.0769231 L2.88461538,16.0769231 L2.88461538,16.3846154 L3.03846154,16.3846154 L3.03846154,16.7692308 L3.23076923,16.7692308 L3.23076923,17.1538462 L3.38461538,17.1538462 L3.38461538,17.6538462 L3.23076923,17.6538462 L3.23076923,18.0769231 L3.03846154,18.0769231 L3.03846154,18.6153846 L2.88461538,18.6153846 L2.88461538,18.9230769 L2.26923077,18.9230769 L2.26923077,18.6153846 L2.07692308,18.6153846 L2.07692308,18.0769231 L1.92307692,18.0769231 L1.92307692,17.6538462 L1.73076923,17.6538462 L1.73076923,18.0769231 L1.57692308,18.0769231 L1.57692308,18.6153846 L1.38461538,18.6153846 L1.38461538,18.9230769 L0.807692308,18.9230769 L0.807692308,18.6153846 L0.615384615,18.6153846 L0.615384615,18.0769231 L0.461538462,18.0769231 L0.461538462,17.6538462 L0.269230769,17.6538462 L0.269230769,17.1538462 L0.461538462,17.1538462 L0.461538462,16.7692308 L0.615384615,16.7692308 L0.615384615,16.3846154 L0.807692308,16.3846154 L0.807692308,16.0769231 L1,16.0769231 L1,15.6923077 L1.15384615,15.6923077 L1.15384615,16.0769231 L1.38461538,16.0769231 L1.38461538,16.3846154 L1.57692308,16.3846154 L1.57692308,16.7692308 L1.73076923,16.7692308 L1.73076923,17.1538462 L1.92307692,17.1538462 Z" id="XMLID_97_" fill="#ED3424"></path>
                                    <path d="M3,16.1153846 L3,15.8461538 L2.88461538,15.8461538 L2.88461538,15.5769231 L2.76923077,15.5769231 L2.76923077,15.3076923 L2.88461538,15.3076923 L2.88461538,15 L3,15 L3,14.7692308 L3.15384615,14.7692308 L3.15384615,15 L3.26923077,15 L3.26923077,15.3076923 L3.38461538,15.3076923 L3.38461538,15.5769231 L3.26923077,15.5769231 L3.26923077,15.8461538 L3.15384615,15.8461538 L3.15384615,16.1153846 L3,16.1153846 Z" id="XMLID_96_" fill="#ED3424"></path>
                                    <path d="M1.88461538,15.5769231 L1.88461538,15.8461538 L2,15.8461538 L2,16.1153846 L2.15384615,16.1153846 L2.15384615,15.8461538 L2.26923077,15.8461538 L2.26923077,15.5769231 L2.38461538,15.5769231 L2.38461538,15.3076923 L2.26923077,15.3076923 L2.26923077,15 L2.15384615,15 L2.15384615,14.7692308 L2,14.7692308 L2,15 L1.88461538,15 L1.88461538,15.3076923 L1.76923077,15.3076923 L1.76923077,15 L1.65384615,15 L1.65384615,14.7692308 L1.5,14.7692308 L1.5,15 L1.38461538,15 L1.38461538,15.3076923 L1.26923077,15.3076923 L1.26923077,15.5769231 L1.38461538,15.5769231 L1.38461538,15.8461538 L1.5,15.8461538 L1.5,16.1153846 L1.65384615,16.1153846 L1.65384615,15.8461538 L1.76923077,15.8461538 L1.76923077,15.5769231 L1.88461538,15.5769231 Z" id="XMLID_95_" fill="#ED3424"></path>
                                    <path d="M1.96153846,13.5 L1.96153846,14 L2.15384615,14 L2.15384615,14.4230769 L2.34615385,14.4230769 L2.34615385,14.8076923 L2.46153846,14.8076923 L2.46153846,15.0769231 L2.65384615,15.0769231 L2.65384615,14.8076923 L2.80769231,14.8076923 L2.80769231,14.4230769 L3.03846154,14.4230769 L3.03846154,14 L3.26923077,14 L3.26923077,13.6153846 L3.38461538,13.6153846 L3.38461538,13.0384615 L3.26923077,13.0384615 L3.26923077,12.6538462 L3.07692308,12.6538462 L3.07692308,12.0769231 L2.92307692,12.0769231 L2.92307692,11.6923077 L2.73076923,11.6923077 L2.73076923,12.0769231 L2.53846154,12.0769231 L2.53846154,12.6538462 L2.42307692,12.6538462 L2.42307692,13.0384615 L2.57692308,13.0384615 L2.57692308,13.6153846 L2.38461538,13.6153846 L2.38461538,13.2307692 L2.23076923,13.2307692 L2.23076923,12.5384615 L2,12.5384615 L2,12.0384615 L2.19230769,12.0384615 L2.19230769,11.6538462 L2.38461538,11.6538462 L2.38461538,11.1923077 L2.57692308,11.1923077 L2.57692308,10.6923077 L2.73076923,10.6923077 L2.73076923,10.2307692 L2.92307692,10.2307692 L2.92307692,10.6923077 L3.07692308,10.6923077 L3.07692308,11.0384615 L3.19230769,11.0384615 L3.19230769,11.5 L3.30769231,11.5 L3.30769231,11.8846154 L3.38461538,11.8846154 L3.38461538,10.5 L3.26923077,10.5 L3.26923077,10.0384615 L3.07692308,10.0384615 L3.07692308,9.76923077 L2.92307692,9.76923077 L2.92307692,9.46153846 L3.07692308,9.46153846 L3.07692308,9.15384615 L3.26923077,9.15384615 L3.26923077,8.69230769 L3.38461538,8.69230769 L3.38461538,7.34615385 L3.30769231,7.34615385 L3.30769231,7.69230769 L3.19230769,7.69230769 L3.19230769,8.15384615 L3.07692308,8.15384615 L3.07692308,8.53846154 L2.92307692,8.53846154 L2.92307692,8.96153846 L2.73076923,8.96153846 L2.73076923,8.5 L2.57692308,8.5 L2.57692308,8 L2.38461538,8 L2.38461538,7.53846154 L2.19230769,7.53846154 L2.19230769,7.15384615 L2,7.15384615 L2,6.65384615 L2.23076923,6.65384615 L2.23076923,5.96153846 L2.38461538,5.96153846 L2.38461538,5.61538462 L2.57692308,5.61538462 L2.57692308,6.19230769 L2.42307692,6.19230769 L2.42307692,6.57692308 L2.53846154,6.57692308 L2.53846154,7.11538462 L2.73076923,7.11538462 L2.73076923,7.5 L2.92307692,7.5 L2.92307692,7.11538462 L3.07692308,7.11538462 L3.07692308,6.57692308 L3.26923077,6.57692308 L3.26923077,6.19230769 L3.38461538,6.19230769 L3.38461538,5.61538462 L3.26923077,5.61538462 L3.26923077,5.23076923 L3.03846154,5.23076923 L3.03846154,4.76923077 L2.80769231,4.76923077 L2.80769231,4.38461538 L2.65384615,4.38461538 L2.65384615,4.15384615 L2.46153846,4.15384615 L2.46153846,4.38461538 L2.34615385,4.38461538 L2.34615385,4.80769231 L2.15384615,4.80769231 L2.15384615,5.23076923 L1.96153846,5.23076923 L1.96153846,5.69230769 L1.69230769,5.69230769 L1.69230769,5.23076923 L1.53846154,5.23076923 L1.53846154,4.80769231 L1.30769231,4.80769231 L1.30769231,4.38461538 L1.19230769,4.38461538 L1.19230769,4.15384615 L1,4.15384615 L1,4.38461538 L0.884615385,4.38461538 L0.884615385,4.76923077 L0.615384615,4.76923077 L0.615384615,5.23076923 L0.423076923,5.23076923 L0.423076923,5.61538462 L0.269230769,5.61538462 L0.269230769,6.19230769 L0.423076923,6.19230769 L0.423076923,6.57692308 L0.576923077,6.57692308 L0.576923077,7.11538462 L0.769230769,7.11538462 L0.769230769,7.5 L0.923076923,7.5 L0.923076923,7.11538462 L1.11538462,7.11538462 L1.11538462,6.57692308 L1.26923077,6.57692308 L1.26923077,6.19230769 L1.07692308,6.19230769 L1.07692308,5.61538462 L1.30769231,5.61538462 L1.30769231,5.96153846 L1.46153846,5.96153846 L1.46153846,6.65384615 L1.65384615,6.65384615 L1.65384615,7.15384615 L1.46153846,7.15384615 L1.46153846,7.53846154 L1.26923077,7.53846154 L1.26923077,8 L1.11538462,8 L1.11538462,8.5 L0.923076923,8.5 L0.923076923,8.96153846 L0.730769231,8.96153846 L0.730769231,8.53846154 L0.615384615,8.53846154 L0.615384615,8.15384615 L0.461538462,8.15384615 L0.461538462,7.69230769 L0.384615385,7.69230769 L0.384615385,7.34615385 L0.269230769,7.34615385 L0.269230769,8.69230769 L0.423076923,8.69230769 L0.423076923,9.15384615 L0.576923077,9.15384615 L0.576923077,9.46153846 L0.730769231,9.46153846 L0.730769231,9.76923077 L0.576923077,9.76923077 L0.576923077,10.0384615 L0.423076923,10.0384615 L0.423076923,10.5 L0.269230769,10.5 L0.269230769,11.8846154 L0.384615385,11.8846154 L0.384615385,11.5 L0.461538462,11.5 L0.461538462,11.0384615 L0.615384615,11.0384615 L0.615384615,10.6923077 L0.730769231,10.6923077 L0.730769231,10.2307692 L0.923076923,10.2307692 L0.923076923,10.6923077 L1.11538462,10.6923077 L1.11538462,11.1923077 L1.26923077,11.1923077 L1.26923077,11.6538462 L1.46153846,11.6538462 L1.46153846,12.0384615 L1.65384615,12.0384615 L1.65384615,12.5384615 L1.46153846,12.5384615 L1.46153846,13.2307692 L1.30769231,13.2307692 L1.30769231,13.6153846 L1.07692308,13.6153846 L1.07692308,13.0384615 L1.26923077,13.0384615 L1.26923077,12.6538462 L1.11538462,12.6538462 L1.11538462,12.0769231 L0.923076923,12.0769231 L0.923076923,11.6923077 L0.769230769,11.6923077 L0.769230769,12.0769231 L0.576923077,12.0769231 L0.576923077,12.6538462 L0.423076923,12.6538462 L0.423076923,13.0384615 L0.269230769,13.0384615 L0.269230769,13.6153846 L0.423076923,13.6153846 L0.423076923,14 L0.615384615,14 L0.615384615,14.4230769 L0.884615385,14.4230769 L0.884615385,14.8076923 L1,14.8076923 L1,15.0769231 L1.19230769,15.0769231 L1.19230769,14.8076923 L1.30769231,14.8076923 L1.30769231,14.4230769 L1.53846154,14.4230769 L1.53846154,14 L1.69230769,14 L1.69230769,13.5 L1.96153846,13.5 Z" id="XMLID_94_" fill="#ED3424"></path>
                                    <path d="M1.96153846,11.8076923 L1.96153846,11.3846154 L2.11538462,11.3846154 L2.11538462,11 L2.26923077,11 L2.26923077,10.5 L2.46153846,10.5 L2.46153846,10.0384615 L2.65384615,10.0384615 L2.65384615,9.76923077 L2.76923077,9.76923077 L2.76923077,9.46153846 L2.65384615,9.46153846 L2.65384615,9.15384615 L2.46153846,9.15384615 L2.46153846,8.69230769 L2.26923077,8.69230769 L2.26923077,8.23076923 L2.11538462,8.23076923 L2.11538462,7.80769231 L1.96153846,7.80769231 L1.96153846,7.42307692 L1.69230769,7.42307692 L1.69230769,7.80769231 L1.57692308,7.80769231 L1.57692308,8.23076923 L1.42307692,8.23076923 L1.42307692,8.69230769 L1.23076923,8.69230769 L1.23076923,9.15384615 L1.03846154,9.15384615 L1.03846154,9.46153846 L0.884615385,9.46153846 L0.884615385,9.76923077 L1.03846154,9.76923077 L1.03846154,10.0384615 L1.23076923,10.0384615 L1.23076923,10.5 L1.42307692,10.5 L1.42307692,11 L1.57692308,11 L1.57692308,11.3846154 L1.69230769,11.3846154 L1.69230769,11.8076923 L1.96153846,11.8076923 Z" id="XMLID_93_" fill="#FFFFFF"></path>
                                    <path d="M1.92307692,9.96153846 L1.92307692,10.1923077 L2.07692308,10.1923077 L2.07692308,10.4230769 L2.19230769,10.4230769 L2.19230769,9.96153846 L2.07692308,9.96153846 L2.07692308,9.76923077 L1.96153846,9.76923077 L1.96153846,9.46153846 L2.07692308,9.46153846 L2.07692308,9.23076923 L2.19230769,9.23076923 L2.19230769,8.76923077 L2.07692308,8.76923077 L2.07692308,9 L1.92307692,9 L1.92307692,9.23076923 L1.73076923,9.23076923 L1.73076923,9 L1.61538462,9 L1.61538462,8.76923077 L1.46153846,8.76923077 L1.46153846,9.23076923 L1.61538462,9.23076923 L1.61538462,9.46153846 L1.73076923,9.46153846 L1.73076923,9.76923077 L1.61538462,9.76923077 L1.61538462,9.96153846 L1.46153846,9.96153846 L1.46153846,10.4230769 L1.61538462,10.4230769 L1.61538462,10.1923077 L1.73076923,10.1923077 L1.73076923,9.96153846 L1.92307692,9.96153846 Z" id="XMLID_92_" fill="#ED3424"></path>
                                </g>
                                <g id="XMLID_86_" transform="translate(0.384615, 0.769231)" fill="#FFFFFF">
                                    <path d="M0.807692308,2 L0.807692308,1.65384615 L0.961538462,1.65384615 L0.961538462,1.26923077 L1.11538462,1.26923077 L1.11538462,0.807692308 L0.961538462,0.807692308 L0.961538462,0.423076923 L0.807692308,0.423076923 L0.807692308,0.0769230769 L0.615384615,0.0769230769 L0.615384615,0.423076923 L0.461538462,0.423076923 L0.461538462,0.807692308 L0.307692308,0.807692308 L0.307692308,1.26923077 L0.461538462,1.26923077 L0.461538462,1.65384615 L0.615384615,1.65384615 L0.615384615,2 L0.807692308,2 Z" id="XMLID_90_"></path>
                                    <path d="M0.807692308,15.6923077 L0.807692308,16 L0.961538462,16 L0.961538462,16.4230769 L1.11538462,16.4230769 L1.11538462,16.8461538 L0.961538462,16.8461538 L0.961538462,17.2692308 L0.807692308,17.2692308 L0.807692308,17.6153846 L0.615384615,17.6153846 L0.615384615,17.2692308 L0.461538462,17.2692308 L0.461538462,16.8461538 L0.307692308,16.8461538 L0.307692308,16.4230769 L0.461538462,16.4230769 L0.461538462,16 L0.615384615,16 L0.615384615,15.6923077 L0.807692308,15.6923077 Z" id="XMLID_89_"></path>
                                    <path d="M2.11538462,2 L2.11538462,1.65384615 L1.96153846,1.65384615 L1.96153846,1.26923077 L1.76923077,1.26923077 L1.76923077,0.807692308 L1.96153846,0.807692308 L1.96153846,0.423076923 L2.11538462,0.423076923 L2.11538462,0.0769230769 L2.26923077,0.0769230769 L2.26923077,0.423076923 L2.42307692,0.423076923 L2.42307692,0.807692308 L2.61538462,0.807692308 L2.61538462,1.26923077 L2.42307692,1.26923077 L2.42307692,1.65384615 L2.26923077,1.65384615 L2.26923077,2 L2.11538462,2 Z" id="XMLID_88_"></path>
                                    <path d="M2.11538462,15.6923077 L2.11538462,16 L1.96153846,16 L1.96153846,16.4230769 L1.76923077,16.4230769 L1.76923077,16.8461538 L1.96153846,16.8461538 L1.96153846,17.2692308 L2.11538462,17.2692308 L2.11538462,17.6153846 L2.26923077,17.6153846 L2.26923077,17.2692308 L2.42307692,17.2692308 L2.42307692,16.8461538 L2.61538462,16.8461538 L2.61538462,16.4230769 L2.42307692,16.4230769 L2.42307692,16 L2.26923077,16 L2.26923077,15.6923077 L2.11538462,15.6923077 Z" id="XMLID_87_"></path>
                                </g>
                                <g id="XMLID_54_" fill="#ED3424">
                                    <rect id="XMLID_85_" x="0.269230769" y="0.615384615" width="0.4" height="0.5"></rect>
                                    <rect id="XMLID_84_" x="1.76923077" y="2.57692308" width="0.3" height="0.5"></rect>
                                    <rect id="XMLID_83_" x="1.76923077" y="0.307692308" width="0.3" height="0.5"></rect>
                                    <rect id="XMLID_82_" x="1.76923077" y="8.23076923" width="0.3" height="0.5"></rect>
                                    <rect id="XMLID_81_" x="0.269230769" y="2.57692308" width="0.4" height="0.5"></rect>
                                    <rect id="XMLID_80_" x="0.269230769" y="4.57692308" width="0.4" height="0.5"></rect>
                                    <rect id="XMLID_79_" x="0.269230769" y="6.69230769" width="0.4" height="0.5"></rect>
                                    <rect id="XMLID_78_" x="0.269230769" y="18.1923077" width="0.4" height="0.5"></rect>
                                    <rect id="XMLID_77_" x="1.03846154" y="17.1923077" width="0.3" height="0.5"></rect>
                                    <rect id="XMLID_76_" x="1.76923077" y="16.2307692" width="0.3" height="0.5"></rect>
                                    <rect id="XMLID_75_" x="1.76923077" y="18.4615385" width="0.3" height="0.5"></rect>
                                    <rect id="XMLID_74_" x="1.76923077" y="10.5" width="0.3" height="0.5"></rect>
                                    <rect id="XMLID_73_" x="0.269230769" y="16.1923077" width="0.4" height="0.5"></rect>
                                    <rect id="XMLID_72_" x="0.269230769" y="14.1923077" width="0.4" height="0.5"></rect>
                                    <rect id="XMLID_71_" x="0.269230769" y="12.1153846" width="0.4" height="0.5"></rect>
                                    <rect id="XMLID_70_" x="0.269230769" y="9.38461538" width="0.4" height="0.5"></rect>
                                    <rect id="XMLID_69_" x="1.26923077" y="9.38461538" width="0.3" height="0.5"></rect>
                                    <rect id="XMLID_68_" x="3.23076923" y="0.615384615" width="0.4" height="0.5"></rect>
                                    <rect id="XMLID_67_" x="2.5" y="1.57692308" width="0.3" height="0.5"></rect>
                                    <rect id="XMLID_66_" x="3.23076923" y="2.57692308" width="0.4" height="0.5"></rect>
                                    <rect id="XMLID_65_" x="3.23076923" y="4.57692308" width="0.4" height="0.5"></rect>
                                    <rect id="XMLID_64_" x="3.23076923" y="6.69230769" width="0.4" height="0.5"></rect>
                                    <rect id="XMLID_63_" x="3.23076923" y="18.1923077" width="0.4" height="0.5"></rect>
                                    <rect id="XMLID_62_" x="2.5" y="17.1923077" width="0.3" height="0.5"></rect>
                                    <rect id="XMLID_61_" x="3.23076923" y="16.1923077" width="0.4" height="0.5"></rect>
                                    <rect id="XMLID_60_" x="3.23076923" y="14.1923077" width="0.4" height="0.5"></rect>
                                    <rect id="XMLID_59_" x="3.23076923" y="12.1153846" width="0.4" height="0.5"></rect>
                                    <rect id="XMLID_58_" x="3.23076923" y="9.38461538" width="0.4" height="0.5"></rect>
                                    <rect id="XMLID_57_" x="2.30769231" y="9.38461538" width="0.3" height="0.5"></rect>
                                    <rect id="XMLID_56_" x="1.76923077" y="4.57692308" width="0.3" height="0.5"></rect>
                                    <rect id="XMLID_55_" x="1.76923077" y="14.2307692" width="0.3" height="0.5"></rect>
                                </g>
                                <g id="XMLID_45_" transform="translate(0.384615, 3.461538)" fill="#FFFFFF">
                                    <rect id="XMLID_53_" x="0.153846154" y="0.192307692" width="0.2" height="0.5"></rect>
                                    <rect id="XMLID_52_" x="1.15384615" y="0.192307692" width="0.2" height="0.5"></rect>
                                    <rect id="XMLID_51_" x="0.153846154" y="11.8461538" width="0.2" height="0.5"></rect>
                                    <rect id="XMLID_50_" x="1.15384615" y="11.8461538" width="0.2" height="0.5"></rect>
                                    <rect id="XMLID_49_" x="2.65384615" y="0.192307692" width="0.2" height="0.5"></rect>
                                    <rect id="XMLID_48_" x="1.65384615" y="0.192307692" width="0.2" height="0.5"></rect>
                                    <rect id="XMLID_47_" x="2.65384615" y="11.8461538" width="0.2" height="0.5"></rect>
                                    <rect id="XMLID_46_" x="1.65384615" y="11.8461538" width="0.2" height="0.5"></rect>
                                </g>
                            </g>
                            <rect id="XMLID_43_" fill="#FFFFFF" x="1.03846154" y="1.57692308" width="0.3" height="0.5"></rect>
                        </g>
                        <rect id="XMLID_41_" x="0.0384615385" y="0.0384615385" width="4.38461538" height="19.9230769"></rect>
                    </g>
                </g>
                <rect id="Rectangle-448" stroke="#B3B9BD" x="0" y="0" width="30" height="20"></rect>
            </g>
        </g>
    </g>
</svg>