<?xml version="1.0" encoding="UTF-8" standalone="no"?>
<svg width="30px" height="20px" viewBox="0 0 30 20" version="1.1" xmlns="http://www.w3.org/2000/svg" xmlns:xlink="http://www.w3.org/1999/xlink">
    <!-- Generator: Sketch 3.6.1 (26313) - http://www.bohemiancoding.com/sketch -->
    <title>kazachstan</title>
    <desc>Created with Sketch.</desc>
    <defs></defs>
    <g id="Page-1" stroke="none" stroke-width="1" fill="none" fill-rule="evenodd">
        <g id="Сведения-о-документе-Copy-6" transform="translate(-631.000000, -426.000000)">
            <g id="kazachstan" transform="translate(631.000000, 426.000000)">
                <g id="Layer_1">
                    <g id="XMLID_89_">
                        <rect id="XMLID_158_" fill="#0092C0" x="0" y="0" width="30" height="20"></rect>
                        <g id="XMLID_114_" transform="translate(8.846154, 3.461538)" fill="#FFF100">
                            <g id="XMLID_123_" transform="translate(1.538462, 0.000000)">
                                <path id="XMLID_157_" d="M4.78846154,0.230769231 C4.73846154,0.5 4.53846154,1.11538462 4.53846154,1.26923077 C4.53846154,1.38461538 4.63846154,1.46153846 4.78846154,1.46153846 C4.93846154,1.46153846 5.03846154,1.38461538 5.03846154,1.26923077 C5.03846154,1.15384615 4.83846154,0.5 4.78846154,0.230769231 L4.78846154,0.230769231 Z"></path>
                                <path id="XMLID_156_" d="M3.84981939,0.346153846 C3.84981939,0.615384615 3.80311038,1.26923077 3.84981939,1.38461538 C3.89652839,1.5 3.9899464,1.57692308 4.13007342,1.53846154 C4.27020043,1.5 4.36361844,1.42307692 4.31690943,1.30769231 C4.27020043,1.19230769 3.9432374,0.576923077 3.84981939,0.346153846 L3.84981939,0.346153846 Z"></path>
                                <path d="M2.96153846,0.615384615 C3,0.884615385 3.11538462,1.53846154 3.15384615,1.65384615 C3.19230769,1.76923077 3.30769231,1.80769231 3.42307692,1.76923077 C3.53846154,1.73076923 3.57692308,1.61538462 3.53846154,1.5 C3.5,1.38461538 3.11538462,0.807692308 2.96153846,0.615384615 L2.96153846,0.615384615 Z" id="XMLID_155_"></path>
                                <path d="M2.19230769,1.03846154 C2.30769231,1.30769231 2.5,1.88461538 2.57692308,2 C2.65384615,2.07692308 2.76923077,2.11538462 2.84615385,2.03846154 C2.92307692,1.96153846 2.96153846,1.84615385 2.88461538,1.76923077 C2.84615385,1.69230769 2.38461538,1.23076923 2.19230769,1.03846154 L2.19230769,1.03846154 Z" id="XMLID_154_"></path>
                                <path d="M1.5,1.61538462 C1.65384615,1.84615385 1.96153846,2.38461538 2.07692308,2.5 C2.15384615,2.57692308 2.26923077,2.57692308 2.34615385,2.5 C2.42307692,2.42307692 2.42307692,2.30769231 2.34615385,2.19230769 C2.26923077,2.11538462 1.73076923,1.76923077 1.5,1.61538462 L1.5,1.61538462 Z" id="XMLID_153_"></path>
                                <path d="M0.923076923,2.34615385 C1.11538462,2.53846154 1.53846154,3.03846154 1.65384615,3.07692308 C1.73076923,3.15384615 1.88461538,3.11538462 1.92307692,3.03846154 C2,2.96153846 1.96153846,2.80769231 1.88461538,2.76923077 C1.76923077,2.65384615 1.19230769,2.42307692 0.923076923,2.34615385 L0.923076923,2.34615385 Z" id="XMLID_152_"></path>
                                <path d="M0.5,3.15384615 C0.730769231,3.30769231 1.23076923,3.69230769 1.34615385,3.73076923 C1.46153846,3.76923077 1.57692308,3.73076923 1.61538462,3.61538462 C1.65384615,3.5 1.61538462,3.38461538 1.5,3.34615385 C1.42307692,3.30769231 0.769230769,3.19230769 0.5,3.15384615 L0.5,3.15384615 Z" id="XMLID_150_"></path>
                                <path id="XMLID_149_" d="M0.269230769,4.04367493 C0.5,4.17991311 1.07692308,4.49780219 1.19230769,4.49780219 C1.30769231,4.54321492 1.42307692,4.45238946 1.42307692,4.31615129 C1.46153846,4.17991311 1.38461538,4.04367493 1.26923077,4.04367493 C1.15384615,3.9982622 0.5,3.9982622 0.269230769,4.04367493 L0.269230769,4.04367493 Z"></path>
                                <path id="XMLID_147_" d="M0.153846154,4.98076923 C0.423076923,5.03076923 1.03846154,5.23076923 1.15384615,5.23076923 C1.26923077,5.23076923 1.34615385,5.13076923 1.34615385,4.98076923 C1.34615385,4.83076923 1.26923077,4.73076923 1.15384615,4.73076923 C1.03846154,4.73076923 0.423076923,4.93076923 0.153846154,4.98076923 L0.153846154,4.98076923 Z"></path>
                                <path id="XMLID_146_" d="M0.269230769,5.93077392 C0.538461538,5.93077392 1.15384615,5.97748292 1.26923077,5.93077392 C1.38461538,5.88406491 1.46153846,5.79064691 1.42307692,5.65051989 C1.38461538,5.51039288 1.30769231,5.41697487 1.19230769,5.46368387 C1.07692308,5.46368387 0.5,5.79064691 0.269230769,5.93077392 L0.269230769,5.93077392 Z"></path>
                                <path d="M0.5,6.73076923 C0.769230769,6.69230769 1.38461538,6.57692308 1.5,6.53846154 C1.61538462,6.5 1.65384615,6.38461538 1.61538462,6.26923077 C1.57692308,6.15384615 1.46153846,6.11538462 1.34615385,6.15384615 C1.26923077,6.19230769 0.730769231,6.57692308 0.5,6.73076923 L0.5,6.73076923 Z" id="XMLID_145_"></path>
                                <path d="M0.923076923,7.53846154 C1.15384615,7.42307692 1.76923077,7.19230769 1.84615385,7.15384615 C1.92307692,7.07692308 1.96153846,6.96153846 1.88461538,6.88461538 C1.80769231,6.80769231 1.69230769,6.76923077 1.61538462,6.84615385 C1.53846154,6.84615385 1.11538462,7.34615385 0.923076923,7.53846154 L0.923076923,7.53846154 Z" id="XMLID_144_"></path>
                                <path d="M1.5,8.26923077 C1.73076923,8.11538462 2.26923077,7.76923077 2.34615385,7.69230769 C2.42307692,7.61538462 2.42307692,7.5 2.34615385,7.38461538 C2.26923077,7.30769231 2.15384615,7.30769231 2.07692308,7.38461538 C1.96153846,7.46153846 1.65384615,8.03846154 1.5,8.26923077 L1.5,8.26923077 Z" id="XMLID_143_"></path>
                                <path d="M2.19230769,8.84615385 C2.38461538,8.65384615 2.84615385,8.19230769 2.92307692,8.11538462 C3,8.03846154 2.96153846,7.88461538 2.88461538,7.84615385 C2.80769231,7.76923077 2.65384615,7.80769231 2.61538462,7.88461538 C2.5,7.96153846 2.26923077,8.57692308 2.19230769,8.84615385 L2.19230769,8.84615385 Z" id="XMLID_142_"></path>
                                <path d="M2.96153846,9.26923077 C3.11538462,9.03846154 3.5,8.5 3.53846154,8.38461538 C3.57692308,8.26923077 3.53846154,8.15384615 3.42307692,8.11538462 C3.30769231,8.07692308 3.19230769,8.11538462 3.15384615,8.23076923 C3.11538462,8.34615385 3.03846154,9 2.96153846,9.26923077 L2.96153846,9.26923077 Z" id="XMLID_141_"></path>
                                <path id="XMLID_140_" d="M3.80769231,9.53846154 C3.95388929,9.30769231 4.29501559,8.69230769 4.29501559,8.57692308 C4.34374792,8.46153846 4.24628326,8.34615385 4.10008628,8.34615385 C3.95388929,8.30769231 3.80769231,8.38461538 3.80769231,8.5 L3.80769231,9.53846154 L3.80769231,9.53846154 Z"></path>
                                <path id="XMLID_139_" d="M4.78627519,9.61538462 C4.83549816,9.34615385 5.03239006,8.73076923 5.03239006,8.57692308 C5.03239006,8.46153846 4.93394411,8.38461538 4.78627519,8.38461538 C4.63860627,8.38461538 4.54016032,8.46153846 4.54016032,8.57692308 C4.49093735,8.73076923 4.68782924,9.38461538 4.78627519,9.61538462 L4.78627519,9.61538462 Z"></path>
                                <path id="XMLID_138_" d="M5.70000469,9.53846154 C5.70000469,9.26923077 5.74671369,8.61538462 5.70000469,8.5 C5.65329568,8.38461538 5.55987767,8.30769231 5.41975066,8.34615385 C5.27962365,8.38461538 5.18620564,8.46153846 5.23291464,8.57692308 C5.23291464,8.69230769 5.55987767,9.30769231 5.70000469,9.53846154 L5.70000469,9.53846154 Z"></path>
                                <path d="M6.46153846,9.26923077 C6.42307692,9 6.30769231,8.34615385 6.26923077,8.23076923 C6.23076923,8.11538462 6.11538462,8.07692308 6,8.11538462 C5.88461538,8.15384615 5.84615385,8.26923077 5.88461538,8.38461538 C5.92307692,8.5 6.30769231,9.03846154 6.46153846,9.26923077 L6.46153846,9.26923077 Z" id="XMLID_137_"></path>
                                <path d="M7.23076923,8.84615385 C7.11538462,8.57692308 6.92307692,7.96153846 6.84615385,7.88461538 C6.76923077,7.80769231 6.65384615,7.76923077 6.57692308,7.84615385 C6.5,7.92307692 6.46153846,8.03846154 6.53846154,8.11538462 C6.57692308,8.19230769 7.07692308,8.65384615 7.23076923,8.84615385 L7.23076923,8.84615385 Z" id="XMLID_136_"></path>
                                <path d="M7.92307692,8.26923077 C7.76923077,8.03846154 7.46153846,7.5 7.34615385,7.38461538 C7.26923077,7.30769231 7.15384615,7.30769231 7.07692308,7.38461538 C7,7.46153846 7,7.57692308 7.07692308,7.69230769 C7.15384615,7.76923077 7.73076923,8.11538462 7.92307692,8.26923077 L7.92307692,8.26923077 Z" id="XMLID_135_"></path>
                                <path d="M8.5,7.53846154 C8.30769231,7.34615385 7.88461538,6.84615385 7.76923077,6.80769231 C7.69230769,6.73076923 7.53846154,6.76923077 7.5,6.84615385 C7.42307692,6.92307692 7.46153846,7.07692308 7.53846154,7.11538462 C7.65384615,7.19230769 8.26923077,7.46153846 8.5,7.53846154 L8.5,7.53846154 Z" id="XMLID_134_"></path>
                                <path d="M8.92307692,6.73076923 C8.69230769,6.57692308 8.19230769,6.19230769 8.07692308,6.15384615 C7.96153846,6.11538462 7.84615385,6.15384615 7.80769231,6.26923077 C7.76923077,6.38461538 7.80769231,6.5 7.92307692,6.53846154 C8.03846154,6.57692308 8.65384615,6.69230769 8.92307692,6.73076923 L8.92307692,6.73076923 Z" id="XMLID_133_"></path>
                                <path id="XMLID_132_" d="M9.19230769,5.93077392 C8.96153846,5.79064691 8.38461538,5.46368387 8.26923077,5.46368387 C8.15384615,5.41697487 8.03846154,5.51039288 8.03846154,5.65051989 C8,5.79064691 8.07692308,5.93077392 8.19230769,5.93077392 C8.26923077,5.97748292 8.92307692,5.93077392 9.19230769,5.93077392 L9.19230769,5.93077392 Z"></path>
                                <path id="XMLID_131_" d="M9.26923077,4.9768841 C9,4.92766113 8.38461538,4.73076923 8.26923077,4.73076923 C8.15384615,4.73076923 8.07692308,4.82921518 8.07692308,4.9768841 C8.07692308,5.12455302 8.15384615,5.22299897 8.26923077,5.22299897 C8.38461538,5.27222194 9,5.07533005 9.26923077,4.9768841 L9.26923077,4.9768841 Z"></path>
                                <path id="XMLID_130_" d="M9.19230769,4.04212708 C8.92307692,4.04212708 8.30769231,3.99541807 8.19230769,4.04212708 C8.07692308,4.08883608 8,4.18225409 8.03846154,4.32238111 C8.07692308,4.46250812 8.15384615,4.55592613 8.26923077,4.50921713 C8.34615385,4.50921713 8.96153846,4.13554509 9.19230769,4.04212708 L9.19230769,4.04212708 Z"></path>
                                <path d="M8.92307692,3.15384615 C8.65384615,3.19230769 8.03846154,3.30769231 7.92307692,3.34615385 C7.80769231,3.38461538 7.76923077,3.5 7.80769231,3.61538462 C7.84615385,3.73076923 7.96153846,3.76923077 8.07692308,3.73076923 C8.19230769,3.69230769 8.69230769,3.30769231 8.92307692,3.15384615 L8.92307692,3.15384615 Z" id="XMLID_129_"></path>
                                <path d="M8.5,2.34615385 C8.26923077,2.46153846 7.65384615,2.69230769 7.57692308,2.73076923 C7.5,2.80769231 7.46153846,2.92307692 7.53846154,3 C7.61538462,3.07692308 7.73076923,3.11538462 7.80769231,3.03846154 C7.88461538,3 8.30769231,2.53846154 8.5,2.34615385 L8.5,2.34615385 Z" id="XMLID_128_"></path>
                                <path d="M7.92307692,1.61538462 C7.69230769,1.76923077 7.15384615,2.11538462 7.07692308,2.19230769 C7,2.26923077 7,2.42307692 7.07692308,2.5 C7.15384615,2.57692308 7.26923077,2.57692308 7.34615385,2.5 C7.46153846,2.42307692 7.80769231,1.84615385 7.92307692,1.61538462 L7.92307692,1.61538462 Z" id="XMLID_127_"></path>
                                <path d="M7.23076923,1.03846154 C7.03846154,1.23076923 6.57692308,1.69230769 6.5,1.76923077 C6.42307692,1.84615385 6.46153846,2 6.53846154,2.03846154 C6.61538462,2.11538462 6.76923077,2.07692308 6.80769231,2 C6.92307692,1.92307692 7.15384615,1.26923077 7.23076923,1.03846154 L7.23076923,1.03846154 Z" id="XMLID_126_"></path>
                                <path d="M6.46153846,0.615384615 C6.30769231,0.846153846 5.92307692,1.38461538 5.88461538,1.5 C5.84615385,1.61538462 5.88461538,1.73076923 6,1.76923077 C6.11538462,1.80769231 6.23076923,1.76923077 6.26923077,1.65384615 C6.30769231,1.53846154 6.42307692,0.884615385 6.46153846,0.615384615 L6.46153846,0.615384615 Z" id="XMLID_125_"></path>
                                <path id="XMLID_124_" d="M5.72076425,0.346153846 C5.57456726,0.576923077 5.23344097,1.19230769 5.23344097,1.30769231 C5.18470864,1.42307692 5.28217329,1.53846154 5.42837028,1.53846154 C5.57456726,1.57692308 5.72076425,1.5 5.72076425,1.38461538 L5.72076425,0.346153846 L5.72076425,0.346153846 Z"></path>
                            </g>
                            <path d="M6.26923077,8.03846154 C7.92307692,8.03846154 9.30769231,6.65384615 9.30769231,4.92307692 C9.30769231,3.19230769 7.96153846,1.80769231 6.26923077,1.80769231 C4.61538462,1.80769231 3.26923077,3.19230769 3.26923077,4.92307692 C3.26923077,6.65384615 4.57692308,8.03846154 6.26923077,8.03846154 L6.26923077,8.03846154 Z" id="XMLID_122_"></path>
                            <g id="XMLID_115_" transform="translate(0.000000, 4.615385)">
                                <path d="M6.11538462,5.5 C5.92307692,5.53846154 5.30769231,5.46153846 4.96153846,5.30769231 C4.38461538,5.07692308 3.80769231,4.92307692 3.53846154,4.65384615 C3.15384615,4.30769231 1.88461538,3.57692308 1.38461538,1.57692308 C1.30769231,1.19230769 1.30769231,1.03846154 1.19230769,1.03846154 C1.15384615,1.03846154 1.07692308,1.34615385 1.15384615,1.69230769 C1.19230769,2.03846154 1.11538462,2 0.923076923,1.53846154 C0.769230769,1.11538462 0.653846154,0.769230769 0.615384615,0.461538462 C0.576923077,0.192307692 0.384615385,0.423076923 0.423076923,0.807692308 C0.461538462,1.11538462 0.692307692,1.76923077 0.923076923,2.11538462 C1.11538462,2.42307692 0.961538462,2.42307692 0.769230769,2.15384615 C0.576923077,1.88461538 0.307692308,1.5 0.153846154,1.03846154 C1.4648005e-14,0.615384615 1.4648005e-14,1.23076923 0.0769230769,1.46153846 C0.269230769,2.07692308 0.730769231,2.65384615 0.961538462,2.88461538 C1.19230769,3.15384615 1.11538462,3.19230769 0.884615385,3.03846154 C0.653846154,2.84615385 0.576923077,2.84615385 0.307692308,2.53846154 C0.0384615385,2.23076923 -0.0769230769,2.38461538 0.192307692,2.69230769 C0.423076923,3 0.692307692,3.23076923 0.961538462,3.5 C1.11538462,3.61538462 1.26923077,3.76923077 1,3.73076923 C0.846153846,3.69230769 0.615384615,3.53846154 0.5,3.42307692 C0.384615385,3.30769231 0.230769231,3.30769231 0.384615385,3.53846154 C0.538461538,3.76923077 0.961538462,4.15384615 1.30769231,4.26923077 C1.42307692,4.30769231 1.34615385,4.38461538 1.07692308,4.34615385 C0.846153846,4.30769231 1,4.46153846 1.11538462,4.53846154 C1.23076923,4.61538462 1.42307692,4.65384615 1.57692308,4.69230769 C1.73076923,4.73076923 1.69230769,4.76923077 1.53846154,4.80769231 C1.42307692,4.80769231 1.30769231,4.80769231 1.23076923,4.76923077 C1.15384615,4.73076923 1.23076923,4.84615385 1.30769231,4.88461538 C1.38461538,4.92307692 1.53846154,4.96153846 1.61538462,4.96153846 C1.73076923,4.96153846 1.69230769,5.11538462 1.57692308,5.07692308 C1.46153846,5.03846154 1.34615385,5.03846154 1.38461538,5.11538462 C1.46153846,5.19230769 1.76923077,5.26923077 2,5.26923077 C2.23076923,5.26923077 2.15384615,5.34615385 2.03846154,5.38461538 C1.92307692,5.42307692 1.80769231,5.42307692 1.73076923,5.42307692 C1.65384615,5.42307692 1.61538462,5.53846154 1.76923077,5.53846154 C1.96153846,5.53846154 2.19230769,5.57692308 2.53846154,5.73076923 C3,5.96153846 3.65384615,6.19230769 4.07692308,6.15384615 C4.46153846,6.11538462 4.26923077,6 4.07692308,6 C3.76923077,6.03846154 3.5,5.80769231 3.30769231,5.80769231 C3.07692308,5.80769231 2.76923077,5.53846154 2.57692308,5.53846154 C2.46153846,5.53846154 2.38461538,5.42307692 2.53846154,5.38461538 C2.69230769,5.34615385 2.73076923,5.26923077 2.69230769,5.23076923 C2.65384615,5.15384615 2.42307692,5.23076923 2.26923077,5.15384615 C2.15384615,5.11538462 2.15384615,5.03846154 2.26923077,5 C2.38461538,4.92307692 2.30769231,4.84615385 2.11538462,4.84615385 C1.92307692,4.84615385 1.88461538,4.73076923 1.96153846,4.65384615 C2.03846154,4.57692308 2,4.53846154 1.92307692,4.53846154 C1.80769231,4.53846154 1.84615385,4.46153846 1.88461538,4.42307692 C1.96153846,4.38461538 1.92307692,4.34615385 1.84615385,4.34615385 C1.65384615,4.30769231 1.53846154,4.15384615 1.42307692,4.07692308 C1.30769231,4.03846154 1.30769231,3.96153846 1.38461538,4 C1.42307692,4 1.5,3.96153846 1.42307692,3.92307692 C1.30769231,3.80769231 1.42307692,3.76923077 1.26923077,3.65384615 C1.15384615,3.57692308 1.07692308,3.5 1.11538462,3.42307692 C1.15384615,3.34615385 1.34615385,3.38461538 1.38461538,3.30769231 C1.38461538,3.23076923 1.11538462,3.07692308 1.11538462,2.92307692 C1.11538462,2.84615385 1.15384615,2.84615385 1.23076923,2.88461538 C1.26923077,2.92307692 1.34615385,2.92307692 1.34615385,2.84615385 C1.34615385,2.76923077 1.34615385,2.73076923 1.46153846,2.80769231 C1.76923077,3 2.15384615,3.53846154 2.5,4.07692308 C2.73076923,4.46153846 3,4.61538462 3.19230769,4.65384615 C3.46153846,4.73076923 4,5.11538462 4.23076923,5.30769231 C4.38461538,5.46153846 4.5,5.53846154 4.76923077,5.5 C5.03846154,5.46153846 5.34615385,5.5 5.57692308,5.61538462 C5.80769231,5.73076923 6.03846154,5.84615385 6.23076923,5.57692308 C6.26923077,5.5 6.26923077,5.5 6.11538462,5.5 L6.11538462,5.5 Z" id="XMLID_121_"></path>
                                <path d="M7.76923077,5.61538462 C7.15384615,5.61538462 6.76923077,5.69230769 6.61538462,5.80769231 C6.34615385,6.03846154 6.26923077,5.92307692 6.15384615,6.03846154 C6.03846154,6.11538462 5.92307692,6.15384615 5.84615385,6.11538462 C5.76923077,6.07692308 5.76923077,6.03846154 5.88461538,6 C6,5.96153846 6.11538462,5.84615385 6.19230769,5.76923077 C6.38461538,5.53846154 6.73076923,5.5 7.03846154,5.42307692 C7.96153846,5.23076923 9.34615385,4.73076923 10.3076923,3.46153846 C10.9615385,2.61538462 11.1923077,1.69230769 11.3076923,0.846153846 C11.3461538,0.538461538 11.5,0.615384615 11.5,0.807692308 C11.5384615,1 11.4615385,1.5 11.4230769,1.65384615 C11.3846154,1.80769231 11.4230769,1.92307692 11.5769231,1.69230769 C11.8076923,1.34615385 12,0.615384615 12.0769231,0.269230769 C12.1538462,-0.0769230769 12.2692308,-0.0384615385 12.2692308,0.269230769 C12.2692308,0.769230769 12.0384615,1.53846154 11.6153846,2.19230769 C11.4615385,2.46153846 11.5384615,2.53846154 11.7692308,2.26923077 C12.1153846,1.88461538 12.2692308,1.65384615 12.4230769,1.26923077 C12.5769231,0.923076923 12.6538462,1 12.5384615,1.42307692 C12.3846154,2.03846154 12.0384615,2.46153846 11.7307692,2.76923077 C11.4615385,3.07692308 11.5769231,3.07692308 11.7307692,3.03846154 C11.8846154,3 12.1538462,2.73076923 12.3846154,2.46153846 C12.5769231,2.19230769 12.6538462,2.30769231 12.5384615,2.57692308 C12.4230769,2.80769231 12.0769231,3.23076923 11.8076923,3.5 C11.6153846,3.69230769 11.7692308,3.69230769 11.9230769,3.57692308 C12.0384615,3.46153846 12.1538462,3.30769231 12.2692308,3.26923077 C12.3846154,3.23076923 12.5769231,3.23076923 12.2307692,3.57692308 C12.0769231,3.73076923 11.6153846,4.07692308 11.4230769,4.19230769 C11.1923077,4.30769231 11.2692308,4.38461538 11.4615385,4.34615385 C11.6153846,4.30769231 11.8846154,4.15384615 11.8846154,4.23076923 C11.8846154,4.30769231 11.6923077,4.42307692 11.5384615,4.46153846 C11.3461538,4.53846154 11.2692308,4.69230769 11.4615385,4.69230769 C11.5769231,4.69230769 11.5384615,4.76923077 11.4615385,4.80769231 C11.3846154,4.80769231 11.1923077,4.84615385 11.1923077,4.92307692 C11.1923077,4.96153846 11.2692308,5 11.3076923,5 C11.3461538,5 11.3846154,5.03846154 11.3076923,5.11538462 C11.0769231,5.30769231 10.7307692,5.19230769 10.6153846,5.30769231 C10.5,5.42307692 10.6153846,5.38461538 10.7692308,5.38461538 C10.9615385,5.38461538 11.1153846,5.53846154 10.8461538,5.53846154 C10.4615385,5.53846154 10,5.65384615 9.61538462,5.84615385 C9.30769231,6 9.07692308,5.84615385 9.5,5.69230769 C9.73076923,5.61538462 10.0384615,5.5 10.1538462,5.42307692 C10.3846154,5.30769231 10,5.34615385 10.2692308,5.19230769 C10.3461538,5.15384615 10.5384615,5.15384615 10.5384615,5.07692308 C10.5384615,5 10.3846154,4.96153846 10.5,4.92307692 C10.5769231,4.88461538 10.6923077,4.88461538 10.7692308,4.88461538 C10.8461538,4.88461538 10.9230769,4.80769231 10.8076923,4.76923077 C10.6923077,4.73076923 10.6923077,4.69230769 10.8461538,4.65384615 C10.9615385,4.61538462 11.1153846,4.57692308 11.1923077,4.53846154 C11.2692308,4.5 11.2692308,4.42307692 11.1153846,4.42307692 C11,4.42307692 10.9615385,4.34615385 11.0769231,4.30769231 C11.2307692,4.26923077 11.4230769,4.15384615 11.5384615,4.07692308 C11.6538462,4 11.6153846,3.96153846 11.5,3.92307692 C11.3846154,3.88461538 11.3846154,3.88461538 11.4615385,3.80769231 C11.5769231,3.73076923 11.6538462,3.65384615 11.6923077,3.61538462 C11.7307692,3.53846154 11.7307692,3.46153846 11.6153846,3.46153846 C11.4615385,3.46153846 11.4230769,3.46153846 11.4230769,3.30769231 C11.4230769,3.15384615 11.4615385,3.11538462 11.5384615,3 C11.6153846,2.88461538 11.5384615,2.80769231 11.3461538,2.88461538 C11,3.03846154 10.8846154,3.07692308 10.7307692,3.30769231 C10.5769231,3.57692308 10.3461538,3.84615385 10.2307692,4.07692308 C10.1153846,4.30769231 9.84615385,4.57692308 9.61538462,4.65384615 C9.34615385,4.73076923 8.76923077,5 8.53846154,5.19230769 C8.03846154,5.53846154 8.11538462,5.61538462 7.76923077,5.61538462 L7.76923077,5.61538462 Z" id="XMLID_119_"></path>
                                <path id="XMLID_118_" d="M4.84615385,6.73076923 C4.73076923,6.6474359 4.73076923,6.56410256 4.92307692,6.5224359 C5.11538462,6.48076923 5.11538462,6.48076923 5.19230769,6.43910256 C5.26923077,6.3974359 5.61538462,6.23076923 5.73076923,6.23076923 C5.88461538,6.23076923 5.84615385,6.35576923 5.73076923,6.35576923 C5.57692308,6.35576923 5.26923077,6.5224359 5.19230769,6.60576923 C5.07692308,6.68910256 5.03846154,6.68910256 4.96153846,6.68910256 C4.88461538,6.6474359 4.84615385,6.68910256 4.84615385,6.73076923 L4.84615385,6.73076923 Z"></path>
                                <path d="M4.53846154,7.15384615 C4.42307692,7 4.53846154,6.84615385 4.73076923,6.76923077 C4.76923077,6.73076923 4.84615385,6.84615385 5.03846154,6.84615385 C5.23076923,6.84615385 5.42307692,6.80769231 5.30769231,6.69230769 C5.26923077,6.61538462 5.23076923,6.57692308 5.30769231,6.57692308 C5.34615385,6.57692308 5.38461538,6.57692308 5.38461538,6.53846154 C5.42307692,6.53846154 5.46153846,6.5 5.5,6.53846154 C5.53846154,6.53846154 5.57692308,6.57692308 5.61538462,6.53846154 C5.65384615,6.53846154 5.69230769,6.57692308 5.65384615,6.61538462 C5.53846154,6.73076923 5.61538462,6.80769231 5.69230769,6.76923077 C5.76923077,6.76923077 5.92307692,6.73076923 6,6.76923077 C6.07692308,6.80769231 6.15384615,6.80769231 6.23076923,6.76923077 C6.30769231,6.76923077 6.42307692,6.76923077 6.57692308,6.80769231 C6.73076923,6.88461538 6.73076923,7 6.57692308,6.96153846 C6.23076923,6.88461538 5.96153846,6.88461538 5.76923077,6.92307692 C5.57692308,6.96153846 5.26923077,6.92307692 5.03846154,6.88461538 C4.88461538,6.96153846 4.69230769,6.92307692 4.53846154,7.15384615 L4.53846154,7.15384615 Z" id="XMLID_117_"></path>
                                <path d="M5.80769231,7.23076923 C5.69230769,7.38461538 5.53846154,7.5 5.38461538,7.53846154 C5.23076923,7.57692308 5.11538462,7.65384615 5.34615385,7.69230769 C5.57692308,7.73076923 5.65384615,7.65384615 5.76923077,7.61538462 C5.88461538,7.57692308 5.92307692,7.46153846 6,7.57692308 C6.07692308,7.69230769 6.15384615,7.69230769 6.26923077,7.57692308 C6.34615385,7.5 6.38461538,7.46153846 6.46153846,7.46153846 C6.53846154,7.46153846 6.57692308,7.5 6.5,7.57692308 C6.42307692,7.65384615 6.5,7.80769231 6.61538462,7.65384615 C6.73076923,7.53846154 6.80769231,7.46153846 6.88461538,7.46153846 C7,7.46153846 6.96153846,7.5 6.88461538,7.57692308 C6.80769231,7.65384615 6.76923077,7.69230769 6.92307692,7.69230769 C7.07692308,7.69230769 7.15384615,7.65384615 7.19230769,7.57692308 C7.23076923,7.5 7.26923077,7.42307692 7.42307692,7.53846154 C7.53846154,7.65384615 7.61538462,7.73076923 7.65384615,7.61538462 C7.73076923,7.5 7.73076923,7.46153846 7.80769231,7.53846154 C7.88461538,7.61538462 8.19230769,7.53846154 8.23076923,7.38461538 C8.23076923,7.30769231 8.23076923,7.23076923 8.34615385,7.34615385 C8.46153846,7.42307692 8.65384615,7.42307692 8.65384615,7.30769231 C8.65384615,7.19230769 8.73076923,7.15384615 8.84615385,7.23076923 C8.96153846,7.26923077 9.07692308,7.30769231 9.15384615,7.23076923 C9.23076923,7.15384615 9.23076923,7.11538462 9.19230769,7.03846154 C9.15384615,6.96153846 9.15384615,6.84615385 9.30769231,6.92307692 C9.53846154,7 9.76923077,7.11538462 9.96153846,6.88461538 C10.1153846,6.69230769 10.1923077,6.61538462 9.92307692,6.65384615 C9.65384615,6.65384615 9.15384615,6.61538462 8.92307692,6.57692308 C8.69230769,6.53846154 8.38461538,6.5 8.34615385,6.5 C8.26923077,6.5 8.26923077,6.53846154 8.26923077,6.57692308 C8.26923077,6.61538462 8.19230769,6.61538462 8.19230769,6.69230769 C8.19230769,6.76923077 8.11538462,6.80769231 8.07692308,6.76923077 C8,6.73076923 8,6.76923077 8,6.84615385 C8.03846154,6.92307692 8.03846154,7 7.92307692,6.96153846 C7.65384615,6.92307692 7.53846154,7 7.34615385,7.07692308 C6.96153846,7.26923077 6.69230769,7.26923077 6.38461538,7.23076923 C6.03846154,7.11538462 5.92307692,7.07692308 5.80769231,7.23076923 L5.80769231,7.23076923 Z" id="XMLID_116_"></path>
                            </g>
                        </g>
                        <g id="XMLID_90_" transform="translate(1.153846, 0.000000)" fill="#FFF100">
                            <g id="XMLID_112_" transform="translate(0.000000, 13.461538)">
                                <path d="M1.38461538,1.03846154 C1.38461538,0.807692308 0.961538462,0.153846154 0.384615385,0.461538462 C-0.346153846,0.884615385 0.769230769,2.46153846 1.11538462,3.30769231 C1.30769231,3.76923077 1.07692308,4.03846154 0.846153846,4.03846154 C0.615384615,4.07692308 0.5,3.92307692 0.461538462,3.76923077 C0.423076923,3.65384615 0.538461538,3.53846154 0.692307692,3.5 C0.807692308,3.5 0.884615385,3.57692308 0.846153846,3.65384615 C0.576923077,3.57692308 0.538461538,3.88461538 0.769230769,3.88461538 C1.07692308,3.88461538 1.11538462,3.57692308 1,3.42307692 C0.884615385,3.30769231 0.615384615,3.30769231 0.538461538,3.42307692 C0.576923077,3.30769231 0.615384615,3.15384615 0.615384615,3 C0.615384615,2.92307692 0.653846154,2.73076923 0.730769231,2.65384615 C0.692307692,2.61538462 0.576923077,2.69230769 0.576923077,2.73076923 C0.538461538,2.57692308 0.423076923,2.46153846 0.269230769,2.38461538 C0.461538462,2.76923077 0.461538462,3.11538462 0.346153846,3.38461538 C0.192307692,3.73076923 0.307692308,4.26923077 0.923076923,4.19230769 C1.46153846,4.15384615 1.53846154,3.61538462 1.15384615,2.88461538 C0.769230769,2.15384615 7.49400542e-15,0.846153846 0.538461538,0.615384615 C0.730769231,0.538461538 1,0.923076923 1.11538462,1.19230769 C1.19230769,1.26923077 1.15384615,1.53846154 1.07692308,1.53846154 L1.03846154,1.53846154 L1.03846154,1.53846154 L0.384615385,1.53846154 L0.384615385,1.07692308 C0.384615385,1.07692308 0.307692308,1.11538462 0.307692308,1.15384615 L0.384615385,1.23076923 L0.384615385,1.92307692 L1,1.92307692 L1,1.92307692 L1.15384615,1.92307692 C1.19230769,1.92307692 1.15384615,1.23076923 1.15384615,1.30769231 L1.15384615,1.92307692 C1.15384615,2 1,1.96153846 1,1.84615385 C1,1.80769231 0.961538462,1.76923077 0.923076923,1.80769231 C0.730769231,2 0.769230769,2.15384615 1.15384615,2.07692308 L1.15384615,3.07692308 L1.53846154,3.07692308 L1.53846154,2.07692308 C1.53846154,2.15384615 1.96153846,2 1.76923077,1.80769231 C1.73076923,1.76923077 1.69230769,1.80769231 1.73076923,1.84615385 C1.73076923,1.96153846 1.53846154,1.96153846 1.53846154,1.92307692 L1.53846154,1.30769231 C1.53846154,1.23076923 1.57692308,1.92307692 1.61538462,1.92307692 C1.61538462,1.92307692 1.53846154,1.92307692 1.92307692,1.92307692 L1.92307692,1.92307692 L1.92307692,1.92307692 L1.92307692,1.23076923 C1.92307692,1.23076923 2,1.19230769 2,1.15384615 C2,1.11538462 1.92307692,1.07692308 1.92307692,1.07692308 L1.92307692,1.53846154 L1.92307692,1.53846154 L1.92307692,1.53846154 L1.69230769,1.53846154 C1.61538462,1.53846154 1.57692308,1.26923077 1.61538462,1.19230769 C1.76923077,0.923076923 2.03846154,0.653846154 2.19230769,0.730769231 C2.73076923,0.961538462 1.96153846,2.19230769 1.57692308,2.92307692 C1.19230769,3.65384615 1.30769231,4.15384615 1.88461538,4.23076923 C2.5,4.30769231 2.61538462,3.73076923 2.46153846,3.38461538 C2.34615385,3.11538462 2.34615385,2.76923077 2.53846154,2.38461538 C2.38461538,2.46153846 2.26923077,2.57692308 2.23076923,2.69230769 C2.23076923,2.65384615 2.15384615,2.61538462 2.07692308,2.61538462 C2.15384615,2.65384615 2.19230769,2.88461538 2.15384615,2.96153846 C2.15384615,3.11538462 2.19230769,3.26923077 2.23076923,3.38461538 C2.15384615,3.26923077 1.88461538,3.26923077 1.76923077,3.38461538 C1.65384615,3.5 1.69230769,3.84615385 2,3.84615385 C2.23076923,3.84615385 2.15384615,3.5 1.92307692,3.61538462 C1.88461538,3.53846154 1.96153846,3.46153846 2.07692308,3.46153846 C2.19230769,3.46153846 2.30769231,3.61538462 2.30769231,3.73076923 C2.26923077,3.88461538 2.19230769,4.03846154 1.92307692,4 C1.69230769,3.96153846 1.5,3.73076923 1.65384615,3.26923077 C2,2.42307692 3.11538462,0.807692308 2.38461538,0.423076923 C1.80769231,0.115384615 1.38461538,0.769230769 1.38461538,1.03846154 L1.38461538,1.03846154 Z" id="XMLID_113_"></path>
                            </g>
                            <g id="XMLID_110_" transform="translate(0.000000, 17.307692)">
                                <path d="M1.38461538,2.19230769 C1.53846154,2.34615385 1.73076923,2.34615385 1.88461538,2.23076923 C2.19230769,2 1.80769231,1.69230769 1.69230769,1.30769231 C1.53846154,0.846153846 1.65384615,0.576923077 1.92307692,0.538461538 C2.15384615,0.5 2.26923077,0.653846154 2.30769231,0.807692308 C2.34615385,0.923076923 2.23076923,1.03846154 2.07692308,1.07692308 C1.96153846,1.07692308 1.88461538,1 1.92307692,0.923076923 C2.19230769,1 2.23076923,0.692307692 2,0.692307692 C1.69230769,0.692307692 1.65384615,1 1.76923077,1.15384615 C1.88461538,1.26923077 2.15384615,1.26923077 2.23076923,1.15384615 C2.19230769,1.26923077 2.15384615,1.42307692 2.15384615,1.57692308 C2.15384615,1.65384615 2.11538462,1.84615385 2.07692308,1.92307692 C2.11538462,1.96153846 2.23076923,1.88461538 2.23076923,1.84615385 C2.26923077,2 2.38461538,2.11538462 2.53846154,2.19230769 C2.34615385,1.80769231 2.34615385,1.46153846 2.46153846,1.19230769 C2.61538462,0.846153846 2.5,0.307692308 1.88461538,0.384615385 C1.30769231,0.461538462 1.19230769,1.03846154 1.65384615,1.84615385 C1.80769231,2.11538462 1.42307692,2.15384615 1.38461538,1.92307692 C1.34615385,2.15384615 0.961538462,2.11538462 1.11538462,1.84615385 C1.57692308,1.03846154 1.46153846,0.461538462 0.884615385,0.384615385 C0.269230769,0.307692308 0.153846154,0.846153846 0.307692308,1.19230769 C0.423076923,1.46153846 0.423076923,1.80769231 0.230769231,2.19230769 C0.384615385,2.11538462 0.5,2 0.538461538,1.84615385 C0.538461538,1.88461538 0.615384615,1.92307692 0.692307692,1.92307692 C0.615384615,1.88461538 0.576923077,1.65384615 0.576923077,1.57692308 C0.576923077,1.42307692 0.538461538,1.23076923 0.5,1.15384615 C0.576923077,1.26923077 0.846153846,1.26923077 0.961538462,1.15384615 C1.07692308,1.03846154 1.03846154,0.692307692 0.730769231,0.692307692 C0.5,0.692307692 0.576923077,1.03846154 0.807692308,0.923076923 C0.846153846,1 0.769230769,1.07692308 0.653846154,1.07692308 C0.538461538,1.07692308 0.423076923,0.923076923 0.423076923,0.807692308 C0.461538462,0.653846154 0.538461538,0.5 0.807692308,0.538461538 C1.11538462,0.576923077 1.19230769,0.846153846 1.03846154,1.30769231 C0.923076923,1.69230769 0.538461538,2 0.846153846,2.23076923 C1.03846154,2.34615385 1.23076923,2.34615385 1.38461538,2.19230769 L1.38461538,2.19230769 Z" id="XMLID_111_"></path>
                            </g>
                            <g id="XMLID_108_" transform="translate(0.000000, 9.615385)">
                                <path d="M1.38461538,3.53846154 C1.38461538,3.76923077 0.961538462,4.42307692 0.384615385,4.11538462 C-0.346153846,3.69230769 0.769230769,2.11538462 1.11538462,1.26923077 C1.30769231,0.807692308 1.07692308,0.538461538 0.846153846,0.538461538 C0.615384615,0.5 0.5,0.653846154 0.461538462,0.807692308 C0.423076923,0.923076923 0.538461538,1.03846154 0.692307692,1.07692308 C0.846153846,1.11538462 0.884615385,1 0.846153846,0.923076923 C0.576923077,1 0.538461538,0.692307692 0.769230769,0.692307692 C1.07692308,0.692307692 1.11538462,1 1,1.15384615 C0.884615385,1.26923077 0.615384615,1.26923077 0.538461538,1.15384615 C0.576923077,1.26923077 0.615384615,1.42307692 0.615384615,1.57692308 C0.615384615,1.65384615 0.653846154,1.84615385 0.730769231,1.92307692 C0.692307692,1.96153846 0.576923077,1.88461538 0.576923077,1.84615385 C0.538461538,2 0.423076923,2.11538462 0.269230769,2.19230769 C0.461538462,1.80769231 0.461538462,1.46153846 0.346153846,1.19230769 C0.192307692,0.846153846 0.307692308,0.307692308 0.923076923,0.384615385 C1.46153846,0.423076923 1.53846154,0.961538462 1.15384615,1.69230769 C0.769230769,2.42307692 7.49400542e-15,3.73076923 0.538461538,3.96153846 C0.730769231,4.03846154 1,4.23076923 1.15384615,4 C1.19230769,3.92307692 1.15384615,4.23076923 1.07692308,4.23076923 L1.03846154,4.23076923 L1.03846154,4.23076923 L0.384615385,4.23076923 L0.384615385,3.5 C0.384615385,3.5 0.307692308,3.46153846 0.307692308,3.42307692 C0.307692308,3.38461538 0.384615385,3.34615385 0.384615385,3.34615385 L0.384615385,3.84615385 L1,3.84615385 L1,3.84615385 L1.15384615,3.84615385 C1.19230769,3.84615385 1.15384615,3.34615385 1.15384615,3.26923077 L1.15384615,2.65384615 C1.15384615,2.57692308 1,2.61538462 1,2.73076923 C1,2.76923077 0.961538462,2.80769231 0.923076923,2.76923077 C0.730769231,2.57692308 0.769230769,2.42307692 1.15384615,2.5 C1.15384615,2.34615385 1.15384615,3.07692308 1.15384615,2.69230769 C1.15384615,2.30769231 1.53846154,2.30769231 1.53846154,2.69230769 C1.53846154,3.07692308 1.53846154,2.34615385 1.53846154,2.5 C1.53846154,2.42307692 1.96153846,2.57692308 1.76923077,2.76923077 C1.73076923,2.80769231 1.69230769,2.76923077 1.73076923,2.73076923 C1.73076923,2.61538462 1.53846154,2.57692308 1.53846154,2.65384615 L1.53846154,3.26923077 C1.53846154,3.34615385 1.57692308,3.84615385 1.61538462,3.84615385 C1.61538462,3.84615385 1.53846154,3.84615385 1.92307692,3.84615385 L1.92307692,3.84615385 L1.92307692,3.84615385 L1.92307692,3.34615385 C1.92307692,3.34615385 2,3.38461538 2,3.42307692 C2,3.46153846 1.92307692,3.5 1.92307692,3.5 L1.92307692,4.23076923 L1.92307692,4.23076923 L1.92307692,4.23076923 L1.69230769,4.23076923 C1.61538462,4.23076923 1.57692308,3.92307692 1.61538462,4 C1.76923077,4.23076923 2.03846154,4.23076923 2.19230769,4.15384615 C2.73076923,3.92307692 1.96153846,2.53846154 1.57692308,1.80769231 C1.19230769,1.07692308 1.30769231,0.5 1.88461538,0.423076923 C2.5,0.346153846 2.61538462,0.884615385 2.46153846,1.23076923 C2.34615385,1.5 2.34615385,1.84615385 2.53846154,2.19230769 C2.38461538,2.11538462 2.26923077,2 2.23076923,1.84615385 C2.23076923,1.88461538 2.15384615,1.92307692 2.07692308,1.92307692 C2.15384615,1.88461538 2.19230769,1.65384615 2.15384615,1.57692308 C2.15384615,1.42307692 2.19230769,1.23076923 2.23076923,1.15384615 C2.15384615,1.26923077 1.88461538,1.26923077 1.76923077,1.15384615 C1.65384615,1.03846154 1.69230769,0.692307692 2,0.692307692 C2.23076923,0.692307692 2.15384615,1.03846154 1.92307692,0.923076923 C1.88461538,1 1.96153846,1.07692308 2.07692308,1.07692308 C2.19230769,1.07692308 2.30769231,0.923076923 2.30769231,0.807692308 C2.26923077,0.653846154 2.19230769,0.5 1.92307692,0.538461538 C1.69230769,0.576923077 1.5,0.807692308 1.65384615,1.26923077 C2,2.11538462 3.11538462,3.73076923 2.38461538,4.11538462 C1.80769231,4.46153846 1.38461538,3.80769231 1.38461538,3.53846154 L1.38461538,3.53846154 Z" id="XMLID_109_"></path>
                            </g>
                            <g id="XMLID_101_" transform="translate(0.000000, 1.923077)">
                                <path d="M1.38461538,3.53846154 C1.38461538,3.76923077 0.961538462,4.42307692 0.384615385,4.11538462 C-0.346153846,3.69230769 0.769230769,2.11538462 1.11538462,1.26923077 C1.26923077,0.769230769 1.03846154,0.538461538 0.846153846,0.5 C0.576923077,0.5 0.5,0.615384615 0.461538462,0.769230769 C0.423076923,0.923076923 0.538461538,1.03846154 0.692307692,1.03846154 C0.807692308,1.03846154 0.884615385,0.961538462 0.846153846,0.884615385 C0.576923077,0.961538462 0.538461538,0.653846154 0.769230769,0.653846154 C1.07692308,0.653846154 1.11538462,0.961538462 1,1.11538462 C0.884615385,1.23076923 0.615384615,1.23076923 0.538461538,1.11538462 C0.538461538,1.19230769 0.576923077,1.38461538 0.576923077,1.53846154 C0.576923077,1.61538462 0.615384615,1.80769231 0.692307692,1.88461538 C0.615384615,1.88461538 0.5,1.84615385 0.538461538,1.80769231 C0.461538462,1.92307692 0.384615385,2.07692308 0.230769231,2.11538462 C0.423076923,1.73076923 0.423076923,1.38461538 0.307692308,1.11538462 C0.153846154,0.807692308 0.230769231,0.269230769 0.846153846,0.346153846 C1.46153846,0.384615385 1.53846154,0.923076923 1.15384615,1.69230769 C0.769230769,2.42307692 7.68829445e-15,3.73076923 0.538461538,3.96153846 C0.730769231,4.03846154 1,4.07692308 1.11538462,3.80769231 C1.19230769,3.69230769 1.15384615,3.84615385 1.07692308,3.84615385 L1.03846154,3.84615385 L1.03846154,3.84615385 L0.384615385,3.84615385 L0.384615385,3.5 C0.384615385,3.5 0.307692308,3.46153846 0.307692308,3.42307692 C0.307692308,3.38461538 0.384615385,3.34615385 0.384615385,3.34615385 L0.384615385,3.46153846 L1,3.46153846 L1,3.46153846 L1.15384615,3.46153846 C1.19230769,3.46153846 1.15384615,3.30769231 1.15384615,3.26923077 L1.15384615,2.65384615 C1.15384615,2.57692308 1,2.61538462 1,2.73076923 C1,2.76923077 0.961538462,2.80769231 0.923076923,2.76923077 C0.730769231,2.53846154 0.769230769,2.42307692 1.15384615,2.5 C1.15384615,2.30769231 1.15384615,2.69230769 1.15384615,2.30769231 L1.53846154,2.30769231 C1.53846154,2.69230769 1.53846154,2.30769231 1.53846154,2.5 C1.53846154,2.42307692 1.96153846,2.57692308 1.76923077,2.76923077 C1.73076923,2.80769231 1.69230769,2.76923077 1.73076923,2.73076923 C1.73076923,2.61538462 1.53846154,2.57692308 1.53846154,2.65384615 L1.53846154,3.26923077 C1.53846154,3.30769231 1.57692308,3.46153846 1.61538462,3.46153846 C1.61538462,3.46153846 1.53846154,3.46153846 1.92307692,3.46153846 L1.92307692,3.46153846 L1.92307692,3.46153846 L1.92307692,3.34615385 C1.92307692,3.34615385 2,3.38461538 2,3.42307692 C2,3.46153846 1.92307692,3.5 1.92307692,3.5 L1.92307692,3.84615385 L1.92307692,3.84615385 L1.92307692,3.84615385 L1.69230769,3.84615385 C1.61538462,3.84615385 1.57692308,3.69230769 1.61538462,3.80769231 C1.76923077,4.07692308 2.03846154,4.11538462 2.19230769,4.03846154 C2.73076923,3.80769231 1.96153846,2.46153846 1.57692308,1.73076923 C1.19230769,1 1.30769231,0.423076923 1.88461538,0.346153846 C2.5,0.269230769 2.61538462,0.807692308 2.46153846,1.15384615 C2.34615385,1.42307692 2.34615385,1.76923077 2.53846154,2.15384615 C2.38461538,2.07692308 2.26923077,1.92307692 2.23076923,1.80769231 C2.23076923,1.84615385 2.15384615,1.88461538 2.07692308,1.88461538 C2.15384615,1.80769231 2.19230769,1.61538462 2.19230769,1.53846154 C2.19230769,1.38461538 2.23076923,1.19230769 2.26923077,1.11538462 C2.19230769,1.19230769 1.92307692,1.23076923 1.76923077,1.07692308 C1.65384615,0.961538462 1.73076923,0.615384615 2,0.653846154 C2.23076923,0.653846154 2.15384615,1 1.92307692,0.884615385 C1.88461538,0.961538462 1.96153846,1.07692308 2.07692308,1.03846154 C2.19230769,1.03846154 2.30769231,0.923076923 2.30769231,0.769230769 C2.26923077,0.615384615 2.19230769,0.5 1.92307692,0.5 C1.69230769,0.538461538 1.5,0.769230769 1.65384615,1.23076923 C2,2.07692308 3.11538462,3.69230769 2.38461538,4.07692308 C1.80769231,4.42307692 1.38461538,3.76923077 1.38461538,3.53846154 L1.38461538,3.53846154 Z" id="XMLID_107_"></path>
                            </g>
                            <g id="XMLID_95_">
                                <path d="M1.38461538,0.461538462 C1.5,0.307692308 1.73076923,0.269230769 1.88461538,0.384615385 C2.19230769,0.615384615 1.80769231,0.923076923 1.69230769,1.30769231 C1.53846154,1.76923077 1.65384615,2.03846154 1.92307692,2.07692308 C2.15384615,2.11538462 2.26923077,1.96153846 2.30769231,1.80769231 C2.30769231,1.65384615 2.19230769,1.53846154 2.07692308,1.53846154 C1.96153846,1.5 1.88461538,1.61538462 1.92307692,1.69230769 C2.19230769,1.61538462 2.23076923,1.92307692 2,1.92307692 C1.69230769,1.92307692 1.65384615,1.61538462 1.76923077,1.46153846 C1.88461538,1.34615385 2.15384615,1.34615385 2.23076923,1.46153846 C2.23076923,1.34615385 2.19230769,1.19230769 2.19230769,1.03846154 C2.19230769,0.961538462 2.15384615,0.769230769 2.11538462,0.692307692 C2.15384615,0.692307692 2.23076923,0.730769231 2.23076923,0.769230769 C2.26923077,0.653846154 2.38461538,0.5 2.53846154,0.423076923 C2.34615385,0.807692308 2.34615385,1.15384615 2.46153846,1.42307692 C2.61538462,1.76923077 2.5,2.30769231 1.88461538,2.23076923 C1.30769231,2.19230769 1.19230769,1.61538462 1.65384615,0.769230769 C1.80769231,0.5 1.42307692,0.461538462 1.38461538,0.692307692 C1.30769231,0.461538462 0.961538462,0.5 1.11538462,0.769230769 C1.57692308,1.57692308 1.46153846,2.15384615 0.884615385,2.23076923 C0.230769231,2.30769231 0.153846154,1.76923077 0.307692308,1.42307692 C0.423076923,1.15384615 0.423076923,0.807692308 0.230769231,0.423076923 C0.384615385,0.5 0.461538462,0.653846154 0.538461538,0.769230769 C0.538461538,0.730769231 0.615384615,0.692307692 0.692307692,0.692307692 C0.615384615,0.769230769 0.576923077,0.961538462 0.576923077,1.03846154 C0.576923077,1.19230769 0.538461538,1.38461538 0.5,1.46153846 C0.576923077,1.34615385 0.846153846,1.34615385 0.961538462,1.46153846 C1.11538462,1.61538462 1.03846154,1.96153846 0.769230769,1.92307692 C0.538461538,1.92307692 0.576923077,1.61538462 0.846153846,1.69230769 C0.884615385,1.61538462 0.807692308,1.5 0.692307692,1.53846154 C0.538461538,1.53846154 0.423076923,1.65384615 0.461538462,1.76923077 C0.5,1.92307692 0.576923077,2.07692308 0.846153846,2.03846154 C1.15384615,2 1.23076923,1.73076923 1.07692308,1.26923077 C0.961538462,0.923076923 0.576923077,0.615384615 0.884615385,0.384615385 C1.03846154,0.269230769 1.23076923,0.307692308 1.38461538,0.461538462 L1.38461538,0.461538462 Z" id="XMLID_99_"></path>
                            </g>
                            <g id="XMLID_91_" transform="translate(0.000000, 5.769231)">
                                <path d="M1.38461538,1 C1.38461538,0.730769231 0.961538462,0.115384615 0.384615385,0.423076923 C-0.346153846,0.846153846 0.769230769,2.42307692 1.11538462,3.26923077 C1.30769231,3.73076923 1.07692308,4 0.846153846,4 C0.615384615,4.03846154 0.5,3.88461538 0.461538462,3.73076923 C0.423076923,3.61538462 0.538461538,3.5 0.692307692,3.46153846 C0.846153846,3.42307692 0.884615385,3.53846154 0.846153846,3.61538462 C0.576923077,3.53846154 0.538461538,3.84615385 0.769230769,3.84615385 C1.07692308,3.84615385 1.11538462,3.53846154 1,3.38461538 C0.884615385,3.26923077 0.615384615,3.26923077 0.538461538,3.38461538 C0.576923077,3.26923077 0.615384615,3.11538462 0.615384615,2.96153846 C0.615384615,2.88461538 0.653846154,2.69230769 0.730769231,2.61538462 C0.692307692,2.57692308 0.576923077,2.65384615 0.576923077,2.69230769 C0.538461538,2.57692308 0.423076923,2.42307692 0.269230769,2.34615385 C0.461538462,2.73076923 0.461538462,3.07692308 0.346153846,3.34615385 C0.192307692,3.69230769 0.307692308,4.23076923 0.923076923,4.15384615 C1.46153846,4.11538462 1.53846154,3.57692308 1.15384615,2.84615385 C0.769230769,2.11538462 7.49400542e-15,0.807692308 0.538461538,0.576923077 C0.730769231,0.5 1,0.692307692 1.11538462,0.961538462 C1.19230769,1.07692308 1.15384615,1.15384615 1.07692308,1.15384615 L1.03846154,1.15384615 L1.03846154,1.15384615 L0.384615385,1.15384615 L0.384615385,1.03846154 C0.384615385,1.03846154 0.307692308,1.07692308 0.307692308,1.11538462 C0.307692308,1.15384615 0.384615385,1.19230769 0.384615385,1.19230769 L0.384615385,1.92307692 L1,1.92307692 L1,1.92307692 L1.15384615,1.92307692 C1.19230769,1.92307692 1.15384615,1.23076923 1.15384615,1.26923077 L1.15384615,1.88461538 C1.15384615,1.96153846 1,1.92307692 1,1.80769231 C1,1.76923077 0.961538462,1.73076923 0.923076923,1.76923077 C0.730769231,1.96153846 0.769230769,2.11538462 1.15384615,2.03846154 L1.15384615,3.07692308 C1.15384615,3.46153846 1.53846154,3.46153846 1.53846154,3.07692308 L1.53846154,2.03846154 C1.53846154,2.11538462 1.96153846,1.96153846 1.76923077,1.76923077 C1.73076923,1.73076923 1.69230769,1.76923077 1.73076923,1.80769231 C1.73076923,1.92307692 1.53846154,1.96153846 1.53846154,1.88461538 L1.53846154,1.26923077 C1.53846154,1.23076923 1.57692308,1.92307692 1.61538462,1.92307692 C1.61538462,1.92307692 1.53846154,1.92307692 1.92307692,1.92307692 L1.92307692,1.92307692 L1.92307692,1.92307692 L1.92307692,1.19230769 C1.92307692,1.19230769 2,1.15384615 2,1.11538462 C2,1.07692308 1.92307692,1.03846154 1.92307692,1.03846154 L1.92307692,1.15384615 L1.92307692,1.15384615 L1.92307692,1.15384615 L1.69230769,1.15384615 C1.61538462,1.15384615 1.57692308,1.07692308 1.61538462,0.961538462 C1.76923077,0.692307692 2.03846154,0.538461538 2.19230769,0.615384615 C2.73076923,0.846153846 1.96153846,2.11538462 1.57692308,2.88461538 C1.19230769,3.61538462 1.30769231,4.15384615 1.88461538,4.23076923 C2.5,4.30769231 2.61538462,3.76923077 2.46153846,3.42307692 C2.34615385,3.15384615 2.34615385,2.80769231 2.53846154,2.42307692 C2.38461538,2.5 2.26923077,2.61538462 2.23076923,2.76923077 C2.23076923,2.73076923 2.15384615,2.69230769 2.07692308,2.69230769 C2.15384615,2.73076923 2.19230769,2.96153846 2.15384615,3.03846154 C2.15384615,3.19230769 2.19230769,3.38461538 2.23076923,3.46153846 C2.15384615,3.34615385 1.88461538,3.34615385 1.76923077,3.46153846 C1.65384615,3.57692308 1.69230769,3.92307692 2,3.92307692 C2.23076923,3.92307692 2.15384615,3.57692308 1.92307692,3.69230769 C1.88461538,3.61538462 1.96153846,3.53846154 2.07692308,3.53846154 C2.19230769,3.53846154 2.30769231,3.69230769 2.30769231,3.80769231 C2.26923077,3.96153846 2.19230769,4.11538462 1.92307692,4.07692308 C1.69230769,4.07692308 1.5,3.80769231 1.65384615,3.34615385 C2,2.5 3.11538462,0.884615385 2.38461538,0.5 C1.80769231,0.115384615 1.38461538,0.769230769 1.38461538,1 L1.38461538,1 Z" id="XMLID_94_"></path>
                            </g>
                        </g>
                    </g>
                </g>
            </g>
        </g>
    </g>
</svg>