<?xml version="1.0" encoding="utf-8"?>
<!-- Generator: Avocode 2.6.0 - http://avocode.com -->
<svg height="16" width="22" xmlns:xlink="http://www.w3.org/1999/xlink" xmlns="http://www.w3.org/2000/svg" viewBox="0 0 22 16">
    <path fill="#0072c6" fill-rule="evenodd" d="M 14.05 8.26 L 11.65 8.26 L 11.65 4.47 C 11.65 4.29 11.48 4.13 11.3 4.13 L 9.24 4.13 C 9.05 4.13 8.89 4.29 8.89 4.47 L 8.89 8.26 L 6.49 8.26 C 6.29 8.26 6.14 8.42 6.14 8.6 C 6.14 8.69 6.17 8.78 6.24 8.85 L 10.02 12.63 C 10.09 12.7 10.17 12.73 10.27 12.73 C 10.35 12.73 10.45 12.7 10.52 12.63 L 14.29 8.86 C 14.35 8.78 14.4 8.7 14.4 8.6 C 14.4 8.41 14.25 8.26 14.05 8.26 M 17.15 15.14 L 5.45 15.14 C 2.8 15.14 0.64 12.98 0.64 10.32 C 0.64 8.45 1.72 6.75 3.41 5.97 C 3.4 5.81 3.39 5.65 3.39 5.5 C 3.39 2.46 5.85 0 8.89 0 C 11.13 0 13.14 1.35 13.99 3.42 C 14.48 2.99 15.12 2.75 15.77 2.75 C 17.29 2.75 18.53 3.99 18.53 5.5 C 18.53 6.03 18.37 6.55 18.08 6.99 C 19.95 7.43 21.28 9.09 21.28 11.01 C 21.28 13.29 19.43 15.14 17.15 15.14" />
</svg>