<?xml version="1.0" encoding="utf-8"?>
<!-- Generator: Adobe Illustrator 18.1.1, SVG Export Plug-In . SVG Version: 6.00 Build 0)  -->
<!DOCTYPE svg PUBLIC "-//W3C//DTD SVG 1.1//EN" "http://www.w3.org/Graphics/SVG/1.1/DTD/svg11.dtd" [
	<!ENTITY ns_extend "http://ns.adobe.com/Extensibility/1.0/">
	<!ENTITY ns_ai "http://ns.adobe.com/AdobeIllustrator/10.0/">
	<!ENTITY ns_graphs "http://ns.adobe.com/Graphs/1.0/">
	<!ENTITY ns_vars "http://ns.adobe.com/Variables/1.0/">
	<!ENTITY ns_imrep "http://ns.adobe.com/ImageReplacement/1.0/">
	<!ENTITY ns_sfw "http://ns.adobe.com/SaveForWeb/1.0/">
	<!ENTITY ns_custom "http://ns.adobe.com/GenericCustomNamespace/1.0/">
	<!ENTITY ns_adobe_xpath "http://ns.adobe.com/XPath/1.0/">
]>
<svg version="1.1" id="Layer_1" xmlns:x="&ns_extend;" xmlns:i="&ns_ai;" xmlns:graph="&ns_graphs;"
	 xmlns="http://www.w3.org/2000/svg" xmlns:xlink="http://www.w3.org/1999/xlink" x="0px" y="0px" viewBox="0 0 458.7 245.2"
	 enable-background="new 0 0 458.7 245.2" xml:space="preserve">
<metadata>
	<sfw  xmlns="&ns_sfw;">
		<slices></slices>
		<sliceSourceBounds  width="480.8" height="259" y="-505.3" x="436.3" bottomLeftOrigin="true"></sliceSourceBounds>
	</sfw>
</metadata>
<g>
	
		<path fill="none" stroke="#B5935B" stroke-linecap="round" stroke-linejoin="round" stroke-miterlimit="10" stroke-dasharray="3" d="
		M35.1,29.7h-8.8c-4.7,0-9.2-2-12.4-5.5L0.5,9.2"/>
	<path fill="none" stroke="#B5935B" stroke-linecap="round" stroke-linejoin="round" stroke-miterlimit="10" d="M37.4,29.7"/>
	<path fill="none" stroke="#B5935B" stroke-linecap="round" stroke-linejoin="round" stroke-miterlimit="10" d="M46.1,36.3
		c-1-3.5-4.1-6.2-7.9-6.5"/>
	
		<line fill="none" stroke="#B5935B" stroke-linecap="round" stroke-linejoin="round" stroke-miterlimit="10" x1="46.4" y1="58.4" x2="46.4" y2="41.3"/>
	<g>
		<path fill="none" stroke="#898989" stroke-linecap="round" stroke-linejoin="round" stroke-miterlimit="10" d="M298.7,34.5
			c0,0.3,0.1,0.4,0.3,0.6c0.4,0.5,1.1,0.7,1.6,1c0.3,0.2,0.6,0.3,0.9,0.4c0.3,0.2,0.6,0.3,0.9,0.5c0.5,0.2,1,0.4,1.5,0.7
			c0.4,0.3,0.8,0.9,1.3,1c0.5,0.1,1.1,0.2,1.6,0c0.3-0.1,0.6-0.3,0.9-0.5c0.5-0.3,1-0.6,1.5-0.9c0.3-0.2,0.5-0.4,0.8-0.4
			c0.2,0,0.4,0,0.6,0c0.3,0,0.5,0.1,0.8,0.2c0.2,0.1,0.5,0.2,0.7,0.1c0.2-0.1,0.5-0.3,0.6-0.5c0.1-0.2,0.1-0.5,0.2-0.7
			c0.1-0.2,0.2-0.4,0.4-0.5c0.1-0.1,0.2-0.2,0.3-0.2c0.2-0.1,0.2,0,0.4-0.1c0.2,0,0.3-0.1,0.4-0.1c0.2,0,0.4,0,0.6-0.1
			c0.6-0.2,0.2-0.7-0.1-0.9c-0.3-0.2-0.5-0.3-0.5-0.7c0-0.2,0-0.4,0-0.5c0-0.2,0.1-0.3,0.1-0.5c0.3,0.2,0.8,0.2,1.2,0.4
			c0.3,0.1,0.5,0.2,0.7,0.3c0.2,0.1,0.4,0.1,0.5,0.3c0.1,0.1,0.1,0.2,0.1,0.3c0.1,0.1,0.1,0.2,0.2,0.3c0.1,0.2,0.1,0.4,0.3,0.6
			c0.1,0.1,0.3,0.2,0.4,0.2c0.1,0,0.3,0,0.4,0c0.3,0.1,0.5,0.1,0.8,0.1c1.2,0,2.4,0,3.7,0c0.5,0,1-0.1,1.5,0c0.2,0,0.3,0.1,0.5,0.2
			l4-0.8c0.1-0.1,0.2-0.4,0.1-0.6c-0.1-0.2-0.5-0.3-0.7-0.3c-0.2-0.1-0.5-0.1-0.7-0.2c-0.2-0.1-0.4-0.2-0.6-0.3
			c-0.4-0.1-1-0.2-1.3-0.5c-0.1-0.1-0.2-0.3-0.3-0.4c-0.2-0.2-0.4-0.1-0.6-0.1c-0.9,0-1.8,0.1-2.7,0.3c-0.4,0.1-0.8,0.1-1.2,0.1
			c-0.4,0-0.8,0-1.2,0.1c-0.2,0.1-0.4,0.1-0.6,0.2c-0.1,0.1-0.3,0.1-0.4,0.2c-0.2,0.1-0.3,0-0.4,0.1c-0.2,0-0.3,0.1-0.5,0.2
			c-0.2,0-0.4,0.1-0.6,0.1c-0.5,0-0.7-0.3-1.1-0.5c-0.1,0-0.1-0.1-0.2-0.1c-0.1,0-0.3,0-0.4,0c-0.1,0-0.2-0.1-0.3-0.1
			c-0.1,0-0.3,0-0.4,0c-0.5,0-1.1,0.1-1.6-0.1c-0.5-0.2-1-0.6-1.5-0.6c-0.5,0-1.1,0-1.6,0c-0.5,0.1-1,0.3-1.5,0.3
			c-0.2,0-0.5,0-0.7,0c-0.2,0-0.7-0.4-0.8-0.5c-0.1-0.1-0.2-0.2-0.4-0.3c-0.1-0.1-0.2-0.1-0.3-0.2c-0.3-0.1-0.6-0.1-0.9-0.1
			c-0.3,0-0.6,0-0.8,0c-0.2,0.1-0.3,0.1-0.5,0.2c-0.1,0-0.2,0.1-0.3,0.1c-0.1,0.1-0.1,0.2-0.1,0.3c0,0.3,0.1,0.2,0.3,0.4
			c0.2,0.2,0.3,0.4,0.5,0.6c0.1,0.1,0.4,0.2,0.4,0.4c0.1,0.1-0.1,0.3-0.3,0.5c-0.1-0.1-0.2-0.1-0.2-0.2c-0.4-0.3-0.8-0.4-1.3-0.5
			c-0.8-0.2-1.6,0-2.3-0.1c-0.6,0-0.6-0.5-0.9-0.8c-0.7-0.6-0.8,0.4-0.8,0.9c0,0.3-0.1,0.6,0,0.8c0,0.2,0.2,0.4,0.1,0.6
			C298.7,34.3,298.7,34.3,298.7,34.5z"/>
		<g>
			<defs>
				<path id="XMLID_245_" d="M457.8,64.4c-0.1-0.1-0.3-0.3-0.4-0.4c-0.3-0.2-0.7-0.3-1.1-0.4c-0.2,0-0.4,0-0.5,0
					c-0.2,0-0.3-0.1-0.4-0.1c-0.2,0-0.3,0-0.5,0c-0.1,0-0.2-0.1-0.3-0.1c-0.5-0.2-0.9-0.4-1.2-0.9c-0.1-0.2-0.3-0.5-0.4-0.7
					c-0.1-0.2-0.2-0.4-0.4-0.5c-0.1-0.1-0.3-0.2-0.5-0.2c-0.1-0.1-0.1-0.2-0.1-0.3c-0.5-1.1-0.7-1.9,0.4-2.7
					c0.2-0.2,0.5-0.3,0.8-0.4c0.1,0,0.2,0,0.3-0.1c0.1,0,0.3-0.1,0.4-0.2c0.1,0,0.2-0.1,0.3-0.1c0.3-0.1,0.8-0.2,0.7-0.6
					c-0.1-0.2-0.2-0.3-0.3-0.5c-0.3-0.3-0.6-0.4-1-0.5c-0.2-0.1-0.5-0.2-0.7-0.3c0,0,0,0,0,0c-0.5-0.4-1-0.7-1.5-1.1
					c-0.9-0.8-1.9-1.3-3.2-1.4c-2.9-0.3-6.3,0.5-9.1-0.2c-0.3-0.1-0.6-0.2-0.9-0.3l-0.3-0.6l-0.2,0.3c0,0,0,0-0.1,0
					c0.1-0.1,0.1-0.2,0.1-0.2l-0.4,0c-0.3-0.2-0.7-0.5-1-0.7c-1.1-0.9-2.4-1.4-3.8-1.8c-1.2-0.3-2-0.6-3-1.4
					c-0.1-0.1-0.1-0.1-0.2-0.2l-0.8-1.5l-0.4,0.7c0,0,0,0,0,0c0.2-0.4,0.3-0.6,0.3-0.6l-6.6,0l-0.9,1.5c-1.2,0-2.5-0.2-3.5-0.3
					c-2.8-0.5-5.1-1.7-7.9-1.7c-1.6,0-3.2,0-4.8-0.1c-1.6-0.1-3.2-0.6-4.8-0.6c-1.1,0-2.2,0.1-3.4,0.3c-0.4-0.2-0.9-0.3-1.3-0.4
					c-0.2,0-0.6-0.1-0.8,0c-0.3,0.1-0.4,0.4-0.4,0.7c0,0.1,0,0.1,0,0.2c-0.6,0.2-1.2,0.3-1.7,0.6c-0.2,0-0.3,0-0.5,0
					c-0.3,0.1-0.8,0.1-1,0.3c-0.1,0.1-0.4,0.4-0.3,0.6c-0.9,0.5-1.6,1-2.5,1.4c-0.3,0-0.6,0-0.9,0c-0.4,0-0.8,0.1-1,0.4
					c-0.1,0.1-0.1,0.3-0.2,0.4c-0.1,0.1-0.2,0.3-0.2,0.5c-0.1,0.2-0.2,0.3-0.2,0.5c-0.1,0.4-0.2,0.7-0.7,0.9c-0.5,0.2-1,0.3-1.5,0.4
					c-0.4,0.1-1,0-1.4,0c-0.4,0-0.9,0-1.3,0c-0.3,0-0.5,0.1-0.8,0.1c-0.2,0-0.4,0-0.6,0c-0.4,0-0.7,0-1.1,0.2l-5.4,0l-1,1.7
					c-0.3-0.1-0.5-0.2-0.7-0.3c-0.3-0.2-0.5-0.4-0.8-0.6c-0.2-0.1-0.3-0.2-0.4-0.4c-0.1-0.4,0-0.8,0-1.2c0-0.2,0-0.2-0.3-0.3
					c-0.1-0.1-0.3-0.1-0.4-0.2c-0.3-0.1-0.6-0.2-0.9-0.3c-0.5-0.1-1-0.2-1.4-0.4c-0.2-0.1-0.4-0.2-0.6-0.4c-0.2-0.1-0.3-0.3-0.5-0.5
					c-0.4-0.3-0.9-0.6-1.4-0.7c-0.5-0.1-1.1-0.1-1.6,0.1c-0.2,0.1-0.5,0-0.7,0c-0.3,0-0.6,0.1-0.9,0.2c-0.4,0.1-0.9,0.1-1.3,0.1
					c-0.4,0.1-0.8,0.2-1.2,0.3c-0.3,0-0.5,0-0.8,0c-0.2,0-0.4,0.1-0.6,0.1c-0.3-0.1-0.6-0.2-1-0.2c-1.1-0.2-2.4,0.3-3.5,0
					c-0.5-0.2-0.9-0.6-1.4-0.9l-1.2-2.2l-0.9,1.5c0,0,0,0,0,0c0.5-0.8,0.8-1.5,0.8-1.5l-6.6,0l-0.8,1.3c-0.8,0-1.6,0.1-2.3,0.1
					c-0.6,0-1.2,0-1.8-0.1c-0.5-0.2-2.4-0.4-2.4-0.4c-0.2,0-0.4,0-0.6,0c-0.3,0-0.5,0-0.8-0.1c-1.3-0.1-2.6,0-3.9,0l-0.4-0.7
					l-0.4,0.8c0,0,0,0-0.1,0c0.2-0.4,0.4-0.7,0.4-0.7l-6.6,0l-0.2,0.4c-0.1,0-0.3,0.1-0.4,0.1c-0.3,0.1-0.6,0.4-0.9,0.6
					c-0.9-0.1-1.8-0.2-2.7-0.1c-0.3,0-0.5,0.2-0.7,0.3c-0.2,0.1-0.4,0.2-0.6,0.4c-0.3,0.3-0.5,0.4-0.5,0.8c0,0.2,0,0.4,0.1,0.5
					c0.2,0.2,0.5,0.1,0.7,0.1c0.3,0.1,0.3,0.1,0.3,0.4c0,0.1,0,0.2,0,0.3c-0.8,0.6-1.6,1.3-2.5,1.8l-2.7,0l-1.1,1.9
					c-3.6,0.9-7.4-1.1-11-1.4c0,0-0.1,0-0.1,0l-0.3-0.6l-0.1,0.1l-2.5,0c-0.3-0.1-0.6-0.2-0.9-0.3c0,0-0.1-0.1-0.1-0.1
					c-0.3-0.4-0.3-0.8-0.7-1.2c-0.4-0.4-0.9-0.6-1.4-0.8c-0.3-0.1-0.5-0.3-0.8-0.5c-0.4-0.2-0.7-0.3-1-0.5c-0.5-0.3-1-0.7-1.6-0.9
					l-0.7-1.3l-0.5,0.9c0,0,0,0-0.1,0c0.3-0.5,0.4-0.8,0.4-0.8l-6.6,0l-0.6,1c-0.1,0-0.3,0-0.4,0c-0.5,0-1,0.2-1.5,0.3
					c-0.1,0-0.8,0.1-0.8,0.2c0.1,0.1,0,0.1,0.1,0.2c0,0.1,0.1,0.1,0.2,0.2c-0.6,0.2-1.1,0.5-1.5,0.8c-0.7,0.5-1.4,1-2.1,1.5
					c-0.4,0-0.8-0.1-1.1-0.1c-1-0.2-2-0.5-2.9-0.9c-0.2-0.1-0.4-0.3-0.6-0.4l-1.9-3.2l-0.7,1.2c0,0,0,0,0,0c0.4-0.7,0.6-1.1,0.6-1.1
					s-6.6,0-6.6,0l-8.3-3.3c0,0.1,0.1,0.2,0.1,0.3c0,0,0,0,0,0c-0.2-0.2-0.4-0.3-0.5-0.5l0.5,0.2c-0.1-0.4-0.4-0.9-0.6-1.4
					c0.1,0,0.2-0.1,0.3-0.2c0.1-0.1,0.3-0.3,0.2-0.5c-0.1-0.1-0.3-0.4-0.4-0.5c0-0.1,0-0.1,0-0.2c0-0.4,0.1-1-0.2-1.2
					c-0.4-0.3-1-0.2-1.4-0.2c-0.1,0-0.3,0-0.4,0c-0.1-0.1-0.2-0.1-0.2-0.2c-0.1,0-0.1-0.1-0.2-0.1c-0.1-0.1-0.1-0.3-0.1-0.4
					c-0.2-0.5-0.4-0.8-0.8-1c-0.4-0.3-1-0.3-1.5-0.2c-0.5,0.1-0.9,0.1-1.4,0.1c-0.3,0-0.5,0-0.8,0.1c-0.6,0-1.2,0-1.8,0
					c-0.2-0.1-0.3-0.1-0.5-0.1c-0.3-0.1-0.7,0-1,0c-0.2,0-0.4,0.1-0.5,0.1c-0.2,0-0.5-0.1-0.7-0.1c-0.5-0.1-1.2-0.1-1.5,0.4
					c0,0,0,0,0,0c0,0-0.1,0-0.1,0c-0.2,0-0.5,0-0.7-0.1l-0.9-0.4l-0.7-0.3c0-0.1,0-0.1-0.1-0.2c-0.1-0.1-0.4-0.1-0.6-0.1l-2.7-1.1
					c0-0.2,0-0.4,0-0.5c0-0.1,0-0.1,0-0.2c0.1-0.1,0.2-0.1,0.2-0.2c-0.1,0-0.1,0-0.2-0.1c0-0.1-0.1-0.3-0.2-0.4
					c-0.2-0.1-0.5-0.3-0.7-0.3c-0.4-0.1-0.8,0-1.2,0c-0.4-0.9-1.8-3.3-1.9-3.5c-0.1-0.2-0.2-0.6-0.3-0.8c-0.1-0.4-0.3-0.6-0.7-0.7
					c-0.4-0.1-0.7,0-1-0.2c-0.4-0.2-0.8-0.2-1.2-0.4c-0.4-0.2-0.6-0.4-0.9-0.6c-0.4-0.2-0.5-0.7-0.9-0.9c-0.3-0.2-0.7-0.1-1,0.1
					c-0.2,0.1-0.3,0.3-0.6,0.2c-0.2,0-0.3-0.4-0.3-0.6c-0.1,0-0.2,0-0.2-0.1c-0.2-0.1-0.2-0.1-0.4-0.1c-0.4,0-0.7,0-1.1,0
					c-0.6,0-1.3,0.2-1.3,0.9c0,0.2,0,0.4,0,0.5c0.1,0.3,0.3,0.3,0.4,0.5c0.2,0.2,0.2,0.5,0.2,0.7c-1.2-0.2-2.7-0.3-2.8-0.4
					c-0.3-0.2-0.5-0.4-0.8-0.6c-0.1-0.1-0.3-0.1-0.4-0.2c-0.1-0.1-0.1-0.1-0.1-0.2c0-0.1-0.1-0.1-0.2-0.1c-0.1-0.3,0-0.7,0.1-1
					c0.1-0.3,0.2-0.7,0.3-1c0.1-0.3,0.2-0.5,0.3-0.8c0-0.1,0-0.3,0-0.4c0-0.2,0-0.2-0.1-0.3c-0.1-0.1-0.4-0.2-0.6-0.2
					c-0.3-0.1-0.6-0.2-0.9-0.3c-0.7-0.2-1.3-0.4-2-0.5c-0.3-0.1-0.6-0.1-0.9-0.1c-0.3,0-0.4,0-0.5,0.3c-0.2,0.4-0.1,0.7-0.1,1.1
					c0,0.2,0,0.4,0,0.6c0,0.2,0.1,0.3,0.1,0.5c0,0.3-0.1,0.3-0.4,0.3c-0.2,0-0.5,0.1-0.6-0.1c-0.2-0.2-0.2-0.5-0.2-0.7
					c0-0.2-0.1-0.3-0.2-0.5c0-0.1,0-0.2,0-0.3c0-0.1,0-0.1-0.1-0.1c0-0.2,0-0.4-0.1-0.5c-0.1-0.1-0.4-0.1-0.6-0.1
					c-0.5,0-0.9,0.3-1.3,0.4c-0.3,0.1-0.6,0.1-0.9,0.2c-0.4,0.2-1,0.4-1.3,0.8c-0.3,0.3-0.5,0.7-1,0.5c-0.2-0.1-0.3-0.3-0.3-0.5
					c0-0.2-0.1-0.5,0-0.7c0.1-0.2,0.3-0.2,0.5-0.3c0.4-0.1,0.8-0.3,1.2-0.5c0.3-0.1,0.5-0.2,0.8-0.3c0.2,0,0.5,0,0.7,0
					c0.5-0.1,1-0.3,1.5-0.4c0.3-0.1,0.8,0.1,0.8-0.4c0-0.2,0-0.5,0-0.7c0-0.4,0-0.5-0.3-0.7c-0.7-0.4-1-1.1-1.7-1.4
					c-0.2-0.1-0.4-0.2-0.6-0.3c-0.3-0.2-0.3-0.3-0.5-0.5c-0.1-0.2-0.4-0.4-0.6-0.5c-0.2-0.1-0.5-0.3-0.7-0.4c-0.5-0.3-1-0.5-1.5-0.5
					c-0.6,0-0.9,1.1-0.9,1.6c0,0.2,0.1,0.6,0,0.7c-0.1,0.2-0.3,0.1-0.5,0.1c-0.1,0-0.2,0.1-0.3,0.1c-0.1,0-0.3,0-0.4,0
					c-0.5,0.1-1,0.1-1.5,0.3c-0.5,0.2-0.8,0.4-0.8,1c0,0.2,0,0.4,0.1,0.6c0.2,0.2,0.5,0.4,0.7,0.6c0.3,0.3,0.9,0.4,0.7,0.9
					c0,0.1-0.3,0.4-0.4,0.5c-0.2,0.2-0.3,0.4-0.2,0.7c0.1,0.2,0.3,0.2,0.5,0.3c0.3,0.1,0.5,0.2,0.8,0.3c0.4,0.2,0.8,0.3,1.2,0.5
					c0.2,0.1,0.4,0.1,0.5,0.2c0.1,0.1,0.3,0.2,0.4,0.3c0.3,0.2,0.7,0.3,1.1,0.4c0.2,0,0.3,0.1,0.5,0.1c0.2,0.1,0.4,0.1,0.6,0.2
					c0.3,0.2,0.6,0.6,0.8,0.8c0.3,0.3,0.6,0.6,1,0.8c0.4,0.2,0.7,0.3,1.1,0.5c0.5,0.1,1.1,0.3,1.6,0.4c0.6,0.1,1.2,0.1,1.9,0.1
					c0.4,0,1-0.1,1.4,0c0.4,0.1,0.7,0.6,0.8,1c0.1,0.1,0.1,0.3,0.2,0.4c0.1,0.1,0.4,0,0.6,0c0.4,0,0.9,0.1,1.3,0
					c0.4-0.1,0.8-0.4,1-0.8c0,0,0.1-0.1,0.1-0.1c0.1-0.1,0,0,0.2-0.1c0.1,0,1.1,0,1.9-0.1c0.1,0.2,0.3,0.4,0.4,0.7
					c0.1,0.2,0.1,0.4-0.1,0.5c-0.1,0-0.2,0.1-0.2,0.1c-0.1,0.1-0.1,0.2-0.2,0.3c-0.2,0.3-0.6,0.6-0.6,0.9c0,0.4,0,0.8,0.4,0.9
					c0.6,0.2,1.3-0.1,1.9-0.3c0.2-0.1,0.4-0.2,0.6-0.2c0.2,0,0.2,0,0.4-0.1c0.2-0.1,0.3-0.2,0.5-0.3c0.1-0.1,0.3-0.1,0.4-0.2
					c0.3-0.1,0.7,0,1.1,0c0.2,0,0.3,0,0.4,0.1c0.2,0.1,0.3,0.1,0.5,0.1c0.1,0,0.4,0,0.5,0c0.2,0,0.5-0.3,0.7-0.4
					c0.2-0.1,0.4-0.4,0.6-0.5c0.2-0.1,1.4-0.4,1.6-0.4c0.4,0,1.3,2.4,1.9,3.2c0,0-0.1,0-0.1,0c-0.3,0-0.5-0.2-0.8-0.1
					c-0.2,0.1-0.4,0.2-0.5,0.3c-0.3,0.1-0.5,0.2-0.8,0.4c-0.6,0.3-1.3,0.5-1.7,1.2c-0.2,0.3-0.5,0.6-0.7,0.8
					c-0.3,0.3-0.5,0.5-0.7,0.8c-0.2,0.2-0.4,0.4-0.4,0.7c0,0.2-0.1,0.6,0,0.8c0.2,0.4,0.9,0.5,1.2,0.6c0.1,0,0.3,0.1,0.6,0.3
					c-0.1,0.1-0.2,0.3-0.3,0.4c-0.7-0.1-1.3-0.3-2.1-0.3c-0.2,0-1.1,0.1-0.8,0.5c0.1,0.1,0.3,0.1,0.5,0.1c0.3,0.1,0.5,0.2,0.8,0.2
					c0.1,0,0.6,0.1,1.1,0.2c-0.3,0.5-0.7,0.8-1,1.1c-0.3,0.1-0.6,0.2-0.9,0.3c-0.3,0.1-0.5,0.2-0.7,0.4c-1,0.2-2.1,0.2-3.2,0.1
					c-0.2-0.2-0.4-0.4-0.6-0.6c-0.1,0-0.1,0-0.2-0.1l-0.7-1.2l-0.8,1.4c0,0,0,0,0,0c0.4-0.8,0.7-1.3,0.7-1.3l-6.6,0l-1.2,2
					c-0.2,0.1-0.5,0.1-0.7,0.2c-2,0.7-2.1,1.5-2.9,3.4c-0.2,0.5-0.6,1.1-1.1,1.7c-0.1,0.1-0.2,0.1-0.3,0.1c-0.3,0.1-0.5,0.1-0.7,0.1
					c-0.2,0-0.4,0.2-0.6,0.3c-0.2,0.1-0.3,0.2-0.4,0.4c-0.1,0.2-0.2,0.4-0.4,0.6c-0.1,0-0.1,0.1-0.2,0.1c-0.1,0-0.2,0-0.3-0.1
					c-0.3,0-0.7,0-0.9,0c-0.4,0.1-0.4,0.2-0.4,0.6c0,0.2,0.1,0.5,0.2,0.6c0.2,0.2,0.4,0.1,0.7,0.2c0.1,0,0.2,0.1,0.3,0.1
					c0.1,0,0.3,0,0.4,0c0.3,0.1,0.4,0.2,0.4,0.5c0,0.3,0.1,0.3,0.2,0.5c0.1,0.2,0.2,0.4,0.4,0.6c0.2,0.2,0.4,0.3,0.5,0.6
					c0.1,0.3,0.2,0.5,0.3,0.8c0.1,0.1,0.2,0.3,0.3,0.3c0,0,0,0.1,0,0.1c-0.1,0.5-0.9,0.3-1.3,0.3c-0.3,0-0.9-0.1-1.1,0.2
					c-0.3,0.4-0.6,1-1,1.2c-0.3,0.2-0.8,0.2-1.1,0.2c-0.4,0.1-0.7,0.1-1.1,0.1c-0.4,0-0.8-0.1-1.3-0.1c-0.3,0-0.6-0.1-0.9-0.1
					c-0.5-0.1-0.9-0.1-1.4-0.1c-0.3,0-0.6,0-0.9,0c-0.3,0-0.5,0.1-0.7,0.3c-0.3,0.2-0.5,0.3-0.5,0.7c0,0.3,0.1,0.3,0.3,0.5l0.2,0
					c0,0.1,0,0.1,0,0.2c0,0.5,0,0.9,0.4,1.3c0.2,0.2,0.5,0.3,0.7,0.4c0.1,0.1,0.3,0.1,0.4,0.2c0,0,0.3,0.1,0.3,0.1
					c0.1,0.2-0.1,0.5-0.2,0.6c0,0.1,0,0.2,0,0.3c0,0.1-0.2,0.2-0.2,0.3c-0.1,0.3-0.1,0.9,0.1,1.1c-0.5,0.2-0.9,0.4-1.4,0.7l-2.8,0
					l-0.8,1.3c-0.1,0-0.3,0-0.4,0c-1.1-0.1-2.2-0.6-3.2-1.1c0,0-0.1,0-0.1,0c-0.1-0.3-0.2-0.7-0.4-0.9c-0.3-0.4-0.8-0.5-1.3-0.5
					c-0.3,0-0.7-0.1-0.8,0.3c0,0,0,0.1,0,0.1c-0.1,0-0.3-0.1-0.4-0.1c-0.1,0.9,1.1,2.7,0.7,3.7c-0.5,0.2-1,0.4-1.6,0.5
					c-0.8-0.1-1.6-0.5-2.3-0.9c0-0.6-0.1-1.3-0.1-1.9c-1.2,0-1.1-0.7-1.9-1.2c-0.6-0.4-1.7-0.2-2.5-0.4c-1.5-0.4-3.8-1.1-4.2,0.9
					c0,0.1-0.1,0.3-0.1,0.5l-3.2,5.4l2.4,4.2c-0.3,0.6-0.9,1.1-0.5,1.7c0.3,0.6,1.4,0.5,1.3,1.5c-0.1,0.7-1,0.9-0.5,1.6
					c0.4,0.6,1.7,0.5,2.2,1c0.5,0.5,0.4,1,1,1.5c0.6,0.4,1.6,0.7,1.9,1.4c0.4,0.7-0.3,1.8,0.1,2.3c0,0-0.1-0.1-0.1,0
					c0,0.2-0.1,0.3-0.3,0.4c-0.2,0.1-0.4,0.1-0.5,0.1c-0.2,0.1-0.4,0.1-0.6,0.1c0,0-0.1,0-0.1-0.1c-0.4-0.3-0.6-0.8-0.9-1.2
					c-0.3-0.4-0.6-0.9-1.1-1.2c-0.5-0.3-1-0.4-1.6-0.5c-0.1,0-0.1,0-0.2,0c-0.2-0.2-0.4-0.4-0.6-0.6c-0.1-0.1-0.3-0.3-0.5-0.4
					c-0.1-0.1-0.1,0-0.2-0.1c0,0-0.2-0.1-0.2-0.1c-0.3-0.1-0.6-0.2-1-0.3c-0.2-0.2-0.4-0.4-0.7-0.6c-0.4-0.2-0.8-0.3-1.3-0.4
					c-0.3-0.1-0.6-0.2-0.9-0.2c-0.1,0-0.1,0-0.2,0c-0.2-0.2-0.5-0.4-0.8-0.4c-0.1,0-0.2,0-0.3,0c-0.2,0-0.3-0.1-0.4-0.1
					c-0.2,0-0.3,0-0.5,0c-0.1-0.1-0.3-0.1-0.4-0.2c-0.4-0.2-0.8-0.3-1.2-0.5c-1.1-0.6-2.3-0.6-3.4-1.1c-0.6-0.3-1.1-0.7-1.6-1
					c-0.4-0.2-0.8-0.4-1.1-0.5c-0.5-0.2-1-0.1-1.5-0.1c0,0,0,0,0,0c-0.1,0-0.2-0.1-0.2-0.1c-0.2,0-0.3,0-0.3,0.2c0,0-0.1,0-0.1,0
					c-1-0.8-2.4-1.9-2.5-2c-0.3-0.2-0.5-0.4-0.8-0.6c-0.2-0.2-0.4-0.3-0.6-0.5c-0.2-0.2-0.4-0.3-0.7-0.5c-0.3-0.2-0.7-0.4-1-0.6
					c-0.2-0.1-0.4-0.2-0.6-0.3c0,0-0.1-0.1-0.2-0.1c-0.2-0.4-0.4-0.9-0.8-1.3c-0.1-0.1-0.2-0.2-0.2-0.2c0-0.2,0-0.5,0-0.7l3.6,0
					l3.3-5.8l-2.9-5c0.3-0.2,0.5-0.4,0.8-0.7c0.6-0.6,1.2-1.2,2-1.7c0.3-0.2,0.6-0.4,0.9-0.5c0.4-0.2,0.7-0.6,0.8-1
					c0.3-0.7,0.8-1.3,1.3-1.8c0.3-0.3,0.7-0.7,1.1-0.9c0.3-0.1,0.5-0.2,0.8-0.3c0.5-0.2,1-0.4,1.4-0.6c0.8-0.4,1.7-0.9,2.5-1.5
					c0.3-0.2,0.6-0.4,1-0.5c0.9-0.1,1.8-0.3,2.7-0.5c1-0.3,2.1-0.8,2.6-1.7c0.3-0.5,0.4-1.5,0-2c-0.2-0.3-0.6-0.4-0.9-0.6
					c-0.4-0.2-0.8-0.2-1.3-0.2c-0.7,0-1.6-0.2-2.3,0.2c-0.3,0.2-0.7,0.4-1,0.7c-1.6,2-2.3,2-4.8,2.1c-2.5,0.1-5-0.1-7.5-0.3
					c-2.1-0.2-5.7-0.8-7.6,0.3c-2.5,1.5-2.5,5.7-1.4,8c0.5,1.2,0.9,2.7,0.4,3.9c-0.7,1.6-2.1,2-2.4,3.8c-0.3,1.8,0.3,2.3-1.1,3.6
					c-0.9,0.8-1.2,0.2-1.4,1.4c-0.1,0.5,0.3,2.1,0.6,2.5c0.6,0.8,2.5,1.8,3.3,2.6c1.7,1.5,4.2,1.9,6.5,2.1c2.2,0.2,4.2-0.4,6,1.2
					c-0.3,0.1-0.7,0.5-0.6,0.9c0.1,0.3,0.4,0.5,0.6,0.6c0.1,0.1,0.2,0.1,0.3,0.2c0.1,0,0.2,0.1,0.3,0.1c0.2,0.1,0.2,0.1,0.4,0.1
					c0.1,0,0.2,0,0.2,0c2,0.4,5.1,2.4,4,4.8c-1.4,3.1-5.3,0.9-7.5,0.4c-2.4-0.6-4.8-2.6-7.4-2c-2.1,0.5-2.8,2.9-3.8,4.7
					c-0.4,0.1-0.9,0.2-1.3,0.4c-1,0.4-1.1,1.4-2,1.8c-0.9,0.4-2.2,0-3.2,0.4c-2.1,0.7-3.8,2.3-5.2-0.5c-0.6-1.2-1-2.1-2.6-2.6
					c-0.5-0.2-2.2-0.4-2.7-0.2c-0.7,0.2-0.8,0.9-1.2,1.1c-1.8,0.8-5.9,0-7.2-1.7c-1.1-1.5-2.6-4.3-4.8-4.4c-0.4,0-5.7,1.1-5.6,0.9
					l-1.1,1.8c-0.3,0-0.7,0-0.9-0.1c-0.5-0.2-1-0.4-1.4-0.6c-0.3-0.1-0.3-0.2-0.3-0.5c0-0.2,0-0.3-0.1-0.5c-0.3-0.5-0.8-0.8-1.3-0.9
					c-0.9-0.2-1.9-0.2-2.7,0.1c-0.6,0.2-1,0.5-1.5,0.9c-0.2,0.2-0.4,0.4-0.6,0.5c-0.1,0.1-0.2,0.1-0.3,0.2c0,0.1-0.1,0.1-0.1,0.2
					c-0.2,0.1-0.4,0-0.6,0c-0.4,0-0.8,0.1-1.1,0.2c-0.3,0.1-0.6,0.1-0.8,0.3c-0.1,0.1-0.2,0.4-0.3,0.5c-0.2,0.3-0.4,0.5-0.6,0.7
					c-0.4,0.4-0.3,1.1-0.3,1.6c0,0.2,0,0.5,0,0.7c0,0.2,0,0.3,0,0.5c-0.1,0.1-0.2,0.2-0.4,0.3c-0.1,0.1-0.2,0.2-0.2,0.4
					c-0.2,0.3-0.3,0.4-0.3,0.7c0,0.2-0.1,0.6,0,0.7c0.1,0.3,0.8,0.2,1,0.2c0.6,0,1.1,0,1.7,0c0.2,0,0.7-0.1,0.9,0l-1.9,3.3l0.1,0.3
					c-0.1,0.2-0.3,0.3-0.4,0.5c-0.2,0.2-0.5,0.4-0.4,0.7c0,0.1,0.2,0.3,0.3,0.4c0.1,0.1,0.2,0.2,0.3,0.3c0.3,0.2,0.5,0.5,0.7,0.7
					c0.2,0.2,0.5,0.4,0.6,0.7c0.2,0.3,0.2,0.6,0.3,1c0.1,0.5-0.2,1-0.2,1.6c0,0.5,0.1,1,0,1.5c0,0.2-0.2,0.4-0.3,0.6
					c-0.2,0.3-0.3,0.6-0.3,1c0,0.3,0,0.5-0.1,0.7c-0.1,0.3-0.3,0.4-0.4,0.7c-0.2,0.6,0.4,0.9,0.4,1.4c0,0.4,0.1,0.8,0.1,1.2
					c0,0.5,0.2,0.9,0.2,1.3c0,0.2,0,0.5,0,0.7c0,0.2-0.1,0.2-0.2,0.3c-0.1,0.1-0.1,0.1-0.1,0.2c0,0.2-0.1,0.6,0,0.8
					c0.1,0.2,0.3,0.3,0.4,0.4c0.2,0.2,0.3,0.3,0.5,0.5c0.1,0.1,0.3,0.2,0.4,0.3c0.1,0.1,0.2,0.3,0.3,0.4c0.1,0.1,0.1,0.1,0.2,0.2
					l-2.4,4.1l0.7,1.3c-0.4,0.4-0.7,0.8-1.2,1.1c-0.1,0.1-0.2,0.2-0.3,0.3c-0.1,0.1-0.3,0.1-0.4,0.2c-0.6,0.4-1.1,1-1.6,1.5
					c-0.2,0.2-0.4,0.4-0.7,0.6c-0.2,0.1-0.3,0.2-0.5,0.4c-0.4,0.6-0.7,1.2-1.1,1.7c-0.3,0.4-0.5,0.9-0.8,1.4
					c-0.1,0.2-0.2,0.4-0.1,0.6c0.2,0.3,0.9,0.3,1.1,0.3c0.8,0.1,1.7,0,2.5,0.3c0.3,0.1,0.3,0.3,0.4,0.5c0.1,0.3,0.2,0.4,0.5,0.5
					c0.2,0.1,0.4,0.1,0.6,0.2c0,0,0,0,0,0.1c-0.1,0.1-0.3,0.1-0.4,0.2c-0.1,0-0.1,0.1-0.2,0.1l-5.3,0l-3.3,5.7l3.2,5.5
					c0,0.1,0,0.1-0.1,0.2c-0.2,0.5-0.3,0.9-0.3,1.4l-2.5,4.3l0,0l-6.6,0l-3.3,5.7l1.8,3.1c-0.2,0-0.3,0.1-0.4,0.2
					c-0.1,0.1-0.1,0.4-0.1,0.5c0,0.2-0.1,0.3-0.1,0.5c0,0.3-0.1,0.5-0.2,0.7c0,0.1,0,0.1,0,0.2c0,0.3-0.1,0.6-0.1,1
					c0,0.3,0,0.6,0.1,0.8c0.1,0.3,0.2,0.5,0.4,0.8c0.1,0.1,0.1,0.2,0.1,0.3c0,0,0,0.1,0.1,0.1l-1.5,2.5c0,0-0.1,0-0.1,0.1
					c-0.2,0.1-0.6,0-0.6,0.3c-0.1,0.4,0.3,0.9,0.4,1.2c0.4,0.9,0.4,1.7,1.1,2.4c0.6,0.5,1.3,1.1,2,1.4c1.4,0.6,3.1,0.7,4.6,0.9
					c2.7,0.3,5.1-0.7,7.8-0.8c0.3,0,0.6,0,0.9,0.1c0.6,0.1,1.2,0.3,1.7,0.4c0.1,0,0.3,0,0.4,0c0.2,0,0.2,0.1,0.4,0.1
					c0.9,0,1.2-0.8,1.2-1.5c0-0.5,0.1-0.9-0.3-1.2c-0.2-0.2-0.5-0.5-0.4-0.8c0.6-0.1,1.2-0.2,1.8-0.2c0,0,0.1,0,0.1,0
					c-0.8-1.8,1.7,0.8,3.4-0.2c0.5,0,1,0,1.3-0.1c0.9-0.4,1.7-0.8,2.6-1.2c0.9-0.3,0.7,0.8,0.7,1.4c0,0.6,0,1.2-0.2,1.8
					c-0.1,0.4-0.1,1.1,0.1,1.5c0.1,0.3,0.3,0.5,0.5,0.7c0.1,0.2,0.2,0.4,0.4,0.5c0.3,0.2,0.9,0.3,1.1,0.7c0.2,0.5-0.2,1,0.3,1.4
					c0.2,0.1,0.4,0.2,0.6,0.2c0.5,0.1,1.1,0.2,1.6,0.2c0.7,0,1.3,0.1,2,0.1c0.2,0,0.5,0,0.7,0c0.3,0.2,0.6,0.5,0.9,0.7
					c0.7,0.4,1.3,0.7,2,1c0.4,0.2,0.7,0.3,1,0.6c0.5,0.5,0.9,1,1.6,1.2c0.5,0.2,1.1,0.2,1.5,0.7c0.3,0.4,0.2,0.9,0,1.4
					c-0.1,0.3-0.3,0.5-0.4,0.8c-0.1,0.3,0,0.7,0,1c0,0.3,0,0.3,0.2,0.4c0,0.1,0.1,0.1,0.1,0.2l-0.7,0l-1.4,2.3c-0.1,0-0.1,0-0.2,0.1
					c-0.2,0.2-0.3,0.4-0.4,0.7c-0.1,0.3-0.3,0.5-0.5,0.7c-0.3,0.3-0.7,0.4-1.1,0.7c-0.4,0.3-0.5,0.6-0.5,1.1c-0.1,0.8,0.4,0.7,1,0.8
					c0.1,0,0.1,0,0.2,0.1l0.6,1c-0.6,0.3-1.2,0.6-1.7,1c-0.3,0.3-0.7,0.7-0.7,1.1c0,0.2,0,0.4,0.1,0.6c0.2,0.2,0.5,0.3,0.6,0.5
					c0.3,0.5-0.7,1-1,1.2c-0.3,0.1-0.5,0.2-0.7,0.4c-0.2,0.2-0.4,0.4-0.5,0.6c-0.1,0.2,0,0.4-0.1,0.6c-0.1,0.2-0.4,0.3-0.6,0.3
					c-0.2,0-0.4,0.5-0.6,0.5c-0.3-0.1-0.6-0.2-1-0.3c-0.2,0-0.4-0.2-0.6-0.2c-0.2-0.1-0.5-0.7-0.7-0.6c-0.2,0-0.4,0.1-0.6,0.2
					c-0.2,0.1-0.5,0.1-0.7,0.1c-0.2,0.1-0.4,0.1-0.6,0.1c-0.3-0.1-0.6-0.1-0.8-0.2c-0.2-0.1-0.4-0.2-0.5-0.4
					c-0.1-0.2-0.3-0.3-0.4-0.4c-0.2-0.2-0.1-0.3-0.1-0.5c-0.1-0.2,0-0.5-0.3-0.6c-0.5-0.2-1-0.3-1.5-0.3c-0.3,0-0.5,0-0.8,0
					c-0.3,0-0.6-0.1-0.8,0.1c-0.2,0.2-0.3,0.5-0.5,0.8c-0.2,0.3-0.4,0.5-0.6,0.7c-0.3,0.4-0.7,0.7-1,1c-0.4,0.4-0.4,0.7,0.1,1
					c0.4,0.2,0.8,0.4,1.2,0.5c0.3,0.1,0.8,0.5,0.8,0.8c0,1-0.3,2.4,1,2.5c0.6,0,1.3-0.3,1.8-0.6c0.4-0.2,0.7-0.4,1-0.7
					c0.2-0.3,0.5-0.4,0.8-0.6c0.3-0.2,0.6-0.4,1-0.4c0.2,0,0.5,0,0.7,0c0.3,0,0.7-0.5,1-0.5c0.5,0,0.7-1.2,1.2-1.2
					c0.2,0,0.4,0,0.6,0.1c0.2,0.1,0.4,0.5,0.6,0.5c0.4,0.1,0.9,1.2,1.2,1.4c0.2,0.1,0.4,0.3,0.6,0.4c0.2,0.2,0.2,0.3,0.2,0.6
					c0,0.6,0.7,0.6,1.1,0.6c0.2,0,0.4,0.1,0.6,0.1c0.2,0,0.3,0,0.5,0c0.2,0,0.3,0.1,0.5,0.1l0.7,1.2c0,0.1,0,0.1,0,0.2
					c0.1,0.2,0.2,0.3,0.3,0.4l1.4,2.4l2.4,0c0.2,0.3,0.5,0.5,0.8,0.4c0.3,0,0.6-0.2,0.9-0.3c0.4-0.1,0.8-0.1,1.2-0.1
					c0.6,0,1.1,0,1.5,0.4c0.2,0.1,0.3,0.4,0.5,0.5c0.2,0.1,0.6,0,0.9,0c0.6,0,1.1,0,1.6,0.2c0.2,0.1,0.5,0.1,0.7,0.2
					c0.3,0.1,0.5,0,0.8,0.1c0.5,0.1,0.4,0.6,0.7,0.9c0.1,0.2,0.3,0.4,0.5,0.5c0.2,0.2,0.5,0.4,0.7,0.5c0.5,0.2,1,0.2,1.4,0
					c0.4-0.2,0.7-0.5,1.1-0.7c0.2-0.1,0.5-0.2,0.8-0.2c0.8-0.1,1.8,0.4,2.2,1.2c0.2,0.4,0.3,0.8,0.5,1.2c0.3,0.4,0.8,0.9,1,1.4
					c0.1,0.3,0.2,0.5,0.6,0.6c0.1,0,0.3,0.1,0.4,0.2c0.2,0.1,0.4,0,0.5,0c0.2,0,0.4,0,0.6,0.1c0.1,0,0.4,0.1,0.5,0.2
					c0.2,0.2,0.3,0.5,0.4,0.7c0.2,0.3,0.5,0.5,0.7,0.8c0.2,0.2,0.4,0.5,0.7,0.7c0.4,0.2,0.7-0.1,1-0.4c0.3-0.2,0.5-0.5,0.8-0.7
					c0.3-0.2,0.5-0.3,0.7-0.5c0.2-0.2,0.3-0.5,0.4-0.8c0.1-0.3,0.3-0.6,0.2-0.9c-0.1-0.2-0.3-0.4-0.5-0.6c-0.4-0.3-1.1-0.4-1.6-0.6
					c-0.4-0.2-0.8-0.5-1.1-0.8c-0.6-0.7-0.6-1.6-0.4-2.5c0.1-0.6,0.3-1.3,0.4-1.9c0.1-0.4,0.3-1.3,0-1.7c-0.3-0.4-1.1-0.3-1.5-0.3
					c-0.5-0.1-1-0.3-1.5-0.3c-0.1-0.2,0-0.5,0.1-0.7c0.1-0.3,0.4-0.6,0.4-0.9c0-0.3-0.4-0.4-0.6-0.6c-0.1-0.1-0.2-0.1-0.3-0.2
					c-0.2-0.1-0.2-0.2-0.3-0.3c-0.1-0.1-0.2-0.1-0.3-0.2c-0.1-0.1-0.1-0.2-0.1-0.4c0-0.3,0-0.5,0.3-0.5c0.3-0.1,0.9-0.1,1.1,0
					c0.3,0.1,0.5,0.3,0.8,0.4c0.1-0.2,0-0.7,0-0.9v-1.3c0-0.3,0-0.5,0.1-0.7c0.2-0.3,0.3-0.3,0.5-0.4c0.4-0.1,0.8-0.1,1.2-0.1
					c0.2,0,0.5,0.1,0.7,0c0.4-0.1,0.5-0.6,0.7-0.8c0.2-0.3,0.4-0.6,0.4-1c0-0.1-0.1-0.2-0.1-0.2c1-0.6,1.9-1.1,2-1.2
					c0.2-0.2,0.3-0.5,0.5-0.7c0.2-0.2,0.4-0.3,0.7-0.3c0.4-0.1,0.8-0.1,1.2-0.2c0.3-0.1,0.6,0,0.9-0.1c0.5-0.2,1-0.1,1.6-0.1
					c0.4,0,0.7-0.1,1-0.1c0.3,0,0.5,0,0.8-0.1c0.4-0.1,1.2-0.4,1.5,0c0.2,0.2,0.3,0.6,0.3,0.9c0,0.3,0.2,0.6,0.1,0.9
					c-0.1,0.4-0.5,0.6-0.7,1c-0.1,0.3-0.2,0.5-0.2,0.7c0,0.2,0,0.4,0.2,0.5c0.3,0.2,0.6,0.5,0.8,0.7c0.1,0.1,0.2,0.1,0.2,0.2
					l-0.9,1.5c-0.5,0-1.1,0.1-1.6-0.1c-0.4-0.1-0.7-0.3-1.1-0.5c-0.6-0.2-0.9-0.1-1.4,0.3c-0.2,0.2-0.4,0.5-0.5,0.8
					c0,0.2,0,0.5,0,0.7c0,0.3,0,0.5,0.1,0.7c0,0.1,0.1,0.2,0.1,0.3c0.1,0.2,0.2,0.2,0.3,0.4c0.2,0.3,0,0.3-0.2,0.4
					c-0.2,0.1-0.2,0.2-0.5,0.2c-0.3,0-0.5,0-0.7-0.1c-0.1,0-0.3-0.1-0.5-0.1c-0.1,0-0.3-0.1-0.4-0.1c-0.2,0-0.4-0.1-0.5,0.1
					c-0.1,0.2-0.2,0.7-0.2,0.9c0,0.2-0.1,0.5,0,0.6c0.1,0.3,0.6,0.4,0.9,0.5c0.3,0.1,0.5,0.3,0.7,0.5c0.2,0.2,0.4,0.2,0.4,0.5
					c0,0.2,0,0.5,0,0.7c0,0.3-0.1,0.5-0.1,0.8c0,0.5,0,1,0.2,1.5c0.1,0.2,0.1,0.4,0.3,0.5c0.2,0.2,0.6,0.2,0.8,0.3
					c0.2,0.1,0.5,0.1,0.7,0.2l-0.3,0.4c0,0.4,1.1,0.4,1.3,0.4c0.3,0,0.7,0.1,1,0.2c0.3,0.1,0.5,0.2,0.8,0.3c0.2,0.1,0.6,0.1,0.7,0.2
					c0,0.1,0.1,0.2,0,0.3c-0.1,0.2-0.3,0.3-0.4,0.5c-0.3,0.3-0.7,0.6-0.8,1c-0.1,0.2-0.1,0.5-0.1,0.7c0,0.3-0.1,0.4,0.2,0.4
					c0.2,0,0.6,0,0.8,0c0.1,0,0.1,0,0.2-0.1c0.2,0.1,0.4,0.1,0.6,0.2c0.5-0.3,1-0.5,1.5-0.8c0.3-0.1,0.5-0.3,0.8-0.4
					c0.1-0.1,0.2,0,0.3-0.1c0.1,0,0.2-0.1,0.3-0.2c0.7,0.3,1.5,0,2.2,0.3c0.3,0.1,0.6,0.2,0.7,0.5c0.2,0.3,0.2,0.6,0.3,0.9
					c0.1,0.5,0.2,1,0.5,1.4c0.3,0.4,0.8,0.8,1.2,1.1c0.4,0.3,0.7,0.6,1,1c0.1,0.1,0.3,0.4,0.5,0.4c0.4,0.1,0.6-0.6,0.6-0.8
					c0.1-0.4,0.2-0.9,0.2-1.3c0-0.3-0.1-0.7,0-1c0-0.1,0.1-0.2,0.1-0.4c0-0.1,0-0.3,0-0.4c0-0.3,0.1-0.5,0.1-0.7
					c0-0.4,0.1-0.9,0-1.3c0-0.3-0.2-0.4-0.4-0.6c-0.2-0.2-0.3-0.5-0.4-0.7c-0.1-0.5-0.1-1.2-0.4-1.6c-0.3-0.5-0.6-1-0.6-1.6
					c0-0.2,0-0.3,0-0.5c0-0.3,0.1-0.4,0.1-0.7c0-0.2,0-0.3,0.1-0.5c0.1-0.2,0.3-0.4,0.4-0.6c0-0.1,0.1-0.2,0.1-0.3
					c0-0.1,0.1-0.1,0.2-0.1c0.1-0.2,0-0.8,0-1c0-0.1,0-0.1,0-0.2l1.5-2.6l-0.8-1.4c0.3-0.1,0.5-0.2,0.8-0.3c0.5-0.1,0.9-0.3,1.4-0.5
					c0.5-0.2,0.9-0.4,1.4-0.5c0.4-0.1,0.8-0.1,1.2-0.1c0.1,0,0.3,0,0.4,0c0.1,0,0.2,0.1,0.3,0.1c0.2,0,0.5,0,0.7,0.1
					c0.2,0.1,0.5,0.2,0.7,0.3c0.5,0.2,0.9,0.6,1.4,0.9c0,0,0.1,0,0.1,0.1l-1,1.7l3.3,5.7l6.7,0l0.3-0.6c0.2,0,0.4,0,0.7-0.1
					c0.5-0.1,1.1-0.2,1.6-0.4c0.2-0.1,0.5,0,0.7-0.1c0.1,0,0.1-0.1,0.2-0.1c0.1,0,0.2,0,0.3,0c0.5,0,1,0.1,1.4,0.3
					c0.1,0.1,0.3,0.1,0.5,0.1c0.1,0,0.2,0,0.3-0.1c0.1,0.1,0.1,0.2,0.2,0.3c0.2,0.1,0.5,0.2,0.7,0.1c0.2,0,0.4-0.2,0.6-0.3
					c0.2-0.1,0.5-0.3,0.7-0.3c0.2,0,0.4,0,0.6,0.1c0.1,0.1,0.1,0.2,0.2,0.3c0.1,0.1,0.2,0.1,0.3,0.2c0.1,0.3,0.3,0.7,0.5,1
					c0.1,0.2,0.3,0.4,0.4,0.6c0.1,0.1,0.2,0.3,0.3,0.4c0.2,0.2,0.5,0.4,0.7,0.6l-2,3.3l3.3,5.7l6.6,0c0,0,0,0,0,0
					c0,0.1-0.1,0.2-0.1,0.3c0,0.2,0,0.2,0.2,0.2c0.1,0,0.1,0,0.2,0c0,0,0,0,0,0.1c-0.1,0.3-0.3,0.7,0.1,0.8c1.3,0.5,5.2,0.9,5-1.2
					c4.2-0.2,5.4,0.2,7.2,3.2c0.8,1.4,1.8,3.5,3.8,2.9c-0.8-1.6,0.4-1.5,0.8-2.5c0.2-0.6,0.4-1.9,0.9-2.4c1.4-1.5,5.4-2.4,7.3-3.4
					c2.4-1.4,4.8-2.7,7.2-3.7c3.1-1.2,0.8-5.1,3.9-5.2c0.5,0,0.6-0.4,0.5-0.8c-0.1-0.9-0.9-1.4-1.2-2.2c-0.2-0.5-0.3-1-0.2-1.5
					c0-0.2,0.1-0.4,0.1-0.6c0-0.2,0-0.4,0-0.6c0-0.1,0-0.3,0-0.3c-0.1-0.1-0.1,0-0.2-0.1c-0.4-0.2-0.7-0.4-0.8-0.8
					c-0.2-0.4-0.5-0.6-0.9-0.7c-0.5-0.2-1.2-0.4-1.6-0.7c-0.2-0.2-0.4-0.2-0.4-0.5c0-0.2,0-0.5,0-0.7c0.5-0.1,1.1,0.1,1.5,0.2
					c0.7,0.2,1.3,0.4,2,0.4c0.4,0,0.7,0,1,0.1c0.2,0,0.3,0.1,0.4,0.1c0.2,0,0.3,0.1,0.5,0.1c0.2,0,0.4,0,0.6,0
					c0.3,0,0.6,0.1,0.8,0.2c0.4,0.1,0.7,0.1,1,0.1s0.5-0.4,0.5-0.7c0-0.2-0.1-0.4-0.2-0.6c-0.1-0.2-0.3-0.4-0.4-0.6
					c0-0.1,0-0.3,0-0.4c0-0.2-0.1-0.3-0.1-0.5c0,0,0-0.1,0-0.1l3.3-5.8l-0.5-0.8c0,0,0-0.1,0.1-0.1c0.1-0.1,0.3-0.2,0.4-0.3
					c0.3-0.1,0.6-0.1,0.9-0.1c0.4,0,0.8,0.1,1.3,0.1c0.3,0,0.7,0,1,0c0.3,0,0.4-0.1,0.6-0.3c0.2-0.2,0.3-0.2,0.3-0.5
					c0-0.3,0-0.4-0.2-0.6c-0.2-0.2-0.3-0.3-0.5-0.5c-0.2-0.2-0.2-0.3-0.2-0.6c0-0.3-0.1-0.5-0.1-0.8c0-0.3,0.1-0.7,0-0.9
					c-0.1-0.2-0.3-0.3-0.4-0.5c-0.1-0.2-0.2-0.5-0.3-0.7c-0.1-0.1-0.1-0.3-0.2-0.4c-0.1-0.2-0.3-1,0.1-1.1c0.2-0.1,0.6,0,0.8,0
					c0.2,0,0.4,0,0.6,0c0.5-0.1,1.4-0.5,1.5-1c0-0.1,0-0.2,0-0.3c0-0.1,0.1-0.2,0.1-0.3c0-0.2,0.1-0.5,0-0.7
					c-0.1-0.2-0.3-0.2-0.4-0.4c-0.1-0.1-0.1-0.2-0.1-0.4l1.5,0l1.4-2.4c0.4,0,0.9,0.1,1.2,0.1c0.2,0,0.6,0.2,0.8,0.1
					c0.1-0.1,0.2-0.3,0.3-0.4c0.2-0.3,0.4-0.4,0.6-0.7c0.1-0.2,0.3-0.4,0.4-0.6c0.1-0.2,0.1-0.4,0.2-0.6c0.1-0.1,0.2-0.2,0.2-0.3
					c0-0.1,0-0.2,0.1-0.3c0.1-0.2,0.3-0.3,0.5-0.4l3.9,0l2.2-3.9c0.1,0,0.1,0.1,0.2,0.1c0.3,0.2,0.6,0.2,0.7,0.5
					c0.1,0.2,0.2,0.4,0.4,0.6c0.6,0.5,1.6,0.2,2.3,0.3c0.7,0.1,0.9,0.6,1.1,1.2c0.2,0.8,0.9,1.4,1.7,1.7c0.3,0.1,0.7,0.2,1,0.2
					c0.2,0,0.7,0.1,0.8-0.1c0.2-0.2,0.1-0.5,0.2-0.7c0.2-0.4,0.4-0.3,0.7-0.3c0.2,0,0.3-0.1,0.5-0.1c0.2,0,0.4,0,0.5,0
					c0.1,0,0.2-0.1,0.3-0.1c0,0,0.1,0,0.1,0l0.3,0.5l2.5,0c0.1,0.1,0.2,0.1,0.3,0.2c0.1,0,0.3,0.2,0.4,0.2c0-0.1,0-0.3,0-0.4l3.4,0
					l3.3-5.8l-1.3-2.2c0.3,0.1,0.6,0.1,0.9,0.1c0.4,0,0.8,0,1.2,0c0.4,0.1,0.5,0.3,0.7,0.6c0.3,0.4,0.8,0.6,1.1,0.8
					c0.6,0.3,1.3,0.4,1.7,0.9c0.1,0.1,0.3,0.3,0.4,0.5c0.1,0.2,0.1,0.3,0.1,0.5c0.1,0.2,0.1,0.3,0.2,0.4c0.1,0.2,0.2,0.5,0.4,0.6
					c0.6,0.4,1.4,0.4,2,0.5c0.1,0,0.1,0,0.2,0l1.8,3.1l6.7,0l1.9-3.3c0.1,0.1,0.2,0.1,0.3,0.1c0.2,0.1,0.6,0.2,0.8,0.3
					c0.2,0.2,0.1,0.3,0.1,0.5c0.1,0.2,0.3,0.4,0.5,0.5c0.2,0.1,0.5,0.2,0.7,0.3c0.4,0.1,0.8,0.2,1.2,0.4c0.5,0.2,0.9,0.3,1.4,0.5
					c0.4,0.2,1,0.5,1.4,0.5c0.6,0,1.2,0,1.7,0c0.5,0,1.2-0.1,1.6,0.3c0.1,0.2,0.2,0.4,0.3,0.6c0.1,0.2,0.1,0.4,0.4,0.4
					c1,0.1,2-0.2,2.9-0.4c0.3-0.1,0.7-0.2,0.9-0.4c0.1-0.1,0.1-0.1,0.1-0.2l3.4,0l0.9-1.6c0.1,0,0.2,0,0.3-0.1
					c0.1-0.2,0.2-0.5,0.3-0.8l1.5-2.7c0.5-0.1,1,0,1.5-0.1c0.2,0,0.5,0,0.7,0.1c0.2,0.1,0.2,0.2,0.2,0.4c0.1,0.2,0.2,0.4,0.4,0.5
					c0.1,0.1,0.2,0.1,0.3,0.1c0.1-0.1,0.2-0.1,0.3-0.2c0.2-0.1,0.3-0.1,0.5-0.2c0,0,0.1,0,0.1-0.1c0.8,0.5,1.6,0.9,2.3,1
					c0.4,0.1,0.8,0.1,1.2,0.1c0.3,0,0.7,0,1,0c0.6,0,1.2,0.1,1.9,0.1c0.5,0,1,0,1.4,0.2c0.1,0.1,0.3,0.3,0.4,0.3
					c0.1-0.2,0-0.5-0.1-0.7c0-0.2-0.1-0.4-0.1-0.6c0.4-0.8,1.2-1.4,1.2-2.4c0-0.6-0.3-1.2-0.7-1.7c0-0.1,0-0.1,0-0.2
					c0-0.4-0.2-0.7-0.4-0.9c-0.2-0.2-0.3-0.3-0.4-0.5c-0.1-0.3,0-0.6,0-0.9c0-0.5,0.1-0.8,0.3-1.2c0.1-0.2,0.2-0.4,0.4-0.6
					c0.2-0.3,0.4-0.7,0.6-1c0.2-0.2,0.2-0.3,0.2-0.5c0-0.3,0-0.5,0-0.8c0-0.3,0-0.6,0-0.8c0-0.2-0.1-0.2-0.2-0.3
					c-0.3-0.3-0.4-0.5-0.4-0.9c0-0.4-0.3-0.5-0.6-0.7c-0.3-0.2-0.5-0.3-0.7-0.6c-0.2-0.3-0.4-0.7-0.6-1c-0.1-0.2-0.6-0.7-0.5-0.9
					c0.4-0.1,0.8-0.1,1.2-0.3c0.3-0.1,0.6-0.2,0.9-0.3c0.4-0.2,0.6-0.6,0.9-0.9c1.4-0.2,2.7,0.2,3.9,1.4c0.5,0.5,0.9,0.8,1.3,1.2
					l1.2,2l4.7,0c0.5,0.3,0.9,0.6,1.5,1.2c0.8,0.7,1.5,1.5,2.2,2.2l1.5,2.5l2.8,0c0.6,0.3,1.2,0.6,1.8,1.1c0.6,0.5,1.1,1,1.6,1.6
					c0,0.1,0.1,0.2,0.1,0.3c0.1,0.1,0.1,0.1,0.2,0.2c0.1,0.1,0.1,0.3,0.2,0.4c0.3,0.3,0.4,0.7,0.8,0.8c0.6,0.2,1.4,0.5,2.1,0.5
					l0.3,0.5l4,0c0.3,0.1,0.5,0.2,0.8,0.2c0.2,0,0.4,0.1,0.6,0.2c0.3,0.1,0.5,0.3,0.8,0.5c0.7,0.5,1.2,1.1,1.6,1.7l1.9,3.3l0.5,0
					c0,0.1,0,0.2,0.1,0.3c0.1,0.1,0.4,0.2,0.6,0.2c0.6,0,1.2,0.2,1.7,0.2c0.4,0,0.9,0,1.4,0c0.4,0,0.9-0.4,1.2-0.7l1.2,0l0.5-0.9
					c0.2-0.1,0.4-0.1,0.6-0.1c0.1,0,0.2,0,0.3,0c0.2,0,0.3-0.1,0.4-0.1c0.2,0,0.3,0,0.5-0.1c0.3-0.1,0.7-0.1,1-0.3c0,0,0.1,0,0.1,0
					c0.1,0,0.2,0,0.3,0c1.2,0.2,1.3,0.9,1.3,2.2c0,0.1,0,0.1,0,0.1c0,0.1-0.1,0.2-0.1,0.4c-0.3,0.8-0.8,1.6-0.9,2.6
					c-0.1,0.6,0,1.3,0.2,1.8l-1.5,0l-3.3,5.7l3.3,5.7l0.7,0c0.2,0.5,0.5,0.9,0.4,1.5c0,0.3-0.3,0.6-0.3,0.9c0,0.3,0,0.3-0.2,0.5
					c-0.3,0.5-0.7,1-0.7,1.6c0,0.3,0,0.6,0,1c0,0.3,0.1,0.5,0.2,0.8c0.1,0.2,0.1,0.5,0.2,0.7c0.2,0.2,0.4,0.1,0.6,0.1
					c0.5,0,0.9,0.1,1.3-0.3c0.2-0.2,0.4-0.4,0.6-0.6c0.3-0.3,0.4-0.7,0.6-1.1c0.1-0.3,0.2-0.5,0.4-0.8c0.2-0.3,0.2-0.3,0.5-0.3
					c0.4,0,0.7,0,1,0.2c0.5,0.3,1.1,0.4,1.5,0.7c0.2,0.2,0.4,0.3,0.4,0.6c0.1,0.2,0.1,0.3,0.3,0.5c0.2,0.3,0.1,0.3,0.4,0.3
					c0.4,0,0.8,0,1.1,0c0.6,0,1.1-0.2,1.6-0.2c0.3,0,0.4,0,0.4-0.3c0-0.3,0.1-0.6,0.1-0.8c0.1-0.4,0.2-0.7,0.5-1.1
					c0.1-0.2,0.3-0.4,0.5-0.5c0.2-0.1,0.3-0.2,0.6-0.2c0.7-0.1,1.4-0.2,1.7-0.8c0.4-0.6,0.2-1.5,0.2-2.2c0-0.5-0.2-0.8-0.4-1.2
					c-0.1-0.2-0.2-0.4-0.3-0.5c-0.1-0.1-0.1-0.3-0.1-0.4c-0.1-0.1-0.1-0.2-0.2-0.3c-0.1-0.2-0.1-0.6-0.1-0.8c0-0.4,0.2-0.7,0.4-1
					c0.4-0.5,0.8-1.3,1.3-1.7c0.1-0.1,0.1,0,0.2-0.1c0.1-0.1,0.1-0.2,0.2-0.3c0.1-0.3,0.2-0.7,0.3-1.1c0.1-0.3,0-0.6,0-0.9
					c0-0.4,0.1-0.8,0.1-1.2c0-0.7,0-1.4,0-2c0-0.4-0.2-0.6-0.3-0.9c-0.1-0.4-0.3-0.8-0.4-1.1c-0.3-0.7-0.5-1.5-0.6-2.3
					c-0.1-0.4-0.1-0.7-0.1-1c0-0.1,0-0.3,0-0.4c0.1-0.2,0.2-0.2,0.3-0.3c0.1-0.1,0.2-0.3,0.3-0.4c0.1-0.2,0.3-0.3,0.4-0.5
					c0.1-0.2,0.3-0.3,0.4-0.5c0.1-0.1,0.2-0.3,0.3-0.4c0.2-0.3,0.5-0.7,0.7-1c0.3-0.4,0.3-0.8,0.3-1.3c0-0.3,0.1-0.6-0.1-0.9
					c-0.2-0.4-0.6-0.6-0.9-0.8c-0.6-0.5-1.3-1.1-1.5-1.8c-0.1-0.3-0.3-0.6-0.4-0.9c-0.2-0.3-0.2-0.7-0.4-1c-0.2-0.5-0.4-1-0.7-1.4
					c-0.3-0.4-0.6-0.7-0.8-1.1c-0.4-0.6-0.7-1.2-1-1.9c-0.1-0.2-0.2-0.2-0.4-0.3c-0.2-0.1-0.4-0.3-0.5-0.5c-0.1-0.2-0.3-0.4-0.4-0.5
					c-0.2-0.2-0.2-0.6-0.2-0.9c0-0.4-0.1-0.7-0.2-1c-0.1-0.2-0.1-0.4-0.1-0.6c0-0.1,0-0.2-0.1-0.3c0-0.1,0-0.2,0-0.3
					c-0.1-0.2-0.2-0.3-0.3-0.5c-0.3-0.3-0.6-0.7-0.9-1.1c-0.4-0.5-0.4-0.9-0.4-1.5c0-0.2,0-0.4-0.1-0.6c-0.1-0.2-0.2-0.3-0.4-0.4
					c-0.5-0.5-0.8-1.1-1.2-1.7c-0.5-0.7-1.1-1.3-1.4-2.1c1-0.2,2.4-0.5,2.5-0.2c0.2,0.6,1,2.2,1.5,2.6c0.5,0.5,1.2,0.7,1.6,1.4
					c0.2,0.4,0.1,1,0.1,1.4c0,0.3,0,0.5,0.2,0.7c0.3,0.3,0.6,0.5,0.9,0.7c0.3,0.3,0.6,0.6,0.9,0.8c0.3,0.2,0.6,0.5,0.8,0.7
					c0.1,0.1,0.2,0.3,0.3,0.5c0.1,0.1,0.3,0.3,0.5,0.4c0.2,0.2,0.5,0.5,0.7,0.7c0.3,0.4,0.6,0.8,0.7,1.3c0.1,0.5,0.2,1,0.3,1.4
					c0.1,0.4,0.5,0.8,0.7,1.2c0.1,0.3,0.4,0.4,0.5,0.7c0.2,0.4,0.5,0.7,0.7,1.1c0.1,0.2,0.3,0.4,0.4,0.6c0.1,0.1,0,0.3,0.1,0.4
					c0,0.1,0.1,0.2,0.1,0.3c0,0.2,0,0.4,0,0.6c0,0.1,0,0.2,0,0.3c0,0.2-0.1,0.3-0.2,0.4c-0.1,0.4-0.1,1.1,0.1,1.5
					c0.2,0.3,0.3,0.6,0.6,0.8c0.3,0.2,0.5,0.5,0.7,0.7c0.2,0.1,0.4,0.3,0.5,0.5c0.1,0.1,0.2,0.3,0.3,0.4c0.1,0.1,0.2,0.2,0.3,0.3
					c0.1,0.2,0.4,0.4,0.5,0.6c0,0.1,0,0.2,0,0.3c0,0.1,0.1,0.3,0.2,0.4c0.3,0.5,0.6,1.1,1,1.5c0.2,0.2,0.4,0.5,0.6,0.7
					c0.2,0.2,0.4,0.4,0.5,0.7c0.1,0.5,0.3,0.9,0.3,1.4c0,0.3,0,0.6,0,0.9c0,0.1,0,0.2,0,0.3c0,0.2,0.1,0.2,0.2,0.4
					c0.3,0.4,0.7,0.9,1.1,1.2c0.2,0.2,0.4,0.4,0.7,0.5c0.3,0.2,0.4,0.4,0.6,0.6c0.1,0.1,0.2,0.2,0.3,0.4c0.1,0.1,0.2,0.4,0.3,0.5
					c0.1-0.1,0-0.3,0-0.4c0-0.3,0.1-0.6,0.1-0.9c0-0.3,0.1-0.5,0.2-0.8c0-0.2,0-0.5,0-0.7c0.1-0.3,0.2-0.3,0.5-0.3
					c0.4,0,0.7,0,1,0.1c0.4,0.1,0.7,0.3,1.1,0.4c0.2,0.1,0.5,0.2,0.7,0.4c0.4,0.4,0.5,0.9,0.6,1.4c0.2,0,0.1-0.9,0.1-1
					c0-0.5-0.1-0.8-0.4-1.1c-0.4-0.5-0.7-1.2-0.9-1.8c-0.2-0.4-0.5-0.6-0.8-0.8c-0.3-0.3-0.7-0.5-1-0.8c-0.4-0.3-0.9-0.5-1.3-0.7
					c-0.3-0.2-0.7-0.4-1-0.7c-0.2-0.2-0.2-0.4-0.4-0.5c-0.1-0.1-0.3-0.2-0.4-0.3c-0.2-0.3-0.5-0.5-0.7-0.8c-0.2-0.3-0.4-0.5-0.5-0.8
					c-0.1-0.4,0-0.8-0.2-1.1c-0.1-0.3-0.1-0.5-0.1-0.8c0-0.3-0.1-0.6-0.1-0.9c0-0.5-0.3-1-0.5-1.5c-0.1-0.2-0.1-0.4-0.2-0.5
					c-0.1-0.2-0.3-0.3-0.3-0.5c0.3-0.2,0.8-0.2,1.1-0.2c0.8,0,1.4,0.4,2.1,0.7c0.6,0.3,1.2,0.5,1.7,0.8c0.3,0.2,0.7,0.7,1,0.7
					c0-0.3-0.3-0.6-0.5-0.8c-0.3-0.3-0.7-0.7-0.9-1c-0.7-0.9-2-1.2-3-1.7c-1.3-0.7-2.6-1.5-3.3-2.9c-0.2-0.5-0.4-0.9-0.6-1.4
					c-0.2-0.5-0.2-1-0.5-1.4c-0.1-0.2-0.2-0.4-0.4-0.6c-0.2-0.2-0.4-0.4-0.6-0.6c-0.1-0.1-0.1-0.2-0.2-0.3c-0.1-0.1-0.3-0.2-0.4-0.3
					c-0.3-0.3-0.5-0.6-0.8-0.9c-0.2-0.2-0.3-0.4-0.5-0.5c-0.2-0.1-0.4-0.1-0.6-0.2c-0.2-0.1-0.5-0.3-0.7-0.5
					c-0.4-0.2-0.7-0.5-1.1-0.7c-0.5-0.4-0.7-1-1-1.6c-0.1-0.2-0.3-0.4-0.3-0.7c0-0.2,0-0.5,0-0.7c0-0.4,0.1-0.8-0.1-1.1
					c-0.1-0.2-0.1-0.4-0.3-0.5c-0.1-0.1-0.2-0.1-0.3-0.1c-0.1-0.1-0.2-0.2-0.3-0.3c-0.3-0.2-0.7-0.4-1-0.6c-0.2-0.1-0.5-0.2-0.6-0.4
					c-0.1-0.1,0.5-0.2,0.5-0.3c-0.3,0-0.3-0.2-0.5-0.4c-0.2-0.2-0.4-0.3-0.5-0.5c-0.2-0.3-0.4-0.7-0.6-1c-0.3-0.4-0.7-0.7-1-1
					c-0.6-0.6-1.2-1.2-2-1.6c-0.6-0.3-1-0.9-1.6-1.2c-0.1-0.1-0.4-0.3-0.6-0.1c-0.1,0.1,0,0.5,0,0.6c0,0.3,0,0.5,0.1,0.7
					c0.2,0.6,1,1,1.5,1.3c0.7,0.4,1.6,0.7,2.2,1.2c0.4,0.3,0.8,0.5,1.2,0.8c0.2,0.1,0.5,0.3,0.7,0.5c0.1,0.1,0.2,0.4,0.1,0.6
					c-0.1,0.2-0.2,0.1-0.3,0.2c-0.2,0.1-0.3,0.2-0.5,0.2c-0.4,0.1-3,0.4-4.5,0.7c0.1,0-0.1-0.4-0.5-0.9l0.1-0.2
					c0-0.1-0.1-0.2-0.1-0.4c-0.1-0.3-0.2-0.5-0.4-0.7c-0.2-0.2-0.6-0.4-0.9-0.4c-0.2-0.1-0.5-0.1-0.7-0.1c-0.8-0.3-1.7-0.4-2.4-0.9
					c-0.9-0.6-1.3-1.8-2.2-2.5c-1.9-1.6-7.8-0.8-8.6-3.4c-0.3-1-0.6-3.1-0.5-4.2c0-0.1,0-0.2,0-0.3l2.1-3.7l-0.6-1
					c0-0.1,0.1-0.2,0.1-0.3c0.1-0.6,0.2-1.2,0.5-1.8c0.2-0.6,0.6-1.2,0.7-1.9c0.2-1.1,0.1-2.2,0.1-3.3c0-0.3,0-0.6,0-0.8
					c0.1-0.4,0.3-0.8,0.4-1.2c0.1-0.2,0-0.5,0.1-0.8l4.5,0c0,0.1,0.1,0.3,0.2,0.3c0.2,0.1,0.6-0.3,0.7-0.4c0.4-0.3,0.8-0.4,1.3-0.5
					c0.8-0.2,1.6-0.2,2.5-0.2c0.2,0,0.3,0,0.5,0.1c0.2,0.1,0.5,0.2,0.7,0.2c0.5,0,0.8-0.2,1.2-0.3c0.7-0.3,1.5-0.2,2.3-0.2
					c0.2,0,0.4,0.1,0.5-0.1c0.2-0.1,0.1-0.4,0.2-0.6c0-0.3,0.1-0.5,0.1-0.7c0-0.2-0.1-0.5,0.1-0.6c0.1-0.1,0.5-0.2,0.7-0.2
					c0.1,0,0.2,0,0.3-0.1l2,3.4l6.7,0l2-3.4c0.4,0,0.8,0,1.2,0c0.4-0.1,0.7-0.1,1.1-0.1c0.3,0,0.7,0,0.9-0.1c0-0.2-0.2-0.3-0.3-0.4
					c-0.1-0.1-0.1-0.2-0.2-0.3c0-0.1-0.1-0.1-0.2-0.1c-0.1-0.1-0.1-0.2-0.2-0.3c-0.1-0.1-0.2-0.1-0.3-0.2c-0.2-0.1-0.3-0.3-0.4-0.4
					c-0.1-0.1-0.2-0.2-0.3-0.2l0.1-0.2l-2.9-5.1c0-0.2,0-0.5,0-0.7c0-0.1-0.1-0.2-0.2-0.3c0-0.1,0-0.3,0-0.4c0-0.3,0-0.6,0-1
					c0-0.3-0.1-0.5-0.1-0.7c0-0.6,0-1.2,0.2-1.7c0.2-0.6,0.6-1.1,1-1.5c0.2-0.2,0.5-0.3,0.8-0.5c0.3-0.2,0.6-0.4,1-0.4
					c0.3,0,0.6,0,0.8,0c0.3,0,0.6,0.1,0.9,0.1c0.3,0,0.6,0.1,0.9,0.1c0.4,0,0.7,0.1,1,0.2c0.2,0.1,0.5,0.2,0.4,0.5
					c-0.1,0.1-0.2,0.3-0.3,0.4c-0.1,0.2-0.2,0.4-0.3,0.5c-0.1,0.5,0,1.1,0.4,1.4c0.2,0.1,0.3,0.2,0.5,0.4c0.2,0.1,0.3,0.3,0.5,0.4
					c0.7,0.5,1.4,1.1,2.2,1.1c0.2,0,0.5,0,0.6-0.2c0-0.1,0-0.2,0-0.3c0-0.1,0.1-0.2,0.2-0.3c0.1-0.1,0.3-0.2,0.4-0.3
					c0.2-0.2,0.4-0.3,0.6-0.5c0.3-0.3,0.5-0.6,0.8-1c0.2-0.2,0.4-0.6,0.5-0.9c0-0.2,0-0.4,0-0.5c0-0.2,0-0.4,0-0.5
					c0-0.2-0.2-0.3-0.3-0.4c0.1-0.4,0.2-0.7,0.4-1c0.6-0.6,1.9-0.8,2.9-0.7c0.1,0,0.1,0.1,0.2,0.1c0.3,0.2,0.4,0.3,0.6,0.6
					c0.1,0.2,0.3,0.5,0.5,0.7c0.2,0.2,0.3,0.2,0.3,0.6c0,0.3,0,0.6,0.1,1c0,0.2,0.1,0.4,0.2,0.6c-0.4,0.7-0.9,1.4-1.2,2
					c-0.1,0.1-0.1,0.2-0.2,0.3c-0.2,0.1-0.3,0.1-0.5,0.2c-0.2,0.1-0.5,0.1-0.7,0.2c-0.3,0.1-0.4,0.3-0.2,0.6
					c0.2,0.2,0.5,0.3,0.7,0.5c0,0,0.1,0.1,0.1,0.1c-0.7,3.3,0.6,7.2,0.6,10.6c0,0.2,0,0.3,0,0.5c0,0.4-0.1,0.7-0.1,1.1
					c-0.1,0.4-0.3,0.8-0.6,1.2c-0.5,0-1,0-1.5,0c-0.1,0-0.6,0.1-0.7,0.1c-0.1,0.1,0,0.2,0,0.3c0,0.2-0.1,0.5,0,0.7
					c0.1,0.2,0.3,0.3,0.5,0.5c0.1,0.1,0.2,0.3,0.3,0.4c-0.2,0.5-0.3,1.1,0.1,1.7c0,0,0.1,0.1,0.1,0.1c-0.1,0.2-0.2,0.4-0.2,0.6
					c-0.1,0.4-0.3,1.1,0.1,1.4c0.2,0.2,0.5,0.3,0.7,0.4c0.5,0.1,1,0,1.4,0.2c0.4,0.1,0.6,0.8,0.7,1.2c0.1,0.5,0,1.1,0.2,1.7
					c0.1,0.2,0.3,0.4,0.4,0.6c0.2,0.3,0.2,0.5,0.4,0.8c0.1,0.2,0.2,0.4,0.4,0.6c0.1,0.2,0.3,0.4,0.5,0.6c0.1,0.1,0.2,0.1,0.3,0.2
					c0.1,0.1,0.2,0.2,0.2,0.3c0.1,0.1,0.1,0.3,0.2,0.4c0.1,0.2,0.3,0.2,0.4,0.3c0.1,0.1,0.1,0.2,0.2,0.3c0.1,0.1,0.2,0.1,0.3,0.2
					c0.2,0.2,0.3,0.4,0.5,0.5c0.4,0.5,0.8,1,1.2,1.6c0.2,0.2,0.4,0.5,0.6,0.7c0.3,0.2,0.5,0.4,0.7,0.6c0.2,0.3,0.5,0.5,0.8,0.7
					c0.3,0.2,0.6,0.3,0.8,0.6c0.3,0.3,0.6,0.6,0.7,1c0.1,0.4,0,1,0.3,1.3c0.1,0.1,0.2,0.1,0.3,0.2c0.1,0.1,0.1,0.1,0.1,0.2
					c0.1,0.1,0.2,0.1,0.3,0.2c0.1,0.1,0.2,0.3,0.3,0.4c0.2,0.2,0.5,0.4,0.7,0.6c0.1,0.1,0.2,0.2,0.3,0.3c0.1,0.1,0.3,0.2,0.4,0.3
					c0.6,0.8,1.2,1.5,1.7,2.3c0.1,0.2,0.2,0.3,0.3,0.5c0.1,0.1,0.1,0.2,0.2,0.3c0.1,0.1,0.1,0.1,0.2,0.1c0.5,0.4,1,0.9,1.4,1.4
					c0.1,0.1,0.2,0.2,0.3,0.3c0.2,0.1,0.3,0.3,0.4,0.4c0.2,0.2,0.4,0.3,0.6,0.4c0.2,0.1,0.5,0.1,0.7,0.3c0.3,0.1,0.6,0.3,0.8,0.5
					c0.3,0.2,0.5,0.5,0.8,0.7c0.3,0.3,0.5,0.7,0.8,1c0.1,0.1,0.2,0.3,0.4,0.3c0.1,0,0,0.1,0.2,0c0.1,0,0.2-0.4,0.2-0.4
					c0.2-0.4,0-0.9,0.1-1.3c0-0.1,0.1-0.3,0.1-0.4c0-0.2,0-0.4,0-0.6c0.1-0.7,0.4-1.3,0.4-2c0-0.2,0-0.5,0-0.7c0-0.3,0.1-0.6,0-0.8
					c-0.1-0.6-0.8-1-1.3-1.2c-0.2-0.1-0.4-0.1-0.5-0.2c-0.2-0.1-0.2-0.3-0.3-0.5c-0.1-0.2-0.1-0.3-0.4-0.3c-0.2,0-0.5-0.1-0.7-0.1
					c-0.5-0.1-1.2-0.3-1.3-0.9c0-0.3-0.1-0.6,0.2-0.7c0.5-0.1,1.1-0.2,1.5-0.1c0.2,0,0.4,0.1,0.6,0.1c0.2,0,0.4,0,0.6,0
					c0.4,0,0.5-0.2,0.6-0.5c0.1-0.3,0.3-0.1,0.5-0.3c0.3-0.2,0.2-0.6,0-0.8c-0.5-0.5-0.8-1.3-1.2-1.8c-0.2-0.3-0.4-0.5-0.7-0.7
					c-0.5-0.4-1-0.8-1.5-1.1c-0.2-0.1-0.3-0.2-0.5-0.2c-0.2-0.1-0.2-0.2-0.2-0.5c0-0.1,0-0.4,0-0.5c0.1-0.2,0.4-0.4,0.6-0.5
					c0.3-0.2,0.6-0.2,0.9-0.3c0.4-0.1,0.9-0.1,1.3-0.3c0.6-0.2,1.4,0.1,2-0.1c0.1-0.2,0.1-0.4,0-0.6c1.2-1-0.1-1.5-1.1-1.8
					c-0.1-0.1-0.2-0.2-0.3-0.3c-0.3-0.3-0.5-0.8-0.8-1c-0.2-0.1-0.4-0.2-0.5-0.3c-0.3-0.2-0.5-0.4-0.8-0.6c-0.3-0.2-0.5-0.6-0.8-0.8
					c-0.2-1.2,1-1.9,0.8-3c0-0.1-0.1-0.3-0.2-0.4c0.4-0.1,0.2-0.2,0-0.5c-0.1-0.3-0.2-0.6-0.3-0.9c-0.1-0.2-0.3-0.4-0.5-0.5
					c-0.4-0.1-0.8,0-1.2-0.2c-0.4-0.2-0.7-0.5-1-0.7c-0.2-0.1-0.5-0.3-0.7-0.4c-0.3-0.3-0.3-0.6-0.3-1c0-0.2,0-0.5,0-0.7
					c0.1-0.3,0.2-0.6,0.1-0.9c-0.1-0.3-0.2-0.7-0.4-0.9c-0.2-0.2-0.4-0.2-0.6-0.2c-0.3,0-0.5,0.2-0.7,0.3c-0.2,0.1-0.4,0-0.6-0.1
					c-0.2-0.1-0.4-0.2-0.5-0.3c-0.3-0.2-0.5-0.4-0.8-0.6c-0.2-0.2-0.5-0.3-0.7-0.6c-0.5-0.6-1-1.3-1.3-2.2c-0.7-2.6-0.8-5.3,1.5-7.1
					c0.2-0.2,0.5-0.3,0.7-0.4c0.1,0,0.1,0.1,0.2,0.1c0.3,0.1,0.6,0,0.8-0.1c0.2-0.1,0.7-0.2,0.8-0.4c0.1-0.2,0-0.4,0-0.6
					c0.1-0.1,0.3-0.3,0.4-0.5c0.4-0.7,0.3-1.5,0.3-2.2c0.1-0.1,0.2-0.2,0.3-0.3c0.1-0.1,0.1-0.2,0.2-0.3c0.1-0.2,0.1-0.2,0.2-0.4
					c0,0,0,0,0-0.1c0.2,0,0.3,0,0.5,0c0.3,0,0.6,0,0.9,0c0.2,0,0.4,0.2,0.6,0.3c0.5,0.3,0.9,0.6,1.3,0.9c0.3,0.2,0.4,0.2,0.7,0.2
					c0.3,0,0.7,0,1,0c0,0,0.1,0,0.1,0c1.1,0.8,1.6-1.4,1.4-2.1c-0.1-0.1-0.1-0.2-0.2-0.3c0-0.1,0-0.2,0-0.2
					c-0.1-0.2-0.1-0.2-0.1-0.4c0-0.1,0-0.2,0-0.3c0-0.1,0-0.1,0.1-0.2c0-0.1,0.1-0.2,0.1-0.3c0,0,0.1-0.2,0.1-0.2
					c0.1-0.1,0.2-0.1,0.3-0.1c0.1-0.1,0.1-0.2,0.2-0.3c0.2-0.1,0.3-0.2,0.5-0.4c0.2-0.3,0.1-0.5,0-0.8c0-0.1,0.1-0.2,0.1-0.3
					c0-0.2,0-0.3,0-0.5c0-0.1,0-0.3,0-0.4c0-0.3,0.2-0.5,0.3-0.8c0.1-0.1,0.1-0.2,0.1-0.3l1.2-2.1c0.4-0.3,0.8-0.8,1-1.2
					c0.1-0.1,0.1-0.3,0.2-0.5c0.1-0.3,0.1-0.5,0.2-0.8c0,0,0,0,0-0.1l0.3-0.5l-0.1-0.2c0,0,0-0.1,0-0.1c0.1-0.2,0.2-0.5,0.2-0.7
					c0-0.2,0-0.4,0-0.6c0.2-0.1,0.4-0.1,0.6-0.2c0.3-0.1,0.6-0.2,0.9-0.2c0.4,0,0.8,0,1.1,0c0.3,0.1,0.6,0.2,0.9,0.3
					c0.4,0.1,0.6,0.4,0.9,0.6c0.3,0.2,0.7,0.6,1.1,0.7c0.1,0,0.6,0.1,0.7,0c0.1-0.1,0-0.5,0-0.6c0.1-0.3,0.1-0.5,0.1-0.8
					c0-0.1-0.1-0.2-0.1-0.3c0-0.1,0-0.3,0-0.4c-0.1-0.2-0.2-0.5-0.3-0.7c-0.1-0.2-0.3-0.4-0.4-0.5c-0.2-0.2-0.4-0.4-0.6-0.7
					c-0.2-0.3-0.3-0.6-0.5-0.9c-0.1-0.2-0.3-0.3-0.5-0.4c-0.4-0.3-0.9-0.4-1.3-0.7c-0.3-0.2-0.7-0.4-1-0.5c-0.3-0.1-0.5-0.2-0.8-0.3
					c-0.3-0.1-0.5-0.2-0.8-0.3c-0.1,0-0.3-0.1-0.4-0.1c-0.1-0.3-0.4-0.5-0.9-0.8c-1.2-0.8-2.6-1.1-3.9-1.7c-1.3-0.5-2.4-0.5-3.7-0.9
					c0-0.3,0-0.5,0-0.7c0.2,0,0.5-0.1,0.7-0.2c0.2-0.1,0.3-0.3,0.4-0.4c0.5-0.4,0.9-0.8,1.3-1.2c0.1-0.1,0.1-0.1,0.2-0.2
					c0.2-0.1,0.4-0.1,0.5-0.2c2.4-0.8,4.4-1.6,7-1.5c0.8,0,1.5,0.2,2.2,0.3c0.2,0.1,0.4,0.1,0.5,0.2c0.2,0.1,0.5,0.1,0.7,0.2
					c0.2,0,0.4,0,0.6,0c0.3,0.1,0.5,0.2,0.7,0.4c0.3,0.1,0.7,0.3,0.9,0.3c0.7,0.1,1.5,0,2.2-0.2c0.3-0.1,0.6-0.1,0.8-0.1
					c0.2,0.1,0.4,0.3,0.6,0.4c0.5,0.2,1.3,0.1,1.8,0c0.5-0.1,1-0.4,1.6-0.5c0.5-0.1,1-0.2,1.5-0.4c0.4-0.2,0.9-0.3,1.2-0.6
					C458.1,64.6,457.9,64.5,457.8,64.4z M238.4,36.8c-0.1,0-0.2,0-0.3,0c-0.2,0-0.4-0.1-0.6-0.1c-0.1-0.1-0.2-0.1-0.3-0.2
					c-0.2-0.1-0.4-0.1-0.4-0.4c0-0.2,0-0.3,0.1-0.4c0.6,0.5,1.2,0.8,1.8,1C238.6,36.8,238.5,36.8,238.4,36.8z"/>
			</defs>
			<clipPath id="XMLID_2_">
				<use xlink:href="#XMLID_245_"  overflow="visible"/>
			</clipPath>
			
				<path clip-path="url(#XMLID_2_)" fill="none" stroke="#898989" stroke-linecap="round" stroke-linejoin="round" stroke-miterlimit="10" d="
				M214.4,64.8h35.5h7.6c4,0,7.2-3.2,7.2-7.2v-49h94.8l-33,31.1L326.3,62c0,4.3,3.4,7.7,7.7,7.7h0c4.2,0,7.7,3.4,7.7,7.7v32
				c0,4,3.2,7.2,7.2,7.2H381V84.5c0-4,3.2-7.2,7.2-7.2h26.7c3.9,0,7-3.2,6.9-7l0-4c0-3.9,3.1-7,6.9-7h51.5l-24.8,100.9l-36-5.5
				l-21.7-31.6l-17.6,1.1h-13c-4,0-7.2,3.2-7.2,7.2v49h-31.8v-29.7c0-3.1-2.5-5.6-5.6-5.6l0,0c-3.1,0-5.6-2.6-5.6-5.6V40.6
				l-15.8,4.8v25.1c0,4-3.2,7.2-7.2,7.2h-9.9c-4,0-7.2-3.2-7.2-7.2V36.9"/>
			
				<line clip-path="url(#XMLID_2_)" fill="none" stroke="#898989" stroke-linecap="round" stroke-linejoin="round" stroke-miterlimit="10" x1="317.5" y1="82.5" x2="357.5" y2="82.5"/>
			
				<line clip-path="url(#XMLID_2_)" fill="none" stroke="#898989" stroke-linecap="round" stroke-linejoin="round" stroke-miterlimit="10" x1="317" y1="132.7" x2="275.7" y2="132.7"/>
			
				<line clip-path="url(#XMLID_2_)" fill="none" stroke="#898989" stroke-linecap="round" stroke-linejoin="round" stroke-miterlimit="10" x1="306.2" y1="99.1" x2="317.2" y2="99.1"/>
			
				<path clip-path="url(#XMLID_2_)" fill="none" stroke="#898989" stroke-linecap="round" stroke-linejoin="round" stroke-miterlimit="10" d="
				M360.1,147.8h35.6l1.8,4.4l12.8,25H256.6v-18c0-2.2-1.8-4-4-4h-19.9c-2.2,0-4,1.8-4,4v47.7"/>
			
				<line clip-path="url(#XMLID_2_)" fill="none" stroke="#898989" stroke-linecap="round" stroke-linejoin="round" stroke-miterlimit="10" x1="213.3" y1="184.2" x2="228.6" y2="184.2"/>
			
				<line clip-path="url(#XMLID_2_)" fill="none" stroke="#898989" stroke-linecap="round" stroke-linejoin="round" stroke-miterlimit="10" x1="291.3" y1="90.9" x2="291.3" y2="77.7"/>
			
				<line clip-path="url(#XMLID_2_)" fill="none" stroke="#898989" stroke-linecap="round" stroke-linejoin="round" stroke-miterlimit="10" x1="238.2" y1="92.5" x2="238.2" y2="65.1"/>
			
				<path clip-path="url(#XMLID_2_)" fill="none" stroke="#898989" stroke-linecap="round" stroke-linejoin="round" stroke-miterlimit="10" d="
				M180.4,210c0.4,0,0.2-33.5,0.1-47.9c0-3.5-2.9-6.4-6.4-6.4h-17.2"/>
			
				<path clip-path="url(#XMLID_2_)" fill="none" stroke="#898989" stroke-linecap="round" stroke-linejoin="round" stroke-miterlimit="10" d="
				M134.4,172.5v-19.3c0-3-2.4-5.4-5.4-5.4H72.9"/>
			
				<line clip-path="url(#XMLID_2_)" fill="none" stroke="#898989" stroke-linecap="round" stroke-linejoin="round" stroke-miterlimit="10" x1="401.7" y1="77.1" x2="401.7" y2="32.9"/>
			
				<circle clip-path="url(#XMLID_2_)" fill="#041944" stroke="#898989" stroke-linecap="round" stroke-linejoin="round" stroke-miterlimit="10" cx="371.4" cy="147.3" r="2.3"/>
			
				<line clip-path="url(#XMLID_2_)" fill="none" stroke="#898989" stroke-linecap="round" stroke-linejoin="round" stroke-miterlimit="10" x1="249.9" y1="64.4" x2="249.9" y2="19.5"/>
			
				<line clip-path="url(#XMLID_2_)" fill="none" stroke="#898989" stroke-linecap="round" stroke-linejoin="round" stroke-miterlimit="10" x1="88.3" y1="148.3" x2="88.3" y2="169.8"/>
			
				<path clip-path="url(#XMLID_2_)" fill="none" stroke="#898989" stroke-linecap="round" stroke-linejoin="round" stroke-miterlimit="10" d="
				M180.8,184h13.3c2.5,0,4.5,2,4.5,4.5v29.1"/>
			
				<path clip-path="url(#XMLID_2_)" fill="none" stroke="#898989" stroke-linecap="round" stroke-linejoin="round" stroke-miterlimit="10" d="
				M125.8,202.7v-13.3c0-3.8-3.1-6.9-6.9-6.9h-10"/>
			
				<line clip-path="url(#XMLID_2_)" fill="none" stroke="#898989" stroke-linecap="round" stroke-linejoin="round" stroke-miterlimit="10" x1="120.3" y1="147.9" x2="120.3" y2="124.1"/>
			
				<line clip-path="url(#XMLID_2_)" fill="none" stroke="#898989" stroke-linecap="round" stroke-linejoin="round" stroke-miterlimit="10" x1="92.2" y1="111.4" x2="127.1" y2="111.4"/>
			
				<path clip-path="url(#XMLID_2_)" fill="none" stroke="#898989" stroke-linecap="round" stroke-linejoin="round" stroke-miterlimit="10" d="
				M413.3,77.7v27.8h23.7v10.9H430c-3.2,0-5.8,2.6-5.8,5.8v19.7"/>
			
				<line clip-path="url(#XMLID_2_)" fill="none" stroke="#898989" stroke-linecap="round" stroke-linejoin="round" stroke-miterlimit="10" x1="422.5" y1="82.8" x2="452.1" y2="82.8"/>
			
				<path clip-path="url(#XMLID_2_)" fill="none" stroke="#898989" stroke-linecap="round" stroke-linejoin="round" stroke-miterlimit="10" d="
				M401.4,63.8h-36.5c-3.2,0-5.8-2.6-5.8-5.8V39.2"/>
			
				<line clip-path="url(#XMLID_2_)" fill="none" stroke="#898989" stroke-linecap="round" stroke-linejoin="round" stroke-miterlimit="10" x1="317.3" y1="109.1" x2="341.6" y2="109.1"/>
			
				<line clip-path="url(#XMLID_2_)" fill="none" stroke="#898989" stroke-linecap="round" stroke-linejoin="round" stroke-miterlimit="10" x1="265.4" y1="102.1" x2="265.4" y2="80.5"/>
			
				<line clip-path="url(#XMLID_2_)" fill="none" stroke="#898989" stroke-linecap="round" stroke-linejoin="round" stroke-miterlimit="10" x1="294.4" y1="132.9" x2="294.4" y2="106.1"/>
			
				<path clip-path="url(#XMLID_2_)" fill="none" stroke="#898989" stroke-linecap="round" stroke-linejoin="round" stroke-miterlimit="10" d="
				M208.7,147.8h77.7c4.3,0,7.8,3.5,7.8,7.8v17.7"/>
			
				<line clip-path="url(#XMLID_2_)" fill="none" stroke="#898989" stroke-linecap="round" stroke-linejoin="round" stroke-miterlimit="10" x1="239.5" y1="136.6" x2="239.5" y2="147.4"/>
			
				<line clip-path="url(#XMLID_2_)" fill="none" stroke="#898989" stroke-linecap="round" stroke-linejoin="round" stroke-miterlimit="10" x1="387" y1="176.7" x2="387" y2="147.9"/>
			
				<path clip-path="url(#XMLID_2_)" fill="none" stroke="#898989" stroke-linecap="round" stroke-linejoin="round" stroke-miterlimit="10" d="
				M360.1,133.2h-18.6c-5.4,0-9.8-4.4-9.8-9.8v-14"/>
			
				<path clip-path="url(#XMLID_2_)" fill="none" stroke="#898989" stroke-linecap="round" stroke-linejoin="round" stroke-miterlimit="10" d="
				M326.4,61.3h12c2.9,0,5.3-2.4,5.3-5.3V37.1"/>
			
				<line clip-path="url(#XMLID_2_)" fill="none" stroke="#898989" stroke-linecap="round" stroke-linejoin="round" stroke-miterlimit="10" x1="264.6" y1="56.3" x2="277.2" y2="56.3"/>
			
				<line clip-path="url(#XMLID_2_)" fill="none" stroke="#898989" stroke-linecap="round" stroke-linejoin="round" stroke-miterlimit="10" x1="291.3" y1="85" x2="268.7" y2="85"/>
			
				<line clip-path="url(#XMLID_2_)" fill="none" stroke="#898989" stroke-linecap="round" stroke-linejoin="round" stroke-miterlimit="10" x1="302.9" y1="63.7" x2="317.1" y2="63.7"/>
			
				<path clip-path="url(#XMLID_2_)" fill="none" stroke="#898989" stroke-linecap="round" stroke-linejoin="round" stroke-miterlimit="10" d="
				M103,111.3v10.5c0,4.9-3.9,8.8-8.8,8.8H79.3"/>
			
				<polyline clip-path="url(#XMLID_2_)" fill="none" stroke="#898989" stroke-linecap="round" stroke-linejoin="round" stroke-miterlimit="10" points="
				134.6,163.4 143.9,163.4 143.9,156 157,156 			"/>
			
				<path clip-path="url(#XMLID_2_)" fill="none" stroke="#898989" stroke-linecap="round" stroke-linejoin="round" stroke-miterlimit="10" d="
				M328.2,154.4h-14.4c-2.6,0-4.7,2.1-4.7,4.7v10.2"/>
			
				<line clip-path="url(#XMLID_2_)" fill="none" stroke="#898989" stroke-linecap="round" stroke-linejoin="round" stroke-miterlimit="10" x1="381.2" y1="99.3" x2="341.9" y2="99.3"/>
			
				<line clip-path="url(#XMLID_2_)" fill="none" stroke="#898989" stroke-linecap="round" stroke-linejoin="round" stroke-miterlimit="10" x1="358.1" y1="99.1" x2="358.1" y2="81.5"/>
			
				<line clip-path="url(#XMLID_2_)" fill="none" stroke="#898989" stroke-linecap="round" stroke-linejoin="round" stroke-miterlimit="10" x1="365.4" y1="116.8" x2="365.4" y2="99.3"/>
			
				<path clip-path="url(#XMLID_2_)" fill="none" stroke="#898989" stroke-linecap="round" stroke-linejoin="round" stroke-miterlimit="10" d="
				M359.9,141h-10.5c0.2-0.6,0-7.2,0-7.2"/>
			
				<line clip-path="url(#XMLID_2_)" fill="none" stroke="#898989" stroke-linecap="round" stroke-linejoin="round" stroke-miterlimit="10" x1="380.8" y1="94" x2="403.4" y2="94"/>
			
				<polyline clip-path="url(#XMLID_2_)" fill="none" stroke="#898989" stroke-linecap="round" stroke-linejoin="round" stroke-miterlimit="10" points="
				405,63.4 413.1,63.4 413.1,31.1 			"/>
			
				<line clip-path="url(#XMLID_2_)" fill="none" stroke="#898989" stroke-linecap="round" stroke-linejoin="round" stroke-miterlimit="10" x1="413.1" y1="52.4" x2="472.8" y2="52.4"/>
			
				<line clip-path="url(#XMLID_2_)" fill="none" stroke="#898989" stroke-linecap="round" stroke-linejoin="round" stroke-miterlimit="10" x1="224.3" y1="64.8" x2="224.3" y2="38.4"/>
			
				<use xlink:href="#XMLID_245_"  overflow="visible" fill="none" stroke="#898989" stroke-linecap="round" stroke-linejoin="round" stroke-miterlimit="10"/>
		</g>
		<path fill="none" stroke="#898989" stroke-linecap="round" stroke-linejoin="round" stroke-miterlimit="10" d="M139.2,216.5
			c0,0-3.4-1.5-3.3-2.2c0.1-0.8,1.2-1.1,1.2-1.9c-0.1-0.9-2.4-0.9-2.4-1.7s1.2-1.9,1.2-1.9s-1.6-1.9-3.6-2.1c0,0,0-0.1,0-0.3
			c-0.1,0-0.1,0-0.2,0c0,0.2-0.1,0.3-0.1,0.3c-2,0.2-3.6,1.1-3.6,1.1l-1.9,0.2l1,1.7c0,0-0.4,1.9-0.4,2.8c-0.1,1,1.2,1.7,2.7,2.6
			c1.5,0.9,6.1,3.5,6.1,3.5s1.3,0.1,1.3,0.8c0,0.7,1.7,0.3,1.9,0C139.4,219,139.2,216.5,139.2,216.5z"/>
		<path fill="none" stroke="#898989" stroke-linecap="round" stroke-linejoin="round" stroke-miterlimit="10" d="M65.2,147.3
			c-0.8-2.8-2.2-4.2-5-5c-1.2,4.2,0.4,5.6,4.8,5.2"/>
	</g>
	<path fill="none" stroke="#B5935B" stroke-linecap="round" stroke-linejoin="round" stroke-miterlimit="10" d="M41.5,138.4h58.9
		c4,0,7.2-3.2,7.2-7.2v0c0-4,3.2-7.2,7.2-7.2H175"/>
	<path fill="none" stroke="#B5935B" stroke-linecap="round" stroke-linejoin="round" stroke-miterlimit="10" d="M57.8,56.8h23.4
		c2.6,0,4.8,2.1,4.8,4.8v0c0,2.6,2.1,4.8,4.8,4.8h38.6"/>
	
		<line fill="none" stroke="#B5935B" stroke-linecap="round" stroke-linejoin="round" stroke-miterlimit="10" x1="53.1" y1="107.9" x2="36.1" y2="107.9"/>
	<g>
		<path fill="#898989" d="M230.9,136.4h-7.5V123h7.5v1.4h-5.9v4.3h5.6v1.4h-5.6v5h5.9V136.4z"/>
		<path fill="#898989" d="M245.5,129.7c0,2.2-0.5,3.8-1.6,5.1c-1.1,1.2-2.6,1.8-4.5,1.8c-2,0-3.5-0.6-4.6-1.8
			c-1.1-1.2-1.6-2.9-1.6-5.1c0-2.2,0.5-3.9,1.6-5.1c1.1-1.2,2.6-1.8,4.6-1.8c1.9,0,3.4,0.6,4.5,1.8
			C245,125.8,245.5,127.5,245.5,129.7z M234.8,129.7c0,1.8,0.4,3.2,1.2,4.1c0.8,0.9,1.9,1.4,3.4,1.4c1.5,0,2.6-0.5,3.4-1.4
			c0.8-0.9,1.1-2.3,1.1-4.2c0-1.8-0.4-3.2-1.1-4.1c-0.8-0.9-1.9-1.4-3.4-1.4c-1.5,0-2.6,0.5-3.4,1.4
			C235.2,126.5,234.8,127.9,234.8,129.7z"/>
		<path fill="#898989" d="M254.5,136.4l-4.6-11.9h-0.1c0.1,0.9,0.1,2.1,0.1,3.4v8.6h-1.4V123h2.4l4.3,11.1h0.1l4.3-11.1h2.3v13.5
			h-1.6v-8.7c0-1,0-2.1,0.1-3.2h-0.1l-4.6,11.9H254.5z"/>
		<path fill="#898989" d="M265.6,123h1.5v7.5c0,1.4,0,2.6-0.1,3.7h0.1l7.5-11.2h1.7v13.5h-1.5V129c0-1.2,0.1-2.5,0.2-3.9h-0.1
			l-7.6,11.3h-1.7V123z"/>
	</g>
	<g>
		<polygon fill="#041944" stroke="#B5935B" stroke-linecap="round" stroke-linejoin="round" stroke-miterlimit="10" points="
			14.3,150.3 21.9,153 28.4,138.6 36.8,141.3 32,128.1 20.3,130.4 		"/>
		<polygon fill="#041944" stroke="#B5935B" stroke-linecap="round" stroke-linejoin="round" stroke-miterlimit="10" points="
			21.9,153 44.2,138 32,128.1 		"/>
	</g>
	
		<line fill="none" stroke="#898989" stroke-linecap="round" stroke-linejoin="round" stroke-miterlimit="10" x1="235.6" y1="102.2" x2="288.7" y2="102.2"/>
	<g>
		<g>
			<line fill="none" stroke="#B5935B" stroke-linecap="round" stroke-linejoin="round" x1="317" y1="236.2" x2="319" y2="236.2"/>
			
				<line fill="none" stroke="#B5935B" stroke-linecap="round" stroke-linejoin="round" stroke-dasharray="4.0258,4.0258" x1="323.1" y1="236.2" x2="409.6" y2="236.2"/>
			
				<line fill="none" stroke="#B5935B" stroke-linecap="round" stroke-linejoin="round" x1="411.6" y1="236.2" x2="413.6" y2="236.2"/>
		</g>
	</g>
	
		<line fill="none" stroke="#B5935B" stroke-linecap="round" stroke-linejoin="round" stroke-miterlimit="10" x1="272.6" y1="236.2" x2="310.9" y2="236.2"/>
	<path fill="none" stroke="#B5935B" stroke-linecap="round" stroke-linejoin="round" stroke-miterlimit="10" d="M189.4,125.2v29.3
		c0,4.5,3.7,8.2,8.2,8.2h5.3c4.5,0,8.2,3.7,8.2,8.2v65.4h54.6"/>
	
		<line fill="none" stroke="#B5935B" stroke-linecap="round" stroke-linejoin="round" stroke-miterlimit="10" x1="124" y1="99.3" x2="68" y2="99.3"/>
	<g>
		<path fill="#041944" stroke="#B5935B" stroke-linecap="round" stroke-linejoin="round" stroke-miterlimit="10" d="M62.9,91.9
			c0,0-0.7,24.8-1,24.6c-0.3-0.2-10.5-8.5-10.5-8.5L62.9,91.9z"/>
		<polygon fill="#041944" stroke="#B5935B" stroke-linecap="round" stroke-linejoin="round" stroke-miterlimit="10" points="
			66.5,90.3 62.9,91.9 61.9,116.5 74.1,109.4 		"/>
	</g>
	<g>
		<g>
			<defs>
				<polygon id="XMLID_244_" points="46.5,68 40.2,64 35.2,52.8 51,51.7 58.6,56.8 				"/>
			</defs>
			<use xlink:href="#XMLID_244_"  overflow="visible" fill="#041944"/>
			<clipPath id="XMLID_3_">
				<use xlink:href="#XMLID_244_"  overflow="visible"/>
			</clipPath>
			
				<line clip-path="url(#XMLID_3_)" fill="#041944" stroke="#B5935B" stroke-linecap="round" stroke-linejoin="round" stroke-miterlimit="10" x1="42" y1="56.7" x2="35.3" y2="53.3"/>
			
				<use xlink:href="#XMLID_244_"  overflow="visible" fill="none" stroke="#B5935B" stroke-linecap="round" stroke-linejoin="round" stroke-miterlimit="10"/>
		</g>
		<polygon fill="#041944" stroke="#B5935B" stroke-linecap="round" stroke-linejoin="round" stroke-miterlimit="10" points="
			46.5,68 58.6,56.8 42,56.6 		"/>
	</g>
	<path fill="none" stroke="#B5935B" stroke-linecap="round" stroke-linejoin="round" stroke-miterlimit="10" d="M155.9,121.9v42.7
		c0,4.4-3.6,8-8,8H92.3c-4.4,0-8,3.6-8,8v0c0,4.4-3.6,8-8,8H48.5"/>
	<g>
		<g>
			<defs>
				<polyline id="XMLID_243_" points="182.5,121.6 142.5,120.4 129.5,120.4 108.1,94.4 129.2,93.6 132.2,55.6 143.1,55.6 
					190.3,54.7 				"/>
			</defs>
			<defs>
				<polyline id="XMLID_242_" points="177.7,85.2 153.7,89.8 157,65.6 210.2,52.3 206.3,57.3 213.9,57.3 216.8,78.7 229.6,78.7 
					223.6,115.3 209.8,115.3 205.3,125.6 190.8,125.7 187,124.3 178.2,100.2 				"/>
			</defs>
			<use xlink:href="#XMLID_243_"  overflow="visible" fill="#B5935B"/>
			<use xlink:href="#XMLID_242_"  overflow="visible" fill="#898989"/>
			<clipPath id="XMLID_4_">
				<use xlink:href="#XMLID_243_"  overflow="visible"/>
			</clipPath>
			<clipPath id="XMLID_5_" clip-path="url(#XMLID_4_)">
				<use xlink:href="#XMLID_242_"  overflow="visible"/>
			</clipPath>
			
				<path clip-path="url(#XMLID_5_)" fill="#B5935B" stroke="#B5935B" stroke-linecap="round" stroke-linejoin="round" stroke-miterlimit="10" d="
				M156.8,43.3l-3.4,46.5l17.3-0.2l2.2,35.8c0,0-58.2,13.3-58.2,11.1c0-2.2-27.7-43.2-27.7-43.2l32.7-56.5L156.8,43.3z"/>
			
				<use xlink:href="#XMLID_243_"  overflow="visible" fill="none" stroke="#B5935B" stroke-linecap="round" stroke-linejoin="round" stroke-miterlimit="10"/>
			
				<use xlink:href="#XMLID_242_"  overflow="visible" fill="none" stroke="#898989" stroke-linecap="round" stroke-linejoin="round" stroke-miterlimit="10"/>
		</g>
		<polygon fill="#041944" stroke="#898989" stroke-linecap="round" stroke-linejoin="round" stroke-miterlimit="10" points="
			170.8,0.5 136.6,47.4 153.3,89.9 167.9,70.3 		"/>
		<polygon fill="#041944" stroke="#B5935B" stroke-linecap="round" stroke-linejoin="round" stroke-miterlimit="10" points="
			132.2,55.6 104.3,99.8 129.5,120.4 147.1,96.4 		"/>
		<path fill="#041944" stroke="#B5935B" stroke-linecap="round" stroke-linejoin="round" stroke-miterlimit="10" d="M167.9,78.1
			c0,0-2,70.8-2.8,70.2C164.2,147.8,135,124,135,124L167.9,78.1z"/>
		<polygon fill="#041944" stroke="#898989" stroke-linecap="round" stroke-linejoin="round" stroke-miterlimit="10" points="
			170.8,0.5 167.9,70.3 210.2,52.4 		"/>
		<polygon fill="#041944" stroke="#898989" stroke-linecap="round" stroke-linejoin="round" stroke-miterlimit="10" points="
			213.9,57.3 183.5,71.2 205.3,125.7 217.5,118.6 225.7,73.5 		"/>
		<polygon fill="#041944" stroke="#B5935B" stroke-linecap="round" stroke-linejoin="round" stroke-miterlimit="10" points="
			178.2,73.6 167.9,78.1 165,148.2 199.9,128.1 		"/>
		<polygon fill="#041944" stroke="#898989" stroke-linecap="round" stroke-linejoin="round" stroke-miterlimit="10" points="
			229.6,78.7 223.6,115.3 247.3,102.2 		"/>
	</g>
	<g>
		<g>
			<defs>
				<polygon id="XMLID_241_" points="291.4,90.9 296,90.5 306.5,99.3 294.4,111 				"/>
			</defs>
			<use xlink:href="#XMLID_241_"  overflow="visible" fill="#041944"/>
			<clipPath id="XMLID_6_">
				<use xlink:href="#XMLID_241_"  overflow="visible"/>
			</clipPath>
			
				<line clip-path="url(#XMLID_6_)" fill="none" stroke="#898989" stroke-linecap="round" stroke-linejoin="round" stroke-miterlimit="10" x1="297.6" y1="99.5" x2="309.4" y2="99.5"/>
			
				<use xlink:href="#XMLID_241_"  overflow="visible" fill="none" stroke="#898989" stroke-linecap="round" stroke-linejoin="round" stroke-miterlimit="10"/>
		</g>
		<polygon fill="#041944" stroke="#898989" stroke-linecap="round" stroke-linejoin="round" stroke-miterlimit="10" points="
			291.4,90.9 291.1,91.4 284.3,101.9 294.4,111 297.8,99.6 		"/>
	</g>
	<g>
		<polygon fill="#041944" stroke="#B5935B" stroke-linecap="round" stroke-linejoin="round" stroke-miterlimit="10" points="
			52.4,171 38.7,180.4 47.3,194.7 54.7,183.6 		"/>
		<polygon fill="#041944" stroke="#B5935B" stroke-linecap="round" stroke-linejoin="round" stroke-miterlimit="10" points="
			54.7,183.6 65.1,179 66.9,188.4 47.3,194.7 		"/>
		<polygon fill="#041944" stroke="#B5935B" stroke-linecap="round" stroke-linejoin="round" stroke-miterlimit="10" points="
			65.1,179 52.4,171 54.7,183.6 		"/>
	</g>
	
		<circle fill="#041944" stroke="#B5935B" stroke-linecap="round" stroke-linejoin="round" stroke-miterlimit="10" cx="36.8" cy="107.5" r="2.2"/>
	
		<circle fill="#041944" stroke="#B5935B" stroke-linecap="round" stroke-linejoin="round" stroke-miterlimit="10" cx="52.9" cy="138.6" r="2.2"/>
	
		<circle fill="#041944" stroke="#898989" stroke-linecap="round" stroke-linejoin="round" stroke-miterlimit="10" cx="294.3" cy="132.9" r="2.2"/>
	
		<circle fill="#041944" stroke="#898989" stroke-linecap="round" stroke-linejoin="round" stroke-miterlimit="10" cx="265.3" cy="80.2" r="2.2"/>
	
		<circle fill="#041944" stroke="#898989" stroke-linecap="round" stroke-linejoin="round" stroke-miterlimit="10" cx="238.3" cy="64.9" r="2.2"/>
	
		<circle fill="#041944" stroke="#B5935B" stroke-linecap="round" stroke-linejoin="round" stroke-miterlimit="10" cx="109.5" cy="126.2" r="2.2"/>
	
		<circle fill="#041944" stroke="#B5935B" stroke-linecap="round" stroke-linejoin="round" stroke-miterlimit="10" cx="82.1" cy="186.3" r="2.2"/>
	
		<circle fill="#041944" stroke="#B5935B" stroke-linecap="round" stroke-linejoin="round" stroke-miterlimit="10" cx="134.4" cy="172.5" r="2.2"/>
	
		<circle fill="#041944" stroke="#B5935B" stroke-linecap="round" stroke-linejoin="round" stroke-miterlimit="10" cx="155.8" cy="156.7" r="2.2"/>
	
		<circle fill="#041944" stroke="#B5935B" stroke-linecap="round" stroke-linejoin="round" stroke-miterlimit="10" cx="189.2" cy="145.3" r="2.2"/>
	
		<circle fill="#041944" stroke="#B5935B" stroke-linecap="round" stroke-linejoin="round" stroke-miterlimit="10" cx="210.9" cy="184.1" r="2.2"/>
	
		<circle fill="#041944" stroke="#B5935B" stroke-linecap="round" stroke-linejoin="round" stroke-miterlimit="10" cx="286.6" cy="236.6" r="2.2"/>
	
		<circle fill="#041944" stroke="#B5935B" stroke-linecap="round" stroke-linejoin="round" stroke-miterlimit="10" cx="299.9" cy="236.6" r="2.2"/>
	
		<circle fill="#041944" stroke="#B5935B" stroke-linecap="round" stroke-linejoin="round" stroke-miterlimit="10" cx="70" cy="57.1" r="2.2"/>
	
		<circle fill="#041944" stroke="#B5935B" stroke-linecap="round" stroke-linejoin="round" stroke-miterlimit="10" cx="110.2" cy="66.7" r="2.2"/>
	
		<circle fill="#041944" stroke="#898989" stroke-linecap="round" stroke-linejoin="round" stroke-miterlimit="10" cx="316.9" cy="99.3" r="1.9"/>
	
		<circle fill="#041944" stroke="#898989" stroke-linecap="round" stroke-linejoin="round" stroke-miterlimit="10" cx="331.5" cy="117.4" r="1.9"/>
	
		<circle fill="#041944" stroke="#898989" stroke-linecap="round" stroke-linejoin="round" stroke-miterlimit="10" cx="328.2" cy="82.4" r="1.9"/>
	
		<circle fill="#041944" stroke="#898989" stroke-linecap="round" stroke-linejoin="round" stroke-miterlimit="10" cx="365.5" cy="99.5" r="1.9"/>
	
		<circle fill="#041944" stroke="#898989" stroke-linecap="round" stroke-linejoin="round" stroke-miterlimit="10" cx="276.8" cy="56.2" r="1.9"/>
	
		<circle fill="#041944" stroke="#898989" stroke-linecap="round" stroke-linejoin="round" stroke-miterlimit="10" cx="375" cy="64.3" r="1.9"/>
	
		<circle fill="#041944" stroke="#898989" stroke-linecap="round" stroke-linejoin="round" stroke-miterlimit="10" cx="357.5" cy="82.5" r="1.9"/>
	
		<circle fill="#041944" stroke="#898989" stroke-linecap="round" stroke-linejoin="round" stroke-miterlimit="10" cx="422.6" cy="83.1" r="1.9"/>
	
		<circle fill="#041944" stroke="#898989" stroke-linecap="round" stroke-linejoin="round" stroke-miterlimit="10" cx="380.8" cy="93.7" r="1.9"/>
	
		<circle fill="#041944" stroke="#898989" stroke-linecap="round" stroke-linejoin="round" stroke-miterlimit="10" cx="278.9" cy="75.6" r="1.9"/>
	
		<circle fill="#041944" stroke="#898989" stroke-linecap="round" stroke-linejoin="round" stroke-miterlimit="10" cx="249.8" cy="55.7" r="1.9"/>
	
		<circle fill="#041944" stroke="#898989" stroke-linecap="round" stroke-linejoin="round" stroke-miterlimit="10" cx="413.3" cy="77.3" r="1.9"/>
	
		<circle fill="#041944" stroke="#898989" stroke-linecap="round" stroke-linejoin="round" stroke-miterlimit="10" cx="301" cy="63.8" r="1.9"/>
	
		<circle fill="#041944" stroke="#898989" stroke-linecap="round" stroke-linejoin="round" stroke-miterlimit="10" cx="401.4" cy="63.8" r="1.9"/>
	
		<circle fill="#041944" stroke="#898989" stroke-linecap="round" stroke-linejoin="round" stroke-miterlimit="10" cx="441.3" cy="59.8" r="1.9"/>
	
		<circle fill="#041944" stroke="#898989" stroke-linecap="round" stroke-linejoin="round" stroke-miterlimit="10" cx="357.2" cy="116.9" r="1.9"/>
	
		<circle fill="#041944" stroke="#898989" stroke-linecap="round" stroke-linejoin="round" stroke-miterlimit="10" cx="387" cy="177.2" r="1.9"/>
	
		<circle fill="#041944" stroke="#898989" stroke-linecap="round" stroke-linejoin="round" stroke-miterlimit="10" cx="381.7" cy="80.9" r="1.9"/>
	
		<circle fill="#041944" stroke="#898989" stroke-linecap="round" stroke-linejoin="round" stroke-miterlimit="10" cx="228.3" cy="172.4" r="1.9"/>
	
		<circle fill="#041944" stroke="#898989" stroke-linecap="round" stroke-linejoin="round" stroke-miterlimit="10" cx="208.7" cy="148.1" r="1.9"/>
	
		<circle fill="#041944" stroke="#898989" stroke-linecap="round" stroke-linejoin="round" stroke-miterlimit="10" cx="124.8" cy="185.9" r="1.9"/>
	
		<circle fill="#041944" stroke="#898989" stroke-linecap="round" stroke-linejoin="round" stroke-miterlimit="10" cx="88.1" cy="147.7" r="1.9"/>
	
		<circle fill="#041944" stroke="#898989" stroke-linecap="round" stroke-linejoin="round" stroke-miterlimit="10" cx="103" cy="111.3" r="1.9"/>
	<g>
		<polygon fill="#041944" stroke="#B5935B" stroke-linecap="round" stroke-linejoin="round" stroke-miterlimit="10" points="
			227.1,224.9 220.7,220 210.1,231.8 203,226.8 203.5,240.8 215.4,242.1 		"/>
		<polygon fill="#041944" stroke="#B5935B" stroke-linecap="round" stroke-linejoin="round" stroke-miterlimit="10" points="
			220.7,220 194.9,227.6 203.5,240.8 		"/>
	</g>
	<g>
		
			<rect x="352.4" y="74.4" fill="#041944" stroke="#898989" stroke-linejoin="round" stroke-miterlimit="10" width="12.4" height="17.9"/>
		<line fill="#041944" stroke="#898989" stroke-linejoin="round" stroke-miterlimit="10" x1="355.3" y1="79.5" x2="362" y2="79.5"/>
		<line fill="#041944" stroke="#898989" stroke-linejoin="round" stroke-miterlimit="10" x1="355.3" y1="81.9" x2="362" y2="81.9"/>
		<line fill="#041944" stroke="#898989" stroke-linejoin="round" stroke-miterlimit="10" x1="355.3" y1="84.4" x2="362" y2="84.4"/>
	</g>
	<g>
		
			<rect x="258.8" y="71.7" fill="#041944" stroke="#898989" stroke-linejoin="round" stroke-miterlimit="10" width="12.4" height="17.9"/>
		
			<line fill="#041944" stroke="#898989" stroke-linejoin="round" stroke-miterlimit="10" x1="261.7" y1="76.7" x2="268.4" y2="76.7"/>
		
			<line fill="#041944" stroke="#898989" stroke-linejoin="round" stroke-miterlimit="10" x1="261.7" y1="79.2" x2="268.4" y2="79.2"/>
		
			<line fill="#041944" stroke="#898989" stroke-linejoin="round" stroke-miterlimit="10" x1="261.7" y1="81.6" x2="268.4" y2="81.6"/>
	</g>
	<g>
		
			<rect x="394.3" y="53.5" fill="#041944" stroke="#898989" stroke-linejoin="round" stroke-miterlimit="10" width="12.4" height="17.9"/>
		
			<line fill="#041944" stroke="#898989" stroke-linejoin="round" stroke-miterlimit="10" x1="397.1" y1="58.5" x2="403.8" y2="58.5"/>
		<line fill="#041944" stroke="#898989" stroke-linejoin="round" stroke-miterlimit="10" x1="397.1" y1="61" x2="403.8" y2="61"/>
		
			<line fill="#041944" stroke="#898989" stroke-linejoin="round" stroke-miterlimit="10" x1="397.1" y1="63.4" x2="403.8" y2="63.4"/>
	</g>
	<g>
		
			<rect x="310" y="119.3" fill="#041944" stroke="#898989" stroke-linejoin="round" stroke-miterlimit="10" width="12.4" height="17.9"/>
		
			<line fill="#041944" stroke="#898989" stroke-linejoin="round" stroke-miterlimit="10" x1="312.9" y1="124.3" x2="319.6" y2="124.3"/>
		
			<line fill="#041944" stroke="#898989" stroke-linejoin="round" stroke-miterlimit="10" x1="312.9" y1="126.8" x2="319.6" y2="126.8"/>
		
			<line fill="#041944" stroke="#898989" stroke-linejoin="round" stroke-miterlimit="10" x1="312.9" y1="129.2" x2="319.6" y2="129.2"/>
	</g>
	<g>
		
			<rect x="171.9" y="152.9" fill="#041944" stroke="#898989" stroke-linejoin="round" stroke-miterlimit="10" width="12.4" height="17.9"/>
		
			<line fill="#041944" stroke="#898989" stroke-linejoin="round" stroke-miterlimit="10" x1="174.7" y1="157.9" x2="181.4" y2="157.9"/>
		
			<line fill="#041944" stroke="#898989" stroke-linejoin="round" stroke-miterlimit="10" x1="174.7" y1="160.3" x2="181.4" y2="160.3"/>
		
			<line fill="#041944" stroke="#898989" stroke-linejoin="round" stroke-miterlimit="10" x1="174.7" y1="162.8" x2="181.4" y2="162.8"/>
	</g>
	<g>
		
			<rect x="114.1" y="137.5" fill="#041944" stroke="#898989" stroke-linejoin="round" stroke-miterlimit="10" width="12.4" height="17.9"/>
		
			<line fill="#041944" stroke="#898989" stroke-linejoin="round" stroke-miterlimit="10" x1="116.9" y1="142.5" x2="123.6" y2="142.5"/>
		
			<line fill="#041944" stroke="#898989" stroke-linejoin="round" stroke-miterlimit="10" x1="116.9" y1="144.9" x2="123.6" y2="144.9"/>
		
			<line fill="#041944" stroke="#898989" stroke-linejoin="round" stroke-miterlimit="10" x1="116.9" y1="147.4" x2="123.6" y2="147.4"/>
	</g>
	<g>
		<g>
			<defs>
				<rect id="XMLID_240_" x="249.3" y="229.5" width="23.7" height="15.1"/>
			</defs>
			<use xlink:href="#XMLID_240_"  overflow="visible" fill="#041944"/>
			<clipPath id="XMLID_7_">
				<use xlink:href="#XMLID_240_"  overflow="visible"/>
			</clipPath>
			
				<use xlink:href="#XMLID_240_"  overflow="visible" fill="none" stroke="#B5935B" stroke-linejoin="round" stroke-miterlimit="10"/>
		</g>
		<g>
			<defs>
				<rect id="XMLID_239_" x="245.4" y="225.1" width="24.1" height="15.8"/>
			</defs>
			<use xlink:href="#XMLID_239_"  overflow="visible" fill="#041944"/>
			<clipPath id="XMLID_8_">
				<use xlink:href="#XMLID_239_"  overflow="visible"/>
			</clipPath>
			<polyline clip-path="url(#XMLID_8_)" fill="#041944" stroke="#B5935B" stroke-linejoin="round" stroke-miterlimit="10" points="
				245.4,241 254.2,228.3 259.9,228 269.5,241 265.4,258.9 			"/>
			<polyline clip-path="url(#XMLID_8_)" fill="#041944" stroke="#B5935B" stroke-linejoin="round" stroke-miterlimit="10" points="
				244.3,219.2 245.4,225.1 257.1,234 269.5,225.1 270,218.9 			"/>
			
				<use xlink:href="#XMLID_239_"  overflow="visible" fill="none" stroke="#B5935B" stroke-linejoin="round" stroke-miterlimit="10"/>
		</g>
	</g>
</g>
</svg>
