<?xml version="1.0" encoding="utf-8"?>
<!-- Generator: Adobe Illustrator 18.1.1, SVG Export Plug-In . SVG Version: 6.00 Build 0)  -->
<!DOCTYPE svg PUBLIC "-//W3C//DTD SVG 1.1//EN" "http://www.w3.org/Graphics/SVG/1.1/DTD/svg11.dtd" [
	<!ENTITY ns_extend "http://ns.adobe.com/Extensibility/1.0/">
	<!ENTITY ns_ai "http://ns.adobe.com/AdobeIllustrator/10.0/">
	<!ENTITY ns_graphs "http://ns.adobe.com/Graphs/1.0/">
	<!ENTITY ns_vars "http://ns.adobe.com/Variables/1.0/">
	<!ENTITY ns_imrep "http://ns.adobe.com/ImageReplacement/1.0/">
	<!ENTITY ns_sfw "http://ns.adobe.com/SaveForWeb/1.0/">
	<!ENTITY ns_custom "http://ns.adobe.com/GenericCustomNamespace/1.0/">
	<!ENTITY ns_adobe_xpath "http://ns.adobe.com/XPath/1.0/">
]>
<svg version="1.1" id="Layer_1" xmlns:x="&ns_extend;" xmlns:i="&ns_ai;" xmlns:graph="&ns_graphs;"
	 xmlns="http://www.w3.org/2000/svg" xmlns:xlink="http://www.w3.org/1999/xlink" x="0px" y="0px" viewBox="0 0 45.1 44.8"
	 enable-background="new 0 0 45.1 44.8" xml:space="preserve">
<metadata>
	<sfw  xmlns="&ns_sfw;">
		<slices></slices>
		<sliceSourceBounds  width="51.4" height="53" y="-401" x="650.5" bottomLeftOrigin="true"></sliceSourceBounds>
	</sfw>
</metadata>
<g>
	<g>
		<g>
			<path fill="#FFFFFF" stroke="#B5935B" stroke-width="3" stroke-linejoin="round" stroke-miterlimit="10" d="M29.1,2.5
				C40.2,6.2,46.2,18,42.6,28.9C39,39.9,27.1,45.9,16,42.3S-1.1,26.9,2.5,15.9S18.1-1.1,29.1,2.5z"/>
			<g>
				<defs>
					<path id="XMLID_248_" d="M27.7,6.8C36.3,9.6,41,18.9,38.1,27.5C35.3,36.1,26.1,40.8,17.5,38C8.9,35.2,4.2,25.9,7,17.3
						S19.1,4,27.7,6.8z"/>
				</defs>
				<use xlink:href="#XMLID_248_"  overflow="visible" fill="#041944"/>
				<clipPath id="XMLID_2_">
					<use xlink:href="#XMLID_248_"  overflow="visible"/>
				</clipPath>
				<path clip-path="url(#XMLID_2_)" fill="#FFFFFF" stroke="#B5935B" stroke-linejoin="round" stroke-miterlimit="10" d="
					M-2.3,18.4l50.4,31.7l-23.6-0.9c0,0-25.4,7.4-25.4,0S-2.3,18.4-2.3,18.4z"/>
				
					<use xlink:href="#XMLID_248_"  overflow="visible" fill="none" stroke="#B5935B" stroke-linejoin="round" stroke-miterlimit="10"/>
			</g>
		</g>
		<g>
			<g>
				<g>
					<defs>
						<path id="XMLID_249_" d="M28.1,37.5L12.2,27.4V7.7h21.6c0,0,0.1,26.2,0.1,26.3C31.6,36.7,28.1,37.5,28.1,37.5z"/>
					</defs>
					<use xlink:href="#XMLID_249_"  overflow="visible" fill="#FFFFFF"/>
					<clipPath id="XMLID_3_">
						<use xlink:href="#XMLID_249_"  overflow="visible"/>
					</clipPath>
					
						<rect x="14.5" y="10" clip-path="url(#XMLID_3_)" fill="#FFFFFF" stroke="#B5935B" stroke-linejoin="round" stroke-miterlimit="10" width="17.3" height="32.8"/>
					
						<use xlink:href="#XMLID_249_"  overflow="visible" fill="none" stroke="#B5935B" stroke-linejoin="round" stroke-miterlimit="10"/>
				</g>
			</g>
		</g>
	</g>
	<ellipse fill="#FFFFFF" stroke="#B5935B" stroke-miterlimit="10" cx="23.1" cy="16.3" rx="3" ry="2.9"/>
	<line fill="none" stroke="#B5935B" stroke-linejoin="round" stroke-miterlimit="10" x1="17.8" y1="22.8" x2="28.3" y2="22.8"/>
	<line fill="none" stroke="#B5935B" stroke-linejoin="round" stroke-miterlimit="10" x1="18" y1="25.7" x2="28.1" y2="25.7"/>
</g>
</svg>
