<?xml version="1.0" encoding="utf-8"?>
<!-- Generator: Adobe Illustrator 18.1.1, SVG Export Plug-In . SVG Version: 6.00 Build 0)  -->
<!DOCTYPE svg PUBLIC "-//W3C//DTD SVG 1.1//EN" "http://www.w3.org/Graphics/SVG/1.1/DTD/svg11.dtd" [
	<!ENTITY ns_extend "http://ns.adobe.com/Extensibility/1.0/">
	<!ENTITY ns_ai "http://ns.adobe.com/AdobeIllustrator/10.0/">
	<!ENTITY ns_graphs "http://ns.adobe.com/Graphs/1.0/">
	<!ENTITY ns_vars "http://ns.adobe.com/Variables/1.0/">
	<!ENTITY ns_imrep "http://ns.adobe.com/ImageReplacement/1.0/">
	<!ENTITY ns_sfw "http://ns.adobe.com/SaveForWeb/1.0/">
	<!ENTITY ns_custom "http://ns.adobe.com/GenericCustomNamespace/1.0/">
	<!ENTITY ns_adobe_xpath "http://ns.adobe.com/XPath/1.0/">
]>
<svg version="1.1" id="Layer_1" xmlns:x="&ns_extend;" xmlns:i="&ns_ai;" xmlns:graph="&ns_graphs;"
	 xmlns="http://www.w3.org/2000/svg" xmlns:xlink="http://www.w3.org/1999/xlink" x="0px" y="0px" viewBox="0 0 58.8 60.7"
	 enable-background="new 0 0 58.8 60.7" xml:space="preserve">
<metadata>
	<sfw  xmlns="&ns_sfw;">
		<slices></slices>
		<sliceSourceBounds  width="58.8" height="60.7" y="-406.3" x="647.1" bottomLeftOrigin="true"></sliceSourceBounds>
	</sfw>
</metadata>
<g>
	<g>
		<defs>
			<polygon id="XMLID_348_" points="11.8,22.8 44.8,23.4 46,32.1 51.1,32.1 48.7,46.9 43.1,46.9 41.3,51 10.7,49 2,38.5 10.6,38.1 
							"/>
		</defs>
		<use xlink:href="#XMLID_348_"  overflow="visible" fill="#B5935B"/>
		<clipPath id="XMLID_2_">
			<use xlink:href="#XMLID_348_"  overflow="visible"/>
		</clipPath>
		
			<use xlink:href="#XMLID_348_"  overflow="visible" fill="none" stroke="#B5935B" stroke-linecap="round" stroke-linejoin="round" stroke-miterlimit="10"/>
	</g>
	<polygon fill="#041944" stroke="#B5935B" stroke-linecap="round" stroke-linejoin="round" stroke-miterlimit="10" points="
		27.4,0.5 13.5,19.5 20.3,36.6 26.2,28.7 	"/>
	<polygon fill="#041944" stroke="#B5935B" stroke-linecap="round" stroke-linejoin="round" stroke-miterlimit="10" points="
		11.8,22.8 0.5,40.6 10.7,49 17.8,39.2 	"/>
	<path fill="#041944" stroke="#B5935B" stroke-linecap="round" stroke-linejoin="round" stroke-miterlimit="10" d="M26.2,31.9
		c0,0-0.8,28.6-1.1,28.4c-0.3-0.2-12.1-9.8-12.1-9.8L26.2,31.9z"/>
	<polygon fill="#041944" stroke="#B5935B" stroke-linecap="round" stroke-linejoin="round" stroke-miterlimit="10" points="
		27.4,0.5 26.2,28.7 43.3,21.5 	"/>
	<polygon fill="#041944" stroke="#B5935B" stroke-linecap="round" stroke-linejoin="round" stroke-miterlimit="10" points="
		44.8,23.4 32.5,29.1 41.3,51.1 46.2,48.2 49.6,30 	"/>
	<polygon fill="#041944" stroke="#B5935B" stroke-linecap="round" stroke-linejoin="round" stroke-miterlimit="10" points="30.4,30 
		26.2,31.9 25,60.2 39.1,52.1 	"/>
	<polygon fill="#041944" stroke="#B5935B" stroke-linecap="round" stroke-linejoin="round" stroke-miterlimit="10" points="
		51.1,32.1 48.7,46.9 58.3,41.6 	"/>
</g>
</svg>
