<?xml version="1.0" encoding="utf-8"?>
<!-- Generator: Adobe Illustrator 18.1.1, SVG Export Plug-In . SVG Version: 6.00 Build 0)  -->
<!DOCTYPE svg PUBLIC "-//W3C//DTD SVG 1.1//EN" "http://www.w3.org/Graphics/SVG/1.1/DTD/svg11.dtd" [
	<!ENTITY ns_extend "http://ns.adobe.com/Extensibility/1.0/">
	<!ENTITY ns_ai "http://ns.adobe.com/AdobeIllustrator/10.0/">
	<!ENTITY ns_graphs "http://ns.adobe.com/Graphs/1.0/">
	<!ENTITY ns_vars "http://ns.adobe.com/Variables/1.0/">
	<!ENTITY ns_imrep "http://ns.adobe.com/ImageReplacement/1.0/">
	<!ENTITY ns_sfw "http://ns.adobe.com/SaveForWeb/1.0/">
	<!ENTITY ns_custom "http://ns.adobe.com/GenericCustomNamespace/1.0/">
	<!ENTITY ns_adobe_xpath "http://ns.adobe.com/XPath/1.0/">
]>
<svg version="1.1" id="Layer_1" xmlns:x="&ns_extend;" xmlns:i="&ns_ai;" xmlns:graph="&ns_graphs;"
	 xmlns="http://www.w3.org/2000/svg" xmlns:xlink="http://www.w3.org/1999/xlink" x="0px" y="0px" viewBox="0 0 176.5 259.4"
	 enable-background="new 0 0 176.5 259.4" xml:space="preserve">
<metadata>
	<sfw  xmlns="&ns_sfw;">
		<slices></slices>
		<sliceSourceBounds  width="176.5" height="259.4" y="-505.7" x="588" bottomLeftOrigin="true"></sliceSourceBounds>
	</sfw>
</metadata>
<g>
	<g>
		<polyline fill="none" stroke="#B5935B" stroke-linejoin="round" stroke-miterlimit="10" points="172.7,2.9 153.9,3 84.8,126.8 		
			"/>
		
			<circle fill="#FFFFFF" stroke="#B5935B" stroke-linecap="round" stroke-linejoin="round" stroke-miterlimit="10" cx="172.7" cy="3.4" r="2.9"/>
	</g>
	<g>
		<polyline fill="none" stroke="#B5935B" stroke-linejoin="round" stroke-miterlimit="10" points="171.9,65.5 154.7,65.2 115.9,137 
					"/>
		
			<circle fill="#FFFFFF" stroke="#B5935B" stroke-linecap="round" stroke-linejoin="round" stroke-miterlimit="10" cx="171.9" cy="66" r="2.9"/>
	</g>
	<g>
		<polyline fill="none" stroke="#B5935B" stroke-linejoin="round" stroke-miterlimit="10" points="176.4,127 161.9,127.1 145.6,156 
					"/>
		
			<circle fill="#FFFFFF" stroke="#B5935B" stroke-linecap="round" stroke-linejoin="round" stroke-miterlimit="10" cx="173.2" cy="127.4" r="2.9"/>
	</g>
	<g>
		<polyline fill="none" stroke="#B5935B" stroke-linejoin="round" stroke-miterlimit="10" points="174,255.5 23.9,255.7 23.9,146 		
			"/>
		
			<circle fill="#FFFFFF" stroke="#B5935B" stroke-linecap="round" stroke-linejoin="round" stroke-miterlimit="10" cx="172.7" cy="256" r="2.9"/>
	</g>
	<g>
		<line fill="none" stroke="#B5935B" stroke-linejoin="round" stroke-miterlimit="10" x1="172.7" y1="190.8" x2="85.6" y2="190.8"/>
		<g>
			
				<circle fill="#FFFFFF" stroke="#B5935B" stroke-linecap="round" stroke-linejoin="round" stroke-miterlimit="10" cx="172.7" cy="191" r="2.9"/>
		</g>
	</g>
	<g>
		<g>
			<defs>
				<polygon id="XMLID_1617_" points="32,97.4 124.2,99.3 127.6,123.4 142,123.4 135.3,164.8 119.6,164.8 114.5,176.4 29,170.6 
					4.8,141.2 28.6,140.3 				"/>
			</defs>
			<use xlink:href="#XMLID_1617_"  overflow="visible" fill="#B5935B"/>
			<clipPath id="XMLID_2_">
				<use xlink:href="#XMLID_1617_"  overflow="visible"/>
			</clipPath>
			
				<use xlink:href="#XMLID_1617_"  overflow="visible" fill="none" stroke="#B5935B" stroke-linecap="round" stroke-linejoin="round" stroke-miterlimit="10"/>
		</g>
		<polygon fill="#FFFFFF" stroke="#B5935B" stroke-linecap="round" stroke-linejoin="round" stroke-miterlimit="10" points="
			72.6,89.3 51.3,68.3 36.9,88.2 55.8,136.1 72.3,113.9 		"/>
		<polygon fill="#FFFFFF" stroke="#B5935B" stroke-linecap="round" stroke-linejoin="round" stroke-miterlimit="10" points="
			32,97.4 0.5,147.3 29,170.6 48.8,143.4 		"/>
		<path fill="#FFFFFF" stroke="#B5935B" stroke-linecap="round" stroke-linejoin="round" stroke-miterlimit="10" d="M72.3,122.8
			c0,0-2.3,79.9-3.2,79.3c-0.9-0.6-33.9-27.5-33.9-27.5L72.3,122.8z"/>
		<polygon fill="#FFFFFF" stroke="#B5935B" stroke-linecap="round" stroke-linejoin="round" stroke-miterlimit="10" points="
			73.3,88.7 72.3,113.9 120.1,93.7 104.6,73.3 		"/>
		<polygon fill="#FFFFFF" stroke="#B5935B" stroke-linecap="round" stroke-linejoin="round" stroke-miterlimit="10" points="
			124.2,99.3 89.9,115 114.5,176.5 128.3,168.5 137.6,117.6 		"/>
		<polygon fill="#FFFFFF" stroke="#B5935B" stroke-linecap="round" stroke-linejoin="round" stroke-miterlimit="10" points="
			84,117.7 72.3,122.8 69.1,202 108.4,179.2 		"/>
		<polygon fill="#FFFFFF" stroke="#B5935B" stroke-linecap="round" stroke-linejoin="round" stroke-miterlimit="10" points="
			142,123.4 135.3,164.8 161.9,150 		"/>
	</g>
	<polygon fill="#FFFFFF" stroke="#B5935B" stroke-linecap="round" stroke-linejoin="round" stroke-miterlimit="10" points="
		72.8,99.5 51.3,68.3 104.6,73.3 	"/>
	<polygon fill="#041944" stroke="#B5935B" stroke-linecap="round" stroke-linejoin="round" stroke-miterlimit="10" points="
		56.6,71.3 73.6,93.8 97.6,75 	"/>
	<g>
		<g>
			<g>
				<polygon fill="#B5935B" points="70.3,89 66.3,84.1 66.3,16.3 70.3,16.3 				"/>
			</g>
			<g>
				<g>
					<polygon fill="#B5935B" points="63.7,19.5 68.3,2.2 73,19.5 					"/>
				</g>
			</g>
		</g>
		<g>
			<g>
				<polygon fill="#B5935B" points="81.3,88.1 77.3,90.5 77.3,16.3 81.3,16.3 				"/>
			</g>
			<g>
				<g>
					<polygon fill="#B5935B" points="74.7,19.5 79.3,2.2 84,19.5 					"/>
				</g>
			</g>
		</g>
	</g>
</g>
</svg>
