<?xml version="1.0" encoding="utf-8"?>
<!-- Generator: Avocode 2.6.0 - http://avocode.com -->
<svg height="326" width="862" xmlns:xlink="http://www.w3.org/1999/xlink" xmlns="http://www.w3.org/2000/svg" viewBox="0 0 862 326">
    <path fill="#ed1c2e" fill-rule="evenodd" d="M 598 283 L 628 283 L 628 303 L 598 303 L 598 283 Z M 598 283" />
    <path fill="#ffe01b" fill-rule="evenodd" d="M 612.92 288.88 C 612.92 288.23 613.5 287.77 613.5 286.92 C 613.88 287.42 613.23 288.42 613.46 288.96 C 613.58 288.31 614.19 287.96 614.35 287.12 C 614.65 287.69 613.85 288.54 614 289.15 C 614.19 288.54 614.88 288.31 615.15 287.46 C 615.38 288.08 614.46 288.81 614.5 289.42 C 614.81 288.85 615.5 288.69 615.88 287.96 C 616 288.62 615 289.15 614.96 289.77 C 615.35 289.23 616.04 289.23 616.58 288.54 C 616.62 289.19 615.5 289.58 615.38 290.19 C 615.85 289.73 616.54 289.85 617.15 289.23 C 617.08 289.88 615.96 290.08 615.73 290.65 C 616.23 290.27 616.92 290.5 617.62 290 C 617.46 290.65 616.27 290.65 616 291.19 C 616.58 290.92 617.19 291.23 617.96 290.85 C 617.69 291.46 616.54 291.27 616.15 291.77 C 616.77 291.58 617.35 292 618.15 291.73 C 617.81 292.27 616.69 291.92 616.23 292.35 C 616.85 292.27 617.38 292.77 618.19 292.65 C 617.77 293.15 616.73 292.62 616.23 292.96 C 616.85 292.96 617.31 293.54 618.15 293.58 C 617.65 294 616.69 293.31 616.15 293.54 C 616.77 293.65 617.12 294.27 617.96 294.46 C 617.38 294.77 616.58 293.96 616 294.12 C 616.62 294.31 616.85 295 617.62 295.31 C 617 295.54 616.31 294.58 615.73 294.65 C 616.31 294.96 616.42 295.65 617.15 296.08 C 616.54 296.19 616 295.15 615.38 295.12 C 615.88 295.5 615.92 296.23 616.58 296.77 C 615.92 296.81 615.54 295.69 614.96 295.54 C 615.38 296 615.31 296.73 615.88 297.35 C 615.31 297.23 615.12 296.04 614.54 295.81 C 614.92 296.35 614.69 297.04 615.19 297.77 C 614.58 297.58 614.54 296.42 614.04 296.08 C 614.31 296.65 614 297.31 614.38 298.12 C 613.81 297.85 613.96 296.65 613.5 296.27 C 613.69 296.88 613.31 297.5 613.54 298.31 C 613 297.96 613.35 296.81 612.96 296.35 C 613.04 297 612.58 297.54 612.69 298.38 C 612.23 297.92 612.73 296.88 612.42 296.35 C 612.42 297 611.85 297.42 611.85 298.31 C 611.46 297.81 612.12 296.81 611.88 296.27 C 611.77 296.92 611.15 297.27 611 298.12 C 610.69 297.54 611.5 296.69 611.35 296.08 C 611.15 296.69 610.46 296.92 610.19 297.77 C 609.96 297.15 610.88 296.42 610.85 295.81 C 610.54 296.38 609.85 296.54 609.46 297.27 C 609.35 296.62 610.35 296.08 610.38 295.46 C 610 296 609.31 296 608.77 296.69 C 608.73 296.04 609.85 295.65 609.96 295.04 C 609.5 295.5 608.81 295.38 608.19 296 C 608.27 295.35 609.38 295.15 609.62 294.58 C 609.12 294.96 608.42 294.73 607.73 295.23 C 607.88 294.58 609.08 294.58 609.35 294.04 C 608.77 294.31 608.15 294 607.38 294.38 C 607.65 293.77 608.81 293.96 609.19 293.46 C 608.58 293.65 608 293.23 607.19 293.5 C 607.54 292.96 608.65 293.31 609.12 292.88 C 608.5 292.96 607.96 292.46 607.15 292.58 C 607.58 292.08 608.62 292.62 609.12 292.27 C 608.5 292.27 608.04 291.69 607.19 291.65 C 607.69 291.23 608.65 291.92 609.19 291.69 C 608.58 291.58 608.23 290.96 607.38 290.77 C 607.96 290.46 608.77 291.27 609.35 291.12 C 608.73 290.92 608.5 290.23 607.73 289.92 C 608.35 289.69 609.04 290.65 609.62 290.58 C 609.04 290.27 608.92 289.58 608.19 289.15 C 608.81 289.04 609.38 290.08 609.96 290.12 C 609.46 289.73 609.42 289 608.77 288.46 C 609.42 288.42 609.77 289.54 610.38 289.69 C 609.96 289.23 610.04 288.5 609.46 287.88 C 610.12 287.96 610.31 289.12 610.85 289.35 C 610.5 288.81 610.69 288.12 610.19 287.38 C 610.81 287.58 610.85 288.73 611.35 289.08 C 611.08 288.5 611.38 287.85 611 287.04 C 611.58 287.31 611.42 288.5 611.88 288.88 C 611.69 288.27 612.08 287.65 611.85 286.85 C 612.38 287.19 612.04 288.35 612.42 288.81 C 612.35 288.15 612.81 287.62 612.69 286.77 C 613.12 287.31 612.62 288.38 612.92 288.88 L 612.92 288.88 Z M 612.92 288.88" />
    <path fill="#ed1c2e" fill-rule="evenodd" d="M 612.65 295.65 C 614.29 295.65 615.62 294.29 615.62 292.62 C 615.62 290.94 614.29 289.58 612.65 289.58 C 611.02 289.58 609.69 290.94 609.69 292.62 C 609.69 294.29 611.02 295.65 612.65 295.65 Z M 612.65 295.65" />
    <path fill="#ffe01b" fill-rule="evenodd" d="M 612.65 289.96 C 613.42 289.96 614.08 290.31 614.58 290.85 C 613.85 290.92 613.19 291.12 612.65 291.38 C 612.12 291.12 611.5 290.92 610.73 290.85 C 611.19 290.31 611.88 289.96 612.65 289.96 L 612.65 289.96 Z M 612.65 289.96" />
    <path fill="#ffe01b" fill-rule="evenodd" d="M 612.46 291.46 C 612.38 291.5 612.35 291.54 612.27 291.58 C 611.77 291.31 611.19 291.15 610.54 291.08 C 610.58 291.04 610.62 291 610.65 290.96 C 611.35 291.04 611.92 291.19 612.46 291.46 L 612.46 291.46 Z M 612.46 291.46" />
    <path fill="#ffe01b" fill-rule="evenodd" d="M 612.85 291.46 C 612.92 291.5 612.96 291.54 613.04 291.58 C 613.54 291.31 614.12 291.15 614.77 291.08 C 614.73 291.04 614.69 291 614.65 290.96 C 613.96 291.04 613.35 291.19 612.85 291.46 L 612.85 291.46 Z M 612.85 291.46" />
    <path fill="#ffe01b" fill-rule="evenodd" d="M 610.42 291.23 C 610.38 291.27 610.38 291.31 610.35 291.38 C 611 291.38 611.54 291.54 611.96 291.81 C 612 291.77 612.04 291.73 612.12 291.69 C 611.65 291.42 611.12 291.27 610.42 291.23 L 610.42 291.23 Z M 610.42 291.23" />
    <path fill="#ffe01b" fill-rule="evenodd" d="M 610.38 293.96 C 610.15 293.58 610.04 293.12 610.04 292.62 C 610.04 292.23 610.12 291.85 610.27 291.5 C 610.88 291.5 611.42 291.65 611.85 291.88 C 611.23 292.42 610.77 293.12 610.38 293.96 L 610.38 293.96 Z M 610.38 293.96" />
    <path fill="#ffe01b" fill-rule="evenodd" d="M 611.69 295.12 C 611.58 295.08 611.46 295 611.35 294.96 C 611.42 293.96 611.73 293 612.35 292.31 C 612.38 292.35 612.42 292.38 612.5 292.46 C 611.92 293.15 611.69 294.12 611.69 295.12 L 611.69 295.12 Z M 611.69 295.12" />
    <path fill="#ffe01b" fill-rule="evenodd" d="M 614.85 291.23 C 614.88 291.27 614.88 291.31 614.92 291.38 C 614.27 291.38 613.73 291.54 613.31 291.81 C 613.27 291.77 613.23 291.73 613.15 291.69 C 613.62 291.42 614.19 291.27 614.85 291.23 L 614.85 291.23 Z M 614.85 291.23" />
    <path fill="#ffe01b" fill-rule="evenodd" d="M 614.88 293.96 C 615.12 293.58 615.23 293.12 615.23 292.62 C 615.23 292.23 615.15 291.85 615 291.5 C 614.38 291.5 613.85 291.65 613.42 291.88 C 614.08 292.42 614.54 293.12 614.88 293.96 L 614.88 293.96 Z M 614.88 293.96" />
    <path fill="#ffe01b" fill-rule="evenodd" d="M 612.65 292.62 C 613.19 293.31 613.38 294.27 613.27 295.23 C 613.08 295.27 612.85 295.31 612.65 295.31 C 612.42 295.31 612.23 295.27 612.04 295.23 C 611.92 294.27 612.12 293.31 612.65 292.62 L 612.65 292.62 Z M 612.65 292.62" />
    <path fill="#ffe01b" fill-rule="evenodd" d="M 613.58 295.12 C 613.69 295.08 613.81 295 613.92 294.96 C 613.85 293.96 613.54 293 612.92 292.31 C 612.88 292.35 612.85 292.38 612.77 292.46 C 613.35 293.15 613.62 294.12 613.58 295.12 L 613.58 295.12 Z M 613.58 295.12" />
    <path fill="#ffe01b" fill-rule="evenodd" d="M 612.23 292.15 C 612.19 292.12 612.12 292.08 612.04 292 C 611.38 292.62 610.96 293.42 610.69 294.35 C 610.81 294.46 610.92 294.58 611.04 294.69 C 611.19 293.73 611.58 292.81 612.23 292.15 L 612.23 292.15 Z M 612.23 292.15" />
    <path fill="#ffe01b" fill-rule="evenodd" d="M 613.04 292.15 C 613.08 292.12 613.15 292.08 613.23 292 C 613.88 292.62 614.31 293.42 614.58 294.35 C 614.46 294.46 614.35 294.58 614.23 294.69 C 614.08 293.73 613.69 292.81 613.04 292.15 L 613.04 292.15 Z M 613.04 292.15" />
    <path fill="#ffe01b" fill-rule="evenodd" d="M 612.75 291.58 C 612.81 291.66 613 291.74 613 291.83 C 612.94 291.91 612.75 292.08 612.75 292.08 C 612.69 291.99 612.56 291.91 612.5 291.83 C 612.5 291.83 612.69 291.66 612.75 291.58 L 612.75 291.58 Z M 612.75 291.58" />
    <path fill="#ffe01b" fill-rule="evenodd" d="M 612.38 291.81 C 612.32 291.89 612.21 291.97 612.15 292.06 C 612.26 292.14 612.38 292.31 612.43 292.31 C 612.49 292.22 612.6 292.14 612.65 292.06 C 612.6 291.97 612.43 291.81 612.38 291.81 L 612.38 291.81 Z M 612.38 291.81" />
    <path fill="#ffe01b" fill-rule="evenodd" d="M 613.05 291.81 C 613.1 291.89 613.21 291.97 613.27 292.06 C 613.16 292.14 613.05 292.31 612.99 292.31 C 612.94 292.22 612.82 292.14 612.77 292.06 C 612.88 291.97 612.99 291.81 613.05 291.81 L 613.05 291.81 Z M 613.05 291.81" />
    <path fill="#ffe01b" fill-rule="evenodd" d="M 612.79 292.04 C 612.87 292.12 613.04 292.29 613.04 292.29 C 612.96 292.37 612.79 292.46 612.79 292.54 C 612.71 292.46 612.62 292.29 612.54 292.29 C 612.54 292.29 612.71 292.12 612.79 292.04 L 612.79 292.04 Z M 612.79 292.04" />
    <path fill="#ce2700" fill-rule="evenodd" d="M 108 283 L 138 283 L 138 291.33 L 108 291.33 L 108 283 Z M 108 283" />
    <path fill="#324788" fill-rule="evenodd" d="M 108 289.54 L 138 289.54 L 138 296.08 L 108 296.08 L 108 289.54 Z M 108 289.54" />
    <path fill="#ffc127" fill-rule="evenodd" d="M 108 296.08 L 138 296.08 L 138 303 L 108 303 L 108 296.08 Z M 108 296.08" />
    <path fill="#ffffff" fill-rule="evenodd" d="M 764 283 L 794 283 L 794 291.33 L 764 291.33 L 764 283 Z M 764 283" />
    <path fill="#324788" fill-rule="evenodd" d="M 764 289.54 L 794 289.54 L 794 297.87 L 764 297.87 L 764 289.54 Z M 764 289.54" />
    <path fill="#ce2700" fill-rule="evenodd" d="M 764 296.08 L 794 296.08 L 794 303 L 764 303 L 764 296.08 Z M 764 296.08" />
    <path fill="#ed3424" fill-rule="evenodd" d="M 271.69 283 L 297 283 L 297 296.31 L 271.69 296.31 L 271.69 283 Z M 271.69 283" />
    <path fill="#00b084" fill-rule="evenodd" d="M 271.69 296.31 L 297 296.31 L 297 302.96 L 271.69 302.96 L 271.69 296.31 Z M 271.69 296.31" />
    <path fill="#ffffff" fill-rule="evenodd" d="M 267 283 L 271.42 283 L 271.42 302.96 L 267 302.96 L 267 283 Z M 267 283" />
    <path fill="#ffffff" fill-rule="evenodd" d="M 271.42 283 L 271.92 283 L 271.92 302.96 L 271.42 302.96 L 271.42 283 Z M 271.42 283" />
    <path fill="#ed3424" fill-rule="evenodd" d="M 268.08 286.5 L 268.08 286.73 L 268.19 286.73 L 268.19 287 L 268.31 287 L 268.31 287.31 L 268.19 287.31 L 268.19 287.58 L 268.08 287.58 L 268.08 287.85 L 267.88 287.85 L 267.88 287.58 L 267.81 287.58 L 267.81 287.31 L 267.65 287.31 L 267.65 287 L 267.81 287 L 267.81 286.73 L 267.88 286.73 L 267.88 286.5 L 268.08 286.5 Z M 268.08 286.5" />
    <path fill="#ed3424" fill-rule="evenodd" d="M 268.08 299.5 L 268.08 299.23 L 268.19 299.23 L 268.19 298.96 L 268.31 298.96 L 268.31 298.69 L 268.19 298.69 L 268.19 298.38 L 268.08 298.38 L 268.08 298.15 L 267.88 298.15 L 267.88 298.38 L 267.81 298.38 L 267.81 298.69 L 267.65 298.69 L 267.65 298.96 L 267.81 298.96 L 267.81 299.23 L 267.88 299.23 L 267.88 299.5 L 268.08 299.5 Z M 268.08 299.5" />
    <path fill="#ed3424" fill-rule="evenodd" d="M 269.31 285.42 L 269.31 285.81 L 269.46 285.81 L 269.46 286.23 L 269.65 286.23 L 269.65 286.5 L 269.88 286.5 L 269.88 286.88 L 270.04 286.88 L 270.04 286.5 L 270.27 286.5 L 270.27 286.23 L 270.42 286.23 L 270.42 285.81 L 270.62 285.81 L 270.62 285.42 L 270.77 285.42 L 270.77 284.92 L 270.62 284.92 L 270.62 284.5 L 270.42 284.5 L 270.42 284 L 270.27 284 L 270.27 283.69 L 269.65 283.69 L 269.65 284 L 269.46 284 L 269.46 284.5 L 269.31 284.5 L 269.31 284.92 L 269.12 284.92 L 269.12 284.5 L 268.96 284.5 L 268.96 284 L 268.77 284 L 268.77 283.69 L 268.19 283.69 L 268.19 284 L 268 284 L 268 284.5 L 267.85 284.5 L 267.85 284.92 L 267.65 284.92 L 267.65 285.42 L 267.85 285.42 L 267.85 285.81 L 268 285.81 L 268 286.23 L 268.19 286.23 L 268.19 286.5 L 268.38 286.5 L 268.38 286.88 L 268.54 286.88 L 268.54 286.5 L 268.77 286.5 L 268.77 286.23 L 268.96 286.23 L 268.96 285.81 L 269.12 285.81 L 269.12 285.42 L 269.31 285.42 Z M 269.31 285.42" />
    <path fill="#ed3424" fill-rule="evenodd" d="M 270.38 286.5 L 270.38 286.73 L 270.27 286.73 L 270.27 287 L 270.15 287 L 270.15 287.31 L 270.27 287.31 L 270.27 287.58 L 270.38 287.58 L 270.38 287.85 L 270.54 287.85 L 270.54 287.58 L 270.65 287.58 L 270.65 287.31 L 270.77 287.31 L 270.77 287 L 270.65 287 L 270.65 286.73 L 270.54 286.73 L 270.54 286.5 L 270.38 286.5 Z M 270.38 286.5" />
    <path fill="#ed3424" fill-rule="evenodd" d="M 269.27 287.31 L 269.27 287.58 L 269.38 287.58 L 269.38 287.85 L 269.54 287.85 L 269.54 287.58 L 269.65 287.58 L 269.65 287.31 L 269.77 287.31 L 269.77 287 L 269.65 287 L 269.65 286.73 L 269.54 286.73 L 269.54 286.5 L 269.38 286.5 L 269.38 286.73 L 269.27 286.73 L 269.27 287 L 269.15 287 L 269.15 286.73 L 269.04 286.73 L 269.04 286.5 L 268.88 286.5 L 268.88 286.73 L 268.77 286.73 L 268.77 287 L 268.65 287 L 268.65 287.31 L 268.77 287.31 L 268.77 287.58 L 268.88 287.58 L 268.88 287.85 L 269.04 287.85 L 269.04 287.58 L 269.15 287.58 L 269.15 287.31 L 269.27 287.31 Z M 269.27 287.31" />
    <path fill="#ed3424" fill-rule="evenodd" d="M 269.31 300.54 L 269.31 300.15 L 269.46 300.15 L 269.46 299.77 L 269.65 299.77 L 269.65 299.46 L 269.88 299.46 L 269.88 299.08 L 270.04 299.08 L 270.04 299.46 L 270.27 299.46 L 270.27 299.77 L 270.42 299.77 L 270.42 300.15 L 270.62 300.15 L 270.62 300.54 L 270.77 300.54 L 270.77 301.04 L 270.62 301.04 L 270.62 301.46 L 270.42 301.46 L 270.42 302 L 270.27 302 L 270.27 302.31 L 269.65 302.31 L 269.65 302 L 269.46 302 L 269.46 301.46 L 269.31 301.46 L 269.31 301.04 L 269.12 301.04 L 269.12 301.46 L 268.96 301.46 L 268.96 302 L 268.77 302 L 268.77 302.31 L 268.19 302.31 L 268.19 302 L 268 302 L 268 301.46 L 267.85 301.46 L 267.85 301.04 L 267.65 301.04 L 267.65 300.54 L 267.85 300.54 L 267.85 300.15 L 268 300.15 L 268 299.77 L 268.19 299.77 L 268.19 299.46 L 268.38 299.46 L 268.38 299.08 L 268.54 299.08 L 268.54 299.46 L 268.77 299.46 L 268.77 299.77 L 268.96 299.77 L 268.96 300.15 L 269.12 300.15 L 269.12 300.54 L 269.31 300.54 Z M 269.31 300.54" />
    <path fill="#ed3424" fill-rule="evenodd" d="M 270.38 299.5 L 270.38 299.23 L 270.27 299.23 L 270.27 298.96 L 270.15 298.96 L 270.15 298.69 L 270.27 298.69 L 270.27 298.38 L 270.38 298.38 L 270.38 298.15 L 270.54 298.15 L 270.54 298.38 L 270.65 298.38 L 270.65 298.69 L 270.77 298.69 L 270.77 298.96 L 270.65 298.96 L 270.65 299.23 L 270.54 299.23 L 270.54 299.5 L 270.38 299.5 Z M 270.38 299.5" />
    <path fill="#ed3424" fill-rule="evenodd" d="M 269.27 298.96 L 269.27 299.23 L 269.38 299.23 L 269.38 299.5 L 269.54 299.5 L 269.54 299.23 L 269.65 299.23 L 269.65 298.96 L 269.77 298.96 L 269.77 298.69 L 269.65 298.69 L 269.65 298.38 L 269.54 298.38 L 269.54 298.15 L 269.38 298.15 L 269.38 298.38 L 269.27 298.38 L 269.27 298.69 L 269.15 298.69 L 269.15 298.38 L 269.04 298.38 L 269.04 298.15 L 268.88 298.15 L 268.88 298.38 L 268.77 298.38 L 268.77 298.69 L 268.65 298.69 L 268.65 298.96 L 268.77 298.96 L 268.77 299.23 L 268.88 299.23 L 268.88 299.5 L 269.04 299.5 L 269.04 299.23 L 269.15 299.23 L 269.15 298.96 L 269.27 298.96 Z M 269.27 298.96" />
    <path fill="#ed3424" fill-rule="evenodd" d="M 269.35 296.88 L 269.35 297.38 L 269.54 297.38 L 269.54 297.81 L 269.73 297.81 L 269.73 298.19 L 269.85 298.19 L 269.85 298.46 L 270.04 298.46 L 270.04 298.19 L 270.19 298.19 L 270.19 297.81 L 270.42 297.81 L 270.42 297.38 L 270.65 297.38 L 270.65 297 L 270.77 297 L 270.77 296.42 L 270.65 296.42 L 270.65 296.04 L 270.46 296.04 L 270.46 295.46 L 270.31 295.46 L 270.31 295.08 L 270.12 295.08 L 270.12 295.46 L 269.92 295.46 L 269.92 296.04 L 269.81 296.04 L 269.81 296.42 L 269.96 296.42 L 269.96 297 L 269.77 297 L 269.77 296.62 L 269.62 296.62 L 269.62 295.92 L 269.38 295.92 L 269.38 295.42 L 269.58 295.42 L 269.58 295.04 L 269.77 295.04 L 269.77 294.58 L 269.96 294.58 L 269.96 294.08 L 270.12 294.08 L 270.12 293.62 L 270.31 293.62 L 270.31 294.08 L 270.46 294.08 L 270.46 294.42 L 270.58 294.42 L 270.58 294.88 L 270.69 294.88 L 270.69 295.27 L 270.77 295.27 L 270.77 293.88 L 270.65 293.88 L 270.65 293.42 L 270.46 293.42 L 270.46 293.15 L 270.31 293.15 L 270.31 292.85 L 270.46 292.85 L 270.46 292.54 L 270.65 292.54 L 270.65 292.08 L 270.77 292.08 L 270.77 290.73 L 270.69 290.73 L 270.69 291.08 L 270.58 291.08 L 270.58 291.54 L 270.46 291.54 L 270.46 291.92 L 270.31 291.92 L 270.31 292.35 L 270.12 292.35 L 270.12 291.88 L 269.96 291.88 L 269.96 291.38 L 269.77 291.38 L 269.77 290.92 L 269.58 290.92 L 269.58 290.54 L 269.38 290.54 L 269.38 290.04 L 269.62 290.04 L 269.62 289.35 L 269.77 289.35 L 269.77 289 L 269.96 289 L 269.96 289.58 L 269.81 289.58 L 269.81 289.96 L 269.92 289.96 L 269.92 290.5 L 270.12 290.5 L 270.12 290.88 L 270.31 290.88 L 270.31 290.5 L 270.46 290.5 L 270.46 289.96 L 270.65 289.96 L 270.65 289.58 L 270.77 289.58 L 270.77 289 L 270.65 289 L 270.65 288.62 L 270.42 288.62 L 270.42 288.15 L 270.19 288.15 L 270.19 287.77 L 270.04 287.77 L 270.04 287.54 L 269.85 287.54 L 269.85 287.77 L 269.73 287.77 L 269.73 288.19 L 269.54 288.19 L 269.54 288.62 L 269.35 288.62 L 269.35 289.08 L 269.08 289.08 L 269.08 288.62 L 268.92 288.62 L 268.92 288.19 L 268.69 288.19 L 268.69 287.77 L 268.58 287.77 L 268.58 287.54 L 268.38 287.54 L 268.38 287.77 L 268.27 287.77 L 268.27 288.15 L 268 288.15 L 268 288.62 L 267.81 288.62 L 267.81 289 L 267.65 289 L 267.65 289.58 L 267.81 289.58 L 267.81 289.96 L 267.96 289.96 L 267.96 290.5 L 268.15 290.5 L 268.15 290.88 L 268.31 290.88 L 268.31 290.5 L 268.5 290.5 L 268.5 289.96 L 268.65 289.96 L 268.65 289.58 L 268.46 289.58 L 268.46 289 L 268.69 289 L 268.69 289.35 L 268.85 289.35 L 268.85 290.04 L 269.04 290.04 L 269.04 290.54 L 268.85 290.54 L 268.85 290.92 L 268.65 290.92 L 268.65 291.38 L 268.5 291.38 L 268.5 291.88 L 268.31 291.88 L 268.31 292.35 L 268.12 292.35 L 268.12 291.92 L 268 291.92 L 268 291.54 L 267.85 291.54 L 267.85 291.08 L 267.77 291.08 L 267.77 290.73 L 267.65 290.73 L 267.65 292.08 L 267.81 292.08 L 267.81 292.54 L 267.96 292.54 L 267.96 292.85 L 268.12 292.85 L 268.12 293.15 L 267.96 293.15 L 267.96 293.42 L 267.81 293.42 L 267.81 293.88 L 267.65 293.88 L 267.65 295.27 L 267.77 295.27 L 267.77 294.88 L 267.85 294.88 L 267.85 294.42 L 268 294.42 L 268 294.08 L 268.12 294.08 L 268.12 293.62 L 268.31 293.62 L 268.31 294.08 L 268.5 294.08 L 268.5 294.58 L 268.65 294.58 L 268.65 295.04 L 268.85 295.04 L 268.85 295.42 L 269.04 295.42 L 269.04 295.92 L 268.85 295.92 L 268.85 296.62 L 268.69 296.62 L 268.69 297 L 268.46 297 L 268.46 296.42 L 268.65 296.42 L 268.65 296.04 L 268.5 296.04 L 268.5 295.46 L 268.31 295.46 L 268.31 295.08 L 268.15 295.08 L 268.15 295.46 L 267.96 295.46 L 267.96 296.04 L 267.81 296.04 L 267.81 296.42 L 267.65 296.42 L 267.65 297 L 267.81 297 L 267.81 297.38 L 268 297.38 L 268 297.81 L 268.27 297.81 L 268.27 298.19 L 268.38 298.19 L 268.38 298.46 L 268.58 298.46 L 268.58 298.19 L 268.69 298.19 L 268.69 297.81 L 268.92 297.81 L 268.92 297.38 L 269.08 297.38 L 269.08 296.88 L 269.35 296.88 Z M 269.35 296.88" />
    <path fill="#ffffff" fill-rule="evenodd" d="M 269.35 295.19 L 269.35 294.77 L 269.5 294.77 L 269.5 294.38 L 269.65 294.38 L 269.65 293.88 L 269.85 293.88 L 269.85 293.42 L 270.04 293.42 L 270.04 293.15 L 270.15 293.15 L 270.15 292.85 L 270.04 292.85 L 270.04 292.54 L 269.85 292.54 L 269.85 292.08 L 269.65 292.08 L 269.65 291.62 L 269.5 291.62 L 269.5 291.19 L 269.35 291.19 L 269.35 290.81 L 269.08 290.81 L 269.08 291.19 L 268.96 291.19 L 268.96 291.62 L 268.81 291.62 L 268.81 292.08 L 268.62 292.08 L 268.62 292.54 L 268.42 292.54 L 268.42 292.85 L 268.27 292.85 L 268.27 293.15 L 268.42 293.15 L 268.42 293.42 L 268.62 293.42 L 268.62 293.88 L 268.81 293.88 L 268.81 294.38 L 268.96 294.38 L 268.96 294.77 L 269.08 294.77 L 269.08 295.19 L 269.35 295.19 Z M 269.35 295.19" />
    <path fill="#ed3424" fill-rule="evenodd" d="M 269.31 293.35 L 269.31 293.58 L 269.46 293.58 L 269.46 293.81 L 269.58 293.81 L 269.58 293.35 L 269.46 293.35 L 269.46 293.15 L 269.35 293.15 L 269.35 292.85 L 269.46 292.85 L 269.46 292.62 L 269.58 292.62 L 269.58 292.15 L 269.46 292.15 L 269.46 292.38 L 269.31 292.38 L 269.31 292.62 L 269.12 292.62 L 269.12 292.38 L 269 292.38 L 269 292.15 L 268.85 292.15 L 268.85 292.62 L 269 292.62 L 269 292.85 L 269.12 292.85 L 269.12 293.15 L 269 293.15 L 269 293.35 L 268.85 293.35 L 268.85 293.81 L 269 293.81 L 269 293.58 L 269.12 293.58 L 269.12 293.35 L 269.31 293.35 Z M 269.31 293.35" />
    <path fill="#ffffff" fill-rule="evenodd" d="M 268.58 286.15 L 268.58 285.81 L 268.73 285.81 L 268.73 285.42 L 268.88 285.42 L 268.88 284.96 L 268.73 284.96 L 268.73 284.58 L 268.58 284.58 L 268.58 284.23 L 268.38 284.23 L 268.38 284.58 L 268.23 284.58 L 268.23 284.96 L 268.08 284.96 L 268.08 285.42 L 268.23 285.42 L 268.23 285.81 L 268.38 285.81 L 268.38 286.15 L 268.58 286.15 Z M 268.58 286.15" />
    <path fill="#ffffff" fill-rule="evenodd" d="M 268.58 299.85 L 268.58 300.15 L 268.73 300.15 L 268.73 300.58 L 268.88 300.58 L 268.88 301 L 268.73 301 L 268.73 301.42 L 268.58 301.42 L 268.58 301.77 L 268.38 301.77 L 268.38 301.42 L 268.23 301.42 L 268.23 301 L 268.08 301 L 268.08 300.58 L 268.23 300.58 L 268.23 300.15 L 268.38 300.15 L 268.38 299.85 L 268.58 299.85 Z M 268.58 299.85" />
    <path fill="#ffffff" fill-rule="evenodd" d="M 269.88 286.15 L 269.88 285.81 L 269.73 285.81 L 269.73 285.42 L 269.54 285.42 L 269.54 284.96 L 269.73 284.96 L 269.73 284.58 L 269.88 284.58 L 269.88 284.23 L 270.04 284.23 L 270.04 284.58 L 270.19 284.58 L 270.19 284.96 L 270.38 284.96 L 270.38 285.42 L 270.19 285.42 L 270.19 285.81 L 270.04 285.81 L 270.04 286.15 L 269.88 286.15 Z M 269.88 286.15" />
    <path fill="#ffffff" fill-rule="evenodd" d="M 269.88 299.85 L 269.88 300.15 L 269.73 300.15 L 269.73 300.58 L 269.54 300.58 L 269.54 301 L 269.73 301 L 269.73 301.42 L 269.88 301.42 L 269.88 301.77 L 270.04 301.77 L 270.04 301.42 L 270.19 301.42 L 270.19 301 L 270.38 301 L 270.38 300.58 L 270.19 300.58 L 270.19 300.15 L 270.04 300.15 L 270.04 299.85 L 269.88 299.85 Z M 269.88 299.85" />
    <path stroke-linejoin="miter" stroke-linecap="butt" stroke-width="1" stroke="#b3b9bd" fill="none" fill-rule="evenodd" d="M 764 283 L 794 283 L 794 303 L 764 303 L 764 283 Z M 764 283" />
    <path stroke-linejoin="miter" stroke-linecap="butt" stroke-width="1" stroke="#b3b9bd" fill="none" fill-rule="evenodd" d="M 267 283 L 297 283 L 297 303 L 267 303 L 267 283 Z M 267 283" />
    <path fill="#0092c0" fill-rule="evenodd" d="M 435 283 L 465 283 L 465 303 L 435 303 L 435 283 Z M 435 283" />
    <path fill="#fff100" fill-rule="evenodd" d="M 450.17 286.69 C 450.12 286.96 449.92 287.58 449.92 287.73 C 449.92 287.85 450.02 287.92 450.17 287.92 C 450.32 287.92 450.42 287.85 450.42 287.73 C 450.42 287.62 450.22 286.96 450.17 286.69 L 450.17 286.69 Z M 450.17 286.69" />
    <path fill="#fff100" fill-rule="evenodd" d="M 449.23 286.81 C 449.23 287.08 449.19 287.73 449.23 287.85 C 449.28 287.96 449.37 288.04 449.51 288 C 449.65 287.96 449.75 287.88 449.7 287.77 C 449.65 287.65 449.33 287.04 449.23 286.81 L 449.23 286.81 Z M 449.23 286.81" />
    <path fill="#fff100" fill-rule="evenodd" d="M 448.35 287.08 C 448.38 287.35 448.5 288 448.54 288.12 C 448.58 288.23 448.69 288.27 448.81 288.23 C 448.92 288.19 448.96 288.08 448.92 287.96 C 448.88 287.85 448.5 287.27 448.35 287.08 L 448.35 287.08 Z M 448.35 287.08" />
    <path fill="#fff100" fill-rule="evenodd" d="M 447.58 287.5 C 447.69 287.77 447.88 288.35 447.96 288.46 C 448.04 288.54 448.15 288.58 448.23 288.5 C 448.31 288.42 448.35 288.31 448.27 288.23 C 448.23 288.15 447.77 287.69 447.58 287.5 L 447.58 287.5 Z M 447.58 287.5" />
    <path fill="#fff100" fill-rule="evenodd" d="M 446.88 288.08 C 447.04 288.31 447.35 288.85 447.46 288.96 C 447.54 289.04 447.65 289.04 447.73 288.96 C 447.81 288.88 447.81 288.77 447.73 288.65 C 447.65 288.58 447.12 288.23 446.88 288.08 L 446.88 288.08 Z M 446.88 288.08" />
    <path fill="#fff100" fill-rule="evenodd" d="M 446.31 288.81 C 446.5 289 446.92 289.5 447.04 289.54 C 447.12 289.62 447.27 289.58 447.31 289.5 C 447.38 289.42 447.35 289.27 447.27 289.23 C 447.15 289.12 446.58 288.88 446.31 288.81 L 446.31 288.81 Z M 446.31 288.81" />
    <path fill="#fff100" fill-rule="evenodd" d="M 445.88 289.62 C 446.12 289.77 446.62 290.15 446.73 290.19 C 446.85 290.23 446.96 290.19 447 290.08 C 447.04 289.96 447 289.85 446.88 289.81 C 446.81 289.77 446.15 289.65 445.88 289.62 L 445.88 289.62 Z M 445.88 289.62" />
    <path fill="#fff100" fill-rule="evenodd" d="M 445.65 290.51 C 445.88 290.64 446.46 290.96 446.58 290.96 C 446.69 291 446.81 290.91 446.81 290.78 C 446.85 290.64 446.77 290.51 446.65 290.51 C 446.54 290.46 445.88 290.46 445.65 290.51 L 445.65 290.51 Z M 445.65 290.51" />
    <path fill="#fff100" fill-rule="evenodd" d="M 445.54 291.44 C 445.81 291.49 446.42 291.69 446.54 291.69 C 446.65 291.69 446.73 291.59 446.73 291.44 C 446.73 291.29 446.65 291.19 446.54 291.19 C 446.42 291.19 445.81 291.39 445.54 291.44 L 445.54 291.44 Z M 445.54 291.44" />
    <path fill="#fff100" fill-rule="evenodd" d="M 445.88 293.19 C 446.15 293.15 446.77 293.04 446.88 293 C 447 292.96 447.04 292.85 447 292.73 C 446.96 292.62 446.85 292.58 446.73 292.62 C 446.65 292.65 446.12 293.04 445.88 293.19 L 445.88 293.19 Z M 445.88 293.19" />
    <path fill="#fff100" fill-rule="evenodd" d="M 446.31 294 C 446.54 293.88 447.15 293.65 447.23 293.62 C 447.31 293.54 447.35 293.42 447.27 293.35 C 447.19 293.27 447.08 293.23 447 293.31 C 446.92 293.31 446.5 293.81 446.31 294 L 446.31 294 Z M 446.31 294" />
    <path fill="#fff100" fill-rule="evenodd" d="M 446.88 294.73 C 447.12 294.58 447.65 294.23 447.73 294.15 C 447.81 294.08 447.81 293.96 447.73 293.85 C 447.65 293.77 447.54 293.77 447.46 293.85 C 447.35 293.92 447.04 294.5 446.88 294.73 L 446.88 294.73 Z M 446.88 294.73" />
    <path fill="#fff100" fill-rule="evenodd" d="M 447.58 295.31 C 447.77 295.12 448.23 294.65 448.31 294.58 C 448.38 294.5 448.35 294.35 448.27 294.31 C 448.19 294.23 448.04 294.27 448 294.35 C 447.88 294.42 447.65 295.04 447.58 295.31 L 447.58 295.31 Z M 447.58 295.31" />
    <path fill="#fff100" fill-rule="evenodd" d="M 448.35 295.73 C 448.5 295.5 448.88 294.96 448.92 294.85 C 448.96 294.73 448.92 294.62 448.81 294.58 C 448.69 294.54 448.58 294.58 448.54 294.69 C 448.5 294.81 448.42 295.46 448.35 295.73 L 448.35 295.73 Z M 448.35 295.73" />
    <path fill="#fff100" fill-rule="evenodd" d="M 449.19 296 C 449.34 295.77 449.68 295.15 449.68 295.04 C 449.73 294.92 449.63 294.81 449.48 294.81 C 449.34 294.77 449.19 294.85 449.19 294.96 L 449.19 296 L 449.19 296 Z M 449.19 296" />
    <path fill="#fff100" fill-rule="evenodd" d="M 451.08 296 C 451.08 295.73 451.13 295.08 451.08 294.96 C 451.04 294.85 450.94 294.77 450.8 294.81 C 450.66 294.85 450.57 294.92 450.62 295.04 C 450.62 295.15 450.94 295.77 451.08 296 L 451.08 296 Z M 451.08 296" />
    <path fill="#fff100" fill-rule="evenodd" d="M 451.85 295.73 C 451.81 295.46 451.69 294.81 451.65 294.69 C 451.62 294.58 451.5 294.54 451.38 294.58 C 451.27 294.62 451.23 294.73 451.27 294.85 C 451.31 294.96 451.69 295.5 451.85 295.73 L 451.85 295.73 Z M 451.85 295.73" />
    <path fill="#fff100" fill-rule="evenodd" d="M 452.62 295.31 C 452.5 295.04 452.31 294.42 452.23 294.35 C 452.15 294.27 452.04 294.23 451.96 294.31 C 451.88 294.38 451.85 294.5 451.92 294.58 C 451.96 294.65 452.46 295.12 452.62 295.31 L 452.62 295.31 Z M 452.62 295.31" />
    <path fill="#fff100" fill-rule="evenodd" d="M 453.31 294.73 C 453.15 294.5 452.85 293.96 452.73 293.85 C 452.65 293.77 452.54 293.77 452.46 293.85 C 452.38 293.92 452.38 294.04 452.46 294.15 C 452.54 294.23 453.12 294.58 453.31 294.73 L 453.31 294.73 Z M 453.31 294.73" />
    <path fill="#fff100" fill-rule="evenodd" d="M 453.88 294 C 453.69 293.81 453.27 293.31 453.15 293.27 C 453.08 293.19 452.92 293.23 452.88 293.31 C 452.81 293.38 452.85 293.54 452.92 293.58 C 453.04 293.65 453.65 293.92 453.88 294 L 453.88 294 Z M 453.88 294" />
    <path fill="#fff100" fill-rule="evenodd" d="M 454.31 293.19 C 454.08 293.04 453.58 292.65 453.46 292.62 C 453.35 292.58 453.23 292.62 453.19 292.73 C 453.15 292.85 453.19 292.96 453.31 293 C 453.42 293.04 454.04 293.15 454.31 293.19 L 454.31 293.19 Z M 454.31 293.19" />
    <path fill="#fff100" fill-rule="evenodd" d="M 454.65 291.44 C 454.38 291.39 453.77 291.19 453.65 291.19 C 453.54 291.19 453.46 291.29 453.46 291.44 C 453.46 291.59 453.54 291.68 453.65 291.68 C 453.77 291.73 454.38 291.54 454.65 291.44 L 454.65 291.44 Z M 454.65 291.44" />
    <path fill="#fff100" fill-rule="evenodd" d="M 454.31 289.62 C 454.04 289.65 453.42 289.77 453.31 289.81 C 453.19 289.85 453.15 289.96 453.19 290.08 C 453.23 290.19 453.35 290.23 453.46 290.19 C 453.58 290.15 454.08 289.77 454.31 289.62 L 454.31 289.62 Z M 454.31 289.62" />
    <path fill="#fff100" fill-rule="evenodd" d="M 453.88 288.81 C 453.65 288.92 453.04 289.15 452.96 289.19 C 452.88 289.27 452.85 289.38 452.92 289.46 C 453 289.54 453.12 289.58 453.19 289.5 C 453.27 289.46 453.69 289 453.88 288.81 L 453.88 288.81 Z M 453.88 288.81" />
    <path fill="#fff100" fill-rule="evenodd" d="M 453.31 288.08 C 453.08 288.23 452.54 288.58 452.46 288.65 C 452.38 288.73 452.38 288.88 452.46 288.96 C 452.54 289.04 452.65 289.04 452.73 288.96 C 452.85 288.88 453.19 288.31 453.31 288.08 L 453.31 288.08 Z M 453.31 288.08" />
    <path fill="#fff100" fill-rule="evenodd" d="M 452.62 287.5 C 452.42 287.69 451.96 288.15 451.88 288.23 C 451.81 288.31 451.85 288.46 451.92 288.5 C 452 288.58 452.15 288.54 452.19 288.46 C 452.31 288.38 452.54 287.73 452.62 287.5 L 452.62 287.5 Z M 452.62 287.5" />
    <path fill="#fff100" fill-rule="evenodd" d="M 451.85 287.08 C 451.69 287.31 451.31 287.85 451.27 287.96 C 451.23 288.08 451.27 288.19 451.38 288.23 C 451.5 288.27 451.62 288.23 451.65 288.12 C 451.69 288 451.81 287.35 451.85 287.08 L 451.85 287.08 Z M 451.85 287.08" />
    <path fill="#fff100" fill-rule="evenodd" d="M 450.12 294.5 C 451.77 294.5 453.15 293.12 453.15 291.38 C 453.15 289.65 451.81 288.27 450.12 288.27 C 448.46 288.27 447.12 289.65 447.12 291.38 C 447.12 293.12 448.42 294.5 450.12 294.5 L 450.12 294.5 Z M 450.12 294.5" />
    <path fill="#fff100" fill-rule="evenodd" d="M 449.96 296.58 C 449.77 296.62 449.15 296.54 448.81 296.38 C 448.23 296.15 447.65 296 447.38 295.73 C 447 295.38 445.73 294.65 445.23 292.65 C 445.15 292.27 445.15 292.12 445.04 292.12 C 445 292.12 444.92 292.42 445 292.77 C 445.04 293.12 444.96 293.08 444.77 292.62 C 444.62 292.19 444.5 291.85 444.46 291.54 C 444.42 291.27 444.23 291.5 444.27 291.88 C 444.31 292.19 444.54 292.85 444.77 293.19 C 444.96 293.5 444.81 293.5 444.62 293.23 C 444.42 292.96 444.15 292.58 444 292.12 C 443.85 291.69 443.85 292.31 443.92 292.54 C 444.12 293.15 444.58 293.73 444.81 293.96 C 445.04 294.23 444.96 294.27 444.73 294.12 C 444.5 293.92 444.42 293.92 444.15 293.62 C 443.88 293.31 443.77 293.46 444.04 293.77 C 444.27 294.08 444.54 294.31 444.81 294.58 C 444.96 294.69 445.12 294.85 444.85 294.81 C 444.69 294.77 444.46 294.62 444.35 294.5 C 444.23 294.38 444.08 294.38 444.23 294.62 C 444.38 294.85 444.81 295.23 445.15 295.35 C 445.27 295.38 445.19 295.46 444.92 295.42 C 444.69 295.38 444.85 295.54 444.96 295.62 C 445.08 295.69 445.27 295.73 445.42 295.77 C 445.58 295.81 445.54 295.85 445.38 295.88 C 445.27 295.88 445.15 295.88 445.08 295.85 C 445 295.81 445.08 295.92 445.15 295.96 C 445.23 296 445.38 296.04 445.46 296.04 C 445.58 296.04 445.54 296.19 445.42 296.15 C 445.31 296.12 445.19 296.12 445.23 296.19 C 445.31 296.27 445.62 296.35 445.85 296.35 C 446.08 296.35 446 296.42 445.88 296.46 C 445.77 296.5 445.65 296.5 445.58 296.5 C 445.5 296.5 445.46 296.62 445.62 296.62 C 445.81 296.62 446.04 296.65 446.38 296.81 C 446.85 297.04 447.5 297.27 447.92 297.23 C 448.31 297.19 448.12 297.08 447.92 297.08 C 447.62 297.12 447.35 296.88 447.15 296.88 C 446.92 296.88 446.62 296.62 446.42 296.62 C 446.31 296.62 446.23 296.5 446.38 296.46 C 446.54 296.42 446.58 296.35 446.54 296.31 C 446.5 296.23 446.27 296.31 446.12 296.23 C 446 296.19 446 296.12 446.12 296.08 C 446.23 296 446.15 295.92 445.96 295.92 C 445.77 295.92 445.73 295.81 445.81 295.73 C 445.88 295.65 445.85 295.62 445.77 295.62 C 445.65 295.62 445.69 295.54 445.73 295.5 C 445.81 295.46 445.77 295.42 445.69 295.42 C 445.5 295.38 445.38 295.23 445.27 295.15 C 445.15 295.12 445.15 295.04 445.23 295.08 C 445.27 295.08 445.35 295.04 445.27 295 C 445.15 294.88 445.27 294.85 445.12 294.73 C 445 294.65 444.92 294.58 444.96 294.5 C 445 294.42 445.19 294.46 445.23 294.38 C 445.23 294.31 444.96 294.15 444.96 294 C 444.96 293.92 445 293.92 445.08 293.96 C 445.12 294 445.19 294 445.19 293.92 C 445.19 293.85 445.19 293.81 445.31 293.88 C 445.62 294.08 446 294.62 446.35 295.15 C 446.58 295.54 446.85 295.69 447.04 295.73 C 447.31 295.81 447.85 296.19 448.08 296.38 C 448.23 296.54 448.35 296.62 448.62 296.58 C 448.88 296.54 449.19 296.58 449.42 296.69 C 449.65 296.81 449.88 296.92 450.08 296.65 C 450.12 296.58 450.12 296.58 449.96 296.58 L 449.96 296.58 Z M 449.96 296.58" />
    <path fill="#fff100" fill-rule="evenodd" d="M 451.62 296.69 C 451 296.69 450.62 296.77 450.46 296.88 C 450.19 297.12 450.12 297 450 297.12 C 449.88 297.19 449.77 297.23 449.69 297.19 C 449.62 297.15 449.62 297.12 449.73 297.08 C 449.85 297.04 449.96 296.92 450.04 296.85 C 450.23 296.62 450.58 296.58 450.88 296.5 C 451.81 296.31 453.19 295.81 454.15 294.54 C 454.81 293.69 455.04 292.77 455.15 291.92 C 455.19 291.62 455.35 291.69 455.35 291.88 C 455.38 292.08 455.31 292.58 455.27 292.73 C 455.23 292.88 455.27 293 455.42 292.77 C 455.65 292.42 455.85 291.69 455.92 291.35 C 456 291 456.12 291.04 456.12 291.35 C 456.12 291.85 455.88 292.62 455.46 293.27 C 455.31 293.54 455.38 293.62 455.62 293.35 C 455.96 292.96 456.12 292.73 456.27 292.35 C 456.42 292 456.5 292.08 456.38 292.5 C 456.23 293.12 455.88 293.54 455.58 293.85 C 455.31 294.15 455.42 294.15 455.58 294.12 C 455.73 294.08 456 293.81 456.23 293.54 C 456.42 293.27 456.5 293.38 456.38 293.65 C 456.27 293.88 455.92 294.31 455.65 294.58 C 455.46 294.77 455.62 294.77 455.77 294.65 C 455.88 294.54 456 294.38 456.12 294.35 C 456.23 294.31 456.42 294.31 456.08 294.65 C 455.92 294.81 455.46 295.15 455.27 295.27 C 455.04 295.38 455.12 295.46 455.31 295.42 C 455.46 295.38 455.73 295.23 455.73 295.31 C 455.73 295.38 455.54 295.5 455.38 295.54 C 455.19 295.62 455.12 295.77 455.31 295.77 C 455.42 295.77 455.38 295.85 455.31 295.88 C 455.23 295.88 455.04 295.92 455.04 296 C 455.04 296.04 455.12 296.08 455.15 296.08 C 455.19 296.08 455.23 296.12 455.15 296.19 C 454.92 296.38 454.58 296.27 454.46 296.38 C 454.35 296.5 454.46 296.46 454.62 296.46 C 454.81 296.46 454.96 296.62 454.69 296.62 C 454.31 296.62 453.85 296.73 453.46 296.92 C 453.15 297.08 452.92 296.92 453.35 296.77 C 453.58 296.69 453.88 296.58 454 296.5 C 454.23 296.38 453.85 296.42 454.12 296.27 C 454.19 296.23 454.38 296.23 454.38 296.15 C 454.38 296.08 454.23 296.04 454.35 296 C 454.42 295.96 454.54 295.96 454.62 295.96 C 454.69 295.96 454.77 295.88 454.65 295.85 C 454.54 295.81 454.54 295.77 454.69 295.73 C 454.81 295.69 454.96 295.65 455.04 295.62 C 455.12 295.58 455.12 295.5 454.96 295.5 C 454.85 295.5 454.81 295.42 454.92 295.38 C 455.08 295.35 455.27 295.23 455.38 295.15 C 455.5 295.08 455.46 295.04 455.35 295 C 455.23 294.96 455.23 294.96 455.31 294.88 C 455.42 294.81 455.5 294.73 455.54 294.69 C 455.58 294.62 455.58 294.54 455.46 294.54 C 455.31 294.54 455.27 294.54 455.27 294.38 C 455.27 294.23 455.31 294.19 455.38 294.08 C 455.46 293.96 455.38 293.88 455.19 293.96 C 454.85 294.12 454.73 294.15 454.58 294.38 C 454.42 294.65 454.19 294.92 454.08 295.15 C 453.96 295.38 453.69 295.65 453.46 295.73 C 453.19 295.81 452.62 296.08 452.38 296.27 C 451.88 296.62 451.96 296.69 451.62 296.69 L 451.62 296.69 Z M 451.62 296.69" />
    <path fill="#fff100" fill-rule="evenodd" d="M 448.38 298.23 C 448.27 298.08 448.38 297.92 448.58 297.85 C 448.62 297.81 448.69 297.92 448.88 297.92 C 449.08 297.92 449.27 297.88 449.15 297.77 C 449.12 297.69 449.08 297.65 449.15 297.65 C 449.19 297.65 449.23 297.65 449.23 297.62 C 449.27 297.62 449.31 297.58 449.35 297.62 C 449.38 297.62 449.42 297.65 449.46 297.62 C 449.5 297.62 449.54 297.65 449.5 297.69 C 449.38 297.81 449.46 297.88 449.54 297.85 C 449.62 297.85 449.77 297.81 449.85 297.85 C 449.92 297.88 450 297.88 450.08 297.85 C 450.15 297.85 450.27 297.85 450.42 297.88 C 450.58 297.96 450.58 298.08 450.42 298.04 C 450.08 297.96 449.81 297.96 449.62 298 C 449.42 298.04 449.12 298 448.88 297.96 C 448.73 298.04 448.54 298 448.38 298.23 L 448.38 298.23 Z M 448.38 298.23" />
    <path fill="#fff100" fill-rule="evenodd" d="M 449.65 298.31 C 449.54 298.46 449.38 298.58 449.23 298.62 C 449.08 298.65 448.96 298.73 449.19 298.77 C 449.42 298.81 449.5 298.73 449.62 298.69 C 449.73 298.65 449.77 298.54 449.85 298.65 C 449.92 298.77 450 298.77 450.12 298.65 C 450.19 298.58 450.23 298.54 450.31 298.54 C 450.38 298.54 450.42 298.58 450.35 298.65 C 450.27 298.73 450.35 298.88 450.46 298.73 C 450.58 298.62 450.65 298.54 450.73 298.54 C 450.85 298.54 450.81 298.58 450.73 298.65 C 450.65 298.73 450.62 298.77 450.77 298.77 C 450.92 298.77 451 298.73 451.04 298.65 C 451.08 298.58 451.12 298.5 451.27 298.62 C 451.38 298.73 451.46 298.81 451.5 298.69 C 451.58 298.58 451.58 298.54 451.65 298.62 C 451.73 298.69 452.04 298.62 452.08 298.46 C 452.08 298.38 452.08 298.31 452.19 298.42 C 452.31 298.5 452.5 298.5 452.5 298.38 C 452.5 298.27 452.58 298.23 452.69 298.31 C 452.81 298.35 452.92 298.38 453 298.31 C 453.08 298.23 453.08 298.19 453.04 298.12 C 453 298.04 453 297.92 453.15 298 C 453.38 298.08 453.62 298.19 453.81 297.96 C 453.96 297.77 454.04 297.69 453.77 297.73 C 453.5 297.73 453 297.69 452.77 297.65 C 452.54 297.62 452.23 297.58 452.19 297.58 C 452.12 297.58 452.12 297.62 452.12 297.65 C 452.12 297.69 452.04 297.69 452.04 297.77 C 452.04 297.85 451.96 297.88 451.92 297.85 C 451.85 297.81 451.85 297.85 451.85 297.92 C 451.88 298 451.88 298.08 451.77 298.04 C 451.5 298 451.38 298.08 451.19 298.15 C 450.81 298.35 450.54 298.35 450.23 298.31 C 449.88 298.19 449.77 298.15 449.65 298.31 L 449.65 298.31 Z M 449.65 298.31" />
    <path fill="#fff100" fill-rule="evenodd" d="M 437.54 297.5 C 437.54 297.27 437.12 296.62 436.54 296.92 C 435.81 297.35 436.92 298.92 437.27 299.77 C 437.46 300.23 437.23 300.5 437 300.5 C 436.77 300.54 436.65 300.38 436.62 300.23 C 436.58 300.12 436.69 300 436.85 299.96 C 436.96 299.96 437.04 300.04 437 300.12 C 436.73 300.04 436.69 300.35 436.92 300.35 C 437.23 300.35 437.27 300.04 437.15 299.88 C 437.04 299.77 436.77 299.77 436.69 299.88 C 436.73 299.77 436.77 299.62 436.77 299.46 C 436.77 299.38 436.81 299.19 436.88 299.12 C 436.85 299.08 436.73 299.15 436.73 299.19 C 436.69 299.04 436.58 298.92 436.42 298.85 C 436.62 299.23 436.62 299.58 436.5 299.85 C 436.35 300.19 436.46 300.73 437.08 300.65 C 437.62 300.62 437.69 300.08 437.31 299.35 C 436.92 298.62 436.15 297.31 436.69 297.08 C 436.88 297 437.15 297.38 437.27 297.65 C 437.35 297.73 437.31 298 437.23 298 L 437.19 298 L 437.19 298 L 436.54 298 L 436.54 297.54 C 436.54 297.54 436.46 297.58 436.46 297.62 L 436.54 297.69 L 436.54 298.38 L 437.15 298.38 L 437.15 298.38 L 437.31 298.38 C 437.35 298.38 437.31 297.69 437.31 297.77 L 437.31 298.38 C 437.31 298.46 437.15 298.42 437.15 298.31 C 437.15 298.27 437.12 298.23 437.08 298.27 C 436.88 298.46 436.92 298.62 437.31 298.54 L 437.31 299.54 L 437.69 299.54 L 437.69 298.54 C 437.69 298.62 438.12 298.46 437.92 298.27 C 437.88 298.23 437.85 298.27 437.88 298.31 C 437.88 298.42 437.69 298.42 437.69 298.38 L 437.69 297.77 C 437.69 297.69 437.73 298.38 437.77 298.38 C 437.77 298.38 437.69 298.38 438.08 298.38 L 438.08 298.38 L 438.08 298.38 L 438.08 297.69 C 438.08 297.69 438.15 297.65 438.15 297.62 C 438.15 297.58 438.08 297.54 438.08 297.54 L 438.08 298 L 438.08 298 L 438.08 298 L 437.85 298 C 437.77 298 437.73 297.73 437.77 297.65 C 437.92 297.38 438.19 297.12 438.35 297.19 C 438.88 297.42 438.12 298.65 437.73 299.38 C 437.35 300.12 437.46 300.62 438.04 300.69 C 438.65 300.77 438.77 300.19 438.62 299.85 C 438.5 299.58 438.5 299.23 438.69 298.85 C 438.54 298.92 438.42 299.04 438.38 299.15 C 438.38 299.12 438.31 299.08 438.23 299.08 C 438.31 299.12 438.35 299.35 438.31 299.42 C 438.31 299.58 438.35 299.73 438.38 299.85 C 438.31 299.73 438.04 299.73 437.92 299.85 C 437.81 299.96 437.85 300.31 438.15 300.31 C 438.38 300.31 438.31 299.96 438.08 300.08 C 438.04 300 438.12 299.92 438.23 299.92 C 438.35 299.92 438.46 300.08 438.46 300.19 C 438.42 300.35 438.35 300.5 438.08 300.46 C 437.85 300.42 437.65 300.19 437.81 299.73 C 438.15 298.88 439.27 297.27 438.54 296.88 C 437.96 296.58 437.54 297.23 437.54 297.5 L 437.54 297.5 Z M 437.54 297.5" />
    <path fill="#fff100" fill-rule="evenodd" d="M 437.54 302.5 C 437.69 302.65 437.88 302.65 438.04 302.54 C 438.35 302.31 437.96 302 437.85 301.62 C 437.69 301.15 437.81 300.88 438.08 300.85 C 438.31 300.81 438.42 300.96 438.46 301.12 C 438.5 301.23 438.38 301.35 438.23 301.38 C 438.12 301.38 438.04 301.31 438.08 301.23 C 438.35 301.31 438.38 301 438.15 301 C 437.85 301 437.81 301.31 437.92 301.46 C 438.04 301.58 438.31 301.58 438.38 301.46 C 438.35 301.58 438.31 301.73 438.31 301.88 C 438.31 301.96 438.27 302.15 438.23 302.23 C 438.27 302.27 438.38 302.19 438.38 302.15 C 438.42 302.31 438.54 302.42 438.69 302.5 C 438.5 302.12 438.5 301.77 438.62 301.5 C 438.77 301.15 438.65 300.62 438.04 300.69 C 437.46 300.77 437.35 301.35 437.81 302.15 C 437.96 302.42 437.58 302.46 437.54 302.23 C 437.5 302.46 437.12 302.42 437.27 302.15 C 437.73 301.35 437.62 300.77 437.04 300.69 C 436.42 300.62 436.31 301.15 436.46 301.5 C 436.58 301.77 436.58 302.12 436.38 302.5 C 436.54 302.42 436.65 302.31 436.69 302.15 C 436.69 302.19 436.77 302.23 436.85 302.23 C 436.77 302.19 436.73 301.96 436.73 301.88 C 436.73 301.73 436.69 301.54 436.65 301.46 C 436.73 301.58 437 301.58 437.12 301.46 C 437.23 301.35 437.19 301 436.88 301 C 436.65 301 436.73 301.35 436.96 301.23 C 437 301.31 436.92 301.38 436.81 301.38 C 436.69 301.38 436.58 301.23 436.58 301.12 C 436.62 300.96 436.69 300.81 436.96 300.85 C 437.27 300.88 437.35 301.15 437.19 301.62 C 437.08 302 436.69 302.31 437 302.54 C 437.19 302.65 437.38 302.65 437.54 302.5 L 437.54 302.5 Z M 437.54 302.5" />
    <path fill="#fff100" fill-rule="evenodd" d="M 437.54 296.15 C 437.54 296.38 437.12 297.04 436.54 296.73 C 435.81 296.31 436.92 294.73 437.27 293.88 C 437.46 293.42 437.23 293.15 437 293.15 C 436.77 293.12 436.65 293.27 436.62 293.42 C 436.58 293.54 436.69 293.65 436.85 293.69 C 437 293.73 437.04 293.62 437 293.54 C 436.73 293.62 436.69 293.31 436.92 293.31 C 437.23 293.31 437.27 293.62 437.15 293.77 C 437.04 293.88 436.77 293.88 436.69 293.77 C 436.73 293.88 436.77 294.04 436.77 294.19 C 436.77 294.27 436.81 294.46 436.88 294.54 C 436.85 294.58 436.73 294.5 436.73 294.46 C 436.69 294.62 436.58 294.73 436.42 294.81 C 436.62 294.42 436.62 294.08 436.5 293.81 C 436.35 293.46 436.46 292.92 437.08 293 C 437.62 293.04 437.69 293.58 437.31 294.31 C 436.92 295.04 436.15 296.35 436.69 296.58 C 436.88 296.65 437.15 296.85 437.31 296.62 C 437.35 296.54 437.31 296.85 437.23 296.85 L 437.19 296.85 L 437.19 296.85 L 436.54 296.85 L 436.54 296.12 C 436.54 296.12 436.46 296.08 436.46 296.04 C 436.46 296 436.54 295.96 436.54 295.96 L 436.54 296.46 L 437.15 296.46 L 437.15 296.46 L 437.31 296.46 C 437.35 296.46 437.31 295.96 437.31 295.88 L 437.31 295.27 C 437.31 295.19 437.15 295.23 437.15 295.35 C 437.15 295.38 437.12 295.42 437.08 295.38 C 436.88 295.19 436.92 295.04 437.31 295.12 C 437.31 294.96 437.31 295.69 437.31 295.31 C 437.31 294.92 437.69 294.92 437.69 295.31 C 437.69 295.69 437.69 294.96 437.69 295.12 C 437.69 295.04 438.12 295.19 437.92 295.38 C 437.88 295.42 437.85 295.38 437.88 295.35 C 437.88 295.23 437.69 295.19 437.69 295.27 L 437.69 295.88 C 437.69 295.96 437.73 296.46 437.77 296.46 C 437.77 296.46 437.69 296.46 438.08 296.46 L 438.08 296.46 L 438.08 296.46 L 438.08 295.96 C 438.08 295.96 438.15 296 438.15 296.04 C 438.15 296.08 438.08 296.12 438.08 296.12 L 438.08 296.85 L 438.08 296.85 L 438.08 296.85 L 437.85 296.85 C 437.77 296.85 437.73 296.54 437.77 296.62 C 437.92 296.85 438.19 296.85 438.35 296.77 C 438.88 296.54 438.12 295.15 437.73 294.42 C 437.35 293.69 437.46 293.12 438.04 293.04 C 438.65 292.96 438.77 293.5 438.62 293.85 C 438.5 294.12 438.5 294.46 438.69 294.81 C 438.54 294.73 438.42 294.62 438.38 294.46 C 438.38 294.5 438.31 294.54 438.23 294.54 C 438.31 294.5 438.35 294.27 438.31 294.19 C 438.31 294.04 438.35 293.85 438.38 293.77 C 438.31 293.88 438.04 293.88 437.92 293.77 C 437.81 293.65 437.85 293.31 438.15 293.31 C 438.38 293.31 438.31 293.65 438.08 293.54 C 438.04 293.62 438.12 293.69 438.23 293.69 C 438.35 293.69 438.46 293.54 438.46 293.42 C 438.42 293.27 438.35 293.12 438.08 293.15 C 437.85 293.19 437.65 293.42 437.81 293.88 C 438.15 294.73 439.27 296.35 438.54 296.73 C 437.96 297.08 437.54 296.42 437.54 296.15 L 437.54 296.15 Z M 437.54 296.15" />
    <path fill="#fff100" fill-rule="evenodd" d="M 437.54 288.46 C 437.54 288.69 437.12 289.35 436.54 289.04 C 435.81 288.62 436.92 287.04 437.27 286.19 C 437.42 285.69 437.19 285.46 437 285.42 C 436.73 285.42 436.65 285.54 436.62 285.69 C 436.58 285.85 436.69 285.96 436.85 285.96 C 436.96 285.96 437.04 285.88 437 285.81 C 436.73 285.88 436.69 285.58 436.92 285.58 C 437.23 285.58 437.27 285.88 437.15 286.04 C 437.04 286.15 436.77 286.15 436.69 286.04 C 436.69 286.12 436.73 286.31 436.73 286.46 C 436.73 286.54 436.77 286.73 436.85 286.81 C 436.77 286.81 436.65 286.77 436.69 286.73 C 436.62 286.85 436.54 287 436.38 287.04 C 436.58 286.65 436.58 286.31 436.46 286.04 C 436.31 285.73 436.38 285.19 437 285.27 C 437.62 285.31 437.69 285.85 437.31 286.62 C 436.92 287.35 436.15 288.65 436.69 288.88 C 436.88 288.96 437.15 289 437.27 288.73 C 437.35 288.62 437.31 288.77 437.23 288.77 L 437.19 288.77 L 437.19 288.77 L 436.54 288.77 L 436.54 288.42 C 436.54 288.42 436.46 288.38 436.46 288.35 C 436.46 288.31 436.54 288.27 436.54 288.27 L 436.54 288.38 L 437.15 288.38 L 437.15 288.38 L 437.31 288.38 C 437.35 288.38 437.31 288.23 437.31 288.19 L 437.31 287.58 C 437.31 287.5 437.15 287.54 437.15 287.65 C 437.15 287.69 437.12 287.73 437.08 287.69 C 436.88 287.46 436.92 287.35 437.31 287.42 C 437.31 287.23 437.31 287.62 437.31 287.23 L 437.69 287.23 C 437.69 287.62 437.69 287.23 437.69 287.42 C 437.69 287.35 438.12 287.5 437.92 287.69 C 437.88 287.73 437.85 287.69 437.88 287.65 C 437.88 287.54 437.69 287.5 437.69 287.58 L 437.69 288.19 C 437.69 288.23 437.73 288.38 437.77 288.38 C 437.77 288.38 437.69 288.38 438.08 288.38 L 438.08 288.38 L 438.08 288.38 L 438.08 288.27 C 438.08 288.27 438.15 288.31 438.15 288.35 C 438.15 288.38 438.08 288.42 438.08 288.42 L 438.08 288.77 L 438.08 288.77 L 438.08 288.77 L 437.85 288.77 C 437.77 288.77 437.73 288.62 437.77 288.73 C 437.92 289 438.19 289.04 438.35 288.96 C 438.88 288.73 438.12 287.38 437.73 286.65 C 437.35 285.92 437.46 285.35 438.04 285.27 C 438.65 285.19 438.77 285.73 438.62 286.08 C 438.5 286.35 438.5 286.69 438.69 287.08 C 438.54 287 438.42 286.85 438.38 286.73 C 438.38 286.77 438.31 286.81 438.23 286.81 C 438.31 286.73 438.35 286.54 438.35 286.46 C 438.35 286.31 438.38 286.12 438.42 286.04 C 438.35 286.12 438.08 286.15 437.92 286 C 437.81 285.88 437.88 285.54 438.15 285.58 C 438.38 285.58 438.31 285.92 438.08 285.81 C 438.04 285.88 438.12 286 438.23 285.96 C 438.35 285.96 438.46 285.85 438.46 285.69 C 438.42 285.54 438.35 285.42 438.08 285.42 C 437.85 285.46 437.65 285.69 437.81 286.15 C 438.15 287 439.27 288.62 438.54 289 C 437.96 289.35 437.54 288.69 437.54 288.46 L 437.54 288.46 Z M 437.54 288.46" />
    <path fill="#fff100" fill-rule="evenodd" d="M 437.54 283.46 C 437.65 283.31 437.88 283.27 438.04 283.38 C 438.35 283.62 437.96 283.92 437.85 284.31 C 437.69 284.77 437.81 285.04 438.08 285.08 C 438.31 285.12 438.42 284.96 438.46 284.81 C 438.46 284.65 438.35 284.54 438.23 284.54 C 438.12 284.5 438.04 284.62 438.08 284.69 C 438.35 284.62 438.38 284.92 438.15 284.92 C 437.85 284.92 437.81 284.62 437.92 284.46 C 438.04 284.35 438.31 284.35 438.38 284.46 C 438.38 284.35 438.35 284.19 438.35 284.04 C 438.35 283.96 438.31 283.77 438.27 283.69 C 438.31 283.69 438.38 283.73 438.38 283.77 C 438.42 283.65 438.54 283.5 438.69 283.42 C 438.5 283.81 438.5 284.15 438.62 284.42 C 438.77 284.77 438.65 285.31 438.04 285.23 C 437.46 285.19 437.35 284.62 437.81 283.77 C 437.96 283.5 437.58 283.46 437.54 283.69 C 437.46 283.46 437.12 283.5 437.27 283.77 C 437.73 284.58 437.62 285.15 437.04 285.23 C 436.38 285.31 436.31 284.77 436.46 284.42 C 436.58 284.15 436.58 283.81 436.38 283.42 C 436.54 283.5 436.62 283.65 436.69 283.77 C 436.69 283.73 436.77 283.69 436.85 283.69 C 436.77 283.77 436.73 283.96 436.73 284.04 C 436.73 284.19 436.69 284.38 436.65 284.46 C 436.73 284.35 437 284.35 437.12 284.46 C 437.27 284.62 437.19 284.96 436.92 284.92 C 436.69 284.92 436.73 284.62 437 284.69 C 437.04 284.62 436.96 284.5 436.85 284.54 C 436.69 284.54 436.58 284.65 436.62 284.77 C 436.65 284.92 436.73 285.08 437 285.04 C 437.31 285 437.38 284.73 437.23 284.27 C 437.12 283.92 436.73 283.62 437.04 283.38 C 437.19 283.27 437.38 283.31 437.54 283.46 L 437.54 283.46 Z M 437.54 283.46" />
    <path fill="#fff100" fill-rule="evenodd" d="M 437.54 289.77 C 437.54 289.5 437.12 288.88 436.54 289.19 C 435.81 289.62 436.92 291.19 437.27 292.04 C 437.46 292.5 437.23 292.77 437 292.77 C 436.77 292.81 436.65 292.65 436.62 292.5 C 436.58 292.38 436.69 292.27 436.85 292.23 C 437 292.19 437.04 292.31 437 292.38 C 436.73 292.31 436.69 292.62 436.92 292.62 C 437.23 292.62 437.27 292.31 437.15 292.15 C 437.04 292.04 436.77 292.04 436.69 292.15 C 436.73 292.04 436.77 291.88 436.77 291.73 C 436.77 291.65 436.81 291.46 436.88 291.38 C 436.85 291.35 436.73 291.42 436.73 291.46 C 436.69 291.35 436.58 291.19 436.42 291.12 C 436.62 291.5 436.62 291.85 436.5 292.12 C 436.35 292.46 436.46 293 437.08 292.92 C 437.62 292.88 437.69 292.35 437.31 291.62 C 436.92 290.88 436.15 289.58 436.69 289.35 C 436.88 289.27 437.15 289.46 437.27 289.73 C 437.35 289.85 437.31 289.92 437.23 289.92 L 437.19 289.92 L 437.19 289.92 L 436.54 289.92 L 436.54 289.81 C 436.54 289.81 436.46 289.85 436.46 289.88 C 436.46 289.92 436.54 289.96 436.54 289.96 L 436.54 290.69 L 437.15 290.69 L 437.15 290.69 L 437.31 290.69 C 437.35 290.69 437.31 290 437.31 290.04 L 437.31 290.65 C 437.31 290.73 437.15 290.69 437.15 290.58 C 437.15 290.54 437.12 290.5 437.08 290.54 C 436.88 290.73 436.92 290.88 437.31 290.81 L 437.31 291.85 C 437.31 292.23 437.69 292.23 437.69 291.85 L 437.69 290.81 C 437.69 290.88 438.12 290.73 437.92 290.54 C 437.88 290.5 437.85 290.54 437.88 290.58 C 437.88 290.69 437.69 290.73 437.69 290.65 L 437.69 290.04 C 437.69 290 437.73 290.69 437.77 290.69 C 437.77 290.69 437.69 290.69 438.08 290.69 L 438.08 290.69 L 438.08 290.69 L 438.08 289.96 C 438.08 289.96 438.15 289.92 438.15 289.88 C 438.15 289.85 438.08 289.81 438.08 289.81 L 438.08 289.92 L 438.08 289.92 L 438.08 289.92 L 437.85 289.92 C 437.77 289.92 437.73 289.85 437.77 289.73 C 437.92 289.46 438.19 289.31 438.35 289.38 C 438.88 289.62 438.12 290.88 437.73 291.65 C 437.35 292.38 437.46 292.92 438.04 293 C 438.65 293.08 438.77 292.54 438.62 292.19 C 438.5 291.92 438.5 291.58 438.69 291.19 C 438.54 291.27 438.42 291.38 438.38 291.54 C 438.38 291.5 438.31 291.46 438.23 291.46 C 438.31 291.5 438.35 291.73 438.31 291.81 C 438.31 291.96 438.35 292.15 438.38 292.23 C 438.31 292.12 438.04 292.12 437.92 292.23 C 437.81 292.35 437.85 292.69 438.15 292.69 C 438.38 292.69 438.31 292.35 438.08 292.46 C 438.04 292.38 438.12 292.31 438.23 292.31 C 438.35 292.31 438.46 292.46 438.46 292.58 C 438.42 292.73 438.35 292.88 438.08 292.85 C 437.85 292.85 437.65 292.58 437.81 292.12 C 438.15 291.27 439.27 289.65 438.54 289.27 C 437.96 288.88 437.54 289.54 437.54 289.77 L 437.54 289.77 Z M 437.54 289.77" />
    <path fill="#b3b9bd" opacity="0.5" fill-rule="evenodd" d="M 36.61 268 L 862 268 L 862 267 L 36.61 267 L 36.61 268 Z M 36.61 268" />
    <path stroke-linejoin="miter" stroke-linecap="square" stroke-dasharray="6,6" stroke-width="1" stroke="#979797" fill="none" opacity="0.5" fill-rule="evenodd" d="M 37.06 233.5 L 861.55 233.5" />
    <path stroke-linejoin="miter" stroke-linecap="square" stroke-dasharray="6,6" stroke-width="1" stroke="#979797" fill="none" opacity="0.5" fill-rule="evenodd" d="M 37.06 200.5 L 861.55 200.5" />
    <path stroke-linejoin="miter" stroke-linecap="square" stroke-dasharray="6,6" stroke-width="1" stroke="#979797" fill="none" opacity="0.5" fill-rule="evenodd" d="M 37.06 168.5 L 861.55 168.5" />
    <path stroke-linejoin="miter" stroke-linecap="square" stroke-dasharray="6,6" stroke-width="1" stroke="#979797" fill="none" opacity="0.5" fill-rule="evenodd" d="M 37.06 135.5 L 861.55 135.5" />
    <path stroke-linejoin="miter" stroke-linecap="square" stroke-dasharray="6,6" stroke-width="1" stroke="#979797" fill="none" opacity="0.5" fill-rule="evenodd" d="M 37.06 101.5 L 861.55 101.5" />
    <path stroke-linejoin="miter" stroke-linecap="square" stroke-dasharray="6,6" stroke-width="1" stroke="#979797" fill="none" opacity="0.5" fill-rule="evenodd" d="M 37.06 68.5 L 861.55 68.5" />
    <path stroke-linejoin="miter" stroke-linecap="square" stroke-dasharray="6,6" stroke-width="1" stroke="#979797" fill="none" opacity="0.5" fill-rule="evenodd" d="M 37.06 36.5 L 861.55 36.5" />
    <path stroke-linejoin="miter" stroke-linecap="square" stroke-dasharray="6,6" stroke-width="1" stroke="#979797" fill="none" opacity="0.5" fill-rule="evenodd" d="M 37.06 3.5 L 861.55 3.5" />
    <text font-weight="400" font-size="13" font-family="Open Sans" fill="#9c9c9c" y="273" x="21">
        <tspan>0</tspan>
    </text>
    <text font-weight="400" font-size="13" font-family="Open Sans" fill="#9c9c9c" y="240" x="7">
        <tspan>250</tspan>
    </text>
    <text font-weight="400" font-size="13" font-family="Open Sans" fill="#262626" y="326" x="94">
        <tspan></tspan>
    </text>
    <text font-weight="400" font-size="13" font-family="Open Sans" fill="#262626" y="326" x="253">
        <tspan></tspan>
    </text>
    <text font-weight="400" font-size="13" font-family="Open Sans" fill="#262626" y="323" x="419">
        <tspan></tspan>
    </text>
    <text font-weight="400" font-size="13" font-family="Open Sans" fill="#262626" y="326" x="584">
        <tspan></tspan>
    </text>
    <text font-weight="400" font-size="13" font-family="Open Sans" fill="#262626" y="323" x="759">
        <tspan></tspan>
    </text>
    <text font-weight="400" font-size="13" font-family="Open Sans" fill="#9c9c9c" y="206" x="7">
        <tspan>500</tspan>
    </text>
    <text font-weight="400" font-size="13" font-family="Open Sans" fill="#9c9c9c" y="175" x="7">
        <tspan>750</tspan>
    </text>
    <text font-weight="400" font-size="13" font-family="Open Sans" fill="#9c9c9c" y="142" x="1">
        <tspan>1000</tspan>
    </text>
    <text font-weight="400" font-size="13" font-family="Open Sans" fill="#9c9c9c" y="109" x="1">
        <tspan>1250</tspan>
    </text>
    <text font-weight="400" font-size="13" font-family="Open Sans" fill="#9c9c9c" y="75" x="1">
        <tspan>1500</tspan>
    </text>
    <text font-weight="400" font-size="14" font-family="Open Sans" fill="#262626" y="261" x="592">
        <tspan>0</tspan>
    </text>
    <text font-weight="400" font-size="14" font-family="Open Sans" fill="#262626" y="261" x="625">
        <tspan>0</tspan>
    </text>
    <text font-weight="400" font-size="14" font-family="Open Sans" fill="#262626" y="205" x="423">
        <tspan>400</tspan>
    </text>
    <text font-weight="400" font-size="14" font-family="Open Sans" fill="#262626" y="205" x="454">
        <tspan>400</tspan>
    </text>
    <text font-weight="400" font-size="14" font-family="Open Sans" fill="#262626" y="43" x="746">
        <tspan>1600</tspan>
    </text>
    <text font-weight="400" font-size="14" font-family="Open Sans" fill="#262626" y="91" x="780">
        <tspan>1270</tspan>
    </text>
    <text font-weight="400" font-size="13" font-family="Open Sans" fill="#9c9c9c" y="43" x="1">
        <tspan>1750</tspan>
    </text>
    <text font-weight="400" font-size="13" font-family="Open Sans" fill="#9c9c9c" y="11" x="0">
        <tspan>2000</tspan>
    </text>
    <path fill="#57c9f1" fill-rule="evenodd" d="M 419 210 L 449 210 L 449 267 L 419 267 L 419 210 Z M 419 210" />
    <path fill="#0e67b5" fill-rule="evenodd" d="M 451 210 L 481 210 L 481 267 L 451 267 L 451 210 Z M 451 210" />
    <text font-weight="400" font-size="14" font-family="Open Sans" fill="#262626" y="128" x="92">
        <tspan>1000</tspan>
    </text>
    <text font-weight="400" font-size="14" font-family="Open Sans" fill="#262626" y="261" x="136">
        <tspan>0</tspan>
    </text>
    <path fill="#57c9f1" fill-rule="evenodd" d="M 92 134 L 122 134 L 122 267 L 92 267 L 92 134 Z M 92 134" />
    <path fill="#0e67b5" fill-rule="evenodd" d="M 125 266 L 155 266 L 155 267 L 125 267 L 125 266 Z M 125 266" />
    <text font-weight="400" font-size="14" font-family="Open Sans" fill="#262626" y="261" x="297">
        <tspan>0</tspan>
    </text>
    <text font-weight="400" font-size="14" font-family="Open Sans" fill="#262626" y="185" x="257">
        <tspan>590</tspan>
    </text>
    <path fill="#57c9f1" fill-rule="evenodd" d="M 253 191 L 283 191 L 283 267 L 253 267 L 253 191 Z M 253 191" />
    <path fill="#0e67b5" fill-rule="evenodd" d="M 286 266 L 316 266 L 316 267 L 286 267 L 286 266 Z M 286 266" />
    <path fill="#57c9f1" fill-rule="evenodd" d="M 581 266 L 611 266 L 611 267 L 581 267 L 581 266 Z M 581 266" />
    <path fill="#0e67b5" fill-rule="evenodd" d="M 615 266 L 645 266 L 645 267 L 615 267 L 615 266 Z M 615 266" />
    <path fill="#57c9f1" fill-rule="evenodd" d="M 748 50 L 778 50 L 778 268 L 748 268 L 748 50 Z M 748 50" />
    <path fill="#0e67b5" fill-rule="evenodd" d="M 780 97 L 810 97 L 810 268 L 780 268 L 780 97 Z M 780 97" />
</svg>