<?xml version="1.0" encoding="utf-8"?>
<!-- Generator: Adobe Illustrator 19.0.0, SVG Export Plug-In . SVG Version: 6.00 Build 0)  -->
<svg version="1.1" id="Слой_1" xmlns="http://www.w3.org/2000/svg" xmlns:xlink="http://www.w3.org/1999/xlink" x="0px" y="0px"
	 width="17px" height="21px" viewBox="0 0 17 21" style="enable-background:new 0 0 17 21;" xml:space="preserve">
<style type="text/css">
	.st0{fill:#262626;}
</style>
<g id="XMLID_2_">
	<path id="XMLID_16_" class="st0" d="M13,4H4v5h9V4z M11,7H6V6h5V7z"/>
	<path id="XMLID_19_" class="st0" d="M17,14V0H3C1.318,0,0,1.318,0,3v13h0.14C0.029,16.315,0,16.648,0,17v1c0,1.678,1.322,3,3,3h14
		V14L17,14z M2,3c0-0.57,0.43-1,1-1h12v12H3c-0.145,0-0.285-0.02-0.425,0H2V3z M15,19H3c-0.528,0-1-0.473-1-1v-1
		c0-0.527,0.472-1,1-1h12V19z"/>
</g>
</svg>
