<?xml version="1.0" encoding="utf-8"?>
<!-- Generator: Adobe Illustrator 18.1.1, SVG Export Plug-In . SVG Version: 6.00 Build 0)  -->
<!DOCTYPE svg PUBLIC "-//W3C//DTD SVG 1.1//EN" "http://www.w3.org/Graphics/SVG/1.1/DTD/svg11.dtd" [
	<!ENTITY ns_extend "http://ns.adobe.com/Extensibility/1.0/">
	<!ENTITY ns_ai "http://ns.adobe.com/AdobeIllustrator/10.0/">
	<!ENTITY ns_graphs "http://ns.adobe.com/Graphs/1.0/">
	<!ENTITY ns_vars "http://ns.adobe.com/Variables/1.0/">
	<!ENTITY ns_imrep "http://ns.adobe.com/ImageReplacement/1.0/">
	<!ENTITY ns_sfw "http://ns.adobe.com/SaveForWeb/1.0/">
	<!ENTITY ns_custom "http://ns.adobe.com/GenericCustomNamespace/1.0/">
	<!ENTITY ns_adobe_xpath "http://ns.adobe.com/XPath/1.0/">
]>
<svg version="1.1" id="Layer_1" xmlns:x="&ns_extend;" xmlns:i="&ns_ai;" xmlns:graph="&ns_graphs;"
	 xmlns="http://www.w3.org/2000/svg" xmlns:xlink="http://www.w3.org/1999/xlink" x="0px" y="0px" viewBox="0 0 100.1 64.2"
	 enable-background="new 0 0 100.1 64.2" xml:space="preserve">
<metadata>
	<sfw  xmlns="&ns_sfw;">
		<slices></slices>
		<sliceSourceBounds  width="100.1" height="64.2" x="200.8" y="-283" bottomLeftOrigin="true"></sliceSourceBounds>
	</sfw>
</metadata>
<g>
	<path fill="#354568" d="M61.2,0.1C46.1-2.3,0,46,0,46s25.7-22.5,35.6-18.1c7.7,3.4-1.1,21-1.1,21C43.1,39.7,76.4,2.4,61.2,0.1"/>
	<path fill="#B5935B" d="M38.9,64.2c15.1,2.4,61.2-45.9,61.2-45.9S74.4,40.7,64.5,36.4c-7.7-3.4,1.1-21,1.1-21
		C57,24.6,23.8,61.8,38.9,64.2"/>
	<polyline fill="none" points="48.2,13.9 48.2,13.9 48.2,13.9 48.2,13.9 	"/>
	<path fill="#354568" d="M40.2,30.1c1.1-5.4,6.5-8.9,11.9-7.8c5.4,1.1,8.9,6.5,7.8,11.9c-1.1,5.4-6.5,8.9-11.9,7.8
		C42.5,40.8,39.1,35.5,40.2,30.1"/>
	<path fill="#B5935B" d="M52.1,22.3c-5.4-1.1-10.8,2.3-11.9,7.8c-0.9,4.2,1,8.3,4.4,10.5l10.9-16.9C54.5,23,53.4,22.5,52.1,22.3"/>
	<g>
		<path fill="#FFFFFF" d="M44.6,27.5c0.1,0,0.2-0.1,0.2-0.1c0.1,0,0.2-0.1,0.2-0.1c0-0.1-0.2,0-0.2-0.1c0-0.1,0.1-0.1,0-0.1
			c-0.1,0-0.1,0.1-0.2,0.1c-0.1,0-0.2,0-0.2,0c0,0.1,0.1,0.2,0.1,0.2C44.4,27.5,44.5,27.5,44.6,27.5z"/>
		<path fill="#FFFFFF" d="M44.3,28.2c0.1,0,0.2-0.1,0.3-0.2c0.2-0.2,0.3-0.4,0.5-0.4c0.2,0,0.2-0.1,0.3-0.2c0.1-0.1,0.1-0.2-0.1-0.2
			c-0.2,0-0.4,0.1-0.4,0.2c-0.1,0,0,0.2-0.2,0.2c-0.2,0.1-0.2-0.1-0.4,0c-0.1,0.1-0.3,0.1-0.3,0.1C44.2,28,44.2,28.3,44.3,28.2z"/>
		<path fill="#FFFFFF" d="M58.2,32.5c0-0.3-0.1-0.5-0.2-0.6c-0.1-0.1-0.2-0.2,0-0.3c0.1-0.1,0.1-0.2,0.1-0.3c0-0.2-0.1-0.1-0.2,0
			c-0.1,0.1-0.3,0-0.2,0.1c0.1,0.1,0.1,0.2,0.1,0.3c0,0.1,0.1,0.2,0.2,0.3c0,0.1,0.1,0.3,0.1,0.5c0,0.2-0.1,0.4-0.2,0.6
			c-0.1,0.1-0.3,0.3-0.4,0.5c-0.1,0.1-0.1,0.2-0.1,0.3c0,0,0.1,0.2,0.2,0.3c0.1,0.1,0.1-0.2,0.1-0.4c0-0.2,0.2-0.3,0.4-0.5
			C58.2,33,58.2,32.8,58.2,32.5z"/>
		<path fill="#FFFFFF" d="M57.2,32.2c0.1-0.2,0.1-0.6,0.1-0.8c0-0.3-0.2-0.5-0.3-0.7c-0.1-0.2,0-0.4-0.2-0.4c-0.2,0-0.2,0.2-0.3,0.2
			c-0.1,0-0.3,0-0.2-0.1c0-0.2,0-0.6,0-0.7c0-0.1,0-0.2,0.1-0.4c0.1-0.1,0-0.2,0.1-0.3c0.1,0,0.3-0.1,0.2-0.2c0-0.1-0.2-0.2-0.2-0.4
			c0-0.2,0-0.3,0-0.2c0.1,0,0.2-0.1,0.1-0.1c-0.1-0.1-0.2-0.4,0.1-0.1c0.3,0.3,0.2,0.3,0.3,0.6c0.1,0.2,0.1,0.5,0.5,0.7
			c0.4,0.2,0.5,0.3,0.2-0.2c-0.2-0.5-0.4-0.5-0.5-0.6c-0.1-0.1-0.3-0.3-0.3-0.4c0-0.1,0.1-0.3-0.1-0.5c-0.2-0.2-0.3-0.5-0.3-0.6
			c0,0-0.3-0.1-0.3,0c0,0.1-0.1,0-0.1-0.1c-0.1-0.1-0.3-0.1-0.1-0.3c0.2-0.1,0-0.2-0.1-0.2c-0.1-0.1-0.2-0.2-0.2,0
			c0,0.2-0.2,0.2-0.3,0.4c-0.1,0.2-0.2,0.4,0,0.4c0.2,0,0.1,0.4,0,0.4c-0.1,0.1-0.3,0-0.4,0.2c-0.1,0.2-0.2,0-0.4,0.2
			c-0.2,0.1-0.2,0.2-0.1,0.3c0.1,0.1,0,0.2-0.1,0.2c-0.1,0,0,0.3-0.2,0.1c-0.2-0.1-0.2-0.2-0.4-0.2c-0.2,0,0,0.2-0.1,0.2
			c-0.1,0-0.3,0-0.4,0.1c-0.2,0.1-0.4,0.3-0.3,0c0.2-0.4,0-0.4-0.1-0.4c-0.1,0-0.2,0.1-0.3,0c-0.1-0.1-0.1-0.1-0.2,0.1
			c0,0.2-0.2,0.2-0.3,0.2c-0.2,0.1-0.3,0.1-0.3,0.2c0.1,0.1,0.1,0.2-0.1,0.2c-0.2,0-0.2,0.1-0.2,0.2c0.1,0.1-0.1-0.1-0.3-0.1
			c-0.2,0-0.2-0.2-0.4-0.2c-0.1,0.1-0.4,0.3-0.3,0.5c0.1,0.2-0.1,0.2-0.2,0c-0.2-0.2-0.2,0.1-0.4,0c-0.2,0-0.2-0.2-0.5-0.2
			c-0.3,0.1-0.4,0-0.7,0.1c-0.3,0.1-0.7,0.2-0.8,0.1c-0.1-0.1,0.1-0.3,0.1-0.6c0-0.2,0.1,0.4,0.3,0.4c0.2,0,0.3,0,0.3-0.2
			c0-0.2-0.3-0.5-0.2-0.5c0.1-0.1,0.3-0.1,0.1-0.3c-0.2-0.2-0.6-0.3-1.1-0.2c-0.4,0-0.8,0.1-0.9,0c-0.1-0.1-0.3-0.2-0.4-0.1
			c-0.2,0.1-0.6,0.2-0.5,0.4c0.1,0.1,0.3,0.2,0.3,0.2c0.1,0,0,0.1-0.1,0.2c-0.1,0.1-0.1,0.3-0.2,0.3c-0.1,0-0.3,0-0.2-0.1
			c0.1-0.1,0.3-0.1,0.3-0.2c0,0-0.1-0.1-0.2-0.1c-0.1,0-0.3,0.1-0.4,0.2c-0.1,0.1-0.3,0-0.3-0.1c0-0.1,0-0.1-0.2-0.1
			c-0.1,0-0.3,0-0.4,0c-0.1-0.1-0.2,0-0.3-0.1c0-0.1,0-0.1-0.1-0.2c-0.1-0.1-0.1-0.2-0.2-0.2c-0.1,0.1-0.1,0.2-0.2,0.4
			c-0.1,0.2-0.4,0.3-0.5,0.3c-0.1,0-0.1-0.3-0.1-0.4c0-0.1,0-0.3-0.1-0.3c-0.1,0-0.3,0.2-0.4,0.2c-0.1,0-0.2,0.1-0.3,0.2
			C42,28.4,42,28.4,42,28.5c0,0.1-0.2,0.4-0.1,0.4c0,0,0.2,0.1,0.2,0.2c0,0.1,0.3,0.1,0.3,0.1c0,0,0.1-0.1,0.3-0.1
			c0.1,0,0.3,0.2,0.3,0.1c0.1,0,0.1-0.2,0.2-0.1c0.1,0,0,0.3,0.1,0.3c0.1,0,0.3,0,0.3,0.1c0,0.1,0.1,0.2,0,0.2
			c-0.1,0.1-0.2,0.1-0.2,0.3c0,0.1-0.1,0.3,0,0.4c0,0.1,0,0.3-0.1,0.4c-0.1,0-0.2,0.1-0.2,0.1s0.2,0,0.3,0c0.1,0,0.2-0.2,0.2-0.2
			c0,0.1,0,0.2,0,0.2c0.1,0,0.1-0.1,0.1-0.3c0-0.1-0.1-0.4,0-0.5c0.1-0.1,0.1-0.3,0.1-0.3c0.1,0,0.2-0.1,0.2,0
			c0.1,0.1-0.1,0.2-0.1,0.3c0,0.2-0.1,0.4,0,0.5c0,0.1,0,0.2-0.1,0.3c-0.1,0.1-0.2,0.3-0.2,0.3c0,0.1-0.2,0.1-0.1,0.2
			c0,0.1,0,0.3,0,0.3c0.1,0,0.2-0.2,0.2-0.1c0.1,0.1,0.2,0,0.2-0.1c0-0.1,0-0.4,0.1-0.3c0,0.1,0.2,0.1,0.3,0.2c0.1,0.1,0.3,0,0.4,0
			c0.1,0,0.4-0.1,0.4-0.2c0,0,0.2-0.1,0.3-0.1c0.2,0,0.2,0.2,0.2,0.3c0,0-0.2,0-0.2,0c0,0.1-0.1,0.2-0.1,0.2c0.1,0,0.4,0.1,0.4,0.1
			c0-0.1-0.1-0.2,0-0.2c0.1,0,0.6,0.1,0.5,0.1c-0.1,0-0.4,0.1-0.4,0.2c0,0.1,0.2,0.5,0.1,0.6c0,0.1-0.1,0.2-0.2,0.2
			c-0.2-0.1-0.5-0.2-0.5-0.3c0-0.1-0.1-0.2-0.2-0.3c-0.1-0.1-0.3-0.1-0.4-0.1c-0.1,0-0.1-0.1-0.1-0.1c0-0.1,0-0.2-0.1-0.2
			c-0.1,0-0.1,0.1-0.2,0.1c-0.1,0-0.4,0.2-0.4,0.4c0,0.2,0.1,0.5,0.2,0.4c0.1,0,0.1-0.1,0.2,0.1c0,0.1,0.2,0.2,0.3,0.2
			c0.1,0,0.1,0.1,0.1,0.2c-0.1,0,0,0.2-0.2,0.2c-0.1,0-0.4,0.3-0.5,0.3c-0.1,0-0.3-0.2-0.3-0.1c-0.1,0-0.1,0.3-0.1,0.5
			c0,0.1,0,0.2,0.1,0.1c0.1-0.1,0.1,0,0.1,0.2c0,0.1,0,0.9,0,1c0,0.1,0,0.3,0,0.6c0,0.2,0.1,0.4,0.1,0.5s-0.2,0.4-0.1,0.5
			c0.1,0.1,0.8,0.3,0.9,0.2c0.1,0,0.5,0.1,0.6,0.1c0,0,0.1-0.1,0.4-0.1c0.3,0,0.7,0,0.8-0.1c0.1,0,0.5-0.3,0.5-0.4
			c0-0.1-0.1-0.2-0.2-0.3c-0.1-0.1-0.3-0.2-0.2-0.3c0.1-0.1,0-0.1-0.2-0.1c-0.2,0.1-0.2,0.1-0.4,0c-0.1-0.1-0.3-0.1-0.2-0.2
			c0-0.1,0-0.2,0-0.4c-0.1-0.2-0.1-0.5-0.1-0.6c0.1,0,0.3,0,0.4,0.1c0.1,0.1,0,0.3,0.1,0.4c0.1,0.1,0.1,0.3,0.3,0.3
			c0.2,0,0.3,0,0.4,0c0,0.1-0.1,0.2,0.4,0.4c0.5,0.2,1,0.2,1,0.3c0,0.1,0,0.2,0.1,0.3c0.1,0.1,0.1,0.2,0.2,0.2c0.1,0-0.1,0,0,0.1
			c0.1,0.1,0.1,0.2,0.2,0.2c0.1,0,0.3-0.2,0.3-0.1c0,0.1-0.1,0.2-0.1,0.5c0,0.2-0.1,0.3,0,0.5c0.1,0.2,0.1,0.4,0.1,0.5
			c0.1,0.1,0.1,0.2,0.1,0.3c0,0.1,0.1,0.2,0.1,0.2c0.1,0,0.2,0,0.2-0.1c0,0,0.2,0,0.2-0.1c0,0,0.1,0,0.1-0.1s0-0.2,0.1-0.2
			c0.1-0.1,0.1-0.1,0.1-0.2c0-0.2,0.1-0.2,0.2-0.2c0.1,0,0.1,0,0.1,0c0.1,0,0.1,0,0.2-0.1c0,0,0-0.1,0.1-0.1c0.1,0,0.3-0.2,0.4-0.2
			c0.1,0,0.3-0.1,0.3-0.2c0-0.1-0.1-0.1,0.2-0.2c0.3,0,0.6-0.2,0.6-0.2c0,0,0,0.2,0.1,0.3c0.1,0.1,0.3,0.2,0.3,0.3
			c0,0.1-0.1,0.2,0,0.2c0.1,0,0.3-0.1,0.3-0.1c0.1-0.1,0.1-0.2,0.2,0c0,0.1,0.1,0.5,0.1,0.6c0,0.1,0,0.2,0.1,0.1
			c0.1,0,0.1-0.4,0.3-0.4c0.1,0,0.2,0.1,0.4,0.2c0.1,0.1,0.2,0.1,0.3,0.1c0,0.1,0.1,0.1,0.2,0c0.2-0.1,0.5-0.2,0.5-0.4
			c0-0.2,0-0.4-0.2-0.5c-0.2-0.1-0.3-0.2-0.3-0.3c0.1-0.1,0.2-0.3,0.4-0.4c0.2,0,0.3,0,0.6-0.2c0.3-0.2,0.7-0.5,0.8-0.6
			c0.1-0.1,0.3-0.7,0.4-1c0.1-0.2-0.1-0.1-0.1-0.2c0.1-0.1,0.1-0.2-0.1-0.3c-0.1-0.1-0.2-0.1-0.3-0.2c0-0.1,0-0.3,0.1-0.4
			c0.1-0.1,0.2-0.2,0-0.2c-0.2,0.1-0.2,0.3-0.3,0.2c-0.1-0.1-0.3-0.1-0.2-0.2c0.1-0.1,0.2-0.2,0.3-0.3c0.1-0.1,0.2-0.3,0.2-0.1
			c0,0.1,0,0.3,0.2,0.1c0.2-0.2,0.3-0.1,0.3,0c0,0.1,0,0.2,0.1,0.1c0.1-0.1,0,0.2,0.1,0.2c0.1,0.1,0,0.3,0.1,0.2
			c0.1-0.1,0.3-0.3,0.2-0.4c0-0.2-0.2-0.3-0.3-0.3c-0.1-0.1,0-0.2,0.1-0.3c0-0.1-0.1-0.2,0-0.4C57.1,32.3,57.2,32.4,57.2,32.2z"/>
		<path fill="#FFFFFF" d="M47.3,32.7c-0.1,0-0.1,0.1-0.2,0.1c-0.1,0-0.1,0,0,0.2c0,0.1,0.1,0,0.1,0.2c-0.1,0.1-0.1,0.2-0.1,0.2
			c0,0,0.2-0.2,0.2-0.1c0,0.1,0,0.2,0,0.2c0,0.1-0.2-0.1-0.2,0c0,0.1,0,0.1,0,0.2c0,0.1-0.1,0.3-0.1,0.4c-0.1,0.1-0.2,0-0.3-0.1
			c-0.1-0.1-0.2-0.4-0.2-0.4c0.1-0.1,0.2-0.3,0.4-0.3c0.1,0-0.2-0.3-0.1-0.4c0.1-0.1,0.1-0.2,0.1-0.3c0-0.1,0-0.2,0.3-0.2
			c0.4,0,0.6,0,0.6,0.1C47.6,32.6,47.4,32.7,47.3,32.7z"/>
		<path fill="#FFFFFF" d="M47.7,28.6c-0.1,0.1-0.5,0-0.6,0c-0.1,0-0.3,0.2-0.4,0.3c-0.1,0.1,0.1,0.2,0.2,0.2c0.1,0,0.2,0.1,0.2,0.2
			c0,0-0.1,0.1-0.2,0c-0.1-0.1-0.2-0.2-0.3-0.2c-0.1,0-0.1,0.1-0.1,0.2c-0.1,0.1-0.1,0.1-0.2,0c-0.1-0.1,0-0.2-0.1-0.2
			c-0.1,0-0.2,0.1-0.3,0.2c-0.1,0.1-0.2,0-0.2-0.1c0-0.1,0-0.2-0.1-0.2c-0.1,0-0.2-0.1-0.2-0.2c0-0.1-0.2-0.1-0.2-0.2
			c0-0.1,0.1,0,0.1,0s0.2,0.1,0.2,0.1c0,0,0,0.1,0.1,0c0.1,0,0.1,0.1,0.2,0.1c0.1,0,0.3-0.1,0.4-0.2c0.1-0.1,0.2,0,0.4,0
			c0.1,0,0.1-0.1,0.1-0.2c0-0.1,0.2-0.1,0.2-0.2c0.1-0.1,0.3,0,0.4,0c0.1,0,0.2,0,0.3-0.1c0.1-0.1,0.1,0,0.2,0.1
			C47.8,28.5,47.7,28.5,47.7,28.6z"/>
	</g>
</g>
</svg>
