<?xml version="1.0" encoding="utf-8"?>
<!-- Generator: Adobe Illustrator 19.0.1, SVG Export Plug-In . SVG Version: 6.00 Build 0)  -->
<svg version="1.1" id="Layer_1" xmlns="http://www.w3.org/2000/svg" xmlns:xlink="http://www.w3.org/1999/xlink" x="0px" y="0px"
	 width="21px" height="21px" viewBox="0 0 21 21" style="enable-background:new 0 0 21 21;" xml:space="preserve">
<style type="text/css">
	.st0{fill:#6F8293;}
</style>
<g id="Page-1">
	<g>
		<g id="Group" transform="translate(427.000000, 1392.000000)">
			<rect id="Rectangle-708" x="-422" y="-1382" class="st0" width="11" height="1"/>
			<rect id="Rectangle-708_1_" x="-417" y="-1382" class="st0" width="1" height="1"/>
		</g>
		<path class="st0" d="M19,1c0.6,0,1,0.4,1,1v17c0,0.6-0.4,1-1,1H2c-0.6,0-1-0.4-1-1V2c0-0.6,0.4-1,1-1H19 M19,0H2C0.9,0,0,0.9,0,2
			v17c0,1.1,0.9,2,2,2h17c1.1,0,2-0.9,2-2V2C21,0.9,20.1,0,19,0L19,0z"/>
	</g>
</g>
</svg>
