<?xml version="1.0" encoding="utf-8"?>
<!-- Generator: Adobe Illustrator 19.0.1, SVG Export Plug-In . SVG Version: 6.00 Build 0)  -->
<svg version="1.1" id="Layer_1" xmlns="http://www.w3.org/2000/svg" xmlns:xlink="http://www.w3.org/1999/xlink" x="0px" y="0px"
	 width="24px" height="24px" viewBox="0 0 24 24" style="enable-background:new 0 0 24 24;" xml:space="preserve">
<path d="M16.6,11.3l-5.2-5.2L-0.7,18.5C-0.9,18.7-1,19-1,19.2V24h5.2l8.7-9c0,0,0,0,0,0c0,0,0,0,0,0L16.6,11.3z M3.4,22.1H0.9v-2.5
	L1.5,19L4,21.5L3.4,22.1z M12.2,13l-2.5-2.5l1.7-1.7l2.5,2.5L12.2,13z M5.2,20.3l-2.5-2.5l5.8-6.1l2.5,2.5L5.2,20.3z"/>
</svg>
