<?xml version="1.0" encoding="utf-8"?>
<!-- Generator: Adobe Illustrator 19.0.0, SVG Export Plug-In . SVG Version: 6.00 Build 0)  -->
<svg version="1.1" id="Layer_1" xmlns="http://www.w3.org/2000/svg" xmlns:xlink="http://www.w3.org/1999/xlink" x="0px" y="0px"
	 width="14px" height="18px" viewBox="3 -2 14 18" style="enable-background:new 3 -2 14 18;" xml:space="preserve">
<style type="text/css">
	.st0{fill:#FB6F73;}
</style>
<path class="st0" d="M4,14c0,1.1,0.9,2,2,2h8c1.1,0,2-0.9,2-2V2H4V14 M6.5,6.9l1.4-1.4L10,7.6l2.1-2.1l1.4,1.4L11.4,9l2.1,2.1
	l-1.4,1.4L10,10.4l-2.1,2.1l-1.4-1.4L8.6,9L6.5,6.9 M13.5-1l-1-1h-5l-1,1H3v2h14v-2H13.5z"/>
</svg>
