<?xml version="1.0" encoding="utf-8"?>
<!-- Generator: Adobe Illustrator 19.0.1, SVG Export Plug-In . SVG Version: 6.00 Build 0)  -->
<svg version="1.1" id="Layer_1" xmlns="http://www.w3.org/2000/svg" xmlns:xlink="http://www.w3.org/1999/xlink" x="0px" y="0px"
	 width="18px" height="18px" viewBox="-470 272 18 18" enable-background="new -470 272 18 18" xml:space="preserve">
<path fill="#6F8294" d="M-469.812,279.258c0,4.002,3.256,7.258,7.258,7.258c1.821,0,3.484-0.679,4.759-1.792l5.087,5.087
	l0.707-0.707l-5.087-5.087c1.112-1.276,1.792-2.938,1.792-4.76c0-4.002-3.256-7.258-7.258-7.258S-469.812,275.256-469.812,279.258z
	 M-468.812,279.258c0-3.451,2.808-6.258,6.258-6.258c3.451,0,6.258,2.807,6.258,6.258s-2.807,6.258-6.258,6.258
	C-466.004,285.516-468.812,282.708-468.812,279.258z"/>
</svg>
