<?xml version="1.0" encoding="utf-8"?>
<!-- Generator: Adobe Illustrator 19.0.1, SVG Export Plug-In . SVG Version: 6.00 Build 0)  -->
<svg version="1.1" id="Layer_1" xmlns="http://www.w3.org/2000/svg" xmlns:xlink="http://www.w3.org/1999/xlink" x="0px" y="0px"
	 width="13.2px" height="13.2px" viewBox="-320.5 250.2 13.2 13.2" style="enable-background:new -320.5 250.2 13.2 13.2;"
	 xml:space="preserve">
<style type="text/css">
	.st0{fill:#E6E7E8;}
</style>
<path class="st0" d="M-312,256.8l4.2-4.2c0.5-0.6,0.6-1.5,0-2c-0.6-0.5-1.5-0.5-2,0l-4.2,4.2l-4.2-4.2c-0.6-0.5-1.5-0.5-2,0
	c-0.5,0.6-0.5,1.5,0,2l4.2,4.2l-4.2,4.2c-0.5,0.6-0.5,1.5,0,2c0.3,0.3,0.6,0.4,1,0.4s0.7-0.1,1-0.4l4.2-4.2l4.2,4.2
	c0.3,0.3,0.6,0.4,1,0.4s0.7-0.1,1-0.4c0.5-0.6,0.5-1.5,0-2L-312,256.8z"/>
</svg>
