<?xml version="1.0" encoding="utf-8"?>
<!-- Generator: Adobe Illustrator 19.0.1, SVG Export Plug-In . SVG Version: 6.00 Build 0)  -->
<svg version="1.1" id="Layer_1" xmlns="http://www.w3.org/2000/svg" xmlns:xlink="http://www.w3.org/1999/xlink" x="0px" y="0px"
	 width="18px" height="18px" viewBox="-470 272 18 18" enable-background="new -470 272 18 18" xml:space="preserve">
<polygon fill="#FFFFFF" points="-456,280 -460,280 -460,280 -462,280 -462,280 -466,280 -466,282 -462,282 -462,282 -460,282 
	-460,282 -456,282 "/>
<path fill="#FFFFFF" d="M-454,273c0.6,0,1,0.4,1,1v14c0,0.6-0.4,1-1,1h-14c-0.6,0-1-0.4-1-1v-14c0-0.6,0.4-1,1-1H-454 M-454,272h-14
	c-1.1,0-2,0.9-2,2v14c0,1.1,0.9,2,2,2h14c1.1,0,2-0.9,2-2v-14C-452,272.9-452.9,272-454,272"/>
</svg>
