<?xml version="1.0" encoding="utf-8"?>
<!-- Generator: Adobe Illustrator 19.0.1, SVG Export Plug-In . SVG Version: 6.00 Build 0)  -->
<svg version="1.1" id="Layer_1" xmlns="http://www.w3.org/2000/svg" xmlns:xlink="http://www.w3.org/1999/xlink" x="0px" y="0px"
	 width="18px" height="18px" viewBox="1 1 18 18" enable-background="new 1 1 18 18" xml:space="preserve">
<g>
	<polygon fill="#6F8293" points="11,5 9,5 9,9 5,9 5,11 9,11 9,15 11,15 11,11 15,11 15,9 11,9 	"/>
	<path fill="#6F8293" d="M17,1H3C1.9,1,1,1.9,1,3v14c0,1.1,0.9,2,2,2h14c1.1,0,2-0.9,2-2V3C19,1.9,18.1,1,17,1z M18,17
		c0,0.6-0.4,1-1,1H3c-0.6,0-1-0.4-1-1V3c0-0.6,0.4-1,1-1h14c0.6,0,1,0.4,1,1V17z"/>
</g>
</svg>
