<?xml version="1.0" encoding="utf-8"?>
<!-- Generator: Adobe Illustrator 19.0.1, SVG Export Plug-In . SVG Version: 6.00 Build 0)  -->
<svg version="1.1" id="Layer_1" xmlns="http://www.w3.org/2000/svg" xmlns:xlink="http://www.w3.org/1999/xlink" x="0px" y="0px"
	 width="32px" height="32px" viewBox="-463 265 32 32" style="enable-background:new -463 265 32 32;" xml:space="preserve">
<style type="text/css">
	.st0{fill:#0072C6;}
</style>
<g>
	<polygon class="st0" points="-437,294 -457,294 -457,287 -455,287 -455,292 -439,292 -439,287 -437,287 	"/>
</g>
<g>
	<polygon class="st0" points="-437,275 -439,275 -439,270 -455,270 -455,275 -457,275 -457,268 -437,268 	"/>
</g>
<g>
	<path class="st0" d="M-453.5,285c-1.4,0-2.5-1.1-2.5-2.5v-3c0-1.4,1.1-2.5,2.5-2.5s2.5,1.1,2.5,2.5v0.5h-2v-0.5
		c0-0.2-0.3-0.5-0.5-0.5s-0.5,0.3-0.5,0.5v3c0,0.2,0.3,0.5,0.5,0.5s0.5-0.3,0.5-0.5V282h2v0.5C-451,283.9-452.1,285-453.5,285z"/>
</g>
<g>
	<path class="st0" d="M-447.5,285c-1.5,0-2.5-0.9-2.5-2.4h2c0,0.3,0,0.4,0.5,0.4c0.4,0,0.5-0.3,0.5-0.5c0-0.2-0.3-0.5-0.5-0.5
		c-1.4,0-2.5-1.1-2.5-2.5s1.1-2.5,2.5-2.5c1.6,0,2.5,1.2,2.5,2.4h-2c0-0.2-0.1-0.4-0.5-0.4c-0.2,0-0.5,0.3-0.5,0.5s0.3,0.5,0.5,0.5
		c1.4,0,2.5,1.1,2.5,2.5C-445,283.9-446.1,285-447.5,285z"/>
</g>
<g>
	<polygon class="st0" points="-441,287.2 -444,278.2 -444,277 -442,277 -442,277.8 -441,280.8 -440,277.8 -440,277 -438,277 
		-438,278.2 	"/>
</g>
</svg>
