<?xml version="1.0" encoding="utf-8"?>
<!-- Generator: Adobe Illustrator 19.0.1, SVG Export Plug-In . SVG Version: 6.00 Build 0)  -->
<svg version="1.1" id="Layer_1" xmlns="http://www.w3.org/2000/svg" xmlns:xlink="http://www.w3.org/1999/xlink" x="0px" y="0px"
	 width="16px" height="16px" viewBox="16 0 16 16" style="enable-background:new 16 0 16 16;" xml:space="preserve">
<style type="text/css">
	.st0{fill:#FFFFFF;}
</style>
<polygon class="st0" points="30,9 30,8 29,8 29,7 28,7 28,6 27,6 27,5 26,5 26,4 25,4 25,3 24,3 24,2 23,2 23,3 22,3 22,4 21,4 
	21,5 20,5 20,6 19,6 19,7 18,7 18,8 17,8 17,9 16,9 16,10 17,10 18,10 18,14 22,14 22,10 25,10 25,14 29,14 29,10 30,10 31,10 31,9 
	"/>
</svg>
