<?xml version="1.0" encoding="utf-8"?>
<!-- Generator: Avocode 2.6.0 - http://avocode.com -->
<svg height="20" width="23" xmlns:xlink="http://www.w3.org/1999/xlink" xmlns="http://www.w3.org/2000/svg" viewBox="0 0 23 20">
    <path fill="#0072C6" fill-rule="evenodd" d="M 0 0 L 0 2 L 0.1 2 L 6 7.9 L 6 14 L 12 19.8 L 12 7.9 L 17.9 2 L 18 2 L 18 0 L 0 0 Z M 2.9 2 L 15.1 2 L 10.1 7 L 10 7 L 10 15 L 8 13 L 8 7 L 7.9 7 L 2.9 2 Z M 18.2 12.9 L 15.4 10.1 L 14 11.5 L 16.9 14.3 L 14 17.1 L 15.4 18.5 L 18.2 15.7 L 21 18.5 L 22.4 17.1 L 19.6 14.3 L 22.4 11.5 L 21 10.1 L 18.2 12.9 Z M 18.2 12.9" />
</svg>