<?xml version="1.0" encoding="utf-8"?>
<!-- Generator: Adobe Illustrator 18.1.1, SVG Export Plug-In . SVG Version: 6.00 Build 0)  -->
<!DOCTYPE svg PUBLIC "-//W3C//DTD SVG 1.1//EN" "http://www.w3.org/Graphics/SVG/1.1/DTD/svg11.dtd" [
	<!ENTITY ns_extend "http://ns.adobe.com/Extensibility/1.0/">
	<!ENTITY ns_ai "http://ns.adobe.com/AdobeIllustrator/10.0/">
	<!ENTITY ns_graphs "http://ns.adobe.com/Graphs/1.0/">
	<!ENTITY ns_vars "http://ns.adobe.com/Variables/1.0/">
	<!ENTITY ns_imrep "http://ns.adobe.com/ImageReplacement/1.0/">
	<!ENTITY ns_sfw "http://ns.adobe.com/SaveForWeb/1.0/">
	<!ENTITY ns_custom "http://ns.adobe.com/GenericCustomNamespace/1.0/">
	<!ENTITY ns_adobe_xpath "http://ns.adobe.com/XPath/1.0/">
]>
<svg version="1.1" id="Layer_1" xmlns:x="&ns_extend;" xmlns:i="&ns_ai;" xmlns:graph="&ns_graphs;"
	 xmlns="http://www.w3.org/2000/svg" xmlns:xlink="http://www.w3.org/1999/xlink" x="0px" y="0px" viewBox="0 0 449.5 305.4"
	 enable-background="new 0 0 449.5 305.4" xml:space="preserve">
<metadata>
	<sfw  xmlns="&ns_sfw;">
		<slices></slices>
		<sliceSourceBounds  width="449.5" height="305.4" y="-527.2" x="450.5" bottomLeftOrigin="true"></sliceSourceBounds>
	</sfw>
</metadata>
<g>
	<path fill="none" stroke="#AAAAAA" stroke-linejoin="round" stroke-miterlimit="10" stroke-dasharray="5,4" d="M119.6,211.3l57.4,0
		c13,0,25.1-6.9,31.6-18.2l0,0c6.5-11.3,18.6-18.2,31.6-18.2l107.6,0c8.7,0,17.1-2.9,23.8-8.3l32.9-26.2"/>
	<path fill="none" stroke="#AAAAAA" stroke-linejoin="round" stroke-miterlimit="10" d="M67.2,166.5l57-101.6
		c4-7.2,11.7-11.7,19.9-11.7h67.5"/>
	<path fill="none" stroke="#AAAAAA" stroke-linejoin="round" stroke-miterlimit="10" d="M140.7,162.6l53.2,98.5
		c4.9,9,14.3,14.6,24.5,14.6h39.4"/>
	<path fill="none" stroke="#AAAAAA" stroke-linejoin="round" stroke-miterlimit="10" d="M139.9,162.8l25.5-44.1
		c4.1-7.1,11.6-11.4,19.8-11.4h107.6"/>
	<polygon fill="#AAAAAA" points="159.7,129.4 123.5,129.6 105,99.6 66.1,100.1 46.9,132.5 64.5,162.9 47.3,194.6 66.1,227.2 
		105.1,227.2 123.6,196 159,196.3 179.5,162.6 	"/>
	<g>
		<g>
			<polygon fill="#B3915B" points="52.8,133 69,161.1 102.1,161.1 85.8,132.8 			"/>
			<polygon fill="#927851" points="102.4,104.3 118.7,132.4 102.1,161.1 85.8,132.8 			"/>
			<path fill="#CFAF80" d="M69.3,104.8L52.8,133c0,0,32.3,0,33-0.2c0.7-0.1,16.1-28.2,16.1-28.2L69.3,104.8z"/>
		</g>
		<g>
			<polygon fill="#CFAF80" points="62.6,132.9 74,152.6 97.2,152.6 85.7,132.8 			"/>
			<polygon fill="#B3915B" points="97.4,112.8 108.8,132.5 97.2,152.6 85.7,132.8 			"/>
			<path fill="#927851" d="M74.2,113.2l-11.6,19.7c0,0,22.6,0,23.1-0.1c0.5-0.1,11.2-19.7,11.2-19.7L74.2,113.2z"/>
		</g>
	</g>
	<g>
		<polygon fill="#CCCCCC" points="106.9,162.9 123.2,191 156.3,191 139.9,162.7 		"/>
	</g>
	<path fill="#EAEAEA" d="M123.5,134.7l-16.6,28.2c0,0,32.3,0,33-0.2c0.7-0.1,16.1-28.2,16.1-28.2L123.5,134.7z"/>
	<g>
		<g>
			<polygon fill="#355D83" points="53.1,194.3 69.4,222.5 102.5,222.5 86.1,194.2 			"/>
			<polygon fill="#142355" points="102.8,165.7 119,193.8 102.5,222.5 86.1,194.2 			"/>
			<path fill="#457694" d="M69.7,166.2l-16.6,28.2c0,0,32.3,0,33-0.2s16.1-28.2,16.1-28.2L69.7,166.2z"/>
		</g>
		<g>
			<polygon fill="#142355" points="63,194.3 74.4,214 97.6,214 86.1,194.1 			"/>
			<polygon fill="#457694" points="97.8,174.2 109.1,193.9 97.6,214 86.1,194.1 			"/>
			<path fill="#355D83" d="M74.6,174.5L63,194.3c0,0,22.6,0,23.1-0.1s11.2-19.7,11.2-19.7L74.6,174.5z"/>
		</g>
		<g>
			<polygon fill="#457694" points="69.9,194.2 77.9,208 94.1,208 86.1,194.1 			"/>
			<polygon fill="#355D83" points="94.3,180.2 102.2,193.9 94.1,208 86.1,194.1 			"/>
			<path fill="#142355" d="M78.1,180.4l-8.1,13.8c0,0,15.8,0,16.2-0.1c0.3-0.1,7.9-13.8,7.9-13.8L78.1,180.4z"/>
		</g>
	</g>
	<polygon fill="#AAAAAA" points="156.6,134.2 172.8,162.4 156.3,191 139.9,162.7 	"/>
	<path fill="none" stroke="#AAAAAA" stroke-linejoin="round" stroke-miterlimit="10" d="M149.5,162.8l105.2,0.1
		c7.9,0,15.2,4.1,19.4,10.8l27,42.8c3.7,5.9,10.2,9.4,17.1,9.4h19.2"/>
	<g>
		<g>
			<path fill="#041944" d="M310.5,138c-11.1,0-21.3-6.1-26.5-15.9c-7.7-14.6-2.1-32.8,12.5-40.5c4.3-2.3,9.2-3.5,14-3.5
				c11.1,0,21.3,6.1,26.5,15.9c7.7,14.6,2.1,32.8-12.5,40.5C320.2,136.8,315.4,138,310.5,138z"/>
			<path fill="#AAAAAA" d="M310.6,81c9.7,0,19,5.2,23.8,14.3c7,13.2,1.9,29.5-11.3,36.5c-4,2.1-8.4,3.2-12.6,3.2
				c-9.7,0-19-5.2-23.8-14.3c-7-13.2-1.9-29.5,11.3-36.5C302,82,306.3,81,310.6,81 M310.6,75C310.6,75,310.6,75,310.6,75
				c-5.3,0-10.7,1.3-15.4,3.9c-16.1,8.5-22.3,28.5-13.8,44.6c5.7,10.8,16.9,17.5,29.1,17.5c5.3,0,10.7-1.3,15.4-3.9
				c16.1-8.5,22.3-28.5,13.8-44.6C334,81.7,322.8,75,310.6,75L310.6,75z"/>
		</g>
		<g>
			<defs>
				<path id="XMLID_42_" d="M320.6,127c-10.4,5.5-23.4,1.5-28.9-9s-1.6-23.4,8.9-28.9c10.4-5.5,23.4-1.5,28.9,9S331,121.4,320.6,127
					z"/>
			</defs>
			<use xlink:href="#XMLID_42_"  overflow="visible" fill="#00B0CA"/>
			<clipPath id="XMLID_22_">
				<use xlink:href="#XMLID_42_"  overflow="visible"/>
			</clipPath>
			<g clip-path="url(#XMLID_22_)">
				<g>
					<g>
						<path fill="#FFF100" d="M310.6,96.6c-0.1,0.6-0.4,1.9-0.4,2.1c0,0.2,0.2,0.4,0.4,0.4s0.4-0.2,0.4-0.4
							C311,98.5,310.7,97.1,310.6,96.6z"/>
						<path fill="#FFF100" d="M308.6,96.8c0,0.6-0.1,1.9,0,2.2c0,0.2,0.3,0.4,0.5,0.3c0.2,0,0.4-0.3,0.3-0.5
							C309.4,98.6,308.9,97.3,308.6,96.8z"/>
						<path fill="#FFF100" d="M306.8,97.3c0.1,0.6,0.3,1.9,0.4,2.1c0.1,0.2,0.3,0.3,0.6,0.2c0.2-0.1,0.3-0.3,0.2-0.6
							C307.9,98.9,307.1,97.8,306.8,97.3z"/>
						<path fill="#FFF100" d="M305.1,98.2c0.2,0.5,0.7,1.8,0.8,2c0.1,0.2,0.4,0.3,0.6,0.1c0.2-0.1,0.3-0.4,0.1-0.6
							C306.5,99.6,305.5,98.6,305.1,98.2z"/>
						<path fill="#FFF100" d="M303.6,99.5c0.3,0.5,1,1.6,1.2,1.8c0.2,0.2,0.4,0.2,0.6,0c0.2-0.2,0.2-0.4,0-0.6
							C305.3,100.5,304.1,99.8,303.6,99.5z"/>
						<path fill="#FFF100" d="M302.4,100.9c0.4,0.4,1.3,1.4,1.5,1.5c0.2,0.1,0.5,0.1,0.6-0.1c0.1-0.2,0.1-0.5-0.1-0.6
							C304.2,101.6,302.9,101.1,302.4,100.9z"/>
						<path fill="#FFF100" d="M301.5,102.6c0.5,0.3,1.6,1.1,1.8,1.2c0.2,0.1,0.5,0,0.6-0.2c0.1-0.2,0-0.5-0.2-0.6
							C303.4,103,302.1,102.7,301.5,102.6z"/>
						<path fill="#FFF100" d="M301,104.5c0.5,0.2,1.8,0.8,2,0.8c0.2,0,0.5-0.1,0.5-0.3c0-0.2-0.1-0.5-0.3-0.5
							C302.9,104.4,301.5,104.5,301,104.5z"/>
						<path fill="#FFF100" d="M300.8,106.4c0.6,0.1,1.9,0.4,2.1,0.4c0.2,0,0.4-0.2,0.4-0.4c0-0.2-0.2-0.4-0.4-0.4
							C302.7,105.9,301.3,106.3,300.8,106.4z"/>
						<path fill="#FFF100" d="M301,108.3c0.6,0,1.9,0.1,2.2,0c0.2,0,0.4-0.3,0.3-0.5c0-0.2-0.3-0.4-0.5-0.3S301.5,108.1,301,108.3z"
							/>
						<path fill="#FFF100" d="M301.5,110.1c0.6-0.1,1.9-0.3,2.1-0.4c0.2-0.1,0.3-0.3,0.2-0.6c-0.1-0.2-0.3-0.3-0.6-0.2
							C303.1,109,302,109.8,301.5,110.1z"/>
						<path fill="#FFF100" d="M302.4,111.8c0.5-0.2,1.8-0.7,2-0.8c0.2-0.1,0.3-0.4,0.1-0.6c-0.1-0.2-0.4-0.3-0.6-0.1
							C303.8,110.4,302.8,111.4,302.4,111.8z"/>
						<path fill="#FFF100" d="M303.6,113.3c0.5-0.3,1.6-1,1.8-1.2c0.2-0.2,0.2-0.4,0-0.6c-0.2-0.2-0.4-0.2-0.6,0
							C304.7,111.6,303.9,112.8,303.6,113.3z"/>
						<path fill="#FFF100" d="M305.1,114.5c0.4-0.4,1.4-1.3,1.5-1.5c0.1-0.2,0.1-0.5-0.1-0.6c-0.2-0.1-0.5-0.1-0.6,0.1
							C305.8,112.7,305.3,114,305.1,114.5z"/>
						<path fill="#FFF100" d="M306.8,115.4c0.3-0.5,1.1-1.6,1.2-1.8c0.1-0.2,0-0.5-0.2-0.6c-0.2-0.1-0.5,0-0.6,0.2
							C307.1,113.5,306.9,114.9,306.8,115.4z"/>
						<path fill="#FFF100" d="M308.6,116c0.2-0.5,0.8-1.8,0.8-2c0-0.2-0.1-0.5-0.3-0.5c-0.2,0-0.5,0.1-0.5,0.3
							C308.6,114,308.6,115.4,308.6,116z"/>
						<path fill="#FFF100" d="M310.5,116.2c0.1-0.6,0.4-1.9,0.4-2.1c0-0.2-0.2-0.4-0.4-0.4c-0.2,0-0.4,0.2-0.4,0.4
							C310.1,114.3,310.4,115.6,310.5,116.2z"/>
						<path fill="#FFF100" d="M312.4,116c0-0.6,0.1-1.9,0-2.2c0-0.2-0.3-0.4-0.5-0.3c-0.2,0-0.4,0.3-0.3,0.5
							C311.7,114.2,312.2,115.5,312.4,116z"/>
						<path fill="#FFF100" d="M314.3,115.4c-0.1-0.6-0.3-1.9-0.4-2.1c-0.1-0.2-0.3-0.3-0.6-0.2c-0.2,0.1-0.3,0.3-0.2,0.6
							C313.2,113.8,314,115,314.3,115.4z"/>
						<path fill="#FFF100" d="M316,114.5c-0.2-0.5-0.7-1.8-0.8-2c-0.1-0.2-0.4-0.3-0.6-0.1c-0.2,0.1-0.3,0.4-0.1,0.6
							C314.6,113.2,315.6,114.1,316,114.5z"/>
						<path fill="#FFF100" d="M317.5,113.3c-0.3-0.5-1-1.6-1.2-1.8c-0.2-0.2-0.4-0.2-0.6,0c-0.2,0.2-0.2,0.4,0,0.6
							C315.8,112.3,317,113,317.5,113.3z"/>
						<path fill="#FFF100" d="M318.7,111.8c-0.4-0.4-1.3-1.4-1.5-1.5c-0.2-0.1-0.5-0.1-0.6,0.1c-0.1,0.2-0.1,0.5,0.1,0.6
							C316.8,111.1,318.2,111.6,318.7,111.8z"/>
						<path fill="#FFF100" d="M319.6,110.1c-0.5-0.3-1.6-1.1-1.8-1.2c-0.2-0.1-0.5,0-0.6,0.2c-0.1,0.2,0,0.5,0.2,0.6
							C317.7,109.8,319,110,319.6,110.1z"/>
						<path fill="#FFF100" d="M320.1,108.3c-0.5-0.2-1.8-0.8-2-0.8c-0.2,0-0.5,0.1-0.5,0.3c0,0.2,0.1,0.5,0.3,0.5
							C318.2,108.3,319.6,108.3,320.1,108.3z"/>
						<path fill="#FFF100" d="M320.3,106.4c-0.6-0.1-1.9-0.4-2.1-0.4c-0.2,0-0.4,0.2-0.4,0.4c0,0.2,0.2,0.4,0.4,0.4
							C318.4,106.8,319.8,106.5,320.3,106.4z"/>
						<path fill="#FFF100" d="M320.1,104.5c-0.6,0-1.9-0.1-2.2,0c-0.2,0-0.4,0.3-0.3,0.5c0,0.2,0.3,0.4,0.5,0.3
							C318.4,105.3,319.6,104.7,320.1,104.5z"/>
						<path fill="#FFF100" d="M319.6,102.6c-0.6,0.1-1.9,0.3-2.1,0.4c-0.2,0.1-0.3,0.3-0.2,0.6c0.1,0.2,0.3,0.3,0.6,0.2
							C318,103.8,319.1,103,319.6,102.6z"/>
						<path fill="#FFF100" d="M318.7,100.9c-0.5,0.2-1.8,0.7-2,0.8c-0.2,0.1-0.3,0.4-0.1,0.6s0.4,0.3,0.6,0.1
							S318.3,101.3,318.7,100.9z"/>
						<path fill="#FFF100" d="M317.5,99.5c-0.5,0.3-1.6,1-1.8,1.2c-0.2,0.2-0.2,0.4,0,0.6c0.2,0.2,0.4,0.2,0.6,0
							C316.4,101.1,317.2,99.9,317.5,99.5z"/>
						<path fill="#FFF100" d="M316,98.2c-0.4,0.4-1.4,1.3-1.5,1.5c-0.1,0.2-0.1,0.5,0.1,0.6c0.2,0.1,0.5,0.1,0.6-0.1
							S315.8,98.8,316,98.2z"/>
						<path fill="#FFF100" d="M314.3,97.3c-0.3,0.5-1.1,1.6-1.2,1.8c-0.1,0.2,0,0.5,0.2,0.6c0.2,0.1,0.5,0,0.6-0.2
							C314,99.3,314.2,97.9,314.3,97.3z"/>
						<path fill="#FFF100" d="M312.5,96.8c-0.2,0.5-0.8,1.8-0.8,2c0,0.2,0.1,0.5,0.3,0.5c0.2,0,0.5-0.1,0.5-0.3
							C312.5,98.7,312.5,97.3,312.5,96.8z"/>
					</g>
					<ellipse fill="#FFF100" cx="310.5" cy="106.4" rx="6.5" ry="6.5"/>
					<g>
						<path fill="#FFF100" d="M310.2,117.2c-0.4,0.1-1.8-0.1-2.5-0.4c-1.2-0.5-2.4-0.8-3.1-1.4c-0.8-0.7-3.6-2.2-4.6-6.4
							c-0.2-0.8-0.2-1.2-0.4-1.1c-0.1,0-0.2,0.6-0.1,1.4c0.1,0.7-0.1,0.6-0.5-0.3c-0.4-0.9-0.6-1.6-0.7-2.3c-0.1-0.5-0.5,0-0.4,0.7
							c0.1,0.7,0.6,2,1,2.8c0.4,0.6,0.1,0.7-0.3,0.1c-0.4-0.5-1-1.4-1.4-2.3c-0.3-0.9-0.3,0.4-0.2,0.9c0.4,1.3,1.4,2.5,1.9,3
							c0.5,0.5,0.3,0.7-0.2,0.3c-0.5-0.4-0.7-0.4-1.3-1c-0.6-0.6-0.8-0.3-0.3,0.3c0.5,0.6,1,1.2,1.7,1.6c0.3,0.3,0.6,0.5,0.1,0.5
							c-0.3,0-0.8-0.4-1-0.6s-0.6-0.2-0.3,0.2c0.4,0.5,1.2,1.3,1.9,1.5c0.3,0.1,0,0.3-0.5,0.1c-0.5-0.1-0.2,0.3,0.1,0.4
							c0.3,0.1,0.7,0.3,1,0.3c0.3,0.1,0.2,0.2-0.1,0.2c-0.3,0-0.5,0-0.6-0.1c-0.2-0.1,0,0.2,0.1,0.3c0.2,0.1,0.5,0.2,0.7,0.2
							c0.2,0,0.2,0.3-0.1,0.2c-0.2-0.1-0.5-0.1-0.4,0.1c0.1,0.2,0.8,0.3,1.3,0.3c0.5,0,0.3,0.2,0.1,0.2c-0.2,0.1-0.5,0.1-0.6,0.1
							c-0.2,0-0.3,0.3,0.1,0.3s0.9,0.1,1.7,0.4c1,0.5,2.4,1,3.3,0.9c0.8-0.1,0.4-0.4,0-0.3c-0.7,0.1-1.2-0.4-1.7-0.4
							c-0.5,0-1.1-0.5-1.6-0.6c-0.2,0-0.4-0.2-0.1-0.3c0.3-0.1,0.4-0.2,0.4-0.4c0-0.2-0.6,0-0.9-0.2c-0.3-0.1-0.2-0.2,0-0.4
							c0.3-0.2,0.1-0.4-0.3-0.4c-0.4,0-0.5-0.2-0.3-0.4c0.2-0.2,0.1-0.3-0.1-0.2c-0.2,0-0.2-0.2,0-0.2s0.1-0.2-0.1-0.2
							c-0.4,0-0.6-0.4-0.9-0.5c-0.2-0.1-0.2-0.2-0.1-0.2c0.1,0,0.2-0.1,0.1-0.2c-0.3-0.2,0-0.3-0.4-0.5c-0.3-0.2-0.4-0.3-0.3-0.5
							c0.1-0.2,0.5,0,0.6-0.3c0-0.2-0.6-0.5-0.6-0.8c0-0.1,0.1-0.1,0.2-0.1c0.1,0.1,0.2,0.1,0.2-0.1c0-0.2,0-0.3,0.3-0.1
							c0.7,0.4,1.5,1.5,2.2,2.7c0.5,0.8,1,1.1,1.5,1.2c0.6,0.2,1.7,0.9,2.2,1.4c0.3,0.3,0.6,0.5,1.2,0.4c0.6-0.1,1.2,0,1.7,0.3
							c0.5,0.2,1,0.5,1.4-0.1C310.6,117.2,310.5,117.2,310.2,117.2z"/>
						<path fill="#FFF100" d="M313.8,117.5c-1.3,0-2.1,0.2-2.4,0.4c-0.6,0.5-0.7,0.3-1,0.4c-0.3,0.2-0.5,0.2-0.6,0.1
							c-0.1-0.1-0.2-0.2,0.1-0.2c0.3-0.1,0.5-0.3,0.6-0.4c0.4-0.5,1.2-0.6,1.8-0.7c2-0.4,5-1.5,7-4.1c1.4-1.8,1.9-3.7,2.1-5.5
							c0.1-0.6,0.4-0.5,0.4-0.1c0,0.4-0.1,1.4-0.1,1.7c-0.1,0.3,0,0.6,0.3,0.1c0.5-0.7,0.9-2.2,1-3c0.1-0.7,0.4-0.7,0.4,0
							c0,1-0.5,2.6-1.4,4c-0.4,0.6-0.2,0.8,0.3,0.2c0.7-0.8,1-1.2,1.4-2.1c0.3-0.7,0.5-0.6,0.3,0.3c-0.4,1.3-1.1,2.2-1.7,2.8
							c-0.6,0.7-0.4,0.7,0,0.6c0.4-0.1,0.9-0.6,1.4-1.2c0.4-0.6,0.6-0.3,0.3,0.2c-0.3,0.5-1,1.4-1.5,1.9c-0.4,0.4,0,0.4,0.2,0.2
							c0.3-0.3,0.5-0.6,0.8-0.6c0.3-0.1,0.6-0.1-0.1,0.7c-0.3,0.3-1.3,1.1-1.8,1.3c-0.5,0.2-0.3,0.4,0.1,0.3
							c0.4-0.1,0.9-0.4,0.9-0.2c0,0.2-0.4,0.4-0.8,0.5c-0.4,0.2-0.6,0.5-0.1,0.5c0.2,0,0.2,0.2,0,0.2c-0.2,0-0.6,0.1-0.6,0.2
							c0,0.1,0.1,0.2,0.2,0.2c0.1,0,0.1,0.1,0,0.2c-0.5,0.4-1.2,0.2-1.5,0.4c-0.3,0.2,0,0.2,0.3,0.2c0.4,0,0.8,0.3,0.2,0.3
							c-0.8,0-1.8,0.2-2.7,0.6c-0.6,0.3-1.1,0-0.3-0.3c0.5-0.2,1.2-0.4,1.4-0.5c0.5-0.3-0.3-0.2,0.2-0.5c0.2-0.1,0.5-0.1,0.5-0.2
							s-0.4-0.2-0.1-0.4c0.1-0.1,0.4-0.1,0.6-0.1c0.2,0,0.3-0.2,0.1-0.3c-0.2-0.1-0.2-0.2,0-0.3c0.3-0.1,0.6-0.1,0.7-0.2
							c0.2-0.1,0.1-0.2-0.2-0.2c-0.3,0-0.3-0.1-0.1-0.2c0.3-0.1,0.7-0.3,1-0.5c0.2-0.2,0.2-0.2,0-0.3c-0.2-0.1-0.3-0.1-0.1-0.2
							c0.2-0.1,0.4-0.3,0.5-0.4c0.1-0.1,0.1-0.3-0.2-0.3c-0.3,0-0.4,0-0.4-0.3c0-0.3,0.1-0.4,0.3-0.6c0.2-0.2,0-0.4-0.4-0.2
							c-0.8,0.3-1,0.4-1.4,0.9c-0.4,0.5-0.8,1.1-1,1.6c-0.2,0.5-0.8,1-1.3,1.2c-0.5,0.1-1.8,0.7-2.3,1.1
							C314.4,117.3,314.6,117.4,313.8,117.5z"/>
						<path fill="#FFF100" d="M307.5,119.6c-0.3-0.1-0.3-0.3,0.1-0.4c0.4-0.1,0.4-0.1,0.6-0.2c0.2-0.1,0.9-0.4,1.2-0.4
							c0.3,0,0.3,0.2,0,0.2c-0.3,0-1,0.3-1.2,0.5c-0.2,0.2-0.4,0.2-0.5,0.2C307.6,119.5,307.5,119.6,307.5,119.6z"/>
						<path fill="#FFF100" d="M306.8,120.7c-0.3-0.3,0-0.7,0.4-0.8c0.1,0,0.3,0.2,0.7,0.1c0.4,0,0.8-0.1,0.6-0.3
							c-0.1-0.1-0.2-0.2,0-0.2c0.1,0,0.1,0,0.2,0c0.1,0,0.2-0.1,0.2,0c0.1,0,0.1,0.1,0.2,0c0.1,0,0.2,0.1,0.1,0.2
							c-0.3,0.2-0.1,0.4,0.1,0.3c0.2,0,0.5,0,0.7,0c0.2,0.1,0.3,0.1,0.5,0c0.1,0,0.4,0,0.7,0.1c0.4,0.2,0.3,0.4,0,0.3
							c-0.7-0.1-1.3-0.2-1.7-0.1c-0.4,0.1-1.1,0-1.6-0.1C307.6,120.2,307.2,120.2,306.8,120.7z"/>
						<path fill="#FFF100" d="M309.6,120.8c-0.2,0.3-0.5,0.6-0.9,0.7c-0.4,0.1-0.5,0.2-0.1,0.3c0.5,0.1,0.6,0,0.9-0.1
							c0.2-0.1,0.3-0.3,0.5,0c0.1,0.3,0.3,0.2,0.6,0c0.2-0.1,0.3-0.3,0.4-0.2c0.2,0,0.2,0,0.1,0.2c-0.1,0.2,0,0.4,0.2,0.2
							c0.3-0.2,0.4-0.4,0.6-0.4c0.2,0,0.2,0.1,0,0.2c-0.1,0.1-0.2,0.3,0.1,0.2c0.3,0,0.5-0.1,0.6-0.3c0.1-0.2,0.2-0.3,0.5-0.1
							s0.4,0.4,0.5,0.2c0.1-0.2,0.2-0.3,0.3-0.2c0.2,0.2,0.9,0,0.9-0.3c0-0.1,0-0.3,0.3-0.1c0.2,0.2,0.7,0.1,0.7-0.1
							c0-0.3,0.1-0.3,0.4-0.2c0.2,0.1,0.5,0.1,0.7,0c0.1-0.1,0.2-0.2,0.1-0.4c-0.1-0.2-0.1-0.4,0.2-0.3c0.5,0.2,1,0.4,1.4-0.1
							c0.4-0.4,0.5-0.5-0.1-0.5c-0.6,0-1.7-0.1-2.1-0.1c-0.5-0.1-1.1-0.2-1.3-0.2s-0.2,0-0.2,0.1s-0.2,0.1-0.2,0.2
							c0,0.1-0.1,0.2-0.3,0.1c-0.2-0.1-0.2,0-0.1,0.1c0.1,0.1,0,0.3-0.2,0.2c-0.5-0.1-0.9,0.1-1.3,0.3c-0.8,0.4-1.4,0.4-2.1,0.3
							S309.8,120.5,309.6,120.8z"/>
					</g>
				</g>
				<g>
					<g>
						<path fill="#FFF100" d="M272.5,121.7c0-0.5-0.9-2-2.2-1.3c-1.6,0.9,0.8,4.4,1.5,6.3c0.4,1-0.1,1.6-0.6,1.6
							c-0.5,0-0.7-0.2-0.8-0.6c-0.1-0.3,0.2-0.5,0.5-0.6c0.3,0,0.4,0.2,0.3,0.3c-0.5-0.2-0.7,0.5-0.2,0.5c0.6,0,0.8-0.7,0.5-1
							c-0.3-0.3-0.9-0.3-1,0c0.1-0.2,0.2-0.6,0.2-1c0-0.1,0.1-0.6,0.2-0.7c-0.1-0.1-0.3,0.1-0.3,0.1c-0.1-0.3-0.3-0.6-0.6-0.7
							c0.4,0.8,0.4,1.6,0.2,2.2c-0.3,0.8-0.1,2,1.2,1.8c1.3-0.2,1.5-1.3,0.7-3c-0.8-1.6-2.5-4.5-1.3-5c0.4-0.2,1,0.2,1.3,0.7
							c0.1,0.2,0,0.3-0.2,0.3c-0.1,0-0.2,0-0.4,0v-0.1c0-0.3-0.3-0.3-0.3,0v0.1c-0.1,0-0.2,0.1-0.2,0.2c0,0.1,0.1,0.2,0.2,0.2v0.1
							c0,0.3,0.3,0.3,0.3,0v-0.1c0.2,0,0.5,0,0.6,0c0.1,0,0.2,0,0.2,0.2c0,0.6,0,1,0,1.4c0,0.1-0.4,0.1-0.4-0.2
							c0-0.1-0.1-0.2-0.1-0.1c-0.4,0.5,0.4,0.8,0.5,0.6c0,0.4,0,0.6,0,0.8c0,0.6,0.6,0.6,0.6,0c0-0.2,0-0.5,0-0.8
							c0.2,0.2,0.9-0.1,0.5-0.6c0-0.1-0.1,0-0.1,0.1c0,0.3-0.4,0.3-0.4,0.2c0-0.4,0-0.8,0-1.4c0-0.1,0.1-0.2,0.2-0.2
							c0.1,0,0.4,0,0.6,0v0.1c0,0.3,0.3,0.3,0.3,0v-0.1c0.1,0,0.2-0.1,0.2-0.2c0-0.1-0.1-0.2-0.2-0.2v-0.1c0-0.3-0.3-0.3-0.3,0v0.1
							c-0.2,0-0.3,0-0.4,0c-0.2,0-0.3-0.1-0.2-0.3c0.3-0.6,0.9-0.9,1.3-0.7c1.1,0.5-0.5,3.4-1.3,5c-0.8,1.6-0.6,2.8,0.7,3
							c1.3,0.2,1.6-1,1.2-1.8c-0.3-0.6-0.3-1.4,0.2-2.2c-0.3,0.2-0.5,0.4-0.6,0.7c0-0.1-0.2-0.2-0.3-0.1c0.1,0.1,0.2,0.6,0.2,0.7
							c0,0.4,0.1,0.7,0.2,1c-0.2-0.2-0.7-0.3-1,0s-0.1,1,0.5,1c0.5,0,0.4-0.7-0.2-0.5c-0.1-0.2,0.1-0.4,0.3-0.3
							c0.3,0,0.5,0.3,0.5,0.6c-0.1,0.4-0.3,0.7-0.8,0.6c-0.5,0-0.9-0.6-0.6-1.6c0.7-1.9,3.1-5.4,1.5-6.3
							C273.4,119.7,272.5,121.1,272.5,121.7z"/>
					</g>
					<g>
						<path fill="#FFF100" d="M272.5,132.7c0.3,0.3,0.7,0.4,1.1,0.1c0.7-0.5-0.2-1.2-0.4-2c-0.3-1-0.1-1.6,0.5-1.7
							c0.5-0.1,0.7,0.2,0.8,0.6c0.1,0.3-0.2,0.5-0.5,0.6c-0.3,0-0.4-0.2-0.3-0.3c0.5,0.2,0.7-0.5,0.2-0.5c-0.6,0-0.8,0.7-0.5,1
							c0.3,0.3,0.9,0.3,1,0c-0.1,0.2-0.2,0.6-0.2,1c0,0.1-0.1,0.6-0.2,0.7c0.1,0.1,0.3-0.1,0.3-0.1c0.1,0.3,0.3,0.6,0.6,0.7
							c-0.4-0.8-0.4-1.6-0.2-2.2c0.3-0.8,0.1-2-1.2-1.8c-1.3,0.2-1.5,1.4-0.5,3.2c0.3,0.6-0.5,0.7-0.6,0.2c-0.1,0.5-0.9,0.5-0.6-0.2
							c1-1.8,0.7-3.1-0.5-3.2c-1.3-0.2-1.6,1-1.2,1.8c0.3,0.6,0.3,1.4-0.2,2.2c0.3-0.2,0.5-0.4,0.6-0.7c0,0.1,0.2,0.2,0.3,0.1
							c-0.1-0.1-0.2-0.6-0.2-0.7c0-0.4-0.1-0.7-0.2-1c0.2,0.2,0.7,0.3,1,0c0.3-0.3,0.1-1-0.5-1c-0.5,0-0.4,0.7,0.2,0.5
							c0.1,0.2-0.1,0.4-0.3,0.3c-0.3,0-0.5-0.3-0.5-0.6c0.1-0.4,0.3-0.7,0.8-0.6c0.6,0.1,0.9,0.7,0.5,1.7c-0.3,0.8-1.1,1.5-0.4,2
							C271.7,133,272.2,133,272.5,132.7z"/>
					</g>
					<g>
						<path fill="#FFF100" d="M272.5,118.7c0,0.5-0.9,2-2.2,1.3c-1.6-0.9,0.8-4.4,1.5-6.3c0.4-1-0.1-1.6-0.6-1.6
							c-0.5,0-0.7,0.2-0.8,0.6c-0.1,0.3,0.2,0.5,0.5,0.6c0.3,0,0.4-0.2,0.3-0.3c-0.5,0.2-0.7-0.5-0.2-0.5c0.6,0,0.8,0.7,0.5,1
							c-0.3,0.3-0.9,0.3-1,0c0.1,0.2,0.2,0.6,0.2,1c0,0.1,0.1,0.6,0.2,0.7c-0.1,0.1-0.3-0.1-0.3-0.1c-0.1,0.3-0.3,0.6-0.6,0.7
							c0.4-0.8,0.4-1.6,0.2-2.2c-0.3-0.8-0.1-2,1.2-1.8c1.3,0.2,1.5,1.3,0.7,3c-0.8,1.6-2.5,4.5-1.3,5c0.4,0.2,1-0.2,1.3-0.7
							c0.1-0.2,0-0.3-0.2-0.3c-0.1,0-0.2,0-0.4,0v0.1c0,0.3-0.3,0.3-0.3,0v-0.1c-0.1,0-0.2-0.1-0.2-0.2c0-0.1,0.1-0.2,0.2-0.2v-0.1
							c0-0.3,0.3-0.3,0.3,0v0.1c0.2,0,0.5,0,0.6,0c0.1,0,0.2,0,0.2-0.2c0-0.6,0-1,0-1.4c0-0.1-0.4-0.1-0.4,0.2
							c0,0.1-0.1,0.2-0.1,0.1c-0.4-0.5,0.4-0.8,0.5-0.6c0-0.4,0-0.6,0-0.8c0-0.6,0.6-0.6,0.6,0c0,0.2,0,0.5,0,0.8
							c0.2-0.2,0.9,0.1,0.5,0.6c0,0.1-0.1,0-0.1-0.1c0-0.3-0.4-0.3-0.4-0.2c0,0.4,0,0.8,0,1.4c0,0.1,0.1,0.2,0.2,0.2
							c0.1,0,0.4,0,0.6,0v-0.1c0-0.3,0.3-0.3,0.3,0v0.1c0.1,0,0.2,0.1,0.2,0.2c0,0.1-0.1,0.2-0.2,0.2v0.1c0,0.3-0.3,0.3-0.3,0v-0.1
							c-0.2,0-0.3,0-0.4,0c-0.2,0-0.3,0.1-0.2,0.3c0.3,0.6,0.9,0.9,1.3,0.7c1.1-0.5-0.5-3.4-1.3-5c-0.8-1.6-0.6-2.8,0.7-3
							c1.3-0.2,1.6,1,1.2,1.8c-0.3,0.6-0.3,1.4,0.2,2.2c-0.3-0.2-0.5-0.4-0.6-0.7c0,0.1-0.2,0.2-0.3,0.1c0.1-0.1,0.2-0.6,0.2-0.7
							c0-0.4,0.1-0.7,0.2-1c-0.2,0.2-0.7,0.3-1,0s-0.1-1,0.5-1c0.5,0,0.4,0.7-0.2,0.5c-0.1,0.2,0.1,0.4,0.3,0.3
							c0.3,0,0.5-0.3,0.5-0.6c-0.1-0.4-0.3-0.6-0.8-0.6c-0.5,0-0.9,0.6-0.6,1.6c0.7,1.9,3.1,5.4,1.5,6.3
							C273.4,120.7,272.5,119.3,272.5,118.7z"/>
					</g>
					<g>
						<path fill="#FFF100" d="M272.5,101.8c0,0.5-0.9,2-2.2,1.3c-1.6-0.9,0.8-4.4,1.5-6.3c0.4-1-0.1-1.6-0.6-1.6
							c-0.5,0-0.7,0.2-0.8,0.6c-0.1,0.3,0.2,0.5,0.5,0.6c0.3,0,0.4-0.2,0.3-0.3c-0.5,0.2-0.7-0.5-0.2-0.5c0.6,0,0.8,0.7,0.5,1
							c-0.3,0.3-0.9,0.3-1,0c0.1,0.2,0.2,0.6,0.2,1c0,0.1,0.1,0.6,0.2,0.7c-0.1,0.1-0.3-0.1-0.3-0.1c-0.1,0.3-0.3,0.6-0.6,0.7
							c0.4-0.8,0.4-1.6,0.2-2.2c-0.3-0.8-0.1-2,1.2-1.8c1.3,0.2,1.5,1.3,0.7,3c-0.8,1.6-2.5,4.5-1.3,5c0.4,0.2,1-0.2,1.3-0.7
							c0.1-0.2,0-0.3-0.2-0.3c-0.1,0-0.2,0-0.4,0v0.1c0,0.3-0.3,0.3-0.3,0v-0.1c-0.1,0-0.2-0.1-0.2-0.2s0.1-0.2,0.2-0.2v-0.1
							c0-0.3,0.3-0.3,0.3,0v0.1c0.2,0,0.5,0,0.6,0c0.1,0,0.2,0,0.2-0.2c0-0.6,0-1,0-1.4c0-0.1-0.4-0.1-0.4,0.2
							c0,0.1-0.1,0.2-0.1,0.1c-0.4-0.5,0.4-0.8,0.5-0.6c0-0.4,0-0.6,0-0.8c0-0.6,0.6-0.6,0.6,0c0,0.2,0,0.5,0,0.8
							c0.2-0.2,0.9,0.1,0.5,0.6c0,0.1-0.1,0-0.1-0.1c0-0.3-0.4-0.3-0.4-0.2c0,0.4,0,0.8,0,1.4c0,0.1,0.1,0.2,0.2,0.2
							c0.1,0,0.4,0,0.6,0v-0.1c0-0.3,0.3-0.3,0.3,0v0.1c0.1,0,0.2,0.1,0.2,0.2s-0.1,0.2-0.2,0.2v0.1c0,0.3-0.3,0.3-0.3,0v-0.1
							c-0.2,0-0.3,0-0.4,0c-0.2,0-0.3,0.1-0.2,0.3c0.3,0.6,0.9,0.9,1.3,0.7c1.1-0.5-0.5-3.4-1.3-5c-0.8-1.6-0.6-2.8,0.7-3
							c1.3-0.2,1.6,1,1.2,1.8c-0.3,0.6-0.3,1.4,0.2,2.2c-0.3-0.2-0.5-0.4-0.6-0.7c0,0.1-0.2,0.2-0.3,0.1c0.1-0.1,0.2-0.6,0.2-0.7
							c0-0.4,0.1-0.7,0.2-1c-0.2,0.2-0.7,0.3-1,0c-0.3-0.3-0.1-1,0.5-1c0.5,0,0.4,0.7-0.2,0.5c-0.1,0.2,0.1,0.4,0.3,0.3
							c0.3,0,0.5-0.3,0.5-0.6c-0.1-0.4-0.3-0.6-0.8-0.6c-0.5,0-0.9,0.6-0.6,1.6c0.7,1.9,3.1,5.4,1.5,6.3
							C273.4,103.7,272.5,102.3,272.5,101.8z"/>
					</g>
					<g>
						<path fill="#FFF100" d="M272.5,90.8c0.3-0.3,0.7-0.4,1.1-0.1c0.7,0.5-0.2,1.2-0.4,2c-0.3,1-0.1,1.6,0.5,1.7
							c0.5,0.1,0.7-0.2,0.8-0.6c0.1-0.3-0.2-0.5-0.5-0.6c-0.3,0-0.4,0.2-0.3,0.3c0.5-0.2,0.7,0.5,0.2,0.5c-0.6,0-0.8-0.7-0.5-1
							c0.3-0.3,0.9-0.3,1,0c-0.1-0.2-0.2-0.6-0.2-1c0-0.1-0.1-0.6-0.2-0.7c0.1-0.1,0.3,0.1,0.3,0.1c0.1-0.3,0.3-0.6,0.6-0.7
							c-0.4,0.8-0.4,1.6-0.2,2.2c0.3,0.8,0.1,2-1.2,1.8c-1.3-0.2-1.5-1.4-0.5-3.2c0.3-0.6-0.5-0.7-0.6-0.2c-0.1-0.5-0.9-0.5-0.6,0.2
							c1,1.8,0.7,3.1-0.5,3.2c-1.3,0.2-1.6-1-1.2-1.8c0.3-0.6,0.3-1.4-0.2-2.2c0.3,0.2,0.5,0.4,0.6,0.7c0-0.1,0.2-0.2,0.3-0.1
							c-0.1,0.1-0.2,0.6-0.2,0.7c0,0.4-0.1,0.7-0.2,1c0.2-0.2,0.7-0.3,1,0c0.3,0.3,0.1,1-0.5,1c-0.5,0-0.4-0.7,0.2-0.5
							c0.1-0.2-0.1-0.4-0.3-0.3c-0.3,0-0.5,0.3-0.5,0.6c0.1,0.4,0.3,0.7,0.8,0.6c0.6-0.1,0.9-0.7,0.5-1.7c-0.3-0.8-1.1-1.5-0.4-2
							C271.7,90.4,272.2,90.4,272.5,90.8z"/>
					</g>
					<g>
						<path fill="#FFF100" d="M272.5,104.7c0-0.5-0.9-2-2.2-1.3c-1.6,0.9,0.8,4.4,1.5,6.3c0.4,1-0.1,1.6-0.6,1.6
							c-0.5,0-0.7-0.2-0.8-0.6c-0.1-0.3,0.2-0.5,0.5-0.6c0.3,0,0.4,0.2,0.3,0.3c-0.5-0.2-0.7,0.5-0.2,0.5c0.6,0,0.8-0.7,0.5-1
							c-0.3-0.3-0.9-0.3-1,0c0.1-0.2,0.2-0.6,0.2-1c0-0.1,0.1-0.6,0.2-0.7c-0.1-0.1-0.3,0.1-0.3,0.1c-0.1-0.3-0.3-0.6-0.6-0.7
							c0.4,0.8,0.4,1.6,0.2,2.2c-0.3,0.8-0.1,2,1.2,1.8c1.3-0.2,1.5-1.3,0.7-3c-0.8-1.6-2.5-4.5-1.3-5c0.4-0.2,1,0.2,1.3,0.7
							c0.1,0.2,0,0.3-0.2,0.3c-0.1,0-0.2,0-0.4,0v-0.1c0-0.3-0.3-0.3-0.3,0v0.1c-0.1,0-0.2,0.1-0.2,0.2c0,0.1,0.1,0.2,0.2,0.2v0.1
							c0,0.3,0.3,0.3,0.3,0v-0.1c0.2,0,0.5,0,0.6,0c0.1,0,0.2,0,0.2,0.2c0,0.6,0,1,0,1.4c0,0.1-0.4,0.1-0.4-0.2
							c0-0.1-0.1-0.2-0.1-0.1c-0.4,0.5,0.4,0.8,0.5,0.6c0,0.4,0,0.6,0,0.8c0,0.6,0.6,0.6,0.6,0c0-0.2,0-0.5,0-0.8
							c0.2,0.2,0.9-0.1,0.5-0.6c0-0.1-0.1,0-0.1,0.1c0,0.3-0.4,0.3-0.4,0.2c0-0.4,0-0.8,0-1.4c0-0.1,0.1-0.2,0.2-0.2
							c0.1,0,0.4,0,0.6,0v0.1c0,0.3,0.3,0.3,0.3,0v-0.1c0.1,0,0.2-0.1,0.2-0.2c0-0.1-0.1-0.2-0.2-0.2v-0.1c0-0.3-0.3-0.3-0.3,0v0.1
							c-0.2,0-0.3,0-0.4,0c-0.2,0-0.3-0.1-0.2-0.3c0.3-0.6,0.9-0.9,1.3-0.7c1.1,0.5-0.5,3.4-1.3,5c-0.8,1.6-0.6,2.8,0.7,3
							c1.3,0.2,1.6-1,1.2-1.8c-0.3-0.6-0.3-1.4,0.2-2.2c-0.3,0.2-0.5,0.4-0.6,0.7c0-0.1-0.2-0.2-0.3-0.1c0.1,0.1,0.2,0.6,0.2,0.7
							c0,0.4,0.1,0.7,0.2,1c-0.2-0.2-0.7-0.3-1,0s-0.1,1,0.5,1c0.5,0,0.4-0.7-0.2-0.5c-0.1-0.2,0.1-0.4,0.3-0.3
							c0.3,0,0.5,0.3,0.5,0.6c-0.1,0.4-0.3,0.7-0.8,0.6c-0.5,0-0.9-0.6-0.6-1.6c0.7-1.9,3.1-5.4,1.5-6.3
							C273.4,102.7,272.5,104.1,272.5,104.7z"/>
					</g>
				</g>
			</g>
			
				<use xlink:href="#XMLID_42_"  overflow="visible" fill="none" stroke="#AAAAAA" stroke-linejoin="round" stroke-miterlimit="10"/>
		</g>
	</g>
	<circle fill="#FFFFFF" stroke="#AAAAAA" stroke-linejoin="round" stroke-miterlimit="10" cx="277.9" cy="108" r="3.6"/>
	<path fill="#FFFFFF" stroke="#AAAAAA" stroke-linejoin="round" stroke-miterlimit="10" d="M197.7,109c-0.9,0.5-2,0.1-2.5-0.8
		s-0.1-2.1,0.8-2.6c0.9-0.5,2-0.1,2.5,0.8C199,107.3,198.6,108.5,197.7,109z"/>
	<path fill="#FFFFFF" stroke="#AAAAAA" stroke-linejoin="round" stroke-miterlimit="10" d="M256.2,109c-0.9,0.5-2,0.1-2.5-0.8
		s-0.1-2.1,0.8-2.6c0.9-0.5,2-0.1,2.5,0.8S257.1,108.5,256.2,109z"/>
	<path fill="#FFFFFF" stroke="#AAAAAA" stroke-linejoin="round" stroke-miterlimit="10" d="M178.2,110.1c-0.9,0.5-2,0.1-2.5-0.8
		s-0.1-2.1,0.8-2.6c0.9-0.5,2-0.1,2.5,0.8S179.1,109.6,178.2,110.1z"/>
	<path fill="#FFFFFF" stroke="#AAAAAA" stroke-linejoin="round" stroke-miterlimit="10" d="M162.9,204.4c-0.9,0.5-2,0.1-2.5-0.8
		c-0.5-1-0.1-2.1,0.8-2.6c0.9-0.5,2-0.1,2.5,0.8C164.2,202.7,163.8,203.9,162.9,204.4z"/>
	<path fill="#FFFFFF" stroke="#AAAAAA" stroke-linejoin="round" stroke-miterlimit="10" d="M267.7,168.4c-0.9,0.5-2,0.1-2.5-0.8
		c-0.5-1-0.1-2.1,0.8-2.6c0.9-0.5,2-0.1,2.5,0.8C268.9,166.7,268.6,167.9,267.7,168.4z"/>
	<path fill="#FFFFFF" stroke="#AAAAAA" stroke-linejoin="round" stroke-miterlimit="10" d="M123.1,69.3c-0.9,0.5-2,0.1-2.5-0.8
		s-0.1-2.1,0.8-2.6c0.9-0.5,2-0.1,2.5,0.8C124.4,67.6,124.1,68.8,123.1,69.3z"/>
	<g>
		<g>
			<path fill="#041944" d="M354.5,257.1c-4.9,0-9.8-1.2-14.1-3.5c-14.6-7.8-20.2-26-12.5-40.6c5.2-9.8,15.3-15.9,26.5-15.9
				c4.9,0,9.8,1.2,14.1,3.5c14.6,7.8,20.2,26,12.5,40.6C375.7,251,365.6,257.1,354.5,257.1z"/>
			<path fill="#AAAAAA" d="M354.4,200.1c4.3,0,8.6,1,12.7,3.2c13.2,7,18.2,23.4,11.2,36.5c-4.8,9.1-14.2,14.3-23.8,14.3
				c-4.3,0-8.6-1-12.7-3.2c-13.2-7-18.2-23.4-11.2-36.5C335.4,205.3,344.8,200.1,354.4,200.1 M354.4,194.1v6V194.1
				C354.4,194.1,354.4,194.1,354.4,194.1c-12.2,0-23.4,6.7-29.1,17.5c-8.5,16.1-2.4,36.1,13.7,44.6c4.8,2.5,10.1,3.9,15.5,3.9
				c12.2,0,23.4-6.7,29.1-17.5c8.5-16.1,2.4-36.1-13.7-44.6C365.1,195.4,359.8,194.1,354.4,194.1L354.4,194.1z"/>
		</g>
		<g>
			<defs>
				<path id="XMLID_11_" d="M344.4,246c-10.4-5.6-14.4-18.5-8.8-29s18.5-14.4,28.9-8.9s14.4,18.5,8.8,29S354.8,251.6,344.4,246z"/>
			</defs>
			<use xlink:href="#XMLID_11_"  overflow="visible" fill="#FFFFFF"/>
			<clipPath id="XMLID_23_">
				<use xlink:href="#XMLID_11_"  overflow="visible"/>
			</clipPath>
			<g clip-path="url(#XMLID_23_)">
				<rect id="XMLID_41_" x="324.8" y="183.1" fill="#EC1C2E" width="57.7" height="76.3"/>
				<g id="XMLID_39_">
					<path id="XMLID_40_" fill="#FFE01B" d="M355.3,218.8c0-1.4,1.3-2.4,1.3-4.3c0.9,1.1-0.6,3.2-0.1,4.5c0.2-1.4,1.6-2.2,2-4
						c0.7,1.3-1.1,3.1-0.8,4.4c0.5-1.3,1.9-1.9,2.6-3.6c0.5,1.3-1.6,2.9-1.4,4.2c0.7-1.2,2.2-1.5,3.1-3.2c0.3,1.4-2,2.6-2.1,3.9
						c0.8-1.1,2.4-1.2,3.6-2.7c0.1,1.4-2.4,2.3-2.7,3.6c1-1,2.6-0.8,3.9-2.1c-0.2,1.4-2.7,1.9-3.2,3.1c1.1-0.8,2.7-0.4,4.2-1.4
						c-0.4,1.4-3,1.4-3.6,2.6c1.3-0.6,2.7,0,4.4-0.8c-0.6,1.3-3.1,0.9-4,2c1.3-0.4,2.6,0.5,4.4-0.1c-0.8,1.2-3.2,0.4-4.2,1.3
						c1.4-0.2,2.5,0.9,4.4,0.6c-1,1.1-3.3-0.1-4.4,0.6c1.4,0,2.4,1.3,4.2,1.3c-1.1,0.9-3.2-0.6-4.4-0.1c1.4,0.2,2.1,1.6,4,2
						c-1.2,0.7-3.1-1.1-4.4-0.8c1.3,0.5,1.9,1.9,3.6,2.6c-1.3,0.5-2.9-1.6-4.2-1.4c1.2,0.7,1.5,2.2,3.2,3.1c-1.4,0.3-2.6-2-3.9-2.1
						c1.1,0.8,1.2,2.4,2.7,3.6c-1.4,0.1-2.3-2.4-3.6-2.7c1,1,0.8,2.6,2.1,3.9c-1.4-0.2-1.9-2.7-3.1-3.2c0.8,1.2,0.4,2.7,1.4,4.2
						c-1.4-0.4-1.4-3-2.6-3.6c0.6,1.3,0,2.7,0.8,4.4c-1.3-0.6-0.9-3.1-2-4c0.4,1.3-0.5,2.7,0.1,4.5c-1.2-0.8-0.4-3.3-1.3-4.3
						c0.2,1.4-0.9,2.5-0.6,4.4c-1.1-1,0.1-3.3-0.6-4.4c0,1.4-1.3,2.4-1.3,4.3c-0.9-1.1,0.6-3.2,0.1-4.5c-0.2,1.4-1.6,2.2-2,4
						c-0.7-1.3,1.1-3.1,0.8-4.4c-0.5,1.3-1.9,1.9-2.6,3.6c-0.5-1.3,1.6-2.9,1.4-4.2c-0.7,1.2-2.2,1.5-3.1,3.2
						c-0.3-1.4,2-2.6,2.1-3.9c-0.8,1.1-2.4,1.2-3.6,2.7c-0.1-1.4,2.4-2.3,2.7-3.6c-1,1-2.6,0.8-3.9,2.1c0.2-1.4,2.7-1.9,3.2-3.1
						c-1.1,0.8-2.7,0.4-4.2,1.4c0.4-1.4,3-1.4,3.6-2.6c-1.3,0.6-2.7,0-4.4,0.8c0.6-1.3,3.1-0.9,4-2c-1.3,0.4-2.6-0.5-4.4,0.1
						c0.8-1.2,3.2-0.4,4.2-1.3c-1.4,0.2-2.5-0.9-4.4-0.6c1-1.1,3.3,0.1,4.4-0.6c-1.4,0-2.4-1.3-4.2-1.3c1.1-0.9,3.2,0.6,4.4,0.1
						c-1.4-0.2-2.1-1.6-4-2c1.2-0.7,3.1,1.1,4.4,0.8c-1.3-0.5-1.9-1.9-3.6-2.6c1.3-0.5,2.9,1.6,4.2,1.4c-1.2-0.7-1.5-2.2-3.2-3.1
						c1.4-0.3,2.6,2,3.9,2.1c-1.1-0.8-1.2-2.4-2.7-3.6c1.4-0.1,2.3,2.4,3.6,2.7c-1-1-0.8-2.6-2.1-3.9c1.4,0.2,1.9,2.7,3.1,3.2
						c-0.8-1.2-0.4-2.7-1.4-4.2c1.4,0.4,1.4,3,2.6,3.6c-0.6-1.3,0-2.7-0.8-4.4c1.3,0.6,0.9,3.1,2,4c-0.4-1.3,0.5-2.7-0.1-4.5
						c1.2,0.8,0.4,3.3,1.3,4.3c-0.2-1.4,0.9-2.5,0.6-4.4C355.7,215.3,354.6,217.7,355.3,218.8z"/>
				</g>
				<ellipse id="XMLID_38_" fill="#EC1C2E" cx="354.6" cy="226.9" rx="6.6" ry="6.6"/>
				<g id="XMLID_12_">
					<g id="XMLID_13_">
						<path id="XMLID_37_" fill="#FFE01B" d="M354.6,221.1c1.7,0,3.2,0.7,4.3,1.9c-1.7,0.2-3.1,0.6-4.3,1.2c-1.2-0.6-2.6-1-4.3-1.2
							C351.4,221.8,352.9,221.1,354.6,221.1z"/>
						<path id="XMLID_36_" fill="#FFE01B" d="M354.2,224.4c-0.1,0.1-0.3,0.2-0.4,0.2c-1.1-0.6-2.4-0.9-3.9-1
							c0.1-0.1,0.1-0.2,0.2-0.3C351.7,223.4,353.1,223.8,354.2,224.4z"/>
						<path id="XMLID_35_" fill="#FFE01B" d="M355.1,224.4c0.1,0.1,0.3,0.2,0.4,0.2c1.1-0.6,2.4-0.9,3.9-1c-0.1-0.1-0.1-0.2-0.2-0.3
							C357.5,223.4,356.2,223.8,355.1,224.4z"/>
						<path id="XMLID_34_" fill="#FFE01B" d="M349.7,223.9c-0.1,0.1-0.1,0.2-0.2,0.3c1.4,0,2.6,0.4,3.6,0.9c0.1-0.1,0.2-0.2,0.3-0.2
							C352.4,224.3,351.2,223.9,349.7,223.9z"/>
						<path id="XMLID_33_" fill="#FFE01B" d="M349.7,229.8c-0.5-0.9-0.8-1.8-0.8-2.9c0-0.9,0.2-1.7,0.5-2.4c1.4,0,2.5,0.3,3.5,0.8
							C351.5,226.4,350.4,228,349.7,229.8z"/>
						<path id="XMLID_32_" fill="#FFE01B" d="M352.6,232.3c-0.3-0.1-0.5-0.2-0.7-0.4c0.1-2.2,0.8-4.2,2.3-5.7
							c0.1,0.1,0.2,0.2,0.3,0.3C353.1,228,352.5,230.2,352.6,232.3z"/>
						<path id="XMLID_31_" fill="#FFE01B" d="M359.5,223.9c0.1,0.1,0.1,0.2,0.2,0.3c-1.4,0-2.6,0.4-3.6,0.9
							c-0.1-0.1-0.2-0.2-0.3-0.2C356.8,224.3,358.1,223.9,359.5,223.9z"/>
						<path id="XMLID_30_" fill="#FFE01B" d="M359.6,229.8c0.5-0.9,0.8-1.8,0.8-2.9c0-0.9-0.2-1.7-0.5-2.4c-1.4,0-2.5,0.3-3.5,0.8
							C357.8,226.4,358.8,228,359.6,229.8z"/>
						<path id="XMLID_29_" fill="#FFE01B" d="M354.6,226.8c1.2,1.5,1.6,3.6,1.4,5.7c-0.4,0.1-0.9,0.2-1.4,0.2s-1-0.1-1.4-0.2
							C353,230.4,353.4,228.4,354.6,226.8z"/>
						<path id="XMLID_21_" fill="#FFE01B" d="M356.7,232.3c0.3-0.1,0.5-0.2,0.7-0.4c-0.1-2.2-0.8-4.2-2.3-5.7
							c-0.1,0.1-0.2,0.2-0.3,0.3C356.2,228,356.8,230.2,356.7,232.3z"/>
						<path id="XMLID_20_" fill="#FFE01B" d="M353.7,225.9c-0.1-0.1-0.3-0.2-0.4-0.3c-1.5,1.3-2.4,3.1-3,5.1
							c0.2,0.3,0.5,0.5,0.7,0.7C351.4,229.2,352.3,227.3,353.7,225.9z"/>
						<path id="XMLID_18_" fill="#FFE01B" d="M355.5,225.9c0.1-0.1,0.3-0.2,0.4-0.3c1.5,1.3,2.4,3.1,3,5.1c-0.2,0.3-0.5,0.5-0.7,0.7
							C357.9,229.2,357,227.3,355.5,225.9z"/>
						<path id="XMLID_17_" fill="#FFE01B" d="M354.6,224.6c0.1,0,0.3,0.2,0.4,0.2c-0.1,0.1-0.3,0.2-0.4,0.3c-0.1,0-0.3-0.2-0.4-0.3
							C354.3,224.8,354.6,224.7,354.6,224.6z"/>
						<path id="XMLID_16_" fill="#FFE01B" d="M353.9,225.1c-0.1,0.1-0.2,0.2-0.3,0.2c0.1,0.1,0.3,0.2,0.4,0.3
							c0.1-0.1,0.2-0.2,0.3-0.3C354.2,225.3,354,225.2,353.9,225.1z"/>
						<path id="XMLID_15_" fill="#FFE01B" d="M355.4,225.1c0.1,0.1,0.2,0.2,0.3,0.2c-0.1,0.1-0.3,0.2-0.4,0.3
							c-0.1-0.1-0.2-0.2-0.3-0.3C355.1,225.3,355.3,225.2,355.4,225.1z"/>
						<path id="XMLID_14_" fill="#FFE01B" d="M354.6,225.7c0.1,0.1,0.3,0.2,0.3,0.3c-0.1,0.1-0.2,0.2-0.3,0.3
							c-0.1-0.1-0.2-0.2-0.3-0.3C354.4,225.9,354.6,225.7,354.6,225.7z"/>
					</g>
				</g>
			</g>
			
				<use xlink:href="#XMLID_11_"  overflow="visible" fill="none" stroke="#AAAAAA" stroke-linejoin="round" stroke-miterlimit="10"/>
		</g>
	</g>
	<circle fill="#FFFFFF" stroke="#AAAAAA" stroke-linejoin="round" stroke-miterlimit="10" cx="321.2" cy="225.8" r="3.6"/>
	<g>
		
			<rect x="141" y="43.1" fill="#FFFFFF" stroke="#AAAAAA" stroke-linejoin="round" stroke-miterlimit="10" width="15.6" height="18.9"/>
		
			<rect x="138.7" y="40.8" fill="#FFFFFF" stroke="#AAAAAA" stroke-linejoin="round" stroke-miterlimit="10" width="15.6" height="18.7"/>
		<line fill="none" stroke="#AAAAAA" stroke-linejoin="round" stroke-miterlimit="10" x1="142.3" y1="47.1" x2="150.8" y2="47.1"/>
		<line fill="none" stroke="#AAAAAA" stroke-linejoin="round" stroke-miterlimit="10" x1="142.3" y1="50.2" x2="150.8" y2="50.2"/>
		<line fill="none" stroke="#AAAAAA" stroke-linejoin="round" stroke-miterlimit="10" x1="142.3" y1="53.3" x2="150.8" y2="53.3"/>
	</g>
	<g>
		
			<rect x="197.6" y="153.1" fill="#FFFFFF" stroke="#AAAAAA" stroke-linejoin="round" stroke-miterlimit="10" width="15.6" height="18.9"/>
		
			<rect x="195.3" y="150.8" fill="#FFFFFF" stroke="#AAAAAA" stroke-linejoin="round" stroke-miterlimit="10" width="15.6" height="18.7"/>
		
			<line fill="none" stroke="#AAAAAA" stroke-linejoin="round" stroke-miterlimit="10" x1="198.9" y1="157.1" x2="207.3" y2="157.1"/>
		
			<line fill="none" stroke="#AAAAAA" stroke-linejoin="round" stroke-miterlimit="10" x1="198.9" y1="160.2" x2="207.3" y2="160.2"/>
		
			<line fill="none" stroke="#AAAAAA" stroke-linejoin="round" stroke-miterlimit="10" x1="198.9" y1="163.3" x2="207.3" y2="163.3"/>
	</g>
	<line fill="none" stroke="#AAAAAA" stroke-linejoin="round" stroke-miterlimit="10" x1="226.9" y1="111.6" x2="204.5" y2="111.6"/>
	<line fill="none" stroke="#AAAAAA" stroke-linejoin="round" stroke-miterlimit="10" x1="211.8" y1="115.1" x2="218.5" y2="115.1"/>
	<line fill="none" stroke="#AAAAAA" stroke-linejoin="round" stroke-miterlimit="10" x1="74.3" y1="74.9" x2="80.1" y2="74.9"/>
	<line fill="none" stroke="#AAAAAA" stroke-linejoin="round" stroke-miterlimit="10" x1="74.3" y1="77.9" x2="84.7" y2="77.9"/>
	<line fill="none" stroke="#AAAAAA" stroke-linejoin="round" stroke-miterlimit="10" x1="181.2" y1="234.3" x2="206" y2="234.3"/>
	<line fill="none" stroke="#AAAAAA" stroke-linejoin="round" stroke-miterlimit="10" x1="193" y1="237.8" x2="213.5" y2="237.8"/>
	<line fill="none" stroke="#AAAAAA" stroke-linejoin="round" stroke-miterlimit="10" x1="216.7" y1="237.8" x2="219.6" y2="237.8"/>
	<line fill="none" stroke="#AAAAAA" stroke-linejoin="round" stroke-miterlimit="10" x1="211.8" y1="158.1" x2="249.7" y2="158.1"/>
	<line fill="none" stroke="#AAAAAA" stroke-linejoin="round" stroke-miterlimit="10" x1="237.6" y1="155.1" x2="258.4" y2="155.1"/>
	<line fill="none" stroke="#AAAAAA" stroke-linejoin="round" stroke-miterlimit="10" x1="263.6" y1="155.1" x2="266.2" y2="155.1"/>
	<g>
		<g id="XMLID_4_">
			<path fill="#041944" d="M416.5,163.5c-16.5,0-30-13.5-30-30s13.5-30,30-30s30,13.5,30,30S433,163.5,416.5,163.5z"/>
			<path fill="#AAAAAA" d="M416.5,106.5c14.9,0,27,12.1,27,27s-12.1,27-27,27s-27-12.1-27-27S401.6,106.5,416.5,106.5 M416.5,100.5
				c-18.2,0-33,14.8-33,33s14.8,33,33,33s33-14.8,33-33S434.7,100.5,416.5,100.5L416.5,100.5z"/>
		</g>
		<g>
			<g>
				<g>
					<defs>
						<ellipse id="XMLID_3_" cx="416.6" cy="133.6" rx="22.7" ry="22.6"/>
					</defs>
					<use xlink:href="#XMLID_3_"  overflow="visible" fill="#041944"/>
					<clipPath id="XMLID_24_">
						<use xlink:href="#XMLID_3_"  overflow="visible"/>
					</clipPath>
					
						<rect x="395.4" y="149.2" clip-path="url(#XMLID_24_)" fill="none" stroke="#AAAAAA" stroke-linejoin="round" stroke-miterlimit="10" width="38.5" height="12.7"/>
					
						<line clip-path="url(#XMLID_24_)" fill="#041944" stroke="#AAAAAA" stroke-linejoin="round" stroke-miterlimit="10" x1="423.2" y1="149.2" x2="444.1" y2="115"/>
					
						<circle clip-path="url(#XMLID_24_)" fill="#041944" stroke="#AAAAAA" stroke-linejoin="round" stroke-miterlimit="10" cx="432.8" cy="133.2" r="1.6"/>
					
						<circle clip-path="url(#XMLID_24_)" fill="#041944" stroke="#AAAAAA" stroke-linejoin="round" stroke-miterlimit="10" cx="423.3" cy="149" r="1.8"/>
					
						<use xlink:href="#XMLID_3_"  overflow="visible" fill="none" stroke="#AAAAAA" stroke-linejoin="round" stroke-miterlimit="10"/>
				</g>
			</g>
			<g>
				<path fill="#AAAAAA" d="M413.8,133.5v-1c0-0.9,0.2-1.6,0.5-2.2c0.4-0.6,1-1.3,2-2c0.9-0.7,1.6-1.2,1.9-1.6s0.4-0.9,0.4-1.4
					c0-0.6-0.2-1-0.6-1.3c-0.4-0.3-1-0.5-1.8-0.5c-1.3,0-2.9,0.4-4.6,1.3l-1.5-2.9c2-1.1,4.1-1.7,6.3-1.7c1.8,0,3.3,0.4,4.4,1.3
					c1.1,0.9,1.6,2.1,1.6,3.5c0,1-0.2,1.8-0.7,2.5s-1.3,1.5-2.5,2.4c-0.9,0.6-1.4,1.1-1.6,1.4c-0.2,0.3-0.3,0.8-0.3,1.3v0.8H413.8z
					 M413.3,138.1c0-0.7,0.2-1.3,0.6-1.7c0.4-0.4,1-0.6,1.8-0.6c0.7,0,1.3,0.2,1.7,0.6s0.6,1,0.6,1.7c0,0.7-0.2,1.3-0.6,1.7
					s-1,0.6-1.7,0.6c-0.7,0-1.3-0.2-1.7-0.6C413.5,139.3,413.3,138.8,413.3,138.1z"/>
			</g>
		</g>
	</g>
	<circle fill="#FFFFFF" stroke="#AAAAAA" stroke-linejoin="round" stroke-miterlimit="10" cx="388.8" cy="152.6" r="3.6"/>
	<g>
		<path fill="#041944" d="M214.6,84.1c-4.9,0-9.8-1.2-14.1-3.5c-14.6-7.8-20.2-26-12.5-40.6c5.2-9.8,15.3-15.9,26.5-15.9
			c4.9,0,9.8,1.2,14.1,3.5c14.6,7.8,20.2,26,12.5,40.6C235.9,78,225.7,84.1,214.6,84.1z"/>
		<path fill="#AAAAAA" d="M214.5,27.1c4.3,0,8.6,1,12.7,3.2c13.2,7,18.2,23.4,11.2,36.5c-4.8,9.1-14.2,14.3-23.8,14.3
			c-4.3,0-8.6-1-12.7-3.2c-13.2-7-18.2-23.4-11.2-36.5C195.6,32.3,204.9,27.1,214.5,27.1 M214.5,21.1v6V21.1
			C214.5,21.1,214.5,21.1,214.5,21.1c-12.2,0-23.4,6.7-29.1,17.5c-8.5,16.1-2.4,36.1,13.7,44.6c4.8,2.5,10.1,3.9,15.5,3.9
			c12.2,0,23.4-6.7,29.1-17.5c8.5-16.1,2.4-36.1-13.7-44.6C225.3,22.5,219.9,21.1,214.5,21.1L214.5,21.1z"/>
	</g>
	<circle fill="#FFFFFF" stroke="#AAAAAA" stroke-linejoin="round" stroke-miterlimit="10" cx="181.2" cy="54.1" r="3.6"/>
	<g>
		<g>
			<defs>
				<rect id="XMLID_1159_" x="226.1" y="105" width="19.7" height="12.9"/>
			</defs>
			<use xlink:href="#XMLID_1159_"  overflow="visible" fill="#FFFFFF"/>
			<clipPath id="XMLID_25_">
				<use xlink:href="#XMLID_1159_"  overflow="visible"/>
			</clipPath>
			
				<use xlink:href="#XMLID_1159_"  overflow="visible" fill="none" stroke="#AAAAAA" stroke-linejoin="round" stroke-miterlimit="10"/>
		</g>
		<g>
			<defs>
				<rect id="XMLID_1156_" x="224.2" y="102.8" width="19.7" height="12.9"/>
			</defs>
			<use xlink:href="#XMLID_1156_"  overflow="visible" fill="#FFFFFF"/>
			<clipPath id="XMLID_26_">
				<use xlink:href="#XMLID_1156_"  overflow="visible"/>
			</clipPath>
			<polyline clip-path="url(#XMLID_26_)" fill="#FFFFFF" stroke="#AAAAAA" stroke-linejoin="round" stroke-miterlimit="10" points="
				224.2,115.7 231.4,105.3 236.1,105.1 243.9,115.7 240.5,130.3 			"/>
			<polyline clip-path="url(#XMLID_26_)" fill="#FFFFFF" stroke="#AAAAAA" stroke-linejoin="round" stroke-miterlimit="10" points="
				223.4,97.9 224.2,102.8 233.7,110 243.9,102.8 244.3,97.7 			"/>
			
				<use xlink:href="#XMLID_1156_"  overflow="visible" fill="none" stroke="#AAAAAA" stroke-linejoin="round" stroke-miterlimit="10"/>
		</g>
	</g>
	<g>
		<g>
			<defs>
				<rect id="XMLID_1161_" x="172.1" y="231.3" width="19.7" height="12.9"/>
			</defs>
			<use xlink:href="#XMLID_1161_"  overflow="visible" fill="#FFFFFF"/>
			<clipPath id="XMLID_27_">
				<use xlink:href="#XMLID_1161_"  overflow="visible"/>
			</clipPath>
			
				<use xlink:href="#XMLID_1161_"  overflow="visible" fill="none" stroke="#AAAAAA" stroke-linejoin="round" stroke-miterlimit="10"/>
		</g>
		<g>
			<defs>
				<rect id="XMLID_1160_" x="170.2" y="229.1" width="19.7" height="12.9"/>
			</defs>
			<use xlink:href="#XMLID_1160_"  overflow="visible" fill="#FFFFFF"/>
			<clipPath id="XMLID_28_">
				<use xlink:href="#XMLID_1160_"  overflow="visible"/>
			</clipPath>
			<polyline clip-path="url(#XMLID_28_)" fill="#FFFFFF" stroke="#AAAAAA" stroke-linejoin="round" stroke-miterlimit="10" points="
				170.2,242 177.4,231.6 182.1,231.4 189.9,242 186.5,256.6 			"/>
			<polyline clip-path="url(#XMLID_28_)" fill="#FFFFFF" stroke="#AAAAAA" stroke-linejoin="round" stroke-miterlimit="10" points="
				169.4,224.2 170.2,229.1 179.7,236.3 189.9,229.1 190.3,224 			"/>
			
				<use xlink:href="#XMLID_1160_"  overflow="visible" fill="none" stroke="#AAAAAA" stroke-linejoin="round" stroke-miterlimit="10"/>
		</g>
	</g>
	<line fill="none" stroke="#AAAAAA" stroke-linejoin="round" stroke-miterlimit="10" x1="68.4" y1="102.6" x2="45" y2="54"/>
	<g>
		<g>
			<path fill="#041944" d="M33,63c-11.1,0-21.3-6.1-26.5-15.9C-1.3,32.4,4.4,14.3,19,6.5C23.3,4.2,28.2,3,33,3
				c11.1,0,21.3,6.1,26.5,15.9c7.7,14.6,2.1,32.8-12.5,40.6C42.7,61.8,37.8,63,33,63z"/>
			<path fill="#AAAAAA" d="M33,6c9.7,0,19,5.2,23.8,14.3c7,13.2,1.9,29.5-11.3,36.5C41.6,59,37.2,60,33,60c-9.7,0-19-5.2-23.8-14.3
				c-7-13.2-1.9-29.5,11.3-36.5C24.4,7,28.8,6,33,6 M33,0C33,0,33,0,33,0c-5.4,0-10.7,1.3-15.5,3.9C1.5,12.4-4.7,32.4,3.8,48.5
				C9.5,59.3,20.7,66,33,66c5.4,0,10.7-1.3,15.5-3.9c16.1-8.5,22.3-28.5,13.8-44.6C56.5,6.7,45.3,0,33,0L33,0z"/>
		</g>
		<g>
			<defs>
				
					<ellipse id="XMLID_5_" transform="matrix(-0.4675 -0.884 0.884 -0.4675 19.2595 77.6008)" cx="33" cy="33" rx="21.4" ry="21.4"/>
			</defs>
			<use xlink:href="#XMLID_5_"  overflow="visible" fill="#FFFFFF"/>
			<clipPath id="XMLID_44_">
				<use xlink:href="#XMLID_5_"  overflow="visible"/>
			</clipPath>
			<g id="XMLID_6_" clip-path="url(#XMLID_44_)">
				<defs>
					<rect id="XMLID_7_" x="10.4" y="11.4" width="44.8" height="44.6"/>
				</defs>
				<use xlink:href="#XMLID_7_"  overflow="visible" fill="#D82126"/>
				<clipPath id="XMLID_45_">
					<use xlink:href="#XMLID_7_"  overflow="visible"/>
				</clipPath>
				<polygon id="XMLID_9_" clip-path="url(#XMLID_45_)" fill="#F2B066" points="0.2,41.5 59.8,41.5 59,56 0.2,56 				"/>
				<rect id="XMLID_8_" x="9.3" y="26.3" clip-path="url(#XMLID_45_)" fill="#324788" width="58.7" height="15.2"/>
			</g>
			<use xlink:href="#XMLID_5_"  overflow="visible" fill="none" stroke="#AAAAAA" stroke-linejoin="round" stroke-miterlimit="10"/>
		</g>
	</g>
	<g>
		<g>
			<defs>
				<rect id="XMLID_1_" x="51.5" y="71.4" width="19.7" height="12.9"/>
			</defs>
			<use xlink:href="#XMLID_1_"  overflow="visible" fill="#FFFFFF"/>
			<clipPath id="XMLID_46_">
				<use xlink:href="#XMLID_1_"  overflow="visible"/>
			</clipPath>
			<polyline clip-path="url(#XMLID_46_)" fill="#FFFFFF" stroke="#AAAAAA" stroke-linejoin="round" stroke-miterlimit="10" points="
				51.5,84.3 58.7,74 63.3,73.7 71.1,84.3 67.7,98.9 			"/>
			<polyline clip-path="url(#XMLID_46_)" fill="#FFFFFF" stroke="#AAAAAA" stroke-linejoin="round" stroke-miterlimit="10" points="
				50.6,66.6 51.5,71.4 61,78.6 71.1,71.4 71.5,66.4 			"/>
			<use xlink:href="#XMLID_1_"  overflow="visible" fill="none" stroke="#AAAAAA" stroke-linejoin="round" stroke-miterlimit="10"/>
		</g>
	</g>
	<g>
		<path fill="#041944" d="M267.5,302.4c-10.6,0-20.2-5.4-25.7-14.5c-4.2-6.9-5.4-14.9-3.5-22.7c1.9-7.8,6.7-14.3,13.5-18.5
			c4.7-2.8,10-4.3,15.5-4.3c10.6,0,20.2,5.4,25.7,14.5c4.2,6.9,5.4,14.9,3.5,22.7c-1.9,7.8-6.7,14.3-13.5,18.5
			C278.3,300.9,272.9,302.4,267.5,302.4z"/>
		<path fill="#AAAAAA" d="M267.3,245.4c9.1,0,18.1,4.6,23.2,13c7.8,12.8,3.7,29.4-9,37.1c-4.4,2.6-9.2,3.9-13.9,3.9
			c-9.1,0-18.1-4.6-23.2-13c-7.8-12.8-3.7-29.4,9-37.1C257.7,246.7,262.5,245.4,267.3,245.4 M267.3,239.4v6V239.4
			C267.3,239.4,267.3,239.4,267.3,239.4c-6,0-11.9,1.7-17,4.8c-7.5,4.6-12.8,11.8-14.9,20.3c-2.1,8.6-0.7,17.4,3.9,25
			c6.1,10,16.6,15.9,28.3,15.9c6,0,11.9-1.6,17-4.8c7.5-4.6,12.8-11.8,14.9-20.3c2.1-8.6,0.7-17.4-3.9-25
			C289.5,245.4,278.9,239.4,267.3,239.4L267.3,239.4z"/>
	</g>
	<circle fill="#FFFFFF" stroke="#AAAAAA" stroke-linejoin="round" stroke-miterlimit="10" cx="48" cy="61.4" r="3.6"/>
	<g>
		<defs>
			<path id="XMLID_43_" d="M249.1,283.5c-6.1-10.1-2.9-23.2,7.2-29.4s23.3-2.9,29.4,7.2c6.1,10.1,2.9,23.2-7.2,29.4
				C268.4,296.8,255.2,293.6,249.1,283.5z"/>
		</defs>
		<use xlink:href="#XMLID_43_"  overflow="visible" fill="#FFFFFF"/>
		<clipPath id="XMLID_47_">
			<use xlink:href="#XMLID_43_"  overflow="visible"/>
		</clipPath>
		<polygon id="XMLID_49_" clip-path="url(#XMLID_47_)" fill="#C2332D" points="243.4,277.8 290.6,277.6 290.7,296.4 243.5,296.6 		
			"/>
		<rect x="243.4" y="264.2" clip-path="url(#XMLID_47_)" fill="#2171BC" width="47.3" height="15.6"/>
		<use xlink:href="#XMLID_43_"  overflow="visible" fill="none" stroke="#AAAAAA" stroke-linejoin="round" stroke-miterlimit="10"/>
	</g>
	<circle fill="#FFFFFF" stroke="#AAAAAA" stroke-linejoin="round" stroke-miterlimit="10" cx="233.7" cy="275.7" r="3.6"/>
	<g>
		<defs>
			<path id="XMLID_10_" d="M224.6,35.2c10.4,5.6,14.4,18.5,8.8,29s-18.5,14.4-28.9,8.9c-10.4-5.6-14.4-18.5-8.8-29
				S214.2,29.6,224.6,35.2z"/>
		</defs>
		<use xlink:href="#XMLID_10_"  overflow="visible" fill="#FFFFFF"/>
		<clipPath id="XMLID_48_">
			<use xlink:href="#XMLID_10_"  overflow="visible"/>
		</clipPath>
		<g clip-path="url(#XMLID_48_)">
			<rect x="192.7" y="30.4" fill="#C8313E" width="87.5" height="48.1"/>
			<rect x="192.7" y="62.5" fill="#4AA657" width="87.5" height="16"/>
			<rect x="192.7" y="30.4" fill="#FFFFFF" width="10.7" height="48.1"/>
			<g>
				<polygon fill="#C8313E" points="199.7,41.5 199.7,40.7 200.1,40.7 200.1,39.9 200.6,39.9 200.6,39.1 200.1,39.1 200.1,38.3 
					199.7,38.3 199.7,37.5 199.2,37.5 199.2,38.3 198.8,38.3 198.8,39.1 198.3,39.1 198.3,39.9 198.8,39.9 198.8,40.7 199.2,40.7 
					199.2,41.5 				"/>
				<rect x="202.9" y="36" fill="#C8313E" width="0.5" height="0.8"/>
				<rect x="202.9" y="42.3" fill="#C8313E" width="0.5" height="0.8"/>
				<polygon fill="#C8313E" points="203.4,39.1 202.9,39.1 202.9,38.3 202.5,38.3 202.5,37.5 202,37.5 202,38.3 201.5,38.3 
					201.5,39.1 201.1,39.1 201.1,39.9 201.5,39.9 201.5,40.7 202,40.7 202,41.5 202.5,41.5 202.5,40.7 202.9,40.7 202.9,39.9 
					203.4,39.9 				"/>
				<rect x="202.9" y="31.2" fill="#C8313E" width="0.5" height="0.8"/>
				<polygon fill="#C8313E" points="198.3,34.4 198.8,34.4 198.8,35.2 199.2,35.2 199.2,36 199.7,36 199.7,36.7 200.1,36.7 
					200.1,37.5 200.6,37.5 200.6,38.3 201.1,38.3 201.1,37.5 201.5,37.5 201.5,36.7 202,36.7 202,36 202.5,36 202.5,35.2 
					202.9,35.2 202.9,34.4 203.4,34.4 203.4,33.6 202.9,33.6 202.9,32.8 202.5,32.8 202.5,32 202,32 202,31.2 201.5,31.2 
					201.5,30.4 200.1,30.4 200.1,31.2 199.7,31.2 199.7,32 199.2,32 199.2,32.8 198.8,32.8 198.8,33.6 198.3,33.6 				"/>
				<polygon fill="#C8313E" points="198.3,36 198,36 198,36 197.8,36 197.8,37.5 198,37.5 198,37.5 198.3,37.5 				"/>
				<polygon fill="#C8313E" points="198.1,43 198.3,43 198.3,41.5 198.1,41.5 198,41.5 197.8,41.5 197.8,43 198.1,43 				"/>
				<rect x="192.7" y="31.2" fill="#C8313E" width="0.5" height="0.8"/>
				<polygon fill="#C8313E" points="193.2,35.2 193.6,35.2 193.6,36 194.1,36 194.1,36.7 194.6,36.7 194.6,37.5 195,37.5 195,38.3 
					195.5,38.3 195.5,37.5 196,37.5 196,36.7 196.4,36.7 196.4,36 196.9,36 196.9,35.2 197.4,35.2 197.4,34.4 197.8,34.4 
					197.8,33.6 197.4,33.6 197.4,32.8 196.9,32.8 196.9,32 196.4,32 196.4,31.2 196,31.2 196,30.4 194.6,30.4 194.6,31.2 
					194.1,31.2 194.1,32 193.6,32 193.6,32.8 193.2,32.8 193.2,33.6 192.7,33.6 192.7,34.4 193.2,34.4 				"/>
				<rect x="192.7" y="42.3" fill="#C8313E" width="0.5" height="0.8"/>
				<rect x="192.7" y="36" fill="#C8313E" width="0.5" height="0.8"/>
				<polygon fill="#C8313E" points="193.2,40.7 193.6,40.7 193.6,41.5 194.1,41.5 194.1,40.7 194.6,40.7 194.6,39.9 195,39.9 
					195,39.1 194.6,39.1 194.6,38.3 194.1,38.3 194.1,37.5 193.6,37.5 193.6,38.3 193.2,38.3 193.2,39.1 192.7,39.1 192.7,39.9 
					193.2,39.9 				"/>
				<polygon fill="#C8313E" points="198.1,32 198.3,32 198.3,30.4 198.1,30.4 198.1,30.4 197.8,30.4 197.8,32 198.1,32 				"/>
				<polygon fill="#C8313E" points="196.9,41.5 196.9,40.7 197.4,40.7 197.4,39.9 197.8,39.9 197.8,39.1 197.4,39.1 197.4,38.3 
					196.9,38.3 196.9,37.5 196.4,37.5 196.4,38.3 196,38.3 196,39.1 195.5,39.1 195.5,39.9 196,39.9 196,40.7 196.4,40.7 
					196.4,41.5 				"/>
				<polygon fill="#C8313E" points="196,54.4 196,54.5 196,54.9 196.4,54.9 196.4,54.5 196.4,54.4 196.4,54.1 196,54.1 				"/>
				<rect x="192.7" y="47.8" fill="#C8313E" width="0.5" height="0.8"/>
				<polygon fill="#C8313E" points="198.8,52.5 198.3,52.5 198.3,53.3 198.1,53.3 198,53.3 197.8,53.3 197.8,52.5 197.4,52.5 
					197.4,51.7 196.9,51.7 196.9,53.3 197.4,53.3 197.4,54.1 197.8,54.1 197.8,54.4 197.8,54.5 197.8,54.9 197.4,54.9 197.4,55.7 
					196.9,55.7 196.9,57.2 197.4,57.2 197.4,56.4 197.8,56.4 197.8,55.7 198,55.7 198.1,55.7 198.3,55.7 198.3,56.4 198.8,56.4 
					198.8,57.2 199.2,57.2 199.2,55.7 198.8,55.7 198.8,54.9 198.3,54.9 198.3,54.5 198.3,54.4 198.3,54.1 198.8,54.1 198.8,53.3 
					199.2,53.3 199.2,51.7 198.8,51.7 				"/>
				<path fill="#C8313E" d="M202.9,44.6v-0.8h-0.5V43H202v-0.8h-0.5v-0.8h-0.5v-0.8h-0.5v0.8h-0.5v0.8h-0.5V43h-0.5v0.8h-0.5v0.8
					h-0.5v0.8h-0.2H198h-0.2v-0.8h-0.5v-0.8h-0.5V43h-0.5v-0.8H196v-0.8h-0.5v-0.8H195v0.8h-0.5v0.8h-0.5V43h-0.5v0.8h-0.5v0.8h-0.5
					v1.6h0.5V47h0.5v0.8h0.5v0.8h0.5v-0.8h0.5V47h0.5v-0.8h-0.9v-0.8h1.4v0.8h0.5V47h0.5v0.8h-0.5v0.8H196v0.8h-0.5v0.8H195v0.8
					h-0.5v0.8h-0.5v-0.8h-0.5v-0.8h-0.5v-0.8h-0.5v2.4h0.5v0.8h0.5v0.8h0.5v0.8h0.5v0.3v0.2v0.3h-0.5v0.8h-0.5v0.8h-0.5v0.8h-0.5
					v2.4h0.5v-0.8h0.5V58h0.5v-0.8h0.5V58h0.5v0.8h0.5v0.8h0.5v0.8h0.5v0.8h0.5V62h-0.5v0.8H196v0.8h-1.4v-0.8h0.9V62H195v-0.8h-0.5
					v-0.8h-0.5v0.8h-0.5V62h-0.5v0.8h-0.5v1.6h0.5v0.8h0.5v0.8h0.5v0.8h0.5v0.8h0.5v0.8h0.5v-0.8h0.5v-0.8h0.5v-0.8h0.5v-0.8h0.5
					v-0.8h0.5v-0.8h0.2h0.1h0.2v0.8h0.5v0.8h0.5v0.8h0.5v0.8h0.5v0.8h0.5v0.8h0.5v-0.8h0.5v-0.8h0.5v-0.8h0.5v-0.8h0.5v-0.8h0.5
					v-1.6h-0.5V62h-0.5v-0.8H202v-0.8h-0.5v0.8h-0.5V62h-0.5v0.8h0.9v0.8h-1.4v-0.8h-0.5V62h-0.5v-0.8h0.5v-0.8h0.5v-0.8h0.5v-0.8
					h0.5V58h0.5v-0.8h0.5V58h0.5v0.8h0.5v0.8h0.5v-2.4h-0.5v-0.8h-0.5v-0.8H202v-0.8h-0.5v-0.3v-0.2v-0.3h0.5v-0.8h0.5v-0.8h0.5
					v-0.8h0.5v-2.4h-0.5v0.8h-0.5v0.8H202v0.8h-0.5v-0.8h-0.5v-0.8h-0.5v-0.8h-0.5v-0.8h-0.5v-0.8h-0.5V47h0.5v-0.8h0.5v-0.8h1.4
					v0.8h-0.9V47h0.5v0.8h0.5v0.8h0.5v-0.8h0.5V47h0.5v-0.8h0.5v-1.6H202.9z M199.7,50.9v0.8h0.5v0.8h0.5v1.9v0.2v1.9h-0.5v0.8h-0.5
					V58h-0.5v0.8h-0.5v0.8h-0.5v0.8h-0.2H198h-0.2v-0.8h-0.5v-0.8h-0.5V58h-0.5v-0.8H196v-0.8h-0.5v-1.9v-0.2v-1.9h0.5v-0.8h0.5
					v-0.8h0.5v-0.8h0.5v-0.8h0.5v-0.8h0.2h0.1h0.2v0.8h0.5v0.8h0.5v0.8H199.7z"/>
				<rect x="202.9" y="47.8" fill="#C8313E" width="0.5" height="0.8"/>
				<polygon fill="#C8313E" points="198.1,50.9 198.3,50.9 198.3,50.1 198.1,50.1 198,50.1 197.8,50.1 197.8,50.9 198,50.9 				"/>
				<polygon fill="#C8313E" points="197.8,73 198,73 198.1,73 198.3,73 198.3,71.4 198.1,71.4 198,71.4 197.8,71.4 				"/>
				<rect x="192.7" y="76.9" fill="#C8313E" width="0.5" height="0.8"/>
				<rect x="192.7" y="72.2" fill="#C8313E" width="0.5" height="0.8"/>
				<rect x="192.7" y="65.9" fill="#C8313E" width="0.5" height="0.8"/>
				<polygon fill="#C8313E" points="193.2,70.6 193.6,70.6 193.6,71.4 194.1,71.4 194.1,70.6 194.6,70.6 194.6,69.8 195,69.8 
					195,69 194.6,69 194.6,68.3 194.1,68.3 194.1,67.5 193.6,67.5 193.6,68.3 193.2,68.3 193.2,69 192.7,69 192.7,69.8 193.2,69.8 
									"/>
				<polygon fill="#C8313E" points="197.8,74.6 197.4,74.6 197.4,73.8 196.9,73.8 196.9,73 196.4,73 196.4,72.2 196,72.2 196,71.4 
					195.5,71.4 195.5,70.6 195,70.6 195,71.4 194.6,71.4 194.6,72.2 194.1,72.2 194.1,73 193.6,73 193.6,73.8 193.2,73.8 
					193.2,74.6 192.7,74.6 192.7,75.3 193.2,75.3 193.2,76.1 193.6,76.1 193.6,76.9 194.1,76.9 194.1,77.7 194.6,77.7 194.6,78.5 
					196,78.5 196,77.7 196.4,77.7 196.4,76.9 196.9,76.9 196.9,76.1 197.4,76.1 197.4,75.3 197.8,75.3 				"/>
				<polygon fill="#C8313E" points="196.4,67.5 196.4,68.3 196,68.3 196,69 195.5,69 195.5,69.8 196,69.8 196,70.6 196.4,70.6 
					196.4,71.4 196.9,71.4 196.9,70.6 197.4,70.6 197.4,69.8 197.8,69.8 197.8,69 197.4,69 197.4,68.3 196.9,68.3 196.9,67.5 				
					"/>
				<rect x="192.7" y="60.4" fill="#C8313E" width="0.5" height="0.8"/>
				<rect x="202.9" y="72.2" fill="#C8313E" width="0.5" height="0.8"/>
				<rect x="202.9" y="76.9" fill="#C8313E" width="0.5" height="0.8"/>
				<polygon fill="#C8313E" points="202.9,73.8 202.5,73.8 202.5,73 202,73 202,72.2 201.5,72.2 201.5,71.4 201.1,71.4 201.1,70.6 
					200.6,70.6 200.6,71.4 200.1,71.4 200.1,72.2 199.7,72.2 199.7,73 199.2,73 199.2,73.8 198.8,73.8 198.8,74.6 198.3,74.6 
					198.3,75.3 198.8,75.3 198.8,76.1 199.2,76.1 199.2,76.9 199.7,76.9 199.7,77.7 200.1,77.7 200.1,78.5 201.5,78.5 201.5,77.7 
					202,77.7 202,76.9 202.5,76.9 202.5,76.1 202.9,76.1 202.9,75.3 203.4,75.3 203.4,74.6 202.9,74.6 				"/>
				<rect x="202.9" y="65.9" fill="#C8313E" width="0.5" height="0.8"/>
				<polygon fill="#C8313E" points="199.2,67.5 199.2,68.3 198.8,68.3 198.8,69 198.3,69 198.3,69.8 198.8,69.8 198.8,70.6 
					199.2,70.6 199.2,71.4 199.7,71.4 199.7,70.6 200.1,70.6 200.1,69.8 200.6,69.8 200.6,69 200.1,69 200.1,68.3 199.7,68.3 
					199.7,67.5 				"/>
				<polygon fill="#C8313E" points="202.9,68.3 202.5,68.3 202.5,67.5 202,67.5 202,68.3 201.5,68.3 201.5,69 201.1,69 201.1,69.8 
					201.5,69.8 201.5,70.6 202,70.6 202,71.4 202.5,71.4 202.5,70.6 202.9,70.6 202.9,69.8 203.4,69.8 203.4,69 202.9,69 				"/>
				<polygon fill="#C8313E" points="198,76.9 197.8,76.9 197.8,78.5 198,78.5 198.1,78.5 198.3,78.5 198.3,76.9 198.1,76.9 				"/>
				<polygon fill="#C8313E" points="198,65.9 197.8,65.9 197.8,67.5 198,67.5 198.1,67.5 198.3,67.5 198.3,65.9 198.1,65.9 				"/>
				<rect x="202.9" y="60.4" fill="#C8313E" width="0.5" height="0.8"/>
				<polygon fill="#C8313E" points="200.1,54.5 200.1,54.4 200.1,54.1 199.7,54.1 199.7,54.4 199.7,54.5 199.7,54.9 200.1,54.9 				
					"/>
				<polygon fill="#C8313E" points="198,58 197.8,58 197.8,58.8 198,58.8 198.1,58.8 198.3,58.8 198.3,58 198.1,58 				"/>
			</g>
		</g>
		<use xlink:href="#XMLID_10_"  overflow="visible" fill="none" stroke="#AAAAAA" stroke-linejoin="round" stroke-miterlimit="10"/>
	</g>
</g>
</svg>
