<?xml version="1.0" encoding="utf-8"?>
<!-- Generator: Adobe Illustrator 18.1.1, SVG Export Plug-In . SVG Version: 6.00 Build 0)  -->
<!DOCTYPE svg PUBLIC "-//W3C//DTD SVG 1.1//EN" "http://www.w3.org/Graphics/SVG/1.1/DTD/svg11.dtd" [
	<!ENTITY ns_extend "http://ns.adobe.com/Extensibility/1.0/">
	<!ENTITY ns_ai "http://ns.adobe.com/AdobeIllustrator/10.0/">
	<!ENTITY ns_graphs "http://ns.adobe.com/Graphs/1.0/">
	<!ENTITY ns_vars "http://ns.adobe.com/Variables/1.0/">
	<!ENTITY ns_imrep "http://ns.adobe.com/ImageReplacement/1.0/">
	<!ENTITY ns_sfw "http://ns.adobe.com/SaveForWeb/1.0/">
	<!ENTITY ns_custom "http://ns.adobe.com/GenericCustomNamespace/1.0/">
	<!ENTITY ns_adobe_xpath "http://ns.adobe.com/XPath/1.0/">
]>
<svg version="1.1" id="Layer_1" xmlns:x="&ns_extend;" xmlns:i="&ns_ai;" xmlns:graph="&ns_graphs;"
	 xmlns="http://www.w3.org/2000/svg" xmlns:xlink="http://www.w3.org/1999/xlink" x="0px" y="0px" viewBox="0 0 57.9 57"
	 enable-background="new 0 0 57.9 57" xml:space="preserve">
<metadata>
	<sfw  xmlns="&ns_sfw;">
		<slices></slices>
		<sliceSourceBounds  width="57.9" height="57" y="-403.2" x="646.9" bottomLeftOrigin="true"></sliceSourceBounds>
	</sfw>
</metadata>
<g>
	<g>
		<g>
			<polygon fill="#B3915B" points="0,13.8 7.8,27.4 23.8,27.4 15.9,13.7 			"/>
			<polygon fill="#927851" points="24,0 31.8,13.6 23.8,27.4 15.9,13.7 			"/>
			<path fill="#CFAF80" d="M8,0.2L0,13.8c0,0,15.6,0,15.9-0.1c0.3-0.1,7.8-13.6,7.8-13.6L8,0.2z"/>
		</g>
		<g>
			<polygon fill="#CFAF80" points="4.8,13.8 10.3,23.3 21.4,23.3 15.9,13.7 			"/>
			<polygon fill="#B3915B" points="21.5,4.1 27,13.6 21.4,23.3 15.9,13.7 			"/>
			<path fill="#927851" d="M10.4,4.3l-5.6,9.5c0,0,10.9,0,11.1-0.1s5.4-9.5,5.4-9.5L10.4,4.3z"/>
		</g>
	</g>
	<g>
		<polygon fill="#CCCCCC" points="26.1,28.3 34,41.8 49.9,41.8 42,28.2 		"/>
	</g>
	<path fill="#EAEAEA" d="M34.1,14.7l-8,13.6c0,0,15.6,0,15.9-0.1s7.8-13.6,7.8-13.6L34.1,14.7z"/>
	<g>
		<g>
			<polygon fill="#355D83" points="0.2,43.4 8,57 24,57 16.1,43.3 			"/>
			<polygon fill="#142355" points="24.1,29.6 32,43.2 24,57 16.1,43.3 			"/>
			<path fill="#457694" d="M8.2,29.8l-8,13.6c0,0,15.6,0,15.9-0.1c0.3-0.1,7.8-13.6,7.8-13.6L8.2,29.8z"/>
		</g>
		<g>
			<polygon fill="#142355" points="5,43.4 10.4,52.9 21.6,52.9 16.1,43.3 			"/>
			<polygon fill="#457694" points="21.7,33.7 27.2,43.2 21.6,52.9 16.1,43.3 			"/>
			<path fill="#355D83" d="M10.5,33.9L5,43.4c0,0,10.9,0,11.1-0.1c0.2,0,5.4-9.5,5.4-9.5L10.5,33.9z"/>
		</g>
		<g>
			<polygon fill="#457694" points="8.3,43.4 12.1,50 20,50 16.1,43.3 			"/>
			<polygon fill="#355D83" points="20,36.6 23.9,43.2 20,50 16.1,43.3 			"/>
			<path fill="#142355" d="M12.2,36.7l-3.9,6.7c0,0,7.6,0,7.8,0c0.2,0,3.8-6.7,3.8-6.7L12.2,36.7z"/>
		</g>
	</g>
	<polygon fill="#AAAAAA" points="50.1,14.4 57.9,28 49.9,41.8 42,28.2 	"/>
</g>
</svg>
