<?xml version="1.0" encoding="utf-8"?>
<!-- Generator: Adobe Illustrator 19.0.1, SVG Export Plug-In . SVG Version: 6.00 Build 0)  -->
<svg version="1.1" id="Layer_1" xmlns="http://www.w3.org/2000/svg" xmlns:xlink="http://www.w3.org/1999/xlink" x="0px" y="0px"
	 width="32px" height="32px" viewBox="-463 265 32 32" style="enable-background:new -463 265 32 32;" xml:space="preserve">
<style type="text/css">
	.st0{fill:#0072C6;}
</style>
<g>
	<path class="st0" d="M-446.5,285h-2.5v-8h2.5c1.4,0,2.5,1.1,2.5,2.5v3C-444,283.9-445.1,285-446.5,285z M-447,283h0.5
		c0.2,0,0.5-0.3,0.5-0.5v-3c0-0.2-0.3-0.5-0.5-0.5h-0.5V283z"/>
</g>
<g>
	<polygon class="st0" points="-437,294 -457,294 -457,287 -455,287 -455,292 -439,292 -439,287 -437,287 	"/>
</g>
<g>
	<polygon class="st0" points="-437,275 -439,275 -439,270 -455,270 -455,275 -457,275 -457,268 -437,268 	"/>
</g>
<g>
	<polygon class="st0" points="-441,285 -443,285 -443,277 -438,277 -438,279 -441,279 	"/>
</g>
<g>
	<rect x="-442" y="280" class="st0" width="3" height="2"/>
</g>
<g>
	<path class="st0" d="M-453,285h-2v-8h2c1.7,0,3,1.3,3,3s-1.3,3-3,3V285z M-453,279v2c0.6,0,1-0.4,1-1S-452.4,279-453,279z"/>
</g>
</svg>
