<?xml version="1.0" encoding="utf-8"?>
<!-- Generator: Adobe Illustrator 19.0.1, SVG Export Plug-In . SVG Version: 6.00 Build 0)  -->
<svg version="1.1" id="Layer_1" xmlns="http://www.w3.org/2000/svg" xmlns:xlink="http://www.w3.org/1999/xlink" x="0px" y="0px"
	 width="32px" height="32px" viewBox="-463 265 32 32" style="enable-background:new -463 265 32 32;" xml:space="preserve">
<style type="text/css">
	.st0{fill:#0072C6;}
</style>
<g>
	<path class="st0" d="M-440.5,285c-1.4,0-2.5-1.1-2.5-2.5v-3c0-1.4,1.1-2.5,2.5-2.5s2.5,1.1,2.5,2.5v0.5h-2v-0.5
		c0-0.2-0.3-0.5-0.5-0.5s-0.5,0.3-0.5,0.5v3c0,0.2,0.3,0.5,0.5,0.5s0.5-0.3,0.5-0.5V282h2v0.5C-438,283.9-439.1,285-440.5,285z"/>
</g>
<g>
	<path class="st0" d="M-446.5,285c-1.4,0-2.5-1.1-2.5-2.5v-3c0-1.4,1.1-2.5,2.5-2.5c1.4,0,2.5,1.1,2.5,2.5v3
		C-444,283.9-445.1,285-446.5,285z M-446.5,279c-0.2,0-0.5,0.3-0.5,0.5v3c0,0.2,0.3,0.5,0.5,0.5s0.5-0.3,0.5-0.5v-3
		C-446,279.3-446.3,279-446.5,279z"/>
</g>
<g>
	<polygon class="st0" points="-437,294 -457,294 -457,287 -455,287 -455,292 -439,292 -439,287 -437,287 	"/>
</g>
<g>
	<polygon class="st0" points="-437,275 -439,275 -439,270 -455,270 -455,275 -457,275 -457,268 -437,268 	"/>
</g>
<g>
	<path class="st0" d="M-453,285h-2v-8h2c1.7,0,3,1.3,3,3v2C-450,283.7-451.3,285-453,285z M-453,279v4c0.6,0,1-0.4,1-1v-2
		C-452,279.4-452.4,279-453,279z"/>
</g>
</svg>
