<?xml version="1.0" encoding="utf-8"?>
<!-- Generator: Adobe Illustrator 19.0.1, SVG Export Plug-In . SVG Version: 6.00 Build 0)  -->
<svg version="1.1" id="Layer_1" xmlns="http://www.w3.org/2000/svg" xmlns:xlink="http://www.w3.org/1999/xlink" x="0px" y="0px"
	 width="14px" height="14px" viewBox="10 0 14 14" style="enable-background:new 10 0 14 14;" xml:space="preserve">
<style type="text/css">
	.st0{fill:#8D98B2;}
</style>
<path class="st0" d="M15.9,8.1c0.3,0.3,0.3,0.8,0,1.1c-0.3,0.3-0.8,0.3-1.1,0c-1.5-1.5-1.5-3.9,0-5.4l0,0l2.7-2.7
	c1.5-1.5,3.9-1.5,5.4,0s1.5,3.9,0,5.4l-1.1,1.1c0-0.6-0.1-1.2-0.3-1.8l0.4-0.4c0.9-0.9,0.9-2.3,0-3.2c-0.9-0.9-2.3-0.9-3.2,0
	l-2.7,2.7C15,5.7,15,7.2,15.9,8.1 M18.1,4.9c0.3-0.3,0.8-0.3,1.1,0c1.5,1.5,1.5,3.9,0,5.4l0,0l-2.7,2.7c-1.5,1.5-3.9,1.5-5.4,0
	s-1.5-3.9,0-5.4l1.1-1.1c0,0.6,0.1,1.2,0.3,1.8l-0.4,0.4c-0.9,0.9-0.9,2.3,0,3.2c0.9,0.9,2.3,0.9,3.2,0l2.7-2.7
	c0.9-0.9,0.9-2.3,0-3.2C17.8,5.6,17.8,5.2,18.1,4.9z"/>
</svg>
