<?xml version="1.0" encoding="utf-8"?>
<!-- Generator: Adobe Illustrator 19.0.1, SVG Export Plug-In . SVG Version: 6.00 Build 0)  -->
<svg version="1.1" id="Layer_1" xmlns="http://www.w3.org/2000/svg" xmlns:xlink="http://www.w3.org/1999/xlink" x="0px" y="0px"
	 width="16px" height="16px" viewBox="-951 393 16 16" style="enable-background:new -951 393 16 16;" xml:space="preserve">
<style type="text/css">
	.st0{fill:#6F8294;}
</style>
<g>
	<polygon class="st0" points="-939,408 -950,408 -950,397 -945,397 -945,396 -951,396 -951,397 -951,408 -951,409 -950,409 
		-939,409 -938,409 -938,408 -938,403 -939,403 	"/>
	<polygon class="st0" points="-937,394 -942,394 -942,395 -938,395 -938,396 -937,396 -937,400 -936,400 -936,394 	"/>
	<rect x="-946" y="403" class="st0" width="1" height="1"/>
	<rect x="-945" y="402" class="st0" width="1" height="1"/>
	<rect x="-944" y="401" class="st0" width="1" height="1"/>
	<rect x="-943" y="400" class="st0" width="1" height="1"/>
	<rect x="-942" y="399" class="st0" width="1" height="1"/>
	<rect x="-941" y="398" class="st0" width="1" height="1"/>
	<rect x="-940" y="397" class="st0" width="1" height="1"/>
	<rect x="-939" y="396" class="st0" width="1" height="1"/>
</g>
</svg>
