<?xml version="1.0" encoding="utf-8"?>
<!-- Generator: Adobe Illustrator 19.0.1, SVG Export Plug-In . SVG Version: 6.00 Build 0)  -->
<svg version="1.1" id="Isolation_Mode" xmlns="http://www.w3.org/2000/svg" xmlns:xlink="http://www.w3.org/1999/xlink" x="0px"
	 y="0px" width="15px" height="15px" viewBox="-8 9 15 15" enable-background="new -8 9 15 15" xml:space="preserve">
<path fill="#98A4BE" d="M-0.5,9C-4.642,9-8,12.358-8,16.5S-4.642,24-0.5,24S7,20.642,7,16.5S3.642,9-0.5,9z M0.3,20.9
	c-0.2,0.1-0.4,0.3-0.8,0.3c-0.3,0-0.6-0.1-0.8-0.3c-0.2-0.2-0.3-0.4-0.3-0.7c0-0.3,0.1-0.6,0.3-0.7c0.2-0.1,0.4-0.3,0.8-0.3
	c0.3,0,0.6,0.1,0.8,0.3s0.3,0.4,0.3,0.7C0.6,20.5,0.5,20.8,0.3,20.9z M2.1,15.5c-0.2,0.3-0.5,0.7-1.1,1.1c-0.4,0.3-0.6,0.5-0.7,0.6
	c-0.1,0.1-0.1,0.3-0.1,0.6v0.4h-1.6v-0.4c0-0.4,0.1-0.7,0.2-1c0.1-0.3,0.5-0.6,0.9-0.9c0.4-0.3,0.7-0.5,0.8-0.7
	c0.1-0.2,0.2-0.4,0.2-0.6c0-0.3-0.1-0.4-0.3-0.6c-0.2-0.2-0.4-0.2-0.7-0.2c-0.6,0-1.3,0.2-2,0.6L-3,13c0.9-0.5,1.8-0.7,2.8-0.7
	c0.8,0,1.4,0.2,1.9,0.6c0.5,0.4,0.7,0.9,0.7,1.5C2.4,14.8,2.3,15.2,2.1,15.5z"/>
</svg>
