<?xml version="1.0" encoding="utf-8"?>
<!-- Generator: Adobe Illustrator 19.0.0, SVG Export Plug-In . SVG Version: 6.00 Build 0)  -->
<svg version="1.0" id="Layer_1" xmlns="http://www.w3.org/2000/svg" xmlns:xlink="http://www.w3.org/1999/xlink" x="0px" y="0px"
	 viewBox="0 0 53 35" style="enable-background:new 0 0 53 35;" xml:space="preserve">
<style type="text/css">
	.st0{fill:#465775;}
	.st1{fill:#B48D4C;}
	.st2{fill:#465775;}
	.st3{fill:#B48D4C;}
	.st4{fill:#B48D4C;}
	.st5{fill:#FFFFFF;}
	.st6{fill:#465775;}
</style>
<g id="XMLID_945_">
	<path id="XMLID_980_" class="st0" d="M22.7,21.4c-1.1,1.2-2.2,2.5-3.3,3.7c-0.4,0.4-0.7,0.8-1.1,1.2c0,0,0,0.1-0.1,0.1
		c0-0.1,0-0.1,0-0.2c0.7-1.5,1.3-3,1.7-4.6c0.3-1.2,0.6-2.4,0.5-3.6c0-0.7-0.1-1.3-0.5-1.9c-0.4-0.7-1-1-1.7-1.2
		c-0.6-0.2-1.2-0.2-1.9-0.1c-1.5,0.2-2.9,0.7-4.3,1.4C10,17.2,8,18.4,6,19.8c-2,1.3-3.9,2.8-5.7,4.3c0,0-0.1,0.1-0.1,0.1
		c0,0,0,0,0,0c0.4-0.4,0.8-0.8,1.2-1.2c2.3-2.3,4.7-4.6,7.1-6.8c3.1-2.9,6.3-5.7,9.7-8.3c2-1.6,4.1-3.1,6.2-4.5
		c1.3-0.8,2.6-1.6,3.9-2.2c1-0.5,2-0.8,3.1-1c0.7-0.1,1.4-0.2,2,0c0.9,0.3,1.3,0.9,1.5,1.7c0.1,0.8,0,1.5-0.2,2.2
		c-0.3,1-0.7,1.9-1.2,2.7c-1.1,2-2.3,4-3.7,5.9c0,0.1-0.1,0.1-0.1,0.2c-1-0.7-2.1-1-3.2-0.9c-0.4,0-0.9,0.1-1.3,0.2
		c-1.5,0.4-2.6,1.4-3.3,2.7c-0.5,1-0.7,2.1-0.6,3.2c0.1,0.8,0.4,1.6,0.8,2.3C22.2,20.8,22.5,21.1,22.7,21.4"/>
	<path id="XMLID_977_" class="st1" d="M30.5,13.6c1.4-1.6,2.8-3.1,4.2-4.7c0.1-0.1,0.2-0.2,0.3-0.3h0c0,0.1,0,0.1,0,0.1
		c-0.8,1.6-1.4,3.3-1.9,5.1c-0.3,1-0.4,2.1-0.4,3.1c0,0.5,0.1,1,0.3,1.5c0.3,0.9,1,1.4,1.9,1.6c0.7,0.2,1.5,0.1,2.2,0
		c1.4-0.2,2.7-0.8,4-1.3c1.6-0.8,3.2-1.7,4.7-2.7c2.3-1.5,4.6-3.2,6.7-4.9c0.2-0.2,0.4-0.3,0.6-0.5c0,0,0,0,0,0
		c-0.4,0.4-0.9,0.9-1.3,1.3c-1.9,1.9-3.8,3.7-5.7,5.5c-2.5,2.3-5,4.6-7.6,6.8c-2.4,2-4.8,3.9-7.3,5.7c-1.7,1.2-3.5,2.4-5.3,3.3
		c-1.1,0.5-2.2,1-3.3,1.3c-0.7,0.2-1.3,0.3-2,0.2c-0.8-0.1-1.4-0.4-1.8-1.1c-0.2-0.4-0.3-0.9-0.3-1.4c0-1.2,0.4-2.3,0.9-3.3
		c0.9-1.7,1.8-3.4,2.9-5c0.4-0.7,0.9-1.3,1.4-2c0,0,0-0.1,0.1-0.1c0,0,0,0,0,0c0,0,0,0,0.1,0c1,0.6,2,0.9,3.1,0.8
		c0.6,0,1.2-0.1,1.7-0.4c1.3-0.5,2.2-1.4,2.9-2.6c0.5-1,0.7-2.1,0.6-3.2c-0.1-0.8-0.3-1.5-0.7-2.1C31.1,14.3,30.8,14,30.5,13.6"/>
	<path id="XMLID_967_" class="st1" d="M22.7,21.4c-0.3-0.3-0.5-0.6-0.7-0.9c-0.4-0.7-0.7-1.5-0.8-2.3c-0.1-1.1,0.1-2.2,0.6-3.2
		c0.7-1.4,1.8-2.3,3.3-2.7c0.4-0.1,0.8-0.2,1.3-0.2c1.2-0.1,2.4,0.3,3.2,0.9v0c0,0.3-0.3,0.5-0.5,0.8c-0.1-0.1-0.2-0.2-0.2-0.3
		c-0.1,0.1-0.1,0.1-0.3,0c0,0,0,0,0,0l0,0c0-0.1,0-0.1,0-0.2c0,0,0-0.1,0-0.1c0,0,0,0-0.1,0c-0.1-0.1-0.1,0-0.1,0.1
		c0.1,0.1,0,0.1,0,0.2c0,0.1-0.1,0.2-0.1,0.3c0,0.1,0,0.1,0.1,0.1c0,0.1-0.1,0.1-0.1,0.2c0,0.1,0,0.2-0.1,0.2c0,0,0,0,0,0.1
		c0,0.1,0,0.2-0.1,0.2c-0.1,0-0.2,0.2-0.1,0.2c0.1,0.1,0,0.1,0,0.1c0,0,0,0.1,0,0.1c0,0.1,0,0.1-0.1,0.1c0,0,0,0-0.1,0
		c-0.1,0-0.1,0-0.1,0.1c0,0.1,0,0.1-0.1,0.1c-0.1,0-0.2,0.1-0.3,0.2c0-0.1,0-0.1,0-0.2c0-0.1,0-0.1-0.2-0.1c-0.1,0-0.2,0-0.2,0.1
		c0,0,0,0,0,0c-0.2,0-0.2,0.3-0.3,0.3c0,0,0,0,0,0c0,0.1-0.1,0.1-0.1,0.1c0-0.1,0,0-0.1,0c0,0.1,0,0.2,0,0.2c0.1,0.1,0,0.3-0.1,0.3
		c0.2-0.2,0.1-0.4,0.1-0.5c0,0,0,0,0,0c0,0-0.1,0-0.1,0c-0.1,0.1-0.1,0.2,0,0.3c-0.1,0-0.1,0-0.1-0.1c-0.1,0-0.1-0.2-0.2,0
		c0,0,0,0,0,0c-0.1,0-0.3-0.1-0.4,0c0,0,0,0-0.1,0c0,0,0-0.1,0-0.1c0,0,0.1,0,0-0.1c0,0-0.1,0-0.1,0c0,0.1-0.1,0.1-0.2,0.1
		c0,0,0,0-0.1,0c-0.1,0.1-0.1,0-0.1,0c-0.1,0,0,0.1-0.1,0.1c-0.1-0.1,0.1-0.2,0-0.3c0,0.1,0.1,0.1,0.1,0.2c0,0,0.1,0,0.1,0
		c0,0,0.1-0.1,0-0.1c0-0.1,0-0.2-0.1-0.2c0,0-0.1-0.1-0.1-0.1c0.1-0.1,0-0.2-0.1-0.2c-0.2-0.1-0.4-0.1-0.6-0.1c-0.1,0-0.2,0-0.3-0.1
		c-0.2-0.1-0.3-0.1-0.4,0c0,0-0.1,0.1,0,0.1c0.2,0.1,0.1,0.1,0,0.2c0,0-0.1,0.1-0.1,0.1c0,0,0,0,0,0.1c0.2,0.1,0.3-0.1,0.4,0
		c0,0,0,0,0,0c0-0.1,0.1-0.1,0.2-0.1c0.1,0,0.2,0,0.3,0c0,0,0.1,0,0.1,0.1c0,0.1,0,0.1-0.1,0.1c0,0-0.1,0-0.1,0
		c-0.1,0-0.2,0.1-0.2,0.1c0,0.1,0,0.1,0.1,0.2c0,0,0,0,0,0c0,0,0.1,0.1,0.1,0.1c0,0-0.1,0-0.1,0c0,0,0,0,0,0c-0.1-0.1-0.1-0.2-0.2,0
		c0,0,0,0-0.1,0c0,0,0,0,0,0c0-0.2-0.1-0.1-0.1,0c0,0,0,0.1-0.1,0c-0.1-0.1-0.2-0.2-0.3-0.3c0,0,0-0.1-0.1-0.1c0,0,0-0.1,0-0.1
		c0.1,0,0.1,0,0.2-0.1c-0.1-0.1-0.1-0.1-0.2,0c0,0-0.1,0.1-0.1,0c-0.1-0.2-0.3-0.2-0.4-0.3c-0.1-0.1-0.2-0.2-0.3-0.3
		c0,0,0-0.1,0-0.1c0,0,0,0,0,0c0,0.2-0.1,0.3-0.3,0.2c0,0-0.1,0-0.1,0.1c0,0.1-0.1,0.3,0.1,0.3c0,0,0,0.1,0,0.1c0,0.1,0,0.1,0.1,0.1
		c0.1,0.1,0.2,0.1,0.1,0.3c0,0,0,0.1,0,0.1c0,0.1,0,0.2,0,0.4c0,0,0,0.1-0.1,0.1c0,0-0.1,0-0.1-0.1c-0.1,0,0-0.1-0.1-0.2
		c0,0.1,0,0.1,0,0.2c0,0,0,0.1,0,0c0.1,0,0.1,0,0.1,0c0,0,0.1,0,0.1,0c0.1-0.2,0.1,0,0.1,0c0-0.2,0-0.4,0.1-0.5c0,0,0.1-0.1,0.1-0.1
		c0,0,0,0,0.1,0c-0.1,0,0,0.1,0,0.2c0,0,0,0.1,0,0.1c0,0.1,0,0.2,0,0.3c-0.1,0.1-0.1,0.2-0.2,0.3c0,0.1-0.1,0.1-0.1,0.2
		c0,0.1,0.1,0,0.2,0c0,0,0.1,0,0,0c0-0.1,0-0.1,0.1-0.2c0.1,0,0.1,0.1,0.2,0.1c0,0,0,0.1,0,0.1c-0.1,0.1-0.1,0.2-0.1,0.3
		c0,0.2,0.2,0.2,0.3,0.4c0,0,0,0,0,0c0.1,0,0.1,0.1,0.2,0.1C23.2,17.9,23,18,22.9,18c-0.1,0-0.1,0.1-0.2,0c-0.1-0.1-0.1,0-0.1,0
		c0,0.1,0,0.1,0,0.2c0,0,0,0.1,0,0.1c0.1,0,0.1,0.1,0.1,0.1c0,0.2,0,0.3,0,0.5c0,0,0,0.1,0,0.1c-0.1,0.1,0,0.1,0,0.2
		c0.1,0.1,0.1,0.3,0.1,0.4c0,0.1-0.1,0.2-0.1,0.3c0,0.1,0,0.1,0.1,0.1c0.1,0,0.2,0,0.2,0.1c0.2,0.1,0.5,0.1,0.7,0.1c0,0,0,0,0.1,0
		c0.1-0.1,0.2,0,0.3,0c0.1,0,0.2,0,0.3,0c0.1,0,0.2-0.1,0.3-0.2c0,0,0.1,0,0.1-0.1c0-0.1,0-0.1-0.1-0.2c-0.1,0-0.2-0.1-0.1-0.3
		c0,0-0.1,0-0.1,0c-0.1,0.1-0.2,0.1-0.4,0c0,0-0.1,0-0.1-0.1c0,0,0-0.1,0-0.1c0,0-0.1,0-0.1,0c0-0.1,0-0.1,0-0.2c0-0.1,0-0.1,0-0.2
		c0-0.1,0.1-0.1,0.1-0.1c0.1,0,0.1,0.1,0.1,0.2c0,0.2,0.2,0.3,0.4,0.3c0.1,0,0.1,0,0.1,0.1c0,0.1,0,0.1,0.1,0.1
		c0.2,0.1,0.3,0.1,0.5,0.2c0,0,0,0.1-0.1,0.1c-0.4,0.6-0.7,1.1-1.1,1.7c-0.1,0.2-0.2,0.3-0.3,0.5C23.3,21.9,23,21.6,22.7,21.4
		 M26.3,15.2c-0.2,0-0.4,0.1-0.5,0.3c-0.1,0.1-0.1,0.2,0,0.2C25.8,15.4,26.1,15.4,26.3,15.2 M22.3,15.8
		C22.2,15.8,22.2,15.8,22.3,15.8c-0.1,0-0.2,0-0.2,0c0,0,0,0.1,0.1,0C22.2,15.9,22.2,15.9,22.3,15.8"/>
	<path id="XMLID_962_" class="st0" d="M23.6,22.1c0.1-0.1,0.2-0.3,0.3-0.5c0.4-0.6,0.7-1.1,1.1-1.7c0,0,0-0.1,0.1-0.1
		c0.1,0,0.2,0,0.3,0c0.1,0,0.1,0,0.2,0.1c0.1,0.1,0.1,0.2,0.3,0.2c0,0-0.1,0-0.1,0.1c0.1,0.1,0.1,0.1,0.2,0.1c0.1,0,0.1,0,0.2-0.1
		c0,0.1,0,0.1,0,0.2c0,0.2,0,0.4,0.1,0.5c0.1,0.1,0.2,0.3,0.2,0.4c0.1,0.2,0.1,0.2,0.3,0.1C27,21.3,27,21.1,27,21
		c0-0.1,0-0.2,0.1-0.3c0,0,0.1,0,0.1,0c0.1-0.1,0.3-0.3,0.4-0.4c0,0,0,0,0-0.1c0-0.1,0.1-0.1,0.2-0.1c0.1,0,0.2,0,0.2-0.1
		c0.1-0.1,0.1-0.1,0.2,0c0,0.1,0.1,0.1,0.2,0.1c0.1,0,0.2,0.1,0.2,0.2c0,0,0,0.1,0,0.1c0,0,0.1,0,0.1,0c0,0,0.1-0.1,0.1-0.1
		c0-0.1,0.1,0,0.1,0c0.1,0.2,0.4,0.3,0.3,0.6c0,0,0,0,0.1,0.1c0.1,0,0.2,0,0.4,0.1c0.1,0,0.1,0,0.1,0l0,0c0,0-0.1,0-0.1,0
		c-0.1,0-0.1,0-0.2-0.1c0,0,0,0-0.1,0c-0.2,0-0.1-0.1-0.1-0.2c0-0.1,0-0.1,0-0.1c0-0.1,0-0.1,0.1-0.1c0.1,0.1,0.2,0,0.3,0
		c0.1,0,0.1,0.1,0.2,0c0.1,0,0.2,0,0.2,0.1c0.1-0.1,0.1-0.3,0.2-0.4c0.1-0.1,0.1-0.2,0-0.4c-0.1,0-0.1-0.1-0.2-0.1
		c-0.1,0-0.2,0-0.3,0c0,0-0.1,0-0.1-0.1c0-0.1,0.1-0.3,0.2-0.3c0.1-0.1,0.2,0,0.2,0c0,0-0.1,0.1-0.1,0.1c0,0,0,0.1,0,0.1
		c0.1,0,0.1,0,0.1-0.1c0,0,0.1-0.1-0.1-0.1c-0.1,0-0.1-0.1,0-0.1c0.1-0.1,0.2-0.3,0.3-0.4c0,0,0,0,0-0.1c0.1-0.2,0-0.5,0-0.7
		c0-0.1,0-0.1-0.1-0.1c0,0,0,0,0,0c0,0,0,0,0,0c-0.1,0-0.2-0.1-0.4-0.1c-0.1,0-0.1,0-0.1-0.1c0-0.1,0-0.2,0.1-0.3
		c-0.1,0-0.2,0-0.2,0.2c0,0-0.2,0.1-0.2,0c0,0,0,0,0,0c0.1-0.1,0.1-0.2,0.1-0.3c0,0,0-0.1,0.1-0.1c0.1,0,0,0,0,0.1c0,0,0,0,0,0
		c0,0,0,0,0-0.1c0-0.1,0.1-0.2,0.1-0.2c0.1,0,0.2,0,0.3,0c0,0,0.1,0.1,0.1,0.1c0,0,0,0,0.1,0c0-0.1,0.1-0.2,0.1-0.2
		c0-0.1-0.1-0.1-0.2-0.1c-0.1,0-0.1,0-0.2,0c-0.1,0-0.1,0-0.1-0.1c0-0.1,0-0.1,0-0.2c-0.1-0.1-0.1-0.2,0-0.3c0.1,0,0-0.1,0-0.2
		c-0.1-0.2-0.1-0.5-0.4-0.6c0,0-0.1,0,0-0.1c0.2,0,0.3,0.1,0.5,0.2c0-0.1,0-0.1-0.1-0.1c-0.1,0-0.1,0-0.1-0.1c0,0,0-0.1,0-0.1
		c-0.1,0-0.2,0-0.3-0.1c0,0,0,0,0,0c0,0.1,0,0.1-0.1,0.1c0,0-0.1,0-0.1,0.1c0.1,0.2-0.1,0.1-0.1,0.1c0,0,0-0.1-0.1-0.1
		c0,0,0-0.1,0-0.1c-0.1-0.2-0.2-0.3,0-0.5c0,0,0,0,0-0.1c0-0.1,0-0.1,0.1-0.1c0.1,0,0-0.1,0-0.1c-0.1,0-0.1-0.1-0.1-0.1
		c-0.1,0-0.1-0.1-0.1-0.1c0-0.1,0.1,0,0.1-0.1c0,0-0.1-0.1-0.1-0.1c0,0,0.1,0,0.1,0c0.1,0.1,0.2,0.2,0.3,0.3c0,0.1,0.1,0.1,0.2,0.2
		c0.1,0,0.2,0,0.4,0c0-0.1,0-0.1-0.1-0.1c-0.1,0-0.1-0.1-0.2-0.2c0,0-0.2-0.2-0.3-0.1c-0.1,0-0.2,0-0.2-0.2c0-0.1,0-0.2-0.1-0.3
		c0.2-0.3,0.3-0.5,0.5-0.8c0.3,0.2,0.6,0.4,0.9,0.7c0.3,0.3,0.6,0.7,0.8,1.1c0.4,0.7,0.6,1.4,0.7,2.1c0.1,1.1-0.1,2.2-0.6,3.2
		c-0.6,1.2-1.6,2.1-2.9,2.6C28,22.9,27.4,23,26.8,23c-1.1,0.1-2.2-0.2-3.1-0.8C23.7,22.1,23.7,22.1,23.6,22.1
		C23.6,22.1,23.6,22.1,23.6,22.1C23.6,22.1,23.6,22.1,23.6,22.1 M30.9,16.9c0,0,0-0.1,0-0.1c0,0,0,0,0-0.1c0,0-0.1,0-0.1,0
		c0,0,0-0.1,0.1,0c0,0,0.1,0,0.1,0c0-0.1,0-0.2,0-0.3c0-0.1,0.1-0.1,0-0.2c-0.1-0.1-0.2-0.1-0.2-0.2c0-0.1-0.1,0-0.2,0c0,0,0,0,0,0
		c0,0.1,0.1,0.1,0.1,0.1c0.1,0.1,0.2,0.2,0.1,0.3c0,0,0,0,0,0c0.1,0.1,0,0.2,0,0.3c-0.1,0.1,0,0.2,0,0.4c0,0.1,0.1,0,0.1,0
		c0,0,0.1,0.1,0.1,0c0,0,0-0.1,0-0.1c0-0.1-0.1-0.1-0.1-0.1c0-0.1,0-0.1,0-0.1C30.8,16.8,30.8,16.9,30.9,16.9 M27,21.3
		c0,0.1-0.1,0.1,0,0.2c0,0,0,0.1,0.1,0.1c0.1,0,0.1,0,0.2-0.1c0-0.1,0-0.1-0.1-0.1C27.2,21.4,27.1,21.3,27,21.3 M30.2,15.7
		c0.1,0.1,0.1,0.1,0.2,0.2c0,0.1,0,0.1,0.1,0.1c0.1,0,0,0,0-0.1c0,0,0-0.1,0-0.1c0,0,0-0.2,0-0.2c0,0-0.1,0-0.1,0
		C30.4,15.6,30.3,15.6,30.2,15.7"/>
	<path id="XMLID_961_" class="st2" d="M18.2,26.3L18.2,26.3C18.2,26.3,18.2,26.3,18.2,26.3C18.2,26.4,18.2,26.4,18.2,26.3
		C18.2,26.3,18.2,26.3,18.2,26.3"/>
	<path id="XMLID_960_" class="st3" d="M23.6,22.1C23.6,22.1,23.6,22.1,23.6,22.1C23.6,22.1,23.6,22.1,23.6,22.1
		C23.6,22.1,23.6,22.1,23.6,22.1"/>
	<path id="XMLID_959_" class="st4" d="M35,8.7C35,8.7,35,8.7,35,8.7C35,8.7,35,8.7,35,8.7C35,8.7,35,8.7,35,8.7L35,8.7z"/>
	<path id="XMLID_955_" class="st5" d="M30.4,17.8c0.1,0,0.1,0.1,0.1,0.1c0,0.2,0.1,0.5,0,0.7c0,0,0,0.1,0,0.1
		c-0.1,0.1-0.2,0.3-0.3,0.4c-0.1,0.1,0,0.1,0,0.1c0.1,0,0.1,0.1,0.1,0.1c0,0.1-0.1,0.1-0.1,0.1c0,0-0.1,0,0-0.1c0,0,0-0.1,0.1-0.1
		c-0.1,0-0.1-0.1-0.2,0c-0.1,0.1-0.2,0.3-0.2,0.3c0,0,0,0.1,0.1,0.1c0.1,0,0.2,0.1,0.3,0c0.1,0,0.1,0,0.2,0.1c0.1,0.1,0.2,0.2,0,0.4
		c-0.1,0.1-0.1,0.3-0.2,0.4c0-0.1-0.1-0.1-0.2-0.1c-0.1,0-0.1,0-0.2,0c-0.1,0-0.2,0.1-0.3,0c0,0-0.1,0-0.1,0.1c0,0,0,0.1,0,0.1
		c0,0.1,0,0.2,0.1,0.2c0,0,0.1,0,0.1,0c0,0.1,0,0.1,0,0.1c0,0,0,0,0,0v0c0,0,0.1,0,0,0c-0.1,0-0.2,0-0.3-0.1c0,0,0,0,0-0.1
		c0-0.3-0.2-0.4-0.3-0.6c0,0-0.1-0.1-0.1,0c0,0-0.1,0.1-0.1,0.1c0,0-0.1,0-0.1,0c-0.1,0,0-0.1,0-0.1c0-0.1-0.1-0.2-0.2-0.2
		c-0.1,0-0.1,0-0.2-0.1c-0.1-0.1-0.1-0.1-0.2,0c0,0.1-0.1,0.1-0.2,0.1c-0.1,0-0.2,0-0.2,0.1c0,0,0,0,0,0.1c-0.2,0.1-0.3,0.3-0.4,0.4
		c0,0,0,0-0.1,0C27,20.8,27,20.8,27,21c0,0.1,0,0.3-0.2,0.4c-0.2,0.1-0.2,0.1-0.3-0.1c-0.1-0.1-0.2-0.3-0.2-0.4
		c-0.1-0.2-0.2-0.3-0.1-0.5c0,0,0-0.1,0-0.2c0,0.1-0.1,0.1-0.2,0.1c-0.1,0-0.1-0.1-0.2-0.1c0,0,0.1,0,0.1-0.1
		c-0.1,0-0.2-0.1-0.3-0.2c-0.1-0.1-0.1-0.1-0.2-0.1c-0.1,0-0.2,0-0.3,0c-0.2,0-0.3-0.1-0.5-0.2c0,0-0.1,0-0.1-0.1
		c0-0.1,0-0.1-0.1-0.1c-0.2,0-0.3-0.2-0.4-0.3c0-0.1,0-0.2-0.1-0.2c-0.1,0-0.1,0-0.1,0.1c0,0.1,0,0.1,0,0.2c0,0.1,0,0.1,0,0.2
		c0,0,0-0.1,0.1,0c0,0,0,0.1,0,0.1c-0.1,0.1,0,0.1,0.1,0.1c0.1,0.1,0.2,0.1,0.4,0c0,0,0.1,0,0.1,0c0,0.1,0,0.2,0.1,0.3
		c0.1,0,0.1,0.1,0.1,0.2c0,0.1-0.1,0.1-0.1,0.1c-0.1,0-0.2,0.2-0.3,0.2c-0.1,0-0.2,0.1-0.3,0c-0.1,0-0.2-0.1-0.3,0c0,0,0,0-0.1,0
		c-0.2-0.1-0.5,0-0.7-0.1c-0.1,0-0.2,0-0.2-0.1c-0.1,0-0.1-0.1-0.1-0.1c0-0.1,0.1-0.2,0.1-0.3c0-0.1,0-0.3-0.1-0.4
		c0-0.1,0-0.1,0-0.2c0,0,0-0.1,0-0.1c0-0.2,0-0.3,0-0.5c0,0,0.1-0.1-0.1-0.1c0,0,0,0,0-0.1c0-0.1,0-0.1,0-0.2c0-0.1,0.1-0.1,0.1,0
		c0.1,0.1,0.1,0,0.2,0c0.1-0.1,0.3-0.1,0.3-0.2c0,0-0.1-0.1-0.2-0.1l0,0c-0.1-0.2-0.3-0.2-0.3-0.4c0-0.1,0.1-0.2,0.1-0.3
		c0-0.1,0-0.1,0-0.1c-0.1,0-0.1-0.1-0.2-0.1c0,0.1-0.1,0.1-0.1,0.2c0,0,0,0.1,0,0c0-0.1-0.1,0.1-0.2,0c0-0.1,0.1-0.1,0.1-0.2
		c0-0.1,0.1-0.2,0.2-0.3c0.1,0,0-0.2,0-0.3c0-0.1,0-0.1,0-0.1c0.1-0.1,0-0.1,0-0.2c0,0,0,0-0.1,0c0,0-0.1,0-0.1,0.1
		c-0.1,0.2-0.1,0.4-0.1,0.5c0,0,0-0.2-0.1,0c0,0-0.1,0-0.1,0c0,0-0.1-0.1-0.1,0c0,0,0,0,0,0c0-0.1,0-0.1,0-0.2
		c0.1,0,0.1,0.1,0.1,0.2c0,0,0.1,0.1,0.1,0.1c0,0,0.1,0,0.1-0.1c0-0.1,0-0.2,0-0.4c0,0,0-0.1,0-0.1c0.1-0.1,0.1-0.2-0.1-0.3
		c-0.1,0-0.1-0.1-0.1-0.1c0,0,0-0.1,0-0.1c-0.2,0-0.1-0.2-0.1-0.3c0-0.1,0-0.1,0.1-0.1c0.2,0,0.3-0.1,0.3-0.2c0,0,0,0,0,0
		c0,0,0,0,0,0.1c0.1,0.1,0.1,0.2,0.3,0.3c0.1,0.1,0.3,0.1,0.4,0.3c0,0.1,0.1,0,0.1,0c0.1-0.1,0.1-0.1,0.2,0c-0.1,0-0.1,0.1-0.2,0.1
		c-0.1,0-0.1,0.1,0,0.1c0,0,0,0.1,0.1,0.1c0.1,0.1,0.2,0.2,0.3,0.3c0.1,0,0.1,0,0.1,0c0.1,0,0.1-0.1,0.1,0c0,0,0,0,0,0
		c0,0,0.1,0,0.1,0c0.1-0.2,0.1-0.1,0.2,0c0,0,0,0,0,0c0,0,0.1,0.1,0.1,0c0,0,0-0.1-0.1-0.1c0,0,0,0,0,0c-0.1,0-0.2-0.1-0.1-0.2
		c0-0.1,0.1-0.2,0.2-0.1c0,0,0.1,0,0.1,0c0,0,0.1,0,0.1-0.1c0-0.1,0-0.1-0.1-0.1c-0.1,0.1-0.2,0-0.3,0c-0.1,0-0.2,0-0.2,0.1
		c0,0,0,0.1,0,0c-0.1-0.1-0.3,0.1-0.4,0c-0.1,0-0.1-0.1,0-0.1c0,0,0.1-0.1,0.1-0.1c0.1-0.1,0.2-0.1,0-0.2c-0.1,0-0.1-0.1,0-0.1
		c0.1-0.1,0.3-0.1,0.4,0c0.1,0,0.2,0.1,0.3,0.1c0.2,0,0.4,0,0.6,0.1c0,0,0.2,0.1,0.1,0.2c0,0,0,0.1,0.1,0.1c0.1,0.1,0,0.1,0.1,0.2
		c0,0,0,0.1,0,0.1c0,0-0.1,0-0.1,0c0,0-0.1-0.1-0.1-0.2c0,0.1-0.1,0.2,0,0.3c0.1,0,0-0.1,0.1-0.1c0,0,0.1,0.2,0.1,0c0,0,0,0,0.1,0
		c0.1,0,0.2,0,0.2-0.1c0,0,0,0,0.1,0c0,0,0,0.1,0,0.1c0,0,0,0,0,0.1c0,0,0,0,0.1,0c0.2-0.1,0.3,0,0.4,0c0,0,0,0,0,0
		c0.1-0.2,0.1,0,0.2,0c0,0,0,0.1,0.1,0.1c-0.1-0.1,0-0.2,0-0.4c0,0,0,0,0.1,0c0,0,0,0,0,0c0,0.2,0.1,0.4-0.1,0.5
		c0.1,0,0.2-0.1,0.1-0.3c0-0.1,0-0.1,0-0.2c0,0,0-0.1,0.1,0c0,0,0.1,0,0.1-0.1c0,0,0,0,0,0c0.2,0,0.2-0.3,0.3-0.3c0,0,0,0,0,0
		c0-0.1,0.1-0.1,0.2-0.1c0.1,0,0.2,0,0.2,0.1c0,0.1,0,0.1,0,0.2c0.1-0.1,0.2-0.2,0.3-0.2c0,0,0.1,0,0.1-0.1c0-0.1,0.1-0.1,0.1-0.1
		c0,0,0,0,0.1,0c0.1,0,0.1,0,0.1-0.1c0,0,0-0.1,0-0.1c0,0,0.1-0.1,0-0.1c0,0,0-0.2,0.1-0.2c0.1,0,0.1-0.1,0.1-0.2c0,0,0-0.1,0-0.1
		c0.2,0,0.1-0.1,0.1-0.2c0-0.1,0-0.1,0.1-0.2c-0.1,0-0.1,0-0.1-0.1c0-0.1,0.1-0.2,0.1-0.3c0-0.1,0.1-0.1,0-0.2c0,0,0-0.1,0.1-0.1
		c0,0,0.1,0,0.1,0c0.1,0,0.1,0,0,0.1c0,0.1-0.1,0.1,0,0.2c0,0,0,0,0,0c0,0,0,0,0,0c0,0,0,0,0,0c0,0,0,0,0,0c0.1,0,0.1,0,0.3,0
		c0,0.1,0.1,0.2,0.2,0.3c0.1,0.1,0.1,0.2,0.1,0.3c0,0.1,0.1,0.2,0.2,0.2c0.1,0,0.3,0.1,0.3,0.1c0.1,0.1,0.1,0.1,0.2,0.2
		c0,0,0.1,0,0.1,0.1c-0.1,0-0.2,0-0.4,0c-0.1,0-0.2-0.1-0.2-0.2c-0.1-0.1-0.2-0.2-0.3-0.3c0,0-0.1,0-0.1,0c0,0,0.1,0.1,0.1,0.1
		c0,0.1-0.1,0-0.1,0.1c0,0.1,0,0.1,0.1,0.1c0,0,0,0.1,0.1,0.1c0,0.1,0,0.1,0,0.1c0,0-0.1,0.1-0.1,0.1c0,0,0,0,0,0.1
		c-0.1,0.2,0,0.4,0,0.5c0,0,0,0.1,0,0.1c0,0,0,0.1,0.1,0.1c0,0,0.2,0,0.1-0.1c0,0,0,0,0.1-0.1c0.1,0,0.1,0,0.1-0.1c0,0,0,0,0,0
		c0.1,0,0.2,0.1,0.3,0.1c0,0,0,0,0,0.1c0,0.1,0.1,0.1,0.1,0.1c0.1,0,0.1,0,0.1,0.1c-0.2-0.1-0.3-0.2-0.5-0.2c0,0.1,0,0.1,0,0.1
		c0.3,0.1,0.3,0.4,0.4,0.6c0,0.1,0,0.1,0,0.2c-0.1,0.1-0.1,0.2,0,0.3c0,0.1,0,0.1,0,0.2c0,0.1,0,0.1,0.1,0.1c0.1,0,0.1,0,0.2,0
		c0.1,0,0.2,0,0.2,0.1c0,0.1,0,0.2-0.1,0.2c0,0-0.1,0-0.1,0c0-0.1-0.1-0.1-0.1-0.1c-0.1,0-0.2,0-0.3,0c0,0-0.1,0.1-0.1,0.2
		c0,0,0,0,0,0.1c0,0,0,0-0.1,0c0,0,0-0.1,0-0.1c0,0,0,0-0.1,0.1c0,0.1,0,0.2-0.1,0.3c0,0,0,0,0,0c0,0,0.2,0,0.2,0
		c0-0.1,0.1-0.1,0.2-0.2c0,0.1-0.1,0.2-0.1,0.3c0,0.1,0,0.1,0.1,0.1C30.2,17.6,30.3,17.7,30.4,17.8C30.4,17.8,30.4,17.8,30.4,17.8
		C30.4,17.8,30.4,17.8,30.4,17.8C30.4,17.8,30.4,17.8,30.4,17.8 M24,17.1c-0.1,0-0.1-0.1-0.2-0.1c0,0-0.1,0-0.1,0
		c0,0.1-0.1,0.1-0.1,0c-0.1,0,0-0.1,0-0.1c0-0.1,0-0.2-0.1-0.2c-0.1,0-0.2,0-0.3,0.1c-0.1,0-0.1,0.1-0.1,0.2c0,0.1,0.1,0.1,0.2,0.2
		c0.1,0,0.2,0.1,0.2,0.2c0,0.1,0.1,0.2,0.2,0.2c0.1,0,0.1,0.1,0.2,0c0.1,0,0-0.1,0-0.2c0,0,0,0,0-0.1C23.8,17.3,23.8,17.2,24,17.1
		 M24.7,17.6c-0.1,0-0.1,0-0.1,0c-0.1,0-0.2,0-0.2,0.2c0,0.1,0,0.2,0,0.3c0,0,0,0,0,0.1c-0.2,0.1-0.2,0.2,0,0.3c0.1,0,0.1,0.1,0.2,0
		c0-0.1,0.1-0.2,0-0.2c0-0.1,0-0.1,0.1-0.1c0,0,0.1,0,0.1,0c0,0,0-0.1,0-0.1c-0.1,0-0.1-0.1-0.1-0.1c-0.1-0.1,0-0.2,0.1-0.2
		c0.1,0,0.1,0,0.1-0.1c0,0,0,0,0-0.1C24.8,17.6,24.7,17.6,24.7,17.6"/>
	<path id="XMLID_954_" class="st5" d="M26.3,15.2c-0.2,0.1-0.5,0.2-0.5,0.5c-0.1,0-0.1-0.1,0-0.2C25.9,15.4,26,15.2,26.3,15.2"/>
	<path id="XMLID_953_" class="st5" d="M22.3,15.8c0,0.1-0.1,0.1-0.1,0.1c0,0-0.1,0-0.1,0C22.1,15.8,22.1,15.8,22.3,15.8
		C22.2,15.8,22.2,15.8,22.3,15.8"/>
	<path id="XMLID_952_" class="st5" d="M30.9,16.9c-0.1,0-0.1-0.1-0.1-0.1c0,0,0,0.1,0,0.1c0.1,0,0.1,0,0.1,0.1c0,0,0.1,0.1,0,0.1
		c0,0-0.1,0-0.1,0c0,0-0.1,0.1-0.1,0c0-0.1,0-0.2,0-0.4c0.1-0.1,0.1-0.2,0-0.3c0,0,0,0,0,0c0.1-0.1,0-0.3-0.1-0.3
		c-0.1,0-0.1,0-0.1-0.1c0,0,0,0,0,0c0.1,0,0.1,0,0.2,0c0.1,0.1,0.1,0.2,0.2,0.2c0.1,0.1,0,0.1,0,0.2c0,0.1-0.1,0.2,0,0.3
		c0,0,0,0.1-0.1,0c0,0-0.1,0-0.1,0c0,0.1,0,0,0.1,0c0,0,0,0,0,0.1C30.9,16.8,30.9,16.8,30.9,16.9"/>
	<path id="XMLID_951_" class="st5" d="M27,21.3c0.1,0,0.1,0.1,0.2,0.1c0,0,0.1,0.1,0.1,0.1c0,0.1-0.1,0.1-0.2,0.1
		c-0.1,0-0.1-0.1-0.1-0.1C27,21.5,27,21.4,27,21.3"/>
	<path id="XMLID_950_" class="st5" d="M30.2,15.7c0.1,0,0.2-0.1,0.2-0.1c0,0,0,0,0.1,0c0,0,0,0.2,0,0.2c0,0-0.1,0.1,0,0.1
		c0,0,0.1,0,0,0.1c0,0-0.1,0-0.1-0.1C30.3,15.7,30.3,15.7,30.2,15.7"/>
	<path id="XMLID_949_" class="st1" d="M24,17.1c-0.2,0.1-0.2,0.2-0.1,0.3c0,0,0,0,0,0.1c0,0.1,0.1,0.1,0,0.2c-0.1,0-0.1,0-0.2,0
		c-0.1-0.1-0.2-0.1-0.2-0.2c0-0.1-0.1-0.2-0.2-0.2c-0.1,0-0.1-0.1-0.2-0.2c0-0.1,0-0.1,0.1-0.2c0.1,0,0.2-0.1,0.3-0.1
		c0.1,0,0.2,0,0.1,0.2c0,0-0.1,0.1,0,0.1c0,0,0.1,0.1,0.1,0c0,0,0,0,0.1,0C23.9,17.1,23.9,17.1,24,17.1"/>
	<path id="XMLID_948_" class="st1" d="M24.7,17.6c0,0,0.1,0,0.1,0c0,0,0.1,0,0,0.1c0,0,0,0.1-0.1,0.1c-0.2,0-0.2,0.1-0.1,0.2
		c0,0,0,0.1,0.1,0.1c0,0,0,0.1,0,0.1c0,0,0,0-0.1,0c-0.1,0-0.1,0-0.1,0.1c0,0.1,0,0.2,0,0.2c-0.1,0.1-0.1,0-0.2,0
		c-0.2-0.1-0.2-0.2,0-0.3c0,0,0,0,0-0.1c0-0.1,0-0.2,0-0.3c0-0.1,0.1-0.2,0.2-0.2C24.6,17.6,24.6,17.6,24.7,17.6"/>
	<path id="XMLID_947_" class="st6" d="M30.4,17.8C30.4,17.8,30.4,17.8,30.4,17.8C30.4,17.8,30.4,17.8,30.4,17.8
		C30.4,17.8,30.4,17.8,30.4,17.8"/>
	<path id="XMLID_946_" class="st3" d="M28.6,13.5C28.6,13.5,28.6,13.5,28.6,13.5C28.6,13.5,28.6,13.5,28.6,13.5
		C28.6,13.5,28.6,13.5,28.6,13.5L28.6,13.5z"/>
</g>
<g id="XMLID_1_">
</g>
<g id="XMLID_2_">
</g>
<g id="XMLID_3_">
</g>
<g id="XMLID_4_">
</g>
<g id="XMLID_5_">
</g>
<g id="XMLID_6_">
</g>
<g id="XMLID_7_">
</g>
<g id="XMLID_8_">
</g>
<g id="XMLID_10_">
</g>
<g id="XMLID_12_">
</g>
<g id="XMLID_13_">
</g>
<g id="XMLID_14_">
</g>
<g id="XMLID_15_">
</g>
<g id="XMLID_16_">
</g>
<g id="XMLID_17_">
</g>
</svg>
