<?xml version="1.0" encoding="utf-8"?>
<!-- Generator: Adobe Illustrator 18.1.1, SVG Export Plug-In . SVG Version: 6.00 Build 0)  -->
<!DOCTYPE svg PUBLIC "-//W3C//DTD SVG 1.1//EN" "http://www.w3.org/Graphics/SVG/1.1/DTD/svg11.dtd" [
	<!ENTITY ns_extend "http://ns.adobe.com/Extensibility/1.0/">
	<!ENTITY ns_ai "http://ns.adobe.com/AdobeIllustrator/10.0/">
	<!ENTITY ns_graphs "http://ns.adobe.com/Graphs/1.0/">
	<!ENTITY ns_vars "http://ns.adobe.com/Variables/1.0/">
	<!ENTITY ns_imrep "http://ns.adobe.com/ImageReplacement/1.0/">
	<!ENTITY ns_sfw "http://ns.adobe.com/SaveForWeb/1.0/">
	<!ENTITY ns_custom "http://ns.adobe.com/GenericCustomNamespace/1.0/">
	<!ENTITY ns_adobe_xpath "http://ns.adobe.com/XPath/1.0/">
]>
<svg version="1.1" id="Layer_1" xmlns:x="&ns_extend;" xmlns:i="&ns_ai;" xmlns:graph="&ns_graphs;"
	 xmlns="http://www.w3.org/2000/svg" xmlns:xlink="http://www.w3.org/1999/xlink" x="0px" y="0px" viewBox="0 0 488.3 258.5"
	 enable-background="new 0 0 488.3 258.5" xml:space="preserve">
<metadata>
	<sfw  xmlns="&ns_sfw;">
		<slices></slices>
		<sliceSourceBounds  width="488.3" height="258.5" y="-504.8" x="431.3" bottomLeftOrigin="true"></sliceSourceBounds>
	</sfw>
</metadata>
<g>
	<g>
		<g>
			<path fill="none" stroke="#B5935B" stroke-linecap="round" stroke-linejoin="round" d="M97.5,41.1c0.3-0.4,0.6-0.8,1-1.1"/>
			<path fill="none" stroke="#B5935B" stroke-linecap="round" stroke-linejoin="round" stroke-dasharray="2.7343,2.7343" d="
				M100.5,38c4.4-3.8,10-5.9,15.9-5.9h3.1"/>
			<line fill="none" stroke="#B5935B" stroke-linecap="round" stroke-linejoin="round" x1="120.9" y1="32.1" x2="122.4" y2="32.1"/>
		</g>
	</g>
	<path fill="none" stroke="#B5935B" stroke-linecap="round" stroke-linejoin="round" stroke-miterlimit="10" d="M90.8,49.3
		c1.5-1.1,2.9-2.6,3.9-4.2l1.2-1.8"/>
	<path fill="none" stroke="#B5935B" stroke-linecap="round" stroke-linejoin="round" stroke-miterlimit="10" d="M54.3,82.6l14-22.9
		c2.8-4.5,7.7-7.3,13-7.4l0.5,0c2,0,3.9-0.4,5.7-1.2"/>
	<path fill="none" stroke="#B5935B" stroke-miterlimit="10" d="M376.5,168l7-19.6c3.3-9.1,11.9-15.2,21.6-15.2h8.6"/>
	<path fill="none" stroke="#B5935B" stroke-linecap="round" stroke-linejoin="round" stroke-miterlimit="10" d="M6.5,111.8
		l12.8-21.2l33.6,0.3L70.4,63c2.8-4.5,7.7-7.2,13-7.2h0c5.2,0,10.1-2.7,12.9-7.1l1.3-2c4.5-6.9,12.2-11.1,20.4-11.1h26l4.9-9.1h156"
		/>
	
		<ellipse fill="#041944" stroke="#B5935B" stroke-linecap="round" stroke-linejoin="round" stroke-miterlimit="10" cx="368.9" cy="171.6" rx="23.7" ry="23.8"/>
	<path fill="#041944" stroke="#B5935B" stroke-miterlimit="10" d="M363.2,191.3c-8.5-2.5-14.7-10.4-14.7-19.7
		c0-11.3,9.2-20.5,20.5-20.5s20.5,9.2,20.5,20.5c0,10.8-8.3,19.6-18.8,20.5"/>
	<path id="XMLID_439_" fill="#FFFFFF" stroke="#B5935B" stroke-linecap="round" stroke-linejoin="round" stroke-miterlimit="10" d="
		M247.9,66.1c0.2-0.1,0.5-0.3,0.6-0.5c0.1-0.1,0.1-0.3,0.1-0.5c0-0.1-0.4-0.2-0.6-0.3c-0.2-0.1-0.4-0.1-0.6-0.1
		c-0.2-0.1-0.3-0.2-0.5-0.2c-0.3-0.1-0.8-0.2-1-0.4c-0.1-0.1-0.2-0.2-0.3-0.3c-0.1-0.1-0.3-0.1-0.5-0.1c-0.7,0-1.4,0.1-2.1,0.2
		c-0.3,0.1-0.6,0.1-1,0.1c-0.3,0-0.6,0-0.9,0.1c-0.2,0.1-0.3,0.1-0.5,0.1c-0.1,0-0.2,0.1-0.3,0.1c-0.1,0-0.2,0-0.3,0.1
		c-0.1,0-0.3,0.1-0.4,0.1c-0.2,0-0.3,0.1-0.5,0.1c-0.4,0-0.6-0.3-0.9-0.4c-0.1,0-0.1-0.1-0.2-0.1c-0.1,0-0.2,0-0.3,0
		c-0.1,0-0.1-0.1-0.2-0.1c-0.1,0-0.2,0-0.3,0c-0.4,0-0.9,0.1-1.2-0.1c-0.4-0.1-0.8-0.5-1.2-0.5c-0.4,0-0.9,0-1.3,0
		c-0.4,0.1-0.8,0.2-1.2,0.2c-0.2,0-0.4,0-0.6,0c-0.2,0-0.5-0.3-0.7-0.4c-0.1-0.1-0.2-0.2-0.3-0.3c-0.1,0-0.2-0.1-0.2-0.1
		c-0.2-0.1-0.5-0.1-0.7-0.1c-0.2,0-0.4,0-0.6,0c-0.1,0-0.3,0.1-0.4,0.1c-0.1,0-0.2,0-0.3,0.1c-0.1,0.1-0.1,0.1-0.1,0.3
		c0,0.2,0.1,0.2,0.2,0.3c0.2,0.1,0.2,0.3,0.4,0.5c0.1,0.1,0.3,0.2,0.3,0.3c0,0.1-0.1,0.2-0.2,0.4c-0.1-0.1-0.2-0.1-0.2-0.1
		c-0.3-0.2-0.7-0.3-1-0.4c-0.6-0.1-1.2,0-1.8-0.1c-0.4,0-0.5-0.4-0.7-0.6c-0.5-0.4-0.6,0.3-0.6,0.7c0,0.2,0,0.5,0,0.7
		c0,0.1,0.2,0.3,0.1,0.5c-0.1,0.2-0.1,0.1-0.1,0.3c0,0.2,0.1,0.3,0.2,0.5c0.3,0.4,0.9,0.5,1.3,0.8c0.2,0.1,0.5,0.2,0.7,0.3
		c0.2,0.1,0.5,0.2,0.7,0.4c0.4,0.2,0.8,0.3,1.1,0.6c0.3,0.2,0.6,0.7,1,0.8c0.4,0.1,0.8,0.1,1.3,0c0.3-0.1,0.5-0.2,0.7-0.4
		c0.4-0.3,0.8-0.4,1.2-0.7c0.2-0.2,0.4-0.3,0.7-0.3c0.2,0,0.3,0,0.5,0c0.3,0,0.4,0.1,0.6,0.2c0.2,0.1,0.4,0.2,0.6,0.1
		c0.2-0.1,0.4-0.2,0.5-0.4c0.1-0.2,0.1-0.4,0.2-0.5c0.1-0.1,0.2-0.3,0.3-0.4c0.1-0.1,0.1-0.1,0.2-0.2c0.1-0.1,0.2,0,0.3-0.1
		c0.1,0,0.2-0.1,0.3-0.1c0.2,0,0.3,0,0.5-0.1c0.5-0.2,0.2-0.5-0.1-0.7c-0.2-0.2-0.4-0.3-0.4-0.6c0-0.1,0-0.3,0-0.4
		c0-0.1,0.1-0.3,0.1-0.4c0.3,0.1,0.6,0.2,0.9,0.3c0.2,0.1,0.4,0.1,0.6,0.2c0.1,0,0.3,0.1,0.4,0.2c0,0.1,0.1,0.2,0.1,0.2
		c0,0.1,0.1,0.1,0.1,0.2c0.1,0.2,0.1,0.3,0.2,0.5c0.1,0.1,0.2,0.2,0.3,0.2c0.1,0,0.2,0,0.3,0c0.2,0,0.4,0.1,0.7,0.1c1,0,1.9,0,2.9,0
		c0.4,0,0.8-0.1,1.2,0c0.1,0,0.2,0.1,0.4,0.1c0.2,0,1.8,0.1,2,0.1 M254.1,75.6c-0.1,0-0.3,0-0.4,0c-0.2,0-0.4,0-0.6,0
		c-1-0.1-2,0-3.1,0l-0.3-0.6l-0.1,0.1l-5.1,0l-0.2,0.3c-0.1,0-0.2,0-0.3,0.1c-0.2,0.1-0.5,0.3-0.7,0.5c-0.7-0.1-1.4-0.1-2.2-0.1
		c-0.2,0-0.4,0.1-0.6,0.2c-0.2,0.1-0.3,0.2-0.5,0.3c-0.2,0.2-0.4,0.3-0.4,0.7c0,0.2,0,0.3,0.1,0.4c0.2,0.1,0.4,0.1,0.6,0.1
		c0.2,0.1,0.2,0.1,0.2,0.3c0,0.1,0,0.1,0,0.2c-0.6,0.5-1.3,1-1.9,1.4l-2.1,0l-0.9,1.5c-2.8,0.7-5.8-0.8-8.6-1.1c0,0-0.1,0-0.1,0
		l-0.3-0.4l-0.1,0.1l-2,0c-0.2-0.1-0.5-0.1-0.7-0.2c0,0-0.1-0.1-0.1-0.1c-0.2-0.3-0.3-0.7-0.5-0.9c-0.3-0.3-0.7-0.5-1.1-0.6
		c-0.2-0.1-0.4-0.3-0.6-0.4c-0.3-0.1-0.5-0.3-0.8-0.4c-0.4-0.3-0.8-0.5-1.3-0.7l-0.6-1l-0.4,0.7c0,0,0,0,0,0
		c0.2-0.4,0.3-0.6,0.3-0.6l-5.1,0l-0.4,0.7c-0.1,0-0.2,0-0.3,0c-0.4,0-0.8,0.1-1.2,0.2c-0.1,0-0.6,0.1-0.6,0.2
		c0.1,0.1,0,0.1,0.1,0.2c0,0.1,0.1,0.1,0.1,0.2c-0.4,0.2-0.8,0.4-1.2,0.6c-0.6,0.4-1.1,0.8-1.7,1.2c-0.3,0-0.6,0-0.9-0.1
		c-0.9-0.1-1.7-0.4-2.5-0.8c-0.1-0.1-0.2-0.2-0.3-0.2l-1.5-2.5l-0.1,0.1c0,0-5.1,0-5.2,0l-6.5-2.6c0,0.1,0.1,0.2,0.1,0.2
		c0,0,0,0,0,0c-0.1-0.1-0.3-0.2-0.4-0.4l0.4,0.2c-0.1-0.3-0.3-0.7-0.5-1.1c0.1,0,0.1-0.1,0.2-0.1c0.1-0.1,0.2-0.2,0.2-0.4
		c0-0.1-0.2-0.3-0.3-0.4c0,0,0-0.1,0-0.1c0-0.3,0.1-0.8-0.2-1c-0.3-0.2-0.8-0.2-1.1-0.2c-0.1,0-0.2,0-0.3,0
		c-0.1-0.1-0.1-0.1-0.2-0.1c0,0-0.1-0.1-0.1-0.1c0-0.1-0.1-0.2-0.1-0.3c-0.1-0.4-0.3-0.6-0.6-0.8c-0.3-0.2-0.8-0.3-1.2-0.2
		c-0.4,0.1-0.7,0.1-1.1,0.1c-0.2,0-0.4,0-0.6,0c-0.5,0-1,0-1.4,0c-0.1,0-0.2-0.1-0.4-0.1c-0.2-0.1-0.6,0-0.8,0c-0.2,0-0.3,0-0.4,0.1
		c-0.2,0-0.4-0.1-0.5-0.1c-0.4-0.1-0.9-0.1-1.2,0.3c0,0-0.1,0-0.1,0c-0.2,0-0.4,0-0.5,0l-0.7-0.3l-0.5-0.2c0,0,0-0.1-0.1-0.1
		c-0.1-0.1-0.3-0.1-0.5-0.1l-2.1-0.9c0-0.1,0-0.3,0-0.4c0-0.1,0-0.1,0-0.2c0.1,0,0.1-0.1,0.1-0.2c0,0-0.1,0-0.1,0
		c0-0.1-0.1-0.2-0.2-0.3c-0.1-0.1-0.4-0.2-0.5-0.2c-0.3,0-0.6,0-0.9,0c-0.3-0.7-1.4-2.6-1.5-2.7c-0.1-0.2-0.2-0.4-0.3-0.6
		c-0.1-0.3-0.2-0.5-0.5-0.5c-0.3,0-0.5,0-0.8-0.2c-0.3-0.2-0.7-0.1-1-0.3c-0.3-0.1-0.5-0.3-0.7-0.5c-0.3-0.2-0.4-0.5-0.7-0.7
		c-0.3-0.2-0.6-0.1-0.8,0.1c-0.2,0.1-0.3,0.2-0.5,0.2c-0.1,0-0.2-0.3-0.2-0.5c-0.1,0-0.1,0-0.2-0.1c-0.1-0.1-0.1-0.1-0.3-0.1
		c-0.3,0-0.6,0-0.8,0c-0.5,0-1,0.1-1,0.7c0,0.1,0,0.3,0,0.4c0,0.2,0.2,0.3,0.3,0.4c0.2,0.2,0.1,0.4,0.1,0.6
		c-0.9-0.2-2.1-0.3-2.2-0.3c-0.2-0.1-0.4-0.3-0.7-0.5c-0.1-0.1-0.2-0.1-0.3-0.2c0-0.1-0.1-0.1-0.1-0.2c0,0-0.1-0.1-0.1-0.1
		c-0.1-0.2,0-0.6,0-0.8c0.1-0.3,0.2-0.5,0.3-0.8c0.1-0.2,0.2-0.4,0.2-0.6c0-0.1,0-0.2,0-0.3c0-0.1,0-0.2-0.1-0.2
		c-0.1-0.1-0.3-0.1-0.5-0.2c-0.2-0.1-0.5-0.2-0.7-0.2c-0.5-0.2-1-0.3-1.6-0.4c-0.2,0-0.4-0.1-0.7-0.1c-0.2,0-0.3,0-0.4,0.2
		c-0.1,0.3-0.1,0.6-0.1,0.9c0,0.2,0,0.3,0,0.5c0,0.2,0,0.2,0.1,0.4c0,0.2-0.1,0.2-0.3,0.2c-0.2,0-0.4,0-0.5-0.1
		c-0.1-0.1-0.1-0.4-0.2-0.6c0-0.1-0.1-0.2-0.1-0.4c0-0.1,0-0.2,0-0.2c0-0.1,0-0.1-0.1-0.1c0-0.1,0-0.3-0.1-0.4
		c-0.1-0.1-0.3-0.1-0.4-0.1c-0.4,0-0.7,0.2-1,0.3c-0.2,0.1-0.5,0.1-0.7,0.2c-0.3,0.1-0.8,0.4-1,0.6c-0.2,0.2-0.4,0.6-0.8,0.4
		c-0.1-0.1-0.2-0.3-0.2-0.4c0-0.2,0-0.4,0-0.6c0.1-0.2,0.2-0.2,0.4-0.2c0.3-0.1,0.6-0.2,0.9-0.4c0.2-0.1,0.4-0.2,0.6-0.2
		c0.2,0,0.4,0,0.5,0c0.4-0.1,0.8-0.2,1.1-0.3c0.3-0.1,0.6,0.1,0.6-0.3c0-0.2,0-0.4,0-0.6c0-0.3,0-0.4-0.2-0.5
		c-0.5-0.3-0.8-0.8-1.3-1.1c-0.2-0.1-0.3-0.2-0.5-0.3c-0.2-0.1-0.3-0.2-0.4-0.4c-0.1-0.1-0.3-0.3-0.5-0.4c-0.2-0.1-0.4-0.2-0.6-0.3
		c-0.4-0.2-0.7-0.4-1.2-0.4c-0.5,0-0.7,0.8-0.7,1.3c0,0.2,0.1,0.4,0,0.6c-0.1,0.2-0.3,0-0.4,0.1c-0.1,0-0.2,0.1-0.2,0.1
		c-0.1,0-0.2,0-0.3,0c-0.4,0.1-0.8,0.1-1.1,0.2c-0.4,0.2-0.6,0.3-0.6,0.8c0,0.2,0,0.3,0.1,0.5c0.1,0.2,0.4,0.3,0.6,0.5
		c0.3,0.2,0.7,0.3,0.6,0.7c0,0.1-0.2,0.3-0.3,0.4c-0.1,0.1-0.2,0.4-0.2,0.6c0,0.1,0.3,0.2,0.4,0.2c0.2,0.1,0.4,0.2,0.6,0.2
		c0.3,0.1,0.6,0.2,1,0.4c0.1,0.1,0.3,0.1,0.4,0.2c0.1,0.1,0.2,0.2,0.3,0.2c0.3,0.1,0.6,0.3,0.9,0.3c0.1,0,0.3,0,0.4,0.1
		c0.2,0.1,0.3,0.1,0.5,0.1c0.2,0.2,0.4,0.4,0.7,0.6c0.2,0.2,0.5,0.5,0.8,0.6c0.3,0.1,0.6,0.3,0.9,0.4c0.4,0.1,0.8,0.2,1.3,0.3
		c0.5,0.1,1,0.1,1.5,0.1c0.3,0,0.8-0.1,1.1,0c0.3,0.1,0.5,0.5,0.7,0.8c0,0.1,0.1,0.2,0.2,0.3c0.1,0.1,0.3,0,0.5,0c0.3,0,0.7,0.1,1,0
		c0.3-0.1,0.6-0.3,0.8-0.6c0,0,0.1-0.1,0.1-0.1c0.1-0.1,0,0,0.2-0.1c0.1,0,0.8,0,1.5,0c0.1,0.2,0.3,0.3,0.3,0.5c0,0.1,0,0.3-0.1,0.4
		c-0.1,0-0.1,0.1-0.2,0.1c-0.1,0.1-0.1,0.2-0.2,0.2c-0.2,0.2-0.4,0.4-0.5,0.7c0,0.3,0,0.6,0.3,0.7c0.5,0.1,1.1-0.1,1.5-0.2
		c0.2-0.1,0.3-0.2,0.5-0.2c0.2,0,0.2,0,0.3-0.1c0.1-0.1,0.3-0.2,0.4-0.2c0.1,0,0.3-0.1,0.3-0.1c0.3-0.1,0.6,0,0.9,0
		c0.1,0,0.2,0,0.3,0.1c0.1,0,0.2,0.1,0.4,0.1c0.1,0,0.3,0,0.4,0c0.2,0,0.4-0.2,0.5-0.3c0.2-0.1,0.3-0.3,0.5-0.4
		c0.2-0.1,1.1-0.3,1.3-0.3c0.3,0,1.1,1.9,1.5,2.5c0,0-0.1,0-0.1,0c-0.2,0-0.4-0.1-0.6-0.1c-0.1,0-0.3,0.2-0.4,0.2
		c-0.2,0.1-0.4,0.2-0.6,0.3c-0.5,0.3-1,0.4-1.3,0.9c-0.2,0.2-0.4,0.5-0.6,0.7c-0.2,0.2-0.4,0.4-0.6,0.6c-0.1,0.2-0.3,0.4-0.3,0.6
		c0,0.1,0,0.5,0,0.6c0.2,0.3,0.7,0.4,0.9,0.5c0.1,0,0.3,0.1,0.5,0.2c-0.1,0.1-0.1,0.2-0.2,0.3c-0.5-0.1-1-0.3-1.6-0.2
		c-0.1,0-0.8,0.1-0.6,0.4c0.1,0.1,0.3,0.1,0.4,0.1c0.2,0.1,0.4,0.1,0.6,0.1c0.1,0,0.5,0.1,0.9,0.1c-0.3,0.4-0.5,0.6-0.8,0.9
		c-0.2,0.1-0.4,0.2-0.7,0.3c-0.2,0.1-0.4,0.2-0.6,0.3c-0.8,0.2-1.6,0.2-2.5,0.1c-0.1-0.2-0.3-0.3-0.5-0.4c0,0-0.1,0-0.1,0l-0.6-1
		l-0.1,0.1l-5.1,0l-0.9,1.6c-0.2,0.1-0.4,0.1-0.6,0.2c-1.6,0.5-1.7,1.2-2.2,2.7c-0.2,0.4-0.5,0.9-0.8,1.4c-0.1,0-0.2,0.1-0.3,0.1
		c-0.2,0.1-0.4,0.1-0.6,0.1c-0.2,0-0.3,0.1-0.5,0.2c-0.1,0.1-0.2,0.2-0.3,0.3c-0.1,0.2-0.1,0.4-0.3,0.5c-0.1,0-0.1,0.1-0.2,0.1
		c-0.1,0-0.2,0-0.2,0c-0.2,0-0.5,0-0.7,0c-0.3,0.1-0.3,0.2-0.3,0.5c0,0.2,0.1,0.4,0.2,0.5c0.2,0.2,0.3,0.1,0.5,0.2
		c0.1,0,0.1,0.1,0.2,0.1c0.1,0,0.2,0,0.3,0c0.3,0.1,0.3,0.1,0.3,0.4c0,0.2,0,0.2,0.2,0.4c0.1,0.2,0.2,0.3,0.3,0.5
		c0.2,0.2,0.3,0.3,0.4,0.5c0.1,0.2,0.1,0.4,0.3,0.6c0.1,0.1,0.2,0.2,0.3,0.3c0,0,0,0,0,0.1c-0.1,0.4-0.7,0.2-1,0.2
		c-0.3,0-0.7-0.1-0.8,0.2c-0.2,0.3-0.4,0.7-0.8,1c-0.3,0.2-0.6,0.1-0.9,0.2c-0.3,0.1-0.6,0.1-0.9,0.1c-0.3,0-0.6-0.1-1-0.1
		c-0.3,0-0.5-0.1-0.7-0.1c-0.4,0-0.7-0.1-1.1-0.1c-0.2,0-0.5,0-0.7,0c-0.3,0-0.4,0.1-0.6,0.2c-0.2,0.2-0.4,0.3-0.4,0.6
		c0,0.2,0.1,0.3,0.2,0.4l0.2,0c0,0.1,0,0.1,0,0.1c0,0.4,0,0.7,0.3,1c0.1,0.1,0.4,0.2,0.6,0.3c0.1,0,0.2,0.1,0.3,0.1
		c0,0,0.2,0.1,0.2,0.1c0.1,0.1-0.1,0.4-0.1,0.5c0,0.1,0,0.1,0,0.2c0,0.1-0.1,0.2-0.2,0.3c-0.1,0.3-0.1,0.7,0.1,0.9
		c-0.4,0.2-0.7,0.3-1.1,0.5l-2.2,0l-0.6,1c-0.1,0-0.2,0-0.3,0c-0.9,0-1.7-0.5-2.5-0.9c0,0,0,0-0.1,0c0-0.3-0.1-0.5-0.3-0.7
		c-0.3-0.3-0.6-0.4-1-0.4c-0.3,0-0.6-0.1-0.6,0.2c0,0,0,0.1,0,0.1c-0.1,0-0.2,0-0.3-0.1c-0.1,0.7,0.9,2.1,0.5,2.9
		c-0.4,0.2-0.8,0.3-1.2,0.4c-0.6-0.1-1.3-0.4-1.8-0.7c0-0.5-0.1-1-0.1-1.5c-0.9,0-0.9-0.5-1.5-0.9c-0.5-0.3-1.4-0.2-1.9-0.3
		c-1.2-0.3-3-0.9-3.3,0.7c0,0.1,0,0.2-0.1,0.4l-2.5,4.3l1.9,3.3c-0.2,0.5-0.7,0.9-0.4,1.4c0.3,0.5,1.1,0.4,1,1.2
		c-0.1,0.5-0.8,0.7-0.4,1.3c0.3,0.5,1.4,0.4,1.7,0.8c0.4,0.4,0.3,0.8,0.8,1.2c0.4,0.3,1.3,0.5,1.5,1.1c0.3,0.6-0.3,1.4,0.1,1.8
		c0,0-0.1-0.1-0.1,0c0,0.1-0.1,0.3-0.2,0.3c-0.1,0-0.3,0-0.4,0.1c-0.2,0.1-0.3,0.1-0.5,0.1c0,0-0.1,0-0.1-0.1
		c-0.3-0.2-0.5-0.6-0.7-0.9c-0.3-0.3-0.5-0.7-0.9-1c-0.4-0.2-0.8-0.3-1.2-0.4c-0.1,0-0.1,0-0.1,0c-0.2-0.2-0.3-0.3-0.5-0.4
		c-0.1-0.1-0.2-0.2-0.4-0.3c-0.1,0-0.1,0-0.2-0.1c0,0-0.1-0.1-0.2-0.1c-0.2-0.1-0.5-0.1-0.8-0.2c-0.2-0.2-0.3-0.3-0.5-0.5
		c-0.3-0.2-0.7-0.3-1-0.3c-0.3-0.1-0.5-0.1-0.7-0.1c-0.1,0-0.1,0-0.1,0c-0.2-0.1-0.4-0.3-0.6-0.3c-0.1,0-0.2,0-0.2,0
		c-0.1,0-0.2,0-0.3-0.1c-0.1,0-0.3,0-0.4,0c-0.1-0.1-0.2-0.1-0.3-0.2c-0.3-0.1-0.6-0.2-1-0.4c-0.8-0.4-1.8-0.5-2.6-0.9
		c-0.5-0.2-0.8-0.6-1.3-0.8c-0.2-0.1-0.4-0.2-0.5-0.3c-0.4-0.2-0.8-0.2-1.2-0.2l-0.4,0c-0.1,0-0.1-0.1-0.2-0.1c-0.1,0-0.2,0-0.3,0.1
		c0,0,0,0-0.1,0c-0.8-0.6-1.9-1.5-2-1.6c-0.2-0.1-0.4-0.3-0.7-0.5c-0.2-0.1-0.3-0.2-0.5-0.4c-0.2-0.2-0.3-0.2-0.5-0.4
		c-0.3-0.2-0.5-0.3-0.8-0.4c-0.2-0.1-0.3-0.2-0.5-0.3c0,0-0.1,0-0.1-0.1c-0.2-0.3-0.3-0.7-0.6-1c-0.1-0.1-0.1-0.1-0.2-0.2
		c0-0.2,0-0.4,0-0.6l2.8,0l2.6-4.5l-1.8-3.2c-0.2-0.4-0.2-0.9,0.2-1.3c0.5-0.5,1-1,1.6-1.3c0.2-0.1,0.5-0.3,0.7-0.4
		c0.3-0.1,0.5-0.4,0.6-0.7c0.2-0.6,0.6-1.1,1-1.5c0.3-0.3,0.6-0.5,0.9-0.7c0.2-0.1,0.4-0.2,0.6-0.2c0.4-0.1,0.8-0.3,1.1-0.5
		c0.7-0.4,1.5-0.8,2.1-1.3c0.2-0.1,0.4-0.2,0.6-0.3c0.7-0.1,1.4-0.2,2.1-0.4c0.8-0.2,1.6-0.6,2.1-1.3c0.2-0.4,0.3-1.2,0-1.5
		c-0.2-0.2-0.4-0.3-0.7-0.5c-0.3-0.2-0.6-0.2-1-0.2c-0.6,0-1.3-0.1-1.8,0.2c-0.3,0.2-0.6,0.3-0.8,0.6c-1.2,1.6-1.8,1.6-3.8,1.7
		c-2,0.1-3.9-0.1-5.9-0.3c-1.6-0.1-4.5-0.7-5.9,0.2c-2,1.2-2,4.4-1.1,6.3c0.4,0.9,0.7,2.1,0.3,3.1c-0.7,1.4-2,1.6-1.9,3.7
		c0,0.7-0.2,1.4-0.6,1.9c-0.8,0.8-1,0.3-1.3,1.2c-0.1,0.4,0.3,1.7,0.5,1.9c0.5,0.6,1.9,1.4,2.6,2c1.4,1.2,3.3,1.5,5.1,1.7
		c1.7,0.2,3.3-0.4,4.7,0.9c-0.3,0.1-0.6,0.4-0.5,0.7c0.1,0.2,0.3,0.4,0.5,0.5c0.1,0.1,0.2,0.1,0.3,0.1c0.1,0,0.1,0.1,0.2,0.1
		c0.1,0.1,0.2,0.1,0.3,0.1c0.1,0,0.1,0,0.2,0c1.6,0.3,4,1.9,3.1,3.8c-1.1,2.4-4.2,0.7-5.9,0.3c-1.9-0.5-3.8-2-5.8-1.6
		c-1.6,0.4-2.2,2.3-3,3.7c-0.3,0.1-0.7,0.2-1,0.3c-0.8,0.3-0.9,1.1-1.6,1.4c-0.7,0.3-1.8,0-2.5,0.3c-1.7,0.5-3,1.8-4.1-0.4
		c-0.5-1-0.8-1.7-2.1-2.1c-0.4-0.1-1.7-0.3-2.1-0.2c-0.6,0.2-0.6,0.7-1,0.9c-1.4,0.6-4.7,0-5.6-1.3c-0.9-1.2-2.1-3.3-3.7-3.5
		c-0.3,0-4.5,0.9-4.4,0.7l-0.8,1.4c-0.3,0-0.5,0-0.7-0.1c-0.4-0.2-0.8-0.3-1.1-0.5c-0.2-0.1-0.2-0.2-0.2-0.4c0-0.2,0-0.2-0.1-0.4
		c-0.2-0.4-0.6-0.6-1-0.7c-0.7-0.1-1.5-0.2-2.1,0.1c-0.5,0.2-0.8,0.4-1.2,0.7c-0.2,0.1-0.3,0.3-0.5,0.4c-0.1,0-0.2,0.1-0.2,0.2
		c0,0,0,0.1-0.1,0.1c-0.1,0.1-0.3,0-0.5,0c-0.3,0-0.6,0.1-0.9,0.2c-0.2,0.1-0.5,0.1-0.7,0.2c-0.1,0.1-0.2,0.3-0.2,0.4
		c-0.1,0.2-0.3,0.4-0.4,0.6c-0.3,0.3-0.3,0.8-0.3,1.3c0,0.2,0,0.4,0,0.6c0,0.1,0,0.3,0,0.4c-0.1,0.1-0.2,0.2-0.3,0.3
		c-0.1,0.1-0.1,0.2-0.2,0.3c-0.1,0.2-0.2,0.3-0.2,0.6c0,0.1-0.1,0.4,0,0.6c0.1,0.2,0.6,0.2,0.8,0.2c0.4,0,0.9,0,1.3,0
		c0.2,0,0.5-0.1,0.7,0l-1.5,2.6l0.1,0.2c-0.1,0.1-0.2,0.3-0.3,0.4c-0.1,0.1-0.4,0.3-0.3,0.6c0,0.1,0.2,0.2,0.2,0.3
		c0.1,0.1,0.2,0.2,0.3,0.3c0.2,0.2,0.4,0.4,0.6,0.5c0.2,0.2,0.4,0.3,0.5,0.5c0.1,0.2,0.2,0.5,0.2,0.8c0.1,0.4-0.2,0.8-0.2,1.2
		c0,0.4,0.1,0.8,0,1.2c0,0.2-0.1,0.3-0.2,0.5c-0.1,0.2-0.2,0.5-0.2,0.7c0,0.2,0,0.4-0.1,0.6c-0.1,0.2-0.2,0.4-0.3,0.6
		c-0.1,0.4,0.3,0.7,0.3,1.1c0,0.3,0.1,0.6,0.1,1c0,0.4,0.1,0.7,0.2,1.1c0,0.2,0,0.4,0,0.6c0,0.1-0.1,0.1-0.2,0.2
		c-0.1,0.1,0,0-0.1,0.2c0,0.2,0,0.5,0,0.6c0,0.1,0.2,0.2,0.3,0.3c0.1,0.1,0.2,0.3,0.4,0.4c0.1,0.1,0.2,0.1,0.3,0.2
		c0.1,0.1,0.1,0.2,0.2,0.3c0.1,0,0.1,0.1,0.1,0.1l-1.9,3.2l0.6,1c-0.3,0.3-0.6,0.6-0.9,0.8c-0.1,0.1-0.2,0.2-0.2,0.2
		c-0.1,0.1-0.2,0.1-0.3,0.2c-0.4,0.3-0.9,0.8-1.3,1.1c-0.2,0.2-0.4,0.3-0.6,0.5c-0.1,0.1-0.3,0.2-0.3,0.3c-0.3,0.5-0.6,0.9-0.9,1.3
		c-0.3,0.3-0.4,0.7-0.6,1.1c-0.1,0.1-0.2,0.3-0.1,0.5c0.1,0.2,0.7,0.2,0.9,0.3c0.7,0.1,1.4,0,2,0.2c0.2,0.1,0.2,0.2,0.3,0.4
		c0.1,0.2,0.2,0.3,0.4,0.4c0.2,0.1,0.3,0.1,0.5,0.1c0,0,0,0,0,0.1c0,0.1-0.2,0.1-0.3,0.2c0,0-0.1,0-0.1,0.1l-4.2,0l-2.6,4.5
		c0,0,2.5,4.3,2.5,4.3c-0.2,0.5-0.3,0.8-0.3,1.2l-2,3.4l0,0l-5.1,0l-2.6,4.5l1.4,2.4c-0.1,0-0.2,0.1-0.3,0.2
		c-0.1,0.1-0.1,0.3-0.1,0.4c0,0.1-0.1,0.2-0.1,0.4c0,0.2,0,0.4-0.2,0.6c0,0.1,0,0.1,0,0.2c0,0.3-0.1,0.5-0.1,0.8
		c0,0.2,0,0.4,0.1,0.7c0.1,0.2,0.2,0.4,0.3,0.6c0,0.1,0.1,0.2,0.1,0.2c0,0,0,0.1,0.1,0.1l-1.1,1.9c0,0-0.1,0-0.1,0
		c-0.2,0.1-0.4,0-0.5,0.2c-0.1,0.4,0.2,0.7,0.3,1c0.3,0.7,0.3,1.3,0.9,1.9c0.4,0.4,1,0.8,1.6,1.1c1.1,0.4,2.4,0.6,3.6,0.7
		c2.1,0.2,4-0.6,6.1-0.7c0.2,0,0.5,0,0.7,0.1c0.5,0.1,0.9,0.2,1.4,0.3c0.1,0,0.2,0,0.3,0c0.1,0,0.2,0.1,0.3,0.1c0.7,0,1-0.6,1-1.2
		c0-0.4,0-0.7-0.2-1c-0.2-0.2-0.4-0.4-0.3-0.6c0.5-0.1,1-0.1,1.4-0.2c0,0,0.1,0,0.1,0c-0.6-1.4,1.3,0.6,2.7-0.2c0.4,0,0.8,0,1-0.1
		c0.7-0.3,1.4-0.7,2.1-0.9c0.7-0.2,0.6,0.6,0.6,1.1c0,0.5,0,0.9-0.1,1.4c-0.1,0.3-0.1,0.9,0.1,1.2c0.1,0.2,0.3,0.4,0.4,0.6
		c0.1,0.2,0.1,0.3,0.3,0.4c0.3,0.2,0.7,0.2,0.8,0.6c0.1,0.4-0.1,0.8,0.3,1.1c0.1,0.1,0.3,0.1,0.5,0.2c0.4,0.1,0.9,0.1,1.3,0.2
		c0.5,0,1.1,0.1,1.6,0.1c0.2,0,0.4,0,0.6,0c0.2,0.2,0.5,0.4,0.7,0.6c0.6,0.3,1.1,0.6,1.7,0.8c0.3,0.1,0.6,0.3,0.9,0.6
		c0.3,0.3,0.6,0.6,1.1,0.8c0.4,0.1,0.9,0.2,1.1,0.6c0.2,0.3,0.2,0.7,0,1.1c-0.1,0.2-0.3,0.4-0.3,0.6c-0.1,0.3,0,0.6,0,0.8
		c0,0.2,0,0.2,0.1,0.3c0,0,0.1,0.1,0.1,0.2l-0.5,0l-1.1,1.8c-0.1,0-0.1,0-0.2,0.1c-0.2,0.1-0.2,0.4-0.3,0.5
		c-0.1,0.2-0.2,0.4-0.4,0.5c-0.3,0.2-0.6,0.3-0.8,0.5c-0.3,0.2-0.4,0.5-0.4,0.8c-0.1,0.6,0.3,0.6,0.8,0.7c0,0,0.1,0,0.1,0l0.5,0.8
		c-0.4,0.2-0.9,0.5-1.3,0.8c-0.3,0.2-0.5,0.5-0.6,0.9c0,0.2,0,0.3,0.1,0.5c0.1,0.1,0.4,0.2,0.5,0.4c0.3,0.4-0.5,0.8-0.8,0.9
		c-0.8,0.4-1.9,1.5-2,2.4c-0.4-0.2-0.9-0.2-1.3-0.4c-0.6-0.4-0.7-1-1.5-0.7c-0.2,0-0.3,0.1-0.5,0c-0.2-0.1-0.5-0.1-0.7-0.2
		c-0.2-0.1-0.3-0.1-0.4-0.3c-0.1-0.1-0.2-0.2-0.3-0.3c-0.1-0.1-0.1-0.2-0.1-0.4c0-0.2,0-0.4-0.2-0.5c-0.4-0.1-0.8-0.3-1.2-0.3
		c-0.2,0-0.4,0-0.6,0c-0.2,0-0.5-0.1-0.6,0.1c-0.2,0.2-0.2,0.4-0.4,0.6c-0.2,0.2-0.3,0.4-0.5,0.6c-0.2,0.3-0.5,0.5-0.8,0.8
		c-0.3,0.3-0.3,0.6,0.1,0.8c0.4,0.2,0.7,0.3,1.1,0.5c0.3,0.1,0.5,0.4,0.5,0.6c0,0.8-0.2,1.8,0.8,1.9c0.5,0,1-0.2,1.4-0.5
		c0.3-0.2,0.6-0.3,0.8-0.6c0.2-0.2,0.4-0.3,0.6-0.4c0.7-0.5,2-1,3.6-0.9c0.6,0,2.1,1,2.1,1.7c0,0.5,0.5,0.5,0.9,0.5
		c0.2,0,0.3,0.1,0.4,0.1c0.1,0,0.2,0,0.4,0c0.1,0,0.3,0.1,0.4,0.1l0.6,1c0,0,0,0.1,0,0.1c0,0.1,0.1,0.2,0.2,0.3l1.1,1.9l1.9,0
		c0.2,0.2,0.4,0.4,0.7,0.3c0.2,0,0.5-0.2,0.7-0.2c0.3-0.1,0.6-0.1,0.9-0.1c0.5,0,0.8,0,1.2,0.3c0.1,0.1,0.3,0.3,0.4,0.4
		c0.2,0.1,0.5,0,0.7,0c0.5,0,0.9,0,1.3,0.2c0.2,0.1,0.4,0.1,0.6,0.2c0.2,0.1,0.4,0,0.6,0.1c0.4,0.1,0.3,0.5,0.6,0.7
		c0.1,0.1,0.3,0.3,0.4,0.4c0.2,0.1,0.4,0.3,0.6,0.4c0.4,0.2,0.7,0.2,1.1,0c0.3-0.2,0.5-0.4,0.8-0.5c0.2-0.1,0.4-0.1,0.6-0.2
		c0.7-0.1,1.4,0.3,1.7,0.9c0.1,0.3,0.2,0.7,0.4,0.9c0.3,0.3,0.6,0.7,0.8,1.1c0.1,0.3,0.2,0.4,0.5,0.5c0.1,0,0.2,0.1,0.3,0.1
		c0.1,0,0.3,0,0.4,0c0.1,0,0.3,0,0.5,0.1c0.1,0,0.3,0.1,0.4,0.2c0.2,0.1,0.2,0.4,0.4,0.5c0.2,0.2,0.4,0.4,0.6,0.6
		c0.2,0.2,0.3,0.4,0.5,0.5c0.3,0.1,0.6-0.1,0.8-0.3c0.2-0.2,0.4-0.4,0.6-0.5c0.2-0.1,0.4-0.2,0.6-0.4c0.2-0.2,0.3-0.4,0.3-0.6
		c0.1-0.2,0.2-0.5,0.2-0.7c0-0.2-0.2-0.3-0.4-0.4c-0.3-0.2-0.9-0.3-1.2-0.5c-0.3-0.2-0.6-0.4-0.8-0.6c-0.4-0.5-0.5-1.3-0.3-1.9
		c0.1-0.5,0.2-1,0.3-1.5c0-0.3,0.3-1.1,0-1.3c-0.3-0.3-0.8-0.2-1.2-0.3c-0.4-0.1-0.8-0.2-1.2-0.2c-0.1-0.2,0-0.4,0.1-0.6
		c0.1-0.2,0.3-0.5,0.3-0.7c0-0.2-0.3-0.3-0.5-0.5c-0.1-0.1-0.2-0.1-0.2-0.2c-0.1-0.1-0.2-0.1-0.3-0.3c-0.1-0.1-0.2-0.1-0.2-0.2
		c-0.1-0.1-0.1-0.2-0.1-0.3c0-0.2,0-0.4,0.2-0.4c0.2,0,0.7,0,0.9,0c0.2,0.1,0.4,0.3,0.6,0.3c0.1-0.2,0-0.5,0-0.7v-1
		c0-0.2,0-0.4,0.1-0.6c0.1-0.2,0.2-0.3,0.4-0.3c0.3-0.1,0.6-0.1,1-0.1c0.2,0,0.4,0,0.6,0c0.3-0.1,0.4-0.4,0.6-0.7
		c0.1-0.2,0.3-0.5,0.3-0.8c0-0.1-0.1-0.1-0.1-0.2c0.8-0.5,1.5-0.9,1.5-0.9c0.1-0.2,0.3-0.4,0.4-0.6c0.1-0.2,0.3-0.2,0.5-0.2
		c0.3-0.1,0.6-0.1,0.9-0.1c0.3-0.1,0.5,0,0.7-0.1c0.4-0.1,0.8-0.1,1.2-0.1c0.3,0,0.5-0.1,0.8-0.1c0.3,0,0.4,0,0.7-0.1
		c0.3-0.1,0.9-0.3,1.2,0c0.2,0.2,0.2,0.5,0.2,0.7c0,0.2,0.1,0.5,0.1,0.7c-0.1,0.3-0.4,0.5-0.6,0.8c-0.1,0.2-0.1,0.4-0.2,0.6
		c0,0.2,0,0.3,0.2,0.4c0.2,0.2,0.4,0.4,0.6,0.6c0.1,0.1,0.1,0.1,0.2,0.2l-0.7,1.2c-0.4,0-0.9,0.1-1.3-0.1c-0.3-0.1-0.6-0.3-0.9-0.4
		c-0.5-0.2-0.7-0.1-1.1,0.2c-0.2,0.2-0.3,0.4-0.4,0.6c0,0.2,0,0.4,0,0.6c0,0.2,0,0.4,0.1,0.6c0,0.1,0.1,0.1,0.1,0.2
		c0.1,0.1,0.2,0.2,0.2,0.3c0.2,0.2,0,0.3-0.2,0.3c-0.2,0.1-0.2,0.1-0.4,0.1c-0.2,0-0.4,0-0.6-0.1c-0.1,0-0.2-0.1-0.4-0.1
		c-0.1,0-0.2-0.1-0.3-0.1c-0.1,0-0.3-0.1-0.4,0.1c-0.1,0.1-0.1,0.6-0.1,0.7c0,0.1,0,0.4,0,0.5c0.1,0.2,0.5,0.3,0.7,0.4
		c0.2,0.1,0.4,0.2,0.6,0.4c0.2,0.1,0.3,0.2,0.3,0.4c0,0.2,0,0.4,0,0.6c0,0.2-0.1,0.4-0.1,0.6c0,0.4,0,0.8,0.2,1.1
		c0.1,0.2,0.1,0.3,0.2,0.4c0.2,0.1,0.4,0.2,0.7,0.3c0.2,0.1,0.4,0.1,0.6,0.2l-0.2,0.3c0,0.3,0.9,0.3,1.1,0.3c0.3,0,0.5,0.1,0.8,0.1
		c0.2,0.1,0.4,0.2,0.6,0.2c0.2,0,0.5,0,0.5,0.2c0,0.1,0,0.2,0,0.3c-0.1,0.1-0.2,0.3-0.3,0.4c-0.2,0.2-0.5,0.5-0.6,0.8
		c-0.1,0.2-0.1,0.4-0.1,0.6c0,0.2-0.1,0.3,0.2,0.3c0.2,0,0.4,0,0.6,0c0.1,0,0.1,0,0.1-0.1c0.2,0,0.4,0.1,0.5,0.2
		c0.4-0.3,0.8-0.4,1.2-0.6c0.2-0.1,0.4-0.2,0.6-0.3c0.1,0,0.2,0,0.2-0.1c0.1,0,0.1-0.1,0.2-0.2c0.6,0.2,1.2,0,1.7,0.2
		c0.2,0.1,0.4,0.2,0.6,0.4c0.1,0.2,0.2,0.5,0.2,0.7c0.1,0.4,0.2,0.8,0.4,1.1c0.3,0.4,0.6,0.6,1,0.9c0.3,0.2,0.6,0.5,0.8,0.8
		c0.1,0.1,0.3,0.3,0.4,0.3c0.3,0.1,0.5-0.4,0.5-0.6c0.1-0.3,0.1-0.7,0.1-1c0-0.3,0-0.6,0-0.8c0-0.1,0.1-0.2,0.1-0.3
		c0-0.1,0-0.2,0-0.3c0-0.2,0.1-0.4,0.1-0.6c0-0.3,0.1-0.7,0-1c0-0.2-0.2-0.3-0.3-0.5c-0.1-0.2-0.2-0.4-0.3-0.6
		c-0.1-0.4-0.1-0.9-0.3-1.3c-0.2-0.4-0.5-0.8-0.5-1.3c0-0.1,0-0.3,0-0.4c0-0.2,0-0.4,0.1-0.5c0-0.2,0-0.3,0.1-0.4
		c0.1-0.2,0.2-0.3,0.3-0.5c0-0.1,0.1-0.2,0.1-0.2c0,0,0.1-0.1,0.1-0.1c0.1-0.1,0-0.6,0-0.8c0,0,0-0.1,0-0.1l1.2-2l-0.6-1.1
		c0.2-0.1,0.4-0.1,0.6-0.2c0.4-0.1,0.7-0.3,1.1-0.4c0.4-0.2,0.7-0.3,1.1-0.4c0.3-0.1,0.6-0.1,0.9-0.1c0.1,0,0.2,0,0.3,0
		c0.1,0,0.2,0.1,0.2,0.1c0.2,0,0.4,0,0.6,0.1c0.2,0.1,0.4,0.2,0.6,0.2c0.4,0.2,0.7,0.4,1.1,0.7c0,0,0,0,0.1,0l-0.8,1.3l2.6,4.5
		l5.2,0l0.3-0.5c0.2,0,0.4,0,0.5-0.1c0.4-0.1,0.9-0.2,1.3-0.3c0.2,0,0.4,0,0.5-0.1c0.1,0,0.1-0.1,0.2-0.1c0.1,0,0.2,0,0.2,0
		c0.4,0,0.8,0.1,1.1,0.2c0.1,0,0.3,0.1,0.4,0.1c0.1,0,0.1,0,0.2-0.1c0.1,0.1,0.1,0.1,0.2,0.2c0.2,0.1,0.4,0.1,0.6,0.1
		c0.2,0,0.3-0.1,0.5-0.2c0.2-0.1,0.4-0.3,0.6-0.3c0.2,0,0.3,0,0.5,0.1c0.1,0.1,0.1,0.2,0.2,0.2c0.1,0.1,0.1,0.1,0.2,0.2
		c0.1,0.3,0.2,0.5,0.4,0.8c0.1,0.2,0.2,0.3,0.3,0.5c0.1,0.1,0.1,0.2,0.2,0.3c0.2,0.2,0.4,0.3,0.5,0.5l-1.5,2.6l2.6,4.5l5.2,0
		c0,0,0,0,0,0c0,0.1-0.1,0.2-0.1,0.2c0,0.2,0,0.1,0.1,0.2c0.1,0,0.1,0,0.2,0c0,0,0,0,0,0c-0.1,0.2-0.1,0.4,0,0.6
		c1.1,0.4,2.2-0.1,2.1-1.5c4.5-0.8,5.3,3.9,9.2,4.8c1.2,0.3,2.7,0,3.8,0.7c1.2,0.8,0.9,3.1,2.6,2c1.2-0.8,0.9-3.1,0.9-4.3
		c-0.1-3-0.3-2.5,2.4-4.2c2.7-1.7,3.8-3.7,5.8-5.8c0.5-0.5,1.8-0.8,2-1.5c0.4-1.3-1.1-2.2-1.1-3.5c0-0.2,0.1-0.3,0.1-0.5
		c0-0.2,0-0.3,0-0.5c0-0.1,0-0.2,0-0.3c0-0.1-0.1,0-0.2-0.1c-0.3-0.2-0.5-0.4-0.6-0.6c-0.2-0.3-0.4-0.4-0.7-0.6
		c-0.4-0.2-0.9-0.3-1.3-0.6c-0.2-0.1-0.3-0.2-0.3-0.4c0-0.2,0-0.4,0-0.6c0.4-0.1,0.8,0,1.2,0.1c0.5,0.1,1.1,0.3,1.6,0.3
		c0.3,0,0.5,0,0.8,0.1c0.1,0,0.2,0.1,0.3,0.1c0.2,0,0.3,0.1,0.4,0.1c0.1,0,0.3,0,0.4,0c0.2,0,0.4,0.1,0.6,0.1
		c0.3,0.1,0.5,0.1,0.8,0.1c0.3,0,0.4-0.3,0.4-0.6c0-0.2-0.1-0.3-0.2-0.5c-0.1-0.1-0.3-0.3-0.3-0.5c0-0.1,0-0.2,0-0.3
		c0-0.1-0.1-0.2-0.1-0.4c0,0,0-0.1,0-0.1l2.6-4.5l-0.4-0.7c0,0,0,0,0.1-0.1c0.1-0.1,0.2-0.1,0.3-0.2c0.2-0.1,0.4-0.1,0.7-0.1
		c0.3,0,0.7,0.1,1,0.1c0.3,0,0.5,0,0.8,0c0.3,0,0.3-0.1,0.5-0.2c0.2-0.2,0.2-0.2,0.2-0.4c0-0.2,0-0.3-0.2-0.5
		c-0.2-0.1-0.3-0.2-0.4-0.4c-0.2-0.2-0.2-0.3-0.2-0.5c0-0.2-0.1-0.4-0.1-0.7c0-0.2,0.1-0.5,0-0.7c-0.1-0.2-0.2-0.3-0.3-0.4
		c-0.1-0.1-0.2-0.4-0.2-0.5c-0.1-0.1-0.1-0.2-0.2-0.3c-0.1-0.2-0.2-0.8,0.1-0.9c0.2-0.1,0.5,0,0.7,0c0.2,0,0.3,0,0.5,0
		c0.4-0.1,1.1-0.4,1.2-0.8c0-0.1,0-0.2,0-0.2c0-0.1,0-0.2,0.1-0.3c0-0.1,0.1-0.4,0-0.5c-0.1-0.2-0.2-0.2-0.3-0.4
		c-0.1-0.1-0.1-0.2-0.1-0.3l1.2,0l1.1-1.8c0.3,0,0.7,0.1,0.9,0.1c0.2,0,0.5,0.1,0.6,0.1c0.1,0,0.2-0.2,0.2-0.3
		c0.1-0.2,0.3-0.3,0.5-0.5c0.1-0.2,0.2-0.3,0.3-0.5c0.1-0.2,0.1-0.3,0.2-0.5c0-0.1,0.1-0.2,0.2-0.3c0-0.1,0-0.2,0.1-0.2
		c0.1-0.1,0.2-0.2,0.4-0.3l3.1,0l1.8-3c0,0,0.1,0.1,0.1,0.1c0.2,0.1,0.4,0.2,0.6,0.4c0.1,0.2,0.2,0.3,0.3,0.5
		c0.5,0.4,1.2,0.1,1.8,0.2c0.5,0.1,0.7,0.5,0.9,1c0.2,0.6,0.7,1.1,1.3,1.3c0.2,0.1,0.5,0.2,0.8,0.2c0.2,0,0.5,0,0.6-0.1
		c0.1-0.1,0.1-0.4,0.2-0.5c0.1-0.3,0.3-0.2,0.5-0.3c0.1,0,0.3-0.1,0.4-0.1c0.1,0,0.3,0,0.4,0c0.1,0,0.1-0.1,0.2-0.1c0,0,0,0,0.1,0
		l0.2,0.4l2,0c0.1,0,0.2,0.1,0.2,0.1c0.1,0,0.2,0.2,0.3,0.2c0-0.1,0-0.2,0-0.3l2.7,0l2.6-4.5l-1-1.8c0.2,0.1,0.5,0.1,0.7,0.1
		c0.3,0,0.6,0,1,0c0.3,0.1,0.4,0.2,0.6,0.5c0.2,0.3,0.6,0.5,0.9,0.6c0.4,0.3,1,0.3,1.4,0.7c0.1,0.1,0.2,0.2,0.3,0.4
		c0.1,0.1,0.1,0.2,0.1,0.4c0.1,0.1,0.1,0.2,0.1,0.3c0.1,0.2,0.2,0.4,0.3,0.5c0.5,0.3,1.1,0.3,1.6,0.4c0,0,0.1,0,0.2,0l1.4,2.4l5.2,0
		l1.5-2.6c0.1,0,0.2,0.1,0.3,0.1c0.2,0.1,0.5,0.1,0.6,0.3c0.1,0.1,0.1,0.2,0.1,0.4c0.1,0.2,0.2,0.3,0.4,0.4c0.2,0.1,0.4,0.1,0.6,0.2
		c0.3,0.1,0.6,0.2,1,0.3c0.5,0.2,1,0.3,1.5,0.6c0.2,0.1,0.5,0.2,0.8,0.2c0.4,0,0.8,0,1.3,0c0.4,0,1-0.1,1.2,0.2
		c0.1,0.2,0.2,0.3,0.2,0.5c0.1,0.2,0.1,0.3,0.3,0.3c0.7,0.1,1.5-0.2,2.3-0.3c0.2-0.1,0.5-0.1,0.7-0.3c0,0,0.1-0.1,0.1-0.1l2.6,0
		l0.7-1.2c0.1,0,0.2,0,0.2-0.1c0.1-0.1,0.2-0.4,0.2-0.6l1.2-2.1c0.4-0.1,0.8,0,1.2,0c0.2,0,0.4,0,0.5,0.1c0.1,0.1,0.1,0.2,0.2,0.3
		c0.1,0.1,0.2,0.3,0.3,0.4c0.1,0.1,0.1,0.1,0.2,0c0.1-0.1,0.2-0.1,0.3-0.1c0.1,0,0.3-0.1,0.4-0.2c0,0,0.1,0,0.1-0.1
		c0.6,0.4,1.2,0.7,1.8,0.8c0.3,0,0.6,0.1,1,0.1c0.2,0,0.5,0,0.8,0c0.5,0,1,0.1,1.5,0.1c0.4,0,0.8,0,1.1,0.2c0.1,0,0.2,0.2,0.3,0.2
		c0.1-0.1,0-0.4,0-0.6c0-0.2-0.1-0.3-0.1-0.5c0.3-0.6,1-1.1,0.9-1.9c0-0.5-0.3-0.9-0.5-1.4c0,0,0-0.1,0-0.1c0-0.3-0.1-0.5-0.3-0.7
		c-0.1-0.1-0.3-0.2-0.3-0.4c-0.1-0.2,0-0.5,0-0.7c0-0.4,0.1-0.6,0.2-1c0.1-0.2,0.2-0.3,0.3-0.5c0.1-0.3,0.3-0.6,0.4-0.8
		c0.1-0.2,0.2-0.2,0.2-0.4c0-0.2,0-0.4,0-0.6c0-0.2,0-0.4,0-0.6c0-0.2-0.1-0.1-0.2-0.3c-0.2-0.2-0.3-0.4-0.3-0.7
		c0-0.3-0.2-0.4-0.5-0.6c-0.2-0.1-0.4-0.3-0.6-0.5c-0.2-0.3-0.3-0.5-0.5-0.8c-0.1-0.1-0.5-0.5-0.4-0.7c0.3-0.1,0.6-0.1,1-0.3
		c0.2-0.1,0.5-0.2,0.7-0.3c0.3-0.1,0.5-0.5,0.7-0.7c1.1-0.2,2.1,0.2,3,1.1c0.4,0.4,0.7,0.7,1.1,0.9l0.9,1.6l3.7,0
		c0.4,0.2,0.7,0.5,1.2,0.9c0.6,0.6,1.2,1.2,1.8,1.7l1.1,2l2.2,0c0.5,0.2,1,0.5,1.4,0.8c0.5,0.4,0.8,0.8,1.2,1.2c0,0.1,0,0.2,0.1,0.2
		c0,0.1,0.1,0.1,0.2,0.2c0.1,0.1,0.1,0.2,0.2,0.3c0.2,0.3,0.3,0.5,0.6,0.6c0.5,0.2,1.1,0.4,1.6,0.4l0.2,0.4l3.2,0
		c0.2,0.1,0.4,0.1,0.6,0.2c0.2,0,0.3,0.1,0.5,0.1c0.2,0.1,0.4,0.2,0.6,0.4c0.5,0.4,0.9,0.8,1.3,1.3l1.5,2.6l0.4,0
		c0,0.1,0,0.2,0.1,0.2c0.1,0.1,0.3,0.1,0.5,0.1c0.5,0,0.9,0.1,1.4,0.2c0.3,0,0.7,0,1.1,0c0.4,0,0.7-0.3,0.9-0.5l0.9,0l0.4-0.7
		c0.2,0,0.3-0.1,0.5-0.1c0.1,0,0.2,0,0.2,0c0.1,0,0.2-0.1,0.3-0.1c0.2,0,0.2,0,0.4-0.1c0.2-0.1,0.5-0.1,0.8-0.2c0,0,0,0,0.1,0
		c0.1,0,0.1,0,0.2,0c0.9,0.2,1.1,0.7,1,1.7c0,0,0,0.1,0,0.1c0,0.1-0.1,0.2-0.1,0.3c-0.3,0.7-0.7,1.3-0.7,2c-0.1,0.4,0,1,0.2,1.4
		l-1.2,0l-2.6,4.5l2.6,4.5l0.6,0c0.2,0.4,0.4,0.7,0.3,1.1c0,0.3-0.2,0.4-0.3,0.7c0,0.2,0,0.2-0.1,0.4c-0.2,0.4-0.5,0.8-0.6,1.3
		c0,0.2,0,0.5,0,0.7c0,0.2,0.1,0.4,0.2,0.6c0.1,0.2,0.1,0.4,0.2,0.5c0.1,0.1,0.3,0.1,0.5,0.1c0.4,0,0.7,0,1-0.2
		c0.2-0.1,0.3-0.3,0.5-0.5c0.2-0.3,0.3-0.6,0.5-0.9c0.1-0.2,0.2-0.4,0.3-0.6c0.1-0.2,0.2-0.3,0.4-0.3c0.3,0,0.5,0,0.8,0.2
		c0.4,0.2,0.8,0.3,1.2,0.6c0.2,0.1,0.3,0.3,0.4,0.5c0.1,0.1,0.1,0.3,0.2,0.4c0.1,0.2,0.1,0.2,0.3,0.2c0.3,0,0.6,0,0.9,0
		c0.4,0,0.8-0.2,1.3-0.2c0.2,0,0.3,0,0.3-0.2c0-0.2,0-0.4,0.1-0.7c0.1-0.3,0.2-0.6,0.4-0.8c0.1-0.1,0.3-0.3,0.4-0.4
		c0.2-0.1,0.3-0.1,0.5-0.2c0.5-0.1,1.1-0.1,1.4-0.6c0.3-0.5,0.2-1.2,0.2-1.7c0-0.4-0.1-0.6-0.3-1c-0.1-0.1-0.2-0.3-0.3-0.4
		c0-0.1-0.1-0.2-0.1-0.3c0-0.1-0.1-0.2-0.1-0.2c-0.1-0.2-0.1-0.5-0.1-0.7c0-0.3,0.1-0.5,0.3-0.8c0.4-0.4,0.6-1,1-1.3
		c0.1-0.1,0.1,0,0.2-0.1c0.1-0.1,0.1-0.2,0.1-0.3c0.1-0.3,0.2-0.6,0.2-0.9c0-0.2,0-0.5,0-0.7c0-0.3,0.1-0.6,0.1-0.9
		c0-0.5,0-1.1,0-1.6c0-0.3-0.1-0.5-0.2-0.7c-0.1-0.3-0.2-0.6-0.3-0.9c-0.2-0.6-0.4-1.2-0.5-1.8c-0.1-0.3-0.1-0.5-0.1-0.8
		c0-0.1,0-0.2,0-0.3c0-0.2,0.1-0.2,0.2-0.3c0.1-0.1,0.2-0.2,0.2-0.3c0.1-0.1,0.2-0.3,0.3-0.4c0.1-0.1,0.2-0.3,0.3-0.4
		c0.1-0.1,0.1-0.2,0.2-0.3c0.2-0.3,0.4-0.5,0.5-0.8c0.2-0.3,0.3-0.7,0.3-1c0-0.2,0-0.5-0.1-0.7c-0.1-0.3-0.4-0.5-0.7-0.7
		c-0.5-0.4-1-0.9-1.2-1.4c-0.1-0.3-0.2-0.5-0.3-0.7c-0.1-0.3-0.2-0.5-0.3-0.8c-0.1-0.4-0.3-0.8-0.6-1.1c-0.2-0.3-0.4-0.5-0.7-0.8
		c-0.3-0.5-0.5-1-0.8-1.5c-0.1-0.2-0.2-0.2-0.3-0.3c-0.2-0.1-0.3-0.2-0.4-0.4c-0.1-0.1-0.2-0.3-0.3-0.4c-0.1-0.2-0.2-0.5-0.2-0.7
		c0-0.3-0.1-0.5-0.2-0.8c-0.1-0.2,0-0.3-0.1-0.5c0-0.1,0-0.2-0.1-0.3c0-0.1,0-0.2,0-0.2c0-0.2-0.2-0.3-0.3-0.4
		c-0.2-0.3-0.5-0.6-0.7-0.8c-0.3-0.4-0.3-0.7-0.3-1.2c0-0.2,0-0.3-0.1-0.5c-0.1-0.1-0.2-0.2-0.3-0.3c-0.4-0.4-0.7-0.9-1-1.3
		c-0.4-0.5-0.9-1-1.1-1.7c0.8-0.2,1.9-0.4,1.9-0.2c0.1,0.5,0.8,1.7,1.2,2.1c0.4,0.4,0.9,0.6,1.2,1.1c0.1,0.3,0.1,0.8,0.1,1.1
		c0,0.2,0,0.4,0.1,0.5c0.2,0.2,0.5,0.4,0.7,0.6c0.3,0.2,0.5,0.5,0.7,0.7c0.2,0.2,0.4,0.4,0.6,0.6c0.1,0.1,0.2,0.3,0.3,0.4
		c0.1,0.1,0.3,0.2,0.4,0.3c0.2,0.2,0.4,0.4,0.6,0.6c0.2,0.3,0.5,0.7,0.6,1c0.1,0.4,0.2,0.8,0.3,1.1c0.1,0.3,0.4,0.7,0.6,1
		c0.1,0.2,0.3,0.3,0.4,0.5c0.2,0.3,0.4,0.5,0.5,0.8c0.1,0.1,0.2,0.3,0.3,0.5c0,0.1,0,0.2,0.1,0.3c0,0.1,0.1,0.1,0.1,0.2
		c0,0.1,0,0.3,0,0.5c0,0.1,0,0.2,0,0.2c0,0.1-0.1,0.2-0.1,0.3c-0.1,0.3-0.1,0.9,0.1,1.1c0.1,0.3,0.2,0.4,0.5,0.6
		c0.2,0.2,0.4,0.4,0.6,0.5c0.1,0.1,0.3,0.2,0.4,0.4c0.1,0.1,0.1,0.2,0.3,0.3c0.1,0.1,0.2,0.1,0.2,0.2c0.1,0.1,0.3,0.3,0.4,0.5
		c0,0.1,0,0.2,0,0.2c0,0.1,0.1,0.2,0.2,0.3c0.2,0.4,0.5,0.9,0.8,1.2c0.2,0.2,0.3,0.4,0.5,0.5c0.2,0.2,0.3,0.3,0.4,0.6
		c0.1,0.4,0.2,0.7,0.2,1.1c0,0.2,0,0.5,0,0.7c0,0.1,0,0.2,0,0.2c0,0.2,0.1,0.2,0.2,0.3c0.3,0.4,0.6,0.7,0.9,1
		c0.2,0.1,0.4,0.3,0.5,0.4c0.2,0.1,0.3,0.3,0.5,0.5c0.1,0.1,0.2,0.2,0.2,0.3c0.1,0.1,0.1,0.3,0.2,0.4c0-0.1,0-0.2,0-0.3
		c0-0.2,0.1-0.5,0.1-0.7c0-0.2,0.1-0.4,0.1-0.6c0-0.2,0-0.4,0-0.6c0.1-0.3,0.1-0.2,0.4-0.2c0.3,0,0.5,0,0.8,0.1
		c0.3,0.1,0.6,0.2,0.9,0.3c0.2,0.1,0.4,0.2,0.5,0.3c0.3,0.3,0.4,0.7,0.5,1.1c0.1,0,0.1-0.7,0.1-0.8c0-0.4-0.1-0.6-0.3-0.9
		c-0.3-0.4-0.5-1-0.7-1.4c-0.1-0.2-0.3-0.4-0.5-0.6c-0.3-0.3-0.6-0.5-1-0.7c-0.3-0.2-0.7-0.4-1-0.6c-0.3-0.2-0.6-0.3-0.8-0.5
		c-0.1-0.1-0.2-0.3-0.3-0.4c-0.1-0.1-0.2-0.2-0.3-0.3c-0.2-0.2-0.4-0.4-0.6-0.6c-0.1-0.2-0.3-0.4-0.4-0.6c-0.1-0.3,0-0.6-0.1-0.9
		c-0.1-0.2-0.1-0.4-0.1-0.6c0-0.3-0.1-0.5-0.1-0.7c0-0.4-0.3-0.8-0.4-1.2c-0.1-0.1-0.1-0.3-0.2-0.4c-0.1-0.1-0.2-0.2-0.2-0.4
		c0.3-0.2,0.6-0.2,0.9-0.2c0.6,0,1.1,0.3,1.7,0.6c0.4,0.2,0.9,0.4,1.3,0.7c0.2,0.1,0.5,0.6,0.8,0.5c0-0.2-0.2-0.5-0.4-0.6
		c-0.3-0.3-0.5-0.5-0.7-0.8c-0.5-0.7-1.6-1-2.3-1.4c-1-0.6-2-1.2-2.6-2.3c-0.2-0.4-0.3-0.7-0.5-1.1c-0.1-0.4-0.2-0.8-0.4-1.1
		c-0.1-0.2-0.2-0.3-0.3-0.5c-0.2-0.2-0.3-0.3-0.5-0.5c0-0.1-0.1-0.2-0.2-0.2c-0.1-0.1-0.2-0.2-0.3-0.3c-0.2-0.2-0.4-0.5-0.6-0.7
		c-0.1-0.1-0.3-0.3-0.4-0.4c-0.1-0.1-0.3-0.1-0.5-0.2c-0.2-0.1-0.4-0.3-0.6-0.4c-0.3-0.2-0.6-0.4-0.8-0.6c-0.4-0.3-0.6-0.8-0.8-1.2
		c-0.1-0.2-0.2-0.3-0.2-0.5c0-0.2,0-0.4,0-0.5c0-0.3,0-0.6-0.1-0.9c-0.1-0.1-0.1-0.3-0.2-0.4c-0.1-0.1-0.2-0.1-0.2-0.1
		c-0.1-0.1-0.2-0.1-0.2-0.2c-0.2-0.2-0.5-0.3-0.8-0.5c-0.1-0.1-0.4-0.2-0.5-0.3c-0.1-0.1,0.4-0.1,0.4-0.2c-0.2,0-0.3-0.2-0.4-0.3
		c-0.2-0.1-0.3-0.2-0.4-0.4c-0.2-0.3-0.3-0.5-0.5-0.8c-0.2-0.3-0.5-0.6-0.8-0.8c-0.5-0.5-0.9-0.9-1.5-1.2c-0.5-0.2-0.8-0.7-1.3-0.9
		c-0.1-0.1-0.3-0.2-0.5-0.1c-0.1,0.1,0,0.4,0,0.5c0,0.2,0,0.4,0.1,0.6c0.2,0.5,0.8,0.8,1.2,1c0.6,0.3,1.2,0.6,1.8,1
		c0.3,0.2,0.6,0.4,0.9,0.6c0.2,0.1,0.4,0.2,0.5,0.4c0.1,0.1,0.1,0.3,0.1,0.5c-0.1,0.1-0.1,0.1-0.2,0.2c-0.1,0.1-0.2,0.1-0.4,0.2
		c-0.3,0.1-2.4,0.3-3.6,0.6c0.1,0-0.1-0.3-0.4-0.7l0-0.1c0-0.1-0.1-0.2-0.1-0.3c-0.1-0.2-0.1-0.4-0.3-0.6c-0.2-0.2-0.5-0.3-0.7-0.3
		c-0.2-0.1-0.4-0.1-0.5-0.1c-0.6-0.2-1.3-0.3-1.9-0.7c-0.7-0.5-1-1.4-1.7-1.9c-1.5-1.2-6.1-0.7-6.7-2.7c-0.3-0.9-0.5-2.7-0.4-3.5
		l1.7-2.9l-0.5-0.8c0-0.1,0-0.1,0.1-0.2c0.1-0.5,0.2-1,0.4-1.4c0.2-0.5,0.4-0.9,0.5-1.5c0.2-0.8,0.1-1.7,0.1-2.6c0-0.2,0-0.4,0-0.7
		c0.1-0.3,0.2-0.6,0.3-0.9c0-0.2,0-0.4,0.1-0.6l3.5,0c0,0.1,0.1,0.2,0.1,0.3c0.2,0.1,0.4-0.2,0.6-0.3c0.3-0.2,0.6-0.3,1-0.4
		c0.7-0.1,1.3-0.1,2-0.1c0.2,0,0.3,0,0.4,0.1c0.2,0.1,0.4,0.2,0.6,0.2c0.4,0,0.6-0.1,0.9-0.3c0.6-0.2,1.2-0.1,1.8-0.1
		c0.1,0,0.3,0,0.4-0.1c0.1-0.1,0.1-0.3,0.1-0.5c0-0.2,0.1-0.4,0.1-0.6c0-0.2-0.1-0.4,0.1-0.5c0.1-0.1,0.4-0.1,0.6-0.2
		c0.1,0,0.1,0,0.2,0l1.6,2.7l5.2,0l1.6-2.7c0.3,0,0.6,0,0.9,0c0.3-0.1,0.6-0.1,0.9-0.1c0.2,0,0.5,0,0.7-0.1c0-0.2-0.1-0.2-0.2-0.3
		c-0.1-0.1-0.1-0.2-0.2-0.2c0,0-0.1-0.1-0.1-0.1c-0.1-0.1-0.1-0.1-0.1-0.2c-0.1-0.1-0.1-0.1-0.2-0.2c-0.1-0.1-0.2-0.2-0.3-0.3
		c-0.1-0.1-0.2-0.1-0.2-0.2l0.1-0.1l-2.3-4c0-0.2,0-0.4,0-0.6c0-0.1-0.1-0.2-0.1-0.2c0-0.1,0-0.2,0-0.3c0-0.3,0-0.5,0-0.8
		c0-0.2-0.1-0.4-0.1-0.6c0-0.4,0-0.9,0.1-1.4c0.2-0.4,0.4-0.9,0.8-1.2c0.2-0.2,0.4-0.2,0.6-0.4c0.3-0.2,0.5-0.3,0.8-0.3
		c0.2,0,0.4,0,0.7,0c0.3,0,0.5,0.1,0.7,0.1c0.2,0,0.5,0.1,0.7,0.1c0.3,0,0.5,0.1,0.8,0.2c0.2,0.1,0.4,0.1,0.3,0.4
		c0,0.1-0.2,0.2-0.2,0.3c-0.1,0.1-0.2,0.3-0.2,0.4c-0.1,0.4,0,0.9,0.3,1.1c0.1,0.1,0.3,0.2,0.4,0.3c0.2,0.1,0.3,0.2,0.4,0.3
		c0.5,0.4,1.1,0.9,1.8,0.9c0.2,0,0.4,0,0.5-0.2c0-0.1,0-0.2,0-0.2c0-0.1,0.1-0.2,0.1-0.2c0.1-0.1,0.2-0.2,0.3-0.3
		c0.2-0.1,0.3-0.3,0.4-0.4c0.2-0.2,0.4-0.5,0.6-0.8c0.1-0.2,0.4-0.5,0.4-0.7c0-0.1,0-0.3,0-0.4c0-0.1,0-0.3,0-0.4
		c0-0.1-0.1-0.2-0.2-0.3c0.1-0.3,0.1-0.6,0.3-0.8c0.5-0.5,1.5-0.6,2.3-0.6c0,0,0.1,0,0.1,0.1c0.2,0.1,0.3,0.2,0.4,0.5
		c0.1,0.2,0.2,0.4,0.4,0.6c0.2,0.1,0.2,0.2,0.2,0.4c0,0.3,0,0.5,0.1,0.8c0,0.2,0.1,0.3,0.1,0.4c-0.3,0.6-0.7,1.1-0.9,1.5
		c0,0.1-0.1,0.2-0.1,0.2c-0.1,0-0.2,0.1-0.4,0.1c-0.2,0.1-0.4,0.1-0.5,0.2c-0.3,0.1-0.3,0.3-0.1,0.5c0.1,0.2,0.4,0.3,0.5,0.4
		c0,0,0,0.1,0.1,0.1c-0.6,2.6,0.5,5.6,0.4,8.3c0,0.1,0,0.3,0,0.4c0,0.3,0,0.6-0.1,0.9c-0.1,0.3-0.2,0.6-0.5,1c-0.4,0-0.8,0-1.1,0
		c-0.1,0-0.5,0-0.5,0.1c-0.1,0.1,0,0.1,0,0.2c0,0.2-0.1,0.4,0,0.6c0.1,0.2,0.2,0.3,0.4,0.4c0.1,0.1,0.2,0.2,0.2,0.3
		c-0.2,0.4-0.2,0.9,0.1,1.4c0,0,0,0.1,0.1,0.1c-0.1,0.2-0.1,0.3-0.2,0.5c-0.1,0.3-0.2,0.9,0.1,1.1c0.2,0.1,0.4,0.2,0.6,0.3
		c0.4,0.1,0.7,0,1.1,0.2c0.3,0.1,0.5,0.6,0.6,0.9c0.1,0.4,0,0.9,0.2,1.3c0.1,0.2,0.2,0.3,0.3,0.5c0.1,0.2,0.2,0.4,0.3,0.6
		c0.1,0.2,0.2,0.3,0.3,0.5c0.1,0.1,0.2,0.3,0.4,0.5c0.1,0.1,0.2,0.1,0.2,0.2c0.1,0.1,0.1,0.2,0.2,0.3c0.1,0.1,0.1,0.2,0.2,0.3
		c0.1,0.1,0.2,0.1,0.3,0.2c0.1,0.1,0.1,0.2,0.2,0.2c0.1,0.1,0.2,0.1,0.2,0.2c0.1,0.1,0.3,0.3,0.4,0.4c0.3,0.4,0.6,0.8,1,1.2
		c0.2,0.2,0.3,0.4,0.5,0.5c0.2,0.2,0.4,0.3,0.6,0.5c0.2,0.2,0.4,0.4,0.6,0.5c0.2,0.2,0.5,0.3,0.7,0.5c0.2,0.2,0.5,0.5,0.6,0.8
		c0.1,0.3,0,0.8,0.3,1c0.1,0.1,0.1,0.1,0.2,0.2c0,0,0.1,0.1,0.1,0.2c0.1,0.1,0.1,0.1,0.2,0.2c0.1,0.1,0.2,0.2,0.3,0.3
		c0.2,0.2,0.4,0.3,0.6,0.5c0.1,0.1,0.1,0.2,0.2,0.2c0.1,0.1,0.2,0.1,0.3,0.3c0.5,0.6,0.9,1.1,1.3,1.8c0.1,0.1,0.1,0.3,0.2,0.4
		c0,0.1,0.1,0.2,0.2,0.2c0.1,0.1,0.1,0,0.2,0.1c0.4,0.3,0.7,0.7,1.1,1.1c0.1,0.1,0.2,0.2,0.3,0.3c0.1,0.1,0.2,0.2,0.3,0.3
		c0.1,0.1,0.3,0.2,0.5,0.3c0.2,0.1,0.4,0.1,0.6,0.2c0.2,0.1,0.4,0.2,0.6,0.4c0.2,0.2,0.4,0.4,0.6,0.6c0.2,0.2,0.4,0.5,0.6,0.8
		c0.1,0.1,0.2,0.2,0.3,0.3c0.1,0,0,0.1,0.2,0c0,0,0.1-0.3,0.2-0.3c0.1-0.3,0-0.7,0.1-1c0-0.1,0.1-0.2,0.1-0.3c0-0.2,0-0.3,0-0.5
		c0.1-0.5,0.3-1,0.3-1.5c0-0.2,0-0.4,0-0.5c0-0.2,0-0.4,0-0.6c-0.1-0.5-0.7-0.8-1.1-0.9c-0.1-0.1-0.3-0.1-0.4-0.2
		c-0.1-0.1-0.2-0.2-0.3-0.4c-0.1-0.2-0.1-0.2-0.3-0.3c-0.2,0-0.4-0.1-0.6-0.1c-0.4-0.1-1-0.2-1-0.7c0-0.2,0-0.5,0.2-0.5
		c0.4-0.1,0.8-0.2,1.2-0.1c0.2,0,0.3,0.1,0.5,0.1c0.2,0,0.3,0,0.5,0c0.3,0,0.4-0.2,0.5-0.4c0.1-0.2,0.3-0.1,0.4-0.2
		c0.3-0.2,0.2-0.5,0-0.7c-0.4-0.4-0.6-1-1-1.4c-0.2-0.2-0.3-0.4-0.6-0.6c-0.4-0.3-0.8-0.6-1.2-0.8c-0.1-0.1-0.3-0.1-0.4-0.2
		c-0.2-0.1-0.2-0.2-0.2-0.4c0-0.1,0-0.3,0-0.4c0.1-0.2,0.3-0.3,0.5-0.4c0.2-0.1,0.5-0.2,0.7-0.2c0.3-0.1,0.7-0.1,1-0.2
		c0.5-0.1,1.1,0,1.6-0.1c0-0.2,0-0.3,0-0.5c0.9-0.8-0.1-1.2-0.8-1.4c-0.1-0.1-0.1-0.2-0.2-0.3c-0.2-0.3-0.4-0.6-0.6-0.8
		c-0.1-0.1-0.3-0.1-0.4-0.2c-0.2-0.2-0.4-0.3-0.6-0.5c-0.3-0.2-0.4-0.4-0.6-0.6c-0.2-0.9,0.8-1.5,0.7-2.3c0-0.1-0.1-0.2-0.1-0.3
		c0.3-0.1,0.1-0.2,0-0.4c-0.1-0.2-0.1-0.5-0.2-0.7c-0.1-0.2-0.2-0.3-0.4-0.4c-0.3-0.1-0.7,0-1-0.2c-0.3-0.2-0.6-0.4-0.8-0.5
		c-0.2-0.1-0.4-0.2-0.5-0.3c-0.3-0.2-0.3-0.5-0.3-0.8c0-0.2,0-0.4,0-0.6c0-0.3,0.1-0.4,0.1-0.7c0-0.2-0.2-0.6-0.3-0.7
		c-0.1-0.2-0.3-0.2-0.5-0.2c-0.2,0-0.4,0.2-0.6,0.2c-0.2,0-0.3,0-0.4-0.1c-0.1-0.1-0.3-0.1-0.4-0.2c-0.2-0.2-0.4-0.3-0.6-0.5
		c-0.2-0.2-0.4-0.3-0.6-0.4c-0.4-0.5-0.8-1-1-1.7c-0.6-2-0.7-4.1,1.2-5.5c0.2-0.1,0.4-0.2,0.5-0.3c0.1,0,0.1,0.1,0.2,0.1
		c0.2,0,0.5,0,0.7,0c0.2-0.1,0.5-0.1,0.6-0.3c0-0.1,0-0.3,0-0.5c0.1-0.1,0.2-0.2,0.3-0.4c0.3-0.5,0.2-1.1,0.2-1.7
		c0.1-0.1,0.2-0.1,0.2-0.2c0.1-0.1,0.1-0.2,0.1-0.3c0.1-0.1,0.1-0.2,0.2-0.3c0,0,0,0,0-0.1c0.1,0,0.2,0,0.4,0c0.2,0,0.5,0,0.7,0
		c0.2,0,0.3,0.1,0.5,0.2c0.4,0.2,0.7,0.5,1,0.7c0.2,0.2,0.3,0.2,0.6,0.2c0.3,0,0.5,0,0.8,0c0,0,0.1,0,0.1,0c0.9,0.6,1.3-1.1,1.1-1.6
		c0-0.1-0.1-0.2-0.1-0.2c0-0.1,0-0.1,0-0.2c0-0.1-0.1-0.2-0.1-0.3c0-0.1,0-0.2,0-0.2c0,0,0-0.1,0.1-0.1c0-0.1,0.1-0.2,0.1-0.2
		c0,0,0.1-0.1,0.1-0.2c0.1-0.1,0.1-0.1,0.2-0.1c0.1-0.1,0.1-0.1,0.1-0.2c0.1-0.1,0.3-0.2,0.4-0.3c0.1-0.2,0.1-0.4,0-0.6
		c0-0.1,0.1-0.1,0.1-0.2c0-0.1,0-0.3,0-0.4c0-0.1,0-0.2,0-0.3c0-0.2,0.1-0.4,0.2-0.6c0-0.1,0.1-0.1,0.1-0.2l1-1.7
		c0.3-0.3,0.7-0.6,0.8-0.9c0-0.1,0.1-0.3,0.1-0.4c0-0.2,0.1-0.4,0.2-0.6c0,0,0,0,0,0l0.2-0.4l-0.1-0.1c0,0,0-0.1,0-0.1
		c0.1-0.2,0.2-0.4,0.2-0.6c0-0.1,0-0.3,0-0.4c0.1-0.1,0.3-0.1,0.5-0.1c0.2-0.1,0.5-0.1,0.7-0.1c0.3,0,0.6,0,0.9,0
		c0.2,0.1,0.5,0.2,0.7,0.2c0.3,0.1,0.5,0.3,0.7,0.5c0.3,0.2,0.5,0.5,0.8,0.5c0.1,0,0.5,0.1,0.6,0c0.1-0.1,0-0.4,0-0.5
		c0-0.2,0.1-0.4,0.1-0.6c0-0.1,0-0.2-0.1-0.3c0-0.1,0-0.2,0-0.3c0-0.2-0.1-0.4-0.2-0.6c-0.1-0.1-0.2-0.3-0.3-0.4
		c-0.1-0.2-0.3-0.3-0.4-0.5c-0.1-0.2-0.2-0.5-0.4-0.7c-0.1-0.1-0.3-0.2-0.4-0.3c-0.3-0.2-0.7-0.3-1.1-0.6c-0.2-0.2-0.5-0.3-0.8-0.4
		c-0.2-0.1-0.4-0.2-0.6-0.2c-0.2-0.1-0.4-0.2-0.6-0.2c-0.1,0-0.2,0-0.3-0.1c-0.1-0.2-0.3-0.4-0.7-0.6c-0.9-0.6-2-0.9-3.1-1.3
		c-1-0.4-1.9-0.4-2.9-0.7c0-0.2,0-0.4,0-0.6c0.2,0,0.4-0.1,0.5-0.2c0.1-0.1,0.2-0.2,0.3-0.3c0.4-0.3,0.7-0.6,1-0.9
		c0.1-0.1,0.1-0.1,0.2-0.2c0.1,0,0.3-0.1,0.4-0.1c1.9-0.6,3.5-1.3,5.5-1.2c0.6,0,1.2,0.2,1.7,0.2c0.1,0.1,0.3,0.1,0.4,0.2
		c0.2,0.1,0.4,0.1,0.5,0.1c0.2,0,0.3,0,0.5,0c0.2,0.1,0.4,0.2,0.6,0.3c0.2,0.1,0.5,0.2,0.7,0.2c0.6,0.1,1.2,0,1.7-0.2
		c0.2-0.1,0.5-0.1,0.7,0c0.2,0.1,0.3,0.2,0.5,0.3c0.4,0.2,1,0.1,1.4,0c0.4-0.1,0.8-0.3,1.2-0.4c0.4-0.1,0.8-0.2,1.2-0.3
		c0.3-0.1,0.7-0.2,0.9-0.5c-0.1-0.1-0.2-0.2-0.3-0.2c-0.1-0.1-0.2-0.2-0.3-0.3c-0.3-0.2-0.6-0.3-0.9-0.3c-0.1,0-0.3,0-0.4,0
		c-0.1,0-0.2-0.1-0.3-0.1c-0.1,0-0.3,0-0.4,0c-0.1,0-0.2-0.1-0.2-0.1c-0.4-0.1-0.7-0.3-0.9-0.7c-0.1-0.2-0.2-0.4-0.3-0.6
		c-0.1-0.1-0.2-0.3-0.3-0.4c-0.1-0.1-0.2-0.1-0.4-0.2c0-0.1-0.1-0.2-0.1-0.2c-0.4-0.9-0.6-1.5,0.3-2.1c0.2-0.1,0.4-0.2,0.6-0.3
		c0.1,0,0.2,0,0.3-0.1c0.1,0,0.2-0.1,0.3-0.1c0.1,0,0.1-0.1,0.2-0.1c0.2-0.1,0.7-0.2,0.6-0.5c0-0.1-0.1-0.3-0.2-0.4
		c-0.2-0.2-0.5-0.3-0.8-0.4c-0.2-0.1-0.4-0.1-0.6-0.2c-0.4-0.3-0.8-0.6-1.2-0.9c-0.7-0.6-1.5-1-2.4-1.1c-2.3-0.3-5.1,0.4-7.3-0.2
		c-0.2-0.1-0.5-0.2-0.7-0.3l-0.3-0.5l-0.1,0.2c0,0,0,0,0,0c0.1-0.1,0.1-0.2,0.1-0.2l-0.3,0c-0.3-0.2-0.5-0.4-0.8-0.6
		c-0.9-0.7-1.9-1.1-2.9-1.4c-0.9-0.3-1.6-0.5-2.4-1.1c-0.1,0-0.1-0.1-0.2-0.1l-0.7-1.2l-0.3,0.5c0,0,0,0,0,0
		c0.2-0.3,0.2-0.4,0.2-0.4l-5.1,0l-0.7,1.2c-0.9,0-2-0.1-2.8-0.3c-2.2-0.4-4-1.3-6.2-1.3c-1.3,0-2.5,0-3.8-0.1
		c-1.2-0.1-2.5-0.5-3.7-0.5c-0.8,0-1.7,0.1-2.6,0.2c-0.3-0.1-0.7-0.2-1-0.3c-0.2,0-0.5-0.1-0.6,0c-0.2,0.1-0.3,0.3-0.3,0.5
		c0,0.1,0,0.1,0,0.2c-0.5,0.1-0.9,0.3-1.3,0.4c-0.1,0-0.3,0-0.4,0c-0.2,0-0.6,0.1-0.8,0.2c-0.1,0.1-0.3,0.3-0.3,0.4
		c-0.7,0.4-1.3,0.8-2,1.1c-0.2,0-0.5,0-0.7,0c-0.3,0-0.7,0.1-0.8,0.3c0,0.1-0.1,0.2-0.1,0.3c-0.1,0.1-0.2,0.2-0.1,0.4
		c-0.1,0.1-0.1,0.3-0.2,0.4c-0.1,0.3-0.2,0.6-0.5,0.7c-0.4,0.2-0.8,0.2-1.1,0.3c-0.3,0.1-0.8,0-1.1,0c-0.3,0-0.7,0-1,0
		c-0.2,0-0.4,0.1-0.6,0.1c-0.2,0-0.3,0-0.5,0c-0.3,0-0.6,0-0.8,0.1l-4.2,0l-0.8,1.4c-0.2-0.1-0.4-0.1-0.6-0.2
		c-0.3-0.1-0.4-0.3-0.6-0.5c-0.1-0.1-0.3-0.2-0.3-0.3c-0.1-0.3,0-0.7,0-1c0-0.2,0-0.1-0.2-0.2c-0.1,0-0.2-0.1-0.3-0.1
		c-0.2-0.1-0.4-0.2-0.7-0.2c-0.4-0.1-0.8-0.2-1.1-0.3c-0.2-0.1-0.3-0.2-0.5-0.3c-0.2-0.1-0.2-0.3-0.4-0.4c-0.3-0.3-0.7-0.5-1.1-0.5
		c-0.4-0.1-0.9-0.1-1.2,0c-0.2,0-0.4,0-0.6,0c-0.2,0-0.5,0.1-0.7,0.1c-0.3,0.1-0.7,0.1-1,0.1c-0.3,0.1-0.6,0.1-1,0.2
		c-0.2,0-0.4,0-0.6,0c-0.1,0-0.3,0.1-0.5,0.1c-0.2-0.1-0.5-0.1-0.8-0.2c-0.9-0.1-1.9,0.2-2.8,0c-0.4-0.1-0.7-0.5-1.1-0.7l-1-1.7
		l-0.1,0.1l-5.1,0l-0.6,1c-0.6,0-1.2,0-1.8,0c-0.5,0-1,0-1.4-0.1c-0.4-0.1-0.9-0.2-1.3-0.3"/>
	<path fill="#FFFFFF" stroke="#B5935B" stroke-linecap="round" stroke-linejoin="round" stroke-miterlimit="10" d="M99.7,208.5
		c0,0-2.6-1.1-2.6-1.8c0.1-0.6,1-0.9,1-1.5c-0.1-0.7-1.8-0.7-1.8-1.3s1-1.5,1-1.5s-1.2-1.5-2.8-1.7c0,0,0-0.1,0-0.3
		c-0.1,0-0.1,0-0.2,0c0,0.2-0.1,0.3-0.1,0.3c-1.6,0.1-2.8,0.9-2.8,0.9l-1.5,0.2l0.8,1.3c0,0-0.4,1.5-0.4,2.2c-0.1,0.8,1,1.3,2.1,2
		c1.1,0.7,4.7,2.7,4.7,2.7s1.1,0.1,1.1,0.6s1.3,0.3,1.5,0C99.9,210.4,99.7,208.5,99.7,208.5z"/>
	<g>
		<path fill="none" stroke="#B5935B" stroke-miterlimit="10" d="M67.6,133.3h57.6c4.3,0,8.5-1.5,11.8-4.2l9.2-7.5
			c16.8-13.7,37.9-21.2,59.5-21.2h17c20.1,0,39.4-8,53.6-22.2L310,44.7h15.8"/>
	</g>
	<line fill="none" stroke="#B5935B" stroke-miterlimit="10" x1="397.3" y1="89" x2="412.6" y2="89"/>
	<path fill="none" stroke="#B5935B" stroke-miterlimit="10" d="M67.9,140.6h60.3c4.4,0,8.6-1.5,12-4.3l10.9-9
		c8.9-7.4,20.1-11.5,31.7-11.5h80.6c8.8,0,17.5-2.1,25.3-6.2l15.3-7.9c16-8.3,33.7-12.6,51.7-12.6h37.4"/>
	<path fill="none" stroke="#B5935B" stroke-miterlimit="10" d="M30,118.3L30,118.3c0,16.3,13.2,29.6,29.6,29.6h68.9
		c7.6,0,14.8-2.7,20.5-7.7l0,0c5-4.3,11.3-6.7,17.9-6.7h72.4c8.6,0,15.5,6.9,15.5,15.5v0"/>
	<path fill="none" stroke="#B5935B" stroke-miterlimit="10" d="M321,206h-49.6c-30.1,0-58.3-15-75.2-39.9l-8.5-12.6H60.4
		c-19.8,0-35.8-16-35.8-35.8v-7.1"/>
	<g>
		<path fill="none" stroke="#B5935B" stroke-miterlimit="10" d="M373.5,177.5l-5.5,11.1c-8.9,17.9-27.1,29.1-47,29.1l-108,0
			c-19.5,0-38.2-8-51.7-22.1l-14-14.6C133.6,167,115,159,95.5,159l-33.4,0c-23.6,0-42.7-19.2-42.7-42.8v-6.9"/>
	</g>
	<g>
		
			<ellipse fill="#041944" stroke="#B5935B" stroke-linecap="round" stroke-linejoin="round" stroke-miterlimit="10" cx="63.1" cy="113.1" rx="29.9" ry="30.1"/>
		<g>
			<defs>
				<ellipse id="XMLID_438_" cx="63.3" cy="113.1" rx="26.6" ry="26.7"/>
			</defs>
			<use xlink:href="#XMLID_438_"  overflow="visible" fill="#041944"/>
			<clipPath id="XMLID_3_">
				<use xlink:href="#XMLID_438_"  overflow="visible"/>
			</clipPath>
			<path clip-path="url(#XMLID_3_)" fill="#F4F4F4" stroke="#B5935B" stroke-miterlimit="10" d="M54.1,116.1
				c-0.9,1.4-2.6,2.6-3.7,3.9c-0.4,0.6-0.9,1.1-1.3,1.8c-0.5,0.9-0.5,2.1-0.9,3"/>
			<path clip-path="url(#XMLID_3_)" fill="#F4F4F4" stroke="#B5935B" stroke-miterlimit="10" d="M47.8,126.7
				c-0.1,0.4-0.4,0.9-0.4,1.4"/>
			<path clip-path="url(#XMLID_3_)" fill="#F4F4F4" stroke="#B5935B" stroke-miterlimit="10" d="M47.3,129.1c0,0.1-0.1,0.2-0.1,0.3"
				/>
			
				<line clip-path="url(#XMLID_3_)" fill="#F4F4F4" stroke="#B5935B" stroke-miterlimit="10" x1="81.4" y1="129.6" x2="81.4" y2="129.6"/>
			<polygon clip-path="url(#XMLID_3_)" fill="#B5935B" stroke="#B5935B" stroke-miterlimit="10" points="48.2,142.3 96.9,63.3 
				26.1,51.7 20.3,135.1 			"/>
			<use xlink:href="#XMLID_438_"  overflow="visible" fill="none" stroke="#B5935B" stroke-miterlimit="10"/>
		</g>
	</g>
	<path fill="#F4F4F4" stroke="#B5935B" stroke-linecap="round" stroke-linejoin="round" stroke-miterlimit="10" d="M19.4,65.1"/>
	<g>
		<ellipse fill="#041944" stroke="#B5935B" stroke-miterlimit="10" cx="325.9" cy="36.3" rx="22.5" ry="22.6"/>
	</g>
	<g>
		<defs>
			<path id="XMLID_444_" d="M342.1,27c-2.4-4-6.4-7.1-11.3-8.4c-9.8-2.5-19.8,3.5-22.3,13.3c-2.5,9.8,3.5,19.8,13.3,22.2
				c7.6,1.9,15.4-1.2,19.6-7.2l-16.1-10.5V21.7"/>
		</defs>
		<clipPath id="XMLID_4_">
			<use xlink:href="#XMLID_444_"  overflow="visible"/>
		</clipPath>
		
			<line clip-path="url(#XMLID_4_)" fill="none" stroke="#B5935B" stroke-miterlimit="10" x1="323.3" y1="45.9" x2="336.3" y2="32.6"/>
		<use xlink:href="#XMLID_444_"  overflow="visible" fill="none" stroke="#B5935B" stroke-miterlimit="10"/>
	</g>
	<g>
		<defs>
			<polygon id="XMLID_436_" points="335.9,27.4 317.8,27.4 317.8,0.5 330.2,0.5 335.9,6.1 			"/>
		</defs>
		<use xlink:href="#XMLID_436_"  overflow="visible" fill="#041944"/>
		<clipPath id="XMLID_5_">
			<use xlink:href="#XMLID_436_"  overflow="visible"/>
		</clipPath>
		
			<polyline clip-path="url(#XMLID_5_)" fill="#041944" stroke="#B5935B" stroke-linecap="round" stroke-linejoin="round" stroke-miterlimit="10" points="
			330.2,1.7 330.2,7.2 340.7,7.2 		"/>
		
			<line clip-path="url(#XMLID_5_)" fill="#041944" stroke="#B5935B" stroke-miterlimit="10" x1="322.7" y1="12.2" x2="332.7" y2="12.2"/>
		
			<line clip-path="url(#XMLID_5_)" fill="#041944" stroke="#B5935B" stroke-miterlimit="10" x1="322.7" y1="15.2" x2="332.7" y2="15.2"/>
		
			<line clip-path="url(#XMLID_5_)" fill="#041944" stroke="#B5935B" stroke-miterlimit="10" x1="322.7" y1="18.2" x2="332.7" y2="18.2"/>
		
			<use xlink:href="#XMLID_436_"  overflow="visible" fill="none" stroke="#B5935B" stroke-linecap="round" stroke-linejoin="round" stroke-miterlimit="10"/>
	</g>
	
		<circle fill="#041944" stroke="#B5935B" stroke-linecap="round" stroke-linejoin="round" stroke-miterlimit="10" cx="322.8" cy="46" r="3.1"/>
	
		<circle fill="#041944" stroke="#B5935B" stroke-linecap="round" stroke-linejoin="round" stroke-miterlimit="10" cx="373.3" cy="177.7" r="3.1"/>
	<g>
		<g>
			
				<ellipse fill="#041944" stroke="#B5935B" stroke-linecap="round" stroke-linejoin="round" stroke-miterlimit="10" cx="267.8" cy="86.6" rx="23.7" ry="23.8"/>
			<ellipse fill="#041944" stroke="#B5935B" stroke-miterlimit="10" cx="267.9" cy="86.6" rx="21" ry="21"/>
		</g>
		<line fill="#041944" stroke="#B5935B" stroke-miterlimit="10" x1="262.7" y1="80.2" x2="287.7" y2="80.2"/>
		<path fill="#041944" stroke="#B5935B" stroke-miterlimit="10" d="M273.2,68.8c0.6,0.2,1.1,0.4,1.7,0.6"/>
		<path fill="none" stroke="#B5935B" stroke-miterlimit="10" d="M252.8,96.8c-5.6-7.8-3.6-19.2,3.8-25l3.5,4.7"/>
		<path fill="none" stroke="#B5935B" stroke-miterlimit="10" d="M266.8,104.5c-4.8-0.3-9.5-2.5-12.8-6.1"/>
		<path fill="#041944" stroke="#B5935B" stroke-miterlimit="10" d="M272.3,103.9c-1.2,0.3-2.3,0.5-3.5,0.5"/>
		<path fill="#041944" stroke="#B5935B" stroke-miterlimit="10" d="M276.9,102c-0.9,0.5-1.8,0.9-2.7,1.3"/>
		<path fill="#041944" stroke="#B5935B" stroke-miterlimit="10" d="M286,85.9c0.1,5.9-2.7,11.7-7.5,15.1"/>
		<g>
			<defs>
				<polygon id="XMLID_435_" points="293.3,89.2 272.8,89.2 272.8,58.7 286.8,58.7 293.3,65.1 				"/>
			</defs>
			<use xlink:href="#XMLID_435_"  overflow="visible" fill="#041944"/>
			<clipPath id="XMLID_6_">
				<use xlink:href="#XMLID_435_"  overflow="visible"/>
			</clipPath>
			
				<polyline clip-path="url(#XMLID_6_)" fill="#041944" stroke="#B5935B" stroke-linecap="round" stroke-linejoin="round" stroke-miterlimit="10" points="
				287.2,59.7 287.2,66.2 298.7,66.2 			"/>
			
				<line clip-path="url(#XMLID_6_)" fill="#041944" stroke="#B5935B" stroke-miterlimit="10" x1="277.7" y1="72.2" x2="289.7" y2="72.2"/>
			
				<line clip-path="url(#XMLID_6_)" fill="#041944" stroke="#B5935B" stroke-miterlimit="10" x1="277.7" y1="75.2" x2="289.7" y2="75.2"/>
			
				<line clip-path="url(#XMLID_6_)" fill="#041944" stroke="#B5935B" stroke-miterlimit="10" x1="277.7" y1="78.2" x2="289.7" y2="78.2"/>
			
				<use xlink:href="#XMLID_435_"  overflow="visible" fill="none" stroke="#B5935B" stroke-linecap="round" stroke-linejoin="round" stroke-miterlimit="10"/>
		</g>
		
			<circle fill="#041944" stroke="#B5935B" stroke-linecap="round" stroke-linejoin="round" stroke-miterlimit="10" cx="261.7" cy="79.5" r="3.1"/>
	</g>
	
		<line fill="#041944" stroke="#B5935B" stroke-linecap="round" stroke-linejoin="round" stroke-miterlimit="10" x1="342.7" y1="27.2" x2="372.7" y2="27.2"/>
	<g>
		<g>
			<path fill="#041944" stroke="#B5935B" stroke-linecap="round" stroke-linejoin="round" stroke-miterlimit="10" d="M79.8,39.7
				l-16.4,5.1l3.2-25.4L85,11.8c0,0-2.4,20.4-2.9,23.8C81.8,37.2,81,38.7,79.8,39.7z"/>
			
				<line fill="#041944" stroke="#B5935B" stroke-linecap="round" stroke-linejoin="round" stroke-miterlimit="10" x1="69.4" y1="23.3" x2="79.4" y2="19.9"/>
			
				<line fill="#041944" stroke="#B5935B" stroke-linecap="round" stroke-linejoin="round" stroke-miterlimit="10" x1="69.2" y1="26.4" x2="79.2" y2="22.9"/>
			
				<line fill="#041944" stroke="#B5935B" stroke-linecap="round" stroke-linejoin="round" stroke-miterlimit="10" x1="68.6" y1="29.6" x2="78.6" y2="26.1"/>
		</g>
		<g>
			<path fill="#041944" stroke="#B5935B" stroke-linecap="round" stroke-linejoin="round" stroke-miterlimit="10" d="M73.8,37.4
				l-16.3,6.8c0,0,0.6,0.3,1.4,0.6c2.4,1.1,5.1,1.2,7.5,0.2l13.4-5.3C78.6,39.9,73.8,37.4,73.8,37.4z"/>
		</g>
	</g>
	
		<circle fill="#041944" stroke="#B5935B" stroke-linecap="round" stroke-linejoin="round" stroke-miterlimit="10" cx="373.2" cy="177.6" r="1"/>
	<g>
		<g>
			
				<ellipse fill="#041944" stroke="#B5935B" stroke-linecap="round" stroke-linejoin="round" stroke-miterlimit="10" cx="199.3" cy="150.4" rx="24.9" ry="25"/>
			<ellipse fill="#041944" stroke="#B5935B" stroke-miterlimit="10" cx="199.4" cy="150.4" rx="22.5" ry="22.6"/>
		</g>
		<g>
			<defs>
				<circle id="SVGID_1_" cx="199.3" cy="150.4" r="18.1"/>
			</defs>
			<clipPath id="SVGID_2_">
				<use xlink:href="#SVGID_1_"  overflow="visible"/>
			</clipPath>
			
				<rect x="180.6" y="155.6" clip-path="url(#SVGID_2_)" fill="none" stroke="#B5935B" stroke-miterlimit="10" width="45" height="16.7"/>
			<use xlink:href="#SVGID_1_"  overflow="visible" fill="none" stroke="#B5935B" stroke-miterlimit="10"/>
		</g>
		<g>
			<defs>
				<path id="XMLID_404_" d="M206.2,167.1c0,0-4.4,1.7-9.3,1.2c-4.3-0.4-9.3-4.7-9.3-4.7V112h12.8l5.9,6.3V167.1z"/>
			</defs>
			<use xlink:href="#XMLID_404_"  overflow="visible" fill="#041944"/>
			<clipPath id="XMLID_7_">
				<use xlink:href="#XMLID_404_"  overflow="visible"/>
			</clipPath>
			
				<polyline clip-path="url(#XMLID_7_)" fill="#041944" stroke="#B5935B" stroke-linecap="round" stroke-linejoin="round" stroke-miterlimit="10" points="
				201.2,112.7 201.2,118.3 208.4,118.3 			"/>
			
				<line clip-path="url(#XMLID_7_)" fill="#041944" stroke="#B5935B" stroke-miterlimit="10" x1="191.7" y1="123.2" x2="202.7" y2="123.2"/>
			
				<line clip-path="url(#XMLID_7_)" fill="#041944" stroke="#B5935B" stroke-miterlimit="10" x1="191.7" y1="127.2" x2="202.7" y2="127.2"/>
			
				<line clip-path="url(#XMLID_7_)" fill="#041944" stroke="#B5935B" stroke-miterlimit="10" x1="191.7" y1="131.2" x2="202.7" y2="131.2"/>
			<path clip-path="url(#XMLID_7_)" fill="#041944" stroke="#B5935B" stroke-miterlimit="10" d="M191.7,169.4
				c0.5-4.9,0.7-9.9,0.6-14.8c0-1.2-0.1-2.4-0.8-3.3c-0.1-0.2-0.2-0.3-0.4-0.3c-0.4-0.1-0.7,0.3-0.7,0.7s0.2,0.7,0.4,1
				c1.2,1.8,2.6,3.5,4,5.1c1.3,1.4,3.4,4.2,2.6,5c-0.7,0.5-1.5,0.3-2-0.4s-0.5-2-0.5-2.8c-0.1-3.2-0.2-6.5-0.2-9.7
				c0-0.4,0-0.9-0.2-1.2c-0.2-0.4-0.7-0.6-1.1-0.3c-0.6,0.9,0,2.2,1,2.5c0.7,0.3,1.7,0.4,2.4,0.1c2.5-1.3,4.1-9.4,4.2-9.6"/>
			
				<line clip-path="url(#XMLID_7_)" fill="#041944" stroke="#B5935B" stroke-miterlimit="10" x1="202" y1="138.5" x2="202" y2="138.5"/>
			
				<use xlink:href="#XMLID_404_"  overflow="visible" fill="none" stroke="#B5935B" stroke-linecap="round" stroke-linejoin="round" stroke-miterlimit="10"/>
		</g>
	</g>
	<path fill="#041944" stroke="#B5935B" stroke-linecap="round" stroke-linejoin="round" stroke-miterlimit="10" d="M379.6,157.6
		c1.3,1.1,2.4,2.3,3.4,3.7"/>
	<g>
		<g>
			<defs>
				<ellipse id="XMLID_440_" cx="330.3" cy="94.2" rx="23.7" ry="23.8"/>
			</defs>
			<use xlink:href="#XMLID_440_"  overflow="visible" fill="#041944"/>
			<clipPath id="XMLID_8_">
				<use xlink:href="#XMLID_440_"  overflow="visible"/>
			</clipPath>
			<g clip-path="url(#XMLID_8_)">
				<defs>
					<ellipse id="XMLID_339_" cx="330.6" cy="93.9" rx="20.5" ry="20.5"/>
				</defs>
				<use xlink:href="#XMLID_339_"  overflow="visible" fill="#041944"/>
				<clipPath id="XMLID_9_">
					<use xlink:href="#XMLID_339_"  overflow="visible"/>
				</clipPath>
				
					<polyline clip-path="url(#XMLID_9_)" fill="none" stroke="#B5935B" stroke-linecap="round" stroke-linejoin="round" stroke-miterlimit="10" points="
					357.3,89.4 330.8,89.4 330.8,126.1 364.4,126.1 				"/>
				
					<use xlink:href="#XMLID_339_"  overflow="visible" fill="none" stroke="#B5935B" stroke-linecap="round" stroke-linejoin="round" stroke-miterlimit="10"/>
			</g>
			
				<use xlink:href="#XMLID_440_"  overflow="visible" fill="none" stroke="#B5935B" stroke-linecap="round" stroke-linejoin="round" stroke-miterlimit="10"/>
		</g>
		<path fill="#041944" stroke="#B5935B" stroke-miterlimit="10" d="M324.9,111.8c-0.5-0.2-1.1-0.3-1.6-0.6"/>
		<polygon fill="#041944" stroke="#B5935B" stroke-linecap="round" stroke-linejoin="round" stroke-miterlimit="10" points="
			347.3,136.2 321.5,136.2 321.5,96.2 340,96.2 347.3,104.5 		"/>
		<g>
			<defs>
				<polygon id="XMLID_402_" points="344.9,133.3 324.1,133.3 324.1,98.3 338.6,98.3 344.9,105.6 				"/>
			</defs>
			<clipPath id="XMLID_10_">
				<use xlink:href="#XMLID_402_"  overflow="visible"/>
			</clipPath>
			
				<polyline clip-path="url(#XMLID_10_)" fill="#041944" stroke="#B5935B" stroke-linecap="round" stroke-linejoin="round" stroke-miterlimit="10" points="
				339.2,99.7 339.2,106.2 351.7,106.2 			"/>
			
				<line clip-path="url(#XMLID_10_)" fill="#041944" stroke="#B5935B" stroke-miterlimit="10" x1="328.7" y1="113.2" x2="340.7" y2="113.2"/>
			
				<line clip-path="url(#XMLID_10_)" fill="#041944" stroke="#B5935B" stroke-miterlimit="10" x1="328.7" y1="117.2" x2="340.7" y2="117.2"/>
			
				<line clip-path="url(#XMLID_10_)" fill="#041944" stroke="#B5935B" stroke-miterlimit="10" x1="328.7" y1="121.2" x2="340.7" y2="121.2"/>
			
				<use xlink:href="#XMLID_402_"  overflow="visible" fill="none" stroke="#B5935B" stroke-linecap="round" stroke-linejoin="round" stroke-miterlimit="10"/>
		</g>
	</g>
	<g>
		<path fill="#041944" stroke="#B5935B" stroke-linecap="round" stroke-linejoin="round" stroke-miterlimit="10" d="M164.9,15.4
			c0.1,0.3,0.5,0.7,0.7,0.9c0.3,0.4,1,0.6,1.1,1c0.2,0.9,1,3.1,1,3.1l-11.2-0.2"/>
		<path fill="#FFFFFF" stroke="#B5935B" stroke-linecap="round" stroke-linejoin="round" stroke-miterlimit="10" d="M136.3,48.4
			l-18.9-0.1l23.3-31.8c1.3-1.9,3.2-2.3,5.9-2.4c0,0,15,0.4,17.2,0.9c1.9,0.4,2.9,1.9,2.9,2.6c-2.3-3.8-4.8-0.7-6.4,1.5
			c-1.5,2.1-18.1,24.2-20.8,27.8C138.6,48.1,137.8,48.4,136.3,48.4z"/>
		<path fill="#041944" stroke="#B5935B" stroke-linecap="round" stroke-linejoin="round" stroke-miterlimit="10" d="M136.8,48.5
			c-1.9,0.3-3.4-1.9-2.8-3.8c0.5-1.6,1.6-3,1.6-3l-20.8-0.1c0,0-2,0.6-2.2,3.4c-0.2,2,1.9,3.2,1.9,3.2
			C114.4,48.2,137.2,48.4,136.8,48.5z"/>
		
			<line fill="#041944" stroke="#B5935B" stroke-linecap="round" stroke-linejoin="round" stroke-miterlimit="10" x1="143" y1="19.7" x2="154.3" y2="19.7"/>
		
			<line fill="#041944" stroke="#B5935B" stroke-linecap="round" stroke-linejoin="round" stroke-miterlimit="10" x1="140.5" y1="23.4" x2="151.7" y2="23.4"/>
		
			<line fill="#041944" stroke="#B5935B" stroke-linecap="round" stroke-linejoin="round" stroke-miterlimit="10" x1="138" y1="26.9" x2="149.2" y2="26.9"/>
	</g>
	<circle fill="#041944" stroke="#B5935B" stroke-miterlimit="10" cx="361.8" cy="89" r="2"/>
	<circle fill="#041944" stroke="#B5935B" stroke-miterlimit="10" cx="357.8" cy="26.8" r="2"/>
	<circle fill="#041944" stroke="#B5935B" stroke-miterlimit="10" cx="305.8" cy="26.3" r="2"/>
	<circle fill="#041944" stroke="#B5935B" stroke-miterlimit="10" cx="245.8" cy="96.8" r="2"/>
	<circle fill="#041944" stroke="#B5935B" stroke-miterlimit="10" cx="307.1" cy="100.4" r="2"/>
	<g>
		<g>
			<defs>
				<rect id="XMLID_403_" x="359.9" y="142.3" width="16.2" height="21.3"/>
			</defs>
			<use xlink:href="#XMLID_403_"  overflow="visible" fill="#041944"/>
			<clipPath id="XMLID_11_">
				<use xlink:href="#XMLID_403_"  overflow="visible"/>
			</clipPath>
			
				<use xlink:href="#XMLID_403_"  overflow="visible" fill="none" stroke="#B5935B" stroke-linejoin="round" stroke-miterlimit="10"/>
		</g>
		<g>
			<defs>
				<rect id="XMLID_401_" x="358.6" y="139.1" width="14.3" height="21.3"/>
			</defs>
			<use xlink:href="#XMLID_401_"  overflow="visible" fill="#041944"/>
			<clipPath id="XMLID_12_">
				<use xlink:href="#XMLID_401_"  overflow="visible"/>
			</clipPath>
			
				<line clip-path="url(#XMLID_12_)" fill="none" stroke="#B5935B" stroke-linejoin="round" stroke-miterlimit="10" x1="365.7" y1="153.8" x2="365.7" y2="143.5"/>
			
				<circle clip-path="url(#XMLID_12_)" fill="#041944" stroke="#B5935B" stroke-linejoin="round" stroke-miterlimit="10" cx="365.7" cy="144.1" r="1.7"/>
			
				<circle clip-path="url(#XMLID_12_)" fill="#041944" stroke="#B5935B" stroke-linejoin="round" stroke-miterlimit="10" cx="365.7" cy="153.9" r="1.7"/>
			
				<use xlink:href="#XMLID_401_"  overflow="visible" fill="none" stroke="#B5935B" stroke-linejoin="round" stroke-miterlimit="10"/>
		</g>
	</g>
	<circle fill="#041944" stroke="#B5935B" stroke-linejoin="round" stroke-miterlimit="10" cx="314.3" cy="209.2" r="16.6"/>
	<g>
		<defs>
			<circle id="XMLID_380_" cx="314.3" cy="209.2" r="13.7"/>
		</defs>
		<use xlink:href="#XMLID_380_"  overflow="visible" fill="#FFFFFF"/>
		<clipPath id="XMLID_13_">
			<use xlink:href="#XMLID_380_"  overflow="visible"/>
		</clipPath>
		
			<rect x="302.8" y="217.4" clip-path="url(#XMLID_13_)" fill="#041944" stroke="#B5935B" stroke-linejoin="round" stroke-miterlimit="10" width="30.5" height="10.8"/>
		
			<use xlink:href="#XMLID_380_"  overflow="visible" fill="none" stroke="#B5935B" stroke-linejoin="round" stroke-miterlimit="10"/>
	</g>
	<g>
		<g>
			<g>
				
					<ellipse fill="#041944" stroke="#B5935B" stroke-linecap="round" stroke-linejoin="round" stroke-miterlimit="10" cx="252.6" cy="173.3" rx="23.3" ry="23.4"/>
			</g>
			<g>
				
					<ellipse fill="#041944" stroke="#B5935B" stroke-linecap="round" stroke-linejoin="round" stroke-miterlimit="10" cx="252.6" cy="173.3" rx="20.5" ry="20.6"/>
			</g>
			<g>
				<polygon fill="#041944" stroke="#B5935B" stroke-linecap="round" stroke-linejoin="round" stroke-miterlimit="10" points="
					264.6,173.9 244.5,173.9 244.5,142.4 257.7,142.4 264.6,149.1 				"/>
				<g>
					<defs>
						<polygon id="XMLID_445_" points="262.5,172 246.2,172 246.2,144.2 256.7,144.2 262.5,150 						"/>
					</defs>
					<use xlink:href="#XMLID_445_"  overflow="visible" fill="#041944"/>
					<clipPath id="XMLID_14_">
						<use xlink:href="#XMLID_445_"  overflow="visible"/>
					</clipPath>
					
						<polyline clip-path="url(#XMLID_14_)" fill="#041944" stroke="#B5935B" stroke-linecap="round" stroke-linejoin="round" stroke-miterlimit="10" points="
						257.2,144.7 257.2,150.2 267.7,150.2 					"/>
					
						<line clip-path="url(#XMLID_14_)" fill="#041944" stroke="#B5935B" stroke-miterlimit="10" x1="251.7" y1="157.2" x2="259.7" y2="157.2"/>
					
						<line clip-path="url(#XMLID_14_)" fill="#041944" stroke="#B5935B" stroke-miterlimit="10" x1="251.7" y1="160.2" x2="259.7" y2="160.2"/>
					
						<use xlink:href="#XMLID_445_"  overflow="visible" fill="none" stroke="#B5935B" stroke-linecap="round" stroke-linejoin="round" stroke-miterlimit="10"/>
				</g>
			</g>
			<path fill="none" stroke="#B5935B" stroke-miterlimit="10" d="M256.4,171.6v18.2c-3.5,0.7-7.2,0.4-10.5-1c-2.2-0.9-4.1-2.3-5.7-4
				"/>
			
				<circle fill="#041944" stroke="#B5935B" stroke-linecap="round" stroke-linejoin="round" stroke-miterlimit="10" cx="255.8" cy="173.5" r="2.9"/>
		</g>
		<circle fill="#041944" stroke="#B5935B" stroke-linejoin="round" stroke-miterlimit="10" cx="240.7" cy="184.5" r="1.8"/>
	</g>
	<g>
		<g>
			<defs>
				<rect id="XMLID_449_" x="306.7" y="190.2" width="16.2" height="21.3"/>
			</defs>
			<use xlink:href="#XMLID_449_"  overflow="visible" fill="#041944"/>
			<clipPath id="XMLID_15_">
				<use xlink:href="#XMLID_449_"  overflow="visible"/>
			</clipPath>
			
				<use xlink:href="#XMLID_449_"  overflow="visible" fill="none" stroke="#B5935B" stroke-linejoin="round" stroke-miterlimit="10"/>
		</g>
		<g>
			<defs>
				<rect id="XMLID_448_" x="305.4" y="187" width="14.3" height="21.3"/>
			</defs>
			<use xlink:href="#XMLID_448_"  overflow="visible" fill="#041944"/>
			<clipPath id="XMLID_16_">
				<use xlink:href="#XMLID_448_"  overflow="visible"/>
			</clipPath>
			
				<line clip-path="url(#XMLID_16_)" fill="none" stroke="#B5935B" stroke-linejoin="round" stroke-miterlimit="10" x1="309.5" y1="193.8" x2="316" y2="193.8"/>
			
				<line clip-path="url(#XMLID_16_)" fill="none" stroke="#B5935B" stroke-linejoin="round" stroke-miterlimit="10" x1="309.5" y1="196.2" x2="316" y2="196.2"/>
			
				<line clip-path="url(#XMLID_16_)" fill="none" stroke="#B5935B" stroke-linejoin="round" stroke-miterlimit="10" x1="309.4" y1="198.9" x2="315.9" y2="198.9"/>
			
				<use xlink:href="#XMLID_448_"  overflow="visible" fill="none" stroke="#B5935B" stroke-linejoin="round" stroke-miterlimit="10"/>
		</g>
	</g>
	<path fill="none" stroke="#B5935B" stroke-miterlimit="10" d="M14.3,117.8L14.3,117.8c0,25.4,20.6,46,46,46h22.4
		c22,0,42.8,9.5,57.2,26.1l12.2,14c14.4,16.6,35.3,26.1,57.2,26.1l61.2,0.2c7.3,0,14.1,3.8,18,10l0,0c3.9,6.2,10.7,10,18.1,10h9.2"
		/>
	<g>
		<g>
			<g>
				<g>
					
						<ellipse fill="#041944" stroke="#B5935B" stroke-linecap="round" stroke-linejoin="round" stroke-miterlimit="10" cx="220.6" cy="223.3" rx="23.3" ry="23.4"/>
				</g>
				<g>
					<g>
						<defs>
							<ellipse id="XMLID_337_" cx="220.6" cy="223.3" rx="20.5" ry="20.6"/>
						</defs>
						<use xlink:href="#XMLID_337_"  overflow="visible" fill="#FFFFFF"/>
						<clipPath id="XMLID_17_">
							<use xlink:href="#XMLID_337_"  overflow="visible"/>
						</clipPath>
						
							<rect x="194.9" y="233.9" clip-path="url(#XMLID_17_)" fill="#041944" stroke="#B5935B" stroke-linecap="round" stroke-linejoin="round" stroke-miterlimit="10" width="60.3" height="11.3"/>
						
							<use xlink:href="#XMLID_337_"  overflow="visible" fill="none" stroke="#B5935B" stroke-linecap="round" stroke-linejoin="round" stroke-miterlimit="10"/>
					</g>
				</g>
			</g>
		</g>
		<g>
			<defs>
				<rect id="XMLID_336_" x="206.8" y="214.5" width="7.1" height="19.2"/>
			</defs>
			<use xlink:href="#XMLID_336_"  overflow="visible" fill="#041944"/>
			<clipPath id="XMLID_18_">
				<use xlink:href="#XMLID_336_"  overflow="visible"/>
			</clipPath>
			
				<rect x="205.7" y="225.4" clip-path="url(#XMLID_18_)" fill="#041944" stroke="#B5935B" stroke-miterlimit="10" width="9.8" height="3.4"/>
			<use xlink:href="#XMLID_336_"  overflow="visible" fill="none" stroke="#B5935B" stroke-miterlimit="10"/>
		</g>
		<g>
			<defs>
				<rect id="XMLID_338_" x="216.2" y="191.5" width="12" height="42.2"/>
			</defs>
			<use xlink:href="#XMLID_338_"  overflow="visible" fill="#041944"/>
			<clipPath id="XMLID_19_">
				<use xlink:href="#XMLID_338_"  overflow="visible"/>
			</clipPath>
			
				<rect x="214.7" y="194.4" clip-path="url(#XMLID_19_)" fill="#041944" stroke="#B5935B" stroke-miterlimit="10" width="16.5" height="2.4"/>
			
				<rect x="214.3" y="228.5" clip-path="url(#XMLID_19_)" fill="#041944" stroke="#B5935B" stroke-miterlimit="10" width="16.6" height="2.7"/>
			
				<line clip-path="url(#XMLID_19_)" fill="none" stroke="#B5935B" stroke-miterlimit="10" x1="222" y1="200.1" x2="222" y2="223.8"/>
			<use xlink:href="#XMLID_338_"  overflow="visible" fill="none" stroke="#B5935B" stroke-miterlimit="10"/>
		</g>
		<rect x="230.5" y="195.8" fill="#041944" stroke="#B5935B" stroke-miterlimit="10" width="5.5" height="38"/>
	</g>
	<circle fill="#041944" stroke="#B5935B" stroke-miterlimit="10" cx="252.8" cy="230.3" r="2"/>
	<circle fill="#041944" stroke="#B5935B" stroke-miterlimit="10" cx="183.8" cy="26.8" r="2"/>
	<circle fill="#041944" stroke="#B5935B" stroke-miterlimit="10" cx="260.8" cy="205.3" r="2"/>
	<circle fill="#041944" stroke="#B5935B" stroke-miterlimit="10" cx="187.3" cy="226.8" r="2"/>
	<circle fill="#041944" stroke="#B5935B" stroke-miterlimit="10" cx="302.3" cy="52.5" r="2"/>
	<circle fill="#041944" stroke="#B5935B" stroke-miterlimit="10" cx="349.3" cy="209.3" r="2"/>
	<g>
		<g>
			<line fill="none" stroke="#B5935B" stroke-miterlimit="10" x1="418.6" y1="89.3" x2="420.1" y2="89.3"/>
			
				<line fill="none" stroke="#B5935B" stroke-miterlimit="10" stroke-dasharray="2.8986,2.8986" x1="423" y1="89.3" x2="485.3" y2="89.3"/>
			<line fill="none" stroke="#B5935B" stroke-miterlimit="10" x1="486.8" y1="89.3" x2="488.3" y2="89.3"/>
		</g>
	</g>
	<line fill="none" stroke="#B5935B" stroke-miterlimit="10" x1="417.5" y1="133.2" x2="432.8" y2="133.2"/>
	<g>
		<g>
			<line fill="none" stroke="#B5935B" stroke-miterlimit="10" x1="437.6" y1="133.5" x2="439.1" y2="133.5"/>
			
				<line fill="none" stroke="#B5935B" stroke-miterlimit="10" stroke-dasharray="3.2833,3.2833" x1="442.4" y1="133.5" x2="453.9" y2="133.5"/>
			<line fill="none" stroke="#B5935B" stroke-miterlimit="10" x1="455.5" y1="133.5" x2="457" y2="133.5"/>
		</g>
	</g>
	<line fill="none" stroke="#B5935B" stroke-miterlimit="10" x1="219.8" y1="257.7" x2="239.8" y2="257.7"/>
	<g>
		<g>
			<line fill="none" stroke="#B5935B" stroke-miterlimit="10" x1="244.5" y1="258" x2="246" y2="258"/>
			
				<line fill="none" stroke="#B5935B" stroke-miterlimit="10" stroke-dasharray="2.9868,2.9868" x1="249" y1="258" x2="301.3" y2="258"/>
			<line fill="none" stroke="#B5935B" stroke-miterlimit="10" x1="302.8" y1="258" x2="304.3" y2="258"/>
		</g>
	</g>
	<line fill="none" stroke="#B5935B" stroke-miterlimit="10" x1="319" y1="250.2" x2="334.3" y2="250.2"/>
	<g>
		<g>
			<line fill="none" stroke="#B5935B" stroke-miterlimit="10" x1="339.1" y1="250.5" x2="340.6" y2="250.5"/>
			
				<line fill="none" stroke="#B5935B" stroke-miterlimit="10" stroke-dasharray="3.2833,3.2833" x1="343.9" y1="250.5" x2="355.4" y2="250.5"/>
			<line fill="none" stroke="#B5935B" stroke-miterlimit="10" x1="357" y1="250.5" x2="358.5" y2="250.5"/>
		</g>
	</g>
	<line fill="none" stroke="#B5935B" stroke-miterlimit="10" x1="376" y1="27" x2="391.3" y2="27"/>
	<g>
		<g>
			<line fill="none" stroke="#B5935B" stroke-miterlimit="10" x1="397.3" y1="27.3" x2="398.8" y2="27.3"/>
			
				<line fill="none" stroke="#B5935B" stroke-miterlimit="10" stroke-dasharray="2.8986,2.8986" x1="401.7" y1="27.3" x2="464.1" y2="27.3"/>
			<line fill="none" stroke="#B5935B" stroke-miterlimit="10" x1="465.5" y1="27.3" x2="467" y2="27.3"/>
		</g>
	</g>
	<g>
		<g>
			<g>
				<g>
					
						<ellipse fill="#041944" stroke="#B5935B" stroke-linecap="round" stroke-linejoin="round" stroke-miterlimit="10" cx="161.6" cy="210.3" rx="19.5" ry="19.5"/>
				</g>
				<g>
					<g>
						<defs>
							<circle id="XMLID_382_" cx="161.6" cy="210.3" r="14.5"/>
						</defs>
						<use xlink:href="#XMLID_382_"  overflow="visible" fill="#FFFFFF"/>
						<clipPath id="XMLID_20_">
							<use xlink:href="#XMLID_382_"  overflow="visible"/>
						</clipPath>
						
							<rect x="142" y="218.3" clip-path="url(#XMLID_20_)" fill="#041944" stroke="#B5935B" stroke-linecap="round" stroke-linejoin="round" stroke-miterlimit="10" width="45.9" height="8.6"/>
						
							<use xlink:href="#XMLID_382_"  overflow="visible" fill="none" stroke="#B5935B" stroke-linecap="round" stroke-linejoin="round" stroke-miterlimit="10"/>
					</g>
				</g>
			</g>
		</g>
		<g>
			<defs>
				<rect id="XMLID_385_" x="151.9" y="195.6" width="7.8" height="22.7"/>
			</defs>
			<use xlink:href="#XMLID_385_"  overflow="visible" fill="#041944"/>
			<clipPath id="XMLID_21_">
				<use xlink:href="#XMLID_385_"  overflow="visible"/>
			</clipPath>
			
				<rect x="150.3" y="212.5" clip-path="url(#XMLID_21_)" fill="#041944" stroke="#B5935B" stroke-linecap="round" stroke-linejoin="round" stroke-miterlimit="10" width="11.7" height="2.8"/>
			
				<line clip-path="url(#XMLID_21_)" fill="none" stroke="#B5935B" stroke-linecap="round" stroke-linejoin="round" stroke-miterlimit="10" x1="155.9" y1="209.1" x2="155.9" y2="200.3"/>
			
				<use xlink:href="#XMLID_385_"  overflow="visible" fill="none" stroke="#B5935B" stroke-linecap="round" stroke-linejoin="round" stroke-miterlimit="10"/>
		</g>
		
			<rect x="159.9" y="200.8" fill="#041944" stroke="#B5935B" stroke-linecap="round" stroke-linejoin="round" stroke-miterlimit="10" width="4.3" height="17.3"/>
		
			<rect x="166.3" y="206.1" fill="#041944" stroke="#B5935B" stroke-linecap="round" stroke-linejoin="round" stroke-miterlimit="10" width="3.8" height="12.2"/>
	</g>
	<g>
		<g>
			<circle fill="#041944" stroke="#B5935B" stroke-linejoin="round" stroke-miterlimit="10" cx="146.5" cy="167" r="12.4"/>
			<circle fill="#041944" stroke="#B5935B" stroke-linejoin="round" stroke-miterlimit="10" cx="146.5" cy="167" r="10.2"/>
		</g>
		<path fill="#041944" stroke="#B5935B" stroke-linejoin="round" stroke-miterlimit="10" d="M151.6,175.4c0,0-2.1,1.8-5.4,1.8
			s-5.1-1.8-5.1-1.8v-25.8h10.5V175.4z"/>
		
			<line fill="none" stroke="#B5935B" stroke-linejoin="round" stroke-miterlimit="10" x1="146.1" y1="154.7" x2="146.1" y2="167.7"/>
		<circle fill="#041944" stroke="#B5935B" stroke-linejoin="round" stroke-miterlimit="10" cx="146.1" cy="155.2" r="1.2"/>
		<circle fill="#041944" stroke="#B5935B" stroke-linejoin="round" stroke-miterlimit="10" cx="146.1" cy="161.5" r="1.2"/>
	</g>
	<circle fill="#F4F4F4" stroke="#B5935B" stroke-miterlimit="10" cx="15.8" cy="129.6" r="1.8"/>
	<circle fill="#F4F4F4" stroke="#B5935B" stroke-miterlimit="10" cx="26.4" cy="129.6" r="1.8"/>
	<circle fill="#F4F4F4" stroke="#B5935B" stroke-miterlimit="10" cx="63.8" cy="66.8" r="1.8"/>
	<circle fill="#F4F4F4" stroke="#B5935B" stroke-miterlimit="10" cx="31.6" cy="139.1" r="1.3"/>
	<circle fill="#F4F4F4" stroke="#B5935B" stroke-miterlimit="10" cx="72.1" cy="55.1" r="1.3"/>
	<circle fill="#F4F4F4" stroke="#B5935B" stroke-miterlimit="10" cx="40.4" cy="147.1" r="1.3"/>
	<circle fill="#F4F4F4" stroke="#B5935B" stroke-miterlimit="10" cx="41.3" cy="159.9" r="1.3"/>
	<circle fill="#F4F4F4" stroke="#B5935B" stroke-miterlimit="10" cx="18.4" cy="137.8" r="1.3"/>
	<circle fill="#F4F4F4" stroke="#B5935B" stroke-miterlimit="10" cx="28.6" cy="151.1" r="1.3"/>
	<path fill="none" stroke="#B5935B" stroke-miterlimit="10" d="M7.1,119.8L7.1,119.8c0,28.2,22.8,51,51,51h0
		c22.8,0,43.7,12.8,54.1,33.1l0,0c16.8,32.9,50.6,53.6,87.6,53.6h16"/>
	<g>
		<path fill="#F4F4F4" stroke="#B5935B" stroke-miterlimit="10" d="M0.6,75.4l-0.1,49.7h70.6l0-49c0,0-6-7.9-35.5-2.6
			C8.7,67.6,0.6,75.4,0.6,75.4z"/>
		<g>
			<defs>
				<path id="XMLID_384_" d="M34.2,114.9c-5-1.4-9.5-1.3-13.7-1.2c-4.2,0-9.3,1.2-14.3,4.7V77.2c5-1.1,9.5-1.8,14.1-1.8
					c4.5,0,8.9,0.5,13.9,1.8V114.9z"/>
			</defs>
			<use xlink:href="#XMLID_384_"  overflow="visible" fill="#F4F4F4"/>
			<clipPath id="XMLID_22_">
				<use xlink:href="#XMLID_384_"  overflow="visible"/>
			</clipPath>
			<path clip-path="url(#XMLID_22_)" fill="none" stroke="#B5935B" stroke-miterlimit="10" d="M9.6,86.8c0,0,9.2-3.8,18.7-0.5"/>
			<path clip-path="url(#XMLID_22_)" fill="none" stroke="#B5935B" stroke-miterlimit="10" d="M9.6,91.4c0,0,9.2-3.8,18.7-0.5"/>
			<path clip-path="url(#XMLID_22_)" fill="none" stroke="#B5935B" stroke-miterlimit="10" d="M9.6,96.1c0,0,9.2-3.8,18.7-0.5"/>
			<circle clip-path="url(#XMLID_22_)" fill="#F4F4F4" stroke="#B5935B" stroke-miterlimit="10" cx="10.5" cy="95.5" r="1.4"/>
			<circle clip-path="url(#XMLID_22_)" fill="#F4F4F4" stroke="#B5935B" stroke-miterlimit="10" cx="9.9" cy="86.4" r="1.4"/>
			<use xlink:href="#XMLID_384_"  overflow="visible" fill="none" stroke="#B5935B" stroke-miterlimit="10"/>
		</g>
		<g>
			<defs>
				<path id="XMLID_434_" d="M38.2,76.9v38.4c0,0,4.7-2.4,11.9-2.4s15.1,6.4,15.1,6.4v-42C65.2,77.3,54.2,73.6,38.2,76.9z"/>
			</defs>
			<use xlink:href="#XMLID_434_"  overflow="visible" fill="#F4F4F4"/>
			<clipPath id="XMLID_23_">
				<use xlink:href="#XMLID_434_"  overflow="visible"/>
			</clipPath>
			<path clip-path="url(#XMLID_23_)" fill="#F4F4F4" stroke="#B5935B" stroke-miterlimit="10" d="M41.6,87.1c0,0,9.3-5.2,18.7,0.5"
				/>
			<path clip-path="url(#XMLID_23_)" fill="#F4F4F4" stroke="#B5935B" stroke-miterlimit="10" d="M41.3,92.3c0,0,9.3-5.2,18.7,0.5"
				/>
			<path clip-path="url(#XMLID_23_)" fill="#F4F4F4" stroke="#B5935B" stroke-miterlimit="10" d="M40.9,97.4c0,0,9.3-5.2,18.7,0.5"
				/>
			<use xlink:href="#XMLID_434_"  overflow="visible" fill="none" stroke="#B5935B" stroke-miterlimit="10"/>
		</g>
		<polyline fill="none" stroke="#B5935B" stroke-miterlimit="10" points="4.7,122.2 68.2,122.2 68.2,78.7 		"/>
		<path fill="#B5935B" stroke="#B5935B" stroke-miterlimit="10" d="M38.2,117.8v2.4h24.3c0,0-8.2-4.7-13.6-4.7
			C42.1,115.5,38.2,117.8,38.2,117.8z"/>
		<path fill="#B5935B" stroke="#B5935B" stroke-miterlimit="10" d="M34.2,117.8v2.4H7.3c0,0,8.2-4.1,14.6-4.1
			C28.6,116,34.2,117.8,34.2,117.8z"/>
		<g>
			<polygon fill="#B5935B" stroke="#B5935B" stroke-miterlimit="10" points="29.6,106.1 25.4,103.2 21.3,106.1 21.3,68 29.6,68 			
				"/>
			<ellipse fill="#F4F4F4" stroke="#B5935B" stroke-miterlimit="10" cx="25.6" cy="75.9" rx="1.5" ry="1.5"/>
		</g>
		<path fill="#B5935B" stroke="#B5935B" stroke-miterlimit="10" d="M58,76l-20.1,32.3V76.9C37.9,76.9,52.1,74.4,58,76z"/>
	</g>
	<circle fill="#F4F4F4" stroke="#B5935B" stroke-miterlimit="10" cx="7.9" cy="129.9" r="1.8"/>
	<circle fill="#F4F4F4" stroke="#B5935B" stroke-miterlimit="10" cx="10.9" cy="139.6" r="1.3"/>
	<circle fill="#F4F4F4" stroke="#B5935B" stroke-miterlimit="10" cx="24.1" cy="158.3" r="1.3"/>
	<circle fill="#F4F4F4" stroke="#B5935B" stroke-miterlimit="10" cx="44.9" cy="169.4" r="1.3"/>
	<g>
		<g>
			<g>
				
					<ellipse fill="#041944" stroke="#B5935B" stroke-linecap="round" stroke-linejoin="round" stroke-miterlimit="10" cx="107.8" cy="187.6" rx="11" ry="11"/>
			</g>
			<g>
				<g>
					<defs>
						<circle id="XMLID_437_" cx="107.8" cy="187.6" r="8.2"/>
					</defs>
					<use xlink:href="#XMLID_437_"  overflow="visible" fill="#041944"/>
					<clipPath id="XMLID_24_">
						<use xlink:href="#XMLID_437_"  overflow="visible"/>
					</clipPath>
					
						<rect x="96.8" y="188.7" clip-path="url(#XMLID_24_)" fill="#041944" stroke="#B5935B" stroke-linecap="round" stroke-linejoin="round" stroke-miterlimit="10" width="25.9" height="8.2"/>
					
						<use xlink:href="#XMLID_437_"  overflow="visible" fill="none" stroke="#B5935B" stroke-linecap="round" stroke-linejoin="round" stroke-miterlimit="10"/>
				</g>
			</g>
		</g>
	</g>
	<g>
		
			<rect x="75.4" y="170.6" fill="#041944" stroke="#B5935B" stroke-linecap="round" stroke-linejoin="round" stroke-miterlimit="10" width="9.4" height="11.8"/>
		<g>
			
				<rect x="73.5" y="168.4" fill="#041944" stroke="#B5935B" stroke-linecap="round" stroke-linejoin="round" stroke-miterlimit="10" width="9.4" height="11.8"/>
			
				<line fill="none" stroke="#B5935B" stroke-linecap="round" stroke-linejoin="round" stroke-miterlimit="10" x1="76.2" y1="171.8" x2="80.2" y2="171.8"/>
			
				<line fill="none" stroke="#B5935B" stroke-linecap="round" stroke-linejoin="round" stroke-miterlimit="10" x1="76.3" y1="174" x2="80.1" y2="174"/>
		</g>
	</g>
	<circle fill="#041944" stroke="#B5935B" stroke-miterlimit="10" cx="131" cy="230.3" r="2"/>
	<circle fill="#041944" stroke="#B5935B" stroke-miterlimit="10" cx="154.3" cy="246.3" r="1.5"/>
	<circle fill="#041944" stroke="#B5935B" stroke-miterlimit="10" cx="267" cy="230" r="1.5"/>
	<circle fill="#041944" stroke="#B5935B" stroke-miterlimit="10" cx="212.8" cy="26.8" r="1.5"/>
	<circle fill="#041944" stroke="#B5935B" stroke-miterlimit="10" cx="280.8" cy="205.8" r="1.5"/>
	<circle fill="#041944" stroke="#B5935B" stroke-miterlimit="10" cx="377.5" cy="88.8" r="1.5"/>
	<g>
		<g>
			<g>
				
					<ellipse fill="#041944" stroke="#B5935B" stroke-linecap="round" stroke-linejoin="round" stroke-miterlimit="10" cx="166.1" cy="132.8" rx="7" ry="7.1"/>
			</g>
			<g>
				<g>
					<defs>
						<circle id="XMLID_383_" cx="166.1" cy="132.8" r="4.1"/>
					</defs>
					<use xlink:href="#XMLID_383_"  overflow="visible" fill="#041944"/>
					<clipPath id="XMLID_25_">
						<use xlink:href="#XMLID_383_"  overflow="visible"/>
					</clipPath>
					
						<rect x="160.6" y="133.4" clip-path="url(#XMLID_25_)" fill="#041944" stroke="#B5935B" stroke-linecap="round" stroke-linejoin="round" stroke-miterlimit="10" width="12.9" height="4.1"/>
					
						<use xlink:href="#XMLID_383_"  overflow="visible" fill="none" stroke="#B5935B" stroke-linecap="round" stroke-linejoin="round" stroke-miterlimit="10"/>
				</g>
			</g>
		</g>
	</g>
	<g>
		<g>
			<g>
				
					<ellipse fill="#041944" stroke="#B5935B" stroke-linecap="round" stroke-linejoin="round" stroke-miterlimit="10" cx="117.9" cy="152.6" rx="5.9" ry="6"/>
			</g>
			<g>
				<g>
					<defs>
						<circle id="XMLID_861_" cx="117.9" cy="152.6" r="3.4"/>
					</defs>
					<use xlink:href="#XMLID_861_"  overflow="visible" fill="#041944"/>
					<clipPath id="XMLID_26_">
						<use xlink:href="#XMLID_861_"  overflow="visible"/>
					</clipPath>
					
						<rect x="113.2" y="153" clip-path="url(#XMLID_26_)" fill="#041944" stroke="#B5935B" stroke-linecap="round" stroke-linejoin="round" stroke-miterlimit="10" width="10.8" height="3.4"/>
					
						<use xlink:href="#XMLID_861_"  overflow="visible" fill="none" stroke="#B5935B" stroke-linecap="round" stroke-linejoin="round" stroke-miterlimit="10"/>
				</g>
			</g>
		</g>
	</g>
	<g>
		<g>
			<g>
				
					<ellipse fill="#041944" stroke="#B5935B" stroke-linecap="round" stroke-linejoin="round" stroke-miterlimit="10" cx="89.2" cy="153.8" rx="2.5" ry="2.6"/>
			</g>
		</g>
	</g>
	<g>
		<defs>
			<rect id="XMLID_860_" x="105.9" y="192.1" width="11.8" height="15.2"/>
		</defs>
		<use xlink:href="#XMLID_860_"  overflow="visible" fill="#041944"/>
		<clipPath id="XMLID_27_">
			<use xlink:href="#XMLID_860_"  overflow="visible"/>
		</clipPath>
		
			<line clip-path="url(#XMLID_27_)" fill="none" stroke="#B5935B" stroke-linecap="round" stroke-linejoin="round" stroke-miterlimit="10" x1="108.9" y1="195.6" x2="114.3" y2="195.6"/>
		
			<line clip-path="url(#XMLID_27_)" fill="none" stroke="#B5935B" stroke-linecap="round" stroke-linejoin="round" stroke-miterlimit="10" x1="109.1" y1="198.4" x2="113.8" y2="198.4"/>
		
			<use xlink:href="#XMLID_860_"  overflow="visible" fill="none" stroke="#B5935B" stroke-linecap="round" stroke-linejoin="round" stroke-miterlimit="10"/>
	</g>
</g>
</svg>
