<?xml version="1.0" encoding="utf-8"?>
<!-- Generator: Adobe Illustrator 18.1.1, SVG Export Plug-In . SVG Version: 6.00 Build 0)  -->
<!DOCTYPE svg PUBLIC "-//W3C//DTD SVG 1.1//EN" "http://www.w3.org/Graphics/SVG/1.1/DTD/svg11.dtd" [
	<!ENTITY ns_extend "http://ns.adobe.com/Extensibility/1.0/">
	<!ENTITY ns_ai "http://ns.adobe.com/AdobeIllustrator/10.0/">
	<!ENTITY ns_graphs "http://ns.adobe.com/Graphs/1.0/">
	<!ENTITY ns_vars "http://ns.adobe.com/Variables/1.0/">
	<!ENTITY ns_imrep "http://ns.adobe.com/ImageReplacement/1.0/">
	<!ENTITY ns_sfw "http://ns.adobe.com/SaveForWeb/1.0/">
	<!ENTITY ns_custom "http://ns.adobe.com/GenericCustomNamespace/1.0/">
	<!ENTITY ns_adobe_xpath "http://ns.adobe.com/XPath/1.0/">
]>
<svg version="1.1" id="Layer_1" xmlns:x="&ns_extend;" xmlns:i="&ns_ai;" xmlns:graph="&ns_graphs;"
	 xmlns="http://www.w3.org/2000/svg" xmlns:xlink="http://www.w3.org/1999/xlink" x="0px" y="0px" viewBox="0 0 32 32.1"
	 enable-background="new 0 0 32 32.1" xml:space="preserve">
<metadata>
	<sfw  xmlns="&ns_sfw;">
		<slices></slices>
		<sliceSourceBounds  width="16383" height="32.1" x="-7516" y="-391" bottomLeftOrigin="true"></sliceSourceBounds>
	</sfw>
</metadata>
<g>
	
		<ellipse fill="#FFFFFF" stroke="#B5935B" stroke-width="2" stroke-linejoin="round" stroke-miterlimit="10" cx="16" cy="16" rx="15" ry="15"/>
	<ellipse fill="#FFFFFF" stroke="#B5935B" stroke-linejoin="round" stroke-miterlimit="10" cx="16" cy="16" rx="11.1" ry="11"/>
</g>
<path fill="#B5935B" d="M19.2,13c0,0.6-0.2,1.1-0.5,1.4c-0.3,0.4-0.8,0.6-1.4,0.8v0c0.7,0.1,1.3,0.3,1.6,0.7
	c0.4,0.4,0.5,0.8,0.5,1.5c0,0.9-0.3,1.6-0.9,2c-0.6,0.5-1.5,0.7-2.6,0.7c-1,0-1.9-0.2-2.6-0.5v-1.3c0.4,0.2,0.8,0.3,1.2,0.4
	c0.4,0.1,0.8,0.2,1.2,0.2c0.7,0,1.2-0.1,1.6-0.4c0.3-0.3,0.5-0.7,0.5-1.2c0-0.5-0.2-0.8-0.6-1.1c-0.4-0.2-1-0.3-1.8-0.3h-0.8v-1.2
	h0.8c1.5,0,2.2-0.5,2.2-1.5c0-0.4-0.1-0.7-0.4-0.9C17,12.1,16.7,12,16.2,12c-0.3,0-0.7,0-1,0.1c-0.3,0.1-0.7,0.3-1.1,0.6l-0.7-1
	c0.8-0.6,1.8-0.9,2.9-0.9c0.9,0,1.6,0.2,2.2,0.6C18.9,11.8,19.2,12.3,19.2,13z"/>
</svg>
