<?xml version="1.0" encoding="utf-8"?>
<!-- Generator: Adobe Illustrator 18.1.1, SVG Export Plug-In . SVG Version: 6.00 Build 0)  -->
<!DOCTYPE svg PUBLIC "-//W3C//DTD SVG 1.1//EN" "http://www.w3.org/Graphics/SVG/1.1/DTD/svg11.dtd" [
	<!ENTITY ns_extend "http://ns.adobe.com/Extensibility/1.0/">
	<!ENTITY ns_ai "http://ns.adobe.com/AdobeIllustrator/10.0/">
	<!ENTITY ns_graphs "http://ns.adobe.com/Graphs/1.0/">
	<!ENTITY ns_vars "http://ns.adobe.com/Variables/1.0/">
	<!ENTITY ns_imrep "http://ns.adobe.com/ImageReplacement/1.0/">
	<!ENTITY ns_sfw "http://ns.adobe.com/SaveForWeb/1.0/">
	<!ENTITY ns_custom "http://ns.adobe.com/GenericCustomNamespace/1.0/">
	<!ENTITY ns_adobe_xpath "http://ns.adobe.com/XPath/1.0/">
]>
<svg version="1.1" id="Layer_1" xmlns:x="&ns_extend;" xmlns:i="&ns_ai;" xmlns:graph="&ns_graphs;"
	 xmlns="http://www.w3.org/2000/svg" xmlns:xlink="http://www.w3.org/1999/xlink" x="0px" y="0px" viewBox="0 0 100.3 24.1"
	 enable-background="new 0 0 100.3 24.1" xml:space="preserve">
<metadata>
	<sfw  xmlns="&ns_sfw;">
		<slices></slices>
		<sliceSourceBounds  width="102.5" height="24.1" y="-386.9" x="623.5" bottomLeftOrigin="true"></sliceSourceBounds>
	</sfw>
</metadata>
<g>
	<line fill="none" stroke="#BBBBBB" stroke-linejoin="round" stroke-miterlimit="10" x1="1" y1="12.1" x2="79.5" y2="12.1"/>
	<g>
		<path fill="#FFFFFF" stroke="#BBBBBB" stroke-linejoin="round" stroke-miterlimit="10" d="M91.8,1.1c6.1,2,9.4,8.5,7.4,14.6
			S90.6,25,84.5,23s-9.4-8.5-7.4-14.6S85.7-0.9,91.8,1.1z"/>
		<g>
			<defs>
				<path id="XMLID_4881_" d="M90.6,4.5c4.2,1.4,6.5,5.9,5.1,10.1s-5.9,6.5-10.1,5.1c-4.2-1.4-6.5-5.9-5.1-10.1S86.4,3.1,90.6,4.5z"
					/>
			</defs>
			<use xlink:href="#XMLID_4881_"  overflow="visible" fill="#041944"/>
			<clipPath id="XMLID_2_">
				<use xlink:href="#XMLID_4881_"  overflow="visible"/>
			</clipPath>
			<g id="XMLID_4882_" clip-path="url(#XMLID_2_)">
				<defs>
					<rect id="XMLID_4883_" x="76.9" y="3.6" width="23.4" height="16.7"/>
				</defs>
				<use xlink:href="#XMLID_4883_"  overflow="visible" fill="#E4B86B"/>
				<clipPath id="XMLID_3_">
					<use xlink:href="#XMLID_4883_"  overflow="visible"/>
				</clipPath>
				<rect id="XMLID_4885_" x="73.4" y="9.2" clip-path="url(#XMLID_3_)" fill="#1782C5" width="29.1" height="5.9"/>
				<rect id="XMLID_4884_" x="74" y="3.6" clip-path="url(#XMLID_3_)" fill="#AE3C25" width="27.2" height="5.9"/>
			</g>
			
				<use xlink:href="#XMLID_4881_"  overflow="visible" fill="none" stroke="#BBBBBB" stroke-linejoin="round" stroke-miterlimit="10"/>
		</g>
	</g>
	<circle fill="#FFFFFF" stroke="#BBBBBB" stroke-linejoin="round" stroke-miterlimit="10" cx="3.5" cy="12.2" r="3"/>
</g>
</svg>
