<?xml version="1.0" encoding="utf-8"?>
<!-- Generator: Adobe Illustrator 18.1.1, SVG Export Plug-In . SVG Version: 6.00 Build 0)  -->
<!DOCTYPE svg PUBLIC "-//W3C//DTD SVG 1.1//EN" "http://www.w3.org/Graphics/SVG/1.1/DTD/svg11.dtd" [
	<!ENTITY ns_extend "http://ns.adobe.com/Extensibility/1.0/">
	<!ENTITY ns_ai "http://ns.adobe.com/AdobeIllustrator/10.0/">
	<!ENTITY ns_graphs "http://ns.adobe.com/Graphs/1.0/">
	<!ENTITY ns_vars "http://ns.adobe.com/Variables/1.0/">
	<!ENTITY ns_imrep "http://ns.adobe.com/ImageReplacement/1.0/">
	<!ENTITY ns_sfw "http://ns.adobe.com/SaveForWeb/1.0/">
	<!ENTITY ns_custom "http://ns.adobe.com/GenericCustomNamespace/1.0/">
	<!ENTITY ns_adobe_xpath "http://ns.adobe.com/XPath/1.0/">
]>
<svg version="1.1" id="Layer_1" xmlns:x="&ns_extend;" xmlns:i="&ns_ai;" xmlns:graph="&ns_graphs;"
	 xmlns="http://www.w3.org/2000/svg" xmlns:xlink="http://www.w3.org/1999/xlink" x="0px" y="0px" viewBox="0 0 96.1 24.1"
	 enable-background="new 0 0 96.1 24.1" xml:space="preserve">
<metadata>
	<sfw  xmlns="&ns_sfw;">
		<slices></slices>
		<sliceSourceBounds  width="96.1" height="24.1" y="-387.4" x="626.5" bottomLeftOrigin="true"></sliceSourceBounds>
	</sfw>
</metadata>
<g>
	<line fill="none" stroke="#BBBBBB" stroke-linejoin="round" stroke-miterlimit="10" x1="0" y1="11.3" x2="78.5" y2="11.3"/>
	<circle fill="#FFFFFF" stroke="#BBBBBB" stroke-linejoin="round" stroke-miterlimit="10" cx="3.5" cy="11.4" r="3"/>
	<g>
		<g>
			<path fill="#FFFFFF" d="M84.2,23.6c-1.2,0-2.4-0.2-3.6-0.6c-6-2-9.3-8.5-7.4-14.6c1.5-4.8,5.9-8,10.9-8c1.2,0,2.4,0.2,3.6,0.6
				c6,2,9.3,8.5,7.4,14.6C93.5,20.4,89.1,23.6,84.2,23.6z"/>
			<g>
				<path fill="#BBBBBB" d="M84.1,1c1.1,0,2.3,0.2,3.4,0.6c5.8,1.9,8.9,8.2,7,14c-1.5,4.7-5.8,7.6-10.4,7.6c-1.1,0-2.3-0.2-3.4-0.6
					c-5.8-1.9-8.9-8.2-7-14C75.2,4,79.5,1,84.1,1 M84.1,0C84.1,0,84.1,0,84.1,0c-5.2,0-9.8,3.3-11.4,8.3c-2.1,6.3,1.4,13.1,7.7,15.2
					c1.2,0.4,2.5,0.6,3.7,0.6c5.2,0,9.8-3.3,11.4-8.3c2.1-6.3-1.4-13.1-7.7-15.2C86.7,0.2,85.4,0,84.1,0L84.1,0z"/>
			</g>
		</g>
		<g>
			<defs>
				<path id="XMLID_4486_" d="M86.6,4.5c4.2,1.4,6.5,5.9,5.1,10.1s-5.9,6.5-10.1,5.1c-4.2-1.4-6.5-5.9-5.1-10.1
					C77.9,5.4,82.4,3.1,86.6,4.5z"/>
			</defs>
			<use xlink:href="#XMLID_4486_"  overflow="visible" fill="#00B0CA"/>
			<clipPath id="XMLID_2_">
				<use xlink:href="#XMLID_4486_"  overflow="visible"/>
			</clipPath>
			<g id="XMLID_4688_" clip-path="url(#XMLID_2_)">
				<g id="XMLID_4689_">
					<path id="XMLID_4758_" fill-rule="evenodd" clip-rule="evenodd" fill="#F6DB6B" d="M84.2,15.3c-2.2,0-3.8-1.8-3.9-3.6
						c0,0-0.1,0-0.1,0c0,0.2,0.1,0.8,0,0.7c-0.1-0.1-0.5-1.2-0.5-1c-0.1,0.2,0.5,1.4,0.4,1.4c-0.1,0.1-0.7-1.2-0.8-1.1
						c-0.2,0.4,0.8,1.6,0.8,1.7c0,0.2-0.7-0.7-0.8-0.6c-0.1,0.2,0.8,0.9,0.8,1c0.1,0.2-0.5-0.3-0.5-0.1c0,0.1,0.3,0.4,0.5,0.5
						c0.2,0.1,0.3,0.1,0.3,0.2c0,0.1-0.4,0-0.4,0c0,0.2,0.5,0.1,0.5,0.2s-0.3,0-0.3,0.1c0,0.1,0.4,0.1,0.4,0.2c0,0.1-0.2,0-0.2,0.1
						c0,0.1,0.4,0.1,0.5,0.1c0.1,0.1-0.3,0,0,0.2c0.3,0.2,0.7,0.3,1.2,0.4c0.5,0.1,0.7,0,0.8,0c0,0-0.2,0-0.6,0
						c-0.4-0.1-0.8-0.3-1-0.4c-0.1,0,0.2-0.1,0.1-0.2c-0.1-0.1-0.3,0-0.3-0.1c0-0.1,0.1-0.1,0.1-0.1c0,0-0.3-0.1-0.3-0.2
						c0-0.1,0.1-0.1,0.1-0.1c0,0-0.2-0.1-0.2-0.1c0,0,0.2,0,0.1-0.1c-0.1-0.1-0.4-0.1-0.4-0.2c-0.1-0.1,0.2,0,0.1-0.1
						c0-0.1-0.3-0.2-0.4-0.3c0-0.1,0.2,0,0.2-0.1c0-0.1-0.1,0-0.2-0.3c0-0.1,0.2,0,0.2,0l0-0.1c0,0,0.2,0.1,0.5,0.5
						c0.3,0.3,0.4,0.6,0.6,0.9c0.1,0.1,0.1,0,0.4,0.1c0.3,0.2,0.4,0.3,0.7,0.6c0,0,0.2,0,0.8,0.1c0.3,0.1,0.4,0.2,0.4,0.2
						C83.9,15.6,84.1,15.5,84.2,15.3C84.2,15.3,84.2,15.4,84.2,15.3C84.3,15.3,84.2,15.3,84.2,15.3L84.2,15.3z"/>
					<path id="XMLID_4757_" fill-rule="evenodd" clip-rule="evenodd" fill="#F6DB6B" d="M85.7,16C85.6,16,85.6,16,85.7,16
						c-0.1,0.1-0.1,0.2-0.2,0.2c-0.1,0,0,0.1,0,0.1l-0.2,0c-0.3,0.2-0.8,0.3-1.3,0.2c0,0-0.1,0.1-0.2,0.2c-0.1,0.1-0.2,0.1-0.2,0.2
						s0.1,0.1,0.1,0.1c0.1,0,0.2-0.1,0.2-0.1s0,0.1,0.1,0.1c0.1,0,0.2,0,0.2,0s0.1,0.1,0.2,0c0.1,0,0.2-0.1,0.2-0.1s0,0.1,0.1,0.1
						s0.2-0.1,0.2-0.1s0.1,0.1,0.2,0.1c0.1,0,0.2-0.1,0.2-0.1s0.1,0,0.2,0c0.1,0,0.2-0.1,0.2-0.1s0.1,0.1,0.2,0
						c0.1,0,0.1-0.1,0.1-0.1s0.2,0.1,0.4,0c0.1,0,0.1-0.2,0.1-0.2s0.6,0.1,0.6-0.3C87.1,16,86.1,16,85.7,16L85.7,16z"/>
					<path id="XMLID_4756_" fill-rule="evenodd" clip-rule="evenodd" fill="#F6DB6B" d="M84.4,15.5c0,0,0.2-0.1,0.5-0.1
						c0.6-0.1,0.8-0.1,0.8-0.1c0.5-0.5,0.8-0.6,1.1-0.7c0.3-0.2,0.4-0.5,0.6-0.9c0.3-0.3,0.5-0.4,0.5-0.4l0,0.1c0,0,0.2-0.1,0.1,0
						c0,0.1-0.1,0.3-0.1,0.4c0,0.1,0.2,0,0.2,0c0,0.2-0.2,0.2-0.3,0.3c-0.1,0.1,0.2,0,0.1,0.1c-0.1,0.1-0.3,0.2-0.4,0.3
						c-0.1,0,0.1,0,0.1,0.1c0,0-0.3,0.1-0.3,0.2c0,0,0.1,0.1,0,0.1c-0.1,0.1-0.3,0.1-0.3,0.1c0,0,0,0.1,0,0.1
						c-0.1,0.1-0.1,0-0.2,0.1c0,0,0.1,0.1,0,0.2c-0.1,0-0.2,0.1-0.4,0.2c0,0-0.2,0.1-0.4,0.1c-0.1,0-0.5,0.1-0.5,0.1
						c0,0,0.3,0,0.8-0.1c0.2,0,0.4-0.1,0.7-0.2c0.4-0.1-0.1-0.1,0-0.2c0.1-0.1,0.5,0,0.5-0.1c0-0.1-0.2-0.1-0.2-0.1
						c0,0,0.4,0,0.5-0.2c0-0.1-0.3,0-0.2-0.1c0.1-0.1,0.4-0.1,0.4-0.3c0-0.1-0.3,0-0.3-0.1c0,0,0.1-0.1,0.3-0.1
						c0.2-0.1,0.5-0.4,0.5-0.5c0-0.2-0.6,0.4-0.6,0.2c0-0.1,1-0.8,0.8-1c-0.1-0.1-0.8,0.7-0.8,0.5c0-0.1,1.1-1.3,0.9-1.6
						c-0.1-0.1-0.9,1.4-1,1.3c0,0,0.7-1.5,0.6-1.7c-0.1-0.1-0.2,0.2-0.3,0.4c-0.1,0.3-0.3,0.6-0.3,0.6c0,0,0-0.6,0-0.8
						c0-0.1-0.1,0-0.1,0c-0.1,1.9-2,3.4-3.4,3.6c-0.4,0.1-0.5,0.2-0.9,0.5c-0.1,0.1-0.4,0.1-0.5,0.2s-0.3,0.3-0.4,0.4
						c0,0,0,0.2,0.1,0.2c0,0,0-0.1,0.1-0.1c0,0,0,0,0.1,0c0.1,0,0.1-0.1,0.1-0.1s1,0,1.5,0c0.1,0,0.2,0,0.3-0.1c0,0-0.1,0-0.2,0
						c-0.3,0-0.7,0-1,0c0,0,0,0,0-0.1c0,0,0.2-0.2,0.2-0.2h-0.1c0,0-0.1,0.1-0.1,0.1c0,0-0.1,0,0,0C83.8,15.8,84.4,15.5,84.4,15.5
						L84.4,15.5z"/>
					<path id="XMLID_4755_" fill-rule="evenodd" clip-rule="evenodd" fill="#F6DB6B" d="M83.4,16.2C83.4,16.2,83.3,16.2,83.4,16.2
						c-0.1,0-0.1,0-0.1,0C83.3,16.2,83.3,16.2,83.4,16.2C83.4,16.2,83.4,16.2,83.4,16.2L83.4,16.2z"/>
					<g id="XMLID_4753_">
						<path id="XMLID_4754_" fill-rule="evenodd" clip-rule="evenodd" fill="#F6DB6B" d="M84.7,8.6c0.1,0,0.2,0,0.2-0.1
							c0-0.1,0-0.8,0-0.8s-0.3,0.6-0.3,0.7C84.6,8.5,84.6,8.6,84.7,8.6L84.7,8.6L84.7,8.6z"/>
					</g>
					<g id="XMLID_4751_">
						<path id="XMLID_4752_" fill-rule="evenodd" clip-rule="evenodd" fill="#F6DB6B" d="M85.2,8.8c0.1,0,0.2,0,0.2-0.1
							c0-0.1,0.1-0.7,0.1-0.7s-0.4,0.5-0.4,0.6C85.1,8.6,85.1,8.7,85.2,8.8L85.2,8.8L85.2,8.8z"/>
					</g>
					<g id="XMLID_4749_">
						<path id="XMLID_4750_" fill-rule="evenodd" clip-rule="evenodd" fill="#F6DB6B" d="M85.6,9c0.1,0.1,0.2,0,0.2,0
							c0.1-0.1,0.3-0.7,0.3-0.7s-0.5,0.4-0.6,0.5C85.5,8.8,85.5,8.9,85.6,9L85.6,9L85.6,9z"/>
					</g>
					<g id="XMLID_4747_">
						<path id="XMLID_4748_" fill-rule="evenodd" clip-rule="evenodd" fill="#F6DB6B" d="M86,9.3c0.1,0.1,0.2,0.1,0.2,0
							c0.1-0.1,0.4-0.6,0.4-0.6S86.1,9,86,9C85.9,9.1,85.9,9.2,86,9.3L86,9.3L86,9.3z"/>
					</g>
					<g id="XMLID_4745_">
						<path id="XMLID_4746_" fill-rule="evenodd" clip-rule="evenodd" fill="#F6DB6B" d="M86.3,9.7c0.1,0.1,0.2,0.1,0.2,0
							C86.6,9.6,87,9.2,87,9.2s-0.6,0.2-0.7,0.3C86.3,9.5,86.2,9.6,86.3,9.7L86.3,9.7L86.3,9.7z"/>
					</g>
					<g id="XMLID_4743_">
						<path id="XMLID_4744_" fill-rule="evenodd" clip-rule="evenodd" fill="#F6DB6B" d="M86.5,10.1c0.1,0.1,0.1,0.1,0.2,0.1
							c0.1,0,0.6-0.4,0.6-0.4s-0.6,0.1-0.7,0.1C86.5,9.9,86.5,10,86.5,10.1L86.5,10.1L86.5,10.1z"/>
					</g>
					<g id="XMLID_4741_">
						<path id="XMLID_4742_" fill-rule="evenodd" clip-rule="evenodd" fill="#F6DB6B" d="M86.7,10.5c0,0.1,0.1,0.2,0.2,0.1
							c0.1,0,0.7-0.3,0.7-0.3s-0.6-0.1-0.8,0C86.7,10.4,86.6,10.4,86.7,10.5L86.7,10.5L86.7,10.5z"/>
					</g>
					<g id="XMLID_4739_">
						<path id="XMLID_4740_" fill-rule="evenodd" clip-rule="evenodd" fill="#F6DB6B" d="M86.7,11c0,0.1,0.1,0.2,0.2,0.2
							c0.1,0,0.7-0.2,0.7-0.2s-0.6-0.2-0.7-0.2C86.8,10.8,86.7,10.9,86.7,11L86.7,11L86.7,11z"/>
					</g>
					<g id="XMLID_4737_">
						<path id="XMLID_4738_" fill-rule="evenodd" clip-rule="evenodd" fill="#F6DB6B" d="M86.7,11.5c0,0.1,0,0.2,0.1,0.2
							c0.1,0,0.8,0,0.8,0s-0.6-0.3-0.7-0.3C86.8,11.3,86.7,11.4,86.7,11.5L86.7,11.5L86.7,11.5z"/>
					</g>
					<g id="XMLID_4735_">
						<path id="XMLID_4736_" fill-rule="evenodd" clip-rule="evenodd" fill="#F6DB6B" d="M86.5,12c0,0.1,0,0.2,0.1,0.2
							c0.1,0,0.7,0.1,0.7,0.1s-0.5-0.4-0.6-0.4C86.7,11.8,86.6,11.8,86.5,12L86.5,12L86.5,12z"/>
					</g>
					<g id="XMLID_4733_">
						<path id="XMLID_4734_" fill-rule="evenodd" clip-rule="evenodd" fill="#F6DB6B" d="M86.3,12.4c-0.1,0.1,0,0.2,0,0.2
							c0.1,0.1,0.7,0.3,0.7,0.3s-0.4-0.5-0.5-0.6C86.5,12.3,86.4,12.3,86.3,12.4L86.3,12.4L86.3,12.4z"/>
					</g>
					<g id="XMLID_4731_">
						<path id="XMLID_4732_" fill-rule="evenodd" clip-rule="evenodd" fill="#F6DB6B" d="M86,12.8c-0.1,0.1-0.1,0.2,0,0.2
							c0.1,0.1,0.6,0.4,0.6,0.4s-0.3-0.6-0.4-0.6C86.2,12.7,86.1,12.7,86,12.8L86,12.8L86,12.8z"/>
					</g>
					<g id="XMLID_4729_">
						<path id="XMLID_4730_" fill-rule="evenodd" clip-rule="evenodd" fill="#F6DB6B" d="M85.6,13.1c-0.1,0.1-0.1,0.2,0,0.2
							c0.1,0.1,0.6,0.5,0.6,0.5s-0.2-0.6-0.3-0.7C85.8,13,85.7,13,85.6,13.1L85.6,13.1L85.6,13.1z"/>
					</g>
					<g id="XMLID_4727_">
						<path id="XMLID_4728_" fill-rule="evenodd" clip-rule="evenodd" fill="#F6DB6B" d="M85.2,13.3c-0.1,0.1-0.1,0.1-0.1,0.2
							c0,0.1,0.4,0.6,0.4,0.6s-0.1-0.6-0.1-0.7C85.4,13.3,85.3,13.2,85.2,13.3L85.2,13.3L85.2,13.3z"/>
					</g>
					<g id="XMLID_4725_">
						<path id="XMLID_4726_" fill-rule="evenodd" clip-rule="evenodd" fill="#F6DB6B" d="M82.9,13.1c-0.1-0.1-0.2,0-0.2,0
							c-0.1,0.1-0.3,0.7-0.3,0.7s0.5-0.4,0.6-0.5C83,13.2,83,13.1,82.9,13.1L82.9,13.1L82.9,13.1z"/>
					</g>
					<g id="XMLID_4723_">
						<path id="XMLID_4724_" fill-rule="evenodd" clip-rule="evenodd" fill="#F6DB6B" d="M82.5,12.8c-0.1-0.1-0.2-0.1-0.2,0
							c-0.1,0.1-0.4,0.6-0.4,0.6s0.6-0.3,0.6-0.4C82.6,12.9,82.6,12.8,82.5,12.8L82.5,12.8L82.5,12.8z"/>
					</g>
					<g id="XMLID_4721_">
						<path id="XMLID_4722_" fill-rule="evenodd" clip-rule="evenodd" fill="#F6DB6B" d="M82.2,12.4c-0.1-0.1-0.2-0.1-0.2,0
							c-0.1,0.1-0.5,0.6-0.5,0.6s0.6-0.2,0.7-0.3C82.3,12.6,82.3,12.5,82.2,12.4L82.2,12.4L82.2,12.4z"/>
					</g>
					<g id="XMLID_4719_">
						<path id="XMLID_4720_" fill-rule="evenodd" clip-rule="evenodd" fill="#F6DB6B" d="M82,12c-0.1-0.1-0.1-0.1-0.2-0.1
							c-0.1,0-0.6,0.4-0.6,0.4s0.6-0.1,0.7-0.1C82,12.2,82,12.1,82,12L82,12L82,12z"/>
					</g>
					<g id="XMLID_4717_">
						<path id="XMLID_4718_" fill-rule="evenodd" clip-rule="evenodd" fill="#F6DB6B" d="M81.9,11.5c0-0.1-0.1-0.2-0.2-0.1
							c-0.1,0-0.7,0.3-0.7,0.3s0.6,0.1,0.8,0C81.8,11.7,81.9,11.6,81.9,11.5L81.9,11.5L81.9,11.5z"/>
					</g>
					<g id="XMLID_4715_">
						<path id="XMLID_4716_" fill-rule="evenodd" clip-rule="evenodd" fill="#F6DB6B" d="M81.8,11c0-0.1-0.1-0.2-0.2-0.2
							c-0.1,0-0.7,0.2-0.7,0.2s0.6,0.2,0.7,0.2C81.7,11.2,81.8,11.2,81.8,11L81.8,11L81.8,11z"/>
					</g>
					<g id="XMLID_4713_">
						<path id="XMLID_4714_" fill-rule="evenodd" clip-rule="evenodd" fill="#F6DB6B" d="M81.9,10.5c0-0.1,0-0.2-0.1-0.2
							c-0.1,0-0.8,0-0.8,0s0.6,0.3,0.7,0.3C81.7,10.7,81.8,10.7,81.9,10.5L81.9,10.5L81.9,10.5z"/>
					</g>
					<g id="XMLID_4711_">
						<path id="XMLID_4712_" fill-rule="evenodd" clip-rule="evenodd" fill="#F6DB6B" d="M82,10.1c0-0.1,0-0.2-0.1-0.2
							c-0.1,0-0.7-0.1-0.7-0.1s0.5,0.4,0.6,0.4C81.9,10.2,81.9,10.2,82,10.1L82,10.1L82,10.1z"/>
					</g>
					<g id="XMLID_4709_">
						<path id="XMLID_4710_" fill-rule="evenodd" clip-rule="evenodd" fill="#F6DB6B" d="M82.2,9.7c0.1-0.1,0-0.2,0-0.2
							c-0.1-0.1-0.7-0.3-0.7-0.3s0.4,0.5,0.5,0.6C82.1,9.8,82.2,9.8,82.2,9.7L82.2,9.7L82.2,9.7z"/>
					</g>
					<g id="XMLID_4707_">
						<path id="XMLID_4708_" fill-rule="evenodd" clip-rule="evenodd" fill="#F6DB6B" d="M82.5,9.3c0.1-0.1,0.1-0.2,0-0.2
							c-0.1-0.1-0.6-0.4-0.6-0.4s0.3,0.6,0.4,0.6C82.3,9.4,82.4,9.4,82.5,9.3L82.5,9.3L82.5,9.3z"/>
					</g>
					<circle id="XMLID_4706_" fill-rule="evenodd" clip-rule="evenodd" fill="#F6DB6B" cx="84.3" cy="11" r="2.2"/>
					<g id="XMLID_4704_">
						<path id="XMLID_4705_" fill-rule="evenodd" clip-rule="evenodd" fill="#F6DB6B" d="M84.3,8.6c0.1,0,0.2-0.1,0.2-0.2
							c0-0.1-0.2-0.7-0.2-0.7s-0.2,0.6-0.2,0.7C84.1,8.5,84.1,8.6,84.3,8.6L84.3,8.6L84.3,8.6z"/>
					</g>
					<g id="XMLID_4702_">
						<path id="XMLID_4703_" fill-rule="evenodd" clip-rule="evenodd" fill="#F6DB6B" d="M84.7,13.4c-0.1,0-0.2,0.1-0.1,0.2
							c0,0.1,0.3,0.7,0.3,0.7s0.1-0.6,0-0.8C84.9,13.5,84.9,13.4,84.7,13.4L84.7,13.4L84.7,13.4z"/>
					</g>
					<g id="XMLID_4700_">
						<path id="XMLID_4701_" fill-rule="evenodd" clip-rule="evenodd" fill="#F6DB6B" d="M84.3,13.5c-0.1,0-0.2,0.1-0.2,0.2
							c0,0.1,0.2,0.7,0.2,0.7s0.2-0.6,0.2-0.7C84.4,13.5,84.4,13.5,84.3,13.5L84.3,13.5L84.3,13.5z"/>
					</g>
					<g id="XMLID_4698_">
						<path id="XMLID_4699_" fill-rule="evenodd" clip-rule="evenodd" fill="#F6DB6B" d="M83.8,13.4c-0.1,0-0.2,0-0.2,0.1
							c0,0.1,0,0.8,0,0.8s0.3-0.6,0.3-0.7C83.9,13.5,83.9,13.4,83.8,13.4L83.8,13.4L83.8,13.4z"/>
					</g>
					<g id="XMLID_4696_">
						<path id="XMLID_4697_" fill-rule="evenodd" clip-rule="evenodd" fill="#F6DB6B" d="M83.3,13.3c-0.1,0-0.2,0-0.2,0.1
							c0,0.1-0.1,0.7-0.1,0.7s0.4-0.5,0.4-0.6C83.5,13.4,83.4,13.3,83.3,13.3L83.3,13.3L83.3,13.3z"/>
					</g>
					<g id="XMLID_4694_">
						<path id="XMLID_4695_" fill-rule="evenodd" clip-rule="evenodd" fill="#F6DB6B" d="M82.9,9c0.1-0.1,0.1-0.2,0-0.2
							c-0.1-0.1-0.6-0.5-0.6-0.5s0.2,0.6,0.3,0.7C82.7,9,82.8,9.1,82.9,9L82.9,9L82.9,9z"/>
					</g>
					<g id="XMLID_4692_">
						<path id="XMLID_4693_" fill-rule="evenodd" clip-rule="evenodd" fill="#F6DB6B" d="M83.3,8.8c0.1-0.1,0.1-0.1,0.1-0.2
							c0-0.1-0.4-0.6-0.4-0.6s0.1,0.6,0.1,0.7C83.1,8.8,83.2,8.8,83.3,8.8L83.3,8.8L83.3,8.8z"/>
					</g>
					<g id="XMLID_4690_">
						<path id="XMLID_4691_" fill-rule="evenodd" clip-rule="evenodd" fill="#F6DB6B" d="M83.8,8.6c0.1,0,0.2-0.1,0.1-0.2
							c0-0.1-0.3-0.7-0.3-0.7s-0.1,0.6,0,0.8C83.6,8.6,83.7,8.7,83.8,8.6L83.8,8.6L83.8,8.6z"/>
					</g>
				</g>
			</g>
			
				<use xlink:href="#XMLID_4486_"  overflow="visible" fill="none" stroke="#BBBBBB" stroke-linejoin="round" stroke-miterlimit="10"/>
		</g>
	</g>
</g>
</svg>
