<?xml version="1.0" encoding="utf-8"?>
<!-- Generator: Adobe Illustrator 18.1.1, SVG Export Plug-In . SVG Version: 6.00 Build 0)  -->
<!DOCTYPE svg PUBLIC "-//W3C//DTD SVG 1.1//EN" "http://www.w3.org/Graphics/SVG/1.1/DTD/svg11.dtd" [
	<!ENTITY ns_extend "http://ns.adobe.com/Extensibility/1.0/">
	<!ENTITY ns_ai "http://ns.adobe.com/AdobeIllustrator/10.0/">
	<!ENTITY ns_graphs "http://ns.adobe.com/Graphs/1.0/">
	<!ENTITY ns_vars "http://ns.adobe.com/Variables/1.0/">
	<!ENTITY ns_imrep "http://ns.adobe.com/ImageReplacement/1.0/">
	<!ENTITY ns_sfw "http://ns.adobe.com/SaveForWeb/1.0/">
	<!ENTITY ns_custom "http://ns.adobe.com/GenericCustomNamespace/1.0/">
	<!ENTITY ns_adobe_xpath "http://ns.adobe.com/XPath/1.0/">
]>
<svg version="1.1" id="Layer_1" xmlns:x="&ns_extend;" xmlns:i="&ns_ai;" xmlns:graph="&ns_graphs;"
	 xmlns="http://www.w3.org/2000/svg" xmlns:xlink="http://www.w3.org/1999/xlink" x="0px" y="0px" viewBox="0 0 131.4 24.1"
	 enable-background="new 0 0 131.4 24.1" xml:space="preserve">
<metadata>
	<sfw  xmlns="&ns_sfw;">
		<slices></slices>
		<sliceSourceBounds  width="131.4" height="24.1" y="-386.9" x="608.5" bottomLeftOrigin="true"></sliceSourceBounds>
	</sfw>
</metadata>
<g>
	<line fill="none" stroke="#BBBBBB" stroke-linejoin="round" stroke-miterlimit="10" x1="5.2" y1="12.1" x2="121.5" y2="12.1"/>
	<g>
		<path fill="#FFFFFF" stroke="#BBBBBB" stroke-linejoin="round" stroke-miterlimit="10" d="M122.9,1.1c6.1,2,9.4,8.5,7.4,14.6
			s-8.6,9.4-14.7,7.4s-9.4-8.5-7.4-14.6S116.8-0.9,122.9,1.1z"/>
		<g>
			<defs>
				<path id="XMLID_4761_" d="M121.7,4.5c4.2,1.4,6.5,5.9,5.1,10.1c-1.4,4.2-5.9,6.5-10.1,5.1c-4.2-1.4-6.5-5.9-5.1-10.1
					C113,5.4,117.5,3.1,121.7,4.5z"/>
			</defs>
			<use xlink:href="#XMLID_4761_"  overflow="visible" fill="#FFFFFF"/>
			<clipPath id="XMLID_2_">
				<use xlink:href="#XMLID_4761_"  overflow="visible"/>
			</clipPath>
			<g id="XMLID_4762_" clip-path="url(#XMLID_2_)">
				<g id="XMLID_4785_">
					<defs>
						<rect id="XMLID_4786_" x="106.8" y="3.4" width="24.7" height="17.7"/>
					</defs>
					<use xlink:href="#XMLID_4786_"  overflow="visible" fill="#EA2030"/>
					<clipPath id="XMLID_3_">
						<use xlink:href="#XMLID_4786_"  overflow="visible"/>
					</clipPath>
				</g>
				<g id="XMLID_4763_">
					<g id="XMLID_4783_">
						<path id="XMLID_4784_" fill="#FDDF14" d="M119.4,9.1c0-0.6,0.5-0.9,0.5-1.7c0.4,0.4-0.2,1.3,0,1.7c0.1-0.5,0.6-0.8,0.8-1.6
							c0.3,0.5-0.4,1.2-0.3,1.7c0.2-0.5,0.8-0.7,1-1.4c0.2,0.5-0.6,1.1-0.6,1.7c0.3-0.5,0.9-0.6,1.2-1.3c0.1,0.6-0.8,1-0.8,1.5
							c0.3-0.4,1-0.5,1.4-1c0,0.6-0.9,0.9-1,1.4c0.4-0.4,1-0.3,1.5-0.8c-0.1,0.6-1.1,0.7-1.3,1.2c0.5-0.3,1-0.1,1.7-0.6
							c-0.2,0.5-1.2,0.6-1.4,1c0.5-0.2,1.1,0,1.7-0.3c-0.2,0.5-1.2,0.4-1.6,0.8c0.5-0.2,1,0.2,1.7,0c-0.3,0.5-1.3,0.2-1.7,0.5
							c0.5-0.1,1,0.3,1.7,0.3c-0.4,0.4-1.3,0-1.7,0.3c0.6,0,0.9,0.5,1.7,0.5c-0.4,0.4-1.3-0.2-1.7,0c0.5,0.1,0.8,0.6,1.6,0.8
							c-0.5,0.3-1.2-0.4-1.7-0.3c0.5,0.2,0.7,0.8,1.4,1c-0.5,0.2-1.1-0.6-1.7-0.6c0.5,0.3,0.6,0.9,1.3,1.2c-0.6,0.1-1-0.8-1.5-0.8
							c0.4,0.3,0.5,1,1,1.4c-0.6,0-0.9-0.9-1.4-1c0.4,0.4,0.3,1,0.8,1.5c-0.6-0.1-0.7-1.1-1.2-1.3c0.3,0.5,0.1,1,0.6,1.7
							c-0.5-0.2-0.6-1.2-1-1.4c0.2,0.5,0,1.1,0.3,1.7c-0.5-0.2-0.4-1.2-0.8-1.6c0.2,0.5-0.2,1,0,1.7c-0.5-0.3-0.2-1.3-0.5-1.7
							c0.1,0.5-0.3,1-0.3,1.7c-0.4-0.4,0-1.3-0.3-1.7c0,0.6-0.5,0.9-0.5,1.7c-0.4-0.4,0.2-1.3,0-1.7c-0.1,0.5-0.6,0.8-0.8,1.6
							c-0.3-0.5,0.4-1.2,0.3-1.7c-0.2,0.5-0.8,0.7-1,1.4c-0.2-0.5,0.6-1.1,0.6-1.7c-0.3,0.5-0.9,0.6-1.2,1.3c-0.1-0.6,0.8-1,0.8-1.5
							c-0.3,0.4-1,0.5-1.4,1c0-0.6,0.9-0.9,1-1.4c-0.4,0.4-1,0.3-1.5,0.8c0.1-0.6,1.1-0.7,1.3-1.2c-0.5,0.3-1,0.1-1.7,0.6
							c0.2-0.5,1.2-0.6,1.4-1c-0.5,0.2-1.1,0-1.7,0.3c0.2-0.5,1.2-0.4,1.6-0.8c-0.5,0.2-1-0.2-1.7,0c0.3-0.5,1.3-0.2,1.7-0.5
							c-0.5,0.1-1-0.3-1.7-0.3c0.4-0.4,1.3,0,1.7-0.3c-0.6,0-0.9-0.5-1.7-0.5c0.4-0.4,1.3,0.2,1.7,0c-0.5-0.1-0.8-0.6-1.6-0.8
							c0.5-0.3,1.2,0.4,1.7,0.3c-0.5-0.2-0.7-0.8-1.4-1c0.5-0.2,1.1,0.6,1.7,0.6c-0.5-0.3-0.6-0.9-1.3-1.2c0.6-0.1,1,0.8,1.5,0.8
							c-0.4-0.3-0.5-1-1-1.4c0.6,0,0.9,0.9,1.4,1c-0.4-0.4-0.3-1-0.8-1.5c0.6,0.1,0.7,1.1,1.2,1.3c-0.3-0.5-0.1-1-0.6-1.7
							c0.5,0.2,0.6,1.2,1,1.4c-0.2-0.5,0-1.1-0.3-1.7c0.5,0.2,0.4,1.2,0.8,1.6c-0.2-0.5,0.2-1,0-1.7c0.5,0.3,0.2,1.3,0.5,1.7
							c-0.1-0.5,0.3-1,0.3-1.7C119.5,7.7,119.1,8.6,119.4,9.1z"/>
					</g>
					<circle id="XMLID_4782_" fill="#EA2030" cx="119.1" cy="12.3" r="2.6"/>
					<g id="XMLID_4764_">
						<g id="XMLID_4765_">
							<path id="XMLID_4781_" fill="#FDDF14" d="M119.1,10c0.7,0,1.3,0.3,1.7,0.7c-0.7,0.1-1.2,0.2-1.7,0.5c-0.5-0.2-1-0.4-1.7-0.5
								C117.8,10.3,118.4,10,119.1,10z"/>
							<path id="XMLID_4780_" fill="#FDDF14" d="M118.9,11.3c-0.1,0-0.1,0.1-0.2,0.1c-0.4-0.2-0.9-0.4-1.5-0.4c0,0,0.1-0.1,0.1-0.1
								C118,10.9,118.5,11.1,118.9,11.3z"/>
							<path id="XMLID_4779_" fill="#FDDF14" d="M119.3,11.3c0.1,0,0.1,0.1,0.2,0.1c0.4-0.2,0.9-0.4,1.5-0.4c0,0-0.1-0.1-0.1-0.1
								C120.2,10.9,119.7,11.1,119.3,11.3z"/>
							<path id="XMLID_4778_" fill="#FDDF14" d="M117.2,11.1c0,0,0,0.1-0.1,0.1c0.6,0,1,0.1,1.4,0.4c0,0,0.1-0.1,0.1-0.1
								C118.2,11.2,117.7,11.1,117.2,11.1z"/>
							<path id="XMLID_4777_" fill="#FDDF14" d="M117.1,13.4c-0.2-0.3-0.3-0.7-0.3-1.1c0-0.3,0.1-0.7,0.2-0.9c0.5,0,1,0.1,1.4,0.3
								C117.9,12.1,117.5,12.7,117.1,13.4z"/>
							<path id="XMLID_4776_" fill="#FDDF14" d="M118.3,14.4c-0.1,0-0.2-0.1-0.3-0.1c0.1-0.9,0.3-1.7,0.9-2.3c0,0,0.1,0.1,0.1,0.1
								C118.5,12.7,118.3,13.5,118.3,14.4z"/>
							<path id="XMLID_4775_" fill="#FDDF14" d="M121,11.1c0,0,0,0.1,0.1,0.1c-0.6,0-1,0.1-1.4,0.4c0,0-0.1-0.1-0.1-0.1
								C120,11.2,120.5,11.1,121,11.1z"/>
							<path id="XMLID_4774_" fill="#FDDF14" d="M121.1,13.4c0.2-0.3,0.3-0.7,0.3-1.1c0-0.3-0.1-0.7-0.2-0.9c-0.5,0-1,0.1-1.4,0.3
								C120.3,12.1,120.7,12.7,121.1,13.4z"/>
							<path id="XMLID_4773_" fill="#FDDF14" d="M119.1,12.2c0.5,0.6,0.6,1.4,0.6,2.2c-0.2,0-0.4,0.1-0.6,0.1c-0.2,0-0.4,0-0.6-0.1
								C118.5,13.7,118.6,12.8,119.1,12.2z"/>
							<path id="XMLID_4772_" fill="#FDDF14" d="M119.9,14.4c0.1,0,0.2-0.1,0.3-0.1c-0.1-0.9-0.3-1.7-0.9-2.3c0,0-0.1,0.1-0.1,0.1
								C119.7,12.7,119.9,13.5,119.9,14.4z"/>
							<path id="XMLID_4771_" fill="#FDDF14" d="M118.7,11.9c0,0-0.1-0.1-0.2-0.1c-0.6,0.5-1,1.2-1.2,2c0.1,0.1,0.2,0.2,0.3,0.3
								C117.8,13.2,118.2,12.4,118.7,11.9z"/>
							<path id="XMLID_4770_" fill="#FDDF14" d="M119.5,11.9c0,0,0.1-0.1,0.2-0.1c0.6,0.5,1,1.2,1.2,2c-0.1,0.1-0.2,0.2-0.3,0.3
								C120.4,13.2,120,12.4,119.5,11.9z"/>
							<path id="XMLID_4769_" fill="#FDDF14" d="M119.1,11.4c0,0,0.1,0.1,0.2,0.1c0,0-0.1,0.1-0.2,0.1c0,0-0.1-0.1-0.2-0.1
								C119,11.5,119.1,11.4,119.1,11.4z"/>
							<path id="XMLID_4768_" fill="#FDDF14" d="M118.8,11.6c0,0-0.1,0.1-0.1,0.1c0.1,0,0.1,0.1,0.2,0.1c0,0,0.1-0.1,0.1-0.1
								C118.9,11.6,118.8,11.6,118.8,11.6z"/>
							<path id="XMLID_4767_" fill="#FDDF14" d="M119.4,11.6c0,0,0.1,0.1,0.1,0.1c-0.1,0-0.1,0.1-0.2,0.1c0,0-0.1-0.1-0.1-0.1
								C119.3,11.6,119.4,11.6,119.4,11.6z"/>
							<path id="XMLID_4766_" fill="#FDDF14" d="M119.1,11.8c0,0,0.1,0.1,0.1,0.1c0,0-0.1,0.1-0.1,0.1c0,0-0.1-0.1-0.1-0.1
								C119,11.9,119.1,11.8,119.1,11.8z"/>
						</g>
					</g>
				</g>
			</g>
			
				<use xlink:href="#XMLID_4761_"  overflow="visible" fill="none" stroke="#BBBBBB" stroke-linejoin="round" stroke-miterlimit="10"/>
		</g>
	</g>
	<circle fill="#FFFFFF" stroke="#BBBBBB" stroke-linejoin="round" stroke-miterlimit="10" cx="3.5" cy="12.2" r="3"/>
</g>
</svg>
