<?xml version="1.0" encoding="utf-8"?>
<!-- Generator: Adobe Illustrator 18.1.1, SVG Export Plug-In . SVG Version: 6.00 Build 0)  -->
<!DOCTYPE svg PUBLIC "-//W3C//DTD SVG 1.1//EN" "http://www.w3.org/Graphics/SVG/1.1/DTD/svg11.dtd" [
	<!ENTITY ns_extend "http://ns.adobe.com/Extensibility/1.0/">
	<!ENTITY ns_ai "http://ns.adobe.com/AdobeIllustrator/10.0/">
	<!ENTITY ns_graphs "http://ns.adobe.com/Graphs/1.0/">
	<!ENTITY ns_vars "http://ns.adobe.com/Variables/1.0/">
	<!ENTITY ns_imrep "http://ns.adobe.com/ImageReplacement/1.0/">
	<!ENTITY ns_sfw "http://ns.adobe.com/SaveForWeb/1.0/">
	<!ENTITY ns_custom "http://ns.adobe.com/GenericCustomNamespace/1.0/">
	<!ENTITY ns_adobe_xpath "http://ns.adobe.com/XPath/1.0/">
]>
<svg version="1.1" id="Layer_1" xmlns:x="&ns_extend;" xmlns:i="&ns_ai;" xmlns:graph="&ns_graphs;"
	 xmlns="http://www.w3.org/2000/svg" xmlns:xlink="http://www.w3.org/1999/xlink" x="0px" y="0px" viewBox="0 0 50.8 58.9"
	 enable-background="new 0 0 50.8 58.9" xml:space="preserve">
<metadata>
	<sfw  xmlns="&ns_sfw;">
		<slices></slices>
		<sliceSourceBounds  width="50.8" height="58.9" y="-405" x="650.1" bottomLeftOrigin="true"></sliceSourceBounds>
	</sfw>
</metadata>
<g>
	<g>
		<defs>
			<polygon id="XMLID_196_" points="0.5,52 5.3,58.4 50.3,58.4 50.3,3.4 40.9,3.3 			"/>
		</defs>
		<use xlink:href="#XMLID_196_"  overflow="visible" fill="#041944"/>
		<clipPath id="XMLID_2_">
			<use xlink:href="#XMLID_196_"  overflow="visible"/>
		</clipPath>
		
			<use xlink:href="#XMLID_196_"  overflow="visible" fill="none" stroke="#B5935B" stroke-linejoin="round" stroke-miterlimit="10"/>
	</g>
	<polygon fill="#B5935B" stroke="#B5935B" stroke-linejoin="round" stroke-miterlimit="10" points="43.6,1.9 46.7,6.2 46.7,54.7 
		6.5,54.7 3,49.7 	"/>
	
		<rect id="XMLID_195_" x="0.5" y="0.5" fill="#041944" stroke="#B5935B" stroke-linejoin="round" stroke-miterlimit="10" width="44.3" height="51.5"/>
	<g>
		<path fill="#B5935B" d="M30.8,27.8c-0.2-3-0.3-6.6-0.3-9.3h-0.1c-0.7,2.5-1.6,5.2-2.7,8.2l-3.8,10.4h-2.1l-3.5-10.2
			c-1-3-1.9-5.8-2.5-8.3h-0.1c-0.1,2.7-0.2,6.3-0.4,9.5l-0.6,9.2h-2.6l1.5-21.5h3.5l3.7,10.4c0.9,2.6,1.6,5,2.2,7.2H23
			c0.5-2.2,1.3-4.5,2.3-7.2l3.8-10.4h3.5L34,37.2h-2.7L30.8,27.8z"/>
	</g>
</g>
</svg>
