<?xml version="1.0" encoding="utf-8"?>
<!-- Generator: Adobe Illustrator 18.1.1, SVG Export Plug-In . SVG Version: 6.00 Build 0)  -->
<!DOCTYPE svg PUBLIC "-//W3C//DTD SVG 1.1//EN" "http://www.w3.org/Graphics/SVG/1.1/DTD/svg11.dtd" [
	<!ENTITY ns_extend "http://ns.adobe.com/Extensibility/1.0/">
	<!ENTITY ns_ai "http://ns.adobe.com/AdobeIllustrator/10.0/">
	<!ENTITY ns_graphs "http://ns.adobe.com/Graphs/1.0/">
	<!ENTITY ns_vars "http://ns.adobe.com/Variables/1.0/">
	<!ENTITY ns_imrep "http://ns.adobe.com/ImageReplacement/1.0/">
	<!ENTITY ns_sfw "http://ns.adobe.com/SaveForWeb/1.0/">
	<!ENTITY ns_custom "http://ns.adobe.com/GenericCustomNamespace/1.0/">
	<!ENTITY ns_adobe_xpath "http://ns.adobe.com/XPath/1.0/">
]>
<svg version="1.1" id="Layer_1" xmlns:x="&ns_extend;" xmlns:i="&ns_ai;" xmlns:graph="&ns_graphs;"
	 xmlns="http://www.w3.org/2000/svg" xmlns:xlink="http://www.w3.org/1999/xlink" x="0px" y="0px" viewBox="0 0 68.9 44.5"
	 enable-background="new 0 0 68.9 44.5" xml:space="preserve">
<metadata>
	<sfw  xmlns="&ns_sfw;">
		<slices></slices>
		<sliceSourceBounds  width="68.9" height="44.5" x="641.2" y="-397.7" bottomLeftOrigin="true"></sliceSourceBounds>
	</sfw>
</metadata>
<g>
	<path fill="#041944" stroke="#B5935B" stroke-linecap="round" stroke-linejoin="round" stroke-miterlimit="10" d="M42.2,0.6
		C31.9-1,0.5,31.8,0.5,31.8S18,16.5,24.8,19.5C30,21.8,24,33.8,24,33.8C29.8,27.5,52.5,2.2,42.2,0.6"/>
	
		<path fill="#B5935B" stroke="#B5935B" stroke-width="0.5" stroke-linecap="round" stroke-linejoin="round" stroke-miterlimit="10" d="
		M27,44.2c10.3,1.6,41.7-31.2,41.7-31.2S51.1,28.2,44.4,25.2C39.1,22.9,45.1,11,45.1,11C39.3,17.2,16.7,42.6,27,44.2"/>
	
		<path fill="#041944" stroke="#B5935B" stroke-width="0.5" stroke-linecap="round" stroke-linejoin="round" stroke-miterlimit="10" d="
		M27.9,21c0.8-3.7,4.4-6.1,8.1-5.3c3.7,0.8,6.1,4.4,5.3,8.1c-0.8,3.7-4.4,6.1-8.1,5.3C29.4,28.3,27.1,24.7,27.9,21"/>
	
		<path fill="#B5935B" stroke="#B5935B" stroke-width="0.5" stroke-linecap="round" stroke-linejoin="round" stroke-miterlimit="10" d="
		M36,15.7c-3.7-0.8-7.3,1.6-8.1,5.3c-0.6,2.9,0.7,5.7,3,7.2l7.4-11.5C37.6,16.2,36.8,15.8,36,15.7"/>
	
		<path fill="#041944" stroke="#B5935B" stroke-width="0.5" stroke-linecap="round" stroke-linejoin="round" stroke-miterlimit="10" d="
		M39.4,22.4c0-0.1,0.1-0.4,0.1-0.6c0-0.2-0.1-0.4-0.2-0.5c-0.1-0.1,0-0.3-0.2-0.3c-0.1,0-0.1,0.1-0.2,0.1c-0.1,0-0.2,0-0.2-0.1
		c0-0.1,0-0.4,0-0.5c0-0.1,0-0.2,0.1-0.2c0.1-0.1,0-0.2,0.1-0.2c0.1,0,0.2-0.1,0.1-0.1c0-0.1-0.1-0.1-0.2-0.2c0-0.1,0-0.2,0-0.2
		c0,0,0.1,0,0.1-0.1c-0.1-0.1-0.2-0.3,0.1-0.1c0.2,0.2,0.1,0.2,0.2,0.4s0,0.3,0.3,0.5c0.3,0.1,0.3,0.2,0.1-0.2
		c-0.2-0.4-0.3-0.4-0.3-0.4c-0.1-0.1-0.2-0.2-0.2-0.3c0-0.1,0.1-0.2,0-0.3c-0.1-0.1-0.2-0.4-0.2-0.4c0,0-0.2,0-0.2,0
		c0,0.1,0,0-0.1-0.1c0-0.1-0.2-0.1-0.1-0.2c0.1-0.1,0-0.1,0-0.2c-0.1-0.1-0.2-0.1-0.2,0c0,0.1-0.1,0.1-0.2,0.3c0,0.1-0.1,0.3,0,0.3
		c0.1,0,0.1,0.3,0,0.3c-0.1,0-0.2,0-0.3,0.1c0,0.2-0.1,0-0.3,0.1c-0.1,0.1-0.1,0.2-0.1,0.2c0,0,0,0.1-0.1,0.1c-0.1,0,0,0.2-0.1,0.1
		c-0.1-0.1-0.1-0.2-0.3-0.1c-0.1,0,0,0.1-0.1,0.1c-0.1,0-0.2,0-0.3,0c-0.1,0.1-0.3,0.2-0.2,0c0.1-0.2,0-0.3,0-0.3
		c-0.1,0-0.1,0.1-0.2,0c-0.1-0.1-0.1-0.1-0.1,0c0,0.1-0.1,0.1-0.2,0.2c-0.1,0-0.2,0.1-0.2,0.1c0,0.1,0,0.1-0.1,0.1
		c-0.1,0-0.2,0.1-0.1,0.2c0,0.1-0.1-0.1-0.2-0.1c-0.1,0-0.2-0.2-0.2-0.1c-0.1,0.1-0.3,0.2-0.2,0.3c0,0.1-0.1,0.1-0.2,0
		c-0.1-0.1-0.1,0-0.2,0c-0.1,0-0.1-0.2-0.3-0.1c-0.2,0-0.3,0-0.5,0c-0.2,0.1-0.5,0.1-0.5,0c-0.1-0.1,0.1-0.2,0.1-0.4
		c0-0.1,0.1,0.3,0.2,0.2c0.1,0,0.2,0,0.2-0.2c0-0.2-0.2-0.3-0.2-0.4c0,0,0.2-0.1,0.1-0.2c-0.1-0.1-0.4-0.2-0.7-0.2
		c-0.3,0-0.5,0.1-0.6,0c-0.1,0-0.2-0.1-0.3-0.1c-0.1,0.1-0.4,0.2-0.4,0.2c0,0.1,0.2,0.1,0.2,0.1c0,0,0,0.1-0.1,0.1
		c-0.1,0.1-0.1,0.2-0.2,0.2c-0.1,0-0.2,0-0.2-0.1c0.1,0,0.2-0.1,0.2-0.1c0,0-0.1-0.1-0.1,0c-0.1,0-0.2,0.1-0.3,0.1
		c-0.1,0.1-0.2,0-0.2,0c0-0.1,0-0.1-0.1-0.1c-0.1,0-0.2,0-0.2,0c-0.1,0-0.2,0-0.2,0c0-0.1,0-0.1-0.1-0.1c-0.1,0,0-0.1-0.1-0.1
		c-0.1,0,0,0.2-0.1,0.3C30,19.9,29.8,20,29.8,20c-0.1,0-0.1-0.2,0-0.3c0-0.1,0-0.2-0.1-0.2c0,0-0.2,0.1-0.3,0.2
		c-0.1,0-0.1,0.1-0.2,0.1c-0.1,0-0.1,0.1-0.1,0.1c0,0.1-0.1,0.2-0.1,0.3c0,0,0.1,0.1,0.1,0.1c0,0.1,0.2,0.1,0.2,0.1
		c0,0,0.1-0.1,0.2-0.1c0.1,0,0.2,0.1,0.2,0.1c0,0,0.1-0.1,0.2-0.1c0.1,0,0,0.2,0,0.2c0,0,0.2,0,0.2,0.1c0,0.1,0,0.1,0,0.2
		c-0.1,0-0.1,0.1-0.1,0.2s0,0.2,0,0.3c0,0.1,0,0.2-0.1,0.2c-0.1,0-0.2,0-0.1,0.1c0,0,0.1,0,0.2,0c0.1,0,0.1-0.2,0.1-0.1
		c0,0,0,0.1,0,0.1c0,0,0.1-0.1,0.1-0.2c0-0.1,0-0.3,0-0.3c0.1-0.1,0-0.2,0.1-0.2c0.1,0,0.1-0.1,0.2,0c0,0.1-0.1,0.1-0.1,0.2
		c0,0.1,0,0.3,0,0.3c0,0.1,0,0.1-0.1,0.2c-0.1,0-0.1,0.2-0.1,0.2c0,0-0.1,0.1-0.1,0.2c0,0.1,0,0.2,0,0.2c0,0,0.1-0.2,0.2-0.1
		c0,0.1,0.1,0,0.1-0.1c0-0.1,0-0.2,0.1-0.2c0,0,0.2,0.1,0.2,0.1c0.1,0,0.2,0,0.3,0c0.1,0,0.2-0.1,0.3-0.1c0,0,0.1-0.1,0.2-0.1
		c0.1,0,0.2,0.2,0.2,0.2c0,0-0.1,0-0.1,0c0,0.1-0.1,0.1-0.1,0.1c0,0,0.3,0.1,0.3,0c0,0-0.1-0.2,0-0.2c0.1,0,0.4,0.1,0.3,0.1
		c0,0-0.3,0.1-0.3,0.2c0,0.1,0.1,0.3,0.1,0.4c0,0.1,0,0.2-0.2,0.1c-0.1,0-0.3-0.1-0.3-0.2c0-0.1-0.1-0.2-0.1-0.2
		c-0.1-0.1-0.2-0.1-0.3-0.1c0,0-0.1-0.1-0.1-0.1c0,0,0-0.1-0.1-0.1c0,0-0.1,0.1-0.1,0.1c-0.1,0-0.3,0.2-0.3,0.3
		c0,0.1,0.1,0.3,0.1,0.3c0.1,0,0.1-0.1,0.1,0c0,0.1,0.1,0.1,0.2,0.2c0.1,0,0.1,0.1,0,0.1c0,0,0,0.1-0.1,0.2c-0.1,0-0.3,0.2-0.3,0.2
		s-0.2-0.1-0.2-0.1c0,0-0.1,0.2-0.1,0.3c0,0.1,0,0.1,0.1,0.1c0.1-0.1,0,0,0,0.1c0,0.1,0,0.6,0,0.7c0,0.1,0,0.2,0,0.4
		c0,0.2,0.1,0.3,0.1,0.4c0,0.1-0.1,0.3-0.1,0.3c0.1,0,0.5,0.2,0.6,0.2c0.1,0,0.4,0,0.4,0c0,0,0-0.1,0.2,0c0.2,0,0.5,0,0.5,0
		c0,0,0.3-0.2,0.3-0.2c0,0-0.1-0.1-0.1-0.2c-0.1-0.1-0.2-0.1-0.1-0.2c0-0.1,0-0.1-0.1,0c-0.1,0-0.2,0.1-0.3,0c-0.1,0-0.2,0-0.2-0.1
		c0-0.1,0-0.2,0-0.3c0-0.1-0.1-0.4,0-0.4c0.1,0,0.2,0,0.2,0.1c0,0,0,0.2,0.1,0.3c0.1,0.1,0.1,0.2,0.2,0.2c0.1,0,0.2,0,0.3,0
		c0,0.1-0.1,0.1,0.3,0.3c0.3,0.1,0.7,0.1,0.7,0.2c0,0,0,0.2,0.1,0.2c0.1,0,0,0.1,0.1,0.1c0.1,0-0.1,0,0,0.1c0,0,0.1,0.1,0.1,0.2
		c0.1,0,0.2-0.1,0.2-0.1c0,0,0,0.2-0.1,0.3c0,0.2-0.1,0.2,0,0.3c0.1,0.1,0,0.3,0.1,0.3c0.1,0.1,0,0.1,0.1,0.2C33.9,27,34,27,34,27
		c0.1,0,0.1,0,0.1-0.1c0,0,0.1,0,0.1-0.1c0,0,0.1,0,0.1-0.1c0,0,0-0.1,0.1-0.2c0,0,0,0,0.1-0.2c0-0.1,0.1-0.2,0.1-0.2
		c0,0,0.1,0,0.1,0c0,0,0.1,0,0.1,0c0,0,0,0,0.1-0.1c0.1,0,0.2-0.1,0.3-0.2c0,0,0.2-0.1,0.2-0.1c0,0,0-0.1,0.1-0.1
		c0.2,0,0.4-0.2,0.4-0.1c0,0,0,0.2,0.1,0.2c0.1,0.1,0.2,0.2,0.2,0.2c0,0.1-0.1,0.2,0,0.2c0.1,0,0.2,0,0.2-0.1c0,0,0.1-0.1,0.1,0
		c0,0.1,0.1,0.3,0.1,0.4c0,0.1,0,0.1,0.1,0.1c0.1,0,0.1-0.3,0.2-0.2c0.1,0,0.2,0.1,0.2,0.1c0.1,0.1,0.2,0,0.2,0.1c0,0,0,0.1,0.2,0
		c0.1-0.1,0.3-0.1,0.4-0.3c0-0.2,0-0.3-0.1-0.3c-0.1,0-0.2-0.2-0.2-0.2c0-0.1,0.1-0.2,0.3-0.3c0.1,0,0.2,0,0.4-0.1
		c0.2-0.1,0.5-0.4,0.5-0.4c0.1-0.1,0.2-0.5,0.3-0.7s-0.1-0.1-0.1-0.2c0-0.1,0-0.1,0-0.2c-0.1-0.1-0.2-0.1-0.2-0.1c0,0,0-0.2,0.1-0.3
		c0.1-0.1,0.1-0.1,0-0.1c-0.1,0-0.1,0.2-0.2,0.1c-0.1,0-0.2-0.1-0.2-0.1c0.1-0.1,0.1-0.1,0.2-0.2c0-0.1,0.1-0.2,0.1-0.1
		c0,0.1,0,0.2,0.1,0.1c0.1-0.1,0.2-0.1,0.2,0c0,0.1,0,0.1,0.1,0.1c0.1,0,0,0.1,0.1,0.2c0,0.1,0,0.2,0.1,0.2c0.1,0,0.2-0.2,0.2-0.3
		c0-0.1-0.2-0.2-0.2-0.2c-0.1,0,0-0.1,0.1-0.2c0-0.1,0-0.1,0-0.2C39.3,22.5,39.4,22.5,39.4,22.4z M32.7,22.7c-0.1,0,0,0.1-0.1,0.1
		c-0.1,0,0,0,0,0.1c0,0.1,0.1,0,0.1,0.1c0,0.1-0.1,0.1-0.1,0.1c0,0,0.1-0.1,0.1,0c0,0.1,0,0.1,0,0.2c0,0-0.1-0.1-0.2,0
		c0,0.1,0,0.1,0,0.1c0,0.1-0.1,0.2-0.1,0.3c0,0.1-0.2,0-0.2-0.1c-0.1-0.1-0.1-0.2-0.1-0.2c0-0.1,0.2-0.2,0.2-0.2
		c0.1,0-0.1-0.2-0.1-0.3c0-0.1,0.1-0.2,0.1-0.2c0-0.1,0-0.1,0.2-0.1c0.3,0,0.4,0,0.4,0.1C32.9,22.7,32.8,22.7,32.7,22.7z M32.9,19.9
		c-0.1,0-0.3,0-0.4,0c-0.1,0-0.2,0.1-0.2,0.2c0,0.1,0.1,0.1,0.1,0.2c0.1,0,0.1,0.1,0.1,0.1c0,0-0.1,0-0.1,0c-0.1,0-0.1-0.1-0.2-0.1
		c-0.1,0-0.1,0.1-0.1,0.1c0,0-0.1,0.1-0.1,0c0,0,0-0.1-0.1-0.1c-0.1,0-0.1,0.1-0.2,0.1c-0.1,0-0.2,0-0.2,0c0,0,0-0.1-0.1-0.1
		c-0.1,0-0.1-0.1-0.1-0.1c0-0.1-0.1-0.1-0.1-0.1c0-0.1,0.1,0,0.1,0s0.1,0,0.1,0.1c0,0,0,0,0.1,0c0.1,0,0.1,0.1,0.1,0.1
		c0,0,0.2-0.1,0.3-0.1c0.1,0,0.1,0,0.2,0c0.1,0,0-0.1,0-0.1c0,0,0.1-0.1,0.2-0.1c0,0,0.2,0,0.3,0c0.1,0,0.1,0,0.2-0.1
		C32.9,19.8,32.9,19.8,32.9,19.9C33,19.9,33,19.9,32.9,19.9z"/>
</g>
</svg>
