<?xml version="1.0" encoding="utf-8"?>
<!-- Generator: Adobe Illustrator 18.1.1, SVG Export Plug-In . SVG Version: 6.00 Build 0)  -->
<!DOCTYPE svg PUBLIC "-//W3C//DTD SVG 1.1//EN" "http://www.w3.org/Graphics/SVG/1.1/DTD/svg11.dtd" [
	<!ENTITY ns_extend "http://ns.adobe.com/Extensibility/1.0/">
	<!ENTITY ns_ai "http://ns.adobe.com/AdobeIllustrator/10.0/">
	<!ENTITY ns_graphs "http://ns.adobe.com/Graphs/1.0/">
	<!ENTITY ns_vars "http://ns.adobe.com/Variables/1.0/">
	<!ENTITY ns_imrep "http://ns.adobe.com/ImageReplacement/1.0/">
	<!ENTITY ns_sfw "http://ns.adobe.com/SaveForWeb/1.0/">
	<!ENTITY ns_custom "http://ns.adobe.com/GenericCustomNamespace/1.0/">
	<!ENTITY ns_adobe_xpath "http://ns.adobe.com/XPath/1.0/">
]>
<svg version="1.1" id="Layer_1" xmlns:x="&ns_extend;" xmlns:i="&ns_ai;" xmlns:graph="&ns_graphs;"
	 xmlns="http://www.w3.org/2000/svg" xmlns:xlink="http://www.w3.org/1999/xlink" x="0px" y="0px" viewBox="0 0 508.6 259.8"
	 enable-background="new 0 0 508.6 259.8" xml:space="preserve">
<metadata>
	<sfw  xmlns="&ns_sfw;">
		<slices></slices>
		<sliceSourceBounds  width="530.8" height="259.8" y="-505.6" x="410.7" bottomLeftOrigin="true"></sliceSourceBounds>
	</sfw>
</metadata>
<g>
	
		<line fill="#041944" stroke="#B5935B" stroke-linejoin="round" stroke-miterlimit="10" x1="353.8" y1="36.7" x2="420.9" y2="36.7"/>
	<path fill="none" stroke="#B5935B" stroke-linejoin="round" stroke-miterlimit="10" d="M495.2,17.6c7.7,4.6,12.9,13,12.9,22.7
		c0,13.1-9.5,24-22,26"/>
	<path fill="none" stroke="#B5935B" stroke-linejoin="round" stroke-miterlimit="10" d="M431.5,142.4c-2.8,22-18.1,35.2-38.3,37.4
		c0,0,0.2,30.7,0,30.9c10.9,2.2,14.9,15.2,14.9,15.2h44c0,0-0.1-17.8,22.4-22.7c0.1,0.2,0.3-36.3,0.3-36.3s-17.8-2.2-19.8-24.5
		C454.9,142.2,431.6,142.4,431.5,142.4z"/>
	<path id="XMLID_194_" fill="none" stroke="#B5935B" stroke-linejoin="round" stroke-miterlimit="10" d="M393,65.4v24.5
		c20.5,2.8,36.7,20.4,39,41.1h25.2c0,0,2.6-5.5,3.8-5.7c0.4,0,5.3,0,5.3,0V120h-7.5l17.4-14.3V66.1c0,0-6.9-2.3-12.2-7.1
		c-5-4.7-7.6-12.4-7.6-12.4h-42.1c0,0-4.5,8.5-9.3,12.5C400.4,63,393,65.4,393,65.4z"/>
	<path fill="#041944" stroke="#B5935B" stroke-linejoin="round" stroke-miterlimit="10" d="M368.4,59.8c-5.8-4.5-8.6-12.4-8.6-12.4
		l-42.3-0.1c-2.1,9.8-10.3,17.9-20.2,19.7v36.9l12-0.1l0.1,3.6l7.3,0.1l-0.1,23.8l25,0.2c1.9-20.7,18.4-39,39.5-41.6V65.3
		C381,65.3,374.4,64.4,368.4,59.8z"/>
	<g>
		<g>
			<line fill="none" stroke="#898989" stroke-linejoin="round" x1="69.8" y1="102.9" x2="69.8" y2="154.3"/>
			<g>
				<polygon fill="#898989" points="67.8,104.2 69.8,96.7 71.9,104.2 				"/>
			</g>
		</g>
	</g>
	<path fill="none" stroke="#B5935B" stroke-linejoin="round" stroke-miterlimit="10" d="M488.4,204.6c10.7,4,18.4,14.3,18.4,26.5
		c0,15.6-12.6,28.2-28.2,28.2c-13.5,0-24.8-9.5-27.6-22.2"/>
	<g>
		<path fill="none" stroke="#B5935B" stroke-linejoin="round" stroke-miterlimit="10" d="M341.8,142.4h-25.3v41.3H298v27.5
			c7.3,1.9,13,7.6,14.9,14.9l54.6-0.3c1.9-6.9,7.2-12.8,14-14.4c0.3-0.1,0-31.9,0-31.9s-13.9-0.6-27.3-13.4
			C342.7,155.3,341.8,142.4,341.8,142.4z"/>
	</g>
	<path fill="none" stroke="#B5935B" stroke-linejoin="round" stroke-miterlimit="10" d="M313,235.7c-2.1,9.2-10.3,16-20.1,16
		c-11.4,0-20.6-9.2-20.6-20.6c0-9.3,6.2-17.2,14.7-19.8"/>
	<path fill="none" stroke="#B5935B" stroke-linejoin="round" stroke-miterlimit="10" d="M407.5,235.7c-2.1,9.2-10.3,16-20.1,16
		c-9,0-16.6-5.7-19.4-13.7"/>
	<polyline fill="none" stroke="#898989" stroke-linejoin="round" stroke-miterlimit="10" points="161.5,87.3 170.9,87.3 
		200.9,123.8 268.1,123.8 	"/>
	<g>
		<polyline fill="none" stroke="#B5935B" stroke-width="3" stroke-linejoin="round" stroke-miterlimit="10" points="481,144.4 
			481,230.9 291.9,230.9 291.9,42.6 481,42.6 481,134.9 		"/>
		
			<line fill="none" stroke="#B5935B" stroke-width="3" stroke-linejoin="round" stroke-miterlimit="10" x1="291.4" y1="136.7" x2="481" y2="136.7"/>
		
			<line fill="none" stroke="#B5935B" stroke-width="3" stroke-linejoin="round" stroke-miterlimit="10" x1="386.9" y1="42.6" x2="386.9" y2="230.9"/>
	</g>
	<g>
		
			<ellipse fill="#041944" stroke="#B5935B" stroke-linejoin="round" stroke-miterlimit="10" cx="478.7" cy="231" rx="22.6" ry="22.7"/>
		<g>
			<defs>
				<ellipse id="XMLID_193_" cx="478.7" cy="231" rx="18.3" ry="18.4"/>
			</defs>
			<use xlink:href="#XMLID_193_"  overflow="visible" fill="#041944"/>
			<clipPath id="XMLID_2_">
				<use xlink:href="#XMLID_193_"  overflow="visible"/>
			</clipPath>
			<path clip-path="url(#XMLID_2_)" fill="#041944" stroke="#B5935B" stroke-linejoin="round" stroke-miterlimit="10" d="
				M457.6,201.9l52.7,38.7l20,0.4l-22.1-32.6C508.2,208.4,467.7,199.9,457.6,201.9z"/>
			<polygon clip-path="url(#XMLID_2_)" fill="#041944" stroke="#B5935B" stroke-linejoin="round" stroke-miterlimit="10" points="
				467.1,233.3 478,227 488.6,234 			"/>
			
				<rect x="470.7" y="235.4" clip-path="url(#XMLID_2_)" fill="#041944" stroke="#B5935B" stroke-linejoin="round" stroke-miterlimit="10" width="14.5" height="21.7"/>
			<polygon clip-path="url(#XMLID_2_)" fill="#041944" stroke="#B5935B" stroke-linejoin="round" stroke-miterlimit="10" points="
				472.2,254.5 469,254.5 469.1,234.3 472.3,234.3 			"/>
			
				<rect x="476.2" y="234.4" clip-path="url(#XMLID_2_)" fill="#041944" stroke="#B5935B" stroke-linejoin="round" stroke-miterlimit="10" width="3.2" height="19.5"/>
			
				<rect x="483.5" y="234.9" clip-path="url(#XMLID_2_)" fill="#041944" stroke="#B5935B" stroke-linejoin="round" stroke-miterlimit="10" width="3.2" height="22.1"/>
			
				<rect x="466.4" y="233.1" clip-path="url(#XMLID_2_)" fill="#041944" stroke="#B5935B" stroke-linejoin="round" stroke-miterlimit="10" width="22.6" height="3.4"/>
			
				<rect x="463.8" y="244.4" clip-path="url(#XMLID_2_)" fill="#041944" stroke="#B5935B" stroke-linejoin="round" stroke-miterlimit="10" width="31.5" height="10.8"/>
			
				<use xlink:href="#XMLID_193_"  overflow="visible" fill="none" stroke="#B5935B" stroke-linejoin="round" stroke-miterlimit="10"/>
		</g>
	</g>
	<g>
		<path fill="#041944" stroke="#B5935B" stroke-linejoin="round" stroke-miterlimit="10" d="M463.1,128c-2.5,3.7-4,8.1-4,12.9
			c0,12.5,10.1,22.6,22.6,22.6c12.5,0,22.6-10.1,22.6-22.6c0-4.8-1.5-9.2-4-12.9H463.1z"/>
		<g>
			
				<rect x="472.5" y="115.7" fill="#041944" stroke="#B5935B" stroke-linejoin="round" stroke-miterlimit="10" width="18.7" height="20.9"/>
			
				<rect x="471.1" y="118.1" fill="#041944" stroke="#B5935B" stroke-linejoin="round" stroke-miterlimit="10" width="4.3" height="20.7"/>
			
				<rect x="479.2" y="118.1" fill="#041944" stroke="#B5935B" stroke-linejoin="round" stroke-miterlimit="10" width="4.3" height="20.7"/>
			
				<rect x="487.2" y="118.1" fill="#041944" stroke="#B5935B" stroke-linejoin="round" stroke-miterlimit="10" width="4.3" height="20.7"/>
			
				<rect x="468.7" y="117.2" fill="#041944" stroke="#B5935B" stroke-linejoin="round" stroke-miterlimit="10" width="25.9" height="3.2"/>
			<polygon fill="#041944" stroke="#B5935B" stroke-linejoin="round" stroke-miterlimit="10" points="466.4,117.6 497.1,117.6 
				481.1,106.8 			"/>
			<polygon fill="#041944" stroke="#B5935B" stroke-linejoin="round" stroke-miterlimit="10" points="481.2,110.3 488,115.1 
				474.9,115.1 			"/>
		</g>
		<path fill="#041944" stroke="#B5935B" stroke-linejoin="round" stroke-miterlimit="10" d="M480.8,141.1c0,0,0-0.1,0-0.1
			c0-1.2,1-2.2,2.2-2.2s2.2,1,2.2,2.2c0,1.2-1,2.2-2.2,2.2C481.8,143.3,480.9,142.3,480.8,141.1"/>
		<path fill="#041944" stroke="#B5935B" stroke-linejoin="round" stroke-miterlimit="10" d="M465.1,132c-1.4,2.7-2.2,5.7-2.2,8.9
			c0,10.4,8.5,18.9,18.9,18.9s18.9-8.5,18.9-18.9c0-3.2-0.8-6.2-2.2-8.9H465.1z"/>
		<path fill="#041944" stroke="#B5935B" stroke-linejoin="round" stroke-miterlimit="10" d="M469.5,137.3c-0.3,1.1-0.5,2.2-0.5,3.4
			c0,7,5.7,12.7,12.7,12.7s12.7-5.7,12.7-12.7c0-1.2-0.2-2.3-0.5-3.4H469.5z"/>
		<circle fill="#041944" stroke="#B5935B" stroke-linejoin="round" stroke-miterlimit="10" cx="482.1" cy="153.5" r="2.2"/>
	</g>
	<g>
		<circle fill="#041944" stroke="#B5935B" stroke-linejoin="round" stroke-miterlimit="10" cx="292.8" cy="42.3" r="21.1"/>
		<g>
			<defs>
				<path id="XMLID_192_" d="M274.7,36.5c-0.6,1.8-0.9,3.8-0.9,5.8c0,10.5,8.5,19,19,19c10.5,0,19-8.5,19-19c0-2-0.3-4-0.9-5.8
					H274.7z"/>
			</defs>
			<use xlink:href="#XMLID_192_"  overflow="visible" fill="#041944"/>
			<clipPath id="XMLID_3_">
				<use xlink:href="#XMLID_192_"  overflow="visible"/>
			</clipPath>
			<path clip-path="url(#XMLID_3_)" fill="#041944" stroke="#B5935B" stroke-linejoin="round" stroke-miterlimit="10" d="M313.2,42
				h-20.4v27.4h22.1C314.9,69.4,321.2,42.9,313.2,42z"/>
			
				<use xlink:href="#XMLID_192_"  overflow="visible" fill="none" stroke="#B5935B" stroke-linejoin="round" stroke-miterlimit="10"/>
		</g>
		<circle fill="#041944" stroke="#B5935B" stroke-linejoin="round" stroke-miterlimit="10" cx="292.8" cy="42.3" r="2.1"/>
		
			<rect x="280.4" y="32.7" fill="none" stroke="#B5935B" stroke-linejoin="round" stroke-miterlimit="10" width="25.7" height="3.5"/>
		<g>
			
				<rect x="284.9" y="19.9" fill="#041944" stroke="#B5935B" stroke-linejoin="round" stroke-miterlimit="10" width="14.9" height="12.7"/>
			
				<rect x="283.4" y="18" fill="#041944" stroke="#B5935B" stroke-linejoin="round" stroke-miterlimit="10" width="3.4" height="14.7"/>
			
				<rect x="290.6" y="18" fill="#041944" stroke="#B5935B" stroke-linejoin="round" stroke-miterlimit="10" width="3.4" height="14.7"/>
			
				<rect x="297.8" y="18" fill="#041944" stroke="#B5935B" stroke-linejoin="round" stroke-miterlimit="10" width="3.4" height="14.7"/>
		</g>
		
			<rect x="282.9" y="13" fill="#041944" stroke="#B5935B" stroke-linejoin="round" stroke-miterlimit="10" width="18.1" height="2.6"/>
		<polygon fill="#041944" stroke="#B5935B" stroke-linejoin="round" stroke-miterlimit="10" points="283,10.1 300.8,10.1 292.1,3.8 
					"/>
		<line fill="none" stroke="#B5935B" stroke-linejoin="round" stroke-miterlimit="10" x1="311.3" y1="44.9" x2="297.8" y2="44.9"/>
	</g>
	<g>
		
			<rect x="384.8" y="13.7" fill="none" stroke="#B5935B" stroke-linejoin="round" stroke-miterlimit="10" width="4.5" height="2.4"/>
		<ellipse fill="#041944" stroke="#B5935B" stroke-linejoin="round" stroke-miterlimit="10" cx="385.3" cy="30.9" rx="8" ry="8.5"/>
		
			<rect x="376.8" y="29.6" fill="#041944" stroke="#B5935B" stroke-linejoin="round" stroke-miterlimit="10" width="16.7" height="16.8"/>
		
			<rect x="379.5" y="28.7" fill="#041944" stroke="#B5935B" stroke-linejoin="round" stroke-miterlimit="10" width="1.7" height="18.6"/>
		
			<rect x="384" y="28.4" fill="#041944" stroke="#B5935B" stroke-linejoin="round" stroke-miterlimit="10" width="1.7" height="18.6"/>
		
			<rect x="375.3" y="28.4" fill="#041944" stroke="#B5935B" stroke-linejoin="round" stroke-miterlimit="10" width="19.2" height="2.1"/>
		<line fill="none" stroke="#B5935B" stroke-linejoin="round" stroke-miterlimit="10" x1="384.8" y1="22.1" x2="384.8" y2="12.2"/>
		<path fill="#041944" stroke="#B5935B" stroke-linejoin="round" stroke-miterlimit="10" d="M362.5,42.1C364.8,53.5,374.9,62,387,62
			c12.1,0,22.1-8.5,24.5-19.9H362.5z"/>
		<g>
			<defs>
				<path id="XMLID_191_" d="M369.4,45.7c3.1,6.6,9.8,11.2,17.6,11.2c7.8,0,14.5-4.6,17.6-11.2H369.4z"/>
			</defs>
			<use xlink:href="#XMLID_191_"  overflow="visible" fill="#041944"/>
			<clipPath id="XMLID_4_">
				<use xlink:href="#XMLID_191_"  overflow="visible"/>
			</clipPath>
			
				<rect x="376.6" y="39.9" clip-path="url(#XMLID_4_)" fill="#041944" stroke="#B5935B" stroke-linejoin="round" stroke-miterlimit="10" width="16.9" height="31.2"/>
			
				<use xlink:href="#XMLID_191_"  overflow="visible" fill="none" stroke="#B5935B" stroke-linejoin="round" stroke-miterlimit="10"/>
		</g>
	</g>
	<g>
		
			<ellipse fill="#041944" stroke="#B5935B" stroke-linejoin="round" stroke-miterlimit="10" cx="292.8" cy="231" rx="17.3" ry="17.2"/>
		<g>
			<defs>
				<ellipse id="XMLID_190_" cx="292.8" cy="231" rx="13" ry="13"/>
			</defs>
			<use xlink:href="#XMLID_190_"  overflow="visible" fill="#041944"/>
			<clipPath id="XMLID_5_">
				<use xlink:href="#XMLID_190_"  overflow="visible"/>
			</clipPath>
			
				<rect x="270.1" y="231" clip-path="url(#XMLID_5_)" fill="#051945" stroke="#B5935B" stroke-linejoin="round" stroke-miterlimit="10" width="53.5" height="14.3"/>
			
				<use xlink:href="#XMLID_190_"  overflow="visible" fill="none" stroke="#B5935B" stroke-linejoin="round" stroke-miterlimit="10"/>
		</g>
	</g>
	<g>
		<path fill="#041944" stroke="#B5935B" stroke-linejoin="round" stroke-miterlimit="10" d="M400.4,242c-6.1,7.3-17,8.2-24.3,2.1
			c-7.3-6.1-8.3-16.9-2.2-24.1s17-8.2,24.3-2.1C405.6,223.9,406.5,234.7,400.4,242z"/>
		<g>
			<defs>
				<path id="XMLID_189_" d="M397.1,239.3c-4.6,5.5-12.8,6.2-18.3,1.6c-5.5-4.6-6.2-12.7-1.6-18.2s12.8-6.2,18.3-1.6
					C401,225.7,401.7,233.8,397.1,239.3z"/>
			</defs>
			<use xlink:href="#XMLID_189_"  overflow="visible" fill="#041944"/>
			<clipPath id="XMLID_6_">
				<use xlink:href="#XMLID_189_"  overflow="visible"/>
			</clipPath>
			<path clip-path="url(#XMLID_6_)" fill="#041944" stroke="#B5935B" stroke-linejoin="round" stroke-miterlimit="10" d="
				M386.7,201.8l0.3,52.1l35.1-1.6c0,0-0.6-31.2-1.6-32.1C419.5,219.3,386.7,201.8,386.7,201.8z"/>
			
				<use xlink:href="#XMLID_189_"  overflow="visible" fill="none" stroke="#B5935B" stroke-linejoin="round" stroke-miterlimit="10"/>
		</g>
	</g>
	<g>
		<g>
			<g>
				<g>
					<defs>
						<circle id="XMLID_188_" cx="386.6" cy="134.6" r="37.8"/>
					</defs>
					<defs>
						<ellipse id="XMLID_187_" cx="386.7" cy="134.7" rx="31.7" ry="31.6"/>
					</defs>
					<use xlink:href="#XMLID_188_"  overflow="visible" fill="#041944"/>
					<use xlink:href="#XMLID_187_"  overflow="visible" fill="#041944"/>
					<clipPath id="XMLID_7_">
						<use xlink:href="#XMLID_188_"  overflow="visible"/>
					</clipPath>
					<clipPath id="XMLID_8_" clip-path="url(#XMLID_7_)">
						<use xlink:href="#XMLID_187_"  overflow="visible"/>
					</clipPath>
					
						<use xlink:href="#XMLID_188_"  overflow="visible" fill="none" stroke="#B5935B" stroke-width="6" stroke-linejoin="round" stroke-miterlimit="10"/>
					
						<use xlink:href="#XMLID_187_"  overflow="visible" fill="none" stroke="#B5935B" stroke-linejoin="round" stroke-miterlimit="10"/>
				</g>
			</g>
		</g>
		<g>
			<defs>
				<rect id="XMLID_186_" x="375" y="118" width="27.7" height="36.4"/>
			</defs>
			<use xlink:href="#XMLID_186_"  overflow="visible" fill="#B5935B"/>
			<clipPath id="XMLID_9_">
				<use xlink:href="#XMLID_186_"  overflow="visible"/>
			</clipPath>
			
				<line clip-path="url(#XMLID_9_)" fill="none" stroke="#B5935B" stroke-linejoin="round" stroke-miterlimit="10" x1="379.9" y1="125.9" x2="397.3" y2="125.9"/>
			
				<line clip-path="url(#XMLID_9_)" fill="none" stroke="#B5935B" stroke-linejoin="round" stroke-miterlimit="10" x1="379.9" y1="131.3" x2="397.3" y2="131.3"/>
			
				<line clip-path="url(#XMLID_9_)" fill="none" stroke="#B5935B" stroke-linejoin="round" stroke-miterlimit="10" x1="379.9" y1="136.8" x2="397.3" y2="136.8"/>
			
				<use xlink:href="#XMLID_186_"  overflow="visible" fill="none" stroke="#B5935B" stroke-linejoin="round" stroke-miterlimit="10"/>
		</g>
		<g>
			<defs>
				<rect id="XMLID_94_" x="371.2" y="114.2" width="27.7" height="36.4"/>
			</defs>
			<use xlink:href="#XMLID_94_"  overflow="visible" fill="#FFFFFF"/>
			<clipPath id="XMLID_10_">
				<use xlink:href="#XMLID_94_"  overflow="visible"/>
			</clipPath>
			
				<line clip-path="url(#XMLID_10_)" fill="none" stroke="#B5935B" stroke-width="2" stroke-linejoin="round" stroke-miterlimit="10" x1="376.1" y1="122.1" x2="393.5" y2="122.1"/>
			
				<line clip-path="url(#XMLID_10_)" fill="none" stroke="#B5935B" stroke-width="2" stroke-linejoin="round" stroke-miterlimit="10" x1="376.1" y1="127.5" x2="393.5" y2="127.5"/>
			
				<line clip-path="url(#XMLID_10_)" fill="none" stroke="#B5935B" stroke-width="2" stroke-linejoin="round" stroke-miterlimit="10" x1="376.1" y1="133" x2="393.5" y2="133"/>
			
				<use xlink:href="#XMLID_94_"  overflow="visible" fill="none" stroke="#B5935B" stroke-linejoin="round" stroke-miterlimit="10"/>
		</g>
	</g>
	<g>
		<polygon fill="none" stroke="#B5935B" stroke-linejoin="round" stroke-miterlimit="10" points="473.7,2.6 467.5,5.5 473.9,8.7 		
			"/>
		<ellipse fill="none" stroke="#B5935B" stroke-linejoin="round" stroke-miterlimit="10" cx="485.4" cy="13.5" rx="5.7" ry="6.5"/>
		
			<ellipse fill="#041944" stroke="#B5935B" stroke-linejoin="round" stroke-miterlimit="10" cx="481.8" cy="40.2" rx="22.6" ry="22.7"/>
		
			<rect x="479.5" y="13.5" fill="#041944" stroke="#B5935B" stroke-linejoin="round" stroke-miterlimit="10" width="11.9" height="34.9"/>
		<line fill="none" stroke="#B5935B" stroke-linejoin="round" stroke-miterlimit="10" x1="485.4" y1="6.7" x2="485.4" y2="0.3"/>
		
			<ellipse fill="#041944" stroke="#B5935B" stroke-linejoin="round" stroke-miterlimit="10" cx="474.8" cy="33.6" rx="7.5" ry="8.5"/>
		<g>
			
				<rect x="465.8" y="31.4" fill="#041944" stroke="#B5935B" stroke-linejoin="round" stroke-miterlimit="10" width="18.2" height="17.1"/>
			<line fill="none" stroke="#B5935B" stroke-linejoin="round" stroke-miterlimit="10" x1="470.4" y1="36.4" x2="470.4" y2="38.6"/>
			<line fill="none" stroke="#B5935B" stroke-linejoin="round" stroke-miterlimit="10" x1="474.9" y1="36.4" x2="474.9" y2="38.6"/>
			<line fill="none" stroke="#B5935B" stroke-linejoin="round" stroke-miterlimit="10" x1="479.4" y1="36.4" x2="479.4" y2="38.6"/>
		</g>
		<g>
			<defs>
				<path id="XMLID_91_" d="M463.8,42.6c1,9.1,8.7,16.1,18,16.1c9.3,0,17-7,18-16.1H463.8z"/>
			</defs>
			<use xlink:href="#XMLID_91_"  overflow="visible" fill="#041944"/>
			<clipPath id="XMLID_11_">
				<use xlink:href="#XMLID_91_"  overflow="visible"/>
			</clipPath>
			<polygon clip-path="url(#XMLID_11_)" fill="#041944" stroke="#B5935B" stroke-linejoin="round" stroke-miterlimit="10" points="
				473.5,38.1 499.9,67.3 513.1,37.9 			"/>
			
				<use xlink:href="#XMLID_91_"  overflow="visible" fill="none" stroke="#B5935B" stroke-linejoin="round" stroke-miterlimit="10"/>
		</g>
		<line fill="none" stroke="#B5935B" stroke-linejoin="round" stroke-miterlimit="10" x1="474" y1="25.1" x2="474" y2="0"/>
	</g>
	<g>
		<g>
			<line fill="none" stroke="#898989" stroke-linejoin="round" x1="21.3" y1="167.4" x2="21.2" y2="137.5"/>
			<g>
				<polygon fill="#898989" points="23.3,166 21.4,173.6 19.3,166 				"/>
			</g>
		</g>
	</g>
	<g>
		<g>
			<line fill="none" stroke="#898989" stroke-linejoin="round" x1="8.6" y1="149.2" x2="21.1" y2="149"/>
			<g>
				<polygon fill="#898989" points="10,151.2 2.4,149.3 9.9,147.1 				"/>
			</g>
		</g>
	</g>
	<g>
		<g>
			<line fill="none" stroke="#898989" stroke-linejoin="round" x1="151.5" y1="114.9" x2="151.3" y2="94.3"/>
			<g>
				<polygon fill="#898989" points="153.5,113.5 151.5,121.1 149.4,113.5 				"/>
			</g>
		</g>
	</g>
	<g>
		<g>
			<line fill="none" stroke="#898989" stroke-linejoin="round" x1="109.2" y1="74.2" x2="120.8" y2="74"/>
			<g>
				<polygon fill="#898989" points="110.6,76.2 103,74.3 110.5,72.1 				"/>
			</g>
		</g>
	</g>
	<g>
		<g>
			<path fill="none" stroke="#898989" stroke-linejoin="round" d="M78.2,28.6l34.6-0.2c4.8,0,8.7,3.9,8.7,8.7v26.6"/>
			<g>
				<polygon fill="#898989" points="79.6,30.7 72,28.7 79.5,26.6 				"/>
			</g>
			<g>
				<polygon fill="#898989" points="119.4,62.3 121.4,69.9 123.5,62.3 				"/>
			</g>
		</g>
	</g>
	<polyline fill="none" stroke="#898989" stroke-linejoin="round" stroke-miterlimit="10" points="158.4,104.6 179.4,104.6 
		199.1,128 225.9,128.1 236.9,140.6 268.5,140.4 	"/>
	<path fill="none" stroke="#898989" stroke-linejoin="round" stroke-miterlimit="10" d="M66.5,72.6l20,20.9
		c6.8,7.1,16.1,11.1,25.9,11.1h31.4"/>
	<path fill="none" stroke="#898989" stroke-linejoin="round" stroke-miterlimit="10" d="M29.7,123.9v7.3c0,12.7,10.3,22.9,22.9,22.9
		h34.1c2.8,0,5.5,1,7.6,2.9l0,0c10.9,9.8,27.6,9.5,38.1-0.7l0.3-0.3c2.1-2.1,5-3.2,7.9-3.2h110.1"/>
	<path fill="none" stroke="#898989" stroke-linejoin="round" stroke-miterlimit="10" d="M311,159.6l-128.6,0
		c-14.4,0-27.7,7.7-35,20.2l0,0c-7.2,12.5-20.5,20.2-35,20.2l-52.2,0"/>
	<line fill="none" stroke="#898989" stroke-linejoin="round" stroke-miterlimit="10" x1="79" y1="191.3" x2="102.2" y2="191.3"/>
	<line fill="none" stroke="#898989" stroke-linejoin="round" stroke-miterlimit="10" x1="136.9" y1="135.1" x2="158" y2="135.1"/>
	<line fill="none" stroke="#898989" stroke-linejoin="round" stroke-miterlimit="10" x1="174.3" y1="77.1" x2="181.4" y2="77.1"/>
	<line fill="none" stroke="#898989" stroke-linejoin="round" stroke-miterlimit="10" x1="168.9" y1="74.4" x2="120.9" y2="74.4"/>
	<circle fill="#041944" stroke="#898989" stroke-linejoin="round" stroke-miterlimit="10" cx="151.9" cy="74.3" r="22.6"/>
	<g>
		<defs>
			<path id="SVGID_1_" d="M132.5,68.1c-0.6,2-1,4-1,6.2c0,11.2,9.1,20.4,20.4,20.4c11.2,0,20.4-9.1,20.4-20.4c0-2.2-0.3-4.2-1-6.2
				H132.5z"/>
		</defs>
		<use xlink:href="#SVGID_1_"  overflow="visible" fill="#041944"/>
		<clipPath id="SVGID_2_">
			<use xlink:href="#SVGID_1_"  overflow="visible"/>
		</clipPath>
		<path clip-path="url(#SVGID_2_)" fill="#FFFFFF" stroke="#898989" stroke-linejoin="round" stroke-miterlimit="10" d="M173.7,73.9
			h-21.8v29.3h23.7C175.6,103.2,182.2,74.9,173.7,73.9z"/>
		<use xlink:href="#SVGID_1_"  overflow="visible" fill="none" stroke="#898989" stroke-linejoin="round" stroke-miterlimit="10"/>
	</g>
	<path fill="#041944" stroke="#898989" stroke-linejoin="round" stroke-miterlimit="10" d="M40.7,186.9c-2.5,3.7-4,8.1-4,12.9
		c0,12.5,10.1,22.6,22.6,22.6c12.5,0,22.6-10.1,22.6-22.6c0-4.8-1.5-9.2-4-12.9H40.7z"/>
	<g>
		
			<rect x="50.1" y="174.5" fill="#041944" stroke="#898989" stroke-linejoin="round" stroke-miterlimit="10" width="18.7" height="20.9"/>
		
			<rect x="48.6" y="177" fill="#041944" stroke="#898989" stroke-linejoin="round" stroke-miterlimit="10" width="4.3" height="20.7"/>
		
			<rect x="56.7" y="177" fill="#041944" stroke="#898989" stroke-linejoin="round" stroke-miterlimit="10" width="4.3" height="20.7"/>
		
			<rect x="64.8" y="177" fill="#041944" stroke="#898989" stroke-linejoin="round" stroke-miterlimit="10" width="4.3" height="20.7"/>
		
			<rect x="46.3" y="176.1" fill="#041944" stroke="#898989" stroke-linejoin="round" stroke-miterlimit="10" width="25.9" height="3.2"/>
		<polygon fill="#041944" stroke="#898989" stroke-linejoin="round" stroke-miterlimit="10" points="44,176.5 74.7,176.5 
			58.7,165.7 		"/>
		<polygon fill="#041944" stroke="#898989" stroke-linejoin="round" stroke-miterlimit="10" points="58.8,169.2 65.5,173.9 
			52.5,173.9 		"/>
	</g>
	<line fill="none" stroke="#898989" stroke-linejoin="round" stroke-miterlimit="10" x1="74" y1="199.8" x2="20.9" y2="199.8"/>
	<line fill="none" stroke="#898989" stroke-linejoin="round" stroke-miterlimit="10" x1="125.1" y1="133.3" x2="68.3" y2="133.3"/>
	<g>
		<circle fill="#041944" stroke="#898989" stroke-linejoin="round" stroke-miterlimit="10" cx="113" cy="136.4" r="22.6"/>
		<g>
			<defs>
				<ellipse id="SVGID_3_" cx="113" cy="136.4" rx="18.3" ry="18.3"/>
			</defs>
			<use xlink:href="#SVGID_3_"  overflow="visible" fill="#041944"/>
			<clipPath id="SVGID_4_">
				<use xlink:href="#SVGID_3_"  overflow="visible"/>
			</clipPath>
			<path clip-path="url(#SVGID_4_)" fill="#FFFFFF" stroke="#898989" stroke-linejoin="round" stroke-miterlimit="10" d="
				M103.6,107.5l40.9,49.5l20.1-10.8l-22.1-32.4C142.5,113.8,108.8,103.5,103.6,107.5z"/>
			<polygon clip-path="url(#SVGID_4_)" fill="#041944" stroke="#898989" stroke-linejoin="round" stroke-miterlimit="10" points="
				101.4,138.7 112.4,132.4 122.9,139.3 			"/>
			
				<rect x="105" y="140.8" clip-path="url(#SVGID_4_)" fill="#041944" stroke="#898989" stroke-linejoin="round" stroke-miterlimit="10" width="14.5" height="21.7"/>
			<polygon clip-path="url(#SVGID_4_)" fill="#041944" stroke="#898989" stroke-linejoin="round" stroke-miterlimit="10" points="
				106.6,159.7 103.3,159.7 103.4,139.7 106.6,139.7 			"/>
			
				<rect x="110.6" y="139.7" clip-path="url(#SVGID_4_)" fill="#041944" stroke="#898989" stroke-linejoin="round" stroke-miterlimit="10" width="3.2" height="19.4"/>
			
				<rect x="117.9" y="140.3" clip-path="url(#SVGID_4_)" fill="#041944" stroke="#898989" stroke-linejoin="round" stroke-miterlimit="10" width="3.2" height="22"/>
			
				<rect x="100.7" y="138.4" clip-path="url(#SVGID_4_)" fill="#041944" stroke="#898989" stroke-linejoin="round" stroke-miterlimit="10" width="22.6" height="3.4"/>
			
				<rect x="98.2" y="149.8" clip-path="url(#SVGID_4_)" fill="#041944" stroke="#898989" stroke-linejoin="round" stroke-miterlimit="10" width="31.5" height="10.8"/>
			<use xlink:href="#SVGID_3_"  overflow="visible" fill="none" stroke="#898989" stroke-linejoin="round" stroke-miterlimit="10"/>
		</g>
	</g>
	<polyline fill="none" stroke="#898989" stroke-linejoin="round" stroke-miterlimit="10" points="136.7,132.8 224.4,132.8 
		234.9,144.6 259.4,144.6 	"/>
	<g>
		<g>
			<defs>
				<polygon id="XMLID_84_" points="250.8,171.4 256.7,179.3 312.6,179.3 312.6,111 300.9,110.9 				"/>
			</defs>
			<use xlink:href="#XMLID_84_"  overflow="visible" fill="#FFFFFF"/>
			<clipPath id="XMLID_12_">
				<use xlink:href="#XMLID_84_"  overflow="visible"/>
			</clipPath>
			
				<use xlink:href="#XMLID_84_"  overflow="visible" fill="none" stroke="#B5935B" stroke-linejoin="round" stroke-miterlimit="10"/>
		</g>
		<polygon fill="#B5935B" stroke="#B5935B" stroke-linejoin="round" stroke-miterlimit="10" points="304.3,109.2 308.2,114.6 
			308.2,174.8 258.3,174.8 253.9,168.5 		"/>
		<g>
			<defs>
				<rect id="XMLID_82_" x="250.8" y="107.4" width="55" height="64"/>
			</defs>
			<use xlink:href="#XMLID_82_"  overflow="visible" fill="#FFFFFF"/>
			<clipPath id="XMLID_13_">
				<use xlink:href="#XMLID_82_"  overflow="visible"/>
			</clipPath>
			<g clip-path="url(#XMLID_13_)">
				<defs>
					<rect id="XMLID_83_" x="253.3" y="109.6" width="50" height="59.1"/>
				</defs>
				<clipPath id="XMLID_14_">
					<use xlink:href="#XMLID_83_"  overflow="visible"/>
				</clipPath>
				
					<line clip-path="url(#XMLID_14_)" fill="none" stroke="#B5935B" stroke-linejoin="round" stroke-miterlimit="10" x1="241.1" y1="119.6" x2="310.7" y2="119.6"/>
				<path clip-path="url(#XMLID_14_)" fill="none" stroke="#B5935B" stroke-linejoin="round" stroke-miterlimit="10" d="
					M245.1,123.9h8.8c2.8,0,5.1,2.3,5.1,5.1v0c0,2.8,2.3,5.1,5.1,5.1h2.5"/>
				
					<line clip-path="url(#XMLID_14_)" fill="none" stroke="#B5935B" stroke-linejoin="round" stroke-miterlimit="10" x1="316.1" y1="159.2" x2="243.9" y2="159.2"/>
				<path clip-path="url(#XMLID_14_)" fill="none" stroke="#B5935B" stroke-linejoin="round" stroke-miterlimit="10" d="
					M315.9,156.2h-43.6c-6.5,0-12.7-2.5-17.5-6.9L239,134.7h-66.9"/>
				
					<line clip-path="url(#XMLID_14_)" fill="none" stroke="#B5935B" stroke-linejoin="round" stroke-miterlimit="10" x1="252.4" y1="152.7" x2="259.5" y2="152.7"/>
				
					<line clip-path="url(#XMLID_14_)" fill="none" stroke="#B5935B" stroke-linejoin="round" stroke-miterlimit="10" x1="263.1" y1="152.6" x2="307.6" y2="152.6"/>
				<path clip-path="url(#XMLID_14_)" fill="none" stroke="#B5935B" stroke-linejoin="round" stroke-miterlimit="10" d="
					M291.9,135.6h1c2.5,0,4.5,2,4.5,4.5l0,0c0,2.5,2,4.5,4.5,4.5h8.4"/>
				
					<use xlink:href="#XMLID_83_"  overflow="visible" fill="none" stroke="#B5935B" stroke-linejoin="round" stroke-miterlimit="10"/>
			</g>
			
				<use xlink:href="#XMLID_82_"  overflow="visible" fill="none" stroke="#B5935B" stroke-linejoin="round" stroke-miterlimit="10"/>
		</g>
		<g>
			<path fill="#B5935B" d="M286.8,137.7c-0.2-2.9-0.3-6.5-0.3-9.1h-0.1c-0.7,2.5-1.6,5.1-2.7,8l-3.7,10.2H278l-3.4-10
				c-1-3-1.8-5.7-2.4-8.2H272c-0.1,2.6-0.2,6.2-0.4,9.3l-0.6,9h-2.6l1.5-21.1h3.5l3.6,10.2c0.9,2.6,1.6,4.9,2.1,7.1h0.1
				c0.5-2.1,1.3-4.4,2.2-7.1l3.8-10.2h3.5L290,147h-2.7L286.8,137.7z"/>
		</g>
		<circle fill="none" stroke="#B5935B" stroke-linejoin="round" stroke-miterlimit="10" cx="299.8" cy="112.8" r="1.3"/>
		<circle fill="none" stroke="#B5935B" stroke-linejoin="round" stroke-miterlimit="10" cx="257" cy="165.3" r="1.3"/>
		<circle fill="none" stroke="#B5935B" stroke-linejoin="round" stroke-miterlimit="10" cx="256.6" cy="112.8" r="1.3"/>
		<circle fill="none" stroke="#B5935B" stroke-linejoin="round" stroke-miterlimit="10" cx="300" cy="165.9" r="1.3"/>
	</g>
	<circle fill="#041944" stroke="#898989" stroke-linejoin="round" stroke-miterlimit="10" cx="151.9" cy="74.3" r="2.2"/>
	<circle fill="#041944" stroke="#898989" stroke-linejoin="round" stroke-miterlimit="10" cx="121.7" cy="74" r="2.2"/>
	<circle fill="#041944" stroke="#898989" stroke-linejoin="round" stroke-miterlimit="10" cx="119" cy="199.7" r="2.2"/>
	<circle fill="#041944" stroke="#898989" stroke-linejoin="round" stroke-miterlimit="10" cx="135.5" cy="192.2" r="2.2"/>
	<circle fill="#041944" stroke="#898989" stroke-linejoin="round" stroke-miterlimit="10" cx="176" cy="159.9" r="2.2"/>
	<circle fill="#041944" stroke="#898989" stroke-linejoin="round" stroke-miterlimit="10" cx="38.1" cy="149.1" r="2.2"/>
	<circle fill="#041944" stroke="#898989" stroke-linejoin="round" stroke-miterlimit="10" cx="21.3" cy="137" r="2.2"/>
	<circle fill="#041944" stroke="#898989" stroke-linejoin="round" stroke-miterlimit="10" cx="69.8" cy="154.9" r="2.2"/>
	<circle fill="#041944" stroke="#898989" stroke-linejoin="round" stroke-miterlimit="10" cx="102.7" cy="191.6" r="2.2"/>
	<circle fill="#041944" stroke="#898989" stroke-linejoin="round" stroke-miterlimit="10" cx="21" cy="200" r="2.2"/>
	<circle fill="#041944" stroke="#898989" stroke-linejoin="round" stroke-miterlimit="10" cx="185.1" cy="132.3" r="2.2"/>
	<circle fill="#041944" stroke="#898989" stroke-linejoin="round" stroke-miterlimit="10" cx="199.7" cy="152.7" r="2.2"/>
	<circle fill="#041944" stroke="#898989" stroke-linejoin="round" stroke-miterlimit="10" cx="239.8" cy="123.6" r="3.6"/>
	<circle fill="#041944" stroke="#898989" stroke-linejoin="round" stroke-miterlimit="10" cx="69.8" cy="133.3" r="3.6"/>
	<circle fill="#041944" stroke="#898989" stroke-linejoin="round" stroke-miterlimit="10" cx="60.6" cy="199.9" r="2.2"/>
	<path fill="#041944" stroke="#898989" stroke-linejoin="round" stroke-miterlimit="10" d="M42.7,190.8c-1.4,2.7-2.2,5.7-2.2,8.9
		c0,10.4,8.5,18.9,18.9,18.9s18.9-8.5,18.9-18.9c0-3.2-0.8-6.2-2.2-8.9H42.7z"/>
	<path fill="#FFFFFF" stroke="#898989" stroke-linejoin="round" stroke-miterlimit="10" d="M47.1,196.2c-0.3,1.1-0.5,2.2-0.5,3.4
		c0,7,5.7,12.7,12.7,12.7s12.7-5.7,12.7-12.7c0-1.2-0.2-2.3-0.5-3.4H47.1z"/>
	
		<rect x="138.6" y="63.9" fill="none" stroke="#898989" stroke-linejoin="round" stroke-miterlimit="10" width="27.5" height="3.8"/>
	<g>
		
			<rect x="143.4" y="50.3" fill="#041944" stroke="#898989" stroke-linejoin="round" stroke-miterlimit="10" width="16" height="13.6"/>
		
			<rect x="141.8" y="48.2" fill="#041944" stroke="#898989" stroke-linejoin="round" stroke-miterlimit="10" width="3.6" height="15.7"/>
		
			<rect x="149.5" y="48.2" fill="#041944" stroke="#898989" stroke-linejoin="round" stroke-miterlimit="10" width="3.6" height="15.7"/>
		
			<rect x="157.3" y="48.2" fill="#041944" stroke="#898989" stroke-linejoin="round" stroke-miterlimit="10" width="3.6" height="15.7"/>
	</g>
	
		<rect x="141.3" y="42.8" fill="#041944" stroke="#898989" stroke-linejoin="round" stroke-miterlimit="10" width="19.4" height="2.8"/>
	<polygon fill="#041944" stroke="#898989" stroke-linejoin="round" stroke-miterlimit="10" points="141.4,39.8 160.4,39.8 151.1,33 
			"/>
	<circle fill="#041944" stroke="#898989" stroke-linejoin="round" stroke-miterlimit="10" cx="59.7" cy="212.4" r="2.2"/>
	<line fill="none" stroke="#898989" stroke-linejoin="round" stroke-miterlimit="10" x1="171.6" y1="77.1" x2="157.3" y2="77.1"/>
	<g>
		<polygon fill="none" stroke="#898989" stroke-linejoin="round" stroke-miterlimit="10" points="66.3,44.3 61.4,46.6 66.4,49.2 		
			"/>
		<ellipse fill="none" stroke="#898989" stroke-linejoin="round" stroke-miterlimit="10" cx="75.5" cy="53" rx="4.5" ry="5.1"/>
		<circle fill="#041944" stroke="#898989" stroke-linejoin="round" stroke-miterlimit="10" cx="72.7" cy="74" r="17.9"/>
		
			<rect x="70.9" y="53" fill="#041944" stroke="#898989" stroke-linejoin="round" stroke-miterlimit="10" width="9.4" height="27.5"/>
		<line fill="none" stroke="#898989" stroke-linejoin="round" stroke-miterlimit="10" x1="75.6" y1="47.6" x2="75.6" y2="42.6"/>
		
			<ellipse fill="#041944" stroke="#898989" stroke-linejoin="round" stroke-miterlimit="10" cx="67.2" cy="68.8" rx="5.9" ry="6.7"/>
		<g>
			
				<rect x="60.1" y="67.1" fill="#041944" stroke="#898989" stroke-linejoin="round" stroke-miterlimit="10" width="14.4" height="13.5"/>
			<line fill="none" stroke="#898989" stroke-linejoin="round" stroke-miterlimit="10" x1="63.7" y1="71" x2="63.7" y2="72.8"/>
			<line fill="none" stroke="#898989" stroke-linejoin="round" stroke-miterlimit="10" x1="67.2" y1="71" x2="67.2" y2="72.8"/>
			<line fill="none" stroke="#898989" stroke-linejoin="round" stroke-miterlimit="10" x1="70.8" y1="71" x2="70.8" y2="72.8"/>
		</g>
		<g>
			<defs>
				<path id="SVGID_5_" d="M58.4,75.9c0.8,7.1,6.9,12.7,14.2,12.7c7.4,0,13.4-5.5,14.2-12.7H58.4z"/>
			</defs>
			<use xlink:href="#SVGID_5_"  overflow="visible" fill="#041944"/>
			<clipPath id="SVGID_6_">
				<use xlink:href="#SVGID_5_"  overflow="visible"/>
			</clipPath>
			<polygon clip-path="url(#SVGID_6_)" fill="#FFFFFF" stroke="#898989" stroke-linejoin="round" stroke-miterlimit="10" points="
				66.2,72.4 87.1,95.4 97.4,72.2 			"/>
			<use xlink:href="#SVGID_5_"  overflow="visible" fill="none" stroke="#898989" stroke-linejoin="round" stroke-miterlimit="10"/>
		</g>
		<line fill="none" stroke="#898989" stroke-linejoin="round" stroke-miterlimit="10" x1="66.6" y1="62.1" x2="66.6" y2="42.3"/>
	</g>
	<g>
		<rect x="21.4" y="84.8" fill="none" stroke="#898989" stroke-linejoin="round" stroke-miterlimit="10" width="4.2" height="2.3"/>
		
			<ellipse fill="#041944" stroke="#898989" stroke-linejoin="round" stroke-miterlimit="10" cx="21.8" cy="100.9" rx="7.5" ry="7.9"/>
		
			<rect x="13.9" y="99.7" fill="#041944" stroke="#898989" stroke-linejoin="round" stroke-miterlimit="10" width="15.6" height="15.7"/>
		
			<rect x="16.4" y="98.9" fill="#041944" stroke="#898989" stroke-linejoin="round" stroke-miterlimit="10" width="1.6" height="17.4"/>
		
			<rect x="20.6" y="98.6" fill="#041944" stroke="#898989" stroke-linejoin="round" stroke-miterlimit="10" width="1.6" height="17.4"/>
		
			<rect x="12.5" y="98.6" fill="#041944" stroke="#898989" stroke-linejoin="round" stroke-miterlimit="10" width="17.9" height="2"/>
		<line fill="none" stroke="#898989" stroke-linejoin="round" stroke-miterlimit="10" x1="21.4" y1="92.7" x2="21.4" y2="83.4"/>
		<path fill="#041944" stroke="#898989" stroke-linejoin="round" stroke-miterlimit="10" d="M0.5,111.4
			c2.2,10.6,11.6,18.6,22.9,18.6c11.3,0,20.7-8,22.9-18.6H0.5z"/>
		<g>
			<defs>
				<path id="SVGID_7_" d="M7,114.8c2.9,6.2,9.2,10.4,16.4,10.4c7.3,0,13.5-4.3,16.4-10.4H7z"/>
			</defs>
			<use xlink:href="#SVGID_7_"  overflow="visible" fill="#041944"/>
			<clipPath id="SVGID_8_">
				<use xlink:href="#SVGID_7_"  overflow="visible"/>
			</clipPath>
			
				<rect x="13.7" y="109.3" clip-path="url(#SVGID_8_)" fill="#FFFFFF" stroke="#898989" stroke-linejoin="round" stroke-miterlimit="10" width="15.8" height="29.2"/>
			
				<line clip-path="url(#SVGID_8_)" fill="none" stroke="#898989" stroke-linejoin="round" stroke-miterlimit="10" x1="16.3" y1="110" x2="16.3" y2="137.2"/>
			
				<line clip-path="url(#SVGID_8_)" fill="none" stroke="#898989" stroke-linejoin="round" stroke-miterlimit="10" x1="18" y1="111.2" x2="18" y2="129.7"/>
			
				<line clip-path="url(#SVGID_8_)" fill="none" stroke="#898989" stroke-linejoin="round" stroke-miterlimit="10" x1="20.5" y1="109.3" x2="20.5" y2="136.3"/>
			
				<line clip-path="url(#SVGID_8_)" fill="none" stroke="#898989" stroke-linejoin="round" stroke-miterlimit="10" x1="22.1" y1="110.8" x2="22.1" y2="135.2"/>
			<use xlink:href="#SVGID_7_"  overflow="visible" fill="none" stroke="#898989" stroke-linejoin="round" stroke-miterlimit="10"/>
		</g>
	</g>
	<g>
		<g>
			<path fill="none" stroke="#898989" stroke-linejoin="round" d="M20.8,73.2v-3c0-7.6,6.1-13.7,13.7-13.7h23.5"/>
			<g>
				<polygon fill="#898989" points="22.8,71.8 20.8,79.4 18.8,71.8 				"/>
			</g>
		</g>
	</g>
	<g>
		<g>
			<line fill="none" stroke="#898989" stroke-linejoin="round" x1="95.2" y1="180" x2="95.2" y2="191.3"/>
			<g>
				<polygon fill="#898989" points="93.2,181.4 95.2,173.8 97.2,181.4 				"/>
			</g>
		</g>
	</g>
	<g>
		<g>
			<line fill="none" stroke="#898989" stroke-linejoin="round" x1="165.3" y1="114" x2="165.3" y2="128.2"/>
			<g>
				<polygon fill="#898989" points="163.3,115.4 165.3,107.8 167.4,115.4 				"/>
			</g>
		</g>
	</g>
	<g>
		<g>
			<polygon fill="#B5935B" points="295.3,91.1 297.3,83.5 299.4,91.1 			"/>
		</g>
	</g>
	<g>
		<g>
			<polygon fill="#B5935B" points="295.8,202.2 297.8,194.6 299.9,202.2 			"/>
		</g>
	</g>
	<g>
		<g>
			<polygon fill="#B5935B" points="391.1,81.1 393.2,73.5 395.2,81.1 			"/>
		</g>
	</g>
	<g>
		<g>
			<polygon fill="#B5935B" points="391.4,204.5 393.4,196.9 395.4,204.5 			"/>
		</g>
	</g>
	<g>
		<g>
			<polygon fill="#B5935B" points="379,73.8 381,81.4 383,73.8 			"/>
		</g>
	</g>
	<g>
		<g>
			<polygon fill="#B5935B" points="379.3,188.9 381.3,196.5 383.4,188.9 			"/>
		</g>
	</g>
	<g>
		<g>
			<polygon fill="#B5935B" points="349.4,164.2 356.3,168.1 352.2,161.3 			"/>
		</g>
	</g>
	<g>
		<g>
			<polygon fill="#B5935B" points="419.5,170.8 423.3,163.9 416.6,167.9 			"/>
		</g>
	</g>
	<g>
		<g>
			<polygon fill="#B5935B" points="423.5,105 416.6,101.1 420.7,107.9 			"/>
		</g>
	</g>
	<g>
		<g>
			<polygon fill="#B5935B" points="354.2,100.7 350.3,107.6 357.1,103.5 			"/>
		</g>
	</g>
	<g>
		<g>
			<polygon fill="#B5935B" points="472.4,183.3 474.5,190.9 476.5,183.3 			"/>
		</g>
	</g>
	<g>
		<g>
			<polygon fill="#B5935B" points="474,80.6 476,88.2 478,80.6 			"/>
		</g>
	</g>
	<g>
		<g>
			<polygon fill="#B5935B" points="331,133.4 323.4,131.3 331,129.3 			"/>
		</g>
	</g>
	<g>
		<g>
			<polygon fill="#B5935B" points="351.8,227.4 344.2,225.3 351.8,223.3 			"/>
		</g>
	</g>
	<g>
		<g>
			<polygon fill="#B5935B" points="433.4,227.9 425.8,225.8 433.4,223.8 			"/>
		</g>
	</g>
	<g>
		<g>
			<polygon fill="#B5935B" points="447.6,133 440,131 447.6,129 			"/>
		</g>
	</g>
	<g>
		<g>
			<polygon fill="#B5935B" points="433.7,49 441.3,46.9 433.7,44.9 			"/>
		</g>
	</g>
	<g>
		<g>
			<polygon fill="#B5935B" points="338,49.8 345.6,47.8 338,45.7 			"/>
		</g>
	</g>
	<g>
		<g>
			<polygon fill="#B5935B" points="331.4,144.5 339,142.4 331.4,140.4 			"/>
		</g>
	</g>
	<g>
		<g>
			<polygon fill="#B5935B" points="439.6,144.6 447.2,142.5 439.6,140.5 			"/>
		</g>
	</g>
	<g>
		<g>
			<line fill="none" stroke="#898989" stroke-linejoin="round" x1="132" y1="171.9" x2="143.3" y2="172"/>
			<g>
				<polygon fill="#898989" points="133.4,174 125.8,171.9 133.4,169.9 				"/>
			</g>
		</g>
	</g>
	<g>
		<circle fill="#041944" stroke="#898989" stroke-linejoin="round" stroke-miterlimit="10" cx="153.1" cy="170.5" r="10.4"/>
		<g>
			<defs>
				<circle id="SVGID_9_" cx="153.1" cy="170.5" r="7.8"/>
			</defs>
			<use xlink:href="#SVGID_9_"  overflow="visible" fill="#041944"/>
			<clipPath id="SVGID_10_">
				<use xlink:href="#SVGID_9_"  overflow="visible"/>
			</clipPath>
			<path clip-path="url(#SVGID_10_)" fill="#FFFFFF" stroke="#898989" stroke-linejoin="round" stroke-miterlimit="10" d="
				M142.7,156.1c0.3,1.1,20.2,24.3,20.2,24.3l14.6-13.5c0,0-12.4-14.3-13.2-14.3C163.5,152.6,142.7,156.1,142.7,156.1z"/>
			<use xlink:href="#SVGID_9_"  overflow="visible" fill="none" stroke="#898989" stroke-linejoin="round" stroke-miterlimit="10"/>
		</g>
	</g>
	<g>
		<circle fill="#041944" stroke="#898989" stroke-linejoin="round" stroke-miterlimit="10" cx="165.3" cy="137.3" r="10.4"/>
		<g>
			<defs>
				<circle id="SVGID_11_" cx="165.3" cy="137.3" r="7.8"/>
			</defs>
			<use xlink:href="#SVGID_11_"  overflow="visible" fill="#FFFFFF"/>
			<clipPath id="SVGID_12_">
				<use xlink:href="#SVGID_11_"  overflow="visible"/>
			</clipPath>
			
				<rect x="151.7" y="135.5" clip-path="url(#SVGID_12_)" fill="#051945" stroke="#898989" stroke-linejoin="round" stroke-miterlimit="10" width="32.2" height="10.4"/>
			
				<use xlink:href="#SVGID_11_"  overflow="visible" fill="none" stroke="#898989" stroke-linejoin="round" stroke-miterlimit="10"/>
		</g>
	</g>
	<g>
		<circle fill="#041944" stroke="#898989" stroke-linejoin="round" stroke-miterlimit="10" cx="100.6" cy="27.7" r="10.4"/>
		<g>
			<defs>
				<circle id="SVGID_13_" cx="100.6" cy="27.7" r="7.8"/>
			</defs>
			<use xlink:href="#SVGID_13_"  overflow="visible" fill="#041944"/>
			<clipPath id="SVGID_14_">
				<use xlink:href="#SVGID_13_"  overflow="visible"/>
			</clipPath>
			
				<rect x="88.4" y="27.9" clip-path="url(#SVGID_14_)" fill="#FFFFFF" stroke="#898989" stroke-linejoin="round" stroke-miterlimit="10" width="27.2" height="21"/>
			
				<use xlink:href="#SVGID_13_"  overflow="visible" fill="none" stroke="#898989" stroke-linejoin="round" stroke-miterlimit="10"/>
		</g>
	</g>
	<circle fill="#041944" stroke="#898989" stroke-linejoin="round" stroke-miterlimit="10" cx="57.3" cy="56.8" r="2.2"/>
	<circle fill="#041944" stroke="#898989" stroke-linejoin="round" stroke-miterlimit="10" cx="26.6" cy="59.3" r="2.2"/>
	<circle fill="#041944" stroke="#898989" stroke-linejoin="round" stroke-miterlimit="10" cx="92" cy="98.1" r="2.2"/>
	<circle fill="#041944" stroke="#898989" stroke-linejoin="round" stroke-miterlimit="10" cx="143.9" cy="104.9" r="1.8"/>
	<circle fill="#041944" stroke="#898989" stroke-linejoin="round" stroke-miterlimit="10" cx="119.6" cy="31.8" r="1.8"/>
	<circle fill="#041944" stroke="#898989" stroke-linejoin="round" stroke-miterlimit="10" cx="157.9" cy="104.9" r="1.8"/>
	<circle fill="#041944" stroke="#B5935B" stroke-linejoin="round" stroke-miterlimit="10" cx="301.6" cy="240.7" r="2"/>
	<circle fill="#041944" stroke="#B5935B" stroke-linejoin="round" stroke-miterlimit="10" cx="387.1" cy="237.5" r="2"/>
	<circle fill="#041944" stroke="#B5935B" stroke-linejoin="round" stroke-miterlimit="10" cx="488.6" cy="204.9" r="2"/>
	<circle fill="#041944" stroke="#B5935B" stroke-linejoin="round" stroke-miterlimit="10" cx="450.8" cy="237.4" r="2"/>
	<circle fill="#041944" stroke="#B5935B" stroke-linejoin="round" stroke-miterlimit="10" cx="499.9" cy="154.9" r="2"/>
	<line fill="none" stroke="#B5935B" stroke-linejoin="round" stroke-miterlimit="10" x1="290.8" y1="125.4" x2="292.5" y2="147.7"/>
	<line fill="none" stroke="#B5935B" stroke-linejoin="round" stroke-miterlimit="10" x1="267.8" y1="125.6" x2="265.6" y2="147.4"/>
	<circle fill="#041944" stroke="#B5935B" stroke-linejoin="round" stroke-miterlimit="10" cx="495.6" cy="17.7" r="1.5"/>
	<circle fill="#041944" stroke="#B5935B" stroke-linejoin="round" stroke-miterlimit="10" cx="486.6" cy="66.2" r="1.5"/>
	<circle fill="#041944" stroke="#B5935B" stroke-linejoin="round" stroke-miterlimit="10" cx="506.6" cy="235.5" r="1.5"/>
	<circle fill="#041944" stroke="#B5935B" stroke-linejoin="round" stroke-miterlimit="10" cx="407" cy="237.5" r="1.5"/>
	<circle fill="#041944" stroke="#B5935B" stroke-linejoin="round" stroke-miterlimit="10" cx="387" cy="251.9" r="1.5"/>
	<circle fill="#041944" stroke="#B5935B" stroke-linejoin="round" stroke-miterlimit="10" cx="367.5" cy="237.3" r="1.5"/>
	<circle fill="#041944" stroke="#B5935B" stroke-linejoin="round" stroke-miterlimit="10" cx="313.3" cy="235.7" r="1.5"/>
	<circle fill="#041944" stroke="#B5935B" stroke-linejoin="round" stroke-miterlimit="10" cx="272.2" cy="230.7" r="1.5"/>
	<circle fill="#041944" stroke="#B5935B" stroke-linejoin="round" stroke-miterlimit="10" cx="286.6" cy="211.2" r="1.5"/>
	<path fill="none" stroke="#B5935B" stroke-linejoin="round" stroke-miterlimit="10" d="M285.8,67.3c-10.9-3-18.9-12.9-18.9-24.8
		c0-9.4,5.1-17.7,12.7-22.1"/>
	<circle fill="#041944" stroke="#B5935B" stroke-linejoin="round" stroke-miterlimit="10" cx="279.1" cy="20.9" r="1.5"/>
	<circle fill="#041944" stroke="#B5935B" stroke-linejoin="round" stroke-miterlimit="10" cx="285.6" cy="67.5" r="1.5"/>
	<circle fill="#041944" stroke="#B5935B" stroke-linejoin="round" stroke-miterlimit="10" cx="266.9" cy="41" r="1.5"/>
	<circle fill="#041944" stroke="#B5935B" stroke-linejoin="round" stroke-miterlimit="10" cx="420.8" cy="37" r="1.5"/>
	<circle fill="#041944" stroke="#B5935B" stroke-linejoin="round" stroke-miterlimit="10" cx="353.9" cy="36.7" r="1.5"/>
</g>
</svg>
