<?xml version="1.0" encoding="utf-8"?>
<!-- Generator: Adobe Illustrator 18.1.1, SVG Export Plug-In . SVG Version: 6.00 Build 0)  -->
<!DOCTYPE svg PUBLIC "-//W3C//DTD SVG 1.1//EN" "http://www.w3.org/Graphics/SVG/1.1/DTD/svg11.dtd" [
	<!ENTITY ns_extend "http://ns.adobe.com/Extensibility/1.0/">
	<!ENTITY ns_ai "http://ns.adobe.com/AdobeIllustrator/10.0/">
	<!ENTITY ns_graphs "http://ns.adobe.com/Graphs/1.0/">
	<!ENTITY ns_vars "http://ns.adobe.com/Variables/1.0/">
	<!ENTITY ns_imrep "http://ns.adobe.com/ImageReplacement/1.0/">
	<!ENTITY ns_sfw "http://ns.adobe.com/SaveForWeb/1.0/">
	<!ENTITY ns_custom "http://ns.adobe.com/GenericCustomNamespace/1.0/">
	<!ENTITY ns_adobe_xpath "http://ns.adobe.com/XPath/1.0/">
]>
<svg version="1.1" id="Layer_1" xmlns:x="&ns_extend;" xmlns:i="&ns_ai;" xmlns:graph="&ns_graphs;"
	 xmlns="http://www.w3.org/2000/svg" xmlns:xlink="http://www.w3.org/1999/xlink" x="0px" y="0px" viewBox="0 0 74.8 244.8"
	 enable-background="new 0 0 74.8 244.8" xml:space="preserve">
<metadata>
	<sfw  xmlns="&ns_sfw;">
		<slices></slices>
		<sliceSourceBounds  width="74.8" height="244.8" y="-499.7" x="638.6" bottomLeftOrigin="true"></sliceSourceBounds>
	</sfw>
</metadata>
<g>
	
		<line fill="none" stroke="#B5935B" stroke-linecap="round" stroke-linejoin="round" stroke-miterlimit="10" x1="37.4" y1="18.8" x2="37.4" y2="244.3"/>
	
		<circle fill="#FFFFFF" stroke="#B5935B" stroke-width="0.8427" stroke-linecap="round" stroke-linejoin="round" stroke-miterlimit="10" cx="37.4" cy="97.3" r="3.1"/>
	<g>
		
			<ellipse transform="matrix(-0.9542 -0.2993 0.2993 -0.9542 61.9032 84.5083)" fill="#FFFFFF" stroke="#B5935B" stroke-linejoin="round" stroke-miterlimit="10" cx="37.4" cy="37.5" rx="36.9" ry="37"/>
		<g>
			<defs>
				<path id="XMLID_77_" d="M9.4,28.7c4.8-15.4,21.3-24,36.8-19.2s24.1,21.3,19.2,36.7s-21.3,24-36.8,19.2
					C13.2,60.6,4.6,44.2,9.4,28.7z"/>
			</defs>
			<use xlink:href="#XMLID_77_"  overflow="visible" fill="#FFFFFF"/>
			<clipPath id="XMLID_2_">
				<use xlink:href="#XMLID_77_"  overflow="visible"/>
			</clipPath>
			
				<use xlink:href="#XMLID_77_"  overflow="visible" fill="none" stroke="#B5935B" stroke-width="6" stroke-linejoin="round" stroke-miterlimit="10"/>
		</g>
	</g>
	<g>
		<path fill="#FFFFFF" stroke="#B5935B" stroke-linecap="round" stroke-linejoin="round" stroke-miterlimit="10" d="M44.1,161.5
			c0,0-17.9,0.1-17.8-0.1c0.1-0.2,5.9-7.8,5.9-7.8L44.1,161.5z"/>
		<polygon fill="#FFFFFF" stroke="#B5935B" stroke-linecap="round" stroke-linejoin="round" stroke-miterlimit="10" points="
			45.4,164 44.1,161.5 26.4,161.3 31.7,170 		"/>
	</g>
	<g>
		
			<polygon fill="#FFFFFF" stroke="#B5935B" stroke-width="1.1053" stroke-linecap="round" stroke-linejoin="round" stroke-miterlimit="10" points="
			44.2,114.5 29.9,118.3 45.1,127.7 		"/>
		
			<polygon fill="#FFFFFF" stroke="#B5935B" stroke-width="1.1053" stroke-linecap="round" stroke-linejoin="round" stroke-miterlimit="10" points="
			29.9,118.3 25.4,128.6 45.1,138 45.1,127.7 		"/>
	</g>
	<g>
		<polygon fill="#FFFFFF" stroke="#B5935B" stroke-linecap="round" stroke-linejoin="round" stroke-miterlimit="10" points="
			50.3,32.1 44.5,27.7 34.9,38.4 28.4,33.8 28.9,46.5 39.7,47.7 		"/>
		<polygon fill="#FFFFFF" stroke="#B5935B" stroke-linecap="round" stroke-linejoin="round" stroke-miterlimit="10" points="
			44.5,27.7 21,34.6 28.9,46.5 		"/>
	</g>
</g>
</svg>
