<?xml version="1.0" encoding="utf-8"?>
<!-- Generator: Adobe Illustrator 18.1.1, SVG Export Plug-In . SVG Version: 6.00 Build 0)  -->
<!DOCTYPE svg PUBLIC "-//W3C//DTD SVG 1.1//EN" "http://www.w3.org/Graphics/SVG/1.1/DTD/svg11.dtd" [
	<!ENTITY ns_extend "http://ns.adobe.com/Extensibility/1.0/">
	<!ENTITY ns_ai "http://ns.adobe.com/AdobeIllustrator/10.0/">
	<!ENTITY ns_graphs "http://ns.adobe.com/Graphs/1.0/">
	<!ENTITY ns_vars "http://ns.adobe.com/Variables/1.0/">
	<!ENTITY ns_imrep "http://ns.adobe.com/ImageReplacement/1.0/">
	<!ENTITY ns_sfw "http://ns.adobe.com/SaveForWeb/1.0/">
	<!ENTITY ns_custom "http://ns.adobe.com/GenericCustomNamespace/1.0/">
	<!ENTITY ns_adobe_xpath "http://ns.adobe.com/XPath/1.0/">
]>
<svg version="1.1" id="Layer_1" xmlns:x="&ns_extend;" xmlns:i="&ns_ai;" xmlns:graph="&ns_graphs;"
	 xmlns="http://www.w3.org/2000/svg" xmlns:xlink="http://www.w3.org/1999/xlink" x="0px" y="0px" viewBox="0 0 155.8 146"
	 enable-background="new 0 0 155.8 146" xml:space="preserve">
<metadata>
	<sfw  xmlns="&ns_sfw;">
		<slices></slices>
		<sliceSourceBounds  width="185.5" height="154.2" y="-452.9" x="583.3" bottomLeftOrigin="true"></sliceSourceBounds>
	</sfw>
</metadata>
<g>
	
		<line fill="none" stroke="#B5935B" stroke-linecap="round" stroke-linejoin="round" stroke-miterlimit="10" x1="31.2" y1="18.7" x2="137.7" y2="18.7"/>
	<polyline fill="none" stroke="#B5935B" stroke-linejoin="round" stroke-miterlimit="10" points="23,74.2 0.5,74.2 0.5,145.5 
		155.3,145.5 155.3,74.2 140.7,74.2 	"/>
	<g>
		<defs>
			<polyline id="XMLID_78_" points="23,77.7 4.2,77.7 4.2,141.5 152,141.5 152,77.7 140.5,77.7 			"/>
		</defs>
		<clipPath id="XMLID_2_">
			<use xlink:href="#XMLID_78_"  overflow="visible"/>
		</clipPath>
		<polyline clip-path="url(#XMLID_2_)" fill="none" stroke="#B5935B" stroke-linejoin="round" stroke-miterlimit="10" points="
			16.4,68.4 16.2,153.7 32.2,153.7 32.1,106.5 		"/>
		
			<line clip-path="url(#XMLID_2_)" fill="none" stroke="#B5935B" stroke-linejoin="round" stroke-miterlimit="10" x1="16.2" y1="129.7" x2="-19" y2="129.7"/>
		
			<line clip-path="url(#XMLID_2_)" fill="none" stroke="#B5935B" stroke-linejoin="round" stroke-miterlimit="10" x1="123.3" y1="121.7" x2="166.5" y2="121.7"/>
		
			<line clip-path="url(#XMLID_2_)" fill="none" stroke="#B5935B" stroke-linejoin="round" stroke-miterlimit="10" x1="132.5" y1="121.7" x2="132.5" y2="147"/>
		
			<line clip-path="url(#XMLID_2_)" fill="none" stroke="#B5935B" stroke-linejoin="round" stroke-miterlimit="10" x1="32.3" y1="117.4" x2="23.2" y2="117.4"/>
		<use xlink:href="#XMLID_78_"  overflow="visible" fill="none" stroke="#B5935B" stroke-linejoin="round" stroke-miterlimit="10"/>
	</g>
	<g>
		<path fill="#B5935B" d="M68.3,103.6c0.7-0.2,1.5-0.1,2.1-0.3c-2.6-0.5-5-1.3-7-3.1c-2.8-2.6-5.4-5.4-8.4-7.4
			c2.4,3.2,3.1,7.9,7.4,9.5c0.8,0.3,1.7,0.3,2.3,0.8c-0.8,0.1-1.6-0.1-2.4-0.3c-5.6-1.2-12.5,0.3-16.7-4.4c1.6,3.1,4.9,5.6,8,6.6
			C58.6,106.6,63.7,104.7,68.3,103.6z"/>
		<path fill="#B5935B" d="M42.4,61.5c0.8-1.6,2-3.1,3.5-4.2c3.3-2.5,6.9-5.7,6.9-9.9c-1.1,3-4.4,4.3-6.6,6.4
			c-1.2,1.1-2.1,2.4-2.6,3.8l-0.1-0.1c0.3-1.2,0.8-2.3,1.1-3.5c1-3.2,0.8-7.1,3.9-9.2c-1.6,0.4-3,1.5-4.2,2.8
			c-2.5,2.8-2.3,6.9-2,10.6C42.6,59.4,42.5,60.3,42.4,61.5z"/>
		<path fill="#B5935B" d="M46.2,52.4c1.8-1.6,3.8-2.9,5.3-4.8c1.8-2.4,3.3-5,5.7-7c-3.2,1.2-6.6,2.5-8.6,5.7
			C47.3,48.1,47.2,50.4,46.2,52.4z"/>
		<path fill="#B5935B" d="M42.5,89c2.5,1.9,5.4,3.5,7.7,5.2c-0.4-1.1-1.2-2.2-1.5-3.3c-1.3-5.3-0.6-11.5-2.9-16.5
			c0.4,2.8-0.7,5.3-0.9,8c-0.2,2.2,0.2,4.3,1,6.2c0.3,0.5,0.7,1,0.8,1.6c-0.8-0.7-1.4-1.7-2-2.6c-2.7-4.3-8.2-7.1-8.6-12.3h0
			c-0.2,2.3,0,4.8,0.8,6.9C38,84.9,40.1,87.1,42.5,89z"/>
		<path fill="#B5935B" d="M58.9,101.3c-3.6-2.9-4.2-7.4-5.8-11.2c-1-2.4-2.7-4.6-4.4-6.7c1.9,3.9,1.1,8.8,3.6,12.5
			c0.8,1.1,1.9,2.2,2.9,3.1l0,0c-0.9-0.4-1.7-1.1-2.6-1.8c-4.4-3.6-11-4.1-13.6-10.1c0.7,4.4,4.2,8.2,7.9,10.7
			C50.4,100.2,55,99.9,58.9,101.3z"/>
		<path fill="#B5935B" d="M43.3,83.7l0.2,0.2c-0.3-1.7-0.4-3.6,0.1-5.2c0.7-2.6,1.7-5.2,2.2-7.9c0.4-2.1,0.8-4.5,0.6-6.6
			c-0.3,1.1-0.6,2.2-1.2,3.1c-2.3,3.6-4.7,7.8-3.1,12.3c0,0-0.1,0.1-0.2,0.1c-0.7-1.5-0.8-3.2-1.2-4.8c-1.1-4.3-4.4-7.8-3.4-12.8
			c-0.5,1.1-0.7,2.3-1,3.5c-0.6,3,0,6.2,0.8,9C38.1,78,41.5,80.5,43.3,83.7z"/>
		<path fill="#B5935B" d="M47.5,60.7c0.8-1.6,1.2-3.3,1.5-5c-0.3,0.7-0.7,1.4-1.3,2c-2.6,2.4-5.6,4.8-6.1,8.2
			c-0.1,0.5-0.1,1-0.3,1.5c-0.1,0-0.1-0.1-0.2-0.1l0.3-4.3c0.3-4.1-1.9-8.8,0.5-12.4c-0.1,0-0.1,0-0.2,0.1c-2.2,2.8-3.6,5.8-3.6,9.6
			c0,4.6,2.7,7.8,3,12.2C41.8,67.9,45.6,64.7,47.5,60.7z"/>
		<polygon fill="#B5935B" points="122.4,87.2 122.4,87.2 122.4,87.2 		"/>
		<path fill="#B5935B" d="M120.6,74.9c-0.4,1.6-0.6,3.3-1.2,4.8c-0.1,0-0.1,0-0.2-0.1c1.6-4.5-0.8-8.8-3.1-12.3
			c-0.6-0.9-0.9-2-1.2-3.1c-0.3,2.1,0.2,4.4,0.6,6.6c0.5,2.7,1.4,5.3,2.2,7.9c0.5,1.6,0.4,3.5,0.1,5.2l0.2-0.2
			c1.7-3.2,5.1-5.7,6.2-9.1c0.8-2.8,1.4-6,0.8-9h0c-0.3-1.2-0.5-2.4-1-3.5C125,67,121.7,70.6,120.6,74.9z"/>
		<path fill="#B5935B" d="M116.6,87.5c-0.6,0.9-1.2,1.9-2,2.6c0.1-0.6,0.6-1.1,0.8-1.6c0.9-1.8,1.2-4,1-6.2c-0.3-2.7-1.4-5.2-0.9-8
			c-2.3,4.9-1.6,11.1-2.9,16.5c-0.3,1.2-1,2.2-1.5,3.3c2.3-1.7,5.2-3.2,7.7-5.2c2.4-1.9,4.5-4.1,5.5-7c0.8-2.1,1-4.5,0.8-6.9
			C124.8,80.4,119.2,83.2,116.6,87.5z"/>
		<path fill="#B5935B" d="M97.2,106.8c-3.8-1.6-7.6-3.7-11.9-3.7c-1.6,0-3.1,0.3-4.6,0.7c-1.5-0.5-3.1-0.7-4.6-0.7
			c-4.3,0-8.2,2.1-11.9,3.7c-3.4,1.4-8,1.1-11-1c1.5,1.9,3.5,3,5.6,3.8c3.9,1.5,8.3,0.4,11.6-1.7c2.4-1.5,4.4-3.6,7.2-3.6
			c0.5,0,1,0.1,1.5,0.2c-3.9,1.6-7.5,4.4-10.3,7c0.5,0.6,1.2,1.1,1.8,1.6c3.1-3.2,6.7-6.7,10.2-8.2c3.5,1.4,7.1,4.9,10.2,8.2
			c0.6-0.5,1.3-1.1,1.8-1.6c-2.8-2.7-6.4-5.5-10.3-7c0.5-0.1,1-0.2,1.5-0.2c2.8,0,4.8,2.1,7.2,3.6c3.3,2.1,7.8,3.3,11.6,1.7
			c2.1-0.8,4.1-1.9,5.6-3.8C105.2,107.9,100.7,108.2,97.2,106.8z"/>
		<path fill="#B5935B" d="M98.9,102.7c-0.8,0.2-1.5,0.4-2.4,0.3c0.7-0.4,1.6-0.5,2.3-0.8c4.4-1.6,5-6.3,7.4-9.5
			c-3,2-5.6,4.8-8.4,7.4c-2,1.8-4.5,2.6-7,3.1c0.6,0.2,1.4,0.2,2.1,0.3c4.6,1.1,9.7,2.9,14.6,1.3c3.2-1,6.4-3.5,8-6.6
			C111.4,103.1,104.6,101.5,98.9,102.7z"/>
		<path fill="#B5935B" d="M119.9,63l0.3,4.3c0,0,0,0.2-0.2,0.1c-0.1-0.5-0.2-1-0.3-1.5c-0.6-3.4-3.6-5.8-6.1-8.2
			c-0.6-0.6-1-1.3-1.3-2c0.2,1.7,0.7,3.5,1.5,5c2,4,5.8,7.2,6.4,11.7c0.3-4.3,3-7.6,3-12.2c0-3.7-1.5-6.8-3.6-9.6
			c-0.1,0-0.1-0.1-0.2-0.1C121.8,54.2,119.6,58.8,119.9,63z"/>
		<path fill="#B5935B" d="M108.8,97.3c-0.8,0.7-1.7,1.3-2.6,1.8l0,0c1-0.9,2.1-2,2.9-3.1c2.5-3.6,1.7-8.6,3.6-12.5
			c-1.8,2.1-3.4,4.3-4.4,6.7c-1.6,3.9-2.2,8.3-5.8,11.2c3.9-1.3,8.5-1,12.1-3.4c3.7-2.4,7.2-6.3,7.9-10.7
			C119.7,93.1,113.2,93.6,108.8,97.3z"/>
		<path fill="#B5935B" d="M116.6,54c0.4,1.2,0.9,2.3,1.1,3.5l-0.1,0.1c-0.5-1.4-1.4-2.7-2.6-3.8c-2.2-2.1-5.5-3.3-6.6-6.4
			c0,4.2,3.7,7.4,6.9,9.9c1.5,1.1,2.7,2.6,3.5,4.2c-0.1-1.2-0.2-2.1-0.1-3.3c0.3-3.7,0.6-7.8-2-10.6c-1.2-1.3-2.6-2.4-4.2-2.8
			C115.8,47,115.7,50.8,116.6,54z"/>
		<path fill="#B5935B" d="M109.8,47.5c1.5,2,3.5,3.2,5.3,4.8c-0.9-2-1.1-4.2-2.3-6.1c-2.1-3.2-5.4-4.5-8.6-5.7
			C106.5,42.5,108,45.2,109.8,47.5z"/>
		<path fill="#B5935B" d="M53,55.4c1.4-2.9,3.3-5.6,5.6-7.9l4,4c-1.9,1.9-3.4,4.2-4.6,6.6l0-0.1c-1.5,3.2-2.4,7.3-2.5,10.3h-5.7
			c0.1-4,1.1-9,3.1-13L52.4,55c-2.1,4.2-3.2,9-3.2,13.9c0,3.1,0.4,6.1,1.3,8.9l0.7-0.2c-0.8-2.7-1.2-5.3-1.2-8.3h5.7
			c0,2,0.4,4.7,1.1,6.9l0.7-0.2c-0.7-2.2-1-4.8-1.1-6.8h5.1c0,1,0.1,1.5,0.2,2.3c-0.4,0-0.7,0.2-0.7,0.2l-0.2,0.5
			c-0.3,0.1-0.6,0.6-0.6,0.6c-0.3,0.1-0.5,0.5-0.4,0.5c0.1,0.1-0.1,0.1-0.1,0.1v0.7l-0.2,0.2l0,0.8c0.2,0,0.2,0.4,0.2,0.4
			c-0.3,0-0.3,0.5-0.3,0.5l-0.7,0.2l-0.1,0.2l-0.8,0l-0.2,0.2c-0.1-0.2-0.1-0.4-0.2-0.6l-0.7,0.1c0,0.1,0.1,0.1,0.1,0.1h-0.9
			l-0.1-0.1l-0.3,0l0-0.3l-0.5,0l-0.1,0.2l-0.5,0c0,0.3-0.5,0.8-0.6,0.7c-0.1-0.1-0.6-0.5-0.4-0.5c0.2-0.1,0.4-0.1,0.4-0.1V76l-1,0
			l0.2,0.2l-0.2,0v0.5l-0.4,0.1c-0.2,0.1-0.1,0.5-0.1,0.5c0.2,0.2-0.1,0.6-0.1,0.6c-0.2,0.2,0.1,0.5,0.1,0.5
			c0.3,0.1-0.2,0.3-0.2,0.3c0.1,0.3,0.2,0.4,0.2,0.4c-0.2,0.3,0.1,0.5,0.1,0.5l0,0.5l0.2,0.1v0.4l0.1-0.2h0.5l0-0.6
			c-0.4-0.5,0.4-0.5,0.4-0.3c0,0.2,0.4,0.3,0.4,0.3c0.1,0.5,0.6,0.8,0.8,0.3c0.2-0.5,0.3,0,0.4,0.3c0.1,0.2,0.7,1,0.7,1h0.5l0.1,0.2
			c0.5,0,0.7-0.1,0.9,0.7c0.2,0.7,0.8,0.9,0.8,0.9l0.4-0.1c0-0.4,0.4,0.1,0.4,0.2c0,0.2,0.9,0.9,0.9,0.9l0.9,0.2l0.2,0.1
			c0.5,0.7,1.1,1.3,1.7,1.9l-4,4c-3.6-3.6-6.1-8-7.5-12.8l-0.7,0.2c1.5,5,4.2,9.6,8,13.4c2.6,2.6,5.5,4.6,8.7,6.2l0.4-0.7
			c-3-1.4-5.8-3.4-8.3-5.8l4-4c2.1,2,4.5,3.6,7,4.8l0.4-0.7c-2.5-1.1-4.8-2.7-6.9-4.7l0.7-0.7c0,0.1,0.1,0.2,0.1,0.3
			c0.1,0.5,0.3,0.4,0.3,0.4l1.8,0l0.6-0.5l1.6,0c0.8,0,0.3-1.2,0.2-1.2C69,84.5,69,84.3,69,84.2c1.3,1,2.7,1.8,4.2,2.5l0.4-0.7
			c-1.9-0.8-3.6-1.9-5.1-3.3l-0.5-0.4l4-4c1.3,1.2,2.8,2.1,4.4,2.7l0.4-0.7c-1.6-0.5-3-1.4-4.3-2.6l3.6-3.6c1.1,1,2.5,1.6,4,1.7l0,0
			c0,0-0.1,0.3,0,0.3c0.1,0,0.1,0.1,0.2,0.1l-0.1,0.2c-0.1-0.2-0.2,0.1-0.1,0.2c0.1,0.1-0.2,0-0.2,0.1c0,0.1-0.1,0.1,0,0.2
			c0.1,0,0,0.1-0.1,0.1c-0.1,0.1,0.4,0.1,0.4,0.1s0.1-0.2,0.2-0.2c0,0,0.3,0,0.3,0v0.3c0,0,0,0-1,0v0.2l0,0l0.5,0.3l0.5,0v0.5
			l-0.2,0c0,0.4-1.2,0.1-1.2,0L79.1,79l-0.2,0l0,0.4l0.2,0.5l0.6-0.1v0.2l0.8,0l0.2-0.2v0.6l-0.2,0l-0.7,0.1l-0.3,0l-0.1-0.3h-0.3
			l-0.2,0.4c-0.8-0.1-1.5-0.2-2.2-0.5l-0.4,0.7c0.4,0.2,0.9,0.3,1.4,0.4c-0.1,0.1-0.1,0.1-0.1,0.2c0.1,0.2-0.3,0.3-0.3,0.3L77.1,82
			l-0.2,0.3l-0.4,0.1l0.2,0.7l0,0.1v0.3l-1,0.1v0.2l-0.2,0l0.3,0.5l0.3,0.1c0.4,0.1,0.3,0.6,0.3,0.6l0.3,0l0.1,0.4l0.3,0.5
			c0.1,0.4,0.4,0.3,0.5,0.3c0.1,0,0.3,0.4,0.3,0.4l1.3,0c0,0,0.1,0.1,0.4,0.2c0.1,0,0.3,0.1,1.3,0.1v0.6c-3,0-4.8-0.5-7-1.4
			l-0.3,0.7c2.2,0.9,4.2,1.5,7.2,1.5v5.1c-4-0.1-6.9-0.8-9.9-2.2l-0.3,0.7c3.1,1.4,6.1,2.2,10.1,2.3v5.7c-5-0.1-9.1-1.1-13-3
			l-0.5,0.7c4.2,2,8.8,3.1,13.5,3.1c5,0,9.8-1.2,14.2-3.4l-0.5-0.7c-4.1,2.1-8.7,3.2-13.7,3.3v-5.7c3,0,4.8-0.4,6.9-1l0.6,0.2
			l0.2,0.5l0.3,0l0.2-0.2l0.8,0l0.4-0.4l0.4-0.1l3-2.6c1.6-1,3.2-2.2,4.6-3.5l4,4c-2.2,2.2-4.8,4-7.6,5.4l0.4,0.7
			c3-1.5,5.7-3.5,8.1-5.9c2.5-2.5,4.6-5.4,6.1-8.5l0,0l-0.3-0.2l0.3,0.2c2.1-4.2,3.1-8.9,3.1-13.8c0-4.1-0.8-8.1-2.3-11.8l0,0
			c-1.6-3.9-3.9-7.4-6.9-10.5c-3.1-3.1-6.6-5.4-10.5-7l0,0c-3.7-1.5-7.7-2.3-11.8-2.3c-5.1,0-9.9,1.2-14.1,3.3l0.6,0.7
			c4.1-2.1,8.6-3.2,13.6-3.2v5.7c-4,0.1-7.7,1-10.9,2.6l0.5,0.7c3.2-1.6,6.5-2.5,10.5-2.5v5.1c-3,0.1-5.8,0.7-8.2,1.9l0.5,0.7
			c2.4-1.1,4.8-1.8,7.8-1.8v5.7c-2,0.1-3.7,0.5-5.2,1.2l0.5,0.7c1.4-0.7,2.8-1.1,4.8-1.1v5.2c-1,0-1.7,0.2-2.3,0.2h-0.1l0-0.2l0.2,0
			L78.2,62L78,62.3l0,0.3l-0.3,0.1v-0.3l0,0V63c-1,0.3-1,0.5-1.4,0.9l-3.7-3.6c0.9-0.9,2-1.6,3.1-2.1l-0.4-0.7
			c-1.2,0.6-2.4,1.3-3.3,2.3l-4-4c1.4-1.4,3-2.5,4.7-3.3l-0.3-0.7c-1.8,0.9-3.5,2-4.9,3.4l-3.6-3.6c1.8-1.8,3.9-3.2,6.2-4.3
			l-0.3-0.7c-2.3,1.2-4.5,2.7-6.3,4.5l-4-4c2.3-2.3,4.9-4.1,7.7-5.5l-0.3-0.7c-6.1,3.1-11.1,8.1-14.2,14.3L53,55.4z M64.5,69.3
			l0,0.2L64,70l0.1,0.5l-0.3,0.1l-0.1,0.2l-0.1,0.7l0.3,0c0.2-0.1,0.1,0.4,0,0.5c-0.1,0.1-0.5,0.2-0.3,0.3c0.2,0.1-0.5,0.1-0.5-0.1
			c0-0.2-0.4-0.4-0.5-0.3c-0.1,0-0.1-0.1-0.2-0.2c-0.1-0.8-0.2-1.5-0.2-2.5H64.5z M62.3,85h0.1c0.2-0.5,0.9,0,1,0.2
			c0,0.1,0.1,0.2,0.2,0.2l-0.5,0.5C62.9,85.6,62.6,85.3,62.3,85z M67.4,81.7c-0.3-0.3-0.5-0.6-0.7-0.9c0.1-0.2,0.2-0.4,0.2-0.4
			c0.4-0.3-0.1-0.7-0.1-0.7c0.1-0.4-0.4-0.8-0.4-0.8c-0.6-0.4-0.6-1.1-0.6-1.1v-0.5c0-0.5,0.4-0.5,0.4-0.5c0.2-0.4-0.1-0.7-0.1-0.7
			l0-0.4l-0.5-0.1l-0.1-1.5l-1.1-1.6c-0.2-0.1-0.1-0.5-0.1-0.5c0.3-0.2-0.1-0.5-0.1-0.5l0-0.7l0.7-0.1l0.2-0.3h0.3l0-0.8
			c0.1-0.2,0.1-0.2,0.2-0.2h0.2c0.1,0,0.1,0.1,0.1,0.1l0.4,0l0-0.1h1.5l0.1,0.8l-0.4,0.4c-0.3,0.2-0.3,0.6,0,0.7
			c0.3,0,0.2,0.6-0.2,0.2c-0.5,0,0.1,0.4,0.1,0.4c0.5,0.2,0.4-0.3,0.4-0.3l0.3-0.2c0.1,0.6,0.3,1.3,0.5,1.9l0,0
			c0.6,1.6,1.5,3.1,2.7,4.4L67.4,81.7z M66.2,68.5c-0.4-0.2-0.2-1.1-0.2-1.1c0.6-0.9,1.3-0.4,1.3-0.4l0.4,0c0.1,0.1,0.2,0.2,0.2,0.3
			c0,0.3-0.1,0.6-0.1,0.9c-0.1,0.1-0.1,0.2-0.1,0.2c0,0.1-0.1,0.2-0.1,0.3h-1.2l0,0L66.2,68.5z M73.3,69.8l0.1-0.2l0.1-0.3h0.4
			c0,0.2,0.1,0.4,0.1,0.7l-0.2,0.1L73.7,70l-0.1,0.4H73l0-0.4L73.3,69.8z M71.9,77.2c-1.1-1.2-2-2.6-2.5-4.1l0,0
			c-0.2-0.7-0.4-1.4-0.5-2.1c0.3,0.1,0.6,0.5,0.6,0.6c0,0.1,1.3,0,1.3,0c0.3,0.2,0.5,0.8,0.5,0.8c0.4-0.5,1.1,0,0.5,0.2
			c0.5,0.3,0.5,0.6,0.5,0.6c0.4-0.1,0.4,0.2,0.4,0.3c0,0.1,0.1-0.5,0.1-0.5c-0.5-0.4,0.6-0.5,0.3,0.2l-0.2,0.3l0.3,0.3l0,0.7
			c0.7-0.1,0.5-0.9,0.5-0.9l0.3-0.1c0-0.3,0.2-0.1,0.2-0.1c-0.2-0.8,0.2-1.1,0.4-1.2c0.3,0.5,0.5,0.9,0.9,1.3L71.9,77.2z M75.2,71.6
			c0.1-0.2,0.1-0.4,0.1-0.4C75,71,75.1,70.6,75.4,71c0.3,0.4-0.2-0.8-0.2-0.8L75,70l-0.3,0c0-0.3-0.1-0.6-0.1-0.9c0-0.1,0-0.3,0-0.4
			c0.1-0.1,0.2,0,0.2,0l0.2,0.2l0.3,0.2l0,0.2l-0.2,0.1l0,0.5l0.1,0.6h0.3c0.1-1,0.8-0.8,1-0.4l0.2-0.6c-0.4-0.2,0-0.6,0.1-0.5
			s0.4-0.5,0.4-0.5s0.2,0.3,0-0.1c-0.2-0.4,0.2-0.6,0.2-0.6c-0.1-0.4,0.4-0.3,0.4-0.3l0-0.5l-0.4,0c-0.1,0.5-0.3,0.1-0.1,0
			c0.2-0.1,0.5-0.3,0.5-0.3v-0.3l0-0.3l-0.1-0.5h0.5l0.4,0l0.1-0.1l0.4,0l0.7-0.6l0-0.2v-0.3l0-0.9h-0.3l-0.1-0.5
			c0.4-0.1,0.9-0.1,1.3-0.1l0.1,0.7l-0.4-0.2h-0.2l-0.1-0.1l-0.2,0.1v0.7l0.2,0.2l0.2,0.2l0.3,0l0.1,0.4l0.8,0l0.1,0.2l0.5,0
			l0.9,0.9l-0.1,0.3l-0.4,0.1c0.1,0.2-0.7,0.1-0.7,0.1v0.2l0.5,0l0.3,0.1l0.4-0.5c0.3-0.2,0.7,0.1,0.8,0.3c0,0.2,0.1,0.2,0.1,0.2
			v0.5l0,0.1c0.3,0.4-0.2,0.6-0.2,0.6l-0.1,0.3c-0.1,0.3-0.5,0.2-0.5,0.2l-0.1,0.2l-0.4,0.1l0.8,0.1c0.1-0.3,0.3-0.3,0.4-0.2
			c0.1,0.1,0.1,0.4,0.1,0.4l0.2,0l-0.1,0.4l0.1,0.1v1l0.3,0.3c0.4-0.2,0.4,0.1,0.2,0.2C84.1,71,84,71.6,84,71.6l-0.3,0.2V72v0.1v0.4
			c0-0.2-0.6-0.1-0.7,0c-0.3-0.2-0.8-0.1-0.8,0c0.2,0.3-0.2,0.3-0.2,0.3l-0.2,0.3c0.2,0.3-0.1,0.4-0.1,0.4v0.6l-0.4,0.4l0,0.6
			c-0.2,0-0.4,0-0.6,0c-1.5,0-2.9-0.5-4-1.5c0,0,0,0,0.1-0.1c0.2-0.3,0.4-0.3,0.4-0.3l0.1-0.2l0.9,0c0.1-0.4,0.5-0.2,0.5-0.1
			c0,0.2,0.3-0.1,0.3-0.1l0.2-0.5h0.3l0.1-0.2l0.2,0v-0.6c0-0.2,0.4-0.6,0.4-0.6l0.1-0.2l-0.1-0.2c-0.3-0.1-0.1-0.3,0-0.3
			c0.2,0.1-0.2-0.5-0.2-0.5c-0.2,0.2-0.4-0.4-0.4-0.4h-0.9v0l0.2-0.4l-0.4-0.2L77.9,69l-0.2,0.5v0.3l-0.1,0.1l0.1,0.9l-0.2,0.1
			l0.1,0.3l-0.3,0.1l-0.3,0.1l-0.1,0.4l-0.3,0.2l-0.1,0.4l-0.2,0.9C75.8,72.7,75.5,72.2,75.2,71.6z M87.5,51.9L87.5,51.9
			c0.7,0.2,1.3,0.5,1.8,0.8c0,0,0,0,0,0c0.9,0.5,1.8,1.1,2.7,1.7c0,0.2,0.3,0.3,0.3,0.3l0.1,0c0.1,0.1,0.3,0.2,0.3,0.3v0.2
			c0-0.1,0.6,0.2,0.6,0.4l-3.9,3.9c-1.1-1.1-2.4-1.9-3.8-2.5l-0.2,0c-1.4-0.6-2.7-0.9-4.7-1v-5.7C83.7,50.6,85.4,51.1,87.5,51.9z
			 M95.7,54.5c0.4,0.3,0.8,0.9,0.7,1c-0.1,0.1,0.4,0.1,0.4,0.1c0.1-0.6,0.6-0.4,0.6-0.2c0,0.2,0.1,0.6,0.1,0.6l0.2,0.3l0.2,0.2
			l0.3,0l0.1,0.2l0.4,0.1c0,0,0.4,0.4,0.4,0.5c0,0.1,0.5,0.1,0.6,0.1c0.1,0,0.3,0.1,0.3,0.3c0,0.2,0.2,0.4,0.2,0.4s0.4,0.1,0.4,0.2
			c0,0.1,0.2,0.4,0.2,0.4l0.3,0.3l0,0.3l0.3,0l0.1,0.4l0.6,0l0.3-0.2c0.1,0,0.2-0.1,0.2-0.2c0.1,0.3,0.3,0.5,0.4,0.8l0-0.1
			c1.1,2.7,1.7,5.5,1.7,8.5h-5.1c0-1-0.1-1.7-0.3-2.5c0-0.1,0.1-0.2,0-0.3c-0.1-0.1,0.1-0.5,0.1-0.5s0.1-0.2,0-0.5
			c-0.1-0.3,0-0.5,0.1-0.7l-0.3-0.1l-0.3,0l-0.2,0c-0.1-0.2-0.1-0.4-0.2-0.6l-0.2,0l0,0V63l-0.1-0.1c0-0.1,0-0.2,0-0.4l0-0.7
			l-0.2-0.2l0.1-0.3l-0.2-0.1l0.1-0.5l-0.2-0.5h-0.3c-0.2,0-0.3-0.5-0.5-0.8c0,0,0.1,0,0.2,0c0.2,0,0.2,0,0.3,0l0-0.3l-0.3-0.2
			l-0.1-0.4c0,0-0.3,0.1-0.3,0.3c0,0,0,0.1-0.1,0.1c-0.2-0.3-0.5-0.7-0.7-1c0,0,0-0.1,0-0.1c0.1-0.2,0.1-0.4-0.2-0.4
			c-0.2-0.1-0.2-0.1-0.3-0.3c-0.1-0.3-0.3-0.3-0.3-0.3l-0.1-0.4l-0.3,0.2c-0.1-0.1-0.2-0.3-0.4-0.4l0.1-0.4c-0.1,0-0.2-0.1-0.2-0.2
			L95.7,54.5z M94.6,57L94.6,57c-0.1,0.4,0.1,0.3,0.3,0.3c0.1,0.1,0.1,0.1,0.2,0.2c0,0.2,0,0.5,0.3,0.5c0.5,0.7,0.9,1.3,1.3,2
			c-0.1,0.1-0.3,0.1-0.3,0.1l-0.7,0.1v0.5l0,0.1l0.1,0.3l0.4,0c0,0,0,0.4,0.1,0.2c0.1-0.2,0.9,0,0.8,0.4c0,0.2,0.8,0.6,0.7,1.1
			c0.1,0,0.1,0,0.2,0.1c0.2,0.4,0.3,0.9,0.4,1.3l-0.1,0.1c0,0,0,0,0.1,0.1c0.1,0.4,0.2,0.8,0.3,1.3c0,0.3-0.1,0.7-0.3,0.8
			c-0.4,0.2,0,0.1,0,0.1l-0.1,0.7c0.1,0.3,0.3,0.2,0.3,0c0.1-0.1,0.1-0.3,0.2-0.3c0,0.5,0.1,1.3,0.1,1.3h-3.8c0,0,0.1,0,0.1,0
			l0.2-0.4l0.5-0.1l0.1-0.4l-0.3,0c0,0,0.3-0.6,0.5-0.6c0.2,0,1.2,0,1.3-0.1c0.1-0.1,0.3-0.6,0.3-0.7c0-0.1,0.3-0.1,0.3-0.2
			c0.1,0,0.3-0.3,0.4-0.4c0.1-0.1-0.2-0.9-0.3-0.8l0,0c-0.1,0.1-0.4,0.2-0.4,0.2l-0.1,0.4l-0.2,0.1c0,0,0,0.1,0,0.3
			c0,0.2-0.3,0.4-0.3,0.4l-0.1,0.2c0,0-0.8,0-0.9,0c-0.3-0.1-0.1-0.5,0.1-0.5c0.2,0,0-0.5,0-0.5l0.3,0c0,0,0-0.6,0.1-0.6
			c0.1,0,0-0.2-0.2-0.3c-0.1-0.1-0.3-0.4-0.4-0.4c-0.1,0-0.6,0-0.6,0l-0.1,0.2l-0.4,0.1c0,0,0,0.2,0,0.3c-0.2,0.2-0.9,0.7-0.5-0.1
			l0.2-0.2v-0.3l-0.6,0c0,0-0.3-0.1-0.3-0.2c0-0.1,0-0.3,0-0.3L93,62.6l-0.8-0.1l-0.1-0.2l-0.5-0.1c-0.1,0-0.1,0-0.2-0.1
			c-0.2-0.4-0.5-0.7-0.7-1.1c0,0,0-0.1,0-0.1c0-0.1-0.4-0.6-0.6-0.6c-0.1-0.1-0.1-0.2-0.2-0.2l4-4c0.1,0.1,0.1,0.2,0.3,0.3
			c0.1,0,0.1,0.1,0.1,0.1C94.4,56.8,94.5,56.9,94.6,57z M97.5,76.4c-0.9,2-2.1,3.7-3.5,5.3c-0.1-0.6-0.2-1.4-0.2-1.4l-0.3-0.2
			l0.1-0.8h-0.3l-0.6,0.8l-0.1,0.2L92.3,80l0.2-0.2l0-0.4l0.3-0.2V79l0.1-0.1l-0.1-0.7l0,0v-1.5l-0.3-0.5c0,0.2-0.5,0.2-0.5,0.2
			s-0.1,0.2-0.2,0.2c-0.1,0,0.1,0.3,0.1,0.5c-0.1,0.2-0.3,0.2-0.3,0.2l-0.5,0l-0.1,0.1h-0.5l0-0.2c0-0.1,0.1-0.1,0.1-0.1l0.4-0.1
			l0.3-0.1l0.2-0.3c0-0.3,0.4-0.3,0.4-0.3s0.7-0.5,0.8-0.8c0-0.3,0.3-1,0.7-1h0.8c0.3,0,0.2-0.6,0.2-0.6l0.4-0.1l0.1,0.2
			c0,0,0.6,0.1,0.6,0c0.1-0.1,0.2-0.3,0.4-0.2c0.2,0.1,0.7-0.2,0.7-0.2c0-0.2,0.8-0.1,0.8-0.1l0.1-0.3c0,0-0.5-0.7-0.6-0.7
			c-0.1,0-0.6-0.5-0.7-0.3c-0.5-0.1-0.5-0.8-0.5-0.8l-0.2-0.5c0-0.3-0.5-0.8-0.6-0.8c-0.2-0.1-0.3-0.5-0.2-0.5h4.5
			C99,72.3,98.5,74.2,97.5,76.4L97.5,76.4z M83.1,75.5l0.2,0.1L83,75.8l-0.3,0.3L82.4,76L82,76l-0.1-0.2l-0.2,0l0,0.5l-0.2,0.2
			l-0.6,0.4c0.4,0,0.8,0.2-0.2,0.3v-1.3c1,0,1-0.3,1.4-0.4c0,0,0.2-0.1,0.2-0.1h0.3l0,0c0.1,0,0.3,0,0.4-0.1
			C83.1,75.4,83.1,75.5,83.1,75.5z M88.8,61.4c0,0,0.1,0,0.1,0c0.2,0,0.6-0.1,0.6-0.1s0.2,0,0.3,0.1c0.2,0.2,0.3,0.4,0.4,0.6
			l-0.4-0.1l-0.3,0l-0.5,0c-0.5,0.3-0.6,0.7-0.6,0.7c-0.2,0.4-0.7,0-0.7-0.3L88.8,61.4z M87.9,75.7c0,0,0-0.1,0-0.1c0,0-0.1,0-0.2,0
			l-0.3-0.3c0-0.2,0.1-0.5,0-0.5c0-0.1,0.5-0.3,0.4,0c-0.1,0.3,0,0.4,0,0.4c0.4-0.4,0.8,0,0.7,0.1c0,0.1,0.2,0.2,0.4,0.1
			c0.2-0.1,0.4,0.3,0.3,0.5c-0.1,0.2-0.6,0.2-0.7,0c0-0.2-0.1-0.1-0.2,0c-0.1,0.1-0.3,0.1-0.4,0.1L87.9,75.7z M90.6,63.4
			c-0.3,0-0.4-0.3-0.4-0.3s-0.3-0.1-0.3,0c0,0.1-0.1,0.4,0,0.5c0.1,0.1-0.1,0.3-0.2,0.2c-0.1-0.1-0.3-0.4-0.3-0.5
			c0.1-0.1-0.4-0.7,0.1-0.8c0.5-0.1,0-0.4,0.2-0.5l0.3-0.1h0.3l0.1-0.1c0.1,0.2,0.2,0.3,0.4,0.5c0,0.1-0.1,0.2,0,0.3
			C90.8,63.2,90.9,63.4,90.6,63.4z M83,74.6c-0.2,0.1-0.4,0.2-0.6,0.2v-0.7l0.3-0.4C83.1,73.6,83.1,74.3,83,74.6z M87.9,79.5
			l0.8,0.4c0.1,0.1,0.5,0.1,0.5,0.1l0.1,0.2c0,0,0.3,0,0.4,0.2c0.2,0.2,1,0,1,0l0.2,0.2l0.3,0.1l0.6,0l0.4,0.4
			c-0.6,0.3-1.7,0.2-1.8,0.1c-0.1-0.1-0.8-0.4-0.8-0.4s-0.5-0.4-0.6-0.3c-0.1,0.1-0.5-0.2-0.5-0.1c0,0.1-0.4-0.2-0.4-0.2l-0.6-0.2
			l0.5-0.1L87.9,79.5C87.8,79.5,87.8,79.5,87.9,79.5z M80.7,86.6c1-0.2,1-0.2,1.3,0c0.3,0.3,0.9,0.1,0.9,0.1l0.2,0.4
			c-0.7,0.1-1.4,0.2-2.4,0.2V86.6z M85.1,57.9L85.1,57.9c1.4,0.5,2.6,1.3,3.7,2.3l-0.2,0.2c-0.1-0.1-0.4-0.2-0.4-0.3
			c0-0.1-0.3-0.3-0.3-0.1c0,0.2-0.2,0.3-0.3,0.2c-0.1-0.1-0.3,0.2-0.3,0.2c0,0.1-0.1,0.2,0.1,0.3c0.2,0,0.5-0.1,0.6,0.1
			c0,0.1,0,0.1,0,0.2l-1.3,1.3c-0.2,0-0.3,0-0.3,0c-0.1,0.3-0.5,0-0.4-0.2c0.1-0.2,0.1-0.3,0.1-0.3l-0.2,0L85.9,62
			c-0.4,0-0.6,0.3-0.5,0.4c0.1,0.2-0.1,0-0.2,0.2c-0.1,0.2,0,0.2,0.2,0.3c0.2,0.1-0.1,0.1,0,0.3c0.1,0.1,0.3,0.1,0.3,0.1l-0.2,0.2
			c-0.2,0.1-0.5,0-0.5,0c0,0.1-0.1,0.1-0.1,0.2c-0.5-0.4-1.1-0.8-1.7-1c0.1-0.1,0.3-0.1,0.3-0.3c0.1-0.4,0.2-0.9,0.2-0.9
			s-0.5,0-0.5,0.1c0,0.2-0.3,0.3-0.3,0.3s-0.3,0.1-0.2,0.2c0.1,0.1-0.2,0.2-0.2,0.2s-0.1,0.1-0.2,0.2c-0.5-0.2-0.7-0.3-1.7-0.3V57
			C82.7,57.1,83.8,57.4,85.1,57.9z M81.2,78.8l0.8-0.2c0.1-0.3,0.4,0.1,0.4,0.1c0.3,0,0.4,0.2,0.4,0.2l0.4,0.1
			c0.3,0.1,0.1,0.1,0.2,0.3c0,0.2,0.2,0.1,0.2,0.1l0.1-0.4l0.2,0l-0.2-0.2l-0.4-0.2l-0.4-0.1c-0.3-0.4,0.1-0.2,0.3-0.2h0.4
			c0,0,0.5,0.6,0.5,0.7c0,0.2,0.2,0.2,0.2,0.2l0.3-0.1l0.1,0.2H85h0.1h0.6l0-0.2l-0.5,0l0-0.3l-0.4-0.1c-0.1-0.5,0.1-0.7,0.3-0.4
			l0.2,0l-0.1-0.5l0.2-0.1l-0.3-0.7l-0.4-0.1v-0.2l1,0.1c-0.1-0.4,0.3-0.6,0.3-0.6h0.2l0,0.1l1,0.1l0,0c0.4,0.2,0.2,0.5,0.1,0.6
			c-0.1,0.1-0.4,0.1-0.4,0.1l-0.1,0.1l-0.8,0.1L86,77.7c-0.4-0.1-0.6,0.4-0.5,0.6c0.1,0.2,0,0.4,0,0.4l0.3,0.2l0.4-0.1
			c0.1-0.3,0.3-0.4,0.6-0.6c0.3-0.2,0.7,0.4,0.5,0.6c0,0,0,0.1,0,0.1c-0.5,0.3-1,0.6-1.5,0.9l0,0c-0.8,0.4-1.7,0.7-2.7,0.9
			c0,0,0,0,0,0l-0.3-0.1l0-0.5C82.8,79.7,82,79.7,82,80c0,0.2-1.3,0.1-1.3,0.1v-0.9L81.2,78.8z M80.7,88.2c1,0,1.9-0.1,2.8-0.2
			l0.2,0.2l0.6,0.2l0.4,0.1l0.1,0.5l0.3,0L85,89.3c0.4,0.3-0.3,0.8-0.3,0.8v0.7l0.4,0.1l0.1,0.3l0.5,0.4l0.5,0l0.6,0.8
			c-1.9,0.5-4.1,0.8-6.1,0.8V88.2z M93.7,89.5v-0.3c1-0.4,0.6-1.2,0.1-1.2c-0.4,0-0.5-0.5-0.1-0.5l0-0.1V87l1-0.7v-0.5l-1.5-1.3
			c-0.3-0.1-0.3-0.5-0.2-0.9c0.3-0.2,0.6-0.5,0.9-0.8l1.4,1.4c-0.1,0.2-0.3,0.4-0.4,0.3c-0.1-0.1,0.2,0.2,0.2,0.3
			c0.1,0.1,0.3,0.1,0.3,0c0-0.1,0-0.2,0.1-0.4l0.6,0.6c-0.1,0.2-0.2,0.3-0.1,0.4l0.3,0.1l0,0.5c0.2,0.2,0.7,0.2,1.1,0.1l0.1,0.1
			C96.4,87.6,94.7,88.6,93.7,89.5z M98.1,85.9L98,85.8c0-0.4,0-0.8,0-0.8l-0.2-0.2l0-0.8c0.1-0.4-0.6-1-0.7-0.9
			c-0.1,0.1-0.5,0-0.5,0.2c0,0.1-0.3,0.8-0.1,1c0,0,0,0,0,0l-2-2c1.6-1.6,2.8-3.5,3.7-5.5l0,0c1-2.3,1.6-4.4,1.7-7.4h5.1
			c-0.1,4-0.9,6.9-2.3,9.9l0,0C101.5,81.7,100,84,98.1,85.9z M108.4,82.3L108.4,82.3c-1.5,3-3.4,5.7-5.7,8.1l-4-4
			c2-2,3.5-4.3,4.7-6.8l0,0c1.5-3.2,2.3-6.3,2.4-10.3h5.7C111.4,74.3,110.3,78.4,108.4,82.3z M109.2,57.5l0-0.1
			c1.4,3.5,2.2,7,2.2,11h-5.7c0-3-0.7-6-1.8-8.8l0,0.1c-0.2-0.4-0.3-0.7-0.5-1.1c0-0.2,0.1-0.4,0.4-0.3c0.3,0.1,0.1-0.7,0.1-0.7
			s-0.4-0.3-0.4-0.5c0-0.2-0.4-0.5-0.4-0.6c0-0.1-0.4-0.4-0.4-0.5c0-0.1-0.2-0.5-0.2-0.5l-0.5-0.5l-0.1-0.3l-0.4,0l-0.8-0.9l0.1-0.3
			l-0.2,0V53l-0.3-0.1l-0.4,0l-0.7-1l-0.1-0.6h-0.3L99,51l3.7-3.6C105.5,50.3,107.7,53.8,109.2,57.5z M80.7,38.2
			c4,0,7.8,0.8,11.3,2.2l0.1,0c3.7,1.5,7.1,3.7,10,6.5l-3.4,3.4c-0.1,0-0.1,0-0.2,0c-0.2-0.1,0.2-0.3,0.2-0.3v-0.3l-0.3-0.2
			c0,0-0.6,0.1-0.6,0c0-0.1-0.2-0.5-0.2-0.5l0-0.5l-0.2-0.1l-0.2-0.2l-0.5,0v-0.4l-0.1-0.1l-0.1-0.1l0-0.4l-0.7,0l-0.2-0.3l-0.2-0.4
			l-0.8-0.1l-0.2-0.2l-0.3-0.1l-0.2-0.1l-0.1,0.2l-0.6,0l0,0.2c-0.2,0.1-0.7,0.1-1.1,0.1c-0.6-0.3-1.3-0.6-1.9-0.9l-0.3,0.7
			c0.5,0.2,1,0.5,1.6,0.7c0,0.1-0.1,0.2-0.1,0.2c-0.2,0-0.1,0.4-0.1,0.4s0.4,0,0.5,0c0.1,0,0.1,0.4,0.1,0.4c0.5,0,0.7,0.6,0.6,0.8
			c-0.1,0.2,0.2,0.2,0.2,0.2s0,0.5-0.1,0.6c-0.1,0.1,0.4,0.2,0.5,0.4c0.1,0.2-0.1,0.8-0.2,0.9c-0.1,0,0.3,0.1,0.2,0.3
			c0,0.2,0.1,0,0.1,0.3c0,0.3,0.1,0.8,0.1,0.8l0.4,0c0.1-0.4,0.9-0.4,1-0.4c0.5,0.2,1,1,1,1.2s-0.4,0.2-0.4,0.2l0,0.2l-1.1,1.1
			c-0.1-0.1-0.2-0.1-0.3-0.1c-0.2,0.1-0.1-0.7-0.1-0.7s0.3-0.2,0.4-0.1c0.1,0.1-1.1-1.6-1.3-1.5c-0.3,0.2-0.8-0.2-0.8-0.5
			c0-0.3-1.1-1.3-1.1-1.3s-0.4-0.3-0.4-0.1c-0.1,0.2-0.2,0.3,0,0.4c0.2,0.1,0.2-0.2,0.4,0.1c0.2,0.2,0.6,0.5,0.5,0.7
			c-0.2,0.2-0.4,0.2-0.4,0.2l0.2,0.2h0.3l0.1,0.6c0,0,0.4,0.2,0.5,0.4c0.1,0.2,0.1,0.3,0,0.4c-0.7-0.5-1.4-1-2.2-1.4
			c0-0.1,0-0.1,0-0.2c-0.1-0.2,0.3-0.3,0.4-0.1l0.3,0l0.1-0.3l-0.4-0.4h-0.4c0,0,0,0.3-0.3,0.2s-0.1-0.1-0.3-0.1
			c-0.2,0-0.1,0.3-0.1,0.5c-0.5-0.3-1-0.5-1.5-0.7l-0.2,0c-2.2-0.9-4.1-1.4-7.1-1.4V47c1,0,0.5-0.1,0.5-0.2c0-0.1,0.1-0.2,0.3-0.2
			c0.2,0-0.2-0.4-0.4-0.4c-0.1,0-0.5,0-0.5-0.1v-1.5c3,0,6.2,0.7,8.9,1.8l0.2-0.7c-2.8-1.2-6.1-1.8-9.1-1.8V38.2z M75,63.9l-0.3,0
			c-0.1,0.3-0.4,0-0.4,0c-0.1-0.2-0.5,0-0.5,0c0,0.4-0.6-0.2-0.6-0.2l-1.1-0.8c-0.6-0.6-1.6,0.2-1.6,0.3c0,0.2-0.2,0.3-0.4,0.2
			c0.5-0.9,1.1-1.8,1.9-2.6L75,63.9z M71.4,60.3c-0.8,0.9-1.5,1.9-2.1,3c-0.1,0-0.3,0-0.3,0.1c-0.1,0.3-0.5,0.2-0.5,0.2l-0.1,0.1
			l-0.3,0.1L68,64L67.6,64l1,0c0.3,0-0.1,0.5-0.3,0.5l-0.4-0.2l-0.2,0h-0.4l-0.2,0.4l-0.6,0.1c0,0-0.4,0.3-0.3,0.4
			c0,0.1-0.1,0.4-0.2,0.4c-0.1,0-0.3,0.3-0.2,0.4c0.1,0.1-0.2,0.4-0.2,0.4l0.1,0.3l0,0.1v0.9l-1,0.3v0.4l0.1-0.1h-2.6
			c0.1-2,0.6-4.9,1.7-7.2l0,0.1c0.8-1.9,2-3.5,3.5-5L71.4,60.3z M66.8,55.7c-1.5,1.5-2.7,3.3-3.6,5.2l0-0.1
			c-1.1,2.3-1.7,5.5-1.8,7.5h-5.1c0.1-3,0.9-6.9,2.4-10l0,0.1c1.1-2.3,2.6-4.5,4.5-6.4L66.8,55.7z"/>
		
			<rect x="82.3" y="61.7" transform="matrix(4.626168e-002 0.9989 -0.9989 4.626168e-002 140.2868 -23.3473)" fill="#B5935B" width="0.2" height="0.2"/>
		<rect x="82" y="61.4" fill="#B5935B" width="0.3" height="0.2"/>
		
			<rect x="81.5" y="61.1" transform="matrix(0.9899 0.1415 -0.1415 0.9899 9.4821 -10.9355)" fill="#B5935B" width="0.2" height="0.2"/>
		
			<rect x="81.1" y="61" transform="matrix(0.9897 0.1431 -0.1431 0.9897 9.5862 -10.9998)" fill="#B5935B" width="0.2" height="0.2"/>
		<rect x="79.5" y="61" fill="#B5935B" width="0.3" height="0.2"/>
		
			<rect x="79" y="61.2" transform="matrix(0.9898 0.1427 -0.1427 0.9898 9.554 -10.6562)" fill="#B5935B" width="0.2" height="0.2"/>
		
			<rect x="78.7" y="61.4" transform="matrix(-0.9692 -0.2465 0.2465 -0.9692 140.1513 140.6147)" fill="#B5935B" width="0.3" height="0.2"/>
		
			<rect x="78.5" y="61.7" transform="matrix(0.9862 -0.1658 0.1658 0.9862 -9.1565 13.8873)" fill="#B5935B" width="0.2" height="0.2"/>
		<polygon fill="#B5935B" points="53.3,81.4 53.3,81.7 53.6,81.7 53.6,82.1 53.7,82.1 53.7,81.6 53.5,81.5 53.5,81.4 		"/>
		<polygon fill="#B5935B" points="55.5,84.1 55.8,84.4 56,84.2 55.8,83.7 55.5,83.5 55.4,83.1 54.9,82.9 55.1,83.5 55.2,83.7 		"/>
		<polygon fill="#B5935B" points="62.1,92.4 62.4,92.8 62.4,93.1 62.7,93.2 62.9,93.4 63.1,93.2 62.9,92.8 62.5,92.5 		"/>
		<path fill="#B5935B" d="M67.5,71.9C67.5,71.9,67.4,71.9,67.5,71.9C67.5,71.9,67.5,71.9,67.5,71.9z"/>
		<polygon fill="#B5935B" points="79.7,63.8 79.7,63.8 79.7,63.8 		"/>
		<path fill="#B5935B" d="M66.5,72.6c0,0.4,0.2-0.2,0.2-0.2v-2.2l-0.5-0.1l0.1,0.2h0.2c0.3,0,0,1.5,0,1.5s-0.4,0-0.4-0.2
			c-0.1-0.2-0.3,0.4-0.1,0.5C66,72.3,66.5,72.2,66.5,72.6z"/>
		<polygon fill="#B5935B" points="67,73.8 67,73.5 66.8,73.4 66.9,72.9 67,72.9 67.1,72.6 66.6,73 66.3,72.8 66.3,73.5 66.8,74.2 		
			"/>
		<polygon fill="#B5935B" points="67.1,74.6 66.9,74.6 66.9,74.9 67.1,74.9 		"/>
		<polygon fill="#B5935B" points="66.5,76.5 66.8,76.5 66.8,76.3 66.5,76.3 		"/>
		<circle fill="#B5935B" cx="67.2" cy="75.3" r="0.1"/>
		<circle fill="#B5935B" cx="67.4" cy="76" r="0.1"/>
		<circle fill="#B5935B" cx="67.4" cy="72.3" r="0.1"/>
		<polygon fill="#B5935B" points="76.3,71.3 76.4,71 76.6,70.9 76.6,70.6 76.7,70.4 76.9,70.2 77,69.9 77.3,69.7 77.7,69.6 
			77.9,69.4 77.9,69.1 77.9,68.8 78.2,68.6 78.7,68.4 78.7,67.3 78.3,67.3 78.2,67.3 77.9,67.2 77.8,67.3 77.7,67.3 77.6,68.3 
			77.8,68.3 77.9,68.3 77.7,68.4 77.7,68.5 77.4,68.5 76.8,69.1 76.8,69.3 76.6,69.5 76.5,70 75.8,70.1 75.7,70.6 75.8,71.1 		"/>
		<path fill="#B5935B" d="M78.8,73.4l-0.3,0l0,0.5l0.2,0.2l0.3,0.1c0,0,0.5-0.1,0.5-0.5l-0.7,0L78.8,73.4z"/>
		<path fill="#B5935B" d="M81.4,71.6c0.1,0.3,0.1-0.5,0.2-0.4c0.1,0,0-0.5,0-0.5L81,71.2C81.3,71.2,81.3,71.5,81.4,71.6z"/>
		<path fill="#B5935B" d="M83.4,71.2c0.2,0.1,0.4-0.1,0.3-0.2c-0.5-0.3-0.4-0.7-0.6-1c-0.1-0.1-0.2-0.2-0.3,0v0.4
			C82.8,70.4,83.2,71.1,83.4,71.2z"/>
		<polygon fill="#B5935B" points="83.2,80 83.5,79.6 83.3,79.6 83,79.7 83.1,79.8 		"/>
		
			<rect x="86.8" y="78.4" transform="matrix(0.5307 0.8476 -0.8476 0.5307 107.4019 -36.7888)" fill="#B5935B" width="0.2" height="0.3"/>
		<rect x="93.9" y="78.3" fill="#B5935B" width="0.2" height="0.6"/>
		<path fill="#B5935B" d="M97.9,71.9c-0.1-0.4-0.9-0.1-0.8,0.1c0.2,0.3,0.5,0.1,0.6,0.2C97.9,72.3,98.1,72.3,97.9,71.9z"/>
		
			<rect x="97.8" y="67.8" transform="matrix(-0.9837 -0.18 0.18 -0.9837 182.1977 152.251)" fill="#B5935B" width="0.4" height="0.2"/>
		<polygon fill="#B5935B" points="97.1,68 97,68.1 96.7,68.2 96.5,68.1 96.4,68.2 96.7,68.4 96.7,68.4 96.8,68.4 97,68.3 97,68.3 
			97.2,68.3 97.1,68.1 		"/>
		
			<rect x="99.9" y="64.8" transform="matrix(0.9917 0.1286 -0.1286 0.9917 9.1796 -12.3254)" fill="#B5935B" width="0.2" height="0.3"/>
		
			<rect x="99.8" y="65.7" transform="matrix(-0.8914 -0.4532 0.4532 -0.8914 159.0993 169.7165)" fill="#B5935B" width="0.2" height="0.2"/>
		<path fill="#B5935B" d="M99,60.6c-0.1,0.1-0.2,0.2-0.3,0.3c-0.1,0.1,0.2,0.2,0.2,0.3c0,0.1,0.1,0.6,0.1,0.6s0.2,0.1,0.3,0.2
			c0,0.1,0,0.4,0.1,0.4c0.1,0,0.3,0.2,0.2,0.3c-0.1,0.1-0.1,0.4-0.1,0.4l0.1,0.3l0.3,0.2c0,0,0.1-0.8-0.1-0.8
			c-0.2,0-0.1-0.5-0.1-0.5s0.2-0.6-0.1-0.6c-0.3,0-0.1-0.3-0.2-0.4c-0.2-0.1-0.1-0.5-0.1-0.7c-0.1-0.1-0.1-0.3-0.2-0.4
			C98.9,60,99.1,60.5,99,60.6z"/>
		<path fill="#B5935B" d="M98,58.1l-0.4,0h0c0.1,0.1,0.3,0.2,0.3,0.4c0,0.1-0.1,0.2,0.1,0.3c0.2,0,0.3,0,0.4,0.1
			c0.1,0.2,0.1,0.4,0,0.5c0,0.1,0,0.3,0.2,0.3c0.2,0,0.2,0,0.2,0.1c0,0.1,0.2-0.4,0.2-0.4c-0.2-0.1-0.3-0.4-0.3-0.4
			s-0.2-0.5-0.2-0.5s-0.2-0.1-0.3-0.2C98.1,58.4,98,58.1,98,58.1z"/>
		<path fill="#B5935B" d="M97,57.1c-0.1,0.2,0.1,0.3,0.2,0.3c0.1,0,0.2,0.1,0.3,0.1c0.1,0.1,0.2,0.2,0.3,0.3l0.3-0.1
			c0,0,0-0.3-0.1-0.2c-0.1,0.1-0.2-0.2-0.4-0.2c-0.1,0-0.2-0.1-0.3-0.3c-0.1-0.2-0.1-0.2-0.3-0.3c-0.2-0.1-0.3-0.1-0.3,0
			C96.9,56.9,97.1,57,97,57.1z"/>
		<path fill="#B5935B" d="M93.6,59.3c0,0,0.1,0.3,0.2,0.4c0.1,0.1,0.3,0.4,0.1,0.5c-0.2,0.1,0,0.1,0,0.1s0,0.7-0.3,0.6
			c-0.3-0.1-0.4,0.4-0.4,0.5c0,0.1,1.1,0.2,1,0l0,0c-0.1-0.1,0.1-0.3,0.1-0.3s0.8,0.1,0.9,0.1c0.2,0,0.3,0,0.2-0.2
			c-0.1-0.2-0.4-0.1-0.4-0.1s-0.4,0.1-0.7-0.1c-0.3-0.2,0.1-0.3,0.1-0.3c0.1,0,0.3-0.2,0.2-0.4c-0.1-0.2,0-0.5,0-0.3
			c0,0.1,0.4,0.2,0.4,0.1c0.1-0.1,0-0.4-0.2-0.5c-0.2-0.1,0.3-0.2,0.2-0.3c-0.1-0.2-0.2-0.4-0.2-0.4s-0.2,0.1-0.6,0
			c0,0-0.1,0.6-0.3,0.6H93.6z"/>
		<path fill="#B5935B" d="M92.1,61.8c-0.2,0-0.1,0.2,0,0.3l0.4-0.1c0,0,0.3-0.1,0.2-0.2C92.7,61.7,92.3,61.8,92.1,61.8z"/>
		<path fill="#B5935B" d="M97.7,59.4L97.7,59.4C97.7,59.4,97.8,59.4,97.7,59.4z"/>
		
			<rect x="95.9" y="59.9" transform="matrix(0.8915 0.4531 -0.4531 0.8915 37.6038 -36.9697)" fill="#B5935B" width="0.2" height="0.2"/>
		<rect x="95.5" y="59.8" fill="#B5935B" width="0.2" height="0.2"/>
		
			<rect x="95.4" y="55.5" transform="matrix(0.1097 0.994 -0.994 0.1097 140.3811 -45.5011)" fill="#B5935B" width="0.3" height="0.2"/>
		<rect x="95.1" y="58.5" fill="#B5935B" width="0.2" height="0.2"/>
		
			<rect x="94.7" y="58.2" transform="matrix(9.669664e-002 0.9953 -0.9953 9.669664e-002 143.689 -41.624)" fill="#B5935B" width="0.2" height="0.3"/>
		
			<rect x="91.8" y="61.3" transform="matrix(0.3899 -0.9209 0.9209 0.3899 -0.4484 122.1558)" fill="#B5935B" width="0.2" height="0.2"/>
		
			<rect x="91.1" y="60.7" transform="matrix(-9.693972e-002 -0.9953 0.9953 -9.693972e-002 39.41 157.4933)" fill="#B5935B" width="0.2" height="0.3"/>
		
			<rect x="85" y="60.7" transform="matrix(4.669572e-002 0.9989 -0.9989 4.669572e-002 142.1308 -26.8648)" fill="#B5935B" width="0.2" height="0.7"/>
		
			<rect x="84.2" y="60.9" transform="matrix(0.2133 0.977 -0.977 0.2133 126.0138 -34.4212)" fill="#B5935B" width="0.3" height="0.2"/>
		
			<rect x="84.1" y="61.2" transform="matrix(0.3119 0.9501 -0.9501 0.3119 116.1776 -37.8251)" fill="#B5935B" width="0.2" height="0.1"/>
		<path fill="#B5935B" d="M86.1,61.1c0,0,0.2,0.1,0.2,0.2c0,0.1,0.2,0.2,0.4,0.2c0.1,0,0.5-0.3,0.5-0.3s0.2-0.5,0-0.4
			c-0.1,0-0.4,0.2-0.4,0c0-0.2-0.4-0.1-0.4-0.1l-0.5,0.1h0l0,0.2L86.1,61.1z"/>
		<path fill="#B5935B" d="M88.7,50.6c-0.2,0-0.3-0.2-0.3-0.3C88.5,50.1,88,50,88,50s-0.5-0.5-0.3-0.5c0.2,0.1,0.1-0.2,0.1-0.2
			s-0.4,0.2-0.5,0.2c-0.1,0-0.1-0.2-0.1-0.2h-0.4c0,0,0.1,0,0.2,0.1c0.1,0.2,0,0.4,0.3,0.5c0.3,0.1,0.3,0.1,0.4,0.2
			c0,0.1,0.4,0.1,0.4,0.1l0,0.1l0.5,0.6v-0.3C88.7,50.8,88.9,50.6,88.7,50.6z"/>
		<polygon fill="#B5935B" points="85.4,47.5 85.4,47.8 85.7,47.8 85.7,47.6 		"/>
		<path fill="#B5935B" d="M86.6,46.5l-0.2-0.2c0,0-0.3,0-0.3-0.1c0-0.1-0.2,0.2-0.3,0.3c0.2,0.1,0.4,0.2,0.4,0.2
			c0.3,0,0.4,0.2,0.4,0.3c0,0.1,0.3,0.1,0.3,0.1l0-0.2L86.6,46.5z"/>
		<path fill="#B5935B" d="M85.6,46.5L85.6,46.5C85.7,46.5,85.7,46.5,85.6,46.5C85.6,46.4,85.5,46.3,85.6,46.5z"/>
		<path fill="#B5935B" d="M95.3,46.2l0.5,0.2c0,0,0.6,0.7,0.6,0.4c-0.1-1-0.5-1-0.7-1.2c-0.2-0.2-0.8,0-0.8,0.3h0
			C94.9,46,95,46.1,95.3,46.2z"/>
		
			<rect x="85.4" y="45.9" transform="matrix(0.9111 0.4122 -0.4122 0.9111 26.5723 -31.1474)" fill="#B5935B" width="0.2" height="0.3"/>
		<path fill="#B5935B" d="M84,43l-0.3-0.4v-0.4l-0.2-0.1l-0.2-0.5l-0.4-0.1l-0.4,0.2L81.9,42l-0.5,0.1l-0.3,0.3l1,0.1l0.2,0.3
			l0.7,0.1l0.5,0.5C84,43.5,84.2,43.3,84,43L84,43z"/>
		<path fill="#B5935B" d="M86.9,41.1c-0.2,0.1-0.5,0.2-0.5,0.2h-0.6c0-1-0.5-0.3-0.6-0.1c0,0.1-0.2,0.1-0.2,0.1l-0.7,0
			c-0.1,0.2-0.4,0.3-0.5,0.2c-0.1-0.3-0.5,0.3-0.1,0.5c0.4,0.1,0.8,0,0.8,0l0.1-0.2l1.6,0c0.1-0.1,0.2-0.3,0.2-0.3s0.4-0.1,0.5,0
			C87.1,41.5,87,41.1,86.9,41.1z"/>
		<path fill="#B5935B" d="M77.3,47.6c0,0,0.5,0,0.5,0.1c0,0.1,0.4,0.1,0.4,0c0-0.1,0.2-0.3-0.1-0.3c-0.3,0-0.2-0.2-0.3-0.3
			c-0.1-0.1-0.8-0.1-0.7,0l0,0C77,47.4,77.3,47.6,77.3,47.6z"/>
		<polygon fill="#B5935B" points="87.6,40.5 87.4,40.4 87.3,40.5 87.5,40.7 87.6,40.8 87.6,40.8 87.9,40.5 87.8,40.3 		"/>
		<polygon fill="#B5935B" points="86.1,40 86.1,40 86.5,39.7 86.4,39.6 86.1,39.8 85.9,39.6 85.8,39.8 86,40 		"/>
		<polygon fill="#B5935B" points="85,46.4 85,46.4 84.7,46.4 84.7,46.6 84.9,46.6 85.1,46.9 85.3,46.8 85.1,46.4 		"/>
		<path fill="#B5935B" d="M74.9,55.5c0,0-0.4,0-0.4-0.1l0,0.4H75C75.2,55.8,74.9,55.5,74.9,55.5z"/>
		
			<rect x="75.2" y="55.3" transform="matrix(0.7649 0.6441 -0.6441 0.7649 53.3908 -35.4626)" fill="#B5935B" width="0.2" height="0.2"/>
		
			<rect x="69.4" y="49.3" transform="matrix(-0.7027 0.7115 -0.7115 -0.7027 153.4689 34.6635)" fill="#B5935B" width="0.2" height="0.3"/>
		<polygon fill="#B5935B" points="78.4,91.2 78.6,91.1 78.7,91 78.6,90.9 78.2,90.8 78.2,90.9 78.4,91 78.3,91.1 		"/>
		<polygon fill="#B5935B" points="76,88.4 75.8,88.6 75.7,88.7 75.8,88.8 76,88.9 76.1,88.8 76,88.7 76.1,88.6 		"/>
		<path fill="#B5935B" d="M99.5,82.2l-0.1,0.2c0,0,0,0,0.1,0l0,0.2c0,0,0,0,0,0.1l0.1,0.1c0.1-0.1,0.1-0.2,0.1-0.3v0
			C99.7,82.3,99.5,82.2,99.5,82.2z"/>
		<polygon fill="#B5935B" points="99.4,82.4 99.4,82.4 99.4,82.4 		"/>
		<polygon fill="#B5935B" points="99.7,81.8 100,81.9 100.1,81.6 99.8,81.5 		"/>
		<path fill="#B5935B" d="M107.4,79.8c0.1-0.1,0.3,0,0.3-0.4c0-0.4-0.2-0.2-0.3-0.1C107.2,79.5,107.3,79.9,107.4,79.8z"/>
		<path fill="#B5935B" d="M108.9,78.1c0,0,0.1,0,0.1,0l0-0.2c0,0,0,0,0,0c0,0,0,0,0,0c0-0.1,0-0.1,0-0.2l-0.2,0.1c0,0,0,0.1,0,0.1
			C108.8,78,108.9,78.1,108.9,78.1z"/>
		<path fill="#B5935B" d="M108.9,78.5c0,0-0.1-0.2-0.1-0.4l-0.2,0v0c0,0.2,0.1,0.4,0.1,0.4L108.9,78.5z"/>
		<path fill="#B5935B" d="M107.9,79.2l0-0.2l0,0c0,0,0-0.1,0-0.2v0l-0.2,0C107.7,79,107.8,79.2,107.9,79.2z"/>
		<path fill="#B5935B" d="M106.9,75.1C106.9,75.1,106.9,75.1,106.9,75.1l0.2,0c0-0.1,0-0.1-0.1-0.1c-0.1-0.1-0.4,0-0.5,0.1l0.1,0.2
			C106.7,75.1,106.9,75.1,106.9,75.1z"/>
		<path fill="#B5935B" d="M79.3,76.9c0.1,0,0.2-0.1,0.4-0.1c0.1,0,0.2-0.2,0.2-0.4c0-0.2,0-0.3,0-0.3s-0.1,0.2-0.3,0
			c-0.2-0.2-0.4,0.4-0.4,0.6v0C79.1,76.6,79.2,76.9,79.3,76.9z"/>
	</g>
	<circle fill="#FFFFFF" stroke="#B5935B" stroke-linejoin="round" stroke-miterlimit="10" cx="16.2" cy="100.7" r="2.6"/>
	<circle fill="#FFFFFF" stroke="#B5935B" stroke-linejoin="round" stroke-miterlimit="10" cx="31.9" cy="130.2" r="2.6"/>
	<circle fill="#FFFFFF" stroke="#B5935B" stroke-linejoin="round" stroke-miterlimit="10" cx="31.9" cy="107.2" r="2.6"/>
	<circle fill="#FFFFFF" stroke="#B5935B" stroke-linejoin="round" stroke-miterlimit="10" cx="58.2" cy="18.7" r="2.6"/>
	<circle fill="#FFFFFF" stroke="#B5935B" stroke-linejoin="round" stroke-miterlimit="10" cx="138.7" cy="19.2" r="2.6"/>
	<circle fill="#FFFFFF" stroke="#B5935B" stroke-linejoin="round" stroke-miterlimit="10" cx="123.5" cy="121.9" r="2.6"/>
	<line fill="none" stroke="#B5935B" stroke-linejoin="round" stroke-miterlimit="10" x1="140.5" y1="57.1" x2="140.5" y2="122.2"/>
	<line fill="none" stroke="#B5935B" stroke-linejoin="round" stroke-miterlimit="10" x1="132.4" y1="135.6" x2="41.9" y2="135.6"/>
	<circle fill="#FFFFFF" stroke="#B5935B" stroke-linejoin="round" stroke-miterlimit="10" cx="55.7" cy="135.4" r="2.6"/>
	<circle fill="#FFFFFF" stroke="#B5935B" stroke-linejoin="round" stroke-miterlimit="10" cx="140.5" cy="57.1" r="2.6"/>
	<line fill="none" stroke="#B5935B" stroke-linejoin="round" stroke-miterlimit="10" x1="23" y1="15.1" x2="23" y2="141.2"/>
	<g>
		<polygon fill="#FFFFFF" stroke="#B5935B" stroke-linecap="round" stroke-linejoin="round" stroke-miterlimit="10" points="
			35,22.5 32.8,7 23.2,17.7 16.7,13.1 17.2,25.8 		"/>
		<polygon fill="#FFFFFF" stroke="#B5935B" stroke-linecap="round" stroke-linejoin="round" stroke-miterlimit="10" points="32.8,7 
			20.3,0.5 9.3,13.8 17.2,25.8 		"/>
	</g>
</g>
</svg>
