<?xml version="1.0" encoding="utf-8"?>
<!-- Generator: Adobe Illustrator 18.1.1, SVG Export Plug-In . SVG Version: 6.00 Build 0)  -->
<!DOCTYPE svg PUBLIC "-//W3C//DTD SVG 1.1//EN" "http://www.w3.org/Graphics/SVG/1.1/DTD/svg11.dtd" [
	<!ENTITY ns_extend "http://ns.adobe.com/Extensibility/1.0/">
	<!ENTITY ns_ai "http://ns.adobe.com/AdobeIllustrator/10.0/">
	<!ENTITY ns_graphs "http://ns.adobe.com/Graphs/1.0/">
	<!ENTITY ns_vars "http://ns.adobe.com/Variables/1.0/">
	<!ENTITY ns_imrep "http://ns.adobe.com/ImageReplacement/1.0/">
	<!ENTITY ns_sfw "http://ns.adobe.com/SaveForWeb/1.0/">
	<!ENTITY ns_custom "http://ns.adobe.com/GenericCustomNamespace/1.0/">
	<!ENTITY ns_adobe_xpath "http://ns.adobe.com/XPath/1.0/">
]>
<svg version="1.1" id="Layer_1" xmlns:x="&ns_extend;" xmlns:i="&ns_ai;" xmlns:graph="&ns_graphs;"
	 xmlns="http://www.w3.org/2000/svg" xmlns:xlink="http://www.w3.org/1999/xlink" x="0px" y="0px" viewBox="0 0 543.9 219.6"
	 enable-background="new 0 0 543.9 219.6" xml:space="preserve">
<metadata>
	<sfw  xmlns="&ns_sfw;">
		<slices></slices>
		<sliceSourceBounds  width="566" height="240.8" x="391.5" y="-495.8" bottomLeftOrigin="true"></sliceSourceBounds>
	</sfw>
</metadata>
<g>
	<g>
		<g>
			<g>
				<path fill="none" stroke="#898989" stroke-linecap="round" stroke-linejoin="round" d="M26.2,76.9c-0.5,0-0.9,0-1.4,0h-0.6"/>
				
					<line fill="none" stroke="#898989" stroke-linecap="round" stroke-linejoin="round" stroke-dasharray="4.3343,4.3343" x1="19.8" y1="76.9" x2="4.7" y2="76.9"/>
				<line fill="none" stroke="#898989" stroke-linecap="round" stroke-linejoin="round" x1="2.5" y1="76.9" x2="0.5" y2="76.9"/>
			</g>
		</g>
		<path fill="none" stroke="#898989" stroke-linecap="round" stroke-linejoin="round" stroke-miterlimit="10" d="M44.3,81.4
			c-4.7-2.3-9.8-3.7-15.1-4.3"/>
		<path fill="none" stroke="#898989" stroke-linecap="round" stroke-linejoin="round" stroke-miterlimit="10" d="M66.7,101.7
			l-8.2-9.4c-2.9-3.4-6.3-6.2-10-8.6"/>
		<g>
			<defs>
				<circle id="XMLID_235_" cx="142.8" cy="133.9" r="79.8"/>
			</defs>
			<defs>
				<circle id="XMLID_234_" cx="142.5" cy="133.5" r="85.6"/>
			</defs>
			<use xlink:href="#XMLID_235_"  overflow="visible" fill="#FFFFFF"/>
			<use xlink:href="#XMLID_234_"  overflow="visible" fill="#041944"/>
			<clipPath id="XMLID_2_">
				<use xlink:href="#XMLID_235_"  overflow="visible"/>
			</clipPath>
			<clipPath id="XMLID_3_" clip-path="url(#XMLID_2_)">
				<use xlink:href="#XMLID_234_"  overflow="visible"/>
			</clipPath>
			
				<path clip-path="url(#XMLID_3_)" fill="#041944" stroke="#898989" stroke-linecap="round" stroke-linejoin="round" stroke-miterlimit="10" d="
				M245.9,219.8H38.8V45.3h19L83,75.8c11.4,13.9,28.5,21.9,46.4,21.9h116.5V219.8z"/>
			
				<rect x="93.9" y="204.7" clip-path="url(#XMLID_3_)" fill="#041944" stroke="#898989" stroke-linecap="round" stroke-linejoin="round" stroke-miterlimit="10" width="103.7" height="18.8"/>
			<g clip-path="url(#XMLID_3_)">
				<defs>
					<path id="XMLID_252_" d="M92.1,191.3H51.2L36.3,106l24-16.2l11.1,18c2.4,3.8,6.5,6.1,11,6.1h0c5.4,0,9.7,4.4,9.7,9.7V191.3z"/>
				</defs>
				<use xlink:href="#XMLID_252_"  overflow="visible" fill="#041944"/>
				<clipPath id="XMLID_4_">
					<use xlink:href="#XMLID_252_"  overflow="visible"/>
				</clipPath>
				
					<line clip-path="url(#XMLID_4_)" fill="none" stroke="#898989" stroke-linecap="round" stroke-linejoin="round" stroke-miterlimit="10" x1="91.2" y1="153.1" x2="50" y2="153.1"/>
				
					<use xlink:href="#XMLID_252_"  overflow="visible" fill="none" stroke="#898989" stroke-linecap="round" stroke-linejoin="round" stroke-miterlimit="10"/>
			</g>
			<g clip-path="url(#XMLID_3_)">
				
					<rect x="199.5" y="126.9" fill="#041944" stroke="#898989" stroke-linecap="round" stroke-linejoin="round" stroke-miterlimit="10" width="14.7" height="25.2"/>
				
					<rect x="203.2" y="130.3" fill="#041944" stroke="#898989" stroke-linecap="round" stroke-linejoin="round" stroke-miterlimit="10" width="7.2" height="18.2"/>
				
					<rect x="203.2" y="162.6" fill="#041944" stroke="#898989" stroke-linecap="round" stroke-linejoin="round" stroke-miterlimit="10" width="7.2" height="16.8"/>
			</g>
			<g clip-path="url(#XMLID_3_)">
				<defs>
					<rect id="XMLID_236_" x="103.9" y="121.8" width="103.2" height="72.4"/>
				</defs>
				<use xlink:href="#XMLID_236_"  overflow="visible" fill="#041944"/>
				<clipPath id="XMLID_5_">
					<use xlink:href="#XMLID_236_"  overflow="visible"/>
				</clipPath>
				
					<path clip-path="url(#XMLID_5_)" fill="#041944" stroke="#898989" stroke-linecap="round" stroke-linejoin="round" stroke-miterlimit="10" d="
					M173.8,138.9v11.4c0,6.7,5.4,12.1,12.1,12.1h27.8"/>
				
					<use xlink:href="#XMLID_236_"  overflow="visible" fill="none" stroke="#898989" stroke-linecap="round" stroke-linejoin="round" stroke-miterlimit="10"/>
			</g>
			
				<path clip-path="url(#XMLID_3_)" fill="none" stroke="#898989" stroke-linecap="round" stroke-linejoin="round" stroke-miterlimit="10" d="
				M187.8,79.9h-16.7c-6,0-11.9-2.1-16.5-6l-34.2-28.7"/>
			
				<use xlink:href="#XMLID_235_"  overflow="visible" fill="none" stroke="#898989" stroke-linecap="round" stroke-linejoin="round" stroke-miterlimit="10"/>
			
				<use xlink:href="#XMLID_234_"  overflow="visible" fill="none" stroke="#898989" stroke-linecap="round" stroke-linejoin="round" stroke-miterlimit="10"/>
		</g>
		<g>
			<defs>
				<path id="XMLID_233_" d="M273.1,205.1H75v-9.5h128.3l2.8-33.3h77.5v32.3C283.7,200.3,278.9,205.1,273.1,205.1z"/>
			</defs>
			<use xlink:href="#XMLID_233_"  overflow="visible" fill="#041944"/>
			<clipPath id="XMLID_6_">
				<use xlink:href="#XMLID_233_"  overflow="visible"/>
			</clipPath>
			
				<line clip-path="url(#XMLID_6_)" fill="none" stroke="#898989" stroke-linecap="round" stroke-linejoin="round" stroke-miterlimit="10" x1="265.8" y1="183.6" x2="265.8" y2="212.1"/>
			
				<line clip-path="url(#XMLID_6_)" fill="none" stroke="#898989" stroke-linecap="round" stroke-linejoin="round" stroke-miterlimit="10" x1="253.6" y1="175.2" x2="253.6" y2="209.4"/>
			
				<use xlink:href="#XMLID_233_"  overflow="visible" fill="none" stroke="#898989" stroke-linecap="round" stroke-linejoin="round" stroke-miterlimit="10"/>
		</g>
		<g>
			<defs>
				<rect id="XMLID_231_" x="132.7" y="151.4" width="19.9" height="39.6"/>
			</defs>
			<use xlink:href="#XMLID_231_"  overflow="visible" fill="#041944"/>
			<clipPath id="XMLID_7_">
				<use xlink:href="#XMLID_231_"  overflow="visible"/>
			</clipPath>
			<g clip-path="url(#XMLID_7_)">
				<defs>
					<rect id="XMLID_232_" x="136.1" y="155.1" width="13.4" height="40.8"/>
				</defs>
				<use xlink:href="#XMLID_232_"  overflow="visible" fill="#041944"/>
				<clipPath id="XMLID_8_">
					<use xlink:href="#XMLID_232_"  overflow="visible"/>
				</clipPath>
				
					<use xlink:href="#XMLID_232_"  overflow="visible" fill="none" stroke="#898989" stroke-linecap="round" stroke-linejoin="round" stroke-miterlimit="10"/>
			</g>
			
				<line clip-path="url(#XMLID_7_)" fill="#041944" stroke="#898989" stroke-linecap="round" stroke-linejoin="round" stroke-miterlimit="10" x1="136.4" y1="161" x2="149.4" y2="161"/>
			
				<line clip-path="url(#XMLID_7_)" fill="#041944" stroke="#898989" stroke-linecap="round" stroke-linejoin="round" stroke-miterlimit="10" x1="142.7" y1="161" x2="142.7" y2="201.4"/>
			
				<use xlink:href="#XMLID_231_"  overflow="visible" fill="none" stroke="#898989" stroke-linecap="round" stroke-linejoin="round" stroke-miterlimit="10"/>
		</g>
		<g>
			<defs>
				<rect id="XMLID_230_" x="103.6" y="117.2" width="78.8" height="17.3"/>
			</defs>
			<use xlink:href="#XMLID_230_"  overflow="visible" fill="#041944"/>
			<clipPath id="XMLID_9_">
				<use xlink:href="#XMLID_230_"  overflow="visible"/>
			</clipPath>
			
				<line clip-path="url(#XMLID_9_)" fill="#041944" stroke="#898989" stroke-linecap="round" stroke-linejoin="round" stroke-miterlimit="10" x1="101.6" y1="121.6" x2="194.1" y2="121.6"/>
			
				<use xlink:href="#XMLID_230_"  overflow="visible" fill="none" stroke="#898989" stroke-linecap="round" stroke-linejoin="round" stroke-miterlimit="10"/>
		</g>
		<polygon fill="#041944" stroke="#898989" stroke-linecap="round" stroke-linejoin="round" stroke-miterlimit="10" points="
			99.3,117 187,117 142.8,87.2 		"/>
		<g>
			<defs>
				<polygon id="XMLID_229_" points="143.3,95.9 121.1,110.8 163.7,110.8 				"/>
			</defs>
			<use xlink:href="#XMLID_229_"  overflow="visible" fill="#041944"/>
			<clipPath id="XMLID_10_">
				<use xlink:href="#XMLID_229_"  overflow="visible"/>
			</clipPath>
			
				<ellipse clip-path="url(#XMLID_10_)" fill="#041944" stroke="#898989" stroke-linecap="round" stroke-linejoin="round" stroke-miterlimit="10" cx="128.2" cy="111.1" rx="13.5" ry="13.9"/>
			
				<use xlink:href="#XMLID_229_"  overflow="visible" fill="none" stroke="#898989" stroke-linecap="round" stroke-linejoin="round" stroke-miterlimit="10"/>
		</g>
		<g>
			<g>
				<g>
					<defs>
						<rect id="XMLID_228_" x="101.5" y="134.5" width="6" height="45.5"/>
					</defs>
					<use xlink:href="#XMLID_228_"  overflow="visible" fill="#041944"/>
					<clipPath id="XMLID_11_">
						<use xlink:href="#XMLID_228_"  overflow="visible"/>
					</clipPath>
					
						<use xlink:href="#XMLID_228_"  overflow="visible" fill="none" stroke="#898989" stroke-linecap="round" stroke-linejoin="round" stroke-miterlimit="10"/>
				</g>
				
					<rect x="99.5" y="179.5" fill="#041944" stroke="#898989" stroke-linecap="round" stroke-linejoin="round" stroke-miterlimit="10" width="10.1" height="4.6"/>
			</g>
			<g>
				<g>
					<defs>
						<rect id="XMLID_227_" x="120.3" y="134.7" width="6" height="45.3"/>
					</defs>
					<use xlink:href="#XMLID_227_"  overflow="visible" fill="#041944"/>
					<clipPath id="XMLID_12_">
						<use xlink:href="#XMLID_227_"  overflow="visible"/>
					</clipPath>
					
						<use xlink:href="#XMLID_227_"  overflow="visible" fill="none" stroke="#898989" stroke-linecap="round" stroke-linejoin="round" stroke-miterlimit="10"/>
				</g>
				
					<rect x="118.3" y="179.5" fill="#041944" stroke="#898989" stroke-linecap="round" stroke-linejoin="round" stroke-miterlimit="10" width="10.1" height="4.6"/>
			</g>
			
				<rect x="99.3" y="183.5" fill="#041944" stroke="#898989" stroke-linecap="round" stroke-linejoin="round" stroke-miterlimit="10" width="28.9" height="7.4"/>
		</g>
		<g>
			<g>
				<path fill="#041944" stroke="#898989" stroke-linecap="round" stroke-linejoin="round" stroke-miterlimit="10" d="M184.9,127.7
					c-0.1,0-0.1,0-0.2,0v0h-9.2v0c-1.6,0.2-2.9,1.5-2.9,3.1c0,1.7,1.2,2.6,3.1,2.6c1.7,0,2.2-1,2.5-2.5h4.3c0.3,1.5,0.9,2.5,2.6,2.5
					c1.9,0,3.2-0.9,3.2-2.6S186.8,127.7,184.9,127.7z"/>
			</g>
		</g>
		<path fill="#041944" stroke="#898989" stroke-linecap="round" stroke-linejoin="round" stroke-miterlimit="10" d="M219.7,198H66.5
			l2.7-2.1c5.2-4,11.5-6.1,18.1-6.1h59.8c8.1,0,15.7-3.8,20.5-10.3l0,0c4.8-6.5,12.4-10.3,20.5-10.3h31.5V198z"/>
		
			<circle fill="#041944" stroke="#898989" stroke-linecap="round" stroke-linejoin="round" stroke-miterlimit="10" cx="180.2" cy="160.9" r="2.4"/>
		
			<circle fill="#041944" stroke="#898989" stroke-linecap="round" stroke-linejoin="round" stroke-miterlimit="10" cx="265.8" cy="204.9" r="2.4"/>
		
			<circle fill="#041944" stroke="#898989" stroke-linecap="round" stroke-linejoin="round" stroke-miterlimit="10" cx="164.2" cy="78.9" r="2.4"/>
		
			<circle fill="#041944" stroke="#898989" stroke-linecap="round" stroke-linejoin="round" stroke-miterlimit="10" cx="98" cy="88.7" r="2.4"/>
		
			<circle fill="#041944" stroke="#898989" stroke-linecap="round" stroke-linejoin="round" stroke-miterlimit="10" cx="84.7" cy="114.2" r="2.4"/>
		
			<circle fill="#041944" stroke="#898989" stroke-linecap="round" stroke-linejoin="round" stroke-miterlimit="10" cx="75.3" cy="153.4" r="2.4"/>
		
			<circle fill="#041944" stroke="#898989" stroke-linecap="round" stroke-linejoin="round" stroke-miterlimit="10" cx="91.7" cy="153.6" r="2.4"/>
		
			<circle fill="#041944" stroke="#898989" stroke-linecap="round" stroke-linejoin="round" stroke-miterlimit="10" cx="111.2" cy="95.1" r="2.4"/>
		
			<circle fill="#041944" stroke="#898989" stroke-linecap="round" stroke-linejoin="round" stroke-miterlimit="10" cx="253.2" cy="204.5" r="2.4"/>
		
			<circle fill="#041944" stroke="#898989" stroke-linecap="round" stroke-linejoin="round" stroke-miterlimit="10" cx="165.8" cy="181.9" r="2.4"/>
		
			<rect x="99.4" y="132.7" fill="#041944" stroke="#898989" stroke-linecap="round" stroke-linejoin="round" stroke-miterlimit="10" width="68.7" height="4.6"/>
		
			<circle fill="#041944" stroke="#898989" stroke-linecap="round" stroke-linejoin="round" stroke-miterlimit="10" cx="147.7" cy="133.2" r="7.6"/>
		<g>
			<g>
				<path fill="#FFFFFF" stroke="#898989" stroke-linecap="round" stroke-linejoin="round" stroke-miterlimit="10" d="M383.9,21.3
					c0,0.3,0.1,0.4,0.3,0.6c0.4,0.5,1.1,0.7,1.6,1c0.3,0.2,0.6,0.3,0.9,0.4c0.3,0.2,0.6,0.3,0.9,0.5c0.5,0.2,1,0.4,1.5,0.7
					c0.4,0.3,0.8,0.9,1.3,1c0.5,0.1,1.1,0.2,1.6,0c0.3-0.1,0.6-0.3,0.9-0.5c0.5-0.3,1-0.6,1.5-0.9c0.3-0.2,0.5-0.4,0.8-0.4
					c0.2,0,0.4,0,0.6,0c0.3,0,0.5,0.1,0.8,0.2c0.2,0.1,0.5,0.2,0.7,0.1c0.2-0.1,0.5-0.3,0.6-0.5c0.1-0.2,0.1-0.5,0.2-0.7
					c0.1-0.2,0.2-0.4,0.4-0.5c0.1-0.1,0.2-0.2,0.3-0.2c0.2-0.1,0.2,0,0.4-0.1c0.2,0,0.3-0.1,0.4-0.1c0.2,0,0.4,0,0.6-0.1
					c0.6-0.2,0.2-0.7-0.1-0.9c-0.3-0.2-0.5-0.3-0.5-0.7c0-0.2,0-0.4,0-0.5c0-0.2,0.1-0.3,0.1-0.5c0.3,0.2,0.8,0.2,1.2,0.4
					c0.3,0.1,0.5,0.2,0.7,0.3c0.2,0.1,0.4,0.1,0.5,0.3c0,0.1,0.1,0.2,0.1,0.3c0.1,0.1,0.1,0.2,0.2,0.3c0.1,0.2,0.1,0.4,0.3,0.6
					c0.1,0.1,0.3,0.2,0.4,0.2c0.1,0,0.3,0,0.4,0c0.3,0.1,0.5,0.1,0.8,0.1c1.2,0,2.4,0,3.7,0c0.5,0,1-0.1,1.5,0
					c0.2,0,0.3,0.1,0.5,0.2l4-0.8c0.1-0.1,0.2-0.4,0.1-0.6c-0.1-0.2-0.5-0.3-0.7-0.3c-0.2-0.1-0.5-0.1-0.7-0.2
					c-0.2-0.1-0.4-0.2-0.6-0.3c-0.4-0.1-1-0.2-1.3-0.5c-0.1-0.1-0.2-0.3-0.3-0.4c-0.2-0.2-0.4-0.1-0.6-0.1c-0.9,0-1.8,0.1-2.7,0.3
					c-0.4,0.1-0.8,0.1-1.2,0.1c-0.4,0-0.8,0-1.2,0.1c-0.2,0.1-0.4,0.1-0.6,0.2c-0.1,0.1-0.3,0.1-0.4,0.2c-0.2,0.1-0.3,0-0.4,0.1
					c-0.2,0-0.3,0.1-0.5,0.2c-0.2,0-0.4,0.1-0.6,0.1c-0.5,0-0.7-0.3-1.1-0.5c-0.1,0-0.1-0.1-0.2-0.1c-0.1,0-0.3,0-0.4,0
					c-0.1,0-0.2-0.1-0.3-0.1c-0.1,0-0.3,0-0.4,0c-0.5,0-1.1,0.1-1.6-0.1c-0.5-0.2-1-0.6-1.5-0.6c-0.5,0-1.1,0-1.6,0
					c-0.5,0.1-1,0.3-1.5,0.3c-0.2,0-0.5,0-0.7,0c-0.2,0-0.7-0.4-0.8-0.5c-0.1-0.1-0.2-0.2-0.4-0.3c-0.1-0.1-0.2-0.1-0.3-0.2
					c-0.3-0.1-0.6-0.1-0.9-0.1c-0.3,0-0.6,0-0.8,0c-0.2,0.1-0.3,0.1-0.5,0.2c-0.1,0-0.2,0.1-0.3,0.1c-0.1,0.1-0.1,0.2-0.1,0.3
					c0,0.3,0.1,0.2,0.3,0.4c0.2,0.2,0.3,0.4,0.5,0.6c0.1,0.1,0.4,0.2,0.4,0.4c0.1,0.1-0.1,0.3-0.3,0.5c-0.1-0.1-0.2-0.1-0.2-0.2
					c-0.4-0.3-0.8-0.4-1.3-0.5c-0.8-0.2-1.6,0-2.3-0.1c-0.6,0-0.6-0.5-0.9-0.8c-0.7-0.6-0.8,0.4-0.8,0.9c0,0.3-0.1,0.6,0,0.8
					c0,0.2,0.2,0.4,0.1,0.6C384,21.1,383.9,21.1,383.9,21.3z"/>
				<g>
					<defs>
						<path id="XMLID_226_" d="M543,51.2c-0.1-0.1-0.3-0.3-0.4-0.4c-0.3-0.2-0.7-0.3-1.1-0.4c-0.2,0-0.4,0-0.5,0
							c-0.2,0-0.3-0.1-0.4-0.1c-0.2,0-0.3,0-0.5,0c-0.1,0-0.2-0.1-0.3-0.1c-0.5-0.2-0.9-0.4-1.2-0.9c-0.1-0.2-0.3-0.5-0.4-0.7
							c-0.1-0.2-0.2-0.4-0.4-0.5c-0.1-0.1-0.3-0.2-0.5-0.2c-0.1-0.1-0.1-0.2-0.1-0.3c-0.5-1.1-0.7-1.9,0.4-2.7
							c0.2-0.2,0.5-0.3,0.8-0.4c0.1,0,0.2,0,0.3-0.1c0.1,0,0.3-0.1,0.4-0.2c0.1,0,0.2-0.1,0.3-0.1c0.3-0.1,0.8-0.2,0.7-0.6
							c-0.1-0.2-0.2-0.3-0.3-0.5c-0.3-0.3-0.6-0.4-1-0.5c-0.2-0.1-0.5-0.2-0.7-0.3c0,0,0,0,0,0c-0.5-0.4-1-0.7-1.5-1.1
							c-0.9-0.8-1.9-1.3-3.2-1.4c-2.9-0.3-6.3,0.5-9.1-0.2c-0.3-0.1-0.6-0.2-0.9-0.3l-0.3-0.6l-0.2,0.3c0,0,0,0-0.1,0
							c0.1-0.1,0.1-0.2,0.1-0.2l-0.4,0c-0.3-0.2-0.7-0.5-1-0.7c-1.1-0.9-2.4-1.4-3.8-1.8c-1.2-0.3-2-0.6-3-1.4
							c-0.1-0.1-0.1-0.1-0.2-0.2l-0.8-1.5l-0.4,0.7c0,0,0,0,0,0c0.2-0.4,0.3-0.6,0.3-0.6l-6.6,0l-0.9,1.5c-1.2,0-2.5-0.2-3.5-0.3
							c-2.8-0.5-5.1-1.7-7.9-1.7c-1.6,0-3.2,0-4.8-0.1c-1.6-0.1-3.2-0.6-4.8-0.6c-1.1,0-2.2,0.1-3.4,0.3c-0.4-0.2-0.9-0.3-1.3-0.4
							c-0.2,0-0.6-0.1-0.8,0c-0.3,0.1-0.4,0.4-0.4,0.7c0,0.1,0,0.1,0,0.2c-0.6,0.2-1.2,0.3-1.7,0.6c-0.2,0-0.3,0-0.5,0
							c-0.3,0.1-0.8,0.1-1,0.3c-0.1,0.1-0.4,0.4-0.3,0.6c-0.9,0.5-1.6,1-2.5,1.4c-0.3,0-0.6,0-0.9,0c-0.4,0-0.8,0.1-1,0.4
							c-0.1,0.1-0.1,0.3-0.2,0.4c-0.1,0.1-0.2,0.3-0.2,0.5c-0.1,0.2-0.2,0.3-0.2,0.5c-0.1,0.4-0.2,0.7-0.7,0.9
							c-0.5,0.2-1,0.3-1.5,0.4c-0.4,0.1-1,0-1.4,0c-0.4,0-0.9,0-1.3,0c-0.3,0-0.5,0.1-0.8,0.1c-0.2,0-0.4,0-0.6,0
							c-0.4,0-0.7,0-1.1,0.2l-5.4,0l-1,1.7c-0.3-0.1-0.5-0.2-0.7-0.3c-0.3-0.2-0.5-0.4-0.8-0.6c-0.2-0.1-0.3-0.2-0.4-0.4
							c-0.1-0.4,0-0.8,0-1.2c0-0.2,0-0.2-0.3-0.3c-0.1-0.1-0.3-0.1-0.4-0.2c-0.3-0.1-0.6-0.2-0.9-0.3c-0.5-0.1-1-0.2-1.4-0.4
							c-0.2-0.1-0.4-0.2-0.6-0.4c-0.2-0.1-0.3-0.3-0.5-0.5c-0.4-0.3-0.9-0.6-1.4-0.7c-0.5-0.1-1.1-0.1-1.6,0.1c-0.2,0.1-0.5,0-0.7,0
							c-0.3,0-0.6,0.1-0.9,0.2c-0.4,0.1-0.9,0.1-1.3,0.1c-0.4,0.1-0.8,0.2-1.2,0.3c-0.3,0-0.5,0-0.8,0c-0.2,0-0.4,0.1-0.6,0.1
							c-0.3-0.1-0.6-0.2-1-0.2c-1.1-0.2-2.4,0.3-3.5,0c-0.5-0.2-0.9-0.6-1.4-0.9l-1.2-2.2l-0.9,1.5c0,0,0,0,0,0
							c0.5-0.8,0.8-1.5,0.8-1.5l-6.6,0l-0.8,1.3c-0.8,0-1.6,0.1-2.3,0.1c-0.6,0-1.2,0-1.8-0.1c-0.5-0.2-2.4-0.4-2.4-0.4
							c-0.2,0-0.4,0-0.6,0c-0.3,0-0.5,0-0.8-0.1c-1.3-0.1-2.6,0-3.9,0l-0.4-0.7l-0.4,0.8c0,0,0,0-0.1,0c0.2-0.4,0.4-0.7,0.4-0.7
							l-6.6,0l-0.2,0.4c-0.1,0-0.3,0.1-0.4,0.1c-0.3,0.1-0.6,0.4-0.9,0.6c-0.9-0.1-1.8-0.2-2.7-0.1c-0.3,0-0.5,0.2-0.7,0.3
							c-0.2,0.1-0.4,0.2-0.6,0.4c-0.3,0.3-0.5,0.4-0.5,0.8c0,0.2,0,0.4,0.1,0.5c0.2,0.2,0.5,0.1,0.7,0.1c0.3,0.1,0.3,0.1,0.3,0.4
							c0,0.1,0,0.2,0,0.3c-0.8,0.6-1.6,1.3-2.5,1.8l-2.7,0l-1.1,1.9c-3.6,0.9-7.4-1.1-11-1.4c0,0-0.1,0-0.1,0l-0.3-0.6l-0.1,0.1
							l-2.5,0c-0.3-0.1-0.6-0.2-0.9-0.3c0,0-0.1-0.1-0.1-0.1c-0.3-0.4-0.3-0.8-0.7-1.2c-0.4-0.4-0.9-0.6-1.4-0.8
							c-0.3-0.1-0.5-0.3-0.8-0.5c-0.4-0.2-0.7-0.3-1-0.5c-0.5-0.3-1-0.7-1.6-0.9l-0.7-1.3l-0.5,0.9c0,0,0,0-0.1,0
							c0.3-0.5,0.4-0.8,0.4-0.8l-6.6,0l-0.6,1c-0.1,0-0.3,0-0.4,0c-0.5,0-1,0.2-1.5,0.3c-0.1,0-0.8,0.1-0.8,0.2
							c0.1,0.1,0,0.1,0.1,0.2c0,0.1,0.1,0.1,0.2,0.2c-0.6,0.2-1.1,0.5-1.5,0.8c-0.7,0.5-1.4,1-2.1,1.5c-0.4,0-0.8-0.1-1.1-0.1
							c-1-0.2-2-0.5-2.9-0.9c-0.2-0.1-0.4-0.3-0.6-0.4l-1.9-3.2l-0.7,1.2c0,0,0,0,0,0c0.4-0.7,0.6-1.1,0.6-1.1s-6.6,0-6.6,0
							l-8.3-3.3c0,0.1,0.1,0.2,0.1,0.3c0,0,0,0,0,0c-0.2-0.2-0.4-0.3-0.5-0.5l0.5,0.2c-0.1-0.4-0.4-0.9-0.6-1.4
							c0.1,0,0.2-0.1,0.3-0.2c0.1-0.1,0.3-0.3,0.2-0.5c-0.1-0.1-0.3-0.4-0.4-0.5c0-0.1,0-0.1,0-0.2c0-0.4,0.1-1-0.2-1.2
							c-0.4-0.3-1-0.2-1.4-0.2c-0.1,0-0.3,0-0.4,0c-0.1-0.1-0.2-0.1-0.2-0.2c-0.1,0-0.1-0.1-0.2-0.1c-0.1-0.1-0.1-0.3-0.1-0.4
							c-0.2-0.5-0.4-0.8-0.8-1c-0.4-0.3-1-0.3-1.5-0.2c-0.5,0.1-0.9,0.1-1.4,0.1c-0.3,0-0.5,0-0.8,0.1c-0.6,0-1.2,0-1.8,0
							c-0.2-0.1-0.3-0.1-0.5-0.1c-0.3-0.1-0.7,0-1,0c-0.2,0-0.4,0.1-0.5,0.1c-0.2,0-0.5-0.1-0.7-0.1c-0.5-0.1-1.2-0.1-1.5,0.4
							c0,0,0,0,0,0c0,0-0.1,0-0.1,0c-0.2,0-0.5,0-0.7-0.1l-0.9-0.4l-0.7-0.3c0-0.1,0-0.1-0.1-0.2c-0.1-0.1-0.4-0.1-0.6-0.1l-2.7-1.1
							c0-0.2,0-0.4,0-0.5c0-0.1,0-0.1,0-0.2c0.1-0.1,0.2-0.1,0.2-0.2c-0.1,0-0.1,0-0.2-0.1c0-0.1-0.1-0.3-0.2-0.4
							c-0.2-0.1-0.5-0.3-0.7-0.3c-0.4-0.1-0.8,0-1.2,0c-0.4-0.9-1.8-3.3-1.9-3.5c-0.1-0.2-0.2-0.6-0.3-0.8c-0.1-0.4-0.3-0.6-0.7-0.7
							c-0.4-0.1-0.7,0-1-0.2c-0.4-0.2-0.8-0.2-1.2-0.4c-0.4-0.2-0.6-0.4-0.9-0.6c-0.4-0.2-0.5-0.7-0.9-0.9c-0.3-0.2-0.7-0.1-1,0.1
							c-0.2,0.1-0.3,0.3-0.6,0.2c-0.2,0-0.3-0.4-0.3-0.6c-0.1,0-0.2,0-0.2-0.1c-0.2-0.1-0.2-0.1-0.4-0.1c-0.4,0-0.7,0-1.1,0
							c-0.6,0-1.3,0.2-1.3,0.9c0,0.2,0,0.4,0,0.5c0.1,0.3,0.3,0.3,0.4,0.5c0.2,0.2,0.2,0.5,0.2,0.7c-1.2-0.2-2.7-0.3-2.8-0.4
							c-0.3-0.2-0.5-0.4-0.8-0.6c-0.1-0.1-0.3-0.1-0.4-0.2c-0.1-0.1-0.1-0.1-0.1-0.2c0-0.1-0.1-0.1-0.2-0.1c-0.1-0.3,0-0.7,0.1-1
							c0.1-0.3,0.2-0.7,0.3-1c0.1-0.3,0.2-0.5,0.3-0.8c0-0.1,0-0.3,0-0.4c0-0.2,0-0.2-0.1-0.3c-0.1-0.1-0.4-0.2-0.6-0.2
							c-0.3-0.1-0.6-0.2-0.9-0.3c-0.7-0.2-1.3-0.4-2-0.5c-0.3-0.1-0.6-0.1-0.9-0.1c-0.3,0-0.4,0-0.5,0.3c-0.2,0.4-0.1,0.7-0.1,1.1
							c0,0.2,0,0.4,0,0.6c0,0.2,0.1,0.3,0.1,0.5c0,0.3-0.1,0.3-0.4,0.3c-0.2,0-0.5,0.1-0.6-0.1c-0.2-0.2-0.2-0.5-0.2-0.7
							c0-0.2-0.1-0.3-0.2-0.5c0-0.1,0-0.2,0-0.3c0-0.1,0-0.1-0.1-0.1c0-0.2,0-0.4-0.1-0.5c-0.1-0.1-0.4-0.1-0.6-0.1
							c-0.5,0-0.9,0.3-1.3,0.4c-0.3,0.1-0.6,0.1-0.9,0.2c-0.4,0.2-1,0.4-1.3,0.8c-0.3,0.3-0.5,0.7-1,0.5c-0.2-0.1-0.3-0.3-0.3-0.5
							c0-0.2-0.1-0.5,0-0.7c0.1-0.2,0.3-0.2,0.5-0.3c0.4-0.1,0.8-0.3,1.2-0.5c0.3-0.1,0.5-0.2,0.8-0.3c0.2,0,0.5,0,0.7,0
							c0.5-0.1,1-0.3,1.5-0.4c0.3-0.1,0.8,0.1,0.8-0.4c0-0.2,0-0.5,0-0.7c0-0.4,0-0.5-0.3-0.7c-0.7-0.4-1-1.1-1.7-1.4
							c-0.2-0.1-0.4-0.2-0.6-0.3c-0.3-0.2-0.3-0.3-0.5-0.5c-0.1-0.2-0.4-0.4-0.6-0.5c-0.2-0.1-0.5-0.3-0.7-0.4
							c-0.5-0.3-1-0.5-1.5-0.5c-0.6,0-0.9,1.1-0.9,1.6c0,0.2,0.1,0.6,0,0.7c-0.1,0.2-0.3,0.1-0.5,0.1C291,5.9,291,6,290.8,6
							c-0.1,0-0.3,0-0.4,0c-0.5,0.1-1,0.1-1.5,0.3c-0.5,0.2-0.8,0.4-0.8,1c0,0.2,0,0.4,0.1,0.6c0.2,0.2,0.5,0.4,0.7,0.6
							c0.3,0.3,0.9,0.4,0.7,0.9c0,0.1-0.3,0.4-0.4,0.5c-0.2,0.2-0.3,0.4-0.2,0.7c0.1,0.2,0.3,0.2,0.5,0.3c0.3,0.1,0.5,0.2,0.8,0.3
							c0.4,0.2,0.8,0.3,1.2,0.5c0.2,0.1,0.4,0.1,0.5,0.2c0.1,0.1,0.3,0.2,0.4,0.3c0.3,0.2,0.7,0.3,1.1,0.4c0.2,0,0.3,0.1,0.5,0.1
							c0.2,0.1,0.4,0.1,0.6,0.2c0.3,0.2,0.6,0.6,0.8,0.8c0.3,0.3,0.6,0.6,1,0.8c0.4,0.2,0.7,0.3,1.1,0.5c0.5,0.1,1.1,0.3,1.6,0.4
							c0.6,0.1,1.2,0.1,1.9,0.1c0.4,0,1-0.1,1.4,0c0.4,0.1,0.7,0.6,0.8,1c0.1,0.1,0.1,0.3,0.2,0.4c0.1,0.1,0.4,0,0.6,0
							c0.4,0,0.9,0.1,1.3,0c0.4-0.1,0.8-0.4,1-0.8c0,0,0.1-0.1,0.1-0.1c0.1-0.1,0,0,0.2-0.1c0.1,0,1.1,0,1.9-0.1
							c0.1,0.2,0.3,0.4,0.4,0.7c0.1,0.2,0.1,0.4-0.1,0.5c-0.1,0-0.2,0.1-0.2,0.1c-0.1,0.1-0.1,0.2-0.2,0.3c-0.2,0.3-0.6,0.6-0.6,0.9
							c0,0.4,0,0.8,0.4,0.9c0.6,0.2,1.3-0.1,1.9-0.3c0.2-0.1,0.4-0.2,0.6-0.2c0.2,0,0.2,0,0.4-0.1c0.2-0.1,0.3-0.2,0.5-0.3
							c0.1-0.1,0.3-0.1,0.4-0.2c0.3-0.1,0.7,0,1.1,0c0.2,0,0.3,0,0.4,0.1c0.2,0.1,0.3,0.1,0.5,0.1c0.1,0,0.4,0,0.5,0
							c0.2,0,0.5-0.3,0.7-0.4c0.2-0.1,0.4-0.4,0.6-0.5c0.2-0.1,1.4-0.4,1.6-0.4c0.4,0,1.3,2.4,1.9,3.2c0,0-0.1,0-0.1,0
							c-0.3,0-0.5-0.2-0.8-0.1c-0.2,0.1-0.4,0.2-0.5,0.3c-0.3,0.1-0.5,0.2-0.8,0.4c-0.6,0.3-1.3,0.5-1.7,1.2
							c-0.2,0.3-0.5,0.6-0.7,0.8c-0.3,0.3-0.5,0.5-0.7,0.8c-0.2,0.2-0.4,0.4-0.4,0.7c0,0.2-0.1,0.6,0,0.8c0.2,0.4,0.9,0.5,1.2,0.6
							c0.1,0,0.3,0.1,0.6,0.3c-0.1,0.1-0.2,0.3-0.3,0.4c-0.7-0.1-1.3-0.3-2.1-0.3c-0.2,0-1.1,0.1-0.8,0.5c0.1,0.1,0.3,0.1,0.5,0.1
							c0.3,0.1,0.5,0.2,0.8,0.2c0.1,0,0.6,0.1,1.1,0.2c-0.3,0.5-0.7,0.8-1,1.1c-0.3,0.1-0.6,0.2-0.9,0.3c-0.3,0.1-0.5,0.2-0.7,0.4
							c-1,0.2-2.1,0.2-3.2,0.1c-0.2-0.2-0.4-0.4-0.6-0.6c-0.1,0-0.1,0-0.2-0.1l-0.7-1.2l-0.8,1.4c0,0,0,0,0,0
							c0.4-0.8,0.7-1.3,0.7-1.3l-6.6,0l-1.2,2c-0.2,0.1-0.5,0.1-0.7,0.2c-2,0.7-2.1,1.5-2.9,3.4c-0.2,0.5-0.6,1.1-1.1,1.7
							c-0.1,0.1-0.2,0.1-0.3,0.1c-0.3,0.1-0.5,0.1-0.7,0.1c-0.2,0-0.4,0.2-0.6,0.3c-0.2,0.1-0.3,0.2-0.4,0.4
							c-0.1,0.2-0.2,0.4-0.4,0.6c-0.1,0-0.1,0.1-0.2,0.1c-0.1,0-0.2,0-0.3-0.1c-0.3,0-0.7,0-0.9,0c-0.4,0.1-0.4,0.2-0.4,0.6
							c0,0.2,0.1,0.5,0.2,0.6c0.2,0.2,0.4,0.1,0.7,0.2c0.1,0,0.2,0.1,0.3,0.1c0.1,0,0.3,0,0.4,0c0.3,0.1,0.4,0.2,0.4,0.5
							c0,0.3,0.1,0.3,0.2,0.5c0.1,0.2,0.2,0.4,0.4,0.6c0.2,0.2,0.4,0.3,0.5,0.6c0.1,0.3,0.2,0.5,0.3,0.8c0.1,0.1,0.2,0.3,0.3,0.3
							c0,0,0,0.1,0,0.1c-0.1,0.5-0.9,0.3-1.3,0.3c-0.3,0-0.9-0.1-1.1,0.2c-0.3,0.4-0.6,1-1,1.2c-0.3,0.2-0.8,0.2-1.1,0.2
							c-0.4,0.1-0.7,0.1-1.1,0.1c-0.4,0-0.8-0.1-1.3-0.1c-0.3,0-0.6-0.1-0.9-0.1c-0.5-0.1-0.9-0.1-1.4-0.1c-0.3,0-0.6,0-0.9,0
							c-0.3,0-0.5,0.1-0.7,0.3c-0.3,0.2-0.5,0.3-0.5,0.7c0,0.3,0.1,0.3,0.3,0.5l0.2,0c0,0.1,0,0.1,0,0.2c0,0.5,0,0.9,0.4,1.3
							c0.2,0.2,0.5,0.3,0.7,0.4c0.1,0.1,0.3,0.1,0.4,0.2c0,0,0.3,0.1,0.3,0.1c0.1,0.2-0.1,0.5-0.2,0.6c0,0.1,0,0.2,0,0.3
							c0,0.1-0.2,0.2-0.2,0.3c-0.1,0.3-0.1,0.9,0.1,1.1c-0.5,0.2-0.9,0.4-1.4,0.7l-2.8,0l-0.8,1.3c-0.1,0-0.3,0-0.4,0
							c-1.1-0.1-2.2-0.6-3.2-1.1c0,0-0.1,0-0.1,0c-0.1-0.3-0.2-0.7-0.4-0.9c-0.3-0.4-0.8-0.5-1.3-0.5c-0.3,0-0.7-0.1-0.8,0.3
							c0,0,0,0.1,0,0.1c-0.1,0-0.3-0.1-0.4-0.1c-0.1,0.9,1.1,2.7,0.7,3.7c-0.5,0.2-1,0.4-1.6,0.5c-0.8-0.1-1.6-0.5-2.3-0.9
							c0-0.6-0.1-1.3-0.1-1.9c-1.2,0-1.1-0.7-1.9-1.2c-0.6-0.4-1.7-0.2-2.5-0.4c-1.5-0.4-3.8-1.1-4.2,0.9c0,0.1-0.1,0.3-0.1,0.5
							l-3.2,5.4l2.4,4.2c-0.3,0.6-0.9,1.1-0.5,1.7c0.3,0.6,1.4,0.5,1.3,1.5c-0.1,0.7-1,0.9-0.5,1.6c0.4,0.6,1.7,0.5,2.2,1
							c0.5,0.5,0.4,1,1,1.5c0.6,0.4,1.6,0.7,1.9,1.4c0.4,0.7-0.3,1.8,0.1,2.3c0,0-0.1-0.1-0.1,0c0,0.2-0.1,0.3-0.3,0.4
							c-0.2,0.1-0.4,0-0.5,0.1c-0.2,0.1-0.4,0.1-0.6,0.1c0,0-0.1,0-0.1-0.1c-0.4-0.3-0.6-0.8-0.9-1.2c-0.3-0.4-0.6-0.9-1.1-1.2
							c-0.5-0.3-1-0.4-1.6-0.5c-0.1,0-0.1,0-0.2,0c-0.2-0.2-0.4-0.4-0.6-0.6c-0.1-0.1-0.3-0.3-0.5-0.4c-0.1-0.1-0.1,0-0.2-0.1
							c0,0-0.2-0.1-0.2-0.1c-0.3-0.1-0.6-0.2-1-0.3c-0.2-0.2-0.4-0.4-0.7-0.6c-0.4-0.2-0.8-0.3-1.3-0.4c-0.3-0.1-0.6-0.2-0.9-0.2
							c-0.1,0-0.1,0-0.2,0c-0.2-0.2-0.5-0.4-0.8-0.4c-0.1,0-0.2,0-0.3,0c-0.2,0-0.3-0.1-0.4-0.1c-0.2,0-0.3,0-0.5,0
							c-0.1-0.1-0.3-0.1-0.4-0.2c-0.4-0.2-0.8-0.3-1.2-0.5c-1.1-0.6-2.3-0.6-3.4-1.1c-0.6-0.3-1.1-0.7-1.6-1
							c-0.4-0.2-0.8-0.4-1.1-0.5c-0.5-0.2-1-0.1-1.5-0.1c0,0,0,0,0,0c-0.1,0-0.2-0.1-0.2-0.1c-0.2,0-0.3,0-0.3,0.2c0,0-0.1,0-0.1,0
							c-1-0.8-2.4-1.9-2.5-2c-0.3-0.2-0.5-0.4-0.8-0.6c-0.2-0.2-0.4-0.3-0.6-0.5c-0.2-0.2-0.4-0.3-0.7-0.5c-0.3-0.2-0.7-0.4-1-0.6
							c-0.2-0.1-0.4-0.2-0.6-0.3c0,0-0.1-0.1-0.2-0.1c-0.2-0.4-0.4-0.9-0.8-1.3c-0.1-0.1-0.2-0.2-0.2-0.2c0-0.2,0-0.5,0-0.7l3.6,0
							l3.3-5.8l-2.9-5c0.3-0.2,0.5-0.4,0.8-0.7c0.6-0.6,1.2-1.2,2-1.7c0.3-0.2,0.6-0.4,0.9-0.5c0.4-0.2,0.7-0.6,0.8-1
							c0.3-0.7,0.8-1.3,1.3-1.8c0.3-0.3,0.7-0.7,1.1-0.9c0.3-0.1,0.5-0.2,0.8-0.3c0.5-0.2,1-0.4,1.4-0.6c0.8-0.4,1.7-0.9,2.5-1.5
							c0.3-0.2,0.6-0.4,1-0.5c0.9-0.1,1.8-0.3,2.7-0.5c1-0.3,2.1-0.8,2.6-1.7c0.3-0.5,0.4-1.5,0-2c-0.2-0.3-0.6-0.4-0.9-0.6
							c-0.4-0.2-0.8-0.2-1.3-0.2c-0.7,0-1.6-0.2-2.3,0.2c-0.3,0.2-0.7,0.4-1,0.7c-1.6,2-2.3,2-4.8,2.1c-2.5,0.1-5-0.1-7.5-0.3
							c-2.1-0.2-5.7-0.8-7.6,0.3c-2.5,1.5-2.5,5.7-1.4,8c0.5,1.2,0.9,2.7,0.4,3.9c-0.7,1.6-2.1,2-2.4,3.8c-0.3,1.8,0.3,2.3-1.1,3.6
							c-0.9,0.8-1.2,0.2-1.4,1.4c-0.1,0.5,0.3,2.1,0.6,2.5c0.6,0.8,2.5,1.8,3.3,2.6c1.7,1.5,4.2,1.9,6.5,2.1c2.2,0.2,4.2-0.4,6,1.2
							c-0.3,0.1-0.7,0.5-0.6,0.9c0.1,0.3,0.4,0.5,0.6,0.6c0.1,0.1,0.2,0.1,0.3,0.2c0.1,0,0.2,0.1,0.3,0.1c0.2,0.1,0.2,0.1,0.4,0.1
							c0.1,0,0.2,0,0.2,0c2,0.4,5.1,2.4,4,4.8c-1.4,3.1-5.3,0.9-7.5,0.4c-2.4-0.6-4.8-2.6-7.4-2c-2.1,0.5-2.8,2.9-3.8,4.7
							c-0.4,0.1-0.9,0.2-1.3,0.4c-1,0.4-1.1,1.4-2,1.8c-0.9,0.4-2.2,0-3.2,0.4c-2.1,0.7-3.8,2.3-5.2-0.5c-0.6-1.2-1-2.1-2.6-2.6
							c-0.5-0.2-2.2-0.4-2.7-0.2c-0.7,0.2-0.8,0.9-1.2,1.1c-1.8,0.8-5.9,0-7.2-1.7c-1.1-1.5-2.6-4.3-4.8-4.4c-0.4,0-5.7,1.1-5.6,0.9
							l-1.1,1.8c-0.3,0-0.7,0-0.9-0.1c-0.5-0.2-1-0.4-1.4-0.6c-0.3-0.1-0.3-0.2-0.3-0.5c0-0.2,0-0.3-0.1-0.5
							c-0.3-0.5-0.8-0.8-1.3-0.9c-0.9-0.2-1.9-0.2-2.7,0.1c-0.6,0.2-1,0.5-1.5,0.9c-0.2,0.2-0.4,0.4-0.6,0.5
							c-0.1,0.1-0.2,0.1-0.3,0.2c0,0.1-0.1,0.1-0.1,0.2c-0.2,0.1-0.4,0-0.6,0c-0.4,0-0.8,0.1-1.1,0.2c-0.3,0.1-0.6,0.1-0.8,0.3
							c-0.1,0.1-0.2,0.4-0.3,0.5c-0.2,0.3-0.4,0.5-0.6,0.7c-0.4,0.4-0.3,1.1-0.3,1.6c0,0.2,0,0.5,0,0.7c0,0.2,0,0.3,0,0.5
							c-0.1,0.1-0.2,0.2-0.4,0.3c-0.1,0.1-0.2,0.2-0.2,0.4c-0.2,0.3-0.3,0.4-0.3,0.7c0,0.2-0.1,0.6,0,0.7c0.1,0.3,0.8,0.2,1,0.2
							c0.6,0,1.1,0,1.7,0c0.2,0,0.7-0.1,0.9,0l-1.9,3.3l0.1,0.3c-0.1,0.2-0.3,0.3-0.4,0.5c-0.2,0.2-0.5,0.4-0.4,0.7
							c0,0.1,0.2,0.3,0.3,0.4c0.1,0.1,0.2,0.2,0.3,0.3c0.3,0.2,0.5,0.5,0.7,0.7c0.2,0.2,0.5,0.4,0.6,0.7c0.2,0.3,0.2,0.6,0.3,1
							c0.1,0.5-0.2,1-0.2,1.6c0,0.5,0.1,1,0,1.5c0,0.2-0.2,0.4-0.3,0.6c-0.2,0.3-0.3,0.6-0.3,1c0,0.3,0,0.5-0.1,0.7
							c-0.1,0.3-0.3,0.4-0.4,0.7c-0.2,0.6,0.4,0.9,0.4,1.4c0,0.4,0.1,0.8,0.1,1.2c0,0.5,0.2,0.9,0.2,1.3c0,0.2,0,0.5,0,0.7
							c0,0.2-0.1,0.2-0.2,0.3c-0.1,0.1-0.1,0-0.1,0.2c0,0.2-0.1,0.6,0,0.8c0.1,0.2,0.3,0.3,0.4,0.4c0.2,0.2,0.3,0.3,0.5,0.5
							c0.1,0.1,0.3,0.2,0.4,0.3c0.1,0.1,0.2,0.3,0.3,0.4c0.1,0.1,0.1,0.1,0.2,0.2l-2.4,4.1l0.7,1.3c-0.4,0.4-0.7,0.8-1.2,1.1
							c-0.1,0.1-0.2,0.2-0.3,0.3c-0.1,0.1-0.3,0.1-0.4,0.2c-0.6,0.4-1.1,1-1.6,1.5c-0.2,0.2-0.4,0.4-0.7,0.6
							c-0.2,0.1-0.3,0.2-0.5,0.4c-0.4,0.6-0.7,1.2-1.1,1.7c-0.3,0.4-0.5,0.9-0.8,1.4c-0.1,0.2-0.2,0.4-0.1,0.6
							c0.2,0.3,0.9,0.3,1.1,0.3c0.8,0.1,1.7,0,2.5,0.3c0.3,0.1,0.3,0.3,0.4,0.5c0.1,0.3,0.2,0.4,0.5,0.5c0.2,0.1,0.4,0.1,0.6,0.2
							c0,0,0,0,0,0.1c-0.1,0.1-0.3,0.1-0.4,0.2c-0.1,0-0.1,0.1-0.2,0.1l-5.3,0l-3.3,5.7l3.2,5.5c0,0.1,0,0.1-0.1,0.2
							c-0.2,0.5-0.3,0.9-0.3,1.4l-2.5,4.3l0,0l-6.6,0l-3.3,5.7l1.8,3.1c-0.2,0-0.3,0.1-0.4,0.2c-0.1,0.1-0.1,0.4-0.1,0.5
							c0,0.2-0.1,0.3-0.1,0.5c0,0.3-0.1,0.5-0.2,0.7c0,0.1,0,0.1,0,0.2c0,0.3-0.1,0.6-0.1,1c0,0.3,0,0.6,0.1,0.8
							c0.1,0.3,0.2,0.5,0.4,0.8c0.1,0.1,0.1,0.2,0.1,0.3c0,0,0,0.1,0.1,0.1l-1.5,2.5c-0.1,0-0.1,0-0.1,0.1c-0.2,0.1-0.6,0-0.6,0.3
							c-0.1,0.4,0.3,0.9,0.4,1.2c0.4,0.9,0.4,1.7,1.1,2.4c0.6,0.5,1.3,1.1,2,1.4c1.4,0.6,3.1,0.7,4.6,0.9c2.7,0.3,5.1-0.7,7.8-0.8
							c0.3,0,0.6,0,0.9,0.1c0.6,0.1,1.2,0.3,1.7,0.4c0.1,0,0.3,0,0.4,0c0.2,0,0.2,0.1,0.4,0.1c0.9,0,1.2-0.8,1.2-1.5
							c0-0.5,0.1-0.9-0.3-1.2c-0.2-0.2-0.5-0.5-0.4-0.8c0.6-0.1,1.2-0.2,1.8-0.2c0,0,0.1,0,0.1,0c-0.8-1.8,1.7,0.8,3.4-0.2
							c0.5,0,1,0,1.3-0.1c0.9-0.4,1.7-0.8,2.6-1.2c0.9-0.3,0.7,0.8,0.7,1.4c0,0.6,0,1.2-0.2,1.8c-0.1,0.4-0.1,1.1,0.1,1.5
							c0.1,0.3,0.3,0.5,0.5,0.7c0.1,0.2,0.2,0.4,0.4,0.5c0.3,0.2,0.9,0.3,1.1,0.7c0.2,0.5-0.2,1,0.3,1.4c0.2,0.1,0.4,0.2,0.6,0.2
							c0.5,0.1,1.1,0.2,1.6,0.2c0.7,0,1.3,0.1,2,0.1c0.2,0,0.5,0,0.7,0c0.3,0.2,0.6,0.5,0.9,0.7c0.7,0.4,1.3,0.7,2,1
							c0.4,0.2,0.7,0.3,1,0.6c0.5,0.5,0.9,1,1.6,1.2c0.5,0.2,1.1,0.2,1.5,0.7c0.3,0.4,0.2,0.9,0,1.4c-0.1,0.3-0.3,0.5-0.4,0.8
							c-0.1,0.3,0,0.7,0,1c0,0.3,0,0.3,0.2,0.4c0,0.1,0.1,0.1,0.1,0.2l-0.7,0l-1.4,2.3c-0.1,0-0.1,0-0.2,0.1
							c-0.2,0.2-0.3,0.4-0.4,0.7c-0.1,0.3-0.3,0.5-0.5,0.7c-0.3,0.3-0.7,0.4-1.1,0.7c-0.4,0.3-0.5,0.6-0.5,1.1
							c-0.1,0.8,0.4,0.7,1,0.8c0.1,0,0.1,0,0.2,0.1l0.6,1c-0.6,0.3-1.2,0.6-1.7,1c-0.3,0.3-0.7,0.7-0.7,1.1c0,0.2,0,0.4,0.1,0.6
							c0.2,0.2,0.5,0.3,0.6,0.5c0.3,0.5-0.7,1-1,1.2c-0.3,0.1-0.5,0.2-0.7,0.4c-0.2,0.2-0.4,0.4-0.5,0.6c-0.1,0.2,0,0.4-0.1,0.6
							c-0.1,0.2-0.4,0.3-0.6,0.3c-0.2,0-0.4,0.5-0.6,0.5c-0.3-0.1-0.6-0.2-1-0.3c-0.2,0-0.4-0.2-0.6-0.2c-0.2-0.1-0.5-0.7-0.7-0.6
							c-0.2,0-0.4,0.1-0.6,0.2c-0.2,0.1-0.5,0.1-0.7,0.1c-0.2,0.1-0.4,0.1-0.6,0.1c-0.3-0.1-0.6-0.1-0.8-0.2
							c-0.2-0.1-0.4-0.2-0.5-0.4c-0.1-0.2-0.3-0.3-0.4-0.4c-0.2-0.2-0.1-0.3-0.1-0.5c-0.1-0.2,0-0.5-0.3-0.6c-0.5-0.2-1-0.3-1.5-0.3
							c-0.3,0-0.5,0-0.8,0c-0.3,0-0.6-0.1-0.8,0.1c-0.2,0.2-0.3,0.5-0.5,0.8c-0.2,0.3-0.4,0.5-0.6,0.7c-0.3,0.4-0.7,0.7-1,1
							c-0.4,0.4-0.4,0.7,0.1,1c0.4,0.2,0.8,0.4,1.2,0.5c0.3,0.1,0.8,0.5,0.8,0.8c0,1-0.3,2.4,1,2.5c0.6,0,1.3-0.3,1.8-0.6
							c0.4-0.2,0.7-0.4,1-0.7c0.2-0.3,0.5-0.4,0.8-0.6c0.3-0.2,0.6-0.4,1-0.4c0.2,0,0.5,0,0.7,0c0.3,0,0.7-0.5,1-0.5
							c0.5,0,0.7-1.2,1.2-1.2c0.2,0,0.4,0,0.6,0.1c0.2,0.1,0.4,0.5,0.6,0.5c0.4,0.1,0.9,1.2,1.2,1.4c0.2,0.1,0.4,0.3,0.6,0.4
							c0.2,0.2,0.2,0.3,0.2,0.6c0,0.6,0.7,0.6,1.1,0.6c0.2,0,0.4,0.1,0.6,0.1c0.2,0,0.3,0,0.5,0c0.2,0,0.3,0.1,0.5,0.1l0.7,1.2
							c0,0.1,0,0.1,0,0.2c0.1,0.2,0.2,0.3,0.3,0.4l1.4,2.4l2.4,0c0.2,0.3,0.5,0.5,0.8,0.4c0.3,0,0.6-0.2,0.9-0.3
							c0.4-0.1,0.8-0.1,1.2-0.1c0.6,0,1.1,0,1.5,0.4c0.2,0.1,0.3,0.4,0.5,0.5c0.2,0.1,0.6,0,0.9,0c0.6,0,1.1,0,1.6,0.2
							c0.2,0.1,0.5,0.1,0.7,0.2c0.3,0.1,0.5,0,0.8,0.1c0.5,0.1,0.4,0.6,0.7,0.9c0.1,0.2,0.3,0.4,0.5,0.5c0.2,0.2,0.5,0.4,0.7,0.5
							c0.5,0.2,1,0.2,1.4,0c0.4-0.2,0.7-0.5,1.1-0.7c0.2-0.1,0.5-0.2,0.8-0.2c0.8-0.1,1.8,0.4,2.2,1.2c0.2,0.4,0.3,0.8,0.5,1.2
							c0.3,0.4,0.8,0.9,1,1.4c0.1,0.3,0.2,0.5,0.6,0.6c0.1,0,0.3,0.1,0.4,0.2c0.2,0.1,0.4,0,0.5,0c0.2,0,0.4,0,0.6,0.1
							c0.1,0,0.4,0.1,0.5,0.2c0.2,0.2,0.3,0.5,0.4,0.7c0.2,0.3,0.5,0.5,0.7,0.8c0.2,0.2,0.4,0.5,0.7,0.7c0.4,0.2,0.7-0.1,1-0.4
							c0.3-0.2,0.5-0.5,0.8-0.7c0.3-0.2,0.5-0.3,0.7-0.5c0.2-0.2,0.3-0.5,0.4-0.8c0.1-0.3,0.3-0.6,0.2-0.9c-0.1-0.2-0.3-0.4-0.5-0.6
							c-0.4-0.3-1.1-0.4-1.6-0.6c-0.4-0.2-0.8-0.5-1.1-0.8c-0.6-0.7-0.6-1.6-0.4-2.5c0.1-0.6,0.3-1.3,0.4-1.9c0.1-0.4,0.3-1.3,0-1.7
							c-0.3-0.4-1.1-0.3-1.5-0.3c-0.5-0.1-1-0.3-1.5-0.3c-0.1-0.2,0-0.5,0.1-0.7c0.1-0.3,0.4-0.6,0.4-0.9c0-0.3-0.4-0.4-0.6-0.6
							c-0.1-0.1-0.2-0.1-0.3-0.2c-0.2-0.1-0.2-0.2-0.3-0.3c-0.1-0.1-0.2-0.1-0.3-0.2c-0.1-0.1-0.1-0.2-0.1-0.4c0-0.3,0-0.5,0.3-0.5
							c0.3-0.1,0.9-0.1,1.1,0c0.3,0.1,0.5,0.3,0.8,0.4c0.1-0.2,0-0.7,0-0.9v-1.3c0-0.3,0-0.5,0.1-0.7c0.2-0.3,0.3-0.3,0.5-0.4
							c0.4-0.1,0.8-0.1,1.2-0.1c0.2,0,0.5,0.1,0.7,0c0.4-0.1,0.5-0.6,0.7-0.8c0.2-0.3,0.4-0.6,0.4-1c0-0.1-0.1-0.2-0.1-0.2
							c1-0.6,1.9-1.1,2-1.2c0.2-0.2,0.3-0.5,0.5-0.7c0.2-0.2,0.4-0.3,0.7-0.3c0.4-0.1,0.8-0.1,1.2-0.2c0.3-0.1,0.6,0,0.9-0.1
							c0.5-0.2,1-0.1,1.6-0.1c0.4,0,0.7-0.1,1-0.1c0.3,0,0.5,0,0.8-0.1c0.4-0.1,1.2-0.4,1.5,0c0.2,0.2,0.3,0.6,0.3,0.9
							c0,0.3,0.2,0.6,0.1,0.9c-0.1,0.4-0.5,0.6-0.7,1c-0.1,0.3-0.2,0.5-0.2,0.7c0,0.2,0,0.4,0.2,0.5c0.3,0.2,0.6,0.5,0.8,0.7
							c0.1,0.1,0.2,0.1,0.2,0.2l-0.9,1.5c-0.5,0-1.1,0.1-1.6-0.1c-0.4-0.1-0.7-0.3-1.1-0.5c-0.6-0.2-0.9-0.1-1.4,0.3
							c-0.2,0.2-0.4,0.5-0.5,0.8c0,0.2,0,0.5,0,0.7c0,0.3,0,0.5,0.1,0.7c0,0.1,0.1,0.2,0.1,0.3c0.1,0.2,0.2,0.2,0.3,0.4
							c0.2,0.3,0,0.3-0.2,0.4c-0.2,0.1-0.2,0.2-0.5,0.2c-0.3,0-0.5,0-0.7-0.1c-0.1,0-0.3-0.1-0.5-0.1c-0.1,0-0.3-0.1-0.4-0.1
							c-0.2,0-0.4-0.1-0.5,0.1c-0.1,0.2-0.2,0.7-0.2,0.9c0,0.2-0.1,0.5,0,0.6c0.1,0.3,0.6,0.4,0.9,0.5c0.3,0.1,0.5,0.3,0.7,0.5
							c0.2,0.2,0.4,0.2,0.4,0.5c0,0.2,0,0.5,0,0.7c0,0.3-0.1,0.5-0.1,0.8c0,0.5,0,1,0.2,1.5c0.1,0.2,0.1,0.4,0.3,0.5
							c0.2,0.2,0.6,0.2,0.8,0.3c0.2,0.1,0.5,0.1,0.7,0.2l-0.3,0.4c0,0.4,1.1,0.4,1.3,0.4c0.3,0,0.7,0.1,1,0.2
							c0.3,0.1,0.5,0.2,0.8,0.3c0.2,0.1,0.6,0.1,0.7,0.2c0,0.1,0.1,0.2,0,0.3c-0.1,0.2-0.3,0.3-0.4,0.5c-0.3,0.3-0.7,0.6-0.8,1
							c-0.1,0.2-0.1,0.5-0.1,0.7c0,0.3-0.1,0.4,0.2,0.4c0.2,0,0.6,0,0.8,0c0.1,0,0.1,0,0.2-0.1c0.2,0.1,0.4,0.1,0.6,0.2
							c0.5-0.3,1-0.5,1.5-0.8c0.3-0.1,0.5-0.3,0.8-0.4c0.1-0.1,0.2,0,0.3-0.1c0.1,0,0.2-0.1,0.3-0.2c0.7,0.3,1.5,0,2.2,0.3
							c0.3,0.1,0.6,0.2,0.7,0.5c0.2,0.3,0.2,0.6,0.3,0.9c0.1,0.5,0.2,1,0.5,1.4c0.3,0.4,0.8,0.8,1.2,1.1c0.4,0.3,0.7,0.6,1,1
							c0.1,0.1,0.3,0.4,0.5,0.4c0.4,0.1,0.6-0.6,0.6-0.8c0.1-0.4,0.2-0.9,0.2-1.3c0-0.3-0.1-0.7,0-1c0-0.1,0.1-0.2,0.1-0.4
							c0-0.1,0-0.3,0-0.4c0-0.3,0.1-0.5,0.1-0.7c0-0.4,0.1-0.9,0-1.3c0-0.3-0.2-0.4-0.4-0.6c-0.2-0.2-0.3-0.5-0.4-0.7
							c-0.1-0.5-0.1-1.2-0.4-1.6c-0.3-0.5-0.6-1-0.6-1.6c0-0.2,0-0.3,0-0.5c0-0.3,0.1-0.4,0.1-0.7c0-0.2,0-0.3,0.1-0.5
							c0.1-0.2,0.3-0.4,0.4-0.6c0-0.1,0.1-0.2,0.1-0.3c0-0.1,0.1-0.1,0.2-0.1c0.1-0.2,0-0.8,0-1c0-0.1,0-0.1,0-0.2l1.5-2.6l-0.8-1.4
							c0.3-0.1,0.5-0.2,0.8-0.3c0.5-0.1,0.9-0.3,1.4-0.5c0.5-0.2,0.9-0.4,1.4-0.5c0.4-0.1,0.8-0.1,1.2-0.1c0.1,0,0.3,0,0.4,0
							c0.1,0,0.2,0.1,0.3,0.1c0.2,0,0.5,0,0.7,0.1c0.2,0.1,0.5,0.2,0.7,0.3c0.5,0.2,0.9,0.6,1.4,0.9c0,0,0.1,0,0.1,0.1l-1,1.7
							l3.3,5.7l6.7,0l0.3-0.6c0.2,0,0.4,0,0.7-0.1c0.5-0.1,1.1-0.2,1.6-0.4c0.2-0.1,0.5,0,0.7-0.1c0.1,0,0.1-0.1,0.2-0.1
							c0.1,0,0.2,0,0.3,0c0.5,0,1,0.1,1.4,0.3c0.1,0.1,0.3,0.1,0.5,0.1c0.1,0,0.2,0,0.3-0.1c0.1,0.1,0.1,0.2,0.2,0.3
							c0.2,0.1,0.5,0.2,0.7,0.1c0.2,0,0.4-0.2,0.6-0.3c0.2-0.1,0.5-0.3,0.7-0.3c0.2,0,0.4,0,0.6,0.1c0.1,0.1,0.1,0.2,0.2,0.3
							c0.1,0.1,0.2,0.1,0.3,0.2c0.1,0.3,0.3,0.7,0.5,1c0.1,0.2,0.3,0.4,0.4,0.6c0.1,0.1,0.2,0.3,0.3,0.4c0.2,0.2,0.5,0.4,0.7,0.6
							l-2,3.3l3.3,5.7l6.6,0c0,0,0,0,0,0c0,0.1-0.1,0.2-0.1,0.3c0,0.2,0,0.2,0.2,0.2c0.1,0,0.1,0,0.2,0c0,0,0,0,0,0.1
							c-0.1,0.3-0.3,0.7,0.1,0.8c1.3,0.5,5.2,0.9,5-1.2c4.2-0.2,5.4,0.2,7.2,3.2c0.8,1.4,1.8,3.5,3.8,2.9c-0.8-1.6,0.4-1.5,0.8-2.5
							c0.2-0.6,0.4-1.9,0.9-2.4c1.4-1.5,5.4-2.4,7.3-3.4c2.4-1.4,4.8-2.7,7.2-3.7c3.1-1.2,0.8-5.1,3.9-5.2c0.5,0,0.6-0.4,0.5-0.8
							c-0.1-0.9-0.9-1.4-1.2-2.2c-0.2-0.5-0.3-1-0.2-1.5c0-0.2,0.1-0.4,0.1-0.6c0-0.2,0-0.4,0-0.6c0-0.1,0-0.3,0-0.3
							c-0.1-0.1-0.1,0-0.2-0.1c-0.4-0.2-0.7-0.4-0.8-0.8c-0.2-0.4-0.5-0.6-0.9-0.7c-0.5-0.2-1.2-0.4-1.6-0.7
							c-0.2-0.2-0.4-0.2-0.4-0.5c0-0.2,0-0.5,0-0.7c0.5-0.1,1.1,0.1,1.5,0.2c0.7,0.2,1.3,0.4,2,0.4c0.4,0,0.7,0,1,0.1
							c0.2,0,0.3,0.1,0.4,0.1c0.2,0,0.3,0.1,0.5,0.1c0.2,0,0.4,0,0.6,0c0.3,0,0.6,0.1,0.8,0.2c0.4,0.1,0.7,0.1,1,0.1
							c0.4,0,0.5-0.4,0.5-0.7c0-0.2-0.1-0.4-0.2-0.6c-0.1-0.2-0.3-0.4-0.4-0.6c0-0.1,0-0.3,0-0.4c0-0.2-0.1-0.3-0.1-0.5
							c0,0,0-0.1,0-0.1l3.3-5.8l-0.5-0.8c0,0,0-0.1,0.1-0.1c0.1-0.1,0.3-0.2,0.4-0.3c0.3-0.1,0.6-0.1,0.9-0.1c0.4,0,0.8,0.1,1.3,0.1
							c0.3,0,0.7,0,1,0c0.3,0,0.4-0.1,0.6-0.3c0.2-0.2,0.3-0.2,0.3-0.5c0-0.3,0-0.4-0.2-0.6c-0.2-0.2-0.3-0.3-0.5-0.5
							c-0.2-0.2-0.2-0.3-0.2-0.6c0-0.3-0.1-0.5-0.1-0.8c0-0.3,0.1-0.7,0-0.9c-0.1-0.2-0.3-0.3-0.4-0.5c-0.1-0.2-0.2-0.5-0.3-0.7
							c-0.1-0.1-0.1-0.3-0.2-0.4c-0.1-0.2-0.3-1,0.1-1.1c0.2-0.1,0.6,0,0.8,0c0.2,0,0.4,0,0.6,0c0.5-0.1,1.4-0.5,1.5-1
							c0-0.1,0-0.2,0-0.3c0-0.1,0.1-0.2,0.1-0.3c0-0.2,0.1-0.5,0-0.7c-0.1-0.2-0.3-0.2-0.4-0.4c-0.1-0.1-0.1-0.2-0.1-0.4l1.5,0
							l1.4-2.4c0.4,0,0.9,0.1,1.2,0.1c0.2,0,0.6,0.2,0.8,0.1c0.1-0.1,0.2-0.3,0.3-0.4c0.2-0.3,0.4-0.4,0.6-0.7
							c0.1-0.2,0.3-0.4,0.4-0.6c0.1-0.2,0.1-0.4,0.2-0.6c0.1-0.1,0.2-0.2,0.2-0.3c0-0.1,0-0.2,0.1-0.3c0.1-0.2,0.3-0.3,0.5-0.4
							l3.9,0l2.2-3.9c0.1,0,0.1,0.1,0.2,0.1c0.3,0.2,0.6,0.2,0.7,0.5c0.1,0.2,0.2,0.4,0.4,0.6c0.6,0.5,1.6,0.2,2.3,0.3
							c0.7,0.1,0.9,0.6,1.1,1.2c0.2,0.8,0.9,1.4,1.7,1.7c0.3,0.1,0.7,0.2,1,0.2c0.2,0,0.7,0.1,0.8-0.1c0.2-0.2,0.1-0.5,0.2-0.7
							c0.2-0.4,0.4-0.3,0.7-0.3c0.2,0,0.3-0.1,0.5-0.1c0.2,0,0.4,0,0.5,0c0.1,0,0.2-0.1,0.3-0.1c0,0,0.1,0,0.1,0l0.3,0.5l2.5,0
							c0.1,0.1,0.2,0.1,0.3,0.2c0.1,0,0.3,0.2,0.4,0.2c0-0.1,0-0.3,0-0.4l3.4,0l3.3-5.8l-1.3-2.2c0.3,0.1,0.6,0.1,0.9,0.1
							c0.4,0,0.8,0,1.2,0c0.4,0.1,0.5,0.3,0.7,0.6c0.3,0.4,0.8,0.6,1.1,0.8c0.6,0.3,1.3,0.4,1.7,0.9c0.1,0.1,0.3,0.3,0.4,0.5
							c0.1,0.2,0.1,0.3,0.1,0.5c0.1,0.2,0.1,0.3,0.2,0.4c0.1,0.2,0.2,0.5,0.4,0.6c0.6,0.4,1.4,0.4,2,0.5c0.1,0,0.1,0,0.2,0l1.8,3.1
							l6.7,0l1.9-3.3c0.1,0.1,0.2,0.1,0.3,0.1c0.2,0.1,0.6,0.2,0.8,0.3c0.2,0.2,0.1,0.3,0.1,0.5c0.1,0.2,0.3,0.4,0.5,0.5
							c0.2,0.1,0.5,0.2,0.7,0.3c0.4,0.1,0.8,0.2,1.2,0.4c0.5,0.2,0.9,0.3,1.4,0.5c0.4,0.2,1,0.5,1.4,0.5c0.6,0,1.2,0,1.7,0
							c0.5,0,1.2-0.1,1.6,0.3c0.1,0.2,0.2,0.4,0.3,0.6c0.1,0.2,0.1,0.4,0.4,0.4c1,0.1,2-0.2,2.9-0.4c0.3-0.1,0.7-0.2,0.9-0.4
							c0.1-0.1,0.1-0.1,0.1-0.2l3.4,0l0.9-1.6c0.1,0,0.2,0,0.3-0.1c0.1-0.2,0.2-0.5,0.3-0.8l1.5-2.7c0.5-0.1,1,0,1.5-0.1
							c0.2,0,0.5,0,0.7,0.1c0.2,0.1,0.2,0.2,0.2,0.4c0.1,0.2,0.2,0.4,0.4,0.5c0.1,0.1,0.2,0.1,0.3,0.1c0.1-0.1,0.2-0.1,0.3-0.2
							c0.2-0.1,0.3-0.1,0.5-0.2c0,0,0.1,0,0.1-0.1c0.8,0.5,1.6,0.9,2.3,1c0.4,0.1,0.8,0.1,1.2,0.1c0.3,0,0.7,0,1,0
							c0.6,0,1.2,0.1,1.9,0.1c0.5,0,1,0,1.4,0.2c0.1,0.1,0.3,0.3,0.4,0.3c0.1-0.2,0-0.5-0.1-0.7c0-0.2-0.1-0.4-0.1-0.6
							c0.4-0.8,1.2-1.4,1.2-2.4c0-0.6-0.3-1.2-0.7-1.7c0-0.1,0-0.1,0-0.2c0-0.4-0.2-0.7-0.4-0.9c-0.2-0.2-0.3-0.3-0.4-0.5
							c-0.1-0.3,0-0.6,0-0.9c0-0.5,0.1-0.8,0.3-1.2c0.1-0.2,0.2-0.4,0.4-0.6c0.2-0.3,0.4-0.7,0.6-1c0.2-0.2,0.2-0.3,0.2-0.5
							c0-0.3,0-0.5,0-0.8c0-0.3,0-0.6,0-0.8c0-0.2-0.1-0.2-0.2-0.3c-0.3-0.3-0.4-0.5-0.4-0.9c0-0.4-0.3-0.5-0.6-0.7
							c-0.3-0.2-0.5-0.3-0.7-0.6c-0.2-0.3-0.4-0.7-0.6-1c-0.1-0.2-0.6-0.7-0.5-0.9c0.4-0.1,0.8-0.1,1.2-0.3c0.3-0.1,0.6-0.2,0.9-0.3
							c0.4-0.2,0.6-0.6,0.9-0.9c1.4-0.2,2.7,0.2,3.9,1.4c0.5,0.5,0.9,0.8,1.3,1.2l1.2,2l4.7,0c0.5,0.3,0.9,0.6,1.5,1.2
							c0.8,0.7,1.5,1.5,2.2,2.2l1.5,2.5l2.8,0c0.6,0.3,1.2,0.6,1.8,1.1c0.6,0.5,1.1,1,1.6,1.6c0,0.1,0.1,0.2,0.1,0.3
							c0.1,0.1,0.1,0.1,0.2,0.2c0.1,0.1,0.1,0.3,0.2,0.4c0.3,0.3,0.4,0.7,0.8,0.8c0.6,0.2,1.4,0.5,2.1,0.5l0.3,0.5l4,0
							c0.3,0.1,0.5,0.2,0.8,0.2c0.2,0,0.4,0.1,0.6,0.2c0.3,0.1,0.5,0.3,0.8,0.5c0.7,0.5,1.2,1.1,1.6,1.7l1.9,3.3l0.5,0
							c0,0.1,0,0.2,0.1,0.3c0.1,0.1,0.4,0.2,0.6,0.2c0.6,0,1.2,0.2,1.7,0.2c0.4,0,0.9,0,1.4,0c0.4,0,0.9-0.4,1.2-0.7l1.2,0l0.5-0.9
							c0.2-0.1,0.4-0.1,0.6-0.1c0.1,0,0.2,0,0.3,0c0.2,0,0.3-0.1,0.4-0.1c0.2,0,0.3,0,0.5-0.1c0.3-0.1,0.7-0.1,1-0.3
							c0,0,0.1,0,0.1,0c0.1,0,0.2,0,0.3,0c1.2,0.2,1.3,0.9,1.3,2.2c0,0.1,0,0.1,0,0.1c0,0.1-0.1,0.2-0.1,0.4
							c-0.3,0.8-0.8,1.6-0.9,2.6c-0.1,0.6,0,1.3,0.2,1.8l-1.5,0l-3.3,5.7l3.3,5.7l0.7,0c0.2,0.5,0.5,0.9,0.4,1.5
							c0,0.3-0.3,0.6-0.3,0.9c0,0.3,0,0.3-0.2,0.5c-0.3,0.5-0.7,1-0.7,1.6c0,0.3,0,0.6,0,1c0,0.3,0.1,0.5,0.2,0.8
							c0.1,0.2,0.1,0.5,0.2,0.7c0.2,0.2,0.4,0.1,0.6,0.1c0.5,0,0.9,0.1,1.3-0.3c0.2-0.2,0.4-0.4,0.6-0.6c0.3-0.3,0.4-0.7,0.6-1.1
							c0.1-0.3,0.2-0.5,0.4-0.8c0.2-0.3,0.2-0.3,0.5-0.3c0.4,0,0.7,0,1,0.2c0.5,0.3,1.1,0.4,1.5,0.7c0.2,0.2,0.4,0.3,0.4,0.6
							c0.1,0.2,0.1,0.3,0.3,0.5c0.2,0.3,0.1,0.3,0.4,0.3c0.4,0,0.8,0,1.1,0c0.6,0,1.1-0.2,1.6-0.2c0.3,0,0.4,0,0.4-0.3
							c0-0.3,0.1-0.6,0.1-0.8c0.1-0.4,0.2-0.7,0.5-1.1c0.1-0.2,0.3-0.4,0.5-0.5c0.2-0.1,0.3-0.2,0.6-0.2c0.7-0.1,1.4-0.2,1.7-0.8
							c0.4-0.6,0.2-1.5,0.2-2.2c0-0.5-0.2-0.8-0.4-1.2c-0.1-0.2-0.2-0.4-0.3-0.5c-0.1-0.1-0.1-0.3-0.1-0.4c-0.1-0.1-0.1-0.2-0.2-0.3
							c-0.1-0.2-0.1-0.6-0.1-0.8c0-0.4,0.2-0.7,0.4-1c0.4-0.5,0.8-1.3,1.3-1.7c0.1-0.1,0.1,0,0.2-0.1c0.1-0.1,0.1-0.2,0.2-0.3
							c0.1-0.3,0.2-0.7,0.3-1.1c0.1-0.3,0-0.6,0-0.9c0-0.4,0.1-0.8,0.1-1.2c0-0.7,0-1.4,0-2c0-0.4-0.2-0.6-0.3-0.9
							c-0.1-0.4-0.3-0.8-0.4-1.1c-0.3-0.7-0.5-1.5-0.6-2.3c-0.1-0.4-0.1-0.7-0.1-1c0-0.1,0-0.3,0-0.4c0.1-0.2,0.2-0.2,0.3-0.3
							c0.1-0.1,0.2-0.3,0.3-0.4c0.1-0.2,0.3-0.3,0.4-0.5c0.1-0.2,0.3-0.3,0.4-0.5c0.1-0.1,0.2-0.3,0.3-0.4c0.2-0.3,0.5-0.7,0.7-1
							c0.3-0.4,0.3-0.8,0.3-1.3c0-0.3,0.1-0.6-0.1-0.9c-0.2-0.4-0.6-0.6-0.9-0.8c-0.6-0.5-1.3-1.1-1.5-1.8c-0.1-0.3-0.3-0.6-0.4-0.9
							c-0.2-0.3-0.2-0.7-0.4-1c-0.2-0.5-0.4-1-0.7-1.4c-0.3-0.4-0.6-0.7-0.8-1.1c-0.4-0.6-0.7-1.2-1-1.9c-0.1-0.2-0.2-0.2-0.4-0.3
							c-0.2-0.1-0.4-0.3-0.5-0.5c-0.1-0.2-0.3-0.4-0.4-0.5c-0.2-0.2-0.2-0.6-0.2-0.9c0-0.4-0.1-0.7-0.2-1c-0.1-0.2-0.1-0.4-0.1-0.6
							c0-0.1,0-0.2-0.1-0.3c0-0.1,0-0.2,0-0.3c-0.1-0.2-0.2-0.3-0.3-0.5c-0.3-0.3-0.6-0.7-0.9-1.1c-0.4-0.5-0.4-0.9-0.4-1.5
							c0-0.2,0-0.4-0.1-0.6c-0.1-0.2-0.2-0.3-0.4-0.4c-0.5-0.5-0.8-1.1-1.2-1.7c-0.5-0.7-1.1-1.3-1.4-2.1c1-0.2,2.4-0.5,2.5-0.2
							c0.2,0.6,1,2.2,1.5,2.6c0.5,0.5,1.2,0.7,1.6,1.4c0.2,0.4,0.1,1,0.1,1.4c0,0.3,0,0.5,0.2,0.7c0.3,0.3,0.6,0.5,0.9,0.7
							c0.3,0.3,0.6,0.6,0.9,0.8c0.3,0.2,0.6,0.5,0.8,0.7c0.1,0.1,0.2,0.3,0.3,0.5c0.1,0.1,0.3,0.3,0.5,0.4c0.2,0.2,0.5,0.5,0.7,0.7
							c0.3,0.4,0.6,0.8,0.7,1.3c0.1,0.5,0.2,1,0.3,1.4c0.1,0.4,0.5,0.8,0.7,1.2c0.1,0.3,0.4,0.4,0.5,0.7c0.2,0.4,0.5,0.7,0.7,1.1
							c0.1,0.2,0.3,0.4,0.4,0.6c0.1,0.1,0,0.3,0.1,0.4c0,0.1,0.1,0.2,0.1,0.3c0,0.2,0,0.4,0,0.6c0,0.1,0,0.2,0,0.3
							c0,0.2-0.1,0.3-0.2,0.4c-0.1,0.4-0.1,1.1,0.1,1.5c0.2,0.3,0.3,0.6,0.6,0.8c0.3,0.2,0.5,0.5,0.7,0.7c0.2,0.1,0.4,0.3,0.5,0.5
							c0.1,0.1,0.2,0.3,0.3,0.4c0.1,0.1,0.2,0.2,0.3,0.3c0.1,0.2,0.4,0.4,0.5,0.6c0,0.1,0,0.2,0,0.3c0,0.1,0.1,0.3,0.2,0.4
							c0.3,0.5,0.6,1.1,1,1.5c0.2,0.2,0.4,0.5,0.6,0.7c0.2,0.2,0.4,0.4,0.5,0.7c0.1,0.5,0.3,0.9,0.3,1.4c0,0.3,0,0.6,0,0.9
							c0,0.1,0,0.2,0,0.3c0,0.2,0.1,0.2,0.2,0.4c0.3,0.4,0.7,0.9,1.1,1.2c0.2,0.2,0.4,0.4,0.7,0.5c0.3,0.2,0.4,0.4,0.6,0.6
							c0.1,0.1,0.2,0.2,0.3,0.4c0.1,0.1,0.2,0.4,0.3,0.5c0.1-0.1,0-0.3,0-0.4c0-0.3,0.1-0.6,0.1-0.9c0-0.3,0.1-0.5,0.2-0.8
							c0-0.2,0-0.5,0-0.7c0.1-0.3,0.2-0.3,0.5-0.3c0.4,0,0.7,0,1,0.1c0.4,0.1,0.7,0.3,1.1,0.4c0.2,0.1,0.5,0.2,0.7,0.4
							c0.4,0.4,0.5,0.9,0.6,1.4c0.2,0,0.1-0.9,0.1-1c0-0.5-0.1-0.8-0.4-1.1c-0.4-0.5-0.7-1.2-0.9-1.8c-0.2-0.4-0.5-0.6-0.8-0.8
							c-0.3-0.3-0.7-0.5-1-0.8c-0.4-0.3-0.9-0.5-1.3-0.7c-0.3-0.2-0.7-0.4-1-0.7c-0.2-0.2-0.2-0.4-0.4-0.5c-0.1-0.1-0.3-0.2-0.4-0.3
							c-0.2-0.3-0.5-0.5-0.7-0.8c-0.2-0.3-0.4-0.5-0.5-0.8c-0.1-0.4,0-0.8-0.2-1.1c-0.1-0.3-0.1-0.5-0.1-0.8c0-0.3-0.1-0.6-0.1-0.9
							c0-0.5-0.3-1-0.5-1.5c-0.1-0.2-0.1-0.4-0.2-0.5c-0.1-0.2-0.3-0.3-0.3-0.5c0.3-0.2,0.8-0.2,1.1-0.2c0.8,0,1.4,0.4,2.1,0.7
							c0.6,0.3,1.2,0.5,1.7,0.8c0.3,0.2,0.7,0.7,1,0.7c0-0.3-0.3-0.6-0.5-0.8c-0.3-0.3-0.7-0.7-0.9-1c-0.7-0.9-2-1.2-3-1.7
							c-1.3-0.7-2.6-1.5-3.3-2.9c-0.2-0.5-0.4-0.9-0.6-1.4c-0.2-0.5-0.2-1-0.5-1.4c-0.1-0.2-0.2-0.4-0.4-0.6
							c-0.2-0.2-0.4-0.4-0.6-0.6c-0.1-0.1-0.1-0.2-0.2-0.3c-0.1-0.1-0.3-0.2-0.4-0.3c-0.3-0.3-0.5-0.6-0.8-0.9
							c-0.2-0.2-0.3-0.4-0.5-0.5c-0.2-0.1-0.4-0.1-0.6-0.2c-0.2-0.1-0.5-0.3-0.7-0.5c-0.4-0.2-0.7-0.5-1.1-0.7c-0.5-0.4-0.7-1-1-1.6
							c-0.1-0.2-0.3-0.4-0.3-0.7c0-0.2,0-0.5,0-0.7c0-0.4,0.1-0.8-0.1-1.1c-0.1-0.2-0.1-0.4-0.3-0.5c-0.1-0.1-0.2-0.1-0.3-0.1
							c-0.1-0.1-0.2-0.2-0.3-0.3c-0.3-0.2-0.7-0.4-1-0.6c-0.2-0.1-0.5-0.2-0.6-0.4c-0.1-0.1,0.5-0.2,0.5-0.3c-0.3,0-0.3-0.2-0.5-0.4
							c-0.2-0.2-0.4-0.3-0.5-0.5c-0.2-0.3-0.4-0.7-0.6-1c-0.3-0.4-0.7-0.7-1-1c-0.6-0.6-1.2-1.2-2-1.6c-0.6-0.3-1-0.9-1.6-1.2
							c-0.1-0.1-0.4-0.3-0.6-0.1c-0.1,0.1,0,0.5,0,0.6c0,0.3,0,0.5,0.1,0.7c0.2,0.6,1,1,1.5,1.3c0.7,0.4,1.6,0.7,2.2,1.2
							c0.4,0.3,0.8,0.5,1.2,0.8c0.2,0.1,0.5,0.3,0.7,0.5c0.1,0.1,0.2,0.4,0.1,0.6c-0.1,0.2-0.2,0.1-0.3,0.2
							c-0.2,0.1-0.3,0.2-0.5,0.2c-0.4,0.1-3,0.4-4.5,0.7c0.1,0-0.1-0.4-0.5-0.9l0.1-0.2c0-0.1-0.1-0.2-0.1-0.4
							c-0.1-0.3-0.2-0.5-0.4-0.7c-0.2-0.2-0.6-0.4-0.9-0.4c-0.2-0.1-0.5-0.1-0.7-0.1c-0.8-0.3-1.7-0.4-2.4-0.9
							c-0.9-0.6-1.3-1.8-2.2-2.5c-1.9-1.6-7.8-0.8-8.6-3.4c-0.3-1-0.6-3.1-0.5-4.2c0-0.1,0-0.2,0-0.3l2.1-3.7l-0.6-1
							c0-0.1,0.1-0.2,0.1-0.3c0.1-0.6,0.2-1.2,0.5-1.8c0.2-0.6,0.6-1.2,0.7-1.9c0.2-1.1,0.1-2.2,0.1-3.3c0-0.3,0-0.6,0-0.8
							c0.1-0.4,0.3-0.8,0.4-1.2c0.1-0.2,0-0.5,0.1-0.8l4.5,0c0,0.1,0.1,0.3,0.2,0.3c0.2,0.1,0.6-0.3,0.7-0.4
							c0.4-0.3,0.8-0.4,1.3-0.5c0.8-0.2,1.6-0.2,2.5-0.2c0.2,0,0.3,0,0.5,0.1c0.2,0.1,0.5,0.2,0.7,0.2c0.5,0,0.8-0.2,1.2-0.3
							c0.7-0.3,1.5-0.2,2.3-0.2c0.2,0,0.4,0.1,0.5-0.1c0.2-0.1,0.1-0.4,0.2-0.6c0-0.3,0.1-0.5,0.1-0.7c0-0.2-0.1-0.5,0.1-0.6
							c0.1-0.1,0.5-0.2,0.7-0.2c0.1,0,0.2,0,0.3-0.1l2,3.4l6.7,0l2-3.4c0.4,0,0.8,0,1.2,0c0.4-0.1,0.7-0.1,1.1-0.1
							c0.3,0,0.7,0,0.9-0.1c0-0.2-0.2-0.3-0.3-0.4c-0.1-0.1-0.1-0.2-0.2-0.3c0-0.1-0.1-0.1-0.2-0.1c-0.1-0.1-0.1-0.2-0.2-0.3
							c-0.1-0.1-0.2-0.1-0.3-0.2c-0.2-0.1-0.3-0.3-0.4-0.4c-0.1-0.1-0.2-0.2-0.3-0.2l0.1-0.2l-2.9-5.1c0-0.2,0-0.5,0-0.7
							c0-0.1-0.1-0.2-0.2-0.3c0-0.1,0-0.3,0-0.4c0-0.3,0-0.6,0-1c0-0.3-0.1-0.5-0.1-0.7c0-0.6,0-1.2,0.2-1.7c0.2-0.6,0.6-1.1,1-1.5
							c0.2-0.2,0.5-0.3,0.8-0.5c0.3-0.2,0.6-0.4,1-0.4c0.3,0,0.6,0,0.8,0c0.3,0,0.6,0.1,0.9,0.1c0.3,0,0.6,0.1,0.9,0.1
							c0.4,0,0.7,0.1,1,0.2c0.2,0.1,0.5,0.2,0.4,0.5c-0.1,0.1-0.2,0.3-0.3,0.4c-0.1,0.2-0.2,0.4-0.3,0.5c-0.1,0.5,0,1.1,0.4,1.4
							c0.2,0.1,0.3,0.2,0.5,0.4c0.2,0.1,0.3,0.3,0.5,0.4c0.7,0.5,1.4,1.1,2.2,1.1c0.2,0,0.5,0,0.6-0.2c0-0.1,0-0.2,0-0.3
							c0-0.1,0.1-0.2,0.2-0.3c0.1-0.1,0.3-0.2,0.4-0.3c0.2-0.2,0.4-0.3,0.6-0.5c0.3-0.3,0.5-0.6,0.8-1c0.2-0.2,0.4-0.6,0.5-0.9
							c0-0.2,0-0.4,0-0.5c0-0.2,0-0.4,0-0.5c0-0.2-0.2-0.3-0.3-0.4c0.1-0.4,0.2-0.7,0.4-1c0.6-0.6,1.9-0.8,2.9-0.7
							c0.1,0,0.1,0.1,0.2,0.1c0.3,0.2,0.4,0.3,0.6,0.6c0.1,0.2,0.3,0.5,0.5,0.7c0.2,0.2,0.3,0.2,0.3,0.6c0,0.3,0,0.6,0.1,1
							c0,0.2,0.1,0.4,0.2,0.6c-0.4,0.7-0.9,1.4-1.2,2c-0.1,0.1-0.1,0.2-0.2,0.3c-0.2,0.1-0.3,0.1-0.5,0.2c-0.2,0.1-0.5,0.1-0.7,0.2
							c-0.3,0.1-0.4,0.3-0.2,0.6c0.2,0.2,0.5,0.3,0.7,0.5c0,0,0.1,0.1,0.1,0.1c-0.7,3.3,0.6,7.2,0.6,10.6c0,0.2,0,0.3,0,0.5
							c0,0.4-0.1,0.7-0.1,1.1c-0.1,0.4-0.3,0.8-0.6,1.2c-0.5,0-1,0-1.5,0c-0.1,0-0.6,0.1-0.7,0.1c-0.1,0.1,0,0.2,0,0.3
							c0,0.2-0.1,0.5,0,0.7c0.1,0.2,0.3,0.3,0.5,0.5c0.1,0.1,0.2,0.3,0.3,0.4c-0.2,0.5-0.3,1.1,0.1,1.7c0,0,0.1,0.1,0.1,0.1
							c-0.1,0.2-0.2,0.4-0.2,0.6c-0.1,0.4-0.3,1.1,0.1,1.4c0.2,0.2,0.5,0.3,0.7,0.4c0.5,0.1,1,0,1.4,0.2c0.4,0.1,0.6,0.8,0.7,1.2
							c0.1,0.5,0,1.1,0.2,1.7c0.1,0.2,0.3,0.4,0.4,0.6c0.2,0.3,0.2,0.5,0.4,0.8c0.1,0.2,0.2,0.4,0.4,0.6c0.1,0.2,0.3,0.4,0.5,0.6
							c0.1,0.1,0.2,0.1,0.3,0.2c0.1,0.1,0.2,0.2,0.2,0.3c0.1,0.1,0.1,0.3,0.2,0.4c0.1,0.2,0.3,0.2,0.4,0.3c0.1,0.1,0.1,0.2,0.2,0.3
							c0.1,0.1,0.2,0.1,0.3,0.2c0.2,0.2,0.3,0.4,0.5,0.5c0.4,0.5,0.8,1,1.2,1.6c0.2,0.2,0.4,0.5,0.6,0.7c0.3,0.2,0.5,0.4,0.7,0.6
							c0.2,0.3,0.5,0.5,0.8,0.7c0.3,0.2,0.6,0.3,0.8,0.6c0.3,0.3,0.6,0.6,0.7,1c0.1,0.4,0,1,0.3,1.3c0.1,0.1,0.2,0.1,0.3,0.2
							c0.1,0.1,0.1,0.1,0.1,0.2c0.1,0.1,0.2,0.1,0.3,0.2c0.1,0.1,0.2,0.3,0.3,0.4c0.2,0.2,0.5,0.4,0.7,0.6c0.1,0.1,0.2,0.2,0.3,0.3
							c0.1,0.1,0.3,0.2,0.4,0.3c0.6,0.8,1.2,1.5,1.7,2.3c0.1,0.2,0.2,0.3,0.3,0.5c0.1,0.1,0.1,0.2,0.2,0.3c0.1,0.1,0.1,0.1,0.2,0.1
							c0.5,0.4,1,0.9,1.4,1.4c0.1,0.1,0.2,0.2,0.3,0.3c0.2,0.1,0.2,0.3,0.4,0.4c0.2,0.2,0.4,0.3,0.6,0.4c0.2,0.1,0.5,0.1,0.7,0.3
							c0.3,0.1,0.6,0.3,0.8,0.5c0.3,0.2,0.5,0.5,0.8,0.7c0.3,0.3,0.5,0.7,0.8,1c0.1,0.1,0.2,0.3,0.4,0.3c0.1,0,0,0.1,0.2,0
							c0.1,0,0.2-0.4,0.2-0.4c0.2-0.4,0-0.9,0.1-1.3c0-0.1,0.1-0.3,0.1-0.4c0-0.2,0-0.4,0-0.6c0.1-0.7,0.4-1.3,0.4-2
							c0-0.2,0-0.5,0-0.7c0-0.3,0.1-0.6,0-0.8c-0.1-0.6-0.8-1-1.3-1.2c-0.2-0.1-0.4-0.1-0.5-0.2c-0.2-0.1-0.2-0.3-0.3-0.5
							c-0.1-0.2-0.1-0.3-0.4-0.3c-0.2,0-0.5-0.1-0.7-0.1c-0.5-0.1-1.2-0.3-1.3-0.9c0-0.3-0.1-0.6,0.2-0.7c0.5-0.1,1.1-0.2,1.5-0.1
							c0.2,0,0.4,0.1,0.6,0.1c0.2,0,0.4,0,0.6,0c0.4,0,0.5-0.2,0.6-0.5c0.1-0.3,0.3-0.1,0.5-0.3c0.3-0.2,0.2-0.6,0-0.8
							c-0.5-0.5-0.8-1.3-1.2-1.8c-0.2-0.3-0.4-0.5-0.7-0.7c-0.5-0.4-1-0.8-1.5-1.1c-0.2-0.1-0.3-0.2-0.5-0.2
							c-0.2-0.1-0.2-0.2-0.2-0.5c0-0.1,0-0.4,0-0.5c0.1-0.2,0.4-0.4,0.6-0.5c0.3-0.2,0.6-0.2,0.9-0.3c0.4-0.1,0.9-0.1,1.3-0.3
							c0.6-0.2,1.4,0.1,2-0.1c0.1-0.2,0.1-0.4,0-0.6c1.2-1-0.1-1.5-1.1-1.8c-0.1-0.1-0.2-0.2-0.3-0.3c-0.3-0.3-0.5-0.8-0.8-1
							c-0.2-0.1-0.4-0.2-0.5-0.3c-0.3-0.2-0.5-0.4-0.8-0.6c-0.3-0.2-0.5-0.6-0.8-0.8c-0.2-1.2,1-1.9,0.8-3c0-0.1-0.1-0.3-0.2-0.4
							c0.4-0.1,0.2-0.2,0-0.5c-0.1-0.3-0.2-0.6-0.3-0.9c-0.1-0.2-0.3-0.4-0.5-0.5c-0.4-0.1-0.8,0-1.2-0.2c-0.4-0.2-0.7-0.5-1-0.7
							c-0.2-0.1-0.5-0.3-0.7-0.4c-0.3-0.3-0.3-0.6-0.3-1c0-0.2,0-0.5,0-0.7c0.1-0.3,0.2-0.6,0.1-0.9c-0.1-0.3-0.2-0.7-0.4-0.9
							c-0.2-0.2-0.4-0.2-0.6-0.2c-0.3,0-0.5,0.2-0.7,0.3c-0.2,0.1-0.4,0-0.6-0.1c-0.2-0.1-0.4-0.2-0.5-0.3c-0.3-0.2-0.5-0.4-0.8-0.6
							c-0.2-0.2-0.5-0.3-0.7-0.6c-0.5-0.6-1-1.3-1.3-2.2c-0.7-2.6-0.8-5.3,1.5-7.1c0.2-0.2,0.5-0.3,0.7-0.4c0.1,0,0.1,0.1,0.2,0.1
							c0.3,0.1,0.6,0,0.8-0.1c0.2-0.1,0.7-0.2,0.8-0.4c0.1-0.2,0-0.4,0-0.6c0.1-0.1,0.3-0.3,0.4-0.5c0.4-0.7,0.3-1.5,0.3-2.2
							c0.1-0.1,0.2-0.2,0.3-0.3c0.1-0.1,0.1-0.2,0.2-0.3c0.1-0.2,0.1-0.2,0.2-0.4c0,0,0-0.1,0-0.1c0.2,0,0.3,0,0.5,0
							c0.3,0,0.6,0,0.9,0c0.2,0,0.4,0.2,0.6,0.3c0.5,0.3,0.9,0.6,1.3,0.9c0.3,0.2,0.4,0.2,0.7,0.2c0.3,0,0.7,0,1,0c0,0,0.1,0,0.1,0
							c1.1,0.8,1.6-1.4,1.4-2.1c-0.1-0.1-0.1-0.2-0.2-0.3c0-0.1,0-0.2,0-0.2c-0.1-0.2-0.1-0.2-0.1-0.4c0-0.1,0-0.2,0-0.3
							c0-0.1,0-0.1,0.1-0.2c0-0.1,0.1-0.2,0.1-0.3c0,0,0.1-0.2,0.1-0.2c0.1-0.1,0.2-0.1,0.3-0.1c0.1-0.1,0.1-0.2,0.2-0.3
							c0.2-0.1,0.3-0.2,0.5-0.4c0.2-0.3,0.1-0.5,0-0.8c0-0.1,0.1-0.2,0.1-0.3c0-0.2,0-0.3,0-0.5c0-0.1,0-0.3,0-0.4
							c0-0.3,0.2-0.5,0.3-0.8c0.1-0.1,0.1-0.2,0.1-0.3l1.2-2.1c0.4-0.3,0.8-0.8,1-1.2c0.1-0.1,0.1-0.3,0.2-0.5
							c0.1-0.3,0.1-0.5,0.2-0.8c0,0,0,0,0-0.1l0.3-0.5l-0.1-0.2c0,0,0-0.1,0-0.1c0.1-0.2,0.2-0.5,0.2-0.7c0-0.2,0-0.4,0-0.6
							c0.2-0.1,0.4-0.1,0.6-0.2c0.3-0.1,0.6-0.2,0.9-0.2c0.4,0,0.8,0,1.1,0c0.3,0.1,0.6,0.2,0.9,0.3c0.4,0.1,0.6,0.4,0.9,0.6
							c0.3,0.2,0.7,0.6,1.1,0.7c0.1,0,0.6,0.1,0.7,0c0.1-0.1,0-0.5,0-0.6c0.1-0.3,0.1-0.5,0.1-0.8c0-0.1-0.1-0.2-0.1-0.3
							c0-0.1,0-0.3,0-0.4c-0.1-0.2-0.2-0.5-0.3-0.7c-0.1-0.2-0.3-0.4-0.4-0.5c-0.2-0.2-0.4-0.4-0.6-0.7c-0.2-0.3-0.3-0.6-0.5-0.9
							c-0.1-0.2-0.3-0.3-0.5-0.4c-0.4-0.3-0.9-0.4-1.3-0.7c-0.3-0.2-0.7-0.4-1-0.5c-0.3-0.1-0.5-0.2-0.8-0.3
							c-0.3-0.1-0.5-0.2-0.8-0.3c-0.1,0-0.3-0.1-0.4-0.1c-0.1-0.3-0.4-0.5-0.9-0.8c-1.2-0.8-2.6-1.1-3.9-1.7
							c-1.3-0.5-2.4-0.5-3.7-0.9c0-0.3,0-0.5,0-0.7c0.2,0,0.5-0.1,0.7-0.2c0.2-0.1,0.3-0.3,0.4-0.4c0.5-0.4,0.9-0.8,1.3-1.2
							c0.1-0.1,0.1-0.1,0.2-0.2c0.2-0.1,0.4-0.1,0.5-0.2c2.4-0.8,4.4-1.6,7-1.5c0.8,0,1.5,0.2,2.2,0.3c0.2,0.1,0.4,0.1,0.5,0.2
							c0.2,0.1,0.5,0.1,0.7,0.2c0.2,0,0.4,0,0.6,0c0.3,0.1,0.5,0.2,0.7,0.4c0.3,0.1,0.7,0.3,0.9,0.3c0.7,0.1,1.5,0,2.2-0.2
							c0.3-0.1,0.6-0.1,0.8-0.1c0.2,0.1,0.4,0.3,0.6,0.4c0.5,0.2,1.3,0.1,1.8,0c0.5-0.1,1-0.4,1.6-0.5c0.5-0.1,1-0.2,1.5-0.4
							c0.4-0.2,0.9-0.3,1.2-0.6C543.3,51.4,543.2,51.3,543,51.2z M323.7,23.6c-0.1,0-0.2,0-0.3,0c-0.2,0-0.4-0.1-0.6-0.1
							c-0.1-0.1-0.2-0.1-0.3-0.2c-0.3-0.1-0.4-0.1-0.4-0.4c0-0.2,0-0.3,0.1-0.4c0.6,0.5,1.2,0.8,1.8,1
							C323.8,23.6,323.7,23.6,323.7,23.6z"/>
					</defs>
					<use xlink:href="#XMLID_226_"  overflow="visible" fill="#FFFFFF"/>
					<clipPath id="XMLID_13_">
						<use xlink:href="#XMLID_226_"  overflow="visible"/>
					</clipPath>
					
						<path clip-path="url(#XMLID_13_)" fill="none" stroke="#898989" stroke-linecap="round" stroke-linejoin="round" stroke-miterlimit="10" d="
						M362.4,23.7v33.6c0,4,3.2,7.2,7.2,7.2h9.9c4,0,7.2-3.2,7.2-7.2V32.2l15.8-4.8v98.8c0,3.1,2.5,5.6,5.6,5.6h0
						c3.1,0,5.6,2.6,5.6,5.6v29.7h31.8v-49c0-4,3.2-7.2,7.2-7.2h13l17.6-1.1l21.7,31.6l36,5.5l24.8-100.9H514c-3.9,0-7,3.2-6.9,7
						l0,4c0,3.9-3.1,7-6.9,7h-26.7c-4,0-7.2,3.2-7.2,7.2v32.1h-32.1c-4,0-7.2-3.2-7.2-7.2v-32c0-4.2-3.4-7.7-7.7-7.7h0
						c-4.3,0-7.7-3.5-7.7-7.7l0.1-22.2l33-31.1h-94.8v49c0,4-3.2,7.2-7.2,7.2h-7.6h-35.5v28.4"/>
					
						<line clip-path="url(#XMLID_13_)" fill="none" stroke="#898989" stroke-linecap="round" stroke-linejoin="round" stroke-miterlimit="10" x1="402.8" y1="69.2" x2="442.8" y2="69.2"/>
					
						<line clip-path="url(#XMLID_13_)" fill="none" stroke="#898989" stroke-linecap="round" stroke-linejoin="round" stroke-miterlimit="10" x1="402.2" y1="119.5" x2="358.4" y2="119.5"/>
					
						<line clip-path="url(#XMLID_13_)" fill="none" stroke="#898989" stroke-linecap="round" stroke-linejoin="round" stroke-miterlimit="10" x1="391.4" y1="85.9" x2="402.4" y2="85.9"/>
					
						<path clip-path="url(#XMLID_13_)" fill="none" stroke="#898989" stroke-linecap="round" stroke-linejoin="round" stroke-miterlimit="10" d="
						M445.3,134.6h35.6l1.8,4.4l12.8,25H341.8v-18c0-2.2-1.8-4-4-4H318c-2.2,0-4,1.8-4,4v47.7"/>
					
						<polyline clip-path="url(#XMLID_13_)" fill="none" stroke="#898989" stroke-linecap="round" stroke-linejoin="round" stroke-miterlimit="10" points="
						313.8,171 298.5,171 298.5,152.9 265.8,152.9 					"/>
					
						<polyline clip-path="url(#XMLID_13_)" fill="none" stroke="#898989" stroke-linecap="round" stroke-linejoin="round" stroke-miterlimit="10" points="
						376.6,64.5 376.6,102.4 402.3,102.4 					"/>
					
						<line clip-path="url(#XMLID_13_)" fill="none" stroke="#898989" stroke-linecap="round" stroke-linejoin="round" stroke-miterlimit="10" x1="323.5" y1="79.2" x2="323.5" y2="51.9"/>
					
						<path clip-path="url(#XMLID_13_)" fill="none" stroke="#898989" stroke-linecap="round" stroke-linejoin="round" stroke-miterlimit="10" d="
						M265.7,196.8c0.4,0,0.2-33.5,0.1-47.9c0-3.5-2.9-6.4-6.4-6.4h-17.2"/>
					
						<path clip-path="url(#XMLID_13_)" fill="none" stroke="#898989" stroke-linecap="round" stroke-linejoin="round" stroke-miterlimit="10" d="
						M219.7,162.2v-22.2c0-3-2.4-5.4-5.4-5.4h-56.2"/>
					
						<line clip-path="url(#XMLID_13_)" fill="none" stroke="#898989" stroke-linecap="round" stroke-linejoin="round" stroke-miterlimit="10" x1="487" y1="63.9" x2="487" y2="19.7"/>
					
						<circle clip-path="url(#XMLID_13_)" fill="#041944" stroke="#898989" stroke-linecap="round" stroke-linejoin="round" stroke-miterlimit="10" cx="456.6" cy="134.1" r="2.3"/>
					
						<line clip-path="url(#XMLID_13_)" fill="none" stroke="#898989" stroke-linecap="round" stroke-linejoin="round" stroke-miterlimit="10" x1="335.2" y1="51.2" x2="335.2" y2="6.3"/>
					
						<line clip-path="url(#XMLID_13_)" fill="none" stroke="#898989" stroke-linecap="round" stroke-linejoin="round" stroke-miterlimit="10" x1="173.6" y1="135.1" x2="173.6" y2="156.6"/>
					
						<path clip-path="url(#XMLID_13_)" fill="none" stroke="#898989" stroke-linecap="round" stroke-linejoin="round" stroke-miterlimit="10" d="
						M266.1,170.8h13.3c2.5,0,4.5,2,4.5,4.5v29.1"/>
					
						<path clip-path="url(#XMLID_13_)" fill="none" stroke="#898989" stroke-linecap="round" stroke-linejoin="round" stroke-miterlimit="10" d="
						M219.3,189.5v-9.1c0-6.1-5-11.1-11.1-11.1h-14.2"/>
					
						<line clip-path="url(#XMLID_13_)" fill="none" stroke="#898989" stroke-linecap="round" stroke-linejoin="round" stroke-miterlimit="10" x1="196" y1="134.7" x2="196" y2="98.6"/>
					
						<path clip-path="url(#XMLID_13_)" fill="none" stroke="#898989" stroke-linecap="round" stroke-linejoin="round" stroke-miterlimit="10" d="
						M177.4,98.2h37.1c3.2,0,5.8-2.6,5.8-5.8v0c0-3.2,2.6-5.8,5.8-5.8h13.7v-21"/>
					
						<path clip-path="url(#XMLID_13_)" fill="none" stroke="#898989" stroke-linecap="round" stroke-linejoin="round" stroke-miterlimit="10" d="
						M498.5,64.5v27.8h23.7v10.9h-6.9c-3.2,0-5.8,2.6-5.8,5.8v19.7"/>
					
						<line clip-path="url(#XMLID_13_)" fill="none" stroke="#898989" stroke-linecap="round" stroke-linejoin="round" stroke-miterlimit="10" x1="507.7" y1="69.6" x2="537.3" y2="69.6"/>
					
						<path clip-path="url(#XMLID_13_)" fill="none" stroke="#898989" stroke-linecap="round" stroke-linejoin="round" stroke-miterlimit="10" d="
						M486.7,50.6h-36.5c-3.2,0-5.8-2.6-5.8-5.8V26"/>
					
						<line clip-path="url(#XMLID_13_)" fill="none" stroke="#898989" stroke-linecap="round" stroke-linejoin="round" stroke-miterlimit="10" x1="402.6" y1="95.9" x2="426.8" y2="95.9"/>
					
						<polyline clip-path="url(#XMLID_13_)" fill="none" stroke="#898989" stroke-linecap="round" stroke-linejoin="round" stroke-miterlimit="10" points="
						350.7,88.9 350.7,63.1 323.5,63.1 					"/>
					
						<line clip-path="url(#XMLID_13_)" fill="none" stroke="#898989" stroke-linecap="round" stroke-linejoin="round" stroke-miterlimit="10" x1="383.8" y1="119.2" x2="383.8" y2="92.9"/>
					
						<path clip-path="url(#XMLID_13_)" fill="none" stroke="#898989" stroke-linecap="round" stroke-linejoin="round" stroke-miterlimit="10" d="
						M294,134.6h77.7c4.3,0,7.8,3.5,7.8,7.8V160"/>
					
						<path clip-path="url(#XMLID_13_)" fill="none" stroke="#898989" stroke-linecap="round" stroke-linejoin="round" stroke-miterlimit="10" d="
						M327.7,134.3v-3.6c0-3.2,2.6-5.8,5.8-5.8l0,0c3.2,0,5.8-2.6,5.8-5.8v-13h11.8V93.5"/>
					
						<line clip-path="url(#XMLID_13_)" fill="none" stroke="#898989" stroke-linecap="round" stroke-linejoin="round" stroke-miterlimit="10" x1="472.2" y1="163.5" x2="472.2" y2="134.7"/>
					
						<path clip-path="url(#XMLID_13_)" fill="none" stroke="#898989" stroke-linecap="round" stroke-linejoin="round" stroke-miterlimit="10" d="
						M445.4,120h-18.6c-5.4,0-9.8-4.4-9.8-9.8v-14"/>
					
						<path clip-path="url(#XMLID_13_)" fill="none" stroke="#898989" stroke-linecap="round" stroke-linejoin="round" stroke-miterlimit="10" d="
						M411.7,48.1h12c2.9,0,5.3-2.4,5.3-5.3V23.9"/>
					
						<line clip-path="url(#XMLID_13_)" fill="none" stroke="#898989" stroke-linecap="round" stroke-linejoin="round" stroke-miterlimit="10" x1="349.8" y1="43.1" x2="362.5" y2="43.1"/>
					
						<line clip-path="url(#XMLID_13_)" fill="none" stroke="#898989" stroke-linecap="round" stroke-linejoin="round" stroke-miterlimit="10" x1="376.5" y1="71.8" x2="351" y2="71.8"/>
					
						<line clip-path="url(#XMLID_13_)" fill="none" stroke="#898989" stroke-linecap="round" stroke-linejoin="round" stroke-miterlimit="10" x1="388.2" y1="50.5" x2="402.3" y2="50.5"/>
					
						<path clip-path="url(#XMLID_13_)" fill="none" stroke="#898989" stroke-linecap="round" stroke-linejoin="round" stroke-miterlimit="10" d="
						M188.3,98.1v10.5c0,4.9-3.9,8.8-8.8,8.8h-14.9"/>
					
						<path clip-path="url(#XMLID_13_)" fill="none" stroke="#898989" stroke-linecap="round" stroke-linejoin="round" stroke-miterlimit="10" d="
						M219.8,150.2h5.7c2,0,3.7-1.6,3.7-3.7v0c0-2,1.6-3.7,3.7-3.7h9.4v-22.9"/>
					
						<line clip-path="url(#XMLID_13_)" fill="none" stroke="#898989" stroke-linecap="round" stroke-linejoin="round" stroke-miterlimit="10" x1="366.4" y1="134.4" x2="366.4" y2="119.7"/>
					
						<path clip-path="url(#XMLID_13_)" fill="none" stroke="#898989" stroke-linecap="round" stroke-linejoin="round" stroke-miterlimit="10" d="
						M413.4,141.2H399c-2.6,0-4.7,2.1-4.7,4.7V156"/>
					
						<line clip-path="url(#XMLID_13_)" fill="none" stroke="#898989" stroke-linecap="round" stroke-linejoin="round" stroke-miterlimit="10" x1="466.4" y1="86.1" x2="427.2" y2="86.1"/>
					
						<line clip-path="url(#XMLID_13_)" fill="none" stroke="#898989" stroke-linecap="round" stroke-linejoin="round" stroke-miterlimit="10" x1="443.3" y1="85.9" x2="443.3" y2="61.2"/>
					
						<line clip-path="url(#XMLID_13_)" fill="none" stroke="#898989" stroke-linecap="round" stroke-linejoin="round" stroke-miterlimit="10" x1="450.7" y1="103.6" x2="450.7" y2="86.1"/>
					
						<path clip-path="url(#XMLID_13_)" fill="none" stroke="#898989" stroke-linecap="round" stroke-linejoin="round" stroke-miterlimit="10" d="
						M434.9,120.6v7.2h22.8c4.4,0,7.9-3.6,7.9-7.9v-5.6"/>
					
						<line clip-path="url(#XMLID_13_)" fill="none" stroke="#898989" stroke-linecap="round" stroke-linejoin="round" stroke-miterlimit="10" x1="466.1" y1="80.8" x2="488.6" y2="80.8"/>
					
						<polyline clip-path="url(#XMLID_13_)" fill="none" stroke="#898989" stroke-linecap="round" stroke-linejoin="round" stroke-miterlimit="10" points="
						485.2,50.8 498.4,50.8 498.4,17.9 					"/>
					
						<line clip-path="url(#XMLID_13_)" fill="none" stroke="#898989" stroke-linecap="round" stroke-linejoin="round" stroke-miterlimit="10" x1="498.4" y1="39.2" x2="558" y2="39.2"/>
					
						<line clip-path="url(#XMLID_13_)" fill="none" stroke="#898989" stroke-linecap="round" stroke-linejoin="round" stroke-miterlimit="10" x1="309.6" y1="51.6" x2="309.6" y2="25.2"/>
					
						<line clip-path="url(#XMLID_13_)" fill="none" stroke="#898989" stroke-linecap="round" stroke-linejoin="round" stroke-miterlimit="10" x1="193" y1="162.4" x2="252.7" y2="162.4"/>
					
						<line clip-path="url(#XMLID_13_)" fill="none" stroke="#898989" stroke-linecap="round" stroke-linejoin="round" stroke-miterlimit="10" x1="253.5" y1="135.2" x2="253.5" y2="183.1"/>
					
						<polyline clip-path="url(#XMLID_13_)" fill="none" stroke="#898989" stroke-linecap="round" stroke-linejoin="round" stroke-miterlimit="10" points="
						196,98.2 196,80.1 172.5,80.1 					"/>
					
						<line clip-path="url(#XMLID_13_)" fill="none" stroke="#898989" stroke-linecap="round" stroke-linejoin="round" stroke-miterlimit="10" x1="335.2" y1="89.4" x2="376.3" y2="89.4"/>
					
						<line clip-path="url(#XMLID_13_)" fill="none" stroke="#898989" stroke-linecap="round" stroke-linejoin="round" stroke-miterlimit="10" x1="240" y1="80.7" x2="311" y2="80.7"/>
					
						<circle clip-path="url(#XMLID_13_)" fill="#041944" stroke="#898989" stroke-linecap="round" stroke-linejoin="round" stroke-miterlimit="10" cx="507.9" cy="69.5" r="1.9"/>
					
						<line clip-path="url(#XMLID_13_)" fill="none" stroke="#898989" stroke-linecap="round" stroke-linejoin="round" stroke-miterlimit="10" x1="239.7" y1="119.6" x2="196.3" y2="119.6"/>
					
						<circle clip-path="url(#XMLID_13_)" fill="#041944" stroke="#898989" stroke-linecap="round" stroke-linejoin="round" stroke-miterlimit="10" cx="443.3" cy="60.6" r="2.3"/>
					
						<circle clip-path="url(#XMLID_13_)" fill="#041944" stroke="#898989" stroke-linecap="round" stroke-linejoin="round" stroke-miterlimit="10" cx="383.7" cy="93.4" r="2.3"/>
					
						<circle clip-path="url(#XMLID_13_)" fill="#041944" stroke="#898989" stroke-linecap="round" stroke-linejoin="round" stroke-miterlimit="10" cx="390.2" cy="86.1" r="2.3"/>
					
						<circle clip-path="url(#XMLID_13_)" fill="#041944" stroke="#898989" stroke-linecap="round" stroke-linejoin="round" stroke-miterlimit="10" cx="386.7" cy="50.7" r="2.3"/>
					
						<circle clip-path="url(#XMLID_13_)" fill="#041944" stroke="#898989" stroke-linecap="round" stroke-linejoin="round" stroke-miterlimit="10" cx="487" cy="50.6" r="2.3"/>
					
						<circle clip-path="url(#XMLID_13_)" fill="#041944" stroke="#898989" stroke-linecap="round" stroke-linejoin="round" stroke-miterlimit="10" cx="466" cy="86.2" r="2.3"/>
					
						<circle clip-path="url(#XMLID_13_)" fill="#041944" stroke="#898989" stroke-linecap="round" stroke-linejoin="round" stroke-miterlimit="10" cx="349.7" cy="43.2" r="2.3"/>
					
						<circle clip-path="url(#XMLID_13_)" fill="#041944" stroke="#898989" stroke-linecap="round" stroke-linejoin="round" stroke-miterlimit="10" cx="195.7" cy="98.1" r="2.3"/>
					
						<circle clip-path="url(#XMLID_13_)" fill="#FFFFFF" stroke="#898989" stroke-linecap="round" stroke-linejoin="round" stroke-miterlimit="10" cx="335.5" cy="89.7" r="2.3"/>
					
						<circle clip-path="url(#XMLID_13_)" fill="#041944" stroke="#898989" stroke-linecap="round" stroke-linejoin="round" stroke-miterlimit="10" cx="350.5" cy="63.2" r="2.3"/>
					
						<circle clip-path="url(#XMLID_13_)" fill="#041944" stroke="#898989" stroke-linecap="round" stroke-linejoin="round" stroke-miterlimit="10" cx="358.5" cy="119.7" r="2.3"/>
					
						<circle clip-path="url(#XMLID_13_)" fill="#041944" stroke="#898989" stroke-linecap="round" stroke-linejoin="round" stroke-miterlimit="10" cx="299.7" cy="51.7" r="2.3"/>
					
						<circle clip-path="url(#XMLID_13_)" fill="#FFFFFF" stroke="#898989" stroke-linecap="round" stroke-linejoin="round" stroke-miterlimit="10" cx="279.3" cy="80.7" r="2.3"/>
					
						<circle clip-path="url(#XMLID_13_)" fill="#041944" stroke="#898989" stroke-linecap="round" stroke-linejoin="round" stroke-miterlimit="10" cx="196" cy="119.4" r="2.3"/>
					
						<circle clip-path="url(#XMLID_13_)" fill="#041944" stroke="#898989" stroke-linecap="round" stroke-linejoin="round" stroke-miterlimit="10" cx="402.3" cy="95.4" r="2.3"/>
					
						<circle clip-path="url(#XMLID_13_)" fill="#041944" stroke="#898989" stroke-linecap="round" stroke-linejoin="round" stroke-miterlimit="10" cx="427.3" cy="86.4" r="2.3"/>
					
						<circle clip-path="url(#XMLID_13_)" fill="#041944" stroke="#898989" stroke-linecap="round" stroke-linejoin="round" stroke-miterlimit="10" cx="327.4" cy="134.9" r="2.3"/>
					
						<circle clip-path="url(#XMLID_13_)" fill="#041944" stroke="#898989" stroke-linecap="round" stroke-linejoin="round" stroke-miterlimit="10" cx="313.3" cy="171.1" r="2.3"/>
					
						<circle clip-path="url(#XMLID_13_)" fill="#041944" stroke="#898989" stroke-linecap="round" stroke-linejoin="round" stroke-miterlimit="10" cx="297.7" cy="153.4" r="2.3"/>
					
						<circle clip-path="url(#XMLID_13_)" fill="#FFFFFF" stroke="#898989" stroke-linecap="round" stroke-linejoin="round" stroke-miterlimit="10" cx="294.8" cy="134.6" r="2.3"/>
					
						<circle clip-path="url(#XMLID_13_)" fill="#FFFFFF" stroke="#898989" stroke-linecap="round" stroke-linejoin="round" stroke-miterlimit="10" cx="242.2" cy="119.7" r="2.3"/>
					
						<circle clip-path="url(#XMLID_13_)" fill="#FFFFFF" stroke="#898989" stroke-linecap="round" stroke-linejoin="round" stroke-miterlimit="10" cx="253.5" cy="134.9" r="2.3"/>
					
						<circle clip-path="url(#XMLID_13_)" fill="#041944" stroke="#898989" stroke-linecap="round" stroke-linejoin="round" stroke-miterlimit="10" cx="242.2" cy="142.9" r="2.3"/>
					
						<circle clip-path="url(#XMLID_13_)" fill="#041944" stroke="#898989" stroke-linecap="round" stroke-linejoin="round" stroke-miterlimit="10" cx="195.3" cy="134.9" r="2.3"/>
					
						<circle clip-path="url(#XMLID_13_)" fill="#FFFFFF" stroke="#898989" stroke-linecap="round" stroke-linejoin="round" stroke-miterlimit="10" cx="311.4" cy="80.9" r="2.3"/>
					
						<circle clip-path="url(#XMLID_13_)" fill="#041944" stroke="#898989" stroke-linecap="round" stroke-linejoin="round" stroke-miterlimit="10" cx="230" cy="86.4" r="2.3"/>
					
						<circle clip-path="url(#XMLID_13_)" fill="#041944" stroke="#898989" stroke-linecap="round" stroke-linejoin="round" stroke-miterlimit="10" cx="434.7" cy="120.4" r="2.3"/>
					
						<path clip-path="url(#XMLID_13_)" fill="#FFFFFF" stroke="#898989" stroke-linecap="round" stroke-linejoin="round" stroke-miterlimit="10" d="
						M142.7,53.2C98.1,53.2,62,89.3,62,133.9c0,44.6,36.1,80.7,80.7,80.7s80.7-36.1,80.7-80.7C223.3,89.3,187.2,53.2,142.7,53.2z
						 M142.5,204.1c-38.9,0-70.5-31.6-70.5-70.5c0-38.9,31.6-70.5,70.5-70.5c38.9,0,70.5,31.6,70.5,70.5
						C213,172.5,181.4,204.1,142.5,204.1z"/>
					
						<use xlink:href="#XMLID_226_"  overflow="visible" fill="none" stroke="#898989" stroke-linecap="round" stroke-linejoin="round" stroke-miterlimit="10"/>
				</g>
				<path fill="#FFFFFF" stroke="#898989" stroke-linecap="round" stroke-linejoin="round" stroke-miterlimit="10" d="M224.4,203.3
					c0,0-3.4-1.5-3.3-2.2c0.1-0.8,1.2-1.1,1.2-1.9c-0.1-0.9-2.4-0.9-2.4-1.7s1.2-1.9,1.2-1.9s-1.6-1.9-3.6-2.1c0,0,0-0.1,0-0.3
					c-0.1,0-0.1,0-0.2,0c0,0.2-0.1,0.3-0.1,0.3c-2,0.2-3.6,1.1-3.6,1.1l-1.9,0.2l1,1.7c0,0-0.4,1.9-0.4,2.8c-0.1,1,1.2,1.7,2.7,2.6
					c1.5,0.9,6.1,3.5,6.1,3.5s1.3,0.1,1.3,0.8c0,0.7,1.7,0.3,1.9,0C224.6,205.8,224.4,203.3,224.4,203.3z"/>
				<path fill="#FFFFFF" stroke="#898989" stroke-linecap="round" stroke-linejoin="round" stroke-miterlimit="10" d="M150.5,134.1
					c-0.8-2.8-2.2-4.2-5-5c-1.2,4.2,0.4,5.6,4.8,5.2"/>
			</g>
		</g>
		
			<line fill="none" stroke="#898989" stroke-linecap="round" stroke-linejoin="round" stroke-miterlimit="10" stroke-dasharray="4" x1="48.3" y1="201.4" x2="164" y2="201.4"/>
		
			<line fill="none" stroke="#898989" stroke-linecap="round" stroke-linejoin="round" stroke-miterlimit="10" x1="171.3" y1="201.4" x2="213" y2="201.4"/>
	</g>
	<g>
		<g>
			<defs>
				<polygon id="XMLID_225_" points="242.4,99.7 251.6,111.9 338.2,111.9 338.2,7.1 323.2,6.9 327.7,0.5 				"/>
			</defs>
			<use xlink:href="#XMLID_225_"  overflow="visible" fill="#041944"/>
			<clipPath id="XMLID_14_">
				<use xlink:href="#XMLID_225_"  overflow="visible"/>
			</clipPath>
			
				<line clip-path="url(#XMLID_14_)" fill="#041944" stroke="#898989" stroke-linejoin="round" stroke-miterlimit="10" x1="260" y1="105.7" x2="317.8" y2="105.7"/>
			<polygon clip-path="url(#XMLID_14_)" fill="#FFFFFF" stroke="#898989" stroke-linejoin="round" stroke-miterlimit="10" points="
				335.3,108.7 253.2,108.7 245.3,98 253.2,11.6 323.8,3.2 335.3,16.6 			"/>
			
				<line clip-path="url(#XMLID_14_)" fill="none" stroke="#898989" stroke-linejoin="round" stroke-miterlimit="10" x1="250.5" y1="105" x2="332.2" y2="105"/>
			
				<line clip-path="url(#XMLID_14_)" fill="none" stroke="#898989" stroke-linejoin="round" stroke-miterlimit="10" x1="335" y1="108.2" x2="320.2" y2="91.4"/>
			
				<line clip-path="url(#XMLID_14_)" fill="none" stroke="#898989" stroke-linejoin="round" stroke-miterlimit="10" x1="248" y1="102.9" x2="329.8" y2="102.9"/>
			
				<line clip-path="url(#XMLID_14_)" fill="none" stroke="#898989" stroke-linejoin="round" stroke-miterlimit="10" x1="289.7" y1="106.7" x2="334" y2="106.7"/>
			
				<line clip-path="url(#XMLID_14_)" fill="none" stroke="#898989" stroke-linejoin="round" stroke-miterlimit="10" x1="329.7" y1="10.1" x2="329.7" y2="73.4"/>
			
				<use xlink:href="#XMLID_225_"  overflow="visible" fill="none" stroke="#898989" stroke-linejoin="round" stroke-miterlimit="10"/>
		</g>
		<g>
			<g>
				<defs>
					<rect id="XMLID_221_" x="242.4" y="0.5" width="85.3" height="99.2"/>
				</defs>
				<use xlink:href="#XMLID_221_"  overflow="visible" fill="#041944"/>
				<clipPath id="XMLID_15_">
					<use xlink:href="#XMLID_221_"  overflow="visible"/>
				</clipPath>
				<g clip-path="url(#XMLID_15_)">
					<defs>
						<polygon id="XMLID_222_" points="251.1,10.4 319.1,10.4 319.1,90.7 250.8,90.7 						"/>
					</defs>
					<use xlink:href="#XMLID_222_"  overflow="visible" fill="#FFFFFF"/>
					<clipPath id="XMLID_16_">
						<use xlink:href="#XMLID_222_"  overflow="visible"/>
					</clipPath>
					<g clip-path="url(#XMLID_16_)">
						<defs>
							<path id="XMLID_223_" d="M226.8,31.8l29,0.5c7,0.1,13.4,4.2,16.4,10.6l4.8,10.2c3.1,6.5,9.6,10.6,16.7,10.6h0
								c5.2,0,10.1,2.2,13.6,6l38.8,42.3V-12.5l-121.3-3.9L226.8,31.8z"/>
						</defs>
						<use xlink:href="#XMLID_223_"  overflow="visible" fill="#041944"/>
						<clipPath id="XMLID_17_">
							<use xlink:href="#XMLID_223_"  overflow="visible"/>
						</clipPath>
						<g clip-path="url(#XMLID_17_)">
							<defs>
								<rect id="XMLID_224_" x="253.8" y="13" width="68.5" height="72.3"/>
							</defs>
							<use xlink:href="#XMLID_224_"  overflow="visible" fill="#041944"/>
							<clipPath id="XMLID_18_">
								<use xlink:href="#XMLID_224_"  overflow="visible"/>
							</clipPath>
							
								<line clip-path="url(#XMLID_18_)" fill="none" stroke="#898989" stroke-linejoin="round" stroke-miterlimit="10" x1="264.7" y1="6" x2="264.7" y2="42.2"/>
							
								<line clip-path="url(#XMLID_18_)" fill="none" stroke="#898989" stroke-linejoin="round" stroke-miterlimit="10" x1="290.2" y1="71" x2="290.2" y2="32.2"/>
							
								<line clip-path="url(#XMLID_18_)" fill="none" stroke="#898989" stroke-linejoin="round" stroke-miterlimit="10" x1="297.3" y1="69" x2="297.3" y2="-4"/>
							
								<line clip-path="url(#XMLID_18_)" fill="none" stroke="#898989" stroke-linejoin="round" stroke-miterlimit="10" x1="302.1" y1="5.7" x2="302.1" y2="79.5"/>
							
								<line clip-path="url(#XMLID_18_)" fill="none" stroke="#898989" stroke-linejoin="round" stroke-miterlimit="10" x1="308.9" y1="6" x2="308.9" y2="78.9"/>
							
								<circle clip-path="url(#XMLID_18_)" fill="#041944" stroke="#898989" stroke-linejoin="round" stroke-miterlimit="10" cx="290.3" cy="31.7" r="2.3"/>
							
								<circle clip-path="url(#XMLID_18_)" fill="#041944" stroke="#898989" stroke-linejoin="round" stroke-miterlimit="10" cx="290.2" cy="48.6" r="2.3"/>
							
								<circle clip-path="url(#XMLID_18_)" fill="#041944" stroke="#898989" stroke-linejoin="round" stroke-miterlimit="10" cx="264.8" cy="23.5" r="2.3"/>
							
								<circle clip-path="url(#XMLID_18_)" fill="#041944" stroke="#898989" stroke-linejoin="round" stroke-miterlimit="10" cx="308.8" cy="20.7" r="2.3"/>
							
								<circle clip-path="url(#XMLID_18_)" fill="#041944" stroke="#898989" stroke-linejoin="round" stroke-miterlimit="10" cx="308.8" cy="48.7" r="2.3"/>
							
								<use xlink:href="#XMLID_224_"  overflow="visible" fill="none" stroke="#898989" stroke-linejoin="round" stroke-miterlimit="10"/>
						</g>
						
							<use xlink:href="#XMLID_223_"  overflow="visible" fill="none" stroke="#898989" stroke-linejoin="round" stroke-miterlimit="10"/>
					</g>
					
						<line clip-path="url(#XMLID_16_)" fill="none" stroke="#898989" stroke-linejoin="round" stroke-miterlimit="10" x1="308.7" y1="93.2" x2="308.7" y2="79.2"/>
					
						<line clip-path="url(#XMLID_16_)" fill="none" stroke="#898989" stroke-linejoin="round" stroke-miterlimit="10" x1="302.1" y1="95.9" x2="302.1" y2="73.7"/>
					
						<circle clip-path="url(#XMLID_16_)" fill="#FFFFFF" stroke="#898989" stroke-linejoin="round" stroke-miterlimit="10" cx="302.2" cy="74.4" r="2.4"/>
					
						<use xlink:href="#XMLID_222_"  overflow="visible" fill="none" stroke="#898989" stroke-linejoin="round" stroke-miterlimit="10"/>
				</g>
				
					<use xlink:href="#XMLID_221_"  overflow="visible" fill="none" stroke="#898989" stroke-linejoin="round" stroke-miterlimit="10"/>
			</g>
		</g>
		<polygon fill="#041944" stroke="#898989" stroke-linejoin="round" stroke-miterlimit="10" points="273.6,105.2 273.6,129.9 
			281.3,121.9 289.7,129.9 289.7,105.2 		"/>
	</g>
</g>
</svg>
