<?xml version="1.0" encoding="utf-8"?>
<!-- Generator: Adobe Illustrator 18.1.1, SVG Export Plug-In . SVG Version: 6.00 Build 0)  -->
<!DOCTYPE svg PUBLIC "-//W3C//DTD SVG 1.1//EN" "http://www.w3.org/Graphics/SVG/1.1/DTD/svg11.dtd" [
	<!ENTITY ns_extend "http://ns.adobe.com/Extensibility/1.0/">
	<!ENTITY ns_ai "http://ns.adobe.com/AdobeIllustrator/10.0/">
	<!ENTITY ns_graphs "http://ns.adobe.com/Graphs/1.0/">
	<!ENTITY ns_vars "http://ns.adobe.com/Variables/1.0/">
	<!ENTITY ns_imrep "http://ns.adobe.com/ImageReplacement/1.0/">
	<!ENTITY ns_sfw "http://ns.adobe.com/SaveForWeb/1.0/">
	<!ENTITY ns_custom "http://ns.adobe.com/GenericCustomNamespace/1.0/">
	<!ENTITY ns_adobe_xpath "http://ns.adobe.com/XPath/1.0/">
]>
<svg version="1.1" id="Layer_1" xmlns:x="&ns_extend;" xmlns:i="&ns_ai;" xmlns:graph="&ns_graphs;"
	 xmlns="http://www.w3.org/2000/svg" xmlns:xlink="http://www.w3.org/1999/xlink" x="0px" y="0px" viewBox="0 0 67.5 66.5"
	 enable-background="new 0 0 67.5 66.5" xml:space="preserve">
<metadata>
	<sfw  xmlns="&ns_sfw;">
		<slices></slices>
		<sliceSourceBounds  width="67.5" height="66.5" x="641.1" y="-408.5" bottomLeftOrigin="true"></sliceSourceBounds>
	</sfw>
</metadata>
<g>
	<g>
		<g>
			<defs>
				<rect id="XMLID_216_" x="9.7" y="8" width="54.1" height="24.8"/>
			</defs>
			<use xlink:href="#XMLID_216_"  overflow="visible" fill="#041944"/>
			<clipPath id="XMLID_2_">
				<use xlink:href="#XMLID_216_"  overflow="visible"/>
			</clipPath>
			
				<line clip-path="url(#XMLID_2_)" fill="#041944" stroke="#B5935B" stroke-linecap="round" stroke-linejoin="round" stroke-miterlimit="10" x1="39" y1="15.4" x2="49.6" y2="15.4"/>
			
				<line clip-path="url(#XMLID_2_)" fill="#041944" stroke="#B5935B" stroke-linecap="round" stroke-linejoin="round" stroke-miterlimit="10" x1="39" y1="18.2" x2="49.6" y2="18.2"/>
			
				<rect x="39" y="21.5" clip-path="url(#XMLID_2_)" fill="#041944" stroke="#B5935B" stroke-linecap="round" stroke-linejoin="round" stroke-miterlimit="10" width="10.8" height="4.9"/>
			
				<use xlink:href="#XMLID_216_"  overflow="visible" fill="none" stroke="#B5935B" stroke-linecap="round" stroke-linejoin="round" stroke-miterlimit="10"/>
		</g>
		<g>
			<path fill="#041944" stroke="#B5935B" stroke-linecap="round" stroke-linejoin="round" stroke-miterlimit="10" d="M5.6,37.3
				L5.6,37.3c-1.1,0-2.1-0.9-2.1-2.1v-1.9c0-1.1,0.9-2.1,2.1-2.1h0c1.1,0,2.1,0.9,2.1,2.1v1.9C7.7,36.3,6.7,37.3,5.6,37.3z"/>
			<path fill="#041944" stroke="#B5935B" stroke-linecap="round" stroke-linejoin="round" stroke-miterlimit="10" d="M0.5,5.7v27.5
				c0,0.8,2.3,1.5,5.1,1.5c2.8,0,5.1-0.7,5.1-1.5V5.7H0.5z"/>
			
				<ellipse fill="#041944" stroke="#B5935B" stroke-linecap="round" stroke-linejoin="round" stroke-miterlimit="10" cx="5.6" cy="5.9" rx="5.1" ry="1.5"/>
			<path fill="#041944" stroke="#B5935B" stroke-linecap="round" stroke-linejoin="round" stroke-miterlimit="10" d="M7.7,4.9
				L7.7,4.9c-1.3,0.6-2.8,0.6-4.1,0l-0.1,0V1.4c0-0.5,0.5-0.9,1.1-0.9l2,0c0.6,0,1.1,0.4,1.1,0.9L7.7,4.9z"/>
		</g>
		<g>
			<path fill="#041944" stroke="#B5935B" stroke-linecap="round" stroke-linejoin="round" stroke-miterlimit="10" d="M61.9,37.7
				L61.9,37.7c-1.1,0-2.1-0.9-2.1-2.1v-1.9c0-1.1,0.9-2.1,2.1-2.1h0c1.1,0,2.1,0.9,2.1,2.1v1.9C64,36.8,63.1,37.7,61.9,37.7z"/>
			<path fill="#041944" stroke="#B5935B" stroke-linecap="round" stroke-linejoin="round" stroke-miterlimit="10" d="M56.8,6.2v27.5
				c0,0.8,2.3,1.5,5.1,1.5c2.8,0,5.1-0.7,5.1-1.5V6.2H56.8z"/>
			
				<ellipse fill="#041944" stroke="#B5935B" stroke-linecap="round" stroke-linejoin="round" stroke-miterlimit="10" cx="61.9" cy="6.3" rx="5.1" ry="1.5"/>
			<path fill="#041944" stroke="#B5935B" stroke-linecap="round" stroke-linejoin="round" stroke-miterlimit="10" d="M64,5.3L64,5.3
				c-1.3,0.6-2.8,0.6-4.1,0l-0.1,0V1.9c0-0.5,0.5-0.9,1.1-0.9l2,0C63.5,1,64,1.4,64,1.9V5.3z"/>
		</g>
	</g>
	<g>
		<defs>
			<rect id="XMLID_215_" x="19.2" y="20.7" width="15.3" height="30.3"/>
		</defs>
		<use xlink:href="#XMLID_215_"  overflow="visible" fill="#041944"/>
		<clipPath id="XMLID_3_">
			<use xlink:href="#XMLID_215_"  overflow="visible"/>
		</clipPath>
		
			<line clip-path="url(#XMLID_3_)" fill="none" stroke="#B5935B" stroke-linecap="round" stroke-linejoin="round" stroke-miterlimit="10" x1="23.4" y1="25" x2="30.8" y2="25"/>
		
			<line clip-path="url(#XMLID_3_)" fill="none" stroke="#B5935B" stroke-linecap="round" stroke-linejoin="round" stroke-miterlimit="10" x1="23.4" y1="29.4" x2="30.8" y2="29.4"/>
		
			<line clip-path="url(#XMLID_3_)" fill="none" stroke="#B5935B" stroke-linecap="round" stroke-linejoin="round" stroke-miterlimit="10" x1="23.4" y1="33.7" x2="30.8" y2="33.7"/>
		
			<line clip-path="url(#XMLID_3_)" fill="none" stroke="#B5935B" stroke-linecap="round" stroke-linejoin="round" stroke-miterlimit="10" x1="23.4" y1="38.1" x2="30.8" y2="38.1"/>
		
			<line clip-path="url(#XMLID_3_)" fill="none" stroke="#B5935B" stroke-linecap="round" stroke-linejoin="round" stroke-miterlimit="10" x1="23.4" y1="42.5" x2="30.8" y2="42.5"/>
		
			<use xlink:href="#XMLID_215_"  overflow="visible" fill="none" stroke="#B5935B" stroke-linecap="round" stroke-linejoin="round" stroke-miterlimit="10"/>
	</g>
	<g>
		<defs>
			<rect id="XMLID_214_" x="16.4" y="17" width="15.3" height="31.3"/>
		</defs>
		<use xlink:href="#XMLID_214_"  overflow="visible" fill="#041944"/>
		<clipPath id="XMLID_4_">
			<use xlink:href="#XMLID_214_"  overflow="visible"/>
		</clipPath>
		
			<line clip-path="url(#XMLID_4_)" fill="none" stroke="#B5935B" stroke-linecap="round" stroke-linejoin="round" stroke-miterlimit="10" x1="20.6" y1="21.3" x2="27.9" y2="21.3"/>
		
			<line clip-path="url(#XMLID_4_)" fill="none" stroke="#B5935B" stroke-linecap="round" stroke-linejoin="round" stroke-miterlimit="10" x1="20.6" y1="25.7" x2="27.9" y2="25.7"/>
		
			<line clip-path="url(#XMLID_4_)" fill="none" stroke="#B5935B" stroke-linecap="round" stroke-linejoin="round" stroke-miterlimit="10" x1="20.6" y1="30.1" x2="27.9" y2="30.1"/>
		
			<line clip-path="url(#XMLID_4_)" fill="none" stroke="#B5935B" stroke-linecap="round" stroke-linejoin="round" stroke-miterlimit="10" x1="20.6" y1="34.4" x2="27.9" y2="34.4"/>
		
			<line clip-path="url(#XMLID_4_)" fill="none" stroke="#B5935B" stroke-linecap="round" stroke-linejoin="round" stroke-miterlimit="10" x1="20.6" y1="38.8" x2="27.9" y2="38.8"/>
		
			<use xlink:href="#XMLID_214_"  overflow="visible" fill="none" stroke="#B5935B" stroke-linecap="round" stroke-linejoin="round" stroke-miterlimit="10"/>
	</g>
	
		<line fill="none" stroke="#B5935B" stroke-linecap="round" stroke-linejoin="round" stroke-miterlimit="10" x1="42.5" y1="26.4" x2="42.5" y2="66"/>
	
		<line fill="none" stroke="#B5935B" stroke-linecap="round" stroke-linejoin="round" stroke-miterlimit="10" x1="45.3" y1="7.8" x2="45.3" y2="2.5"/>
	
		<circle fill="#041944" stroke="#B5935B" stroke-linecap="round" stroke-linejoin="round" stroke-miterlimit="10" cx="42.4" cy="39.1" r="1.7"/>
	
		<circle fill="#041944" stroke="#B5935B" stroke-linecap="round" stroke-linejoin="round" stroke-miterlimit="10" cx="45.2" cy="2.8" r="1.7"/>
	
		<circle fill="#041944" stroke="#B5935B" stroke-linecap="round" stroke-linejoin="round" stroke-miterlimit="10" cx="42.5" cy="52.6" r="1.7"/>
</g>
</svg>
