<?xml version="1.0" encoding="UTF-8" standalone="no"?>
<svg width="24px" height="24px" viewBox="0 0 24 24" version="1.1" xmlns="http://www.w3.org/2000/svg" xmlns:xlink="http://www.w3.org/1999/xlink">
    <!-- Generator: Sketch 3.6.1 (26313) - http://www.bohemiancoding.com/sketch -->
    <title>Page 1</title>
    <desc>Created with Sketch.</desc>
    <defs></defs>
    <g id="Page-1" stroke="none" stroke-width="1" fill="none" fill-rule="evenodd">
        <g id="Информационный-ресурс-Copy" transform="translate(-1250.000000, -255.000000)" fill="#FFFFFF">
            <path d="M1264.9832,272.2312 L1271.752,279 L1274,276.7504 L1267.2328,269.9824 L1264.9832,272.2312 Z M1258.8,255 C1253.94,255 1250,258.94 1250,263.8 C1250,268.66 1253.94,272.6 1258.8,272.6 C1263.66,272.6 1267.6,268.66 1267.6,263.8 C1267.6,258.94 1263.66,255 1258.8,255 L1258.8,255 Z M1258.8,256.6 C1262.7704,256.6 1266,259.8296 1266,263.8 C1266,267.7704 1262.7704,271 1258.8,271 C1254.8296,271 1251.6,267.7704 1251.6,263.8 C1251.6,259.8296 1254.8296,256.6 1258.8,256.6 L1258.8,256.6 Z" id="Page-1"></path>
        </g>
    </g>
</svg>