<?xml version="1.0" encoding="utf-8"?>
<!-- Generator: Adobe Illustrator 18.1.1, SVG Export Plug-In . SVG Version: 6.00 Build 0)  -->
<!DOCTYPE svg PUBLIC "-//W3C//DTD SVG 1.1//EN" "http://www.w3.org/Graphics/SVG/1.1/DTD/svg11.dtd" [
	<!ENTITY ns_extend "http://ns.adobe.com/Extensibility/1.0/">
	<!ENTITY ns_ai "http://ns.adobe.com/AdobeIllustrator/10.0/">
	<!ENTITY ns_graphs "http://ns.adobe.com/Graphs/1.0/">
	<!ENTITY ns_vars "http://ns.adobe.com/Variables/1.0/">
	<!ENTITY ns_imrep "http://ns.adobe.com/ImageReplacement/1.0/">
	<!ENTITY ns_sfw "http://ns.adobe.com/SaveForWeb/1.0/">
	<!ENTITY ns_custom "http://ns.adobe.com/GenericCustomNamespace/1.0/">
	<!ENTITY ns_adobe_xpath "http://ns.adobe.com/XPath/1.0/">
]>
<svg version="1.1" id="Layer_1" xmlns:x="&ns_extend;" xmlns:i="&ns_ai;" xmlns:graph="&ns_graphs;"
	 xmlns="http://www.w3.org/2000/svg" xmlns:xlink="http://www.w3.org/1999/xlink" x="0px" y="0px" viewBox="0 0 64 136.9"
	 enable-background="new 0 0 64 136.9" xml:space="preserve">
<metadata>
	<sfw  xmlns="&ns_sfw;">
		<slices></slices>
		<sliceSourceBounds  width="79.8" height="136.9" y="-444.9" x="636" bottomLeftOrigin="true"></sliceSourceBounds>
	</sfw>
</metadata>
<g>
	
		<line fill="none" stroke="#B5935B" stroke-linecap="round" stroke-linejoin="round" stroke-miterlimit="10" x1="32" y1="0.9" x2="32" y2="136.4"/>
	
		<circle fill="#FFFFFF" stroke="#B5935B" stroke-linecap="round" stroke-linejoin="round" stroke-miterlimit="10" cx="32" cy="87.1" r="3.7"/>
	<path fill="#FFFFFF" stroke="#B5935B" stroke-linejoin="round" stroke-miterlimit="10" d="M2,22.6C7.2,6,24.9-3.2,41.5,1.9
		S67.3,24.8,62,41.4S39.1,67.3,22.5,62.1S-3.3,39.2,2,22.6z"/>
	<g>
		<defs>
			<path id="XMLID_1532_" d="M6.2,23.9C10.7,9.8,25.8,1.9,40.1,6.3s22.2,19.6,17.7,33.7S38.2,62.1,23.9,57.7S1.8,38.1,6.2,23.9z"/>
		</defs>
		<use xlink:href="#XMLID_1532_"  overflow="visible" fill="#FFFFFF"/>
		<clipPath id="XMLID_2_">
			<use xlink:href="#XMLID_1532_"  overflow="visible"/>
		</clipPath>
		
			<polygon clip-path="url(#XMLID_2_)" fill="none" stroke="#B5935B" stroke-width="2" stroke-linejoin="round" stroke-miterlimit="10" points="
			-7.5,33.7 70.2,33.7 70.2,68.6 0.8,68.6 		"/>
		
			<use xlink:href="#XMLID_1532_"  overflow="visible" fill="none" stroke="#B5935B" stroke-width="2" stroke-linejoin="round" stroke-miterlimit="10"/>
	</g>
	<g>
		<g>
			<defs>
				<polygon id="XMLID_1521_" points="22.3,46.2 15.5,41.5 15.5,20.3 24.5,16.6 41.2,16.7 49,20.5 48.9,41.6 41.1,46.3 				"/>
			</defs>
			<use xlink:href="#XMLID_1521_"  overflow="visible" fill="#FFFFFF"/>
			<clipPath id="XMLID_3_">
				<use xlink:href="#XMLID_1521_"  overflow="visible"/>
			</clipPath>
			
				<polygon clip-path="url(#XMLID_3_)" fill="#FFFFFF" stroke="#B5935B" stroke-linecap="round" stroke-linejoin="round" stroke-miterlimit="10" points="
				22.3,46.8 13.9,46.8 13.9,16.8 22.3,17.9 			"/>
			
				<rect x="41.1" y="14.3" clip-path="url(#XMLID_3_)" fill="#FFFFFF" stroke="#B5935B" stroke-linecap="round" stroke-linejoin="round" stroke-miterlimit="10" width="9.1" height="37.2"/>
			<g clip-path="url(#XMLID_3_)">
				
					<polyline opacity="0" fill="#FFFFFF" stroke="#B5935B" stroke-linecap="round" stroke-linejoin="round" stroke-miterlimit="10" points="
					23.7,45.1 25.8,44.1 29.6,41.3 39.6,41.3 39.6,25.8 24.1,25.8 				"/>
			</g>
			
				<rect x="25.3" y="27.8" clip-path="url(#XMLID_3_)" fill="#FFFFFF" stroke="#B5935B" stroke-linecap="round" stroke-linejoin="round" stroke-miterlimit="10" width="13.3" height="15.5"/>
			
				<use xlink:href="#XMLID_1521_"  overflow="visible" fill="none" stroke="#B5935B" stroke-linecap="round" stroke-linejoin="round" stroke-miterlimit="10"/>
		</g>
		<polygon fill="#FFFFFF" stroke="#B5935B" stroke-linecap="round" stroke-linejoin="round" stroke-miterlimit="10" points="
			22.3,24.9 15.5,20.1 24.5,16.4 41.2,16.6 48.9,20.4 40.8,25 		"/>
	</g>
</g>
</svg>
