<?xml version="1.0" encoding="utf-8"?>
<!-- Generator: Adobe Illustrator 18.1.1, SVG Export Plug-In . SVG Version: 6.00 Build 0)  -->
<!DOCTYPE svg PUBLIC "-//W3C//DTD SVG 1.1//EN" "http://www.w3.org/Graphics/SVG/1.1/DTD/svg11.dtd" [
	<!ENTITY ns_extend "http://ns.adobe.com/Extensibility/1.0/">
	<!ENTITY ns_ai "http://ns.adobe.com/AdobeIllustrator/10.0/">
	<!ENTITY ns_graphs "http://ns.adobe.com/Graphs/1.0/">
	<!ENTITY ns_vars "http://ns.adobe.com/Variables/1.0/">
	<!ENTITY ns_imrep "http://ns.adobe.com/ImageReplacement/1.0/">
	<!ENTITY ns_sfw "http://ns.adobe.com/SaveForWeb/1.0/">
	<!ENTITY ns_custom "http://ns.adobe.com/GenericCustomNamespace/1.0/">
	<!ENTITY ns_adobe_xpath "http://ns.adobe.com/XPath/1.0/">
]>
<svg version="1.1" id="Layer_1" xmlns:x="&ns_extend;" xmlns:i="&ns_ai;" xmlns:graph="&ns_graphs;"
	 xmlns="http://www.w3.org/2000/svg" xmlns:xlink="http://www.w3.org/1999/xlink" x="0px" y="0px" viewBox="0 0 41.8 53.3"
	 enable-background="new 0 0 41.8 53.3" xml:space="preserve">
<metadata>
	<sfw  xmlns="&ns_sfw;">
		<slices></slices>
		<sliceSourceBounds  width="47.9" height="53.3" y="-401.8" x="651" bottomLeftOrigin="true"></sliceSourceBounds>
	</sfw>
</metadata>
<g>
	<g>
		
			<ellipse fill="#041944" stroke="#B5935B" stroke-linecap="round" stroke-linejoin="round" stroke-miterlimit="10" cx="15.2" cy="44.8" rx="14.7" ry="8"/>
		<g>
			<defs>
				<ellipse id="XMLID_513_" cx="15.2" cy="44.9" rx="11.8" ry="5.7"/>
			</defs>
			<use xlink:href="#XMLID_513_"  overflow="visible" fill="#041944"/>
			<clipPath id="XMLID_2_">
				<use xlink:href="#XMLID_513_"  overflow="visible"/>
			</clipPath>
			
				<use xlink:href="#XMLID_513_"  overflow="visible" fill="none" stroke="#B5935B" stroke-linecap="round" stroke-linejoin="round" stroke-miterlimit="10"/>
		</g>
	</g>
	<g>
		<path fill="#041944" stroke="#B5935B" stroke-linecap="round" stroke-linejoin="round" stroke-miterlimit="10" d="M31.3,6.5
			c0-3.7-3.4-6.7-7.3-5.9c-2.3,0.5-4.2,2.4-4.6,4.8c-0.3,1.5,0,3,0.7,4.2c1.8,3,2.5,6.6,2.5,10.2v10.8h5.3V19c0-3.2,0.7-6.5,2.4-9.2
			C30.9,8.8,31.3,7.7,31.3,6.5z"/>
		
			<rect x="12.2" y="32.4" fill="#B5935B" stroke="#B5935B" stroke-linecap="round" stroke-linejoin="round" stroke-miterlimit="10" width="26.2" height="11.6"/>
		<path fill="#041944" stroke="#B5935B" stroke-linecap="round" stroke-linejoin="round" stroke-miterlimit="10" d="M29.1,30.3h-7.7
			c-1.5,0-2.7-1.2-2.7-2.7v-3c0-1.5,1.2-2.7,2.7-2.7h7.7c1.5,0,2.7,1.2,2.7,2.7v3C31.8,29.1,30.6,30.3,29.1,30.3z"/>
		<g>
			<defs>
				<path id="XMLID_512_" d="M41.3,38h-32v-7.3c0-2.6,2.1-4.6,4.6-4.6h22.7c2.6,0,4.6,2.1,4.6,4.6V38z"/>
			</defs>
			<use xlink:href="#XMLID_512_"  overflow="visible" fill="#041944"/>
			<clipPath id="XMLID_3_">
				<use xlink:href="#XMLID_512_"  overflow="visible"/>
			</clipPath>
			
				<line clip-path="url(#XMLID_3_)" fill="none" stroke="#B5935B" stroke-linecap="round" stroke-linejoin="round" stroke-miterlimit="10" x1="7.2" y1="34.5" x2="28.9" y2="34.5"/>
			
				<line clip-path="url(#XMLID_3_)" fill="none" stroke="#B5935B" stroke-linecap="round" stroke-linejoin="round" stroke-miterlimit="10" x1="33" y1="34.5" x2="47.4" y2="34.5"/>
			
				<use xlink:href="#XMLID_512_"  overflow="visible" fill="none" stroke="#B5935B" stroke-linecap="round" stroke-linejoin="round" stroke-miterlimit="10"/>
		</g>
	</g>
</g>
</svg>
