<?xml version="1.0" encoding="utf-8"?>
<!-- Generator: Adobe Illustrator 18.1.1, SVG Export Plug-In . SVG Version: 6.00 Build 0)  -->
<!DOCTYPE svg PUBLIC "-//W3C//DTD SVG 1.1//EN" "http://www.w3.org/Graphics/SVG/1.1/DTD/svg11.dtd" [
	<!ENTITY ns_extend "http://ns.adobe.com/Extensibility/1.0/">
	<!ENTITY ns_ai "http://ns.adobe.com/AdobeIllustrator/10.0/">
	<!ENTITY ns_graphs "http://ns.adobe.com/Graphs/1.0/">
	<!ENTITY ns_vars "http://ns.adobe.com/Variables/1.0/">
	<!ENTITY ns_imrep "http://ns.adobe.com/ImageReplacement/1.0/">
	<!ENTITY ns_sfw "http://ns.adobe.com/SaveForWeb/1.0/">
	<!ENTITY ns_custom "http://ns.adobe.com/GenericCustomNamespace/1.0/">
	<!ENTITY ns_adobe_xpath "http://ns.adobe.com/XPath/1.0/">
]>
<svg version="1.1" id="Layer_1" xmlns:x="&ns_extend;" xmlns:i="&ns_ai;" xmlns:graph="&ns_graphs;"
	 xmlns="http://www.w3.org/2000/svg" xmlns:xlink="http://www.w3.org/1999/xlink" x="0px" y="0px" viewBox="0 0 190 127"
	 enable-background="new 0 0 190 127" xml:space="preserve">
<metadata>
	<sfw  xmlns="&ns_sfw;">
		<slices></slices>
		<sliceSourceBounds  width="190" height="127" y="-439.2" x="580" bottomLeftOrigin="true"></sliceSourceBounds>
	</sfw>
</metadata>
<rect x="0.5" y="0.5" fill="none" stroke="#AAAAAA" stroke-miterlimit="10" width="189" height="126"/>
<g>
	<path fill="#2D3C5A" d="M110.4,19.2C89.5,16,25.9,82.7,25.9,82.7s35.5-31.1,49.2-25c10.6,4.7-1.5,29-1.5,29
		C85.4,73.9,131.3,22.5,110.4,19.2"/>
	<path fill="#B5935B" d="M79.6,107.8c20.9,3.2,84.6-63.4,84.6-63.4s-35.5,31.1-49.2,25c-10.6-4.7,1.5-29,1.5-29
		C104.6,53.1,58.7,104.5,79.6,107.8"/>
	<polyline fill="none" points="92.5,38.4 92.5,38.4 92.5,38.4 92.5,38.4 	"/>
	<path fill="#2D3C5A" d="M81.4,60.6c1.6-7.5,9-12.3,16.5-10.8c7.5,1.6,12.3,9,10.8,16.5c-1.6,7.5-9,12.3-16.5,10.8
		C84.6,75.5,79.8,68.2,81.4,60.6"/>
	<path fill="#B5935B" d="M97.9,49.9c-7.5-1.6-14.9,3.2-16.5,10.8c-1.2,5.8,1.4,11.5,6.1,14.5l15.1-23.4
		C101.2,50.9,99.6,50.2,97.9,49.9"/>
	<g>
		<path fill="#FFFFFF" d="M87.4,57.1c0.1-0.1,0.2-0.1,0.3-0.1c0.1,0,0.2-0.1,0.2-0.2s-0.2,0-0.3-0.1c0-0.1,0.1-0.2-0.1-0.2
			c-0.1,0-0.1,0.2-0.3,0.2c-0.1,0-0.3,0-0.3,0c0,0.1,0.1,0.2,0.1,0.3C87.2,57.1,87.3,57.2,87.4,57.1z"/>
		<path fill="#FFFFFF" d="M87.1,58.1c0.2-0.1,0.3-0.1,0.5-0.3c0.2-0.2,0.4-0.6,0.6-0.6c0.2,0,0.3-0.2,0.4-0.2
			c0.1-0.1,0.2-0.3-0.1-0.2c-0.3,0-0.5,0.2-0.6,0.2c-0.1,0,0,0.2-0.2,0.3c-0.2,0.1-0.3-0.1-0.5,0c-0.2,0.1-0.4,0.2-0.4,0.2
			C86.9,57.7,86.9,58.2,87.1,58.1z"/>
		<path fill="#FFFFFF" d="M106.3,64.1c0-0.4-0.1-0.7-0.3-0.8c-0.2-0.1-0.2-0.3-0.1-0.4c0.2-0.1,0.1-0.2,0.1-0.5
			c0-0.2-0.1-0.2-0.2-0.1c-0.2,0.1-0.4,0-0.3,0.1c0.1,0.1,0.1,0.3,0.1,0.5c0,0.2,0.2,0.3,0.2,0.4c0,0.1,0.1,0.4,0.2,0.7
			c0,0.3-0.2,0.6-0.2,0.8c-0.1,0.2-0.4,0.5-0.5,0.7c-0.1,0.2-0.1,0.3-0.2,0.4c0,0,0.1,0.2,0.2,0.4c0.1,0.1,0.2-0.3,0.2-0.5
			c0-0.2,0.3-0.4,0.5-0.7C106.2,64.7,106.3,64.4,106.3,64.1z"/>
		<path fill="#FFFFFF" d="M104.9,63.7c0.1-0.2,0.1-0.8,0.1-1.2c0-0.4-0.3-0.8-0.4-1c-0.1-0.2-0.1-0.5-0.3-0.5
			c-0.3,0-0.2,0.3-0.3,0.3c-0.1,0-0.4,0.1-0.3-0.1c0-0.2,0-0.9-0.1-1c0-0.2,0-0.3,0.1-0.5c0.2-0.2,0-0.3,0.2-0.4
			c0.1-0.1,0.4-0.1,0.3-0.3c-0.1-0.2-0.3-0.3-0.3-0.5c0-0.2-0.1-0.4,0-0.3c0.1,0.1,0.2-0.1,0.1-0.2c-0.1-0.1-0.3-0.6,0.1-0.1
			c0.4,0.5,0.2,0.4,0.4,0.8c0.2,0.3,0.1,0.7,0.6,1c0.5,0.3,0.6,0.4,0.3-0.3c-0.3-0.7-0.6-0.7-0.7-0.9c-0.1-0.1-0.4-0.4-0.4-0.6
			c0-0.2,0.1-0.4-0.1-0.6c-0.2-0.2-0.4-0.8-0.4-0.8c0-0.1-0.4-0.1-0.4,0c0,0.1-0.1,0-0.2-0.2c-0.1-0.2-0.4-0.2-0.1-0.4
			c0.2-0.2,0.1-0.2-0.1-0.3c-0.1-0.1-0.3-0.2-0.3,0c0,0.3-0.3,0.2-0.4,0.5c-0.1,0.3-0.3,0.5,0,0.5c0.2,0,0.1,0.5,0,0.6
			c-0.2,0.1-0.4,0-0.5,0.3c-0.1,0.3-0.2,0.1-0.5,0.2c-0.3,0.2-0.3,0.3-0.2,0.4c0.1,0.1,0,0.2-0.1,0.3c-0.2,0.1,0,0.3-0.3,0.2
			c-0.3-0.2-0.3-0.3-0.5-0.3c-0.3,0.1,0,0.2-0.2,0.3c-0.2,0-0.4-0.1-0.6,0.1c-0.2,0.1-0.6,0.5-0.4,0c0.2-0.5,0.1-0.6-0.1-0.5
			c-0.2,0-0.3,0.1-0.4,0c-0.1-0.1-0.2-0.1-0.2,0.1c0,0.2-0.2,0.2-0.5,0.3c-0.3,0.1-0.4,0.2-0.4,0.3c0.1,0.1,0.1,0.2-0.1,0.2
			c-0.2,0-0.3,0.1-0.2,0.3c0.1,0.2-0.2-0.2-0.4-0.1c-0.2,0.1-0.3-0.3-0.5-0.2c-0.1,0.1-0.5,0.4-0.4,0.7c0.1,0.3-0.1,0.2-0.3,0
			c-0.2-0.3-0.2,0.1-0.5,0c-0.3,0-0.3-0.3-0.7-0.2c-0.4,0.1-0.6,0-1,0.1c-0.4,0.1-0.9,0.2-1,0.1c-0.1-0.2,0.1-0.5,0.2-0.8
			c0-0.3,0.1,0.5,0.4,0.5c0.2,0,0.4,0,0.4-0.3c0-0.3-0.4-0.6-0.3-0.7c0.1-0.1,0.4-0.2,0.1-0.4c-0.3-0.2-0.9-0.4-1.5-0.3
			c-0.6,0.1-1.1,0.2-1.3,0.1c-0.2-0.1-0.4-0.3-0.6-0.1c-0.3,0.1-0.8,0.3-0.7,0.5c0.1,0.2,0.4,0.2,0.4,0.2c0.1,0-0.1,0.1-0.2,0.2
			c-0.1,0.1-0.2,0.4-0.3,0.4c-0.1,0-0.5-0.1-0.3-0.1c0.1-0.1,0.5-0.2,0.5-0.2c0-0.1-0.1-0.1-0.3-0.1c-0.2,0-0.4,0.1-0.6,0.3
			c-0.1,0.2-0.4,0-0.4-0.1c0-0.1-0.1-0.2-0.3-0.2c-0.2,0-0.4,0-0.5-0.1c-0.1-0.1-0.3,0.1-0.4-0.1c-0.1-0.2,0-0.2-0.2-0.3
			c-0.1-0.1-0.1-0.3-0.2-0.2c-0.1,0.1-0.1,0.3-0.3,0.5c-0.2,0.2-0.6,0.5-0.7,0.4c-0.1,0-0.1-0.4-0.1-0.6c0-0.2,0-0.4-0.1-0.4
			c-0.1,0-0.4,0.3-0.6,0.3c-0.2,0.1-0.3,0.1-0.4,0.2c-0.1,0.1-0.2,0.2-0.2,0.3c0,0.1-0.2,0.5-0.2,0.5c0.1,0,0.2,0.2,0.3,0.3
			c0,0.1,0.4,0.2,0.4,0.2c0.1,0,0.2-0.2,0.4-0.2c0.1,0,0.4,0.2,0.5,0.2c0.1-0.1,0.2-0.2,0.3-0.1c0.1,0.1,0,0.4,0.1,0.4
			c0.1,0,0.4,0,0.4,0.2c0,0.1,0.1,0.2,0,0.3c-0.1,0.1-0.2,0.2-0.2,0.4s-0.1,0.4-0.1,0.6c0,0.2,0,0.4-0.1,0.5
			c-0.1,0.1-0.3,0.1-0.3,0.1c0.1,0.1,0.3,0.1,0.4,0c0.1,0,0.2-0.3,0.3-0.2c0,0.1-0.1,0.2,0,0.2c0.1,0,0.1-0.2,0.1-0.4
			c0-0.2-0.1-0.5,0-0.7c0.1-0.2,0.1-0.4,0.2-0.4c0.1-0.1,0.3-0.2,0.3-0.1c0.1,0.1-0.1,0.2-0.2,0.4c0,0.2-0.1,0.6-0.1,0.7
			c0,0.2,0,0.3-0.2,0.4C86,61.9,86,62.2,86,62.3c0,0.1-0.2,0.1-0.2,0.3c0,0.2-0.1,0.4,0,0.4c0.1,0,0.2-0.3,0.3-0.2
			c0.1,0.1,0.3,0,0.3-0.1c0-0.2,0.1-0.5,0.1-0.4c0.1,0.1,0.3,0.2,0.4,0.3c0.1,0.1,0.5-0.1,0.5-0.1c0.2,0,0.5-0.2,0.5-0.2
			c0.1,0,0.2-0.2,0.5-0.1c0.2,0,0.3,0.3,0.3,0.4c0,0.1-0.3-0.1-0.3,0.1c0,0.1-0.2,0.2-0.1,0.3C88.5,62.9,89,63,89,63
			c0-0.1-0.1-0.3,0-0.3c0.1,0,0.8,0.1,0.7,0.2c-0.1,0.1-0.6,0.2-0.6,0.3c0,0.1,0.2,0.6,0.2,0.8c0,0.2-0.1,0.3-0.3,0.2
			c-0.2-0.1-0.7-0.2-0.6-0.4c0.1-0.2-0.1-0.3-0.3-0.5c-0.2-0.1-0.5-0.1-0.6-0.2c-0.1-0.1-0.2-0.2-0.2-0.2c0-0.1-0.1-0.2-0.1-0.2
			c-0.1,0-0.2,0.1-0.2,0.1c-0.1,0-0.6,0.3-0.5,0.6c0.1,0.3,0.2,0.6,0.3,0.6c0.1-0.1,0.2-0.1,0.3,0.1c0.1,0.2,0.3,0.3,0.4,0.3
			c0.2,0,0.2,0.2,0.1,0.2c-0.1,0.1,0,0.3-0.2,0.3c-0.2,0.1-0.5,0.4-0.7,0.4c-0.1,0-0.4-0.2-0.4-0.2c-0.1,0-0.2,0.4-0.1,0.6
			c0,0.2,0,0.3,0.2,0.2c0.2-0.1,0.1,0,0.1,0.2c0,0.2,0,1.2,0,1.4c-0.1,0.2,0,0.4,0,0.8c0,0.3,0.2,0.5,0.1,0.7
			c-0.1,0.2-0.3,0.6-0.1,0.7c0.2,0.1,1.1,0.4,1.2,0.3c0.1,0,0.7,0.1,0.8,0.1c0.1,0,0.1-0.1,0.5-0.1c0.4,0,1,0,1.1-0.1
			c0.1-0.1,0.6-0.4,0.7-0.5c0-0.1-0.1-0.3-0.3-0.4c-0.2-0.1-0.4-0.3-0.3-0.4c0.1-0.2,0-0.2-0.2-0.1c-0.2,0.1-0.3,0.1-0.5,0.1
			c-0.2-0.1-0.4-0.1-0.3-0.3c0-0.2,0-0.3-0.1-0.5c-0.1-0.2-0.2-0.7-0.1-0.8c0.1-0.1,0.4,0,0.5,0.1c0.1,0.1,0,0.4,0.2,0.6
			c0.1,0.2,0.2,0.4,0.4,0.5c0.2,0,0.5-0.1,0.5,0.1c0,0.1-0.2,0.3,0.5,0.6c0.7,0.3,1.4,0.3,1.4,0.4c0,0.1,0,0.3,0.2,0.4
			c0.2,0.1,0.1,0.2,0.3,0.3c0.2,0-0.1,0,0,0.1c0.1,0.1,0.1,0.3,0.3,0.3c0.2,0,0.4-0.3,0.5-0.2c0.1,0.1-0.1,0.3-0.1,0.6
			c0,0.3-0.1,0.5,0,0.7c0.1,0.2,0.1,0.6,0.2,0.7c0.1,0.1,0.1,0.3,0.2,0.4c0.1,0.1,0.2,0.2,0.2,0.2c0.1,0,0.2-0.1,0.3-0.1
			c0,0,0.2-0.1,0.3-0.1c0.1-0.1,0.2-0.1,0.2-0.1c0-0.1,0-0.2,0.1-0.3c0.1-0.1,0.1-0.1,0.1-0.3c0-0.2,0.1-0.3,0.2-0.3
			c0.1,0,0.1-0.1,0.2,0c0.1,0,0.2,0,0.3-0.1c0.1-0.1,0.1-0.1,0.2-0.1c0.1-0.1,0.5-0.3,0.6-0.3c0.1,0,0.4-0.2,0.5-0.2
			c0-0.1-0.1-0.2,0.3-0.2c0.4,0,0.8-0.3,0.9-0.2c0.1,0.1,0,0.3,0.2,0.4c0.1,0.1,0.4,0.3,0.3,0.5c0,0.2-0.2,0.3-0.1,0.3
			c0.1,0,0.4-0.1,0.5-0.2c0.1-0.1,0.2-0.2,0.2-0.1c0,0.2,0.1,0.7,0.1,0.8c0,0.1,0,0.2,0.1,0.2c0.1-0.1,0.2-0.5,0.4-0.5
			c0.2,0,0.3,0.1,0.5,0.2c0.2,0.1,0.3,0.1,0.4,0.2c0,0.1,0.1,0.1,0.3-0.1c0.2-0.2,0.7-0.3,0.7-0.6c0-0.3,0-0.6-0.3-0.7
			c-0.3-0.1-0.4-0.3-0.4-0.5c0.1-0.2,0.3-0.5,0.6-0.5c0.3-0.1,0.4,0,0.8-0.2c0.4-0.3,1-0.7,1.1-0.9c0.1-0.2,0.5-1,0.5-1.3
			c0.1-0.3-0.2-0.2-0.1-0.3c0.1-0.1,0.1-0.3-0.1-0.4c-0.2-0.1-0.3-0.1-0.4-0.2s0-0.4,0.2-0.5c0.2-0.1,0.3-0.3,0.1-0.2
			c-0.2,0.1-0.2,0.4-0.4,0.3c-0.1-0.1-0.5-0.2-0.3-0.3c0.1-0.1,0.3-0.3,0.3-0.5c0.1-0.2,0.2-0.3,0.2-0.2c0,0.2,0,0.4,0.2,0.1
			c0.3-0.3,0.4-0.2,0.4,0c0,0.1,0,0.2,0.2,0.1c0.1-0.1,0,0.2,0.1,0.3c0.1,0.1,0,0.4,0.1,0.3c0.1-0.1,0.4-0.4,0.3-0.6
			c-0.1-0.2-0.3-0.4-0.5-0.5c-0.1-0.1,0.1-0.3,0.1-0.5c0.1-0.2-0.1-0.2,0-0.5C104.7,63.7,104.8,63.9,104.9,63.7z"/>
		<path fill="#FFFFFF" d="M91.2,64.2c-0.1,0-0.1,0.1-0.2,0.1c-0.1,0-0.1,0-0.1,0.2c0,0.2,0.2,0.1,0.1,0.3c-0.1,0.2-0.2,0.2-0.1,0.3
			c0,0.1,0.2-0.2,0.3-0.1c0.1,0.1,0,0.2,0,0.3c0,0.1-0.3-0.2-0.3-0.1c0,0.1,0,0.1,0,0.3c0,0.2-0.1,0.5-0.2,0.6
			c-0.1,0.1-0.3,0-0.5-0.1c-0.2-0.1-0.3-0.5-0.3-0.5c0.1-0.2,0.3-0.5,0.5-0.4c0.1,0-0.2-0.4-0.2-0.6c0.1-0.2,0.2-0.3,0.2-0.5
			c0-0.2,0-0.2,0.5-0.3c0.5,0,0.8,0,0.8,0.2C91.6,64.2,91.4,64.3,91.2,64.2z"/>
		<path fill="#FFFFFF" d="M91.7,58.6c-0.1,0.1-0.6,0-0.8,0c-0.2,0.1-0.4,0.2-0.5,0.4c-0.1,0.2,0.1,0.3,0.3,0.3
			c0.2,0.1,0.3,0.2,0.2,0.3c0,0-0.1,0.1-0.2,0c-0.1-0.1-0.2-0.2-0.4-0.2c-0.2,0-0.1,0.1-0.2,0.2c-0.1,0.1-0.1,0.1-0.2,0.1
			c-0.1-0.1,0-0.2-0.2-0.2c-0.2,0-0.3,0.2-0.4,0.3c-0.2,0.1-0.3,0-0.3-0.1c0-0.1,0-0.2-0.2-0.3c-0.2,0-0.2-0.1-0.2-0.3
			c0-0.1-0.2-0.2-0.2-0.3c0-0.1,0.2-0.1,0.2,0s0.2,0.1,0.3,0.1s0.1,0.1,0.2,0c0.1-0.1,0.1,0.1,0.2,0.1c0.1,0,0.4-0.2,0.5-0.2
			c0.1-0.1,0.3,0,0.5,0c0.2,0,0.1-0.2,0.1-0.3c0-0.1,0.3-0.2,0.3-0.2c0.1-0.1,0.4,0,0.5,0c0.2,0,0.3,0,0.4-0.1
			c0.1-0.1,0.2,0,0.3,0.1C91.9,58.5,91.8,58.5,91.7,58.6z"/>
	</g>
</g>
</svg>
