<?xml version="1.0" encoding="utf-8"?>
<!-- Generator: Adobe Illustrator 18.1.1, SVG Export Plug-In . SVG Version: 6.00 Build 0)  -->
<!DOCTYPE svg PUBLIC "-//W3C//DTD SVG 1.1//EN" "http://www.w3.org/Graphics/SVG/1.1/DTD/svg11.dtd" [
	<!ENTITY ns_extend "http://ns.adobe.com/Extensibility/1.0/">
	<!ENTITY ns_ai "http://ns.adobe.com/AdobeIllustrator/10.0/">
	<!ENTITY ns_graphs "http://ns.adobe.com/Graphs/1.0/">
	<!ENTITY ns_vars "http://ns.adobe.com/Variables/1.0/">
	<!ENTITY ns_imrep "http://ns.adobe.com/ImageReplacement/1.0/">
	<!ENTITY ns_sfw "http://ns.adobe.com/SaveForWeb/1.0/">
	<!ENTITY ns_custom "http://ns.adobe.com/GenericCustomNamespace/1.0/">
	<!ENTITY ns_adobe_xpath "http://ns.adobe.com/XPath/1.0/">
]>
<svg version="1.1" id="Layer_1" xmlns:x="&ns_extend;" xmlns:i="&ns_ai;" xmlns:graph="&ns_graphs;"
	 xmlns="http://www.w3.org/2000/svg" xmlns:xlink="http://www.w3.org/1999/xlink" x="0px" y="0px" viewBox="0 0 363 238.4"
	 enable-background="new 0 0 363 238.4" xml:space="preserve">
<metadata>
	<sfw  xmlns="&ns_sfw;">
		<slices></slices>
		<sliceSourceBounds  width="363" height="245.4" y="-482.5" x="480.9" bottomLeftOrigin="true"></sliceSourceBounds>
	</sfw>
</metadata>
<g>
	<path fill="none" stroke="#B5935B" stroke-linejoin="round" stroke-miterlimit="10" d="M314.2,179.8h15c18.4,0,33.2,14.9,33.2,33.2
		v0h-22.8"/>
	<g>
		<defs>
			<path id="XMLID_2399_" d="M127.9,116.9c19-39,59-65.8,105.2-65.8c64.6,0,117,52.4,117,117c0,4.1-0.2,8.1-0.6,12.1"/>
		</defs>
		<clipPath id="XMLID_2_">
			<use xlink:href="#XMLID_2399_"  overflow="visible"/>
		</clipPath>
		
			<line clip-path="url(#XMLID_2_)" fill="none" stroke="#B5935B" stroke-linejoin="round" stroke-miterlimit="10" x1="240" y1="51" x2="240" y2="80.5"/>
		<path clip-path="url(#XMLID_2_)" fill="none" stroke="#B5935B" stroke-linejoin="round" stroke-miterlimit="10" d="M307.2,79.7
			v17.6c0,3.9-1.6,7.7-4.5,10.4l-5.3,4.5"/>
		<path clip-path="url(#XMLID_2_)" fill="none" stroke="#B5935B" stroke-linejoin="round" stroke-miterlimit="10" d="M331.5,107.5
			v6.2c0,8.3-5.2,15.6-13,18.4l-7.7,2.7"/>
		
			<use xlink:href="#XMLID_2399_"  overflow="visible" fill="none" stroke="#B5935B" stroke-linejoin="round" stroke-miterlimit="10"/>
	</g>
	<g>
		<g>
			<path fill="none" stroke="#B5935B" stroke-linejoin="round" d="M51.2,71.6c-0.5-0.5-0.9-0.9-1.4-1.4"/>
			<path fill="none" stroke="#B5935B" stroke-linejoin="round" stroke-dasharray="3.7425,3.7425" d="M46.6,68.2
				c-2.4-1.2-5-1.9-7.8-1.9h-35"/>
			<line fill="none" stroke="#B5935B" stroke-linejoin="round" x1="2" y1="66.3" x2="0" y2="66.3"/>
		</g>
	</g>
	<path fill="none" stroke="#B5935B" stroke-linejoin="round" stroke-miterlimit="10" d="M68.7,84.2c-6.3,0-12-3.5-14.9-9l0,0
		c-0.1-0.2-0.2-0.3-0.3-0.5"/>
	<path fill="none" stroke="#B5935B" stroke-linejoin="round" stroke-miterlimit="10" d="M168.7,111.6L168.7,111.6
		c-4.6,0-8.7-2.9-10.1-7.3l-4.4-12.9c-1.5-4.3-5.6-7.3-10.1-7.3H72.8"/>
	<path fill="none" stroke="#B5935B" stroke-linejoin="round" stroke-miterlimit="10" d="M154.2,188.8c-2.5-7.9-3.9-16.3-3.9-25
		c0-45.6,37-82.6,82.6-82.6s82.6,37,82.6,82.6c0,5.5-0.5,10.9-1.6,16.1"/>
	<g>
		<defs>
			<path id="XMLID_505_" d="M160.1,186c-2.3-7.3-3.6-15-3.6-23.1c0-42,34-76,76-76s76,34,76,76c0,17.9-6.2,34.4-16.6,47.4"/>
		</defs>
		<clipPath id="XMLID_3_">
			<use xlink:href="#XMLID_505_"  overflow="visible"/>
		</clipPath>
		
			<line clip-path="url(#XMLID_3_)" fill="none" stroke="#B5935B" stroke-linejoin="round" stroke-miterlimit="10" x1="202.1" y1="112.2" x2="202.1" y2="77.4"/>
		<path clip-path="url(#XMLID_3_)" fill="none" stroke="#B5935B" stroke-linejoin="round" stroke-miterlimit="10" d="M171.4,111.6
			h47.2c7.2,0,14.1,2.9,19.2,7.9l1.7,1.7c6.2,6.2,14.6,9.7,23.3,9.7h13.1"/>
		
			<use xlink:href="#XMLID_505_"  overflow="visible" fill="none" stroke="#B5935B" stroke-linejoin="round" stroke-miterlimit="10"/>
	</g>
	<g>
		<path fill="#041944" stroke="#B5935B" stroke-linejoin="round" stroke-miterlimit="10" d="M211.7,133.1c-17.3-2.7-70,52.5-70,52.5
			s29.4-25.7,40.7-20.7c8.8,3.9-1.2,24-1.2,24C191,178.3,229,135.8,211.7,133.1"/>
		<path fill="#041944" stroke="#B5935B" stroke-linejoin="round" stroke-miterlimit="10" d="M186.2,206.3c17.3,2.7,70-52.5,70-52.5
			s-29.4,25.7-40.7,20.7c-8.8-3.9,1.2-24,1.2-24C206.9,161.1,168.9,203.6,186.2,206.3"/>
		<polyline fill="#041944" stroke="#B5935B" stroke-linejoin="round" stroke-miterlimit="10" points="196.9,148.9 196.9,148.9 
			196.9,148.9 196.9,148.9 		"/>
		<path fill="#041944" stroke="#B5935B" stroke-linejoin="round" stroke-miterlimit="10" d="M187.7,167.3c1.3-6.2,7.4-10.2,13.6-8.9
			c6.2,1.3,10.2,7.4,8.9,13.6c-1.3,6.2-7.4,10.2-13.6,8.9C190.3,179.7,186.4,173.6,187.7,167.3"/>
		<path fill="#041944" stroke="#B5935B" stroke-linejoin="round" stroke-miterlimit="10" d="M201.3,158.4
			c-6.2-1.3-12.3,2.7-13.6,8.9c-1,4.8,1.1,9.5,5,12l12.5-19.3C204,159.3,202.7,158.7,201.3,158.4"/>
		<g>
			<path fill="#041944" stroke="#B5935B" stroke-linejoin="round" stroke-miterlimit="10" d="M192.6,164.4c0.1,0,0.2-0.1,0.3-0.1
				c0.1,0,0.2-0.1,0.2-0.2c0-0.1-0.2,0-0.2-0.1c0-0.1,0.1-0.2,0-0.1c-0.1,0-0.1,0.1-0.2,0.1c-0.1,0-0.3,0-0.3,0
				c0,0.1,0.1,0.2,0.1,0.2C192.5,164.4,192.5,164.5,192.6,164.4z"/>
			<path fill="#041944" stroke="#B5935B" stroke-linejoin="round" stroke-miterlimit="10" d="M192.4,165.3c0.2,0,0.2-0.1,0.4-0.2
				c0.2-0.2,0.3-0.5,0.5-0.5c0.2,0,0.3-0.1,0.4-0.2c0.1-0.1,0.2-0.2-0.1-0.2c-0.2,0-0.4,0.2-0.5,0.2c-0.1,0,0,0.2-0.2,0.2
				c-0.2,0.1-0.3-0.1-0.4,0c-0.1,0.1-0.4,0.1-0.4,0.1C192.2,164.9,192.3,165.3,192.4,165.3z"/>
			<path fill="#041944" stroke="#B5935B" stroke-linejoin="round" stroke-miterlimit="10" d="M208.3,170.2c0-0.3-0.1-0.6-0.2-0.7
				c-0.1-0.1-0.2-0.2-0.1-0.3c0.1-0.1,0.1-0.2,0.1-0.4c0-0.2-0.1-0.1-0.2,0c-0.1,0.1-0.3,0-0.2,0.1c0.1,0.1,0.1,0.3,0.1,0.4
				c0,0.1,0.1,0.2,0.2,0.4c0,0.1,0.1,0.3,0.1,0.6c0,0.2-0.1,0.5-0.2,0.6c-0.1,0.2-0.3,0.4-0.4,0.5c-0.1,0.1-0.1,0.2-0.1,0.4
				c0,0,0.1,0.2,0.2,0.3c0.1,0.1,0.1-0.2,0.2-0.4c0-0.2,0.2-0.3,0.4-0.6C208.2,170.7,208.3,170.5,208.3,170.2z"/>
			<path fill="#041944" stroke="#B5935B" stroke-linejoin="round" stroke-miterlimit="10" d="M207.1,169.8c0.1-0.2,0.1-0.6,0.1-1
				c0-0.3-0.2-0.6-0.3-0.8c-0.1-0.2-0.1-0.4-0.3-0.4c-0.2,0-0.2,0.2-0.3,0.2c-0.1,0-0.3,0.1-0.3-0.1c0-0.2,0-0.7,0-0.8
				c0-0.1,0-0.3,0.1-0.4c0.1-0.1,0-0.3,0.1-0.3c0.1,0,0.3-0.1,0.2-0.2c0-0.1-0.2-0.2-0.3-0.4c0-0.2,0-0.3,0-0.3
				c0.1,0,0.2-0.1,0.1-0.2c-0.1-0.1-0.3-0.5,0.1-0.1c0.3,0.4,0.2,0.4,0.3,0.6c0.2,0.3,0.1,0.6,0.5,0.8c0.4,0.3,0.5,0.3,0.2-0.3
				c-0.3-0.6-0.5-0.6-0.6-0.7c-0.1-0.1-0.3-0.3-0.4-0.5c0-0.1,0.1-0.3-0.1-0.5c-0.2-0.2-0.4-0.6-0.3-0.7c0-0.1-0.3-0.1-0.3,0
				c0,0.1-0.1,0-0.1-0.2c-0.1-0.2-0.3-0.1-0.1-0.3c0.2-0.1,0.1-0.2-0.1-0.3c-0.1-0.1-0.3-0.2-0.3,0c0,0.2-0.2,0.2-0.3,0.4
				c-0.1,0.2-0.2,0.4,0,0.4c0.2,0,0.1,0.4,0,0.5c-0.1,0.1-0.4,0-0.4,0.2c-0.1,0.3-0.2,0-0.4,0.2c-0.2,0.2-0.2,0.3-0.1,0.4
				c0.1,0.1,0,0.2-0.1,0.2c-0.1,0,0,0.3-0.2,0.2c-0.2-0.1-0.2-0.3-0.4-0.2c-0.2,0,0,0.2-0.1,0.2c-0.1,0-0.3-0.1-0.5,0.1
				c-0.2,0.1-0.5,0.4-0.3,0c0.2-0.4,0.1-0.5-0.1-0.5c-0.1,0-0.2,0.1-0.3,0c-0.1-0.1-0.1-0.1-0.2,0.1c0,0.2-0.2,0.2-0.4,0.3
				c-0.2,0.1-0.4,0.1-0.3,0.2c0.1,0.1,0.1,0.2-0.1,0.2c-0.2,0-0.3,0.1-0.2,0.3c0.1,0.2-0.2-0.2-0.3-0.1c-0.2,0.1-0.3-0.3-0.4-0.2
				c-0.1,0.1-0.4,0.3-0.4,0.6c0.1,0.2-0.1,0.2-0.3,0c-0.2-0.2-0.2,0.1-0.4,0c-0.2,0-0.3-0.3-0.5-0.2c-0.3,0.1-0.5,0-0.8,0.1
				c-0.3,0.1-0.8,0.2-0.9,0.1c-0.1-0.1,0.1-0.4,0.1-0.6c0-0.2,0.1,0.5,0.3,0.4c0.2,0,0.4,0,0.4-0.3c0-0.3-0.3-0.5-0.3-0.6
				c0.1-0.1,0.3-0.1,0.1-0.3c-0.2-0.2-0.7-0.3-1.2-0.3c-0.5,0.1-0.9,0.1-1.1,0.1c-0.2-0.1-0.3-0.2-0.5-0.1c-0.2,0.1-0.7,0.3-0.6,0.4
				c0.1,0.1,0.3,0.2,0.4,0.2c0.1,0,0,0.1-0.2,0.2c-0.1,0.1-0.1,0.3-0.3,0.3c-0.1,0-0.4,0-0.3-0.1c0.1-0.1,0.4-0.2,0.4-0.2
				c0-0.1-0.1-0.1-0.2-0.1c-0.1,0-0.4,0.1-0.5,0.2c-0.1,0.1-0.3,0-0.3-0.1c0-0.1-0.1-0.2-0.2-0.2c-0.2,0-0.3,0-0.4-0.1
				c-0.1-0.1-0.3,0.1-0.3-0.1c-0.1-0.1,0-0.1-0.2-0.2c-0.1-0.1-0.1-0.2-0.2-0.2c-0.1,0.1-0.1,0.3-0.2,0.4c-0.1,0.2-0.5,0.4-0.6,0.4
				c-0.1,0-0.1-0.3-0.1-0.5c0-0.2,0-0.3-0.1-0.3c-0.1,0-0.3,0.2-0.5,0.3c-0.2,0-0.2,0.1-0.3,0.2c-0.1,0.1-0.2,0.1-0.2,0.2
				c0,0.1-0.2,0.4-0.2,0.4c0,0,0.2,0.1,0.2,0.2c0,0.1,0.3,0.1,0.4,0.1c0,0,0.2-0.1,0.3-0.1c0.1,0,0.3,0.2,0.4,0.2
				c0.1,0,0.1-0.2,0.3-0.1c0.1,0.1,0,0.3,0.1,0.3c0.1,0,0.3,0,0.4,0.1c0,0.1,0.1,0.2,0,0.3c-0.1,0.1-0.2,0.2-0.2,0.3s-0.1,0.3,0,0.5
				c0,0.2,0,0.4-0.1,0.4c-0.1,0-0.3,0.1-0.2,0.1c0,0.1,0.2,0,0.3,0c0.1,0,0.2-0.3,0.2-0.2c0,0.1,0,0.2,0,0.2c0.1,0,0.1-0.1,0.1-0.3
				c0-0.2-0.1-0.4,0-0.6c0.1-0.1,0.1-0.3,0.2-0.4c0.1,0,0.2-0.1,0.3,0c0.1,0.1-0.1,0.2-0.1,0.4c0,0.2-0.1,0.5,0,0.6
				c0,0.1,0,0.2-0.2,0.3c-0.1,0.1-0.2,0.3-0.2,0.4c0,0.1-0.2,0.1-0.2,0.3c0,0.2,0,0.3,0,0.3c0.1,0,0.2-0.3,0.3-0.2
				c0.1,0.1,0.2,0,0.2-0.1c0-0.1,0.1-0.4,0.1-0.3c0,0.1,0.3,0.1,0.4,0.2c0.1,0.1,0.4,0,0.4,0c0.2,0,0.4-0.2,0.5-0.2
				c0.1,0,0.2-0.1,0.4-0.1c0.2,0,0.3,0.3,0.3,0.3c0,0.1-0.2-0.1-0.2,0.1c0,0.1-0.2,0.2-0.1,0.2c0.1,0,0.5,0.1,0.4,0.1
				c0-0.1-0.1-0.3,0-0.3c0.1,0,0.6,0.1,0.6,0.2c-0.1,0.1-0.5,0.2-0.5,0.3c0,0.1,0.2,0.5,0.2,0.7c0,0.1-0.1,0.3-0.3,0.2
				c-0.2-0.1-0.6-0.2-0.5-0.3c0-0.1-0.1-0.3-0.2-0.4c-0.1-0.1-0.4-0.1-0.5-0.2c-0.1,0-0.1-0.2-0.1-0.2c0-0.1,0-0.2-0.1-0.2
				c-0.1,0-0.1,0.1-0.2,0.1c-0.1,0-0.5,0.3-0.4,0.5c0,0.2,0.1,0.5,0.2,0.5c0.1,0,0.2-0.1,0.2,0.1c0.1,0.2,0.2,0.2,0.4,0.3
				c0.1,0,0.2,0.1,0.1,0.2c-0.1,0,0,0.2-0.2,0.3c-0.2,0.1-0.4,0.3-0.5,0.3c-0.1,0-0.3-0.2-0.4-0.2c-0.1,0-0.1,0.4-0.1,0.5
				c0,0.2,0,0.2,0.2,0.1c0.1-0.1,0.1,0,0.1,0.2c0,0.2,0,1,0,1.2c-0.1,0.2,0,0.4,0,0.6c0,0.3,0.1,0.4,0.1,0.6
				c-0.1,0.2-0.2,0.5-0.1,0.6c0.2,0.1,0.9,0.3,1,0.3c0.1,0,0.6,0.1,0.6,0.1c0,0,0.1-0.1,0.4-0.1c0.3,0,0.8,0,0.9-0.1
				c0.1-0.1,0.5-0.3,0.5-0.4c0-0.1-0.1-0.2-0.2-0.3c-0.1-0.1-0.3-0.2-0.2-0.4c0.1-0.1,0-0.1-0.2-0.1c-0.2,0.1-0.3,0.1-0.4,0
				c-0.2-0.1-0.3-0.1-0.3-0.2c0-0.2,0-0.3,0-0.4c-0.1-0.2-0.2-0.6-0.1-0.6c0.1,0,0.3,0,0.4,0.1c0.1,0.1,0,0.4,0.1,0.5
				c0.1,0.1,0.2,0.4,0.3,0.4c0.2,0,0.4-0.1,0.4,0c0,0.1-0.1,0.2,0.4,0.5c0.6,0.2,1.2,0.2,1.2,0.3c0,0.1,0,0.3,0.2,0.3
				c0.1,0.1,0.1,0.2,0.2,0.2c0.2,0-0.1,0,0,0.1c0.1,0.1,0.1,0.2,0.2,0.3c0.1,0,0.3-0.2,0.4-0.2c0,0.1-0.1,0.3-0.1,0.5
				c0,0.3-0.1,0.4,0,0.6c0.1,0.2,0.1,0.5,0.2,0.6c0.1,0.1,0.1,0.2,0.1,0.3c0,0.1,0.1,0.2,0.1,0.2c0.1,0,0.2-0.1,0.2-0.1
				c0,0,0.2,0,0.2-0.1c0,0,0.1-0.1,0.2-0.1c0,0,0-0.2,0.1-0.3c0.1-0.1,0.1-0.1,0.1-0.3c0-0.2,0.1-0.3,0.2-0.3c0.1,0,0.1,0,0.2,0
				c0.1,0,0.2,0,0.2-0.1c0.1,0,0.1-0.1,0.2-0.1c0.1,0,0.4-0.2,0.5-0.3c0.1,0,0.4-0.1,0.4-0.2c0-0.1-0.1-0.2,0.2-0.2
				c0.3,0,0.7-0.3,0.7-0.2c0,0.1,0,0.3,0.1,0.4c0.1,0.1,0.3,0.3,0.3,0.4c0,0.1-0.1,0.3-0.1,0.3c0.1,0,0.3-0.1,0.4-0.1
				c0.1-0.1,0.2-0.2,0.2,0c0,0.2,0.1,0.5,0.1,0.6c0,0.1,0,0.2,0.1,0.1c0.1-0.1,0.1-0.4,0.3-0.4c0.2,0,0.3,0.1,0.4,0.2
				c0.1,0.1,0.3,0.1,0.3,0.1c0,0.1,0.1,0.1,0.3-0.1c0.2-0.1,0.6-0.2,0.6-0.5c0-0.3,0-0.5-0.2-0.5c-0.2-0.1-0.4-0.3-0.3-0.4
				c0.1-0.1,0.2-0.4,0.5-0.4c0.2,0,0.3,0,0.7-0.2c0.4-0.2,0.8-0.6,0.9-0.7c0.1-0.1,0.4-0.8,0.4-1.1s-0.2-0.2-0.1-0.3
				c0.1-0.1,0.1-0.2-0.1-0.3c-0.1-0.1-0.3-0.1-0.3-0.2c0-0.1,0-0.3,0.2-0.4c0.1-0.1,0.2-0.2,0-0.2c-0.2,0.1-0.2,0.3-0.3,0.2
				c-0.1-0.1-0.4-0.1-0.3-0.2c0.1-0.1,0.2-0.2,0.3-0.4c0.1-0.2,0.2-0.3,0.2-0.2c0,0.1,0,0.3,0.2,0.1c0.2-0.2,0.3-0.1,0.3,0
				c0,0.1,0,0.2,0.1,0.1c0.1-0.1,0,0.2,0.1,0.3c0.1,0.1,0,0.4,0.1,0.3c0.1-0.1,0.3-0.3,0.3-0.5c0-0.2-0.3-0.3-0.4-0.4
				c-0.1-0.1,0-0.2,0.1-0.4c0-0.2-0.1-0.2,0-0.4C207,169.9,207.1,170,207.1,169.8z M195.8,170.3c-0.1,0-0.1,0.1-0.2,0.1
				c-0.1,0-0.1,0,0,0.2c0,0.1,0.2,0.1,0.1,0.2c-0.1,0.2-0.1,0.2-0.1,0.2c0,0,0.2-0.2,0.2-0.1c0.1,0.1,0,0.2,0,0.3
				c0,0.1-0.2-0.1-0.3-0.1c0,0.1,0,0.1,0,0.2c0,0.2-0.1,0.4-0.2,0.5c-0.1,0.1-0.3,0-0.4-0.1c-0.1-0.1-0.2-0.4-0.2-0.4
				c0.1-0.2,0.3-0.4,0.4-0.4c0.1,0-0.2-0.3-0.1-0.5c0.1-0.1,0.1-0.3,0.1-0.4c0-0.1,0-0.2,0.4-0.2c0.4,0,0.7,0,0.7,0.2
				C196.1,170.3,195.9,170.3,195.8,170.3z M196.2,165.6c-0.1,0.1-0.5,0-0.7,0c-0.1,0.1-0.3,0.2-0.4,0.3c-0.1,0.1,0.1,0.2,0.2,0.3
				c0.1,0.1,0.2,0.2,0.2,0.2c0,0-0.1,0.1-0.2,0c-0.1-0.1-0.2-0.2-0.3-0.2c-0.1,0-0.1,0.1-0.2,0.2c-0.1,0.1-0.1,0.1-0.2,0
				c-0.1-0.1,0-0.2-0.2-0.2c-0.2,0-0.2,0.1-0.3,0.2c-0.1,0.1-0.3,0-0.3-0.1c0-0.1,0-0.2-0.2-0.2c-0.2,0-0.2-0.1-0.2-0.2
				c0-0.1-0.2-0.2-0.2-0.2c0-0.1,0.1-0.1,0.1,0c0,0.1,0.2,0.1,0.2,0.1c0,0,0.1,0.1,0.2,0c0.1,0,0.1,0.1,0.2,0.1
				c0.1,0,0.3-0.1,0.4-0.2c0.1-0.1,0.2,0,0.4,0c0.2,0,0.1-0.1,0.1-0.2c0-0.1,0.2-0.1,0.3-0.2c0.1-0.1,0.3,0,0.4,0
				c0.1,0,0.2,0,0.3-0.1c0.1-0.1,0.2,0,0.3,0.1C196.4,165.6,196.3,165.6,196.2,165.6z"/>
		</g>
	</g>
	<g>
		<g>
			<defs>
				<polygon id="XMLID_504_" points="118.9,87 130.6,156.4 145.7,202.4 165.1,210.6 277,210.6 				"/>
			</defs>
			<use xlink:href="#XMLID_504_"  overflow="visible" fill="#FFFFFF"/>
			<clipPath id="XMLID_4_">
				<use xlink:href="#XMLID_504_"  overflow="visible"/>
			</clipPath>
			<g clip-path="url(#XMLID_4_)">
				<path fill="#2D3C5A" d="M211.5,132.8c-17.4-2.7-70.2,52.7-70.2,52.7s29.5-25.8,40.9-20.8c8.8,3.9-1.2,24.1-1.2,24.1
					C190.7,178.2,228.9,135.5,211.5,132.8"/>
				<path fill="#B5935B" d="M185.9,206.3c17.4,2.7,70.2-52.7,70.2-52.7s-29.5,25.8-40.9,20.8c-8.8-3.9,1.2-24.1,1.2-24.1
					C206.7,160.9,168.5,203.6,185.9,206.3"/>
				<polyline fill="none" points="196.6,148.7 196.6,148.7 196.6,148.7 196.6,148.7 				"/>
				<path fill="#2D3C5A" d="M187.4,167.2c1.3-6.2,7.4-10.2,13.7-8.9c6.2,1.3,10.2,7.4,8.9,13.7c-1.3,6.2-7.4,10.2-13.7,8.9
					C190.1,179.5,186.1,173.4,187.4,167.2"/>
				<path fill="#B5935B" d="M201.1,158.2c-6.2-1.3-12.4,2.7-13.7,8.9c-1,4.8,1.1,9.6,5,12.1l12.5-19.4
					C203.8,159.1,202.5,158.5,201.1,158.2"/>
				<g>
					<path fill="#FFFFFF" d="M192.4,164.2c0.1,0,0.2-0.1,0.3-0.1c0.1,0,0.2-0.1,0.2-0.2c0-0.1-0.2,0-0.2-0.1c0-0.1,0.1-0.2,0-0.1
						c-0.1,0-0.1,0.1-0.2,0.1c-0.1,0-0.3,0-0.3,0c0,0.1,0.1,0.2,0.1,0.2C192.2,164.2,192.3,164.3,192.4,164.2z"/>
					<path fill="#FFFFFF" d="M192.2,165.1c0.2,0,0.2-0.1,0.4-0.2c0.2-0.2,0.3-0.5,0.5-0.5c0.2,0,0.3-0.1,0.4-0.2
						c0.1-0.1,0.2-0.2-0.1-0.2c-0.2,0-0.4,0.2-0.5,0.2c-0.1,0,0,0.2-0.2,0.2c-0.2,0.1-0.3-0.1-0.4,0c-0.1,0.1-0.4,0.2-0.4,0.2
						C192,164.8,192,165.1,192.2,165.1z"/>
					<path fill="#FFFFFF" d="M208.1,170c0-0.3-0.1-0.6-0.2-0.7c-0.1-0.1-0.2-0.2-0.1-0.3c0.1-0.1,0.1-0.2,0.1-0.4
						c0-0.2-0.1-0.1-0.2,0c-0.1,0.1-0.3,0-0.2,0.1c0.1,0.1,0.1,0.3,0.1,0.4c0,0.1,0.1,0.2,0.2,0.4c0,0.1,0.1,0.3,0.1,0.6
						c0,0.2-0.1,0.5-0.2,0.6c-0.1,0.2-0.3,0.4-0.4,0.5c-0.1,0.1-0.1,0.2-0.1,0.4c0,0,0.1,0.2,0.2,0.3c0.1,0.1,0.1-0.2,0.2-0.4
						c0-0.2,0.2-0.3,0.4-0.6C208,170.6,208.1,170.3,208.1,170z"/>
					<path fill="#FFFFFF" d="M207,169.7c0.1-0.2,0.1-0.6,0.1-1c0-0.3-0.2-0.6-0.3-0.8c-0.1-0.2-0.1-0.4-0.3-0.4
						c-0.2,0-0.2,0.2-0.3,0.2c-0.1,0-0.3,0.1-0.3-0.1c0-0.2,0-0.7,0-0.9c0-0.1,0-0.3,0.1-0.4c0.1-0.1,0-0.3,0.1-0.3
						c0.1,0,0.3-0.1,0.3-0.2c0-0.1-0.2-0.2-0.3-0.4c0-0.2,0-0.3,0-0.3c0.1,0,0.2-0.1,0.1-0.2c-0.1-0.1-0.3-0.5,0.1-0.1
						c0.3,0.4,0.2,0.4,0.3,0.6s0.1,0.6,0.5,0.8c0.4,0.3,0.5,0.3,0.2-0.3c-0.3-0.6-0.5-0.6-0.6-0.7c-0.1-0.1-0.3-0.3-0.4-0.5
						c0-0.1,0.1-0.3-0.1-0.5c-0.2-0.2-0.4-0.6-0.3-0.7c0-0.1-0.3-0.1-0.3,0c0,0.1-0.1,0-0.1-0.2c-0.1-0.2-0.3-0.2-0.1-0.3
						c0.2-0.1,0.1-0.2-0.1-0.3c-0.1-0.1-0.3-0.2-0.3,0c0,0.2-0.3,0.2-0.3,0.4c-0.1,0.2-0.2,0.4,0,0.4c0.2,0,0.1,0.4,0,0.5
						c-0.1,0.1-0.4,0-0.4,0.2c-0.1,0.3-0.2,0-0.4,0.2c-0.2,0.2-0.2,0.3-0.1,0.4c0.1,0.1,0,0.2-0.1,0.2c-0.1,0,0,0.3-0.2,0.2
						c-0.2-0.1-0.2-0.3-0.4-0.2s0,0.2-0.1,0.2c-0.1,0-0.3-0.1-0.5,0.1c-0.2,0.1-0.5,0.4-0.3,0c0.2-0.4,0.1-0.5-0.1-0.5
						c-0.1,0-0.2,0.1-0.3,0c-0.1-0.1-0.1-0.1-0.2,0.1c0,0.2-0.2,0.2-0.4,0.3c-0.2,0.1-0.4,0.1-0.3,0.2c0.1,0.1,0.1,0.2-0.1,0.2
						c-0.2,0-0.3,0.1-0.2,0.3c0.1,0.2-0.2-0.2-0.4-0.1c-0.2,0.1-0.3-0.3-0.4-0.2c-0.1,0.1-0.4,0.3-0.4,0.6c0.1,0.2-0.1,0.2-0.3,0
						c-0.2-0.2-0.2,0.1-0.4,0c-0.2,0-0.3-0.3-0.5-0.2c-0.3,0.1-0.5,0-0.8,0.1c-0.3,0.1-0.8,0.2-0.9,0.1c-0.1-0.1,0.1-0.4,0.1-0.6
						c0-0.2,0.1,0.5,0.3,0.4c0.2,0,0.4,0,0.4-0.3c0-0.3-0.3-0.5-0.3-0.6c0.1-0.1,0.3-0.2,0.1-0.3c-0.2-0.2-0.7-0.3-1.2-0.3
						c-0.5,0.1-0.9,0.1-1.1,0.1c-0.2-0.1-0.3-0.2-0.5-0.1c-0.2,0.1-0.7,0.3-0.6,0.4c0.1,0.1,0.3,0.2,0.4,0.2c0.1,0,0,0.1-0.2,0.2
						c-0.1,0.1-0.1,0.3-0.3,0.3c-0.1,0-0.4,0-0.3-0.1c0.1-0.1,0.4-0.2,0.4-0.2c0-0.1-0.1-0.1-0.2-0.1c-0.1,0-0.4,0.1-0.5,0.2
						c-0.1,0.1-0.3,0-0.3-0.1c0-0.1-0.1-0.2-0.2-0.2c-0.2,0-0.3,0-0.4-0.1c-0.1-0.1-0.3,0.1-0.3-0.1c-0.1-0.1,0-0.2-0.2-0.2
						c-0.1-0.1-0.1-0.2-0.2-0.2c-0.1,0.1-0.1,0.3-0.2,0.4c-0.2,0.2-0.5,0.4-0.6,0.4c-0.1,0-0.1-0.4-0.1-0.5c0-0.2,0-0.3-0.1-0.3
						c-0.1,0-0.3,0.2-0.5,0.3c-0.2,0-0.2,0.1-0.4,0.2c-0.1,0.1-0.2,0.1-0.2,0.2c0,0.1-0.2,0.4-0.2,0.4c0.1,0,0.2,0.1,0.2,0.3
						c0,0.1,0.3,0.1,0.4,0.1c0,0,0.2-0.1,0.3-0.1c0.1,0,0.3,0.2,0.4,0.2c0.1,0,0.1-0.2,0.3-0.1c0.1,0.1,0,0.3,0.1,0.3
						c0.1,0,0.3,0,0.4,0.1c0,0.1,0.1,0.2,0,0.3c-0.1,0.1-0.2,0.2-0.2,0.3c0,0.2-0.1,0.3,0,0.5c0,0.2,0,0.4-0.1,0.4
						c-0.1,0-0.3,0.1-0.2,0.1c0,0.1,0.2,0.1,0.3,0c0.1,0,0.2-0.3,0.2-0.2c0,0.1,0,0.2,0,0.2c0.1,0,0.1-0.1,0.1-0.3
						c0-0.2-0.1-0.4,0-0.6c0.1-0.1,0.1-0.3,0.2-0.4c0.1,0,0.2-0.1,0.3,0c0.1,0.1-0.1,0.2-0.1,0.4c0,0.2-0.1,0.5,0,0.6
						c0,0.1,0,0.2-0.2,0.3c-0.1,0.1-0.2,0.3-0.2,0.4c0,0.1-0.2,0.1-0.2,0.3c0,0.2,0,0.3,0,0.3c0.1,0,0.2-0.3,0.3-0.2
						c0.1,0.1,0.2,0,0.2-0.1c0-0.1,0.1-0.4,0.1-0.3c0,0.1,0.3,0.1,0.4,0.2c0.1,0.1,0.4,0,0.4-0.1c0.2,0,0.4-0.2,0.5-0.2
						c0.1,0,0.2-0.1,0.4-0.1c0.2,0,0.3,0.3,0.3,0.3c0,0.1-0.2-0.1-0.2,0.1c0,0.1-0.2,0.2-0.1,0.2c0.1,0,0.5,0.1,0.4,0.1
						c0-0.1-0.1-0.3,0-0.3c0.1,0,0.7,0.1,0.6,0.2c-0.1,0.1-0.5,0.2-0.5,0.3c0,0.1,0.2,0.5,0.2,0.7c0,0.1-0.1,0.3-0.3,0.2
						c-0.2-0.1-0.6-0.2-0.5-0.3c0-0.1-0.1-0.3-0.2-0.4c-0.1-0.1-0.4-0.1-0.5-0.2c-0.1,0-0.1-0.2-0.1-0.2c0-0.1,0-0.2-0.1-0.2
						c-0.1,0-0.1,0.1-0.2,0.1c-0.1,0-0.5,0.3-0.4,0.5c0,0.2,0.1,0.5,0.2,0.5c0.1,0,0.2-0.1,0.2,0.1c0.1,0.2,0.2,0.2,0.4,0.3
						c0.1,0,0.2,0.1,0.1,0.2c-0.1,0.1,0,0.2-0.2,0.3c-0.2,0.1-0.4,0.3-0.5,0.3s-0.3-0.2-0.4-0.2c-0.1,0-0.1,0.4-0.1,0.5
						c0,0.2,0,0.3,0.2,0.1c0.1-0.1,0.1,0,0.1,0.2c0,0.2,0,1,0,1.2c-0.1,0.2,0,0.4,0,0.6c0,0.3,0.1,0.5,0.1,0.6
						c-0.1,0.2-0.2,0.5-0.1,0.6c0.2,0.1,0.9,0.3,1,0.3c0.1,0,0.6,0.1,0.6,0.1c0,0,0.1-0.1,0.4-0.1c0.3,0,0.8,0,0.9-0.1
						c0.1-0.1,0.5-0.3,0.5-0.4c0-0.1-0.1-0.2-0.2-0.3c-0.1-0.1-0.3-0.2-0.2-0.4c0.1-0.1,0-0.1-0.2-0.1c-0.2,0.1-0.3,0.1-0.4,0
						c-0.2-0.1-0.3-0.1-0.3-0.2c0-0.2,0-0.3,0-0.4c-0.1-0.2-0.2-0.6-0.1-0.6c0.1,0,0.3,0,0.4,0.1c0.1,0.1,0,0.4,0.1,0.5
						c0.1,0.1,0.2,0.4,0.3,0.4c0.2,0,0.4-0.1,0.4,0c0,0.1-0.1,0.2,0.4,0.5c0.6,0.2,1.2,0.2,1.2,0.3c0,0.1,0,0.3,0.2,0.3
						c0.1,0.1,0.1,0.2,0.2,0.2c0.2,0-0.1,0,0,0.1c0.1,0.1,0.1,0.2,0.2,0.3c0.1,0,0.3-0.2,0.4-0.2c0,0.1-0.1,0.3-0.1,0.5
						c0,0.3-0.1,0.4,0,0.6c0.1,0.2,0.1,0.5,0.2,0.6c0.1,0.1,0.1,0.2,0.1,0.3c0,0.1,0.1,0.2,0.1,0.2c0.1,0,0.2-0.1,0.2-0.1
						c0,0,0.2,0,0.2-0.1c0,0,0.1-0.1,0.2-0.1c0,0,0-0.2,0.1-0.3c0.1-0.1,0.1-0.1,0.1-0.3c0-0.2,0.1-0.3,0.2-0.3c0.1,0,0.1,0,0.2,0
						c0.1,0,0.2,0,0.2-0.1c0.1,0,0.1-0.1,0.2-0.1c0.1,0,0.4-0.2,0.5-0.3c0.1,0,0.4-0.1,0.4-0.2c0-0.1-0.1-0.2,0.2-0.2
						c0.3,0,0.7-0.3,0.7-0.2c0,0.1,0,0.3,0.1,0.4c0.1,0.1,0.3,0.3,0.3,0.4c0,0.1-0.1,0.3-0.1,0.3c0.1,0,0.3-0.1,0.4-0.1
						c0.1-0.1,0.2-0.2,0.2,0c0,0.2,0.1,0.5,0.1,0.6c0,0.1,0,0.2,0.1,0.1c0.1-0.1,0.1-0.4,0.3-0.4c0.2,0,0.3,0.1,0.4,0.2
						c0.1,0.1,0.3,0.1,0.3,0.1c0,0.1,0.1,0.1,0.3-0.1c0.2-0.1,0.6-0.2,0.6-0.5c0-0.3,0-0.5-0.2-0.5c-0.2-0.1-0.4-0.3-0.3-0.4
						c0.1-0.1,0.2-0.4,0.5-0.4c0.2,0,0.3,0,0.7-0.2c0.4-0.2,0.8-0.6,0.9-0.7c0.1-0.1,0.4-0.8,0.4-1.1c0.1-0.3-0.2-0.2-0.1-0.3
						c0.1-0.1,0.1-0.2-0.1-0.3c-0.1-0.1-0.3-0.1-0.3-0.2c0-0.1,0-0.3,0.2-0.4c0.1-0.1,0.2-0.2,0-0.2c-0.2,0.1-0.2,0.3-0.3,0.2
						c-0.1-0.1-0.4-0.1-0.3-0.2c0.1-0.1,0.2-0.2,0.3-0.4c0.1-0.2,0.2-0.3,0.2-0.2c0,0.1,0,0.3,0.2,0.1c0.2-0.2,0.3-0.1,0.3,0
						c0,0.1,0,0.2,0.2,0.1c0.1-0.1,0,0.2,0.1,0.3c0.1,0.1,0,0.4,0.1,0.3c0.1-0.1,0.3-0.3,0.3-0.5c0-0.2-0.3-0.3-0.4-0.4
						c-0.1-0.1,0-0.2,0.1-0.4c0-0.2-0.1-0.2,0-0.4C206.8,169.7,206.9,169.9,207,169.7z M195.6,170.2c-0.1,0-0.1,0.1-0.2,0.1
						c-0.1,0-0.1,0,0,0.2c0,0.1,0.2,0.1,0.1,0.2c-0.1,0.2-0.1,0.2-0.1,0.3c0,0,0.2-0.2,0.2-0.1c0.1,0.1,0,0.2,0,0.3
						c0,0.1-0.3-0.1-0.3-0.1c0,0.1,0,0.1,0,0.2c0,0.2-0.1,0.4-0.2,0.5c-0.1,0.1-0.3,0-0.4-0.1c-0.1-0.1-0.2-0.4-0.2-0.4
						c0.1-0.2,0.3-0.4,0.4-0.4c0.1,0-0.2-0.3-0.1-0.5c0.1-0.1,0.1-0.3,0.1-0.4c0-0.1,0-0.2,0.4-0.2c0.4,0,0.7,0,0.7,0.2
						C195.9,170.1,195.7,170.2,195.6,170.2z M196,165.5c-0.1,0.1-0.5,0-0.7,0c-0.1,0.1-0.3,0.2-0.4,0.3c-0.1,0.1,0.1,0.2,0.2,0.3
						c0.1,0.1,0.2,0.2,0.2,0.2c0,0-0.1,0.1-0.2,0c-0.1-0.1-0.2-0.2-0.3-0.2c-0.1,0-0.1,0.1-0.2,0.2c-0.1,0.1-0.1,0.1-0.2,0
						c-0.1-0.1,0-0.2-0.2-0.2c-0.2,0-0.2,0.1-0.3,0.2c-0.1,0.1-0.3,0-0.3-0.1c0-0.1,0-0.2-0.2-0.2c-0.2,0-0.2-0.1-0.2-0.2
						c0-0.1-0.2-0.2-0.2-0.3c0-0.1,0.1-0.1,0.1,0c0,0.1,0.2,0.1,0.2,0.1s0.1,0.1,0.2,0c0.1-0.1,0.1,0.1,0.2,0.1
						c0.1,0,0.3-0.1,0.4-0.2c0.1-0.1,0.2,0,0.4,0c0.2,0,0.1-0.1,0.1-0.2c0-0.1,0.2-0.1,0.3-0.2c0.1-0.1,0.3,0,0.4,0
						c0.1,0,0.2,0,0.3-0.1c0.1-0.1,0.2,0,0.3,0.1C196.1,165.4,196.1,165.4,196,165.5z"/>
				</g>
			</g>
			<path clip-path="url(#XMLID_4_)" fill="none" stroke="#B5935B" stroke-linejoin="round" stroke-miterlimit="10" d="M201.5,228.8
				l10-18.5c2.1-3.9,6.3-6.4,10.8-6.4h1.6c4,0,7.8-2,10.1-5.3l0,0c2.3-3.3,6.1-5.3,10.1-5.3h29.4"/>
			
				<circle clip-path="url(#XMLID_4_)" fill="#FFFFFF" stroke="#B5935B" stroke-linejoin="round" stroke-miterlimit="10" cx="239.8" cy="194" r="2.3"/>
			
				<circle clip-path="url(#XMLID_4_)" fill="none" stroke="#B5935B" stroke-linejoin="round" stroke-miterlimit="10" cx="231.7" cy="161.3" r="74.1"/>
			
				<rect x="263.5" y="197" clip-path="url(#XMLID_4_)" fill="none" stroke="#B5935B" stroke-linejoin="round" stroke-miterlimit="10" width="2.6" height="25.4"/>
			
				<use xlink:href="#XMLID_504_"  overflow="visible" fill="none" stroke="#B5935B" stroke-linejoin="round" stroke-miterlimit="10"/>
		</g>
		<polyline fill="#B5935B" stroke="#B5935B" stroke-linejoin="round" stroke-miterlimit="10" points="173.8,187.8 145.7,202.4 
			129.1,164.5 		"/>
		<polygon fill="#FFFFFF" stroke="#B5935B" stroke-linejoin="round" stroke-miterlimit="10" points="119.3,74.5 114.2,108.2 
			104.3,173.9 173.8,187.8 		"/>
		<polyline fill="#B5935B" stroke="#B5935B" stroke-linejoin="round" stroke-miterlimit="10" points="124.6,164 104.3,173.9 
			107.3,139.3 118,138.5 		"/>
		<polyline fill="#FFFFFF" stroke="#B5935B" stroke-linejoin="round" stroke-miterlimit="10" points="110.6,9.1 88.2,145.4 
			124.6,164 119.9,93.5 113.3,8.8 		"/>
		
			<rect x="111" y="7.8" fill="#041944" stroke="#B5935B" stroke-linejoin="round" stroke-miterlimit="10" width="2.6" height="197.6"/>
		<path fill="#041944" stroke="#B5935B" stroke-linejoin="round" stroke-miterlimit="10" d="M125.7,207.2h-25.6v-0.5
			c0-3.1,2.5-5.7,5.7-5.7h14.3c3.1,0,5.7,2.5,5.7,5.7V207.2z"/>
		<polygon fill="#041944" stroke="#B5935B" stroke-linejoin="round" stroke-miterlimit="10" points="131.3,210.1 94.6,210.1 
			97.3,206.5 129.1,206.5 		"/>
		<g>
			<defs>
				<polygon id="XMLID_503_" points="113.5,8.4 139.4,127.5 99.6,163.2 110.8,10.2 				"/>
			</defs>
			<use xlink:href="#XMLID_503_"  overflow="visible" fill="#FFFFFF"/>
			<clipPath id="XMLID_5_">
				<use xlink:href="#XMLID_503_"  overflow="visible"/>
			</clipPath>
			
				<circle clip-path="url(#XMLID_5_)" fill="#FFFFFF" stroke="#B5935B" stroke-linejoin="round" stroke-miterlimit="10" cx="126.7" cy="76" r="25.8"/>
			
				<circle clip-path="url(#XMLID_5_)" fill="#FFFFFF" stroke="#B5935B" stroke-linejoin="round" stroke-miterlimit="10" cx="127.1" cy="76.1" r="23.5"/>
			
				<use xlink:href="#XMLID_503_"  overflow="visible" fill="none" stroke="#B5935B" stroke-linejoin="round" stroke-miterlimit="10"/>
		</g>
		<polygon fill="#041944" stroke="#B5935B" stroke-linejoin="round" stroke-miterlimit="10" points="112,0.5 110.1,7.1 113.9,7.1 		
			"/>
		<ellipse fill="#041944" stroke="#B5935B" stroke-linejoin="round" stroke-miterlimit="10" cx="112" cy="8.4" rx="2.4" ry="1.9"/>
	</g>
	<line fill="none" stroke="#B5935B" stroke-linejoin="round" stroke-miterlimit="10" x1="255.1" y1="193.5" x2="321" y2="193"/>
	<circle fill="#041944" stroke="#B5935B" stroke-linejoin="round" stroke-miterlimit="10" cx="302.4" cy="193.3" r="2.2"/>
	<circle fill="#041944" stroke="#B5935B" stroke-linejoin="round" stroke-miterlimit="10" cx="341" cy="212.8" r="2.2"/>
	<circle fill="#041944" stroke="#B5935B" stroke-linejoin="round" stroke-miterlimit="10" cx="340" cy="121" r="1.5"/>
	<circle fill="#041944" stroke="#B5935B" stroke-linejoin="round" stroke-miterlimit="10" cx="185.8" cy="61.1" r="1.5"/>
	<circle fill="#041944" stroke="#B5935B" stroke-linejoin="round" stroke-miterlimit="10" cx="221.3" cy="51.8" r="1.5"/>
	<circle fill="#041944" stroke="#B5935B" stroke-linejoin="round" stroke-miterlimit="10" cx="259.1" cy="54.3" r="1.5"/>
	<circle fill="#041944" stroke="#B5935B" stroke-linejoin="round" stroke-miterlimit="10" cx="293.6" cy="68.1" r="1.5"/>
	<circle fill="#041944" stroke="#B5935B" stroke-linejoin="round" stroke-miterlimit="10" cx="321.6" cy="91.6" r="1.5"/>
	<circle fill="#041944" stroke="#B5935B" stroke-linejoin="round" stroke-miterlimit="10" cx="320.4" cy="192.9" r="1.5"/>
	<circle fill="#FFFFFF" stroke="#B5935B" stroke-linejoin="round" stroke-miterlimit="10" cx="240.2" cy="81.1" r="2.2"/>
	<circle fill="#FFFFFF" stroke="#B5935B" stroke-linejoin="round" stroke-miterlimit="10" cx="297.5" cy="112.3" r="2.2"/>
	<circle fill="#FFFFFF" stroke="#B5935B" stroke-linejoin="round" stroke-miterlimit="10" cx="201.6" cy="111.4" r="2.2"/>
	<circle fill="#FFFFFF" stroke="#B5935B" stroke-linejoin="round" stroke-miterlimit="10" cx="310.2" cy="135.3" r="2.2"/>
	<circle fill="#041944" stroke="#B5935B" stroke-linejoin="round" stroke-miterlimit="10" cx="149.7" cy="85.5" r="2.2"/>
	<circle fill="#041944" stroke="#B5935B" stroke-linejoin="round" stroke-miterlimit="10" cx="84.5" cy="84.8" r="2.2"/>
	<g>
		<defs>
			<path id="XMLID_502_" d="M287.7,213.9l-6.6,9.7c-1,1.5-2.7,2.3-4.4,2.3l0,0c-3,0-5.4,2.4-5.4,5.4v4.8h-13.7v-21.7L287.7,213.9z"
				/>
		</defs>
		<use xlink:href="#XMLID_502_"  overflow="visible" fill="#041944"/>
		<clipPath id="XMLID_6_">
			<use xlink:href="#XMLID_502_"  overflow="visible"/>
		</clipPath>
		
			<line clip-path="url(#XMLID_6_)" fill="none" stroke="#B5935B" stroke-linejoin="round" stroke-miterlimit="10" x1="266" y1="215.4" x2="266" y2="241.4"/>
		
			<use xlink:href="#XMLID_502_"  overflow="visible" fill="none" stroke="#B5935B" stroke-linejoin="round" stroke-miterlimit="10"/>
	</g>
	<g>
		<defs>
			<polygon id="XMLID_501_" points="263.5,236.1 89.6,236.1 85.9,215 263.5,215 			"/>
		</defs>
		<use xlink:href="#XMLID_501_"  overflow="visible" fill="#041944"/>
		<clipPath id="XMLID_7_">
			<use xlink:href="#XMLID_501_"  overflow="visible"/>
		</clipPath>
		<path clip-path="url(#XMLID_7_)" fill="#041944" stroke="#B5935B" stroke-linejoin="round" stroke-miterlimit="10" d="M87.8,201.7
			L87.8,201.7c0,12.3,10,22.3,22.3,22.3h35.2c17.2,0,34,4.6,48.8,13.4l12.5,7.4H74.8v-43.1H87.8z"/>
		
			<use xlink:href="#XMLID_501_"  overflow="visible" fill="none" stroke="#B5935B" stroke-linejoin="round" stroke-miterlimit="10"/>
	</g>
	<g>
		<defs>
			<rect id="XMLID_500_" x="81.2" y="209.8" width="253.7" height="8.8"/>
		</defs>
		<use xlink:href="#XMLID_500_"  overflow="visible" fill="#041944"/>
		<clipPath id="XMLID_8_">
			<use xlink:href="#XMLID_500_"  overflow="visible"/>
		</clipPath>
		
			<line clip-path="url(#XMLID_8_)" fill="none" stroke="#B5935B" stroke-linejoin="round" stroke-miterlimit="10" x1="110.8" y1="212.9" x2="351" y2="212.9"/>
		
			<use xlink:href="#XMLID_500_"  overflow="visible" fill="none" stroke="#B5935B" stroke-linejoin="round" stroke-miterlimit="10"/>
	</g>
	<line fill="none" stroke="#B5935B" stroke-linejoin="round" stroke-miterlimit="10" x1="276.4" y1="192.8" x2="276.4" y2="101.2"/>
	<line fill="none" stroke="#B5935B" stroke-linejoin="round" stroke-miterlimit="10" x1="291.7" y1="114.9" x2="276.4" y2="114.9"/>
	<line fill="none" stroke="#B5935B" stroke-linejoin="round" stroke-miterlimit="10" x1="276.1" y1="140.7" x2="304.9" y2="140.7"/>
	<circle fill="#FFFFFF" stroke="#B5935B" stroke-linejoin="round" stroke-miterlimit="10" cx="276.1" cy="140.8" r="2.2"/>
	
		<rect x="87.5" y="233.5" fill="#041944" stroke="#B5935B" stroke-linejoin="round" stroke-miterlimit="10" width="247.8" height="4.4"/>
	<g>
		
			<ellipse transform="matrix(0.7304 -0.683 0.683 0.7304 29.648 178.1583)" fill="#041944" stroke="#B5935B" stroke-linejoin="round" stroke-miterlimit="10" cx="240.5" cy="51.5" rx="10.8" ry="10.8"/>
		<g>
			<defs>
				<circle id="XMLID_2403_" cx="240.5" cy="51.5" r="8.4"/>
			</defs>
			<use xlink:href="#XMLID_2403_"  overflow="visible" fill="#041944"/>
			<clipPath id="XMLID_9_">
				<use xlink:href="#XMLID_2403_"  overflow="visible"/>
			</clipPath>
			
				<use xlink:href="#XMLID_2403_"  overflow="visible" fill="none" stroke="#B5935B" stroke-linejoin="round" stroke-miterlimit="10"/>
		</g>
	</g>
	<g>
		
			<ellipse transform="matrix(0.7304 -0.683 0.683 0.7304 28.4161 231.3448)" fill="#041944" stroke="#B5935B" stroke-linejoin="round" stroke-miterlimit="10" cx="307.2" cy="79.7" rx="10.8" ry="10.8"/>
		<g>
			<defs>
				<circle id="XMLID_2405_" cx="307.2" cy="79.7" r="8.4"/>
			</defs>
			<use xlink:href="#XMLID_2405_"  overflow="visible" fill="#041944"/>
			<clipPath id="XMLID_10_">
				<use xlink:href="#XMLID_2405_"  overflow="visible"/>
			</clipPath>
			
				<use xlink:href="#XMLID_2405_"  overflow="visible" fill="none" stroke="#B5935B" stroke-linejoin="round" stroke-miterlimit="10"/>
		</g>
	</g>
	<g>
		
			<ellipse transform="matrix(0.7304 -0.683 0.683 0.7304 17.1714 255.191)" fill="#041944" stroke="#B5935B" stroke-linejoin="round" stroke-miterlimit="10" cx="331.8" cy="105.8" rx="10.8" ry="10.8"/>
		<g>
			<defs>
				<circle id="XMLID_2413_" cx="331.8" cy="105.8" r="8.4"/>
			</defs>
			<use xlink:href="#XMLID_2413_"  overflow="visible" fill="#041944"/>
			<clipPath id="XMLID_11_">
				<use xlink:href="#XMLID_2413_"  overflow="visible"/>
			</clipPath>
			
				<use xlink:href="#XMLID_2413_"  overflow="visible" fill="none" stroke="#B5935B" stroke-linejoin="round" stroke-miterlimit="10"/>
		</g>
	</g>
	
		<line fill="#041944" stroke="#B5935B" stroke-linejoin="round" stroke-miterlimit="10" x1="312.1" y1="140.8" x2="347.1" y2="140.8"/>
	<line fill="none" stroke="#B5935B" stroke-linejoin="round" stroke-miterlimit="10" x1="202.1" y1="87.3" x2="202.1" y2="55.2"/>
	<line fill="none" stroke="#B5935B" stroke-linejoin="round" stroke-miterlimit="10" x1="276.1" y1="93" x2="276.1" y2="59"/>
	<g>
		
			<ellipse transform="matrix(0.7304 -0.683 0.683 0.7304 33.5135 204.9252)" fill="#041944" stroke="#B5935B" stroke-linejoin="round" stroke-miterlimit="10" cx="276.3" cy="60" rx="10.8" ry="10.8"/>
		<g>
			<defs>
				<circle id="XMLID_2404_" cx="276.3" cy="60" r="8.4"/>
			</defs>
			<use xlink:href="#XMLID_2404_"  overflow="visible" fill="#041944"/>
			<clipPath id="XMLID_12_">
				<use xlink:href="#XMLID_2404_"  overflow="visible"/>
			</clipPath>
			
				<use xlink:href="#XMLID_2404_"  overflow="visible" fill="none" stroke="#B5935B" stroke-linejoin="round" stroke-miterlimit="10"/>
		</g>
	</g>
	<g>
		
			<ellipse transform="matrix(0.7304 -0.683 0.683 0.7304 17.0207 153.4759)" fill="#041944" stroke="#B5935B" stroke-linejoin="round" stroke-miterlimit="10" cx="202.9" cy="55.2" rx="10.8" ry="10.8"/>
		<g>
			<defs>
				<circle id="XMLID_2400_" cx="202.9" cy="55.2" r="8.4"/>
			</defs>
			<use xlink:href="#XMLID_2400_"  overflow="visible" fill="#041944"/>
			<clipPath id="XMLID_13_">
				<use xlink:href="#XMLID_2400_"  overflow="visible"/>
			</clipPath>
			
				<use xlink:href="#XMLID_2400_"  overflow="visible" fill="none" stroke="#B5935B" stroke-linejoin="round" stroke-miterlimit="10"/>
		</g>
	</g>
	<g>
		<defs>
			<path id="XMLID_2398_" d="M278.7,117.8l0.2,20h22.5c0,0-5.7-13.3-11.7-20.2L278.7,117.8z"/>
		</defs>
		<use xlink:href="#XMLID_2398_"  overflow="visible" fill="#041944"/>
		<clipPath id="XMLID_14_">
			<use xlink:href="#XMLID_2398_"  overflow="visible"/>
		</clipPath>
		
			<use xlink:href="#XMLID_2398_"  overflow="visible" fill="none" stroke="#B5935B" stroke-linejoin="round" stroke-miterlimit="10"/>
	</g>
	<polyline fill="none" stroke="#B5935B" stroke-linejoin="round" stroke-miterlimit="10" points="315.3,155 331.7,155 331.7,179.2 	
		"/>
	<path fill="none" stroke="#B5935B" stroke-linejoin="round" stroke-miterlimit="10" d="M290,140.6l3.2,8c1.5,3.8,5.2,6.3,9.4,6.3
		h5.8"/>
	<path fill="none" stroke="#B5935B" stroke-linejoin="round" stroke-miterlimit="10" d="M279.2,130.8L279.2,130.8
		c4.1,0,7.8,2.5,9.4,6.3l0.2,0.4"/>
	<circle fill="#FFFFFF" stroke="#B5935B" stroke-linejoin="round" stroke-miterlimit="10" cx="332.1" cy="179.7" r="2.2"/>
	<circle fill="#FFFFFF" stroke="#B5935B" stroke-linejoin="round" stroke-miterlimit="10" cx="276" cy="93" r="2.2"/>
	<g>
		<defs>
			<path id="XMLID_2401_" d="M273.5,127.8v-25c0,0-12.2-12.4-39-12.9c-20.9-0.4-29.9,5.5-29.9,5.5v13h13.5c8,0,15.7,3.1,21.5,8.6
				l4,3.8c4.6,4.4,10.8,6.9,17.2,6.9L273.5,127.8z"/>
		</defs>
		<clipPath id="XMLID_15_">
			<use xlink:href="#XMLID_2401_"  overflow="visible"/>
		</clipPath>
		
			<line clip-path="url(#XMLID_15_)" fill="none" stroke="#B5935B" stroke-linejoin="round" stroke-miterlimit="10" x1="239.9" y1="85.4" x2="239.9" y2="127.8"/>
		
			<use xlink:href="#XMLID_2401_"  overflow="visible" fill="none" stroke="#B5935B" stroke-linejoin="round" stroke-miterlimit="10"/>
	</g>
</g>
</svg>
