<?xml version="1.0" encoding="utf-8"?>
<!-- Generator: Adobe Illustrator 18.1.1, SVG Export Plug-In . SVG Version: 6.00 Build 0)  -->
<!DOCTYPE svg PUBLIC "-//W3C//DTD SVG 1.1//EN" "http://www.w3.org/Graphics/SVG/1.1/DTD/svg11.dtd" [
	<!ENTITY ns_extend "http://ns.adobe.com/Extensibility/1.0/">
	<!ENTITY ns_ai "http://ns.adobe.com/AdobeIllustrator/10.0/">
	<!ENTITY ns_graphs "http://ns.adobe.com/Graphs/1.0/">
	<!ENTITY ns_vars "http://ns.adobe.com/Variables/1.0/">
	<!ENTITY ns_imrep "http://ns.adobe.com/ImageReplacement/1.0/">
	<!ENTITY ns_sfw "http://ns.adobe.com/SaveForWeb/1.0/">
	<!ENTITY ns_custom "http://ns.adobe.com/GenericCustomNamespace/1.0/">
	<!ENTITY ns_adobe_xpath "http://ns.adobe.com/XPath/1.0/">
]>
<svg version="1.1" id="Layer_1" xmlns:x="&ns_extend;" xmlns:i="&ns_ai;" xmlns:graph="&ns_graphs;"
	 xmlns="http://www.w3.org/2000/svg" xmlns:xlink="http://www.w3.org/1999/xlink" x="0px" y="0px" viewBox="0 0 74.8 175.8"
	 enable-background="new 0 0 74.8 175.8" xml:space="preserve">
<metadata>
	<sfw  xmlns="&ns_sfw;">
		<slices></slices>
		<sliceSourceBounds  width="88.3" height="189.5" y="-469.9" x="630.7" bottomLeftOrigin="true"></sliceSourceBounds>
	</sfw>
</metadata>
<g>
	
		<line fill="none" stroke="#B5935B" stroke-linecap="round" stroke-linejoin="round" stroke-miterlimit="10" x1="38.2" y1="5.3" x2="38.2" y2="175.3"/>
	
		<circle fill="#FFFFFF" stroke="#B5935B" stroke-linecap="round" stroke-linejoin="round" stroke-miterlimit="10" cx="38.2" cy="91.5" r="3.7"/>
	<g>
		
			<ellipse transform="matrix(-0.9542 -0.2993 0.2993 -0.9542 61.9026 84.5086)" fill="#FFFFFF" stroke="#B5935B" stroke-linejoin="round" stroke-miterlimit="10" cx="37.4" cy="37.5" rx="36.9" ry="37"/>
	</g>
	<g>
		<g>
			<defs>
				<path id="XMLID_507_" d="M5,27.4C10.6,9.4,29.7-0.6,47.6,5s27.9,24.7,22.2,42.6S45.1,75.6,27.2,70S-0.6,45.3,5,27.4z"/>
			</defs>
			<use xlink:href="#XMLID_507_"  overflow="visible" fill="#FFFFFF"/>
			<clipPath id="XMLID_2_">
				<use xlink:href="#XMLID_507_"  overflow="visible"/>
			</clipPath>
			
				<line clip-path="url(#XMLID_2_)" fill="none" stroke="#B5935B" stroke-linejoin="round" stroke-miterlimit="10" x1="37.3" y1="14.3" x2="37.3" y2="-13.7"/>
			
				<line clip-path="url(#XMLID_2_)" fill="none" stroke="#B5935B" stroke-linejoin="round" stroke-miterlimit="10" x1="62.8" y1="31.8" x2="62.8" y2="44.1"/>
			<polyline clip-path="url(#XMLID_2_)" fill="none" stroke="#B5935B" stroke-linejoin="round" stroke-miterlimit="10" points="
				-4.7,32.1 79.6,32.1 79.6,8.6 81.1,8.6 			"/>
			<g clip-path="url(#XMLID_2_)">
				<defs>
					<polyline id="XMLID_508_" points="30.6,36.6 -6.7,36.6 -6.7,72.6 73.8,72.6 79.6,41.8 47.1,41.8 					"/>
				</defs>
				<use xlink:href="#XMLID_508_"  overflow="visible" fill="#041944"/>
				<clipPath id="XMLID_3_">
					<use xlink:href="#XMLID_508_"  overflow="visible"/>
				</clipPath>
				
					<line clip-path="url(#XMLID_3_)" fill="none" stroke="#B5935B" stroke-linejoin="round" stroke-miterlimit="10" x1="30.3" y1="59.1" x2="30.3" y2="82.3"/>
				
					<line clip-path="url(#XMLID_3_)" fill="none" stroke="#B5935B" stroke-linejoin="round" stroke-miterlimit="10" x1="30.3" y1="65.3" x2="69.3" y2="65.3"/>
				
					<use xlink:href="#XMLID_508_"  overflow="visible" fill="none" stroke="#B5935B" stroke-linejoin="round" stroke-miterlimit="10"/>
			</g>
			
				<line clip-path="url(#XMLID_2_)" fill="none" stroke="#B5935B" stroke-linejoin="round" stroke-miterlimit="10" x1="12.6" y1="31.8" x2="12.6" y2="-3.9"/>
			
				<use xlink:href="#XMLID_507_"  overflow="visible" fill="none" stroke="#B5935B" stroke-linejoin="round" stroke-miterlimit="10"/>
		</g>
	</g>
	
		<rect x="24.1" y="16.5" fill="#FFFFFF" stroke="#B5935B" stroke-linejoin="round" stroke-miterlimit="10" width="32.6" height="44.2"/>
	
		<rect x="20.3" y="12.7" fill="#FFFFFF" stroke="#B5935B" stroke-linejoin="round" stroke-miterlimit="10" width="32.6" height="44.2"/>
	<g>
		<defs>
			<rect id="XMLID_506_" x="23.8" y="16.4" width="24.9" height="36.2"/>
		</defs>
		<use xlink:href="#XMLID_506_"  overflow="visible" fill="#FFFFFF"/>
		<clipPath id="XMLID_4_">
			<use xlink:href="#XMLID_506_"  overflow="visible"/>
		</clipPath>
		<path clip-path="url(#XMLID_4_)" fill="#FFFFFF" stroke="#B5935B" stroke-linejoin="round" stroke-miterlimit="10" d="M22.9-1.1
			l6.2,28.5c0.6,2.6,2.9,4.5,5.6,4.5h0.2c2.9,0,5.3,2.1,5.7,5v0c0.4,2.9,2.8,5,5.7,5h16.9L62.8-5.3L22.9-1.1z"/>
		
			<circle clip-path="url(#XMLID_4_)" fill="#FFFFFF" stroke="#B5935B" stroke-linejoin="round" stroke-miterlimit="10" cx="34.1" cy="27.2" r="2.2"/>
		
			<circle clip-path="url(#XMLID_4_)" fill="#FFFFFF" stroke="#B5935B" stroke-linejoin="round" stroke-miterlimit="10" cx="35.8" cy="36.8" r="2.2"/>
		
			<line clip-path="url(#XMLID_4_)" fill="none" stroke="#B5935B" stroke-linejoin="round" stroke-miterlimit="10" x1="36.2" y1="27.2" x2="60.2" y2="27.2"/>
		
			<line clip-path="url(#XMLID_4_)" fill="none" stroke="#B5935B" stroke-linejoin="round" stroke-miterlimit="10" x1="33.4" y1="36.8" x2="13.8" y2="36.8"/>
		
			<use xlink:href="#XMLID_506_"  overflow="visible" fill="none" stroke="#B5935B" stroke-linejoin="round" stroke-miterlimit="10"/>
	</g>
</g>
</svg>
