<?xml version="1.0" encoding="utf-8"?>
<!-- Generator: Adobe Illustrator 18.1.1, SVG Export Plug-In . SVG Version: 6.00 Build 0)  -->
<!DOCTYPE svg PUBLIC "-//W3C//DTD SVG 1.1//EN" "http://www.w3.org/Graphics/SVG/1.1/DTD/svg11.dtd" [
	<!ENTITY ns_extend "http://ns.adobe.com/Extensibility/1.0/">
	<!ENTITY ns_ai "http://ns.adobe.com/AdobeIllustrator/10.0/">
	<!ENTITY ns_graphs "http://ns.adobe.com/Graphs/1.0/">
	<!ENTITY ns_vars "http://ns.adobe.com/Variables/1.0/">
	<!ENTITY ns_imrep "http://ns.adobe.com/ImageReplacement/1.0/">
	<!ENTITY ns_sfw "http://ns.adobe.com/SaveForWeb/1.0/">
	<!ENTITY ns_custom "http://ns.adobe.com/GenericCustomNamespace/1.0/">
	<!ENTITY ns_adobe_xpath "http://ns.adobe.com/XPath/1.0/">
]>
<svg version="1.1" id="Layer_1" xmlns:x="&ns_extend;" xmlns:i="&ns_ai;" xmlns:graph="&ns_graphs;"
	 xmlns="http://www.w3.org/2000/svg" xmlns:xlink="http://www.w3.org/1999/xlink" x="0px" y="0px" viewBox="0 0 65.5 65.5"
	 enable-background="new 0 0 65.5 65.5" xml:space="preserve">
<metadata>
	<sfw  xmlns="&ns_sfw;">
		<slices></slices>
		<sliceSourceBounds  width="77.7" height="94.1" y="-586.8" x="920.5" bottomLeftOrigin="true"></sliceSourceBounds>
	</sfw>
</metadata>
<pattern  x="-921.7" y="-507" width="16" height="15.8" patternUnits="userSpaceOnUse" id="tabl2" viewBox="18.2 -33.7 16 15.8" overflow="visible">
	<g>
		<polygon fill="none" points="18.2,-33.7 34.2,-33.7 34.2,-17.9 18.2,-17.9 		"/>
		<g>
			<path fill="#EFECDA" d="M38.9,0c-1.7,0.1-3.3-0.5-4.5-1.7l-0.8-0.9c-2.1-2.2-2.1-5.8,0.2-7.9l8.4-8.1c0.9-0.9,2.1-1.4,3.4-1.5
				c1.7-0.1,3.3,0.5,4.5,1.7l0.8,0.9c2.1,2.2,2.1,5.8-0.2,7.9l-8.4,8.1C41.4-0.7,40.2-0.1,38.9,0L38.9,0z"/>
		</g>
		<g>
			<path fill="#EFECDA" d="M22.9,0c-1.7,0.1-3.3-0.5-4.5-1.7l-0.8-0.9c-2.1-2.2-2.1-5.8,0.2-7.9l8.4-8.1c0.9-0.9,2.1-1.4,3.4-1.5
				c1.7-0.1,3.3,0.5,4.5,1.7l0.8,0.9c2.1,2.2,2.1,5.8-0.2,7.9l-8.4,8.1C25.4-0.7,24.2-0.1,22.9,0L22.9,0z"/>
			<path fill="#C1BDA8" d="M30-17.6c-0.8,0-1.6,0.3-2.2,0.9l-3.5,3.3l5.1,5.4l3.5-3.3c0.6-0.6,0.9-1.4,1-2.2c0-0.8-0.3-1.6-0.9-2.2
				l-0.8-0.9C31.7-17.3,30.9-17.6,30-17.6 M30-18.6c1.1,0,2.2,0.4,3,1.3l0.8,0.9c1.6,1.6,1.5,4.2-0.1,5.8l-4.2,4l-6.5-6.8l4.2-4
				C28-18.3,29-18.6,30-18.6L30-18.6z"/>
		</g>
		<g>
			<path fill="#EFECDA" d="M6.9,0C5.2,0.1,3.6-0.5,2.4-1.7L1.6-2.6c-2.1-2.2-2.1-5.8,0.2-7.9l8.4-8.1c0.9-0.9,2.1-1.4,3.4-1.5
				c1.7-0.1,3.3,0.5,4.5,1.7l0.8,0.9c2.1,2.2,2.1,5.8-0.2,7.9l-8.4,8.1C9.4-0.7,8.2-0.1,6.9,0L6.9,0z"/>
			<path fill="#C1BDA8" d="M14-17.6c-0.8,0-1.6,0.3-2.2,0.9l-3.5,3.3l5.1,5.4l3.5-3.3c0.6-0.6,0.9-1.4,1-2.2c0-0.8-0.3-1.6-0.9-2.2
				l-0.8-0.9C15.7-17.3,14.9-17.6,14-17.6 M14-18.6c1.1,0,2.2,0.4,3,1.3l0.8,0.9c1.6,1.6,1.5,4.2-0.1,5.8l-4.2,4l-6.5-6.8l4.2-4
				C12-18.3,13-18.6,14-18.6L14-18.6z"/>
		</g>
		<g>
			<path fill="#EFECDA" d="M38.9-15.8c-1.7,0.1-3.3-0.5-4.5-1.7l-0.8-0.9c-2.1-2.2-2.1-5.8,0.2-7.9l8.4-8.1c0.9-0.9,2.1-1.4,3.4-1.5
				c1.7-0.1,3.3,0.5,4.5,1.7l0.8,0.9c2.1,2.2,2.1,5.8-0.2,7.9l-8.4,8.1C41.4-16.4,40.2-15.9,38.9-15.8L38.9-15.8z"/>
			<path fill="#C1BDA8" d="M34.7-25.2c-1.6,1.6-1.7,4.2-0.1,5.8l0.8,0.9c1.6,1.6,4.2,1.7,5.8,0.1l4.2-4l-6.5-6.8L34.7-25.2z"/>
		</g>
		<g>
			<path fill="#EFECDA" d="M22.9-15.8c-1.7,0.1-3.3-0.5-4.5-1.7l-0.8-0.9c-2.1-2.2-2.1-5.8,0.2-7.9l8.4-8.1c0.9-0.9,2.1-1.4,3.4-1.5
				c1.7-0.1,3.3,0.5,4.5,1.7l0.8,0.9c2.1,2.2,2.1,5.8-0.2,7.9l-8.4,8.1C25.4-16.4,24.2-15.9,22.9-15.8L22.9-15.8z"/>
			<path fill="#C1BDA8" d="M18.7-25.2c-1.6,1.6-1.7,4.2-0.1,5.8l0.8,0.9c1.6,1.6,4.2,1.7,5.8,0.1l4.2-4l-6.5-6.8L18.7-25.2z"/>
			<path fill="#C1BDA8" d="M30-33.4c-0.8,0-1.6,0.3-2.2,0.9l-3.5,3.3l5.1,5.4l3.5-3.3c0.6-0.6,0.9-1.4,1-2.2c0-0.8-0.3-1.6-0.9-2.2
				l-0.8-0.9C31.7-33.1,30.9-33.4,30-33.4 M30-34.4c1.1,0,2.2,0.4,3,1.3l0.8,0.9c1.6,1.6,1.5,4.2-0.1,5.8l-4.2,4l-6.5-6.8l4.2-4
				C28-34,29-34.4,30-34.4L30-34.4z"/>
		</g>
		<g>
			<path fill="#EFECDA" d="M6.9-15.8c-1.7,0.1-3.3-0.5-4.5-1.7l-0.8-0.9c-2.1-2.2-2.1-5.8,0.2-7.9l8.4-8.1c0.9-0.9,2.1-1.4,3.4-1.5
				c1.7-0.1,3.3,0.5,4.5,1.7l0.8,0.9c2.1,2.2,2.1,5.8-0.2,7.9l-8.4,8.1C9.4-16.4,8.2-15.9,6.9-15.8L6.9-15.8z"/>
			<path fill="#C1BDA8" d="M14-33.4c-0.8,0-1.6,0.3-2.2,0.9l-3.5,3.3l5.1,5.4l3.5-3.3c0.6-0.6,0.9-1.4,1-2.2c0-0.8-0.3-1.6-0.9-2.2
				l-0.8-0.9C15.7-33.1,14.9-33.4,14-33.4 M14-34.4c1.1,0,2.2,0.4,3,1.3l0.8,0.9c1.6,1.6,1.5,4.2-0.1,5.8l-4.2,4l-6.5-6.8l4.2-4
				C12-34,13-34.4,14-34.4L14-34.4z"/>
		</g>
		<g>
			<path fill="#EFECDA" d="M38.9-31.5c-1.7,0.1-3.3-0.5-4.5-1.7l-0.8-0.9c-2.1-2.2-2.1-5.8,0.2-7.9l8.4-8.1c0.9-0.9,2.1-1.4,3.4-1.5
				c1.7-0.1,3.3,0.5,4.5,1.7l0.8,0.9c2.1,2.2,2.1,5.8-0.2,7.9l-8.4,8.1C41.4-32.2,40.2-31.6,38.9-31.5L38.9-31.5z"/>
			<path fill="#C1BDA8" d="M34.7-40.9c-1.6,1.6-1.7,4.2-0.1,5.8l0.8,0.9c1.6,1.6,4.2,1.7,5.8,0.1l4.2-4L38.9-45L34.7-40.9z"/>
		</g>
		<g>
			<path fill="#EFECDA" d="M22.9-31.5c-1.7,0.1-3.3-0.5-4.5-1.7l-0.8-0.9c-2.1-2.2-2.1-5.8,0.2-7.9l8.4-8.1c0.9-0.9,2.1-1.4,3.4-1.5
				c1.7-0.1,3.3,0.5,4.5,1.7l0.8,0.9c2.1,2.2,2.1,5.8-0.2,7.9l-8.4,8.1C25.4-32.2,24.2-31.6,22.9-31.5L22.9-31.5z"/>
			<path fill="#C1BDA8" d="M18.7-40.9c-1.6,1.6-1.7,4.2-0.1,5.8l0.8,0.9c1.6,1.6,4.2,1.7,5.8,0.1l4.2-4L22.9-45L18.7-40.9z"/>
		</g>
		<g>
			<path fill="#EFECDA" d="M6.9-31.5c-1.7,0.1-3.3-0.5-4.5-1.7l-0.8-0.9c-2.1-2.2-2.1-5.8,0.2-7.9l8.4-8.1c0.9-0.9,2.1-1.4,3.4-1.5
				c1.7-0.1,3.3,0.5,4.5,1.7l0.8,0.9c2.1,2.2,2.1,5.8-0.2,7.9l-8.4,8.1C9.4-32.2,8.2-31.6,6.9-31.5L6.9-31.5z"/>
		</g>
	</g>
</pattern>
<g>
	<g>
		<defs>
			<circle id="XMLID_480_" cx="32.7" cy="32.7" r="31.2"/>
		</defs>
		<use xlink:href="#XMLID_480_"  overflow="visible" fill="#EFECDA"/>
		<clipPath id="XMLID_2_">
			<use xlink:href="#XMLID_480_"  overflow="visible"/>
		</clipPath>
		<rect x="-1.3" y="-0.8" clip-path="url(#XMLID_2_)" fill="url(#tabl2)" width="71.4" height="70.5"/>
		<g clip-path="url(#XMLID_2_)">
			<defs>
				<rect id="XMLID_482_" x="31.6" y="-13.8" width="44.4" height="93.1"/>
			</defs>
			<use xlink:href="#XMLID_482_"  overflow="visible" fill="#64625F"/>
			<clipPath id="XMLID_3_">
				<use xlink:href="#XMLID_482_"  overflow="visible"/>
			</clipPath>
			
				<line clip-path="url(#XMLID_3_)" fill="none" stroke="#C1BDA8" stroke-miterlimit="10" x1="33.9" y1="-4.7" x2="33.9" y2="76.5"/>
			
				<line clip-path="url(#XMLID_3_)" fill="none" stroke="#C1BDA8" stroke-miterlimit="10" x1="67.1" y1="16.9" x2="49.5" y2="16.9"/>
			
				<line clip-path="url(#XMLID_3_)" fill="none" stroke="#C1BDA8" stroke-miterlimit="10" x1="67.1" y1="26.9" x2="49.5" y2="26.9"/>
			
				<line clip-path="url(#XMLID_3_)" fill="none" stroke="#C1BDA8" stroke-miterlimit="10" x1="67.1" y1="36.9" x2="49.5" y2="36.9"/>
			
				<line clip-path="url(#XMLID_3_)" fill="none" stroke="#C1BDA8" stroke-miterlimit="10" x1="67.1" y1="46.9" x2="49.5" y2="46.9"/>
			<use xlink:href="#XMLID_482_"  overflow="visible" fill="none" stroke="#C1BDA8" stroke-miterlimit="10"/>
		</g>
		<use xlink:href="#XMLID_480_"  overflow="visible" fill="none" stroke="#C1BDA8" stroke-width="3" stroke-miterlimit="10"/>
	</g>
	<g>
		<line fill="none" stroke="#D9D6C0" stroke-miterlimit="10" x1="46.3" y1="14.3" x2="41.1" y2="19.5"/>
		<line fill="none" stroke="#D9D6C0" stroke-miterlimit="10" x1="41.1" y1="14.3" x2="46.3" y2="19.5"/>
	</g>
	<g>
		<line fill="none" stroke="#D9D6C0" stroke-miterlimit="10" x1="46.3" y1="24" x2="41.1" y2="29.2"/>
		<line fill="none" stroke="#D9D6C0" stroke-miterlimit="10" x1="41.1" y1="24" x2="46.3" y2="29.2"/>
	</g>
	<g>
		<line fill="none" stroke="#D9D6C0" stroke-miterlimit="10" x1="46.3" y1="33.7" x2="41.1" y2="38.9"/>
		<line fill="none" stroke="#D9D6C0" stroke-miterlimit="10" x1="41.1" y1="33.7" x2="46.3" y2="38.9"/>
	</g>
	<g>
		<line fill="none" stroke="#D9D6C0" stroke-miterlimit="10" x1="46.3" y1="43.5" x2="41.1" y2="48.6"/>
		<line fill="none" stroke="#D9D6C0" stroke-miterlimit="10" x1="41.1" y1="43.5" x2="46.3" y2="48.6"/>
	</g>
</g>
</svg>
