<?xml version="1.0" encoding="utf-8"?>
<!-- Generator: Adobe Illustrator 18.1.1, SVG Export Plug-In . SVG Version: 6.00 Build 0)  -->
<!DOCTYPE svg PUBLIC "-//W3C//DTD SVG 1.1//EN" "http://www.w3.org/Graphics/SVG/1.1/DTD/svg11.dtd" [
	<!ENTITY ns_extend "http://ns.adobe.com/Extensibility/1.0/">
	<!ENTITY ns_ai "http://ns.adobe.com/AdobeIllustrator/10.0/">
	<!ENTITY ns_graphs "http://ns.adobe.com/Graphs/1.0/">
	<!ENTITY ns_vars "http://ns.adobe.com/Variables/1.0/">
	<!ENTITY ns_imrep "http://ns.adobe.com/ImageReplacement/1.0/">
	<!ENTITY ns_sfw "http://ns.adobe.com/SaveForWeb/1.0/">
	<!ENTITY ns_custom "http://ns.adobe.com/GenericCustomNamespace/1.0/">
	<!ENTITY ns_adobe_xpath "http://ns.adobe.com/XPath/1.0/">
]>
<svg version="1.1" id="Layer_1" xmlns:x="&ns_extend;" xmlns:i="&ns_ai;" xmlns:graph="&ns_graphs;"
	 xmlns="http://www.w3.org/2000/svg" xmlns:xlink="http://www.w3.org/1999/xlink" x="0px" y="0px" viewBox="0 0 71.1 58.1"
	 enable-background="new 0 0 71.1 58.1" xml:space="preserve">
<metadata>
	<sfw  xmlns="&ns_sfw;">
		<slices></slices>
		<sliceSourceBounds  width="72.9" height="67.7" y="-574.2" x="923" bottomLeftOrigin="true"></sliceSourceBounds>
	</sfw>
</metadata>
<g>
	<rect x="8.8" y="0" fill="#C1BDA8" width="62.3" height="58.1"/>
	<g>
		<defs>
			<rect id="SVGID_1_" x="12.2" y="3.1" width="55.6" height="49.4"/>
		</defs>
		<clipPath id="SVGID_2_">
			<use xlink:href="#SVGID_1_"  overflow="visible"/>
		</clipPath>
	</g>
	<g>
		<defs>
			<rect id="XMLID_527_" x="12" y="3.1" width="55.8" height="52.4"/>
		</defs>
		<use xlink:href="#XMLID_527_"  overflow="visible" fill="#EFEAD9"/>
		<clipPath id="XMLID_2_">
			<use xlink:href="#XMLID_527_"  overflow="visible"/>
		</clipPath>
	</g>
	<g>
		<g>
			<rect x="46.9" y="37.8" fill="#C1BDA8" width="13" height="3"/>
			<rect x="46.9" y="44.8" fill="#C1BDA8" width="13" height="3"/>
		</g>
		<polygon fill="#64625F" points="15.9,38.7 15.8,47.3 2.3,47.4 2.4,38.8 		"/>
		<g>
			<defs>
				<circle id="XMLID_525_" cx="35.3" cy="40.9" r="14.7"/>
			</defs>
			<use xlink:href="#XMLID_525_"  overflow="visible" fill="#64625F"/>
			<clipPath id="XMLID_3_">
				<use xlink:href="#XMLID_525_"  overflow="visible"/>
			</clipPath>
			<g id="Layer_2_3_" clip-path="url(#XMLID_3_)">
				<g>
					<path fill="#C1BDA8" d="M33.2,41.3C31.5,43,23.6,51.5,24,51.7c0.4,0.2,8.2-6.9,10.3-9.2c-0.2-0.1-0.4-0.2-0.6-0.4
						C33.5,41.9,33.3,41.6,33.2,41.3z"/>
					<path fill="#A5A08C" d="M35,38.1l-1.2,1.2c-0.5,0.5-0.7,1.3-0.5,1.9c0.1,0.3,0.3,0.6,0.5,0.8c0.2,0.2,0.4,0.3,0.6,0.4
						c0.7,0.3,1.6,0.2,2.2-0.4l1.1-1.1c-0.5-0.3-1.1-0.6-1.5-1C35.6,39.5,35.3,38.8,35,38.1z"/>
					<polygon fill="#A5A08C" points="65,9.6 62.8,11.9 64.4,13.4 64.5,13.6 66.8,11.3 65.9,10.5 					"/>
					<path fill="#D9D6C0" d="M62.2,17.4c0.2,0.2,0.2,0.6,0,0.8c-0.2,0.2-0.6,0.2-0.8,0l-0.9-0.9l-2.2,2.1l0.9,0.9
						c0.2,0.2,0.2,0.6,0,0.8c-0.2,0.2-0.6,0.2-0.8,0l-0.9-0.9l-2.4,2.4l0.9,0.9c0.2,0.2,0.2,0.6,0,0.8c-0.2,0.2-0.6,0.2-0.8,0
						l-0.9-0.9l-2,2.1l2.3,2.3c0.4,0.4,0.3,0.9-0.1,1.3c-0.3,0.3-0.6,0.3-1,0.1l-9.3,9.4c0,0,0,0,0,0c0,0,0,0,0,0
						c-1.8,1.8-4.6,1.8-6.4,0c-1.7-1.7-1.8-4.4-0.3-6.2c0.1-0.1,0.2-0.2,0.3-0.3l9.4-9.3c-0.2-0.4-0.1-0.9,0.2-1.2
						c0.4-0.4,0.9-0.3,1.3,0.1l2.2,2.1l2-2l-1-1c-0.2-0.2-0.2-0.6,0-0.8c0.2-0.2,0.6-0.2,0.8,0l1,1l2.4-2.4l-1-1
						c-0.2-0.2-0.2-0.6,0-0.8s0.6-0.2,0.8,0l1,1l2.2-2.1l-1-1c-0.2-0.2-0.2-0.6,0-0.8c0.2-0.2,0.6-0.2,0.8,0l1,1l3-3.2l1.6,1.6
						l-1.6-1.6l-2.4-2.4c-0.8-0.8-2-0.8-2.8,0L36.2,31c-0.2,0.2-0.3,0.3-0.5,0.5c-1.6,1.9-1.8,4.6-0.8,6.8c0.3,0.7,0.8,1.3,1.3,1.9
						c0.4,0.4,0.9,0.7,1.3,1c2.4,1.4,5.6,1.1,7.7-1c0,0,0,0,0,0c0,0,0,0,0,0l21.5-21.5c0.8-0.8,0.8-2,0-2.8l-2.4-2.4l-3.1,3.1
						L62.2,17.4z"/>
					<path fill="#C1BDA8" d="M47.3,23.1c-0.1-0.1-0.2-0.2-0.2-0.3l-9.3,9.3c-0.1,0.1-0.2,0.2-0.3,0.3c-1.5,1.8-1.3,4.5,0.3,6.2
						c1.8,1.8,4.6,1.8,6.4,0c0,0,0,0,0,0c0,0,0,0,0,0l9.3-9.3c-0.1-0.1-0.2-0.1-0.3-0.2L47.3,23.1z"/>
					<polygon fill="#A5A08C" points="72.9,12.8 63.8,3.7 61.4,6.1 70.5,15.2 					"/>
					<g>
						<path fill="#A5A08C" d="M52.6,25.4l11.9-11.9l-1.7-1.7L50.9,23.7l-2.1-2.1c-0.4-0.4-1.1-0.4-1.5,0c-0.3,0.3-0.4,0.8-0.2,1.2
							c0,0.1,0.1,0.2,0.2,0.3l5.9,5.9c0.1,0.1,0.2,0.2,0.3,0.2c0.4,0.2,0.8,0.1,1.1-0.2c0.4-0.4,0.4-1.1,0-1.5L52.6,25.4z"/>
					</g>
					<g>
						<path fill="#EFECDA" d="M52.8,20.1c-0.2-0.2-0.6-0.2-0.8,0c-0.2,0.2-0.2,0.6,0,0.8l0.9,0.9l1.7,1.7l0.8,0.8
							c0.2,0.2,0.6,0.2,0.8,0c0.2-0.2,0.2-0.6,0-0.8l-0.8-0.8L53.7,21L52.8,20.1z"/>
						<path fill="#EFECDA" d="M55.9,17c-0.2-0.2-0.6-0.2-0.8,0c-0.2,0.2-0.2,0.6,0,0.8l0.9,0.9l1.7,1.7l0.8,0.8
							c0.2,0.2,0.6,0.2,0.8,0s0.2-0.6,0-0.8l-0.8-0.8l-1.7-1.7L55.9,17z"/>
						<path fill="#EFECDA" d="M58.1,14.1c-0.2,0.2-0.2,0.6,0,0.8l0.9,0.9l1.7,1.7l0.8,0.8c0.2,0.2,0.6,0.2,0.8,0
							c0.2-0.2,0.2-0.6,0-0.8l-0.8-0.8l-1.7-1.7l-0.9-0.9C58.6,13.8,58.3,13.8,58.1,14.1z"/>
					</g>
				</g>
			</g>
		</g>
		<g id="Layer_2_4_">
			<g>
				<path fill="#C1BDA8" d="M33.2,41.3C31.5,43,23.6,51.5,24,51.7c0.4,0.2,8.2-6.9,10.3-9.2c-0.2-0.1-0.4-0.2-0.6-0.4
					C33.5,41.9,33.3,41.6,33.2,41.3z"/>
				<path fill="#A5A08C" d="M35,38.1l-1.2,1.2c-0.5,0.5-0.7,1.3-0.5,1.9c0.1,0.3,0.3,0.6,0.5,0.8c0.2,0.2,0.4,0.3,0.6,0.4
					c0.7,0.3,1.6,0.2,2.2-0.4l1.1-1.1c-0.5-0.3-1.1-0.6-1.5-1C35.6,39.5,35.3,38.8,35,38.1z"/>
				<polygon fill="#A5A08C" points="65,9.6 62.8,11.9 64.4,13.4 64.5,13.6 66.8,11.3 65.9,10.5 				"/>
				<path fill="#D9D6C0" d="M62.2,17.4c0.2,0.2,0.2,0.6,0,0.8c-0.2,0.2-0.6,0.2-0.8,0l-0.9-0.9l-2.2,2.1l0.9,0.9
					c0.2,0.2,0.2,0.6,0,0.8c-0.2,0.2-0.6,0.2-0.8,0l-0.9-0.9l-2.4,2.4l0.9,0.9c0.2,0.2,0.2,0.6,0,0.8c-0.2,0.2-0.6,0.2-0.8,0
					l-0.9-0.9l-2,2.1l2.3,2.3c0.4,0.4,0.3,0.9-0.1,1.3c-0.3,0.3-0.6,0.3-1,0.1l-9.3,9.4c0,0,0,0,0,0c0,0,0,0,0,0
					c-1.8,1.8-4.6,1.8-6.4,0c-1.7-1.7-1.8-4.4-0.3-6.2c0.1-0.1,0.2-0.2,0.3-0.3l9.4-9.3c-0.2-0.4-0.1-0.9,0.2-1.2
					c0.4-0.4,0.9-0.3,1.3,0.1l2.2,2.1l2-2l-1-1c-0.2-0.2-0.2-0.6,0-0.8c0.2-0.2,0.6-0.2,0.8,0l1,1l2.4-2.4l-1-1
					c-0.2-0.2-0.2-0.6,0-0.8s0.6-0.2,0.8,0l1,1l2.2-2.1l-1-1c-0.2-0.2-0.2-0.6,0-0.8c0.2-0.2,0.6-0.2,0.8,0l1,1l3-3.2l1.6,1.6
					l-1.6-1.6l-2.4-2.4c-0.8-0.8-2-0.8-2.8,0L36.2,31c-0.2,0.2-0.3,0.3-0.5,0.5c-1.6,1.9-1.8,4.6-0.8,6.8c0.3,0.7,0.8,1.3,1.3,1.9
					c0.4,0.4,0.9,0.7,1.3,1c2.4,1.4,5.6,1.1,7.7-1c0,0,0,0,0,0c0,0,0,0,0,0l21.5-21.5c0.8-0.8,0.8-2,0-2.8l-2.4-2.4l-3.1,3.1
					L62.2,17.4z"/>
				<path fill="#64625F" d="M47.3,23.1c-0.1-0.1-0.2-0.2-0.2-0.3l-9.3,9.3c-0.1,0.1-0.2,0.2-0.3,0.3c-1.5,1.8-1.3,4.5,0.3,6.2
					c1.8,1.8,4.6,1.8,6.4,0c0,0,0,0,0,0c0,0,0,0,0,0l9.3-9.3c-0.1-0.1-0.2-0.1-0.3-0.2L47.3,23.1z"/>
				<polygon fill="#C1BDA8" points="71.1,11.2 63.8,3.7 61.4,6.1 70.5,15.2 				"/>
				<g>
					<path fill="#A5A08C" d="M52.6,25.4l11.9-11.9l-1.7-1.7L50.9,23.7l-2.1-2.1c-0.4-0.4-1.1-0.4-1.5,0c-0.3,0.3-0.4,0.8-0.2,1.2
						c0,0.1,0.1,0.2,0.2,0.3l5.9,5.9c0.1,0.1,0.2,0.2,0.3,0.2c0.4,0.2,0.8,0.1,1.1-0.2c0.4-0.4,0.4-1.1,0-1.5L52.6,25.4z"/>
				</g>
				<g>
					<path fill="#EFECDA" d="M52.8,20.1c-0.2-0.2-0.6-0.2-0.8,0c-0.2,0.2-0.2,0.6,0,0.8l0.9,0.9l1.7,1.7l0.8,0.8
						c0.2,0.2,0.6,0.2,0.8,0c0.2-0.2,0.2-0.6,0-0.8l-0.8-0.8L53.7,21L52.8,20.1z"/>
					<path fill="#EFECDA" d="M55.9,17c-0.2-0.2-0.6-0.2-0.8,0c-0.2,0.2-0.2,0.6,0,0.8l0.9,0.9l1.7,1.7l0.8,0.8
						c0.2,0.2,0.6,0.2,0.8,0s0.2-0.6,0-0.8l-0.8-0.8l-1.7-1.7L55.9,17z"/>
					<path fill="#EFECDA" d="M58.1,14.1c-0.2,0.2-0.2,0.6,0,0.8l0.9,0.9l1.7,1.7l0.8,0.8c0.2,0.2,0.6,0.2,0.8,0
						c0.2-0.2,0.2-0.6,0-0.8l-0.8-0.8l-1.7-1.7l-0.9-0.9C58.6,13.8,58.3,13.8,58.1,14.1z"/>
				</g>
			</g>
		</g>
		<g>
			<defs>
				<path id="XMLID_522_" d="M19.6,41.4c0.1,3.8,1.6,7.5,4.5,10.4c6,6,15.7,6,21.7,0c6-6,6-15.7,0-21.7s-15.7-6-21.7,0
					c-2.6,2.6-4.1,6-4.4,9.5 M20.2,41.7H17l0-2.1c0-0.3-0.1-0.6-0.4-0.9c-0.2-0.2-0.6-0.4-0.9-0.4H1.3c-0.7,0-1.2,0.6-1.2,1.2l0,7.1
					c0,0.3,0.1,0.6,0.4,0.9l0,0C0.6,47.9,0.9,48,1.2,48l14.5,0c0.7,0,1.2-0.6,1.2-1.2l0-2.6h3.2 M2.5,45.5l0-4.6l12,0l0,4.6
					L2.5,45.5z M26.4,49.4c-4.7-4.7-4.7-12.3,0-16.9c4.7-4.7,12.3-4.7,16.9,0s4.7,12.3,0,16.9C38.7,54,31.1,54,26.4,49.4z"/>
			</defs>
			<use xlink:href="#XMLID_522_"  overflow="visible" fill="#A5A08C"/>
			<clipPath id="XMLID_4_">
				<use xlink:href="#XMLID_522_"  overflow="visible"/>
			</clipPath>
			<polygon clip-path="url(#XMLID_4_)" fill="#C1BDA8" points="51.2,25 18.1,67.7 46.9,67.7 68.3,24.2 			"/>
		</g>
	</g>
</g>
</svg>
