<?xml version="1.0" encoding="utf-8"?>
<!-- Generator: Adobe Illustrator 19.0.1, SVG Export Plug-In . SVG Version: 6.00 Build 0)  -->
<svg version="1.1" id="Layer_1" xmlns="http://www.w3.org/2000/svg" xmlns:xlink="http://www.w3.org/1999/xlink" x="0px" y="0px"
	 width="60px" height="60px" viewBox="-361 251 60 60" style="enable-background:new -361 251 60 60;" xml:space="preserve">
<style type="text/css">
	.st0{fill:#FFFFFF;}
	.st1{fill:#626156;}
	.st2{font-family:'OpenSans-Bold';}
	.st3{font-size:11px;}
	.st4{fill:#B9B283;}
</style>
<polygon class="st0" points="-309.3,305.7 -315.3,305.7 -353.3,305.7 -353.3,252.7 -302.3,252.7 -302.3,305.7 "/>
<polygon class="st0" points="-314.3,303 -321.3,310 -359.3,310 -359.3,257 -308.3,257 -308.3,297 "/>
<path class="st1" d="M-349.3,279h31v2h-31V279z"/>
<path class="st1" d="M-349.3,286h31v2h-31V286z"/>
<path class="st1" d="M-349.3,292h20v2h-20V292z"/>
<text transform="matrix(1 0 0 1 -349.2998 272.34)" class="st1 st2 st3">№</text>
<path class="st4" d="M-360.3,256v55h38h2l13-13v-42H-360.3z M-358.3,309v-51h49v39h-11h-2v2v10H-358.3z M-320.3,308.2V299h9.2
	L-320.3,308.2z"/>
<polygon class="st4" points="-354,251 -354,257.7 -352,257.7 -352,253 -303,253 -303,304 -314.3,304 -314.3,306 -301,306 -301,251 
	"/>
</svg>
