<?xml version="1.0" encoding="utf-8"?>
<!-- Generator: Adobe Illustrator 18.1.1, SVG Export Plug-In . SVG Version: 6.00 Build 0)  -->
<!DOCTYPE svg PUBLIC "-//W3C//DTD SVG 1.1//EN" "http://www.w3.org/Graphics/SVG/1.1/DTD/svg11.dtd" [
	<!ENTITY ns_extend "http://ns.adobe.com/Extensibility/1.0/">
	<!ENTITY ns_ai "http://ns.adobe.com/AdobeIllustrator/10.0/">
	<!ENTITY ns_graphs "http://ns.adobe.com/Graphs/1.0/">
	<!ENTITY ns_vars "http://ns.adobe.com/Variables/1.0/">
	<!ENTITY ns_imrep "http://ns.adobe.com/ImageReplacement/1.0/">
	<!ENTITY ns_sfw "http://ns.adobe.com/SaveForWeb/1.0/">
	<!ENTITY ns_custom "http://ns.adobe.com/GenericCustomNamespace/1.0/">
	<!ENTITY ns_adobe_xpath "http://ns.adobe.com/XPath/1.0/">
]>
<svg version="1.1" id="Layer_1" xmlns:x="&ns_extend;" xmlns:i="&ns_ai;" xmlns:graph="&ns_graphs;"
	 xmlns="http://www.w3.org/2000/svg" xmlns:xlink="http://www.w3.org/1999/xlink" x="0px" y="0px" viewBox="0 0 86.5 64"
	 enable-background="new 0 0 86.5 64" xml:space="preserve">
<metadata>
	<sfw  xmlns="&ns_sfw;">
		<slices></slices>
		<sliceSourceBounds  width="89.2" height="72.4" y="-576.1" x="914.8" bottomLeftOrigin="true"></sliceSourceBounds>
	</sfw>
</metadata>
<g>
	<g>
		<defs>
			<circle id="XMLID_477_" cx="54.5" cy="32" r="30.5"/>
		</defs>
		<use xlink:href="#XMLID_477_"  overflow="visible" fill="#64625F"/>
		<clipPath id="XMLID_2_">
			<use xlink:href="#XMLID_477_"  overflow="visible"/>
		</clipPath>
		<polygon clip-path="url(#XMLID_2_)" fill="#A5A08C" points="66.3,-4.6 66.6,67.5 87.3,66.9 85.6,-4.9 		"/>
		<line clip-path="url(#XMLID_2_)" fill="none" stroke="#64625F" stroke-miterlimit="10" x1="56.4" y1="23.6" x2="89.2" y2="23.6"/>
		<use xlink:href="#XMLID_477_"  overflow="visible" fill="none" stroke="#C1BDA8" stroke-width="3" stroke-miterlimit="10"/>
	</g>
	<g>
		<path fill="#C1BDA8" d="M53.2,54.6c1,0.8,2.3,1.3,3.6,1.3l11.8,0c3.1,0,5.7-2.5,5.7-5.7l0-1.2c0-1.7-0.8-3.3-2.1-4.4
			c-1-0.8-2.3-1.3-3.6-1.3l-11.8,0c-3.1,0-5.7,2.5-5.7,5.7l0,1.2C51.1,51.9,51.9,53.5,53.2,54.6L53.2,54.6z"/>
		<path fill="#64625F" d="M56.8,44.8c-2.3,0-4.2,1.9-4.2,4.2l0,1.2c0,2.3,1.9,4.2,4.2,4.2l5.9,0l0-9.6L56.8,44.8z"/>
		<g>
			<path fill="#64625F" d="M68.6,45.8c1.8,0,3.2,1.4,3.2,3.2l0,1.2c0,0.8-0.3,1.6-0.9,2.2c-0.6,0.6-1.4,0.9-2.2,0.9l-4.9,0l0-7.6
				L68.6,45.8L68.6,45.8 M68.6,44.8C68.6,44.8,68.6,44.8,68.6,44.8l-5.9,0l0,9.6l5.9,0c2.3,0,4.2-1.9,4.2-4.2l0-1.2
				C72.8,46.6,70.9,44.8,68.6,44.8L68.6,44.8z"/>
		</g>
	</g>
	<g>
		<g>
			<defs>
				<circle id="XMLID_488_" cx="16" cy="40" r="15.5"/>
			</defs>
			<use xlink:href="#XMLID_488_"  overflow="visible" fill="#FFFFFF"/>
			<clipPath id="XMLID_3_">
				<use xlink:href="#XMLID_488_"  overflow="visible"/>
			</clipPath>
			<ellipse clip-path="url(#XMLID_3_)" fill="#EFECDA" cx="54.4" cy="31.9" rx="32.3" ry="32.2"/>
			<ellipse clip-path="url(#XMLID_3_)" fill="#C1BDA8" cx="54.4" cy="31.9" rx="28.6" ry="28.5"/>
			<use xlink:href="#XMLID_488_"  overflow="visible" fill="none" stroke="#C1BDA8" stroke-miterlimit="10"/>
		</g>
		<g>
			<path fill="#64625F" d="M27.5,39.7l-10.9,5.1c-0.9,0.5-1.9,0.1-2.3-0.8c-0.4-0.9,0-2,0.9-2.5L27.5,39.7z"/>
			<path fill="#A5A08C" d="M16,26.8l1.7,15.6c0.2,1.3-0.6,2.5-1.9,2.7c-0.6,0.1-1.3,0-1.7-0.4c-0.7-0.5-1-1.4-0.8-2.2L16,26.8z"/>
		</g>
	</g>
	
		<line fill="none" stroke="#C1BDA8" stroke-width="2" stroke-miterlimit="10" stroke-dasharray="3" x1="56.6" y1="11.8" x2="75.8" y2="11.8"/>
	<g>
		<g>
			<line fill="none" stroke="#C1BDA8" stroke-width="2" stroke-miterlimit="10" x1="9.4" y1="11.8" x2="56.6" y2="11.8"/>
			<g>
				<polygon fill="#C1BDA8" points="11.3,14.7 0.5,11.8 11.3,8.9 				"/>
			</g>
		</g>
	</g>
	<g>
		<line fill="none" stroke="#D9D6C0" stroke-width="4" stroke-miterlimit="10" x1="40.5" y1="20.9" x2="56.3" y2="36.7"/>
		<line fill="none" stroke="#D9D6C0" stroke-width="4" stroke-miterlimit="10" x1="40.5" y1="36.7" x2="56.3" y2="20.9"/>
	</g>
</g>
</svg>
