<?xml version="1.0" encoding="utf-8"?>
<!-- Generator: Adobe Illustrator 18.1.1, SVG Export Plug-In . SVG Version: 6.00 Build 0)  -->
<!DOCTYPE svg PUBLIC "-//W3C//DTD SVG 1.1//EN" "http://www.w3.org/Graphics/SVG/1.1/DTD/svg11.dtd" [
	<!ENTITY ns_extend "http://ns.adobe.com/Extensibility/1.0/">
	<!ENTITY ns_ai "http://ns.adobe.com/AdobeIllustrator/10.0/">
	<!ENTITY ns_graphs "http://ns.adobe.com/Graphs/1.0/">
	<!ENTITY ns_vars "http://ns.adobe.com/Variables/1.0/">
	<!ENTITY ns_imrep "http://ns.adobe.com/ImageReplacement/1.0/">
	<!ENTITY ns_sfw "http://ns.adobe.com/SaveForWeb/1.0/">
	<!ENTITY ns_custom "http://ns.adobe.com/GenericCustomNamespace/1.0/">
	<!ENTITY ns_adobe_xpath "http://ns.adobe.com/XPath/1.0/">
]>
<svg version="1.1" id="Layer_1" xmlns:x="&ns_extend;" xmlns:i="&ns_ai;" xmlns:graph="&ns_graphs;"
	 xmlns="http://www.w3.org/2000/svg" xmlns:xlink="http://www.w3.org/1999/xlink" x="0px" y="0px" viewBox="0 0 76.2 58.1"
	 enable-background="new 0 0 76.2 58.1" xml:space="preserve">
<metadata>
	<sfw  xmlns="&ns_sfw;">
		<slices></slices>
		<sliceSourceBounds  width="76.2" height="60.7" y="-570.6" x="921.9" bottomLeftOrigin="true"></sliceSourceBounds>
	</sfw>
</metadata>
<g>
	<g>
		<rect x="14" y="0" fill="#C1BDA8" width="62.3" height="58.1"/>
		<g>
			<defs>
				<rect id="XMLID_529_" x="17.2" y="3.1" width="55.8" height="52.4"/>
			</defs>
			<use xlink:href="#XMLID_529_"  overflow="visible" fill="#EFEAD9"/>
			<clipPath id="XMLID_2_">
				<use xlink:href="#XMLID_529_"  overflow="visible"/>
			</clipPath>
			<polygon clip-path="url(#XMLID_2_)" fill="#A5A08C" points="31.3,-1.7 31.3,29.6 2.1,29.6 2.1,-2.5 			"/>
		</g>
	</g>
	<g>
		<g>
			<path fill="#EFECDA" d="M44.3,32.9L22.9,17.2L0.4,32.8c-0.7,0.5-0.4,1.6,0.5,1.6h1.6v1.9H5l-0.1,10H3.4v6.9h37.9v-6.9h-1.6
				l0.1-10h2.4v-1.9h1.6C44.6,34.5,45,33.4,44.3,32.9z"/>
		</g>
		<g>
			<rect x="8.2" y="32.1" fill="#D9D6C0" width="28.4" height="17.4"/>
			<rect x="18.8" y="40.3" fill="#64625F" width="7.2" height="8.7"/>
			<g>
				<g>
					<rect x="7.1" y="33" fill="#C1BDA8" width="1.9" height="16.9"/>
					<rect x="12.8" y="33" fill="#C1BDA8" width="1.9" height="16.9"/>
					<rect x="30.2" y="33" fill="#C1BDA8" width="1.9" height="16.9"/>
					<rect x="35.6" y="33" fill="#C1BDA8" width="1.9" height="16.9"/>
					<g>
						<rect x="6.3" y="44.2" fill="#A5A08C" width="3.5" height="3.6"/>
						<rect x="12" y="44.2" fill="#A5A08C" width="3.5" height="3.6"/>
						<rect x="29.4" y="44.2" fill="#A5A08C" width="3.5" height="3.6"/>
						<rect x="34.8" y="44.2" fill="#A5A08C" width="3.5" height="3.6"/>
					</g>
					<g>
						<rect x="6.4" y="34.6" fill="#A5A08C" width="3.5" height="3.6"/>
						<rect x="12.1" y="34.6" fill="#A5A08C" width="3.5" height="3.6"/>
						<rect x="29.5" y="34.6" fill="#A5A08C" width="3.5" height="3.6"/>
						<rect x="34.9" y="34.6" fill="#A5A08C" width="3.5" height="3.6"/>
					</g>
				</g>
				<g>
					<rect x="4.7" y="47.6" fill="#A5A08C" width="35.2" height="3.7"/>
				</g>
				<g>
					<rect x="3.8" y="32.6" fill="#C1BDA8" width="37" height="2.4"/>
					<path fill="#A5A08C" d="M2.3,33.1c0.5,0,40.1,0,40.1,0L22.9,18.8L2.3,33.1z"/>
					<g>
						<defs>
							<path id="XMLID_526_" d="M9.4,30.9c0.3,0,25.8,0,25.8,0l-12.6-8.7L9.4,30.9z"/>
						</defs>
						<use xlink:href="#XMLID_526_"  overflow="visible" fill="#D9D6C0"/>
						<clipPath id="XMLID_3_">
							<use xlink:href="#XMLID_526_"  overflow="visible"/>
						</clipPath>
					</g>
				</g>
			</g>
		</g>
	</g>
	<g>
		<rect x="52" y="11.7" fill="#C1BDA8" width="13" height="3"/>
		<rect x="52" y="18.7" fill="#C1BDA8" width="13" height="3"/>
	</g>
	<g>
		<rect x="45.8" y="11.7" fill="#C1BDA8" width="3.3" height="3"/>
		<rect x="45.8" y="18.7" fill="#C1BDA8" width="3.3" height="3"/>
	</g>
	<g>
		<rect x="52" y="25.9" fill="#C1BDA8" width="13" height="3"/>
		<rect x="52" y="32.9" fill="#C1BDA8" width="13" height="3"/>
	</g>
	<g>
		<rect x="45.8" y="25.9" fill="#C1BDA8" width="3.3" height="3"/>
		<rect x="45.8" y="32.9" fill="#C1BDA8" width="3.3" height="3"/>
	</g>
</g>
</svg>
