<?xml version="1.0" encoding="utf-8"?>
<!-- Generator: Adobe Illustrator 18.1.1, SVG Export Plug-In . SVG Version: 6.00 Build 0)  -->
<!DOCTYPE svg PUBLIC "-//W3C//DTD SVG 1.1//EN" "http://www.w3.org/Graphics/SVG/1.1/DTD/svg11.dtd" [
	<!ENTITY ns_extend "http://ns.adobe.com/Extensibility/1.0/">
	<!ENTITY ns_ai "http://ns.adobe.com/AdobeIllustrator/10.0/">
	<!ENTITY ns_graphs "http://ns.adobe.com/Graphs/1.0/">
	<!ENTITY ns_vars "http://ns.adobe.com/Variables/1.0/">
	<!ENTITY ns_imrep "http://ns.adobe.com/ImageReplacement/1.0/">
	<!ENTITY ns_sfw "http://ns.adobe.com/SaveForWeb/1.0/">
	<!ENTITY ns_custom "http://ns.adobe.com/GenericCustomNamespace/1.0/">
	<!ENTITY ns_adobe_xpath "http://ns.adobe.com/XPath/1.0/">
]>
<svg version="1.1" id="Layer_1" xmlns:x="&ns_extend;" xmlns:i="&ns_ai;" xmlns:graph="&ns_graphs;"
	 xmlns="http://www.w3.org/2000/svg" xmlns:xlink="http://www.w3.org/1999/xlink" x="0px" y="0px" viewBox="0 0 78.2 58.1"
	 enable-background="new 0 0 78.2 58.1" xml:space="preserve">
<metadata>
	<sfw  xmlns="&ns_sfw;">
		<slices></slices>
		<sliceSourceBounds  width="80" height="64.1" y="-572.3" x="919.9" bottomLeftOrigin="true"></sliceSourceBounds>
	</sfw>
</metadata>
<g>
	<g>
		<g>
			<rect x="16" y="0" fill="#C1BDA8" width="62.3" height="58.1"/>
			<g>
				<defs>
					<rect id="XMLID_436_" x="19.2" y="3.1" width="55.8" height="52.4"/>
				</defs>
				<use xlink:href="#XMLID_436_"  overflow="visible" fill="#EFEAD9"/>
				<clipPath id="XMLID_2_">
					<use xlink:href="#XMLID_436_"  overflow="visible"/>
				</clipPath>
				<g clip-path="url(#XMLID_2_)">
					<rect x="26.3" y="9.4" fill="#A5A08C" width="42" height="3"/>
					<rect x="26.3" y="16.4" fill="#A5A08C" width="42" height="3"/>
					<rect x="26.3" y="23.8" fill="#C1BDA8" width="42" height="3"/>
					<rect x="26.3" y="30.8" fill="#C1BDA8" width="42" height="3"/>
					<rect x="26.3" y="38.1" fill="#C1BDA8" width="42" height="3"/>
					<rect x="26.3" y="45.1" fill="#C1BDA8" width="42" height="3"/>
				</g>
				<polyline clip-path="url(#XMLID_2_)" fill="#64625F" points="-1.7,9.2 53.2,64.1 9,64.1 				"/>
			</g>
		</g>
		<g>
			<path fill="#EFECDA" d="M64.1,6.7c1.3,0.3,2.5,1,3.4,2l1.1,1.1c2.9,2.9,2.9,7.7,0,10.6l-11,11c-1.2,1.2-2.8,2-4.5,2.1
				c-0.9,0.1-1.8,0-2.6-0.2c-1.3-0.3-2.5-1-3.4-2L46,30.2c-2.9-2.9-2.9-7.7,0-10.6l11-11c1.2-1.2,2.8-2,4.5-2.1
				C62.4,6.4,63.3,6.5,64.1,6.7 M64.7,4.5c-1.1-0.3-2.3-0.4-3.4-0.2C59.1,4.5,57,5.5,55.4,7l-11,11c-3.8,3.8-3.8,10,0,13.7l1.1,1.1
				c1.2,1.2,2.8,2.1,4.5,2.6c1.1,0.3,2.3,0.4,3.4,0.2c2.2-0.2,4.3-1.2,5.9-2.8l11-11c1.8-1.8,2.8-4.3,2.8-6.9c0-2.6-1-5-2.8-6.9
				l-1.1-1.1C67.9,5.8,66.4,4.9,64.7,4.5L64.7,4.5z"/>
			<path fill="#C1BDA8" d="M53.2,33.5c1.7-0.2,3.3-0.9,4.5-2.1l11-11c2.9-2.9,2.9-7.7,0-10.6l-1.1-1.1C66,7,63.8,6.2,61.5,6.5
				c-1.7,0.2-3.3,0.9-4.5,2.1l-11,11c-2.9,2.9-2.9,7.7,0,10.6l1.1,1.1C48.7,33,50.9,33.8,53.2,33.5L53.2,33.5z"/>
			<path fill="#64625F" d="M47.4,21.1c-2.2,2.2-2.2,5.6,0,7.8l1.1,1.1c2.1,2.2,5.6,2.2,7.8,0l5.5-5.5l-8.9-8.9L47.4,21.1z"/>
			<path fill="#FFFFFF" d="M61.8,24.5l5.5-5.5c2.2-2.2,2.2-5.6,0-7.8L66.2,10c-2.1-2.1-5.6-2.2-7.8,0l-5.5,5.5L61.8,24.5z"/>
		</g>
	</g>
	<g>
		<circle fill="#FFFFFF" stroke="#C1BDA8" stroke-width="2" stroke-miterlimit="10" cx="16.4" cy="29.1" r="15.4"/>
	</g>
	<g>
		<line fill="none" stroke="#64625F" stroke-width="4" stroke-miterlimit="10" x1="8.8" y1="29.1" x2="24" y2="29.1"/>
		<line fill="none" stroke="#64625F" stroke-width="4" stroke-miterlimit="10" x1="16.4" y1="36.7" x2="16.4" y2="21.4"/>
	</g>
</g>
</svg>
