<?xml version="1.0" encoding="UTF-8"?>
<!-- Generator: Adobe Illustrator 19.0.1, SVG Export Plug-In . SVG Version: 6.00 Build 0)  -->
<svg version="1.1" id="Layer_1" xmlns="http://www.w3.org/2000/svg" xmlns:xlink="http://www.w3.org/1999/xlink" x="0px" y="0px" viewBox="0 0 385 154.9" enable-background="new 0 0 385 154.9" xml:space="preserve">
<pattern x="-293.8" y="-198" width="225" height="150" patternUnits="userSpaceOnUse" id="New_Pattern_3" viewBox="86.2 -260.6 225 150" overflow="visible">
	<g>
		<polygon fill="none" points="86.2,-260.6 311.3,-260.6 311.3,-110.6 86.2,-110.6   "/>
		<g>
			<g>
				<path fill="#F7F6F1" stroke="#C1BDA8" stroke-miterlimit="10" d="M366.5-60.5c0,30.5-24.7,55.3-55.3,55.3S256-30,256-60.5      s24.7-55.3,55.3-55.3S366.5-91,366.5-60.5z"/>
				<path fill="#C1BDA8" stroke="#C1BDA8" stroke-miterlimit="10" d="M361.8-60.5c0,27.9-22.6,50.5-50.5,50.5s-50.5-22.6-50.5-50.5      s22.6-50.5,50.5-50.5S361.8-88.4,361.8-60.5z"/>
			</g>
			<g>
				<path fill="#F7F6F1" stroke="#C1BDA8" stroke-miterlimit="10" d="M336-141.3c0,30.5-24.7,55.3-55.3,55.3s-55.3-24.7-55.3-55.3      s24.7-55.3,55.3-55.3S336-171.8,336-141.3z"/>
				<path fill="#C1BDA8" stroke="#C1BDA8" stroke-miterlimit="10" d="M331.3-141.3c0,27.9-22.6,50.5-50.5,50.5s-50.5-22.6-50.5-50.5      s22.6-50.5,50.5-50.5S331.3-169.1,331.3-141.3z"/>
				<path fill="#F7F6F1" stroke="#C1BDA8" stroke-miterlimit="10" d="M326.3-141.3c0,25.1-20.4,45.5-45.5,45.5s-45.5-20.4-45.5-45.5      s20.4-45.5,45.5-45.5S326.3-166.4,326.3-141.3z"/>
				<path fill="#F7F6F1" stroke="#C1BDA8" stroke-miterlimit="10" d="M321.3-141.3c0,22.4-18.1,40.5-40.5,40.5s-40.5-18.1-40.5-40.5      s18.1-40.5,40.5-40.5S321.3-163.6,321.3-141.3z"/>
				<path fill="#F7F6F1" stroke="#C1BDA8" stroke-miterlimit="10" d="M316.3-141.3c0,19.6-15.9,35.5-35.5,35.5s-35.5-15.9-35.5-35.5      s15.9-35.5,35.5-35.5S316.3-160.9,316.3-141.3z"/>
				<path fill="#C1BDA8" stroke="#C1BDA8" stroke-miterlimit="10" d="M311.3-141.3c0,16.8-13.7,30.5-30.5,30.5s-30.5-13.7-30.5-30.5      s13.7-30.5,30.5-30.5S311.3-158.1,311.3-141.3z"/>
				<path fill="#F7F6F1" stroke="#C1BDA8" stroke-miterlimit="10" d="M306.3-141.3c0,14.1-11.4,25.5-25.5,25.5s-25.5-11.4-25.5-25.5      s11.4-25.5,25.5-25.5S306.3-155.3,306.3-141.3z"/>
				<path fill="#F7F6F1" stroke="#C1BDA8" stroke-miterlimit="10" d="M301.3-141.3c0,11.3-9.2,20.5-20.5,20.5s-20.5-9.2-20.5-20.5      s9.2-20.5,20.5-20.5S301.3-152.6,301.3-141.3z"/>
				<path fill="#F7F6F1" stroke="#C1BDA8" stroke-miterlimit="10" d="M296.3-141.3c0,8.6-6.9,15.5-15.5,15.5s-15.5-6.9-15.5-15.5      s6.9-15.5,15.5-15.5S296.3-149.8,296.3-141.3z"/>
				<path fill="#F7F6F1" stroke="#C1BDA8" stroke-miterlimit="10" d="M291.3-141.3c0,5.8-4.7,10.5-10.5,10.5s-10.5-4.7-10.5-10.5      s4.7-10.5,10.5-10.5S291.3-147,291.3-141.3z"/>
				<path fill="#F7F6F1" stroke="#C1BDA8" stroke-miterlimit="10" d="M286.3-141.3c0,3-2.5,5.5-5.5,5.5s-5.5-2.5-5.5-5.5      s2.5-5.5,5.5-5.5S286.3-144.3,286.3-141.3z"/>
				<path fill="#F7F6F1" stroke="#C1BDA8" stroke-miterlimit="10" d="M281.3-141.3c0,0.3-0.2,0.5-0.5,0.5s-0.5-0.2-0.5-0.5      s0.2-0.5,0.5-0.5S281.3-141.5,281.3-141.3z"/>
			</g>
			<g>
				<path fill="#F7F6F1" stroke="#C1BDA8" stroke-miterlimit="10" d="M417-130.8c0,30.5-24.7,55.3-55.3,55.3s-55.3-24.7-55.3-55.3      s24.7-55.3,55.3-55.3S417-161.3,417-130.8z"/>
				<path fill="#F7F6F1" stroke="#C1BDA8" stroke-miterlimit="10" d="M412.3-130.8c0,27.9-22.6,50.5-50.5,50.5s-50.5-22.6-50.5-50.5      s22.6-50.5,50.5-50.5S412.3-158.6,412.3-130.8z"/>
			</g>
		</g>
		<g>
			<g>
				<path fill="#F7F6F1" stroke="#C1BDA8" stroke-miterlimit="10" d="M223.5-66.3c0,30.5-24.7,55.3-55.3,55.3S113-35.7,113-66.3      s24.7-55.3,55.3-55.3S223.5-96.8,223.5-66.3z"/>
				<path fill="#C1BDA8" stroke="#C1BDA8" stroke-miterlimit="10" d="M218.8-66.3c0,27.9-22.6,50.5-50.5,50.5s-50.5-22.6-50.5-50.5      s22.6-50.5,50.5-50.5S218.8-94.1,218.8-66.3z"/>
				<path fill="#F7F6F1" stroke="#C1BDA8" stroke-miterlimit="10" d="M213.8-66.3c0,25.1-20.4,45.5-45.5,45.5s-45.5-20.4-45.5-45.5      s20.4-45.5,45.5-45.5S213.8-91.4,213.8-66.3z"/>
			</g>
			<g>
				<path fill="#F7F6F1" stroke="#C1BDA8" stroke-miterlimit="10" d="M304.5-55.8c0,30.5-24.7,55.3-55.3,55.3S194-25.2,194-55.8      s24.7-55.3,55.3-55.3S304.5-86.3,304.5-55.8z"/>
			</g>
		</g>
		<g>
			<g>
				<path fill="#F7F6F1" stroke="#C1BDA8" stroke-miterlimit="10" d="M141.5-60.5c0,30.5-24.7,55.3-55.3,55.3S31-30,31-60.5      s24.7-55.3,55.3-55.3S141.5-91,141.5-60.5z"/>
				<path fill="#C1BDA8" stroke="#C1BDA8" stroke-miterlimit="10" d="M136.8-60.5c0,27.9-22.6,50.5-50.5,50.5S35.8-32.6,35.8-60.5      S58.4-111,86.3-111S136.8-88.4,136.8-60.5z"/>
			</g>
			<g>
				<path fill="#F7F6F1" stroke="#C1BDA8" stroke-miterlimit="10" d="M111-141.3C111-110.7,86.3-86,55.8-86S0.5-110.7,0.5-141.3      s24.7-55.3,55.3-55.3S111-171.8,111-141.3z"/>
				<path fill="#C1BDA8" stroke="#C1BDA8" stroke-miterlimit="10" d="M106.3-141.3c0,27.9-22.6,50.5-50.5,50.5S5.3-113.4,5.3-141.3      s22.6-50.5,50.5-50.5S106.3-169.1,106.3-141.3z"/>
				<path fill="#F7F6F1" stroke="#C1BDA8" stroke-miterlimit="10" d="M101.3-141.3c0,25.1-20.4,45.5-45.5,45.5s-45.5-20.4-45.5-45.5      s20.4-45.5,45.5-45.5S101.3-166.4,101.3-141.3z"/>
				<path fill="#F7F6F1" stroke="#C1BDA8" stroke-miterlimit="10" d="M96.3-141.3c0,22.4-18.1,40.5-40.5,40.5s-40.5-18.1-40.5-40.5      s18.1-40.5,40.5-40.5S96.3-163.6,96.3-141.3z"/>
				<path fill="#F7F6F1" stroke="#C1BDA8" stroke-miterlimit="10" d="M91.3-141.3c0,19.6-15.9,35.5-35.5,35.5s-35.5-15.9-35.5-35.5      s15.9-35.5,35.5-35.5S91.3-160.9,91.3-141.3z"/>
				<path fill="#C1BDA8" stroke="#C1BDA8" stroke-miterlimit="10" d="M86.3-141.3c0,16.8-13.7,30.5-30.5,30.5s-30.5-13.7-30.5-30.5      s13.7-30.5,30.5-30.5S86.3-158.1,86.3-141.3z"/>
			</g>
			<g>
				<path fill="#F7F6F1" stroke="#C1BDA8" stroke-miterlimit="10" d="M192-130.8c0,30.5-24.7,55.3-55.3,55.3s-55.3-24.7-55.3-55.3      s24.7-55.3,55.3-55.3S192-161.3,192-130.8z"/>
				<path fill="#F7F6F1" stroke="#C1BDA8" stroke-miterlimit="10" d="M187.3-130.8c0,27.9-22.6,50.5-50.5,50.5s-50.5-22.6-50.5-50.5      s22.6-50.5,50.5-50.5S187.3-158.6,187.3-130.8z"/>
				<path fill="#F7F6F1" stroke="#C1BDA8" stroke-miterlimit="10" d="M182.3-130.8c0,25.1-20.4,45.5-45.5,45.5s-45.5-20.4-45.5-45.5      s20.4-45.5,45.5-45.5S182.3-155.9,182.3-130.8z"/>
				<path fill="#F7F6F1" stroke="#C1BDA8" stroke-miterlimit="10" d="M177.3-130.8c0,22.4-18.1,40.5-40.5,40.5s-40.5-18.1-40.5-40.5      s18.1-40.5,40.5-40.5S177.3-153.1,177.3-130.8z"/>
				<path fill="#C1BDA8" stroke="#C1BDA8" stroke-miterlimit="10" d="M172.3-130.8c0,19.6-15.9,35.5-35.5,35.5s-35.5-15.9-35.5-35.5      s15.9-35.5,35.5-35.5S172.3-150.4,172.3-130.8z"/>
				<path fill="#F7F6F1" stroke="#C1BDA8" stroke-miterlimit="10" d="M167.3-130.8c0,16.8-13.7,30.5-30.5,30.5s-30.5-13.7-30.5-30.5      s13.7-30.5,30.5-30.5S167.3-147.6,167.3-130.8z"/>
				<path fill="#F7F6F1" stroke="#C1BDA8" stroke-miterlimit="10" d="M162.3-130.8c0,14.1-11.4,25.5-25.5,25.5s-25.5-11.4-25.5-25.5      s11.4-25.5,25.5-25.5S162.3-144.8,162.3-130.8z"/>
				<path fill="#F7F6F1" stroke="#C1BDA8" stroke-miterlimit="10" d="M157.3-130.8c0,11.3-9.2,20.5-20.5,20.5s-20.5-9.2-20.5-20.5      s9.2-20.5,20.5-20.5S157.3-142.1,157.3-130.8z"/>
				<path fill="#F7F6F1" stroke="#C1BDA8" stroke-miterlimit="10" d="M152.3-130.8c0,8.6-6.9,15.5-15.5,15.5s-15.5-6.9-15.5-15.5      s6.9-15.5,15.5-15.5S152.3-139.3,152.3-130.8z"/>
				<path fill="#F7F6F1" stroke="#C1BDA8" stroke-miterlimit="10" d="M147.3-130.8c0,5.8-4.7,10.5-10.5,10.5s-10.5-4.7-10.5-10.5      c0-5.8,4.7-10.5,10.5-10.5S147.3-136.5,147.3-130.8z"/>
				<path fill="#F7F6F1" stroke="#C1BDA8" stroke-miterlimit="10" d="M142.3-130.8c0,3-2.5,5.5-5.5,5.5s-5.5-2.5-5.5-5.5      s2.5-5.5,5.5-5.5S142.3-133.8,142.3-130.8z"/>
				<path fill="#F7F6F1" stroke="#C1BDA8" stroke-miterlimit="10" d="M137.3-130.8c0,0.3-0.2,0.5-0.5,0.5s-0.5-0.2-0.5-0.5      s0.2-0.5,0.5-0.5S137.3-131,137.3-130.8z"/>
			</g>
		</g>
		<g>
			<g>
				<path fill="#F7F6F1" stroke="#C1BDA8" stroke-miterlimit="10" d="M366.5-210.5c0,30.5-24.7,55.3-55.3,55.3S256-180,256-210.5      s24.7-55.3,55.3-55.3S366.5-241,366.5-210.5z"/>
				<path fill="#C1BDA8" stroke="#C1BDA8" stroke-miterlimit="10" d="M361.8-210.5c0,27.9-22.6,50.5-50.5,50.5s-50.5-22.6-50.5-50.5      s22.6-50.5,50.5-50.5S361.8-238.4,361.8-210.5z"/>
				<path fill="#F7F6F1" stroke="#C1BDA8" stroke-miterlimit="10" d="M356.8-210.5c0,25.1-20.4,45.5-45.5,45.5s-45.5-20.4-45.5-45.5      s20.4-45.5,45.5-45.5S356.8-235.6,356.8-210.5z"/>
				<path fill="#F7F6F1" stroke="#C1BDA8" stroke-miterlimit="10" d="M351.8-210.5c0,22.4-18.1,40.5-40.5,40.5s-40.5-18.1-40.5-40.5      s18.1-40.5,40.5-40.5S351.8-232.9,351.8-210.5z"/>
				<path fill="#F7F6F1" stroke="#C1BDA8" stroke-miterlimit="10" d="M346.8-210.5c0,19.6-15.9,35.5-35.5,35.5s-35.5-15.9-35.5-35.5      s15.9-35.5,35.5-35.5S346.8-230.1,346.8-210.5z"/>
				<path fill="#F7F6F1" stroke="#C1BDA8" stroke-miterlimit="10" d="M341.8-210.5c0,16.8-13.7,30.5-30.5,30.5s-30.5-13.7-30.5-30.5      s13.7-30.5,30.5-30.5S341.8-227.3,341.8-210.5z"/>
				<path fill="#F7F6F1" stroke="#C1BDA8" stroke-miterlimit="10" d="M336.8-210.5c0,14.1-11.4,25.5-25.5,25.5s-25.5-11.4-25.5-25.5      s11.4-25.5,25.5-25.5S336.8-224.6,336.8-210.5z"/>
				<path fill="#F7F6F1" stroke="#C1BDA8" stroke-miterlimit="10" d="M331.8-210.5c0,11.3-9.2,20.5-20.5,20.5s-20.5-9.2-20.5-20.5      s9.2-20.5,20.5-20.5S331.8-221.8,331.8-210.5z"/>
				<path fill="#F7F6F1" stroke="#C1BDA8" stroke-miterlimit="10" d="M326.8-210.5c0,8.6-6.9,15.5-15.5,15.5s-15.5-6.9-15.5-15.5      s6.9-15.5,15.5-15.5S326.8-219.1,326.8-210.5z"/>
				<path fill="#F7F6F1" stroke="#C1BDA8" stroke-miterlimit="10" d="M321.8-210.5c0,5.8-4.7,10.5-10.5,10.5s-10.5-4.7-10.5-10.5      s4.7-10.5,10.5-10.5S321.8-216.3,321.8-210.5z"/>
				<path fill="#F7F6F1" stroke="#C1BDA8" stroke-miterlimit="10" d="M316.8-210.5c0,3-2.5,5.5-5.5,5.5s-5.5-2.5-5.5-5.5      s2.5-5.5,5.5-5.5S316.8-213.5,316.8-210.5z"/>
				<path fill="#F7F6F1" stroke="#C1BDA8" stroke-miterlimit="10" d="M311.8-210.5c0,0.3-0.2,0.5-0.5,0.5s-0.5-0.2-0.5-0.5      s0.2-0.5,0.5-0.5S311.8-210.8,311.8-210.5z"/>
			</g>
			<g>
				<path fill="#F7F6F1" stroke="#C1BDA8" stroke-miterlimit="10" d="M336-291.3c0,30.5-24.7,55.3-55.3,55.3s-55.3-24.7-55.3-55.3      s24.7-55.3,55.3-55.3S336-321.8,336-291.3z"/>
				<path fill="#C1BDA8" stroke="#C1BDA8" stroke-miterlimit="10" d="M331.3-291.3c0,27.9-22.6,50.5-50.5,50.5s-50.5-22.6-50.5-50.5      s22.6-50.5,50.5-50.5S331.3-319.1,331.3-291.3z"/>
				<path fill="#F7F6F1" stroke="#C1BDA8" stroke-miterlimit="10" d="M326.3-291.3c0,25.1-20.4,45.5-45.5,45.5s-45.5-20.4-45.5-45.5      s20.4-45.5,45.5-45.5S326.3-316.4,326.3-291.3z"/>
				<path fill="#F7F6F1" stroke="#C1BDA8" stroke-miterlimit="10" d="M321.3-291.3c0,22.4-18.1,40.5-40.5,40.5s-40.5-18.1-40.5-40.5      s18.1-40.5,40.5-40.5S321.3-313.6,321.3-291.3z"/>
				<path fill="#F7F6F1" stroke="#C1BDA8" stroke-miterlimit="10" d="M316.3-291.3c0,19.6-15.9,35.5-35.5,35.5s-35.5-15.9-35.5-35.5      s15.9-35.5,35.5-35.5S316.3-310.9,316.3-291.3z"/>
				<path fill="#C1BDA8" stroke="#C1BDA8" stroke-miterlimit="10" d="M311.3-291.3c0,16.8-13.7,30.5-30.5,30.5s-30.5-13.7-30.5-30.5      s13.7-30.5,30.5-30.5S311.3-308.1,311.3-291.3z"/>
			</g>
			<g>
				<path fill="#F7F6F1" stroke="#C1BDA8" stroke-miterlimit="10" d="M417-280.8c0,30.5-24.7,55.3-55.3,55.3s-55.3-24.7-55.3-55.3      s24.7-55.3,55.3-55.3S417-311.3,417-280.8z"/>
				<path fill="#F7F6F1" stroke="#C1BDA8" stroke-miterlimit="10" d="M412.3-280.8c0,27.9-22.6,50.5-50.5,50.5s-50.5-22.6-50.5-50.5      s22.6-50.5,50.5-50.5S412.3-308.6,412.3-280.8z"/>
			</g>
		</g>
		<g>
			<g>
				<path fill="#F7F6F1" stroke="#C1BDA8" stroke-miterlimit="10" d="M254-135.5c0,30.5-24.7,55.3-55.3,55.3s-55.3-24.7-55.3-55.3      s24.7-55.3,55.3-55.3S254-166,254-135.5z"/>
				<path fill="#C1BDA8" stroke="#C1BDA8" stroke-miterlimit="10" d="M249.3-135.5c0,27.9-22.6,50.5-50.5,50.5s-50.5-22.6-50.5-50.5      s22.6-50.5,50.5-50.5S249.3-163.4,249.3-135.5z"/>
				<path fill="#F7F6F1" stroke="#C1BDA8" stroke-miterlimit="10" d="M244.3-135.5c0,25.1-20.4,45.5-45.5,45.5s-45.5-20.4-45.5-45.5      s20.4-45.5,45.5-45.5S244.3-160.6,244.3-135.5z"/>
				<path fill="#F7F6F1" stroke="#C1BDA8" stroke-miterlimit="10" d="M239.3-135.5c0,22.4-18.1,40.5-40.5,40.5s-40.5-18.1-40.5-40.5      s18.1-40.5,40.5-40.5S239.3-157.9,239.3-135.5z"/>
				<path fill="#F7F6F1" stroke="#C1BDA8" stroke-miterlimit="10" d="M234.3-135.5c0,19.6-15.9,35.5-35.5,35.5s-35.5-15.9-35.5-35.5      s15.9-35.5,35.5-35.5S234.3-155.1,234.3-135.5z"/>
				<path fill="#F7F6F1" stroke="#C1BDA8" stroke-miterlimit="10" d="M229.3-135.5c0,16.8-13.7,30.5-30.5,30.5s-30.5-13.7-30.5-30.5      s13.7-30.5,30.5-30.5S229.3-152.3,229.3-135.5z"/>
				<path fill="#F7F6F1" stroke="#C1BDA8" stroke-miterlimit="10" d="M224.3-135.5c0,14.1-11.4,25.5-25.5,25.5s-25.5-11.4-25.5-25.5      s11.4-25.5,25.5-25.5S224.3-149.6,224.3-135.5z"/>
				<path fill="#F7F6F1" stroke="#C1BDA8" stroke-miterlimit="10" d="M219.3-135.5c0,11.3-9.2,20.5-20.5,20.5s-20.5-9.2-20.5-20.5      s9.2-20.5,20.5-20.5S219.3-146.8,219.3-135.5z"/>
				<path fill="#F7F6F1" stroke="#C1BDA8" stroke-miterlimit="10" d="M214.3-135.5c0,8.6-6.9,15.5-15.5,15.5s-15.5-6.9-15.5-15.5      s6.9-15.5,15.5-15.5S214.3-144.1,214.3-135.5z"/>
				<path fill="#F7F6F1" stroke="#C1BDA8" stroke-miterlimit="10" d="M209.3-135.5c0,5.8-4.7,10.5-10.5,10.5s-10.5-4.7-10.5-10.5      S193-146,198.8-146S209.3-141.3,209.3-135.5z"/>
				<path fill="#F7F6F1" stroke="#C1BDA8" stroke-miterlimit="10" d="M204.3-135.5c0,3-2.5,5.5-5.5,5.5s-5.5-2.5-5.5-5.5      s2.5-5.5,5.5-5.5S204.3-138.5,204.3-135.5z"/>
				<path fill="#F7F6F1" stroke="#C1BDA8" stroke-miterlimit="10" d="M199.3-135.5c0,0.3-0.2,0.5-0.5,0.5s-0.5-0.2-0.5-0.5      s0.2-0.5,0.5-0.5S199.3-135.8,199.3-135.5z"/>
			</g>
			<g>
				<path fill="#F7F6F1" stroke="#C1BDA8" stroke-miterlimit="10" d="M223.5-216.3c0,30.5-24.7,55.3-55.3,55.3S113-185.7,113-216.3      s24.7-55.3,55.3-55.3S223.5-246.8,223.5-216.3z"/>
				<path fill="#C1BDA8" stroke="#C1BDA8" stroke-miterlimit="10" d="M218.8-216.3c0,27.9-22.6,50.5-50.5,50.5s-50.5-22.6-50.5-50.5      s22.6-50.5,50.5-50.5S218.8-244.1,218.8-216.3z"/>
				<path fill="#F7F6F1" stroke="#C1BDA8" stroke-miterlimit="10" d="M213.8-216.3c0,25.1-20.4,45.5-45.5,45.5s-45.5-20.4-45.5-45.5      s20.4-45.5,45.5-45.5S213.8-241.4,213.8-216.3z"/>
				<path fill="#F7F6F1" stroke="#C1BDA8" stroke-miterlimit="10" d="M208.8-216.3c0,22.4-18.1,40.5-40.5,40.5s-40.5-18.1-40.5-40.5      s18.1-40.5,40.5-40.5S208.8-238.6,208.8-216.3z"/>
				<path fill="#F7F6F1" stroke="#C1BDA8" stroke-miterlimit="10" d="M203.8-216.3c0,19.6-15.9,35.5-35.5,35.5s-35.5-15.9-35.5-35.5      s15.9-35.5,35.5-35.5S203.8-235.9,203.8-216.3z"/>
				<path fill="#C1BDA8" stroke="#C1BDA8" stroke-miterlimit="10" d="M198.8-216.3c0,16.8-13.7,30.5-30.5,30.5s-30.5-13.7-30.5-30.5      s13.7-30.5,30.5-30.5S198.8-233.1,198.8-216.3z"/>
				<path fill="#F7F6F1" stroke="#C1BDA8" stroke-miterlimit="10" d="M193.8-216.3c0,14.1-11.4,25.5-25.5,25.5s-25.5-11.4-25.5-25.5      s11.4-25.5,25.5-25.5S193.8-230.3,193.8-216.3z"/>
				<path fill="#F7F6F1" stroke="#C1BDA8" stroke-miterlimit="10" d="M188.8-216.3c0,11.3-9.2,20.5-20.5,20.5s-20.5-9.2-20.5-20.5      s9.2-20.5,20.5-20.5S188.8-227.6,188.8-216.3z"/>
				<path fill="#F7F6F1" stroke="#C1BDA8" stroke-miterlimit="10" d="M183.8-216.3c0,8.6-6.9,15.5-15.5,15.5s-15.5-6.9-15.5-15.5      s6.9-15.5,15.5-15.5S183.8-224.8,183.8-216.3z"/>
				<path fill="#F7F6F1" stroke="#C1BDA8" stroke-miterlimit="10" d="M178.8-216.3c0,5.8-4.7,10.5-10.5,10.5s-10.5-4.7-10.5-10.5      s4.7-10.5,10.5-10.5S178.8-222,178.8-216.3z"/>
				<path fill="#F7F6F1" stroke="#C1BDA8" stroke-miterlimit="10" d="M173.8-216.3c0,3-2.5,5.5-5.5,5.5s-5.5-2.5-5.5-5.5      s2.5-5.5,5.5-5.5S173.8-219.3,173.8-216.3z"/>
				<path fill="#F7F6F1" stroke="#C1BDA8" stroke-miterlimit="10" d="M168.8-216.3c0,0.3-0.2,0.5-0.5,0.5s-0.5-0.2-0.5-0.5      s0.2-0.5,0.5-0.5S168.8-216.5,168.8-216.3z"/>
			</g>
			<g>
				<path fill="#F7F6F1" stroke="#C1BDA8" stroke-miterlimit="10" d="M304.5-205.8c0,30.5-24.7,55.3-55.3,55.3S194-175.2,194-205.8      s24.7-55.3,55.3-55.3S304.5-236.3,304.5-205.8z"/>
				<path fill="#F7F6F1" stroke="#C1BDA8" stroke-miterlimit="10" d="M299.8-205.8c0,27.9-22.6,50.5-50.5,50.5s-50.5-22.6-50.5-50.5      s22.6-50.5,50.5-50.5S299.8-233.6,299.8-205.8z"/>
				<path fill="#F7F6F1" stroke="#C1BDA8" stroke-miterlimit="10" d="M294.8-205.8c0,25.1-20.4,45.5-45.5,45.5s-45.5-20.4-45.5-45.5      s20.4-45.5,45.5-45.5S294.8-230.9,294.8-205.8z"/>
				<path fill="#F7F6F1" stroke="#C1BDA8" stroke-miterlimit="10" d="M289.8-205.8c0,22.4-18.1,40.5-40.5,40.5s-40.5-18.1-40.5-40.5      s18.1-40.5,40.5-40.5S289.8-228.1,289.8-205.8z"/>
				<path fill="#C1BDA8" stroke="#C1BDA8" stroke-miterlimit="10" d="M284.8-205.8c0,19.6-15.9,35.5-35.5,35.5s-35.5-15.9-35.5-35.5      s15.9-35.5,35.5-35.5S284.8-225.4,284.8-205.8z"/>
				<path fill="#F7F6F1" stroke="#C1BDA8" stroke-miterlimit="10" d="M279.8-205.8c0,16.8-13.7,30.5-30.5,30.5s-30.5-13.7-30.5-30.5      s13.7-30.5,30.5-30.5S279.8-222.6,279.8-205.8z"/>
				<path fill="#F7F6F1" stroke="#C1BDA8" stroke-miterlimit="10" d="M274.8-205.8c0,14.1-11.4,25.5-25.5,25.5      c-14.1,0-25.5-11.4-25.5-25.5s11.4-25.5,25.5-25.5C263.3-231.3,274.8-219.8,274.8-205.8z"/>
				<path fill="#F7F6F1" stroke="#C1BDA8" stroke-miterlimit="10" d="M269.8-205.8c0,11.3-9.2,20.5-20.5,20.5s-20.5-9.2-20.5-20.5      s9.2-20.5,20.5-20.5S269.8-217.1,269.8-205.8z"/>
				<path fill="#F7F6F1" stroke="#C1BDA8" stroke-miterlimit="10" d="M264.8-205.8c0,8.6-6.9,15.5-15.5,15.5      c-8.6,0-15.5-6.9-15.5-15.5s6.9-15.5,15.5-15.5C257.8-221.3,264.8-214.3,264.8-205.8z"/>
				<path fill="#F7F6F1" stroke="#C1BDA8" stroke-miterlimit="10" d="M259.8-205.8c0,5.8-4.7,10.5-10.5,10.5s-10.5-4.7-10.5-10.5      s4.7-10.5,10.5-10.5S259.8-211.5,259.8-205.8z"/>
				<path fill="#F7F6F1" stroke="#C1BDA8" stroke-miterlimit="10" d="M254.8-205.8c0,3-2.5,5.5-5.5,5.5s-5.5-2.5-5.5-5.5      s2.5-5.5,5.5-5.5S254.8-208.8,254.8-205.8z"/>
				<path fill="#F7F6F1" stroke="#C1BDA8" stroke-miterlimit="10" d="M249.8-205.8c0,0.3-0.2,0.5-0.5,0.5s-0.5-0.2-0.5-0.5      s0.2-0.5,0.5-0.5S249.8-206,249.8-205.8z"/>
			</g>
		</g>
		<g>
			<g>
				<path fill="#F7F6F1" stroke="#C1BDA8" stroke-miterlimit="10" d="M141.5-210.5c0,30.5-24.7,55.3-55.3,55.3S31-180,31-210.5      s24.7-55.3,55.3-55.3S141.5-241,141.5-210.5z"/>
				<path fill="#C1BDA8" stroke="#C1BDA8" stroke-miterlimit="10" d="M136.8-210.5c0,27.9-22.6,50.5-50.5,50.5s-50.5-22.6-50.5-50.5      S58.4-261,86.3-261S136.8-238.4,136.8-210.5z"/>
				<path fill="#F7F6F1" stroke="#C1BDA8" stroke-miterlimit="10" d="M131.8-210.5c0,25.1-20.4,45.5-45.5,45.5s-45.5-20.4-45.5-45.5      S61.1-256,86.3-256S131.8-235.6,131.8-210.5z"/>
				<path fill="#F7F6F1" stroke="#C1BDA8" stroke-miterlimit="10" d="M126.8-210.5c0,22.4-18.1,40.5-40.5,40.5s-40.5-18.1-40.5-40.5      S63.9-251,86.3-251S126.8-232.9,126.8-210.5z"/>
				<path fill="#F7F6F1" stroke="#C1BDA8" stroke-miterlimit="10" d="M121.8-210.5c0,19.6-15.9,35.5-35.5,35.5s-35.5-15.9-35.5-35.5      S66.6-246,86.3-246S121.8-230.1,121.8-210.5z"/>
				<path fill="#F7F6F1" stroke="#C1BDA8" stroke-miterlimit="10" d="M116.8-210.5c0,16.8-13.7,30.5-30.5,30.5s-30.5-13.7-30.5-30.5      S69.4-241,86.3-241S116.8-227.3,116.8-210.5z"/>
				<path fill="#F7F6F1" stroke="#C1BDA8" stroke-miterlimit="10" d="M111.8-210.5c0,14.1-11.4,25.5-25.5,25.5s-25.5-11.4-25.5-25.5      S72.2-236,86.3-236S111.8-224.6,111.8-210.5z"/>
				<path fill="#F7F6F1" stroke="#C1BDA8" stroke-miterlimit="10" d="M106.8-210.5c0,11.3-9.2,20.5-20.5,20.5s-20.5-9.2-20.5-20.5      S74.9-231,86.3-231S106.8-221.8,106.8-210.5z"/>
				<path fill="#F7F6F1" stroke="#C1BDA8" stroke-miterlimit="10" d="M101.8-210.5c0,8.6-6.9,15.5-15.5,15.5s-15.5-6.9-15.5-15.5      S77.7-226,86.3-226S101.8-219.1,101.8-210.5z"/>
				<path fill="#F7F6F1" stroke="#C1BDA8" stroke-miterlimit="10" d="M96.8-210.5c0,5.8-4.7,10.5-10.5,10.5s-10.5-4.7-10.5-10.5      S80.5-221,86.3-221S96.8-216.3,96.8-210.5z"/>
				<path fill="#F7F6F1" stroke="#C1BDA8" stroke-miterlimit="10" d="M91.8-210.5c0,3-2.5,5.5-5.5,5.5s-5.5-2.5-5.5-5.5      s2.5-5.5,5.5-5.5S91.8-213.5,91.8-210.5z"/>
				<path fill="#F7F6F1" stroke="#C1BDA8" stroke-miterlimit="10" d="M86.8-210.5c0,0.3-0.2,0.5-0.5,0.5c-0.3,0-0.5-0.2-0.5-0.5      s0.2-0.5,0.5-0.5C86.5-211,86.8-210.8,86.8-210.5z"/>
			</g>
			<g>
				<path fill="#F7F6F1" stroke="#C1BDA8" stroke-miterlimit="10" d="M111-291.3c0,30.5-24.7,55.3-55.3,55.3S0.5-260.7,0.5-291.3      s24.7-55.3,55.3-55.3S111-321.8,111-291.3z"/>
				<path fill="#C1BDA8" stroke="#C1BDA8" stroke-miterlimit="10" d="M106.3-291.3c0,27.9-22.6,50.5-50.5,50.5S5.3-263.4,5.3-291.3      s22.6-50.5,50.5-50.5S106.3-319.1,106.3-291.3z"/>
				<path fill="#F7F6F1" stroke="#C1BDA8" stroke-miterlimit="10" d="M101.3-291.3c0,25.1-20.4,45.5-45.5,45.5s-45.5-20.4-45.5-45.5      s20.4-45.5,45.5-45.5S101.3-316.4,101.3-291.3z"/>
				<path fill="#F7F6F1" stroke="#C1BDA8" stroke-miterlimit="10" d="M96.3-291.3c0,22.4-18.1,40.5-40.5,40.5s-40.5-18.1-40.5-40.5      s18.1-40.5,40.5-40.5S96.3-313.6,96.3-291.3z"/>
				<path fill="#F7F6F1" stroke="#C1BDA8" stroke-miterlimit="10" d="M91.3-291.3c0,19.6-15.9,35.5-35.5,35.5s-35.5-15.9-35.5-35.5      s15.9-35.5,35.5-35.5S91.3-310.9,91.3-291.3z"/>
				<path fill="#C1BDA8" stroke="#C1BDA8" stroke-miterlimit="10" d="M86.3-291.3c0,16.8-13.7,30.5-30.5,30.5s-30.5-13.7-30.5-30.5      s13.7-30.5,30.5-30.5S86.3-308.1,86.3-291.3z"/>
			</g>
			<g>
				<path fill="#F7F6F1" stroke="#C1BDA8" stroke-miterlimit="10" d="M192-280.8c0,30.5-24.7,55.3-55.3,55.3s-55.3-24.7-55.3-55.3      s24.7-55.3,55.3-55.3S192-311.3,192-280.8z"/>
				<path fill="#F7F6F1" stroke="#C1BDA8" stroke-miterlimit="10" d="M187.3-280.8c0,27.9-22.6,50.5-50.5,50.5s-50.5-22.6-50.5-50.5      s22.6-50.5,50.5-50.5S187.3-308.6,187.3-280.8z"/>
				<path fill="#F7F6F1" stroke="#C1BDA8" stroke-miterlimit="10" d="M182.3-280.8c0,25.1-20.4,45.5-45.5,45.5s-45.5-20.4-45.5-45.5      s20.4-45.5,45.5-45.5S182.3-305.9,182.3-280.8z"/>
				<path fill="#F7F6F1" stroke="#C1BDA8" stroke-miterlimit="10" d="M177.3-280.8c0,22.4-18.1,40.5-40.5,40.5s-40.5-18.1-40.5-40.5      s18.1-40.5,40.5-40.5S177.3-303.1,177.3-280.8z"/>
				<path fill="#C1BDA8" stroke="#C1BDA8" stroke-miterlimit="10" d="M172.3-280.8c0,19.6-15.9,35.5-35.5,35.5s-35.5-15.9-35.5-35.5      s15.9-35.5,35.5-35.5S172.3-300.4,172.3-280.8z"/>
				<path fill="#F7F6F1" stroke="#C1BDA8" stroke-miterlimit="10" d="M167.3-280.8c0,16.8-13.7,30.5-30.5,30.5s-30.5-13.7-30.5-30.5      s13.7-30.5,30.5-30.5S167.3-297.6,167.3-280.8z"/>
				<path fill="#F7F6F1" stroke="#C1BDA8" stroke-miterlimit="10" d="M162.3-280.8c0,14.1-11.4,25.5-25.5,25.5s-25.5-11.4-25.5-25.5      s11.4-25.5,25.5-25.5S162.3-294.8,162.3-280.8z"/>
				<path fill="#F7F6F1" stroke="#C1BDA8" stroke-miterlimit="10" d="M157.3-280.8c0,11.3-9.2,20.5-20.5,20.5s-20.5-9.2-20.5-20.5      s9.2-20.5,20.5-20.5S157.3-292.1,157.3-280.8z"/>
			</g>
		</g>
		<g>
			<g>
				<path fill="#F7F6F1" stroke="#C1BDA8" stroke-miterlimit="10" d="M254-285.5c0,30.5-24.7,55.3-55.3,55.3s-55.3-24.7-55.3-55.3      s24.7-55.3,55.3-55.3S254-316,254-285.5z"/>
				<path fill="#C1BDA8" stroke="#C1BDA8" stroke-miterlimit="10" d="M249.3-285.5c0,27.9-22.6,50.5-50.5,50.5s-50.5-22.6-50.5-50.5      s22.6-50.5,50.5-50.5S249.3-313.4,249.3-285.5z"/>
				<path fill="#F7F6F1" stroke="#C1BDA8" stroke-miterlimit="10" d="M244.3-285.5c0,25.1-20.4,45.5-45.5,45.5s-45.5-20.4-45.5-45.5      s20.4-45.5,45.5-45.5S244.3-310.6,244.3-285.5z"/>
				<path fill="#F7F6F1" stroke="#C1BDA8" stroke-miterlimit="10" d="M239.3-285.5c0,22.4-18.1,40.5-40.5,40.5s-40.5-18.1-40.5-40.5      s18.1-40.5,40.5-40.5S239.3-307.9,239.3-285.5z"/>
				<path fill="#F7F6F1" stroke="#C1BDA8" stroke-miterlimit="10" d="M234.3-285.5c0,19.6-15.9,35.5-35.5,35.5s-35.5-15.9-35.5-35.5      s15.9-35.5,35.5-35.5S234.3-305.1,234.3-285.5z"/>
				<path fill="#F7F6F1" stroke="#C1BDA8" stroke-miterlimit="10" d="M229.3-285.5c0,16.8-13.7,30.5-30.5,30.5s-30.5-13.7-30.5-30.5      s13.7-30.5,30.5-30.5S229.3-302.3,229.3-285.5z"/>
				<path fill="#F7F6F1" stroke="#C1BDA8" stroke-miterlimit="10" d="M224.3-285.5c0,14.1-11.4,25.5-25.5,25.5s-25.5-11.4-25.5-25.5      s11.4-25.5,25.5-25.5S224.3-299.6,224.3-285.5z"/>
			</g>
		</g>
	</g>
</pattern>
<pattern x="-293.8" y="-198" width="225" height="150" patternUnits="userSpaceOnUse" id="spiral2" viewBox="86.2 -260.6 225 150" overflow="visible">
	<g>
		<polygon fill="none" points="86.2,-260.6 311.2,-260.6 311.2,-110.6 86.2,-110.6   "/>
		<g>
			<g>
				<path fill="#F7F6F1" stroke="#C1BDA8" stroke-miterlimit="10" d="M366.5-60.5c0,30.5-24.7,55.3-55.3,55.3S256-30,256-60.5      s24.7-55.3,55.3-55.3S366.5-91,366.5-60.5z"/>
				<path fill="#F7F6F1" stroke="#C1BDA8" stroke-miterlimit="10" d="M361.8-60.5c0,27.9-22.6,50.5-50.5,50.5s-50.5-22.6-50.5-50.5      s22.6-50.5,50.5-50.5S361.8-88.4,361.8-60.5z"/>
			</g>
			<g>
				<path fill="#F7F6F1" stroke="#C1BDA8" stroke-miterlimit="10" d="M336-141.3c0,30.5-24.7,55.3-55.3,55.3s-55.3-24.7-55.3-55.3      s24.7-55.3,55.3-55.3S336-171.8,336-141.3z"/>
				<path fill="#F7F6F1" stroke="#C1BDA8" stroke-miterlimit="10" d="M331.3-141.3c0,27.9-22.6,50.5-50.5,50.5s-50.5-22.6-50.5-50.5      s22.6-50.5,50.5-50.5S331.3-169.1,331.3-141.3z"/>
				<path fill="#F7F6F1" stroke="#C1BDA8" stroke-miterlimit="10" d="M326.3-141.3c0,25.1-20.4,45.5-45.5,45.5s-45.5-20.4-45.5-45.5      s20.4-45.5,45.5-45.5S326.3-166.4,326.3-141.3z"/>
				<path fill="#F7F6F1" stroke="#C1BDA8" stroke-miterlimit="10" d="M321.3-141.3c0,22.4-18.1,40.5-40.5,40.5s-40.5-18.1-40.5-40.5      s18.1-40.5,40.5-40.5S321.3-163.6,321.3-141.3z"/>
				<path fill="#F7F6F1" stroke="#C1BDA8" stroke-miterlimit="10" d="M316.3-141.3c0,19.6-15.9,35.5-35.5,35.5s-35.5-15.9-35.5-35.5      s15.9-35.5,35.5-35.5S316.3-160.9,316.3-141.3z"/>
				<path fill="#F7F6F1" stroke="#C1BDA8" stroke-miterlimit="10" d="M311.3-141.3c0,16.8-13.7,30.5-30.5,30.5s-30.5-13.7-30.5-30.5      s13.7-30.5,30.5-30.5S311.3-158.1,311.3-141.3z"/>
				<path fill="#F7F6F1" stroke="#C1BDA8" stroke-miterlimit="10" d="M306.3-141.3c0,14.1-11.4,25.5-25.5,25.5s-25.5-11.4-25.5-25.5      s11.4-25.5,25.5-25.5S306.3-155.3,306.3-141.3z"/>
				<path fill="#F7F6F1" stroke="#C1BDA8" stroke-miterlimit="10" d="M301.3-141.3c0,11.3-9.2,20.5-20.5,20.5s-20.5-9.2-20.5-20.5      s9.2-20.5,20.5-20.5S301.3-152.6,301.3-141.3z"/>
				<path fill="#F7F6F1" stroke="#C1BDA8" stroke-miterlimit="10" d="M296.3-141.3c0,8.6-6.9,15.5-15.5,15.5s-15.5-6.9-15.5-15.5      s6.9-15.5,15.5-15.5S296.3-149.8,296.3-141.3z"/>
				<path fill="#F7F6F1" stroke="#C1BDA8" stroke-miterlimit="10" d="M291.3-141.3c0,5.8-4.7,10.5-10.5,10.5s-10.5-4.7-10.5-10.5      s4.7-10.5,10.5-10.5S291.3-147,291.3-141.3z"/>
				<path fill="#F7F6F1" stroke="#C1BDA8" stroke-miterlimit="10" d="M286.3-141.3c0,3-2.5,5.5-5.5,5.5s-5.5-2.5-5.5-5.5      s2.5-5.5,5.5-5.5S286.3-144.3,286.3-141.3z"/>
				<path fill="#F7F6F1" stroke="#C1BDA8" stroke-miterlimit="10" d="M281.3-141.3c0,0.3-0.2,0.5-0.5,0.5s-0.5-0.2-0.5-0.5      s0.2-0.5,0.5-0.5S281.3-141.5,281.3-141.3z"/>
			</g>
			<g>
				<path fill="#F7F6F1" stroke="#C1BDA8" stroke-miterlimit="10" d="M417-130.8c0,30.5-24.7,55.3-55.3,55.3s-55.3-24.7-55.3-55.3      s24.7-55.3,55.3-55.3S417-161.3,417-130.8z"/>
				<path fill="#F7F6F1" stroke="#C1BDA8" stroke-miterlimit="10" d="M412.3-130.8c0,27.9-22.6,50.5-50.5,50.5s-50.5-22.6-50.5-50.5      s22.6-50.5,50.5-50.5S412.3-158.6,412.3-130.8z"/>
			</g>
		</g>
		<g>
			<g>
				<path fill="#F7F6F1" stroke="#C1BDA8" stroke-miterlimit="10" d="M223.5-66.3c0,30.5-24.7,55.3-55.3,55.3S113-35.7,113-66.3      s24.7-55.3,55.3-55.3S223.5-96.8,223.5-66.3z"/>
				<path fill="#F7F6F1" stroke="#C1BDA8" stroke-miterlimit="10" d="M218.8-66.3c0,27.9-22.6,50.5-50.5,50.5s-50.5-22.6-50.5-50.5      s22.6-50.5,50.5-50.5S218.8-94.1,218.8-66.3z"/>
				<path fill="#F7F6F1" stroke="#C1BDA8" stroke-miterlimit="10" d="M213.8-66.3c0,25.1-20.4,45.5-45.5,45.5s-45.5-20.4-45.5-45.5      s20.4-45.5,45.5-45.5S213.8-91.4,213.8-66.3z"/>
			</g>
			<g>
				<path fill="#F7F6F1" stroke="#C1BDA8" stroke-miterlimit="10" d="M304.5-55.8c0,30.5-24.7,55.3-55.3,55.3S194-25.2,194-55.8      s24.7-55.3,55.3-55.3S304.5-86.3,304.5-55.8z"/>
			</g>
		</g>
		<g>
			<g>
				<path fill="#F7F6F1" stroke="#C1BDA8" stroke-miterlimit="10" d="M141.5-60.5c0,30.5-24.7,55.3-55.3,55.3S31-30,31-60.5      s24.7-55.3,55.3-55.3S141.5-91,141.5-60.5z"/>
				<path fill="#F7F6F1" stroke="#C1BDA8" stroke-miterlimit="10" d="M136.8-60.5c0,27.9-22.6,50.5-50.5,50.5S35.8-32.6,35.8-60.5      S58.4-111,86.3-111S136.8-88.4,136.8-60.5z"/>
			</g>
			<g>
				<path fill="#F7F6F1" stroke="#C1BDA8" stroke-miterlimit="10" d="M111-141.3C111-110.7,86.3-86,55.7-86S0.5-110.7,0.5-141.3      s24.7-55.3,55.3-55.3S111-171.8,111-141.3z"/>
				<path fill="#F7F6F1" stroke="#C1BDA8" stroke-miterlimit="10" d="M106.3-141.3c0,27.9-22.6,50.5-50.5,50.5S5.2-113.4,5.2-141.3      s22.6-50.5,50.5-50.5S106.3-169.1,106.3-141.3z"/>
				<path fill="#F7F6F1" stroke="#C1BDA8" stroke-miterlimit="10" d="M101.3-141.3c0,25.1-20.4,45.5-45.5,45.5s-45.5-20.4-45.5-45.5      s20.4-45.5,45.5-45.5S101.3-166.4,101.3-141.3z"/>
				<path fill="#F7F6F1" stroke="#C1BDA8" stroke-miterlimit="10" d="M96.3-141.3c0,22.4-18.1,40.5-40.5,40.5s-40.5-18.1-40.5-40.5      s18.1-40.5,40.5-40.5S96.3-163.6,96.3-141.3z"/>
				<path fill="#F7F6F1" stroke="#C1BDA8" stroke-miterlimit="10" d="M91.3-141.3c0,19.6-15.9,35.5-35.5,35.5s-35.5-15.9-35.5-35.5      s15.9-35.5,35.5-35.5S91.3-160.9,91.3-141.3z"/>
				<path fill="#F7F6F1" stroke="#C1BDA8" stroke-miterlimit="10" d="M86.3-141.3c0,16.8-13.7,30.5-30.5,30.5s-30.5-13.7-30.5-30.5      s13.7-30.5,30.5-30.5S86.3-158.1,86.3-141.3z"/>
			</g>
			<g>
				<path fill="#F7F6F1" stroke="#C1BDA8" stroke-miterlimit="10" d="M192-130.8c0,30.5-24.7,55.3-55.3,55.3s-55.3-24.7-55.3-55.3      s24.7-55.3,55.3-55.3S192-161.3,192-130.8z"/>
				<path fill="#F7F6F1" stroke="#C1BDA8" stroke-miterlimit="10" d="M187.3-130.8c0,27.9-22.6,50.5-50.5,50.5s-50.5-22.6-50.5-50.5      s22.6-50.5,50.5-50.5S187.3-158.6,187.3-130.8z"/>
				<path fill="#F7F6F1" stroke="#C1BDA8" stroke-miterlimit="10" d="M182.3-130.8c0,25.1-20.4,45.5-45.5,45.5s-45.5-20.4-45.5-45.5      s20.4-45.5,45.5-45.5S182.3-155.9,182.3-130.8z"/>
				<path fill="#F7F6F1" stroke="#C1BDA8" stroke-miterlimit="10" d="M177.3-130.8c0,22.4-18.1,40.5-40.5,40.5s-40.5-18.1-40.5-40.5      s18.1-40.5,40.5-40.5S177.3-153.1,177.3-130.8z"/>
				<path fill="#F7F6F1" stroke="#C1BDA8" stroke-miterlimit="10" d="M172.3-130.8c0,19.6-15.9,35.5-35.5,35.5s-35.5-15.9-35.5-35.5      s15.9-35.5,35.5-35.5S172.3-150.4,172.3-130.8z"/>
				<path fill="#F7F6F1" stroke="#C1BDA8" stroke-miterlimit="10" d="M167.3-130.8c0,16.8-13.7,30.5-30.5,30.5s-30.5-13.7-30.5-30.5      s13.7-30.5,30.5-30.5S167.3-147.6,167.3-130.8z"/>
				<path fill="#F7F6F1" stroke="#C1BDA8" stroke-miterlimit="10" d="M162.3-130.8c0,14.1-11.4,25.5-25.5,25.5      c-14.1,0-25.5-11.4-25.5-25.5s11.4-25.5,25.5-25.5C150.8-156.3,162.3-144.8,162.3-130.8z"/>
				<path fill="#F7F6F1" stroke="#C1BDA8" stroke-miterlimit="10" d="M157.3-130.8c0,11.3-9.2,20.5-20.5,20.5s-20.5-9.2-20.5-20.5      s9.2-20.5,20.5-20.5S157.3-142.1,157.3-130.8z"/>
				<path fill="#F7F6F1" stroke="#C1BDA8" stroke-miterlimit="10" d="M152.3-130.8c0,8.6-6.9,15.5-15.5,15.5s-15.5-6.9-15.5-15.5      s6.9-15.5,15.5-15.5S152.3-139.3,152.3-130.8z"/>
				<path fill="#F7F6F1" stroke="#C1BDA8" stroke-miterlimit="10" d="M147.3-130.8c0,5.8-4.7,10.5-10.5,10.5      c-5.8,0-10.5-4.7-10.5-10.5c0-5.8,4.7-10.5,10.5-10.5C142.5-141.3,147.3-136.5,147.3-130.8z"/>
				<path fill="#F7F6F1" stroke="#C1BDA8" stroke-miterlimit="10" d="M142.3-130.8c0,3-2.5,5.5-5.5,5.5s-5.5-2.5-5.5-5.5      s2.5-5.5,5.5-5.5S142.3-133.8,142.3-130.8z"/>
				<path fill="#F7F6F1" stroke="#C1BDA8" stroke-miterlimit="10" d="M137.3-130.8c0,0.3-0.2,0.5-0.5,0.5s-0.5-0.2-0.5-0.5      s0.2-0.5,0.5-0.5S137.3-131,137.3-130.8z"/>
			</g>
		</g>
		<g>
			<g>
				<path fill="#F7F6F1" stroke="#C1BDA8" stroke-miterlimit="10" d="M366.5-210.5c0,30.5-24.7,55.3-55.3,55.3S256-180,256-210.5      s24.7-55.3,55.3-55.3S366.5-241,366.5-210.5z"/>
				<path fill="#F7F6F1" stroke="#C1BDA8" stroke-miterlimit="10" d="M361.8-210.5c0,27.9-22.6,50.5-50.5,50.5s-50.5-22.6-50.5-50.5      s22.6-50.5,50.5-50.5S361.8-238.4,361.8-210.5z"/>
				<path fill="#F7F6F1" stroke="#C1BDA8" stroke-miterlimit="10" d="M356.8-210.5c0,25.1-20.4,45.5-45.5,45.5s-45.5-20.4-45.5-45.5      s20.4-45.5,45.5-45.5S356.8-235.6,356.8-210.5z"/>
				<path fill="#F7F6F1" stroke="#C1BDA8" stroke-miterlimit="10" d="M351.8-210.5c0,22.4-18.1,40.5-40.5,40.5s-40.5-18.1-40.5-40.5      s18.1-40.5,40.5-40.5S351.8-232.9,351.8-210.5z"/>
				<path fill="#F7F6F1" stroke="#C1BDA8" stroke-miterlimit="10" d="M346.8-210.5c0,19.6-15.9,35.5-35.5,35.5s-35.5-15.9-35.5-35.5      s15.9-35.5,35.5-35.5S346.8-230.1,346.8-210.5z"/>
				<path fill="#F7F6F1" stroke="#C1BDA8" stroke-miterlimit="10" d="M341.8-210.5c0,16.8-13.7,30.5-30.5,30.5s-30.5-13.7-30.5-30.5      s13.7-30.5,30.5-30.5S341.8-227.3,341.8-210.5z"/>
				<path fill="#F7F6F1" stroke="#C1BDA8" stroke-miterlimit="10" d="M336.8-210.5c0,14.1-11.4,25.5-25.5,25.5s-25.5-11.4-25.5-25.5      s11.4-25.5,25.5-25.5S336.8-224.6,336.8-210.5z"/>
				<path fill="#F7F6F1" stroke="#C1BDA8" stroke-miterlimit="10" d="M331.8-210.5c0,11.3-9.2,20.5-20.5,20.5s-20.5-9.2-20.5-20.5      s9.2-20.5,20.5-20.5S331.8-221.8,331.8-210.5z"/>
				<path fill="#F7F6F1" stroke="#C1BDA8" stroke-miterlimit="10" d="M326.8-210.5c0,8.6-6.9,15.5-15.5,15.5s-15.5-6.9-15.5-15.5      s6.9-15.5,15.5-15.5S326.8-219.1,326.8-210.5z"/>
				<path fill="#F7F6F1" stroke="#C1BDA8" stroke-miterlimit="10" d="M321.8-210.5c0,5.8-4.7,10.5-10.5,10.5s-10.5-4.7-10.5-10.5      s4.7-10.5,10.5-10.5S321.8-216.3,321.8-210.5z"/>
				<path fill="#F7F6F1" stroke="#C1BDA8" stroke-miterlimit="10" d="M316.8-210.5c0,3-2.5,5.5-5.5,5.5s-5.5-2.5-5.5-5.5      s2.5-5.5,5.5-5.5S316.8-213.5,316.8-210.5z"/>
				<path fill="#F7F6F1" stroke="#C1BDA8" stroke-miterlimit="10" d="M311.8-210.5c0,0.3-0.2,0.5-0.5,0.5s-0.5-0.2-0.5-0.5      s0.2-0.5,0.5-0.5S311.8-210.8,311.8-210.5z"/>
			</g>
			<g>
				<path fill="#F7F6F1" stroke="#C1BDA8" stroke-miterlimit="10" d="M336-291.3c0,30.5-24.7,55.3-55.3,55.3s-55.3-24.7-55.3-55.3      s24.7-55.3,55.3-55.3S336-321.8,336-291.3z"/>
				<path fill="#F7F6F1" stroke="#C1BDA8" stroke-miterlimit="10" d="M331.3-291.3c0,27.9-22.6,50.5-50.5,50.5s-50.5-22.6-50.5-50.5      s22.6-50.5,50.5-50.5S331.3-319.1,331.3-291.3z"/>
				<path fill="#F7F6F1" stroke="#C1BDA8" stroke-miterlimit="10" d="M326.3-291.3c0,25.1-20.4,45.5-45.5,45.5s-45.5-20.4-45.5-45.5      s20.4-45.5,45.5-45.5S326.3-316.4,326.3-291.3z"/>
				<path fill="#F7F6F1" stroke="#C1BDA8" stroke-miterlimit="10" d="M321.3-291.3c0,22.4-18.1,40.5-40.5,40.5s-40.5-18.1-40.5-40.5      s18.1-40.5,40.5-40.5S321.3-313.6,321.3-291.3z"/>
				<path fill="#F7F6F1" stroke="#C1BDA8" stroke-miterlimit="10" d="M316.3-291.3c0,19.6-15.9,35.5-35.5,35.5s-35.5-15.9-35.5-35.5      s15.9-35.5,35.5-35.5S316.3-310.9,316.3-291.3z"/>
				<path fill="#F7F6F1" stroke="#C1BDA8" stroke-miterlimit="10" d="M311.3-291.3c0,16.8-13.7,30.5-30.5,30.5s-30.5-13.7-30.5-30.5      s13.7-30.5,30.5-30.5S311.3-308.1,311.3-291.3z"/>
			</g>
			<g>
				<path fill="#F7F6F1" stroke="#C1BDA8" stroke-miterlimit="10" d="M417-280.8c0,30.5-24.7,55.3-55.3,55.3s-55.3-24.7-55.3-55.3      s24.7-55.3,55.3-55.3S417-311.3,417-280.8z"/>
				<path fill="#F7F6F1" stroke="#C1BDA8" stroke-miterlimit="10" d="M412.3-280.8c0,27.9-22.6,50.5-50.5,50.5s-50.5-22.6-50.5-50.5      s22.6-50.5,50.5-50.5S412.3-308.6,412.3-280.8z"/>
			</g>
		</g>
		<g>
			<g>
				<path fill="#F7F6F1" stroke="#C1BDA8" stroke-miterlimit="10" d="M254-135.5c0,30.5-24.7,55.3-55.3,55.3s-55.3-24.7-55.3-55.3      s24.7-55.3,55.3-55.3S254-166,254-135.5z"/>
				<path fill="#F7F6F1" stroke="#C1BDA8" stroke-miterlimit="10" d="M249.3-135.5c0,27.9-22.6,50.5-50.5,50.5s-50.5-22.6-50.5-50.5      s22.6-50.5,50.5-50.5S249.3-163.4,249.3-135.5z"/>
				<path fill="#F7F6F1" stroke="#C1BDA8" stroke-miterlimit="10" d="M244.3-135.5c0,25.1-20.4,45.5-45.5,45.5s-45.5-20.4-45.5-45.5      s20.4-45.5,45.5-45.5S244.3-160.6,244.3-135.5z"/>
				<path fill="#F7F6F1" stroke="#C1BDA8" stroke-miterlimit="10" d="M239.3-135.5c0,22.4-18.1,40.5-40.5,40.5s-40.5-18.1-40.5-40.5      s18.1-40.5,40.5-40.5S239.3-157.9,239.3-135.5z"/>
				<path fill="#F7F6F1" stroke="#C1BDA8" stroke-miterlimit="10" d="M234.3-135.5c0,19.6-15.9,35.5-35.5,35.5s-35.5-15.9-35.5-35.5      s15.9-35.5,35.5-35.5S234.3-155.1,234.3-135.5z"/>
				<path fill="#F7F6F1" stroke="#C1BDA8" stroke-miterlimit="10" d="M229.3-135.5c0,16.8-13.7,30.5-30.5,30.5s-30.5-13.7-30.5-30.5      s13.7-30.5,30.5-30.5S229.3-152.3,229.3-135.5z"/>
				<path fill="#F7F6F1" stroke="#C1BDA8" stroke-miterlimit="10" d="M224.3-135.5c0,14.1-11.4,25.5-25.5,25.5      c-14.1,0-25.5-11.4-25.5-25.5s11.4-25.5,25.5-25.5C212.8-161,224.3-149.6,224.3-135.5z"/>
				<path fill="#F7F6F1" stroke="#C1BDA8" stroke-miterlimit="10" d="M219.3-135.5c0,11.3-9.2,20.5-20.5,20.5s-20.5-9.2-20.5-20.5      s9.2-20.5,20.5-20.5S219.3-146.8,219.3-135.5z"/>
				<path fill="#F7F6F1" stroke="#C1BDA8" stroke-miterlimit="10" d="M214.3-135.5c0,8.6-6.9,15.5-15.5,15.5s-15.5-6.9-15.5-15.5      s6.9-15.5,15.5-15.5S214.3-144.1,214.3-135.5z"/>
				<path fill="#F7F6F1" stroke="#C1BDA8" stroke-miterlimit="10" d="M209.3-135.5c0,5.8-4.7,10.5-10.5,10.5      c-5.8,0-10.5-4.7-10.5-10.5S193-146,198.8-146C204.5-146,209.3-141.3,209.3-135.5z"/>
				<path fill="#F7F6F1" stroke="#C1BDA8" stroke-miterlimit="10" d="M204.3-135.5c0,3-2.5,5.5-5.5,5.5s-5.5-2.5-5.5-5.5      s2.5-5.5,5.5-5.5S204.3-138.5,204.3-135.5z"/>
				<path fill="#F7F6F1" stroke="#C1BDA8" stroke-miterlimit="10" d="M199.3-135.5c0,0.3-0.2,0.5-0.5,0.5s-0.5-0.2-0.5-0.5      s0.2-0.5,0.5-0.5S199.3-135.8,199.3-135.5z"/>
			</g>
			<g>
				<path fill="#F7F6F1" stroke="#C1BDA8" stroke-miterlimit="10" d="M223.5-216.3c0,30.5-24.7,55.3-55.3,55.3S113-185.7,113-216.3      s24.7-55.3,55.3-55.3S223.5-246.8,223.5-216.3z"/>
				<path fill="#F7F6F1" stroke="#C1BDA8" stroke-miterlimit="10" d="M218.8-216.3c0,27.9-22.6,50.5-50.5,50.5s-50.5-22.6-50.5-50.5      s22.6-50.5,50.5-50.5S218.8-244.1,218.8-216.3z"/>
				<path fill="#F7F6F1" stroke="#C1BDA8" stroke-miterlimit="10" d="M213.8-216.3c0,25.1-20.4,45.5-45.5,45.5s-45.5-20.4-45.5-45.5      s20.4-45.5,45.5-45.5S213.8-241.4,213.8-216.3z"/>
				<path fill="#F7F6F1" stroke="#C1BDA8" stroke-miterlimit="10" d="M208.8-216.3c0,22.4-18.1,40.5-40.5,40.5s-40.5-18.1-40.5-40.5      s18.1-40.5,40.5-40.5S208.8-238.6,208.8-216.3z"/>
				<path fill="#F7F6F1" stroke="#C1BDA8" stroke-miterlimit="10" d="M203.8-216.3c0,19.6-15.9,35.5-35.5,35.5s-35.5-15.9-35.5-35.5      s15.9-35.5,35.5-35.5S203.8-235.9,203.8-216.3z"/>
				<path fill="#F7F6F1" stroke="#C1BDA8" stroke-miterlimit="10" d="M198.8-216.3c0,16.8-13.7,30.5-30.5,30.5s-30.5-13.7-30.5-30.5      s13.7-30.5,30.5-30.5S198.8-233.1,198.8-216.3z"/>
				<path fill="#F7F6F1" stroke="#C1BDA8" stroke-miterlimit="10" d="M193.8-216.3c0,14.1-11.4,25.5-25.5,25.5      c-14.1,0-25.5-11.4-25.5-25.5s11.4-25.5,25.5-25.5C182.3-241.8,193.8-230.3,193.8-216.3z"/>
				<path fill="#F7F6F1" stroke="#C1BDA8" stroke-miterlimit="10" d="M188.8-216.3c0,11.3-9.2,20.5-20.5,20.5s-20.5-9.2-20.5-20.5      s9.2-20.5,20.5-20.5S188.8-227.6,188.8-216.3z"/>
				<path fill="#F7F6F1" stroke="#C1BDA8" stroke-miterlimit="10" d="M183.8-216.3c0,8.6-6.9,15.5-15.5,15.5s-15.5-6.9-15.5-15.5      s6.9-15.5,15.5-15.5S183.8-224.8,183.8-216.3z"/>
				<path fill="#F7F6F1" stroke="#C1BDA8" stroke-miterlimit="10" d="M178.8-216.3c0,5.8-4.7,10.5-10.5,10.5      c-5.8,0-10.5-4.7-10.5-10.5s4.7-10.5,10.5-10.5C174-226.8,178.8-222,178.8-216.3z"/>
				<path fill="#F7F6F1" stroke="#C1BDA8" stroke-miterlimit="10" d="M173.8-216.3c0,3-2.5,5.5-5.5,5.5s-5.5-2.5-5.5-5.5      s2.5-5.5,5.5-5.5S173.8-219.3,173.8-216.3z"/>
				<path fill="#F7F6F1" stroke="#C1BDA8" stroke-miterlimit="10" d="M168.8-216.3c0,0.3-0.2,0.5-0.5,0.5s-0.5-0.2-0.5-0.5      s0.2-0.5,0.5-0.5S168.8-216.5,168.8-216.3z"/>
			</g>
			<g>
				<path fill="#F7F6F1" stroke="#C1BDA8" stroke-miterlimit="10" d="M304.5-205.8c0,30.5-24.7,55.3-55.3,55.3S194-175.2,194-205.8      s24.7-55.3,55.3-55.3S304.5-236.3,304.5-205.8z"/>
				<path fill="#F7F6F1" stroke="#C1BDA8" stroke-miterlimit="10" d="M299.8-205.8c0,27.9-22.6,50.5-50.5,50.5s-50.5-22.6-50.5-50.5      s22.6-50.5,50.5-50.5S299.8-233.6,299.8-205.8z"/>
				<path fill="#F7F6F1" stroke="#C1BDA8" stroke-miterlimit="10" d="M294.8-205.8c0,25.1-20.4,45.5-45.5,45.5s-45.5-20.4-45.5-45.5      s20.4-45.5,45.5-45.5S294.8-230.9,294.8-205.8z"/>
				<path fill="#F7F6F1" stroke="#C1BDA8" stroke-miterlimit="10" d="M289.8-205.8c0,22.4-18.1,40.5-40.5,40.5s-40.5-18.1-40.5-40.5      s18.1-40.5,40.5-40.5S289.8-228.1,289.8-205.8z"/>
				<path fill="#F7F6F1" stroke="#C1BDA8" stroke-miterlimit="10" d="M284.8-205.8c0,19.6-15.9,35.5-35.5,35.5s-35.5-15.9-35.5-35.5      s15.9-35.5,35.5-35.5S284.8-225.4,284.8-205.8z"/>
				<path fill="#F7F6F1" stroke="#C1BDA8" stroke-miterlimit="10" d="M279.8-205.8c0,16.8-13.7,30.5-30.5,30.5s-30.5-13.7-30.5-30.5      s13.7-30.5,30.5-30.5S279.8-222.6,279.8-205.8z"/>
				<path fill="#F7F6F1" stroke="#C1BDA8" stroke-miterlimit="10" d="M274.8-205.8c0,14.1-11.4,25.5-25.5,25.5      c-14.1,0-25.5-11.4-25.5-25.5s11.4-25.5,25.5-25.5C263.3-231.3,274.8-219.8,274.8-205.8z"/>
				<path fill="#F7F6F1" stroke="#C1BDA8" stroke-miterlimit="10" d="M269.8-205.8c0,11.3-9.2,20.5-20.5,20.5s-20.5-9.2-20.5-20.5      s9.2-20.5,20.5-20.5S269.8-217.1,269.8-205.8z"/>
				<path fill="#F7F6F1" stroke="#C1BDA8" stroke-miterlimit="10" d="M264.8-205.8c0,8.6-6.9,15.5-15.5,15.5      c-8.6,0-15.5-6.9-15.5-15.5s6.9-15.5,15.5-15.5C257.8-221.3,264.8-214.3,264.8-205.8z"/>
				<path fill="#F7F6F1" stroke="#C1BDA8" stroke-miterlimit="10" d="M259.8-205.8c0,5.8-4.7,10.5-10.5,10.5      c-5.8,0-10.5-4.7-10.5-10.5s4.7-10.5,10.5-10.5C255-216.3,259.8-211.5,259.8-205.8z"/>
				<path fill="#F7F6F1" stroke="#C1BDA8" stroke-miterlimit="10" d="M254.8-205.8c0,3-2.5,5.5-5.5,5.5s-5.5-2.5-5.5-5.5      s2.5-5.5,5.5-5.5S254.8-208.8,254.8-205.8z"/>
				<path fill="#F7F6F1" stroke="#C1BDA8" stroke-miterlimit="10" d="M249.8-205.8c0,0.3-0.2,0.5-0.5,0.5s-0.5-0.2-0.5-0.5      s0.2-0.5,0.5-0.5S249.8-206,249.8-205.8z"/>
			</g>
		</g>
		<g>
			<g>
				<path fill="#F7F6F1" stroke="#C1BDA8" stroke-miterlimit="10" d="M141.5-210.5c0,30.5-24.7,55.3-55.3,55.3S31-180,31-210.5      s24.7-55.3,55.3-55.3S141.5-241,141.5-210.5z"/>
				<path fill="#F7F6F1" stroke="#C1BDA8" stroke-miterlimit="10" d="M136.8-210.5c0,27.9-22.6,50.5-50.5,50.5s-50.5-22.6-50.5-50.5      S58.4-261,86.3-261S136.8-238.4,136.8-210.5z"/>
				<path fill="#F7F6F1" stroke="#C1BDA8" stroke-miterlimit="10" d="M131.8-210.5c0,25.1-20.4,45.5-45.5,45.5s-45.5-20.4-45.5-45.5      S61.1-256,86.3-256S131.8-235.6,131.8-210.5z"/>
				<path fill="#F7F6F1" stroke="#C1BDA8" stroke-miterlimit="10" d="M126.8-210.5c0,22.4-18.1,40.5-40.5,40.5s-40.5-18.1-40.5-40.5      S63.9-251,86.3-251S126.8-232.9,126.8-210.5z"/>
				<path fill="#F7F6F1" stroke="#C1BDA8" stroke-miterlimit="10" d="M121.8-210.5c0,19.6-15.9,35.5-35.5,35.5s-35.5-15.9-35.5-35.5      S66.6-246,86.3-246S121.8-230.1,121.8-210.5z"/>
				<path fill="#F7F6F1" stroke="#C1BDA8" stroke-miterlimit="10" d="M116.8-210.5c0,16.8-13.7,30.5-30.5,30.5s-30.5-13.7-30.5-30.5      S69.4-241,86.3-241S116.8-227.3,116.8-210.5z"/>
				<path fill="#F7F6F1" stroke="#C1BDA8" stroke-miterlimit="10" d="M111.8-210.5c0,14.1-11.4,25.5-25.5,25.5s-25.5-11.4-25.5-25.5      S72.2-236,86.3-236S111.8-224.6,111.8-210.5z"/>
				<path fill="#F7F6F1" stroke="#C1BDA8" stroke-miterlimit="10" d="M106.8-210.5c0,11.3-9.2,20.5-20.5,20.5s-20.5-9.2-20.5-20.5      S74.9-231,86.3-231S106.8-221.8,106.8-210.5z"/>
				<path fill="#F7F6F1" stroke="#C1BDA8" stroke-miterlimit="10" d="M101.8-210.5c0,8.6-6.9,15.5-15.5,15.5s-15.5-6.9-15.5-15.5      S77.7-226,86.3-226S101.8-219.1,101.8-210.5z"/>
				<path fill="#F7F6F1" stroke="#C1BDA8" stroke-miterlimit="10" d="M96.8-210.5c0,5.8-4.7,10.5-10.5,10.5s-10.5-4.7-10.5-10.5      S80.5-221,86.3-221S96.8-216.3,96.8-210.5z"/>
				<path fill="#F7F6F1" stroke="#C1BDA8" stroke-miterlimit="10" d="M91.8-210.5c0,3-2.5,5.5-5.5,5.5s-5.5-2.5-5.5-5.5      s2.5-5.5,5.5-5.5S91.8-213.5,91.8-210.5z"/>
				<path fill="#F7F6F1" stroke="#C1BDA8" stroke-miterlimit="10" d="M86.8-210.5c0,0.3-0.2,0.5-0.5,0.5c-0.3,0-0.5-0.2-0.5-0.5      s0.2-0.5,0.5-0.5C86.5-211,86.8-210.8,86.8-210.5z"/>
			</g>
			<g>
				<path fill="#F7F6F1" stroke="#C1BDA8" stroke-miterlimit="10" d="M111-291.3c0,30.5-24.7,55.3-55.3,55.3S0.5-260.7,0.5-291.3      s24.7-55.3,55.3-55.3S111-321.8,111-291.3z"/>
				<path fill="#F7F6F1" stroke="#C1BDA8" stroke-miterlimit="10" d="M106.3-291.3c0,27.9-22.6,50.5-50.5,50.5S5.2-263.4,5.2-291.3      s22.6-50.5,50.5-50.5S106.3-319.1,106.3-291.3z"/>
				<path fill="#F7F6F1" stroke="#C1BDA8" stroke-miterlimit="10" d="M101.3-291.3c0,25.1-20.4,45.5-45.5,45.5s-45.5-20.4-45.5-45.5      s20.4-45.5,45.5-45.5S101.3-316.4,101.3-291.3z"/>
				<path fill="#F7F6F1" stroke="#C1BDA8" stroke-miterlimit="10" d="M96.3-291.3c0,22.4-18.1,40.5-40.5,40.5s-40.5-18.1-40.5-40.5      s18.1-40.5,40.5-40.5S96.3-313.6,96.3-291.3z"/>
				<path fill="#F7F6F1" stroke="#C1BDA8" stroke-miterlimit="10" d="M91.3-291.3c0,19.6-15.9,35.5-35.5,35.5s-35.5-15.9-35.5-35.5      s15.9-35.5,35.5-35.5S91.3-310.9,91.3-291.3z"/>
				<path fill="#F7F6F1" stroke="#C1BDA8" stroke-miterlimit="10" d="M86.3-291.3c0,16.8-13.7,30.5-30.5,30.5s-30.5-13.7-30.5-30.5      s13.7-30.5,30.5-30.5S86.3-308.1,86.3-291.3z"/>
			</g>
			<g>
				<path fill="#F7F6F1" stroke="#C1BDA8" stroke-miterlimit="10" d="M192-280.8c0,30.5-24.7,55.3-55.3,55.3s-55.3-24.7-55.3-55.3      s24.7-55.3,55.3-55.3S192-311.3,192-280.8z"/>
				<path fill="#F7F6F1" stroke="#C1BDA8" stroke-miterlimit="10" d="M187.3-280.8c0,27.9-22.6,50.5-50.5,50.5s-50.5-22.6-50.5-50.5      s22.6-50.5,50.5-50.5S187.3-308.6,187.3-280.8z"/>
				<path fill="#F7F6F1" stroke="#C1BDA8" stroke-miterlimit="10" d="M182.3-280.8c0,25.1-20.4,45.5-45.5,45.5s-45.5-20.4-45.5-45.5      s20.4-45.5,45.5-45.5S182.3-305.9,182.3-280.8z"/>
				<path fill="#F7F6F1" stroke="#C1BDA8" stroke-miterlimit="10" d="M177.3-280.8c0,22.4-18.1,40.5-40.5,40.5s-40.5-18.1-40.5-40.5      s18.1-40.5,40.5-40.5S177.3-303.1,177.3-280.8z"/>
				<path fill="#F7F6F1" stroke="#C1BDA8" stroke-miterlimit="10" d="M172.3-280.8c0,19.6-15.9,35.5-35.5,35.5s-35.5-15.9-35.5-35.5      s15.9-35.5,35.5-35.5S172.3-300.4,172.3-280.8z"/>
				<path fill="#F7F6F1" stroke="#C1BDA8" stroke-miterlimit="10" d="M167.3-280.8c0,16.8-13.7,30.5-30.5,30.5s-30.5-13.7-30.5-30.5      s13.7-30.5,30.5-30.5S167.3-297.6,167.3-280.8z"/>
				<path fill="#F7F6F1" stroke="#C1BDA8" stroke-miterlimit="10" d="M162.3-280.8c0,14.1-11.4,25.5-25.5,25.5      c-14.1,0-25.5-11.4-25.5-25.5s11.4-25.5,25.5-25.5C150.8-306.3,162.3-294.8,162.3-280.8z"/>
				<path fill="#F7F6F1" stroke="#C1BDA8" stroke-miterlimit="10" d="M157.3-280.8c0,11.3-9.2,20.5-20.5,20.5s-20.5-9.2-20.5-20.5      s9.2-20.5,20.5-20.5S157.3-292.1,157.3-280.8z"/>
			</g>
		</g>
		<g>
			<g>
				<path fill="#F7F6F1" stroke="#C1BDA8" stroke-miterlimit="10" d="M254-285.5c0,30.5-24.7,55.3-55.3,55.3s-55.3-24.7-55.3-55.3      s24.7-55.3,55.3-55.3S254-316,254-285.5z"/>
				<path fill="#F7F6F1" stroke="#C1BDA8" stroke-miterlimit="10" d="M249.3-285.5c0,27.9-22.6,50.5-50.5,50.5s-50.5-22.6-50.5-50.5      s22.6-50.5,50.5-50.5S249.3-313.4,249.3-285.5z"/>
				<path fill="#F7F6F1" stroke="#C1BDA8" stroke-miterlimit="10" d="M244.3-285.5c0,25.1-20.4,45.5-45.5,45.5s-45.5-20.4-45.5-45.5      s20.4-45.5,45.5-45.5S244.3-310.6,244.3-285.5z"/>
				<path fill="#F7F6F1" stroke="#C1BDA8" stroke-miterlimit="10" d="M239.3-285.5c0,22.4-18.1,40.5-40.5,40.5s-40.5-18.1-40.5-40.5      s18.1-40.5,40.5-40.5S239.3-307.9,239.3-285.5z"/>
				<path fill="#F7F6F1" stroke="#C1BDA8" stroke-miterlimit="10" d="M234.3-285.5c0,19.6-15.9,35.5-35.5,35.5s-35.5-15.9-35.5-35.5      s15.9-35.5,35.5-35.5S234.3-305.1,234.3-285.5z"/>
				<path fill="#F7F6F1" stroke="#C1BDA8" stroke-miterlimit="10" d="M229.3-285.5c0,16.8-13.7,30.5-30.5,30.5s-30.5-13.7-30.5-30.5      s13.7-30.5,30.5-30.5S229.3-302.3,229.3-285.5z"/>
				<path fill="#F7F6F1" stroke="#C1BDA8" stroke-miterlimit="10" d="M224.3-285.5c0,14.1-11.4,25.5-25.5,25.5      c-14.1,0-25.5-11.4-25.5-25.5s11.4-25.5,25.5-25.5C212.8-311,224.3-299.6,224.3-285.5z"/>
			</g>
		</g>
	</g>
</pattern>
<g>
	<defs>
		<rect id="XMLID_27_" width="385" height="154.9"/>
	</defs>
	<pattern id="XMLID_3_" xlink:href="#New_Pattern_3" patternTransform="matrix(1 0 0 1 238.2991 10.9952)">
	</pattern>
	<use xlink:href="#XMLID_27_" overflow="visible" fill="url(#XMLID_3_)"/>
	<clipPath id="XMLID_4_">
		<use xlink:href="#XMLID_27_" overflow="visible"/>
	</clipPath>
	<g clip-path="url(#XMLID_4_)">
		<defs>
			<path id="XMLID_28_" d="M186.8-11c0,0,16.5,9.8,11.5,35.1c-16.3,2.7-30.3,25-30.3,25l38.1,88.4c0,0,27.9,4,39.5-6.6     c4.7,4.7,19.9,15.1,41.7,13.4c-7.5,19-8.8,26.8-8.8,26.8l-285-0.5V-12L186.8-11z"/>
		</defs>
		<use xlink:href="#XMLID_28_" overflow="visible" fill="#F7F6F1"/>
		<clipPath id="XMLID_5_">
			<use xlink:href="#XMLID_28_" overflow="visible"/>
		</clipPath>
		<polygon clip-path="url(#XMLID_5_)" fill="#64625F" stroke="#64625F" stroke-miterlimit="10" points="293.3,178.7 -11.9,178.7     -10.4,127.5 293.3,127.5   "/>
		<use xlink:href="#XMLID_28_" overflow="visible" fill="none" stroke="#64625F" stroke-width="3" stroke-miterlimit="10"/>
	</g>
</g>
<g>
	<defs>
		<path id="XMLID_225_" d="M167,49.1c9.5-15.5,26-26.4,45.5-27.9c32.2-2.5,60.3,21.6,62.8,53.8s-21.6,60.3-53.8,62.8    c-13.4,1-26.1-2.5-36.5-9.4"/>
	</defs>
	<pattern id="XMLID_6_" xlink:href="#spiral2" patternTransform="matrix(1 0 0 1 238.2991 10.9952)">
	</pattern>
	<use xlink:href="#XMLID_225_" overflow="visible" fill-rule="evenodd" clip-rule="evenodd" fill="url(#XMLID_6_)"/>
	<clipPath id="XMLID_7_">
		<use xlink:href="#XMLID_225_" overflow="visible"/>
	</clipPath>
	
		<path clip-path="url(#XMLID_7_)" fill-rule="evenodd" clip-rule="evenodd" fill="#F7F6F1" stroke="#C1BDA8" stroke-miterlimit="10" d="   M244.3,62.8c0,0-13.6,19.3-5,41c7.3,18.5,20.5,23.7,20.5,23.7l-49.3,22l-55.3-12l4.9-104.2l14.5,34.3c0,0,19.6,0.8,38.3-20.6   C222.2,58.5,244.3,62.8,244.3,62.8z"/>
	
		<use xlink:href="#XMLID_225_" overflow="visible" fill-rule="evenodd" clip-rule="evenodd" fill="none" stroke="#64625F" stroke-width="3" stroke-linecap="round" stroke-linejoin="round" stroke-miterlimit="10"/>
</g>
<g>
	<path fill="#64625F" d="M228.1,70.2c-8-1.2-32.4,24.3-32.4,24.3s13.6-11.9,18.9-9.6c4.1,1.8-0.6,11.1-0.6,11.1   C218.5,91.2,236.1,71.5,228.1,70.2"/>
	<path fill="#C1BDA8" d="M216.2,104.1c8,1.2,32.4-24.3,32.4-24.3s-13.6,11.9-18.9,9.6c-4.1-1.8,0.6-11.1,0.6-11.1   C225.8,83.2,208.2,102.9,216.2,104.1"/>
	<path fill="#64625F" d="M216.9,86.1c0.6-2.9,3.4-4.7,6.3-4.1c2.9,0.6,4.7,3.4,4.1,6.3c-0.6,2.9-3.4,4.7-6.3,4.1   C218.2,91.8,216.3,89,216.9,86.1"/>
	<path fill="#C1BDA8" d="M223.2,82c-2.9-0.6-5.7,1.2-6.3,4.1c-0.5,2.2,0.5,4.4,2.3,5.6l5.8-9C224.5,82.4,223.9,82.1,223.2,82"/>
	<path fill="#FFFFFF" d="M226,87.2c0-0.1,0.1-0.3,0-0.4c0-0.1-0.1-0.3-0.1-0.4c0-0.1,0-0.2-0.1-0.2c-0.1,0-0.1,0.1-0.1,0.1   c0,0-0.1,0-0.1-0.1c0-0.1,0-0.3,0-0.4c0-0.1,0-0.1,0.1-0.2c0.1-0.1,0-0.1,0.1-0.2c0,0,0.1-0.1,0.1-0.1c0-0.1-0.1-0.1-0.1-0.2   c0-0.1,0-0.2,0-0.1c0,0,0.1,0,0-0.1c0,0-0.1-0.2,0,0c0.2,0.2,0.1,0.2,0.2,0.3c0.1,0.1,0,0.3,0.2,0.4c0.2,0.1,0.2,0.2,0.1-0.1   c-0.1-0.3-0.2-0.3-0.3-0.3c0,0-0.2-0.2-0.2-0.2c0-0.1,0.1-0.1,0-0.2c-0.1-0.1-0.2-0.3-0.2-0.3c0,0-0.1,0-0.2,0c0,0,0,0-0.1-0.1   c0-0.1-0.1-0.1,0-0.1c0.1-0.1,0-0.1,0-0.1c-0.1,0-0.1-0.1-0.1,0c0,0.1-0.1,0.1-0.1,0.2c0,0.1-0.1,0.2,0,0.2c0.1,0,0.1,0.2,0,0.2   c-0.1,0-0.2,0-0.2,0.1c0,0.1-0.1,0-0.2,0.1c-0.1,0.1-0.1,0.1-0.1,0.2c0,0,0,0.1-0.1,0.1c-0.1,0,0,0.1-0.1,0.1   c-0.1-0.1-0.1-0.1-0.2-0.1c-0.1,0,0,0.1-0.1,0.1c-0.1,0-0.1,0-0.2,0c-0.1,0.1-0.2,0.2-0.1,0c0.1-0.2,0-0.2,0-0.2   c-0.1,0-0.1,0.1-0.1,0c0,0-0.1-0.1-0.1,0c0,0.1-0.1,0.1-0.2,0.1c-0.1,0-0.2,0.1-0.1,0.1c0,0,0,0.1,0,0.1c-0.1,0-0.1,0.1-0.1,0.1   c0,0.1-0.1-0.1-0.2-0.1c-0.1,0-0.1-0.1-0.2-0.1c-0.1,0-0.2,0.1-0.2,0.3c0,0.1,0,0.1-0.1,0c-0.1-0.1-0.1,0-0.2,0   c-0.1,0-0.1-0.1-0.3-0.1c-0.1,0-0.2,0-0.4,0c-0.1,0.1-0.4,0.1-0.4,0c0-0.1,0-0.2,0.1-0.3c0-0.1,0.1,0.2,0.1,0.2   c0.1,0,0.2,0,0.2-0.1c0-0.1-0.2-0.2-0.1-0.3c0,0,0.2-0.1,0-0.2c-0.1-0.1-0.3-0.1-0.6-0.1c-0.2,0-0.4,0.1-0.5,0   c-0.1,0-0.1-0.1-0.2-0.1c-0.1,0-0.3,0.1-0.3,0.2c0,0.1,0.1,0.1,0.2,0.1c0,0,0,0-0.1,0.1c-0.1,0.1-0.1,0.1-0.1,0.1   c-0.1,0-0.2,0-0.1-0.1c0.1,0,0.2-0.1,0.2-0.1c0,0,0,0-0.1,0c-0.1,0-0.2,0.1-0.2,0.1c-0.1,0.1-0.1,0-0.1,0c0,0,0-0.1-0.1-0.1   c-0.1,0-0.1,0-0.2,0c0,0-0.1,0-0.1,0c0-0.1,0-0.1-0.1-0.1c-0.1,0,0-0.1-0.1-0.1c-0.1,0,0,0.1-0.1,0.2c-0.1,0.1-0.2,0.2-0.3,0.2   c0,0,0-0.2,0-0.2c0-0.1,0-0.2,0-0.1c0,0-0.2,0.1-0.2,0.1c-0.1,0-0.1,0-0.2,0.1c-0.1,0-0.1,0.1-0.1,0.1c0,0-0.1,0.2-0.1,0.2   c0,0,0.1,0.1,0.1,0.1c0,0.1,0.1,0.1,0.2,0.1c0,0,0.1-0.1,0.1-0.1c0.1,0,0.2,0.1,0.2,0.1c0,0,0.1-0.1,0.1-0.1c0.1,0,0,0.1,0,0.2   c0,0,0.2,0,0.2,0.1c0,0,0,0.1,0,0.1s-0.1,0.1-0.1,0.1c0,0.1,0,0.1,0,0.2c0,0.1,0,0.2-0.1,0.2c0,0-0.1,0-0.1,0.1c0,0,0.1,0,0.1,0   c0,0,0.1-0.1,0.1-0.1c0,0,0,0.1,0,0.1c0,0,0.1-0.1,0.1-0.1c0-0.1,0-0.2,0-0.3c0-0.1,0-0.1,0.1-0.2c0,0,0.1-0.1,0.1,0   c0,0-0.1,0.1-0.1,0.2c0,0.1,0,0.2,0,0.3c0,0.1,0,0.1-0.1,0.1c-0.1,0-0.1,0.1-0.1,0.2c0,0-0.1,0.1-0.1,0.1c0,0.1,0,0.2,0,0.2   c0,0,0.1-0.1,0.1-0.1c0,0,0.1,0,0.1-0.1c0-0.1,0-0.2,0-0.2c0,0,0.1,0.1,0.2,0.1c0,0,0.2,0,0.2,0c0.1,0,0.2-0.1,0.2-0.1   c0,0,0.1-0.1,0.2,0c0.1,0,0.1,0.1,0.1,0.1c0,0-0.1,0-0.1,0c0,0-0.1,0.1,0,0.1c0,0,0.2,0.1,0.2,0c0,0,0-0.1,0-0.1c0,0,0.3,0,0.3,0.1   c0,0-0.2,0.1-0.2,0.1s0.1,0.2,0.1,0.3c0,0.1,0,0.1-0.1,0.1c-0.1,0-0.3-0.1-0.2-0.2c0-0.1-0.1-0.1-0.1-0.2c-0.1,0-0.2-0.1-0.2-0.1   c0,0-0.1-0.1-0.1-0.1c0,0,0-0.1-0.1-0.1c0,0-0.1,0.1-0.1,0.1c-0.1,0-0.2,0.1-0.2,0.2c0,0.1,0.1,0.2,0.1,0.2c0,0,0.1,0,0.1,0   c0,0.1,0.1,0.1,0.2,0.1c0.1,0,0.1,0.1,0,0.1c0,0,0,0.1-0.1,0.1c-0.1,0-0.2,0.1-0.3,0.1c0,0-0.1-0.1-0.2-0.1c0,0-0.1,0.2-0.1,0.2   c0,0.1,0,0.1,0.1,0.1c0.1,0,0,0,0,0.1c0,0.1,0,0.5,0,0.6c0,0.1,0,0.2,0,0.3c0,0.1,0.1,0.2,0,0.3c0,0.1-0.1,0.2,0,0.3   c0.1,0,0.4,0.1,0.5,0.1c0.1,0,0.3,0,0.3,0c0,0,0-0.1,0.2,0c0.2,0,0.4,0,0.4,0c0,0,0.2-0.2,0.3-0.2c0,0,0-0.1-0.1-0.1   c-0.1,0-0.1-0.1-0.1-0.2c0-0.1,0-0.1-0.1,0c-0.1,0-0.1,0-0.2,0c-0.1,0-0.1,0-0.1-0.1c0-0.1,0-0.1,0-0.2c0-0.1-0.1-0.3,0-0.3   c0,0,0.2,0,0.2,0c0,0,0,0.2,0.1,0.2c0,0.1,0.1,0.2,0.2,0.2c0.1,0,0.2,0,0.2,0c0,0-0.1,0.1,0.2,0.2c0.3,0.1,0.5,0.1,0.6,0.1   c0,0,0,0.1,0.1,0.2c0.1,0,0,0.1,0.1,0.1c0.1,0,0,0,0,0.1c0,0,0,0.1,0.1,0.1c0.1,0,0.2-0.1,0.2-0.1c0,0,0,0.1,0,0.2   c0,0.1-0.1,0.2,0,0.3c0,0.1,0,0.2,0.1,0.3c0,0.1,0,0.1,0.1,0.2c0,0.1,0.1,0.1,0.1,0.1c0,0,0.1,0,0.1,0c0,0,0.1,0,0.1,0   c0,0,0.1,0,0.1,0s0-0.1,0.1-0.1c0,0,0,0,0-0.1c0-0.1,0-0.1,0.1-0.1c0,0,0,0,0.1,0c0,0,0.1,0,0.1,0c0,0,0,0,0.1-0.1   c0.1,0,0.2-0.1,0.2-0.1c0,0,0.2-0.1,0.2-0.1c0,0,0-0.1,0.1-0.1c0.1,0,0.3-0.1,0.3-0.1c0,0,0,0.1,0.1,0.2c0.1,0,0.2,0.1,0.1,0.2   c0,0.1-0.1,0.1,0,0.1c0,0,0.1,0,0.2-0.1c0,0,0.1-0.1,0.1,0c0,0.1,0.1,0.3,0,0.3c0,0,0,0.1,0.1,0.1c0,0,0.1-0.2,0.1-0.2   c0.1,0,0.1,0,0.2,0.1c0.1,0.1,0.1,0,0.1,0.1c0,0,0,0,0.1,0c0.1-0.1,0.3-0.1,0.3-0.2c0-0.1,0-0.2-0.1-0.3c-0.1,0-0.2-0.1-0.1-0.2   c0-0.1,0.1-0.2,0.2-0.2c0.1,0,0.1,0,0.3-0.1c0.2-0.1,0.4-0.3,0.4-0.3c0-0.1,0.2-0.4,0.2-0.5c0-0.1-0.1-0.1,0-0.1c0,0,0-0.1,0-0.2   c-0.1,0-0.1-0.1-0.1-0.1c0,0,0-0.2,0.1-0.2c0.1,0,0.1-0.1,0-0.1c-0.1,0-0.1,0.1-0.1,0.1c0,0-0.2-0.1-0.1-0.1c0-0.1,0.1-0.1,0.1-0.2   c0-0.1,0.1-0.1,0.1-0.1c0,0.1,0,0.2,0.1,0c0.1-0.1,0.1-0.1,0.1,0c0,0.1,0,0.1,0.1,0.1c0.1,0,0,0.1,0.1,0.1c0,0,0,0.2,0.1,0.1   c0.1,0,0.2-0.1,0.1-0.2c0-0.1-0.1-0.1-0.2-0.2c-0.1,0,0-0.1,0-0.2c0-0.1,0-0.1,0-0.2C225.9,87.3,225.9,87.3,226,87.2z"/>
</g>
<g>
	<g>
		<g id="XMLID_199_">
			<defs>
				<path id="XMLID_200_" d="M82.2,81.2v-5.7c0-1.4,1.1-2.6,2.6-2.6h59.7v43.7h-36.3c0,0-0.9-4.8-6.9-5.7s-7.2,5.7-7.2,5.7h-9.3      c-1.4,0-2.6-1.1-2.6-2.6v-12.8"/>
			</defs>
			<use xlink:href="#XMLID_200_" overflow="visible" fill-rule="evenodd" clip-rule="evenodd" fill="#C1BDA8"/>
			<clipPath id="XMLID_8_">
				<use xlink:href="#XMLID_200_" overflow="visible"/>
			</clipPath>
			<path id="XMLID_201_" clip-path="url(#XMLID_8_)" fill-rule="evenodd" clip-rule="evenodd" fill="#F7F6F1" d="M112.4,92.9     l0.8,0.8c10.7,10.7,25.3,16.8,40.5,16.8h0v13.1H74.5V81.6L90,82.7C98.4,83.3,106.4,86.9,112.4,92.9z"/>
			
				<use xlink:href="#XMLID_200_" overflow="visible" fill-rule="evenodd" clip-rule="evenodd" fill="none" stroke="#C1BDA8" stroke-width="2" stroke-miterlimit="10"/>
		</g>
		<g id="XMLID_195_">
			<rect id="XMLID_196_" x="85.2" y="116.7" fill="#C1BDA8" stroke="#C1BDA8" stroke-miterlimit="10" width="99.9" height="3.9"/>
		</g>
		<path id="XMLID_194_" fill-rule="evenodd" clip-rule="evenodd" fill="#64625F" d="M145.3,81.6h11.1c1.5,0,3.1,0.7,4,1.8l13.2,15.9    l9.4,4.7c1.2,0.6,2,1.8,2,3.3c0,0,0.1,9.4,0,9.4h-10.3c0,0-0.2-5-6.3-5.9s-8,5.9-8,5.9h-15.1c-0.1,0-0.1-35-0.1-35    C145.2,81.7,145.3,81.6,145.3,81.6z"/>
		<g>
			<g>
				<defs>
					<path id="XMLID_1_" d="M154.5,85.2h-5.8v13.6H168L158.1,87C157.2,86,155.9,85.2,154.5,85.2z"/>
				</defs>
				<use xlink:href="#XMLID_1_" overflow="visible" fill="#F7F6F1"/>
				<clipPath id="XMLID_9_">
					<use xlink:href="#XMLID_1_" overflow="visible"/>
				</clipPath>
			</g>
		</g>
		<path id="XMLID_168_" fill-rule="evenodd" clip-rule="evenodd" fill="#D9D6C0" d="M167.5,107.1c6.2,0,11.3,5.1,11.3,11.3    c0,0.7-0.1,1.3-0.2,2h-5.2c1.4-3.7-0.5-8.8-5.6-8.8c-5.1,0-7,5.1-5.6,8.8h-5.9c-0.1-0.6-0.2-1.3-0.2-2    C156.2,112.2,161.3,107.1,167.5,107.1z"/>
		<path id="XMLID_149_" fill-rule="evenodd" clip-rule="evenodd" fill="#C1BDA8" d="M100.6,107.1c6.2,0,11.3,5.1,11.3,11.3    c0,0.7-0.1,1.3-0.2,2h-5.2c1.4-3.7-0.5-8.8-5.6-8.8c-5.1,0-7,5.1-5.6,8.8h-5.9c-0.1-0.6-0.2-1.3-0.2-2    C89.3,112.2,94.3,107.1,100.6,107.1z"/>
		<circle fill-rule="evenodd" clip-rule="evenodd" fill="#F7F6F1" cx="168" cy="118" r="6.8"/>
		<circle fill-rule="evenodd" clip-rule="evenodd" fill="#F7F6F1" cx="100.8" cy="118" r="6.8"/>
		<path id="XMLID_151_" fill-rule="evenodd" clip-rule="evenodd" fill="#64625F" d="M159,117.9c0,4.9,3.9,8.8,8.8,8.8    c4.9,0,8.8-3.9,8.8-8.8c0-4.9-3.9-8.8-8.8-8.8C162.9,109.1,159,113,159,117.9z M161.8,117.9c0-3.3,2.7-5.9,5.9-5.9    c3.3,0,5.9,2.7,5.9,5.9c0,3.3-2.7,5.9-5.9,5.9C164.5,123.8,161.8,121.2,161.8,117.9z"/>
		<circle id="XMLID_150_" fill="#C1BDA8" cx="167.8" cy="117.9" r="3.1"/>
		<path id="XMLID_106_" fill-rule="evenodd" clip-rule="evenodd" fill="#64625F" d="M92,118.1c0,4.9,3.9,8.8,8.8,8.8    c4.9,0,8.8-3.9,8.8-8.8c0-4.9-3.9-8.8-8.8-8.8C96,109.3,92,113.2,92,118.1z M94.9,118.1c0-3.3,2.7-5.9,5.9-5.9    c3.3,0,5.9,2.7,5.9,5.9c0,3.3-2.7,5.9-5.9,5.9C97.6,124,94.9,121.3,94.9,118.1z"/>
		<circle id="XMLID_105_" fill="#C1BDA8" cx="100.8" cy="118.1" r="3.1"/>
	</g>
	<line fill="none" stroke="#64625F" stroke-width="3" stroke-miterlimit="10" x1="97.7" y1="82.8" x2="57.5" y2="82.8"/>
	<line fill="none" stroke="#A5A08C" stroke-width="3" stroke-miterlimit="10" x1="88.4" y1="89.7" x2="61.1" y2="89.7"/>
	<line fill="none" stroke="#C1BDA8" stroke-width="3" stroke-miterlimit="10" x1="89.3" y1="97.2" x2="67.8" y2="97.2"/>
</g>
<path fill="#64625F" d="M165.2,50.3c0,2,9.4,17.3,9.4,17.3l-7.1-20C167.5,47.5,165.2,48.3,165.2,50.3z"/>
</svg>