<?xml version="1.0" encoding="utf-8"?>
<!-- Generator: Adobe Illustrator 18.1.1, SVG Export Plug-In . SVG Version: 6.00 Build 0)  -->
<!DOCTYPE svg PUBLIC "-//W3C//DTD SVG 1.1//EN" "http://www.w3.org/Graphics/SVG/1.1/DTD/svg11.dtd" [
	<!ENTITY ns_extend "http://ns.adobe.com/Extensibility/1.0/">
	<!ENTITY ns_ai "http://ns.adobe.com/AdobeIllustrator/10.0/">
	<!ENTITY ns_graphs "http://ns.adobe.com/Graphs/1.0/">
	<!ENTITY ns_vars "http://ns.adobe.com/Variables/1.0/">
	<!ENTITY ns_imrep "http://ns.adobe.com/ImageReplacement/1.0/">
	<!ENTITY ns_sfw "http://ns.adobe.com/SaveForWeb/1.0/">
	<!ENTITY ns_custom "http://ns.adobe.com/GenericCustomNamespace/1.0/">
	<!ENTITY ns_adobe_xpath "http://ns.adobe.com/XPath/1.0/">
]>
<svg version="1.1" id="Layer_1" xmlns:x="&ns_extend;" xmlns:i="&ns_ai;" xmlns:graph="&ns_graphs;"
	 xmlns="http://www.w3.org/2000/svg" xmlns:xlink="http://www.w3.org/1999/xlink" x="0px" y="0px" viewBox="0 0 82.5 68.1"
	 enable-background="new 0 0 82.5 68.1" xml:space="preserve">
<metadata>
	<sfw  xmlns="&ns_sfw;">
		<slices></slices>
		<sliceSourceBounds  width="84.2" height="74.1" y="-577.3" x="916.9" bottomLeftOrigin="true"></sliceSourceBounds>
	</sfw>
</metadata>
<g>
	<g>
		<rect x="16" y="9.9" fill="#C1BDA8" width="62.3" height="58.1"/>
		<g>
			<defs>
				<rect id="XMLID_513_" x="19.2" y="13" width="55.8" height="52.4"/>
			</defs>
			<use xlink:href="#XMLID_513_"  overflow="visible" fill="#EFEAD9"/>
			<clipPath id="XMLID_2_">
				<use xlink:href="#XMLID_513_"  overflow="visible"/>
			</clipPath>
			<g display="none" clip-path="url(#XMLID_2_)">
				<rect x="26.3" y="19.4" display="inline" fill="#A5A08C" width="42" height="3"/>
				<rect x="26.3" y="26.4" display="inline" fill="#A5A08C" width="42" height="3"/>
				<rect x="26.3" y="33.7" display="inline" fill="#C1BDA8" width="42" height="3"/>
				<rect x="26.3" y="40.7" display="inline" fill="#C1BDA8" width="42" height="3"/>
				<rect x="26.3" y="48" display="inline" fill="#C1BDA8" width="42" height="3"/>
				<rect x="26.3" y="55" display="inline" fill="#C1BDA8" width="42" height="3"/>
			</g>
			<polyline clip-path="url(#XMLID_2_)" fill="#64625F" points="-1.7,19.2 53.2,74.1 9,74.1 			"/>
		</g>
	</g>
	<g>
		<circle fill="#FFFFFF" stroke="#C1BDA8" stroke-width="2" stroke-miterlimit="10" cx="16.4" cy="39" r="15.4"/>
	</g>
	<g>
		<line fill="none" stroke="#64625F" stroke-width="4" stroke-miterlimit="10" x1="8.8" y1="39" x2="24" y2="39"/>
		<line fill="none" stroke="#64625F" stroke-width="4" stroke-miterlimit="10" x1="16.4" y1="46.6" x2="16.4" y2="31.4"/>
	</g>
	<g>
		<path fill="#C1BDA8" d="M59.5,0.5L59.5,0.5L59.5,0.5c-1.2,0-2.3,0.7-2.9,1.8l-0.6,1.2c-0.8,1.6-0.2,3.5,1.4,4.4
			c0.1,0,0.2,0.1,0.3,0.1c0.8,0.3,1.6,0.9,2,1.7c0.9,1.7,1.7,4.1,1.4,7L60.3,21l-1.1,6.2c-0.2,0.6,0.4,5.2-4.2,6.5
			c-0.1,0-0.2,0-0.2,0h-0.1v-0.1c0-1.4-1.2-2.6-2.6-2.6h-1.7c-1.4,0-2.6,1.2-2.6,2.6v0.1h-0.1c-0.3,0-0.6,0-0.8,0.1
			c-5-1.1-4.6-6-4.7-6.6L40.8,21L40,16.2c-0.3-2.9,0.5-5.3,1.4-7c0.4-0.8,1.2-1.3,2-1.7c0.1,0,0.2-0.1,0.3-0.1
			c1.6-0.8,2.2-2.8,1.4-4.3l-0.6-1.2C43.9,0.7,42.8,0,41.6,0c-0.5,0-1,0.1-1.5,0.3c-0.7,0.4-1.2,0.9-1.5,1.6c-0.3,0.6-0.6,1.3-1,1.9
			c-1.9,2.5-4.4,7-3.7,13.2l0,0l0,0c0,0.1,0,0.1,0,0.2l0.9,4.9l1.2,6.3l0,0.1l0,0.1c0,0.1,0.4,8.4,8.7,11.1c2.6,0.8,3.3,4.1,3.3,5.5
			v4.4c0,4.7,3.8,8.5,8.5,8.5h1.6c4.7,0,8.5-3.8,8.5-8.5v-0.2v-4.9v-0.2c0-1.3,1.1-2.4,2.4-2.4h1.8c1.3,0,2.4,1.1,2.4,2.4v1.5
			c0,0.7-0.3,1.4-0.9,1.9c-1.3,1.2-2.1,2.9-2,4.8c0.2,3,2.6,5.4,5.6,5.5c3.4,0.2,6.3-2.5,6.3-5.9c0-1.7-0.7-3.3-2-4.4
			c-0.6-0.5-0.9-1.2-0.9-2v-1.5c0-4.7-3.8-8.5-8.5-8.5h-1.8c-4.7,0-8.5,3.8-8.5,8.5v0.2v4.9v0.2c0,1.3-1.1,2.4-2.4,2.4h-1.6
			c-1.3,0-2.4-1.1-2.4-2.4v-4.7c0.2-4.1,3.4-5.6,4.2-6c6.8-3,6.7-10.3,6.7-10.3l0-0.1l0-0.1l1.2-6.3l0.8-4.4c0-0.1,0-0.2,0-0.2
			c0.7-6.1-1.8-10.7-3.7-13.1c-0.4-0.6-0.7-1.2-1-1.9c-0.3-0.7-0.8-1.3-1.5-1.6C60.5,0.6,60,0.5,59.5,0.5L59.5,0.5L59.5,0.5z"/>
		<path fill="#FFFFFF" d="M37.8,16.5c-0.8-7.4,4.4-12,4.4-12c0.3-0.3,0.4-0.8,0.1-1.2C42,3,41.5,2.9,41.1,3.2c-0.2,0.2-6,5.1-5,13.5
			c0,0,0,0,0,0.1l0.9,4.9l1.6-0.3L37.8,16.5z"/>
		<path fill="#626156" d="M50.2,36.2C40.3,37,39.9,28,39.8,27.7l-1.2-6.3L37,21.7l1.2,6.3c0,0.1,0.6,9.9,10.8,9.9
			c0.4,0,0.9,0,1.3-0.1c0.5,0,0.8-0.4,0.8-0.9C51.1,36.5,50.7,36.2,50.2,36.2z"/>
		<path fill="#626156" d="M43.1,4c0.3,0.5,0,1.1-0.4,1.4l0,0c-0.5,0.3-1.1,0.1-1.4-0.4l-0.6-1.2c-0.3-0.5,0-1.1,0.4-1.4l0,0
			c0.5-0.2,1.1-0.1,1.4,0.4L43.1,4z"/>
		<path fill="#FFFFFF" d="M63.3,17c0.8-7.4-4.4-12-4.4-12c-0.3-0.3-0.4-0.8-0.1-1.2c0.3-0.3,0.8-0.4,1.2-0.1c0.2,0.2,6,5.1,5,13.5
			c0,0,0,0,0,0.1l-0.8,4.4l-1.6-0.3L63.3,17z"/>
		<path fill="#626156" d="M50.9,36.2c9.9,0.8,10.3-8.2,10.4-8.6l1.2-6.3l1.6,0.3L63,28c0,0.1-0.6,9.9-10.8,9.9c-0.4,0-0.9,0-1.3-0.1
			c-0.5,0-0.8-0.4-0.8-0.9C50.1,36.5,50.5,36.2,50.9,36.2z"/>
		<path fill="#626156" d="M57.9,4.5c-0.3,0.5,0,1.1,0.4,1.4l0,0c0.5,0.3,1.1,0.1,1.4-0.4l0.6-1.2c0.3-0.5,0-1.1-0.4-1.4l0,0
			c-0.5-0.2-1.1-0.1-1.4,0.4L57.9,4.5z"/>
		<path fill="#626156" d="M71.1,37.9h-1.8c-3.5,0-6.3,2.8-6.3,6.3v0.2v4.9v0.2c0,2.6-2.1,4.7-4.7,4.7h-1.6c-2.6,0-4.7-2.1-4.7-4.7
			V37.9h-1.6v11.6c0,3.5,2.8,6.3,6.3,6.3h1.6c3.5,0,6.3-2.8,6.3-6.3v-0.2v-4.9v-0.2c0-2.6,2.1-4.7,4.7-4.7h1.8
			c2.6,0,4.7,2.1,4.7,4.7v6.2h1.6v-6.2C77.4,40.7,74.6,37.9,71.1,37.9z"/>
		<path fill="#FFFFFF" d="M54.7,35.9h-2.4v-2.4c0-0.2-0.2-0.3-0.3-0.3h-1.7c-0.2,0-0.3,0.2-0.3,0.3v2.4h-2.4c-0.2,0-0.3,0.1-0.3,0.3
			v1.7c0,0.2,0.2,0.3,0.3,0.3h2.4v2.4c0,0.2,0.2,0.3,0.3,0.3H52c0.2,0,0.3-0.2,0.3-0.3v-2.4h2.4c0.2,0,0.3-0.2,0.3-0.3v-1.7
			C55,36,54.9,35.9,54.7,35.9z"/>
		<path fill="#FFFFFF" d="M80.3,52c0,2-1.7,3.7-3.7,3.7l0,0c-2,0-3.7-1.7-3.7-3.7l0,0c0-2,1.7-3.7,3.7-3.7l0,0
			C78.6,48.3,80.3,50,80.3,52L80.3,52z"/>
		<path fill="#626156" d="M78.2,52c0,0.9-0.7,1.6-1.6,1.6l0,0c-0.9,0-1.6-0.7-1.6-1.6l0,0c0-0.9,0.7-1.6,1.6-1.6l0,0
			C77.4,50.4,78.2,51.1,78.2,52L78.2,52z"/>
	</g>
</g>
</svg>
