<?xml version="1.0" encoding="utf-8"?>
<!-- Generator: Adobe Illustrator 18.1.1, SVG Export Plug-In . SVG Version: 6.00 Build 0)  -->
<!DOCTYPE svg PUBLIC "-//W3C//DTD SVG 1.1//EN" "http://www.w3.org/Graphics/SVG/1.1/DTD/svg11.dtd" [
	<!ENTITY ns_extend "http://ns.adobe.com/Extensibility/1.0/">
	<!ENTITY ns_ai "http://ns.adobe.com/AdobeIllustrator/10.0/">
	<!ENTITY ns_graphs "http://ns.adobe.com/Graphs/1.0/">
	<!ENTITY ns_vars "http://ns.adobe.com/Variables/1.0/">
	<!ENTITY ns_imrep "http://ns.adobe.com/ImageReplacement/1.0/">
	<!ENTITY ns_sfw "http://ns.adobe.com/SaveForWeb/1.0/">
	<!ENTITY ns_custom "http://ns.adobe.com/GenericCustomNamespace/1.0/">
	<!ENTITY ns_adobe_xpath "http://ns.adobe.com/XPath/1.0/">
]>
<svg version="1.1" id="Layer_1" xmlns:x="&ns_extend;" xmlns:i="&ns_ai;" xmlns:graph="&ns_graphs;"
	 xmlns="http://www.w3.org/2000/svg" xmlns:xlink="http://www.w3.org/1999/xlink" x="0px" y="0px" viewBox="0 0 67.1 62.1"
	 enable-background="new 0 0 67.1 62.1" xml:space="preserve">
<metadata>
	<sfw  xmlns="&ns_sfw;">
		<slices></slices>
		<sliceSourceBounds  width="67.1" height="62.1" y="-571.1" x="925.7" bottomLeftOrigin="true"></sliceSourceBounds>
	</sfw>
</metadata>
<g>
	<g>
		<path fill="#C1BDA8" d="M44,0.5L44,0.5L44,0.5c-1.2,0-2.3,0.7-2.9,1.8l-0.6,1.2c-0.8,1.6-0.2,3.5,1.4,4.4C42,7.9,42.1,8,42.2,8
			c0.8,0.3,1.6,0.9,2,1.7c0.9,1.7,1.7,4.1,1.4,7L44.9,21l-1.1,6.2c-0.2,0.6,0.4,5.2-4.2,6.5c-0.1,0-0.2,0-0.2,0h-0.1v-0.1
			c0-1.4-1.2-2.6-2.6-2.6h-1.7c-1.4,0-2.6,1.2-2.6,2.6v0.1h-0.1c-0.3,0-0.6,0-0.8,0.1c-5-1.1-4.6-6-4.7-6.6L25.4,21l-0.9-4.8
			c-0.3-2.9,0.5-5.3,1.4-7c0.4-0.8,1.2-1.3,2-1.7c0.1,0,0.2-0.1,0.3-0.1c1.6-0.8,2.2-2.8,1.4-4.3L29,1.8C28.5,0.7,27.3,0,26.1,0
			c-0.5,0-1,0.1-1.5,0.3C24,0.7,23.4,1.3,23.1,2c-0.3,0.6-0.6,1.3-1,1.9c-1.9,2.5-4.4,7-3.7,13.2l0,0l0,0c0,0.1,0,0.1,0,0.2l0.9,4.9
			l1.2,6.3l0,0.1l0,0.1c0,0.1,0.4,8.4,8.7,11.1c2.6,0.8,3.3,4.1,3.3,5.5v4.4c0,4.7,3.8,8.5,8.5,8.5h1.6c4.7,0,8.5-3.8,8.5-8.5v-0.2
			v-4.9v-0.2c0-1.3,1.1-2.4,2.4-2.4h1.8c1.3,0,2.4,1.1,2.4,2.4v1.5c0,0.7-0.3,1.4-0.9,1.9c-1.3,1.2-2.1,2.9-2,4.8
			c0.2,3,2.6,5.4,5.6,5.5c3.4,0.2,6.3-2.5,6.3-5.9c0-1.7-0.7-3.3-2-4.4c-0.6-0.5-0.9-1.2-0.9-2v-1.5c0-4.7-3.8-8.5-8.5-8.5h-1.8
			c-4.7,0-8.5,3.8-8.5,8.5v0.2v4.9v0.2c0,1.3-1.1,2.4-2.4,2.4h-1.6c-1.3,0-2.4-1.1-2.4-2.4v-4.7c0.2-4.1,3.4-5.6,4.2-6
			c6.8-3,6.7-10.3,6.7-10.3l0-0.1l0-0.1l1.2-6.3l0.8-4.4c0-0.1,0-0.2,0-0.2c0.7-6.1-1.8-10.7-3.7-13.1c-0.4-0.6-0.7-1.2-1-1.9
			c-0.3-0.7-0.8-1.3-1.5-1.6C45,0.6,44.5,0.5,44,0.5L44,0.5L44,0.5z"/>
		<path fill="#FFFFFF" d="M22.3,16.5c-0.8-7.4,4.4-12,4.4-12c0.3-0.3,0.4-0.8,0.1-1.2C26.6,3,26,2.9,25.7,3.2c-0.2,0.2-6,5.1-5,13.5
			c0,0,0,0,0,0.1l0.9,4.9l1.6-0.3L22.3,16.5z"/>
		<path fill="#626156" d="M34.8,36.2C24.8,37,24.4,28,24.4,27.7l-1.2-6.3l-1.6,0.3l1.2,6.3c0,0.1,0.6,9.9,10.8,9.9
			c0.4,0,0.9,0,1.3-0.1c0.5,0,0.8-0.4,0.8-0.9C35.6,36.5,35.2,36.2,34.8,36.2z"/>
		<path fill="#626156" d="M27.6,4c0.3,0.5,0,1.1-0.4,1.4l0,0c-0.5,0.3-1.1,0.1-1.4-0.4l-0.6-1.2c-0.3-0.5,0-1.1,0.4-1.4l0,0
			c0.5-0.2,1.1-0.1,1.4,0.4L27.6,4z"/>
		<path fill="#FFFFFF" d="M47.8,17c0.8-7.4-4.4-12-4.4-12C43,4.7,43,4.2,43.3,3.8c0.3-0.3,0.8-0.4,1.2-0.1c0.2,0.2,6,5.1,5,13.5
			c0,0,0,0,0,0.1l-0.8,4.4L47,21.4L47.8,17z"/>
		<path fill="#626156" d="M35.5,36.2c9.9,0.8,10.3-8.2,10.4-8.6l1.2-6.3l1.6,0.3L47.5,28c0,0.1-0.6,9.9-10.8,9.9
			c-0.4,0-0.9,0-1.3-0.1c-0.5,0-0.8-0.4-0.8-0.9C34.6,36.5,35,36.2,35.5,36.2z"/>
		<path fill="#626156" d="M42.5,4.5c-0.3,0.5,0,1.1,0.4,1.4l0,0C43.4,6.2,44,6,44.3,5.5l0.6-1.2c0.3-0.5,0-1.1-0.4-1.4l0,0
			c-0.5-0.2-1.1-0.1-1.4,0.4L42.5,4.5z"/>
		<path fill="#626156" d="M55.6,37.9h-1.8c-3.5,0-6.3,2.8-6.3,6.3v0.2v4.9v0.2c0,2.6-2.1,4.7-4.7,4.7h-1.6c-2.6,0-4.7-2.1-4.7-4.7
			V37.9h-1.6v11.6c0,3.5,2.8,6.3,6.3,6.3h1.6c3.5,0,6.3-2.8,6.3-6.3v-0.2v-4.9v-0.2c0-2.6,2.1-4.7,4.7-4.7h1.8
			c2.6,0,4.7,2.1,4.7,4.7v6.2h1.6v-6.2C61.9,40.7,59.1,37.9,55.6,37.9z"/>
		<path fill="#FFFFFF" d="M39.2,35.9h-2.4v-2.4c0-0.2-0.2-0.3-0.3-0.3h-1.7c-0.2,0-0.3,0.2-0.3,0.3v2.4h-2.4c-0.2,0-0.3,0.1-0.3,0.3
			v1.7c0,0.2,0.2,0.3,0.3,0.3h2.4v2.4c0,0.2,0.2,0.3,0.3,0.3h1.7c0.2,0,0.3-0.2,0.3-0.3v-2.4h2.4c0.2,0,0.3-0.2,0.3-0.3v-1.7
			C39.6,36,39.4,35.9,39.2,35.9z"/>
		<path fill="#FFFFFF" d="M64.8,52c0,2-1.7,3.7-3.7,3.7l0,0c-2,0-3.7-1.7-3.7-3.7l0,0c0-2,1.7-3.7,3.7-3.7l0,0
			C63.2,48.3,64.8,50,64.8,52L64.8,52z"/>
		<path fill="#626156" d="M62.7,52c0,0.9-0.7,1.6-1.6,1.6l0,0c-0.9,0-1.6-0.7-1.6-1.6l0,0c0-0.9,0.7-1.6,1.6-1.6l0,0
			C62,50.4,62.7,51.1,62.7,52L62.7,52z"/>
	</g>
	<g id="Layer_2_1_">
		<g>
			<path fill="#C1BDA8" d="M5.2,48.2c-0.1,2.4,0.4,14,0.9,13.9C6.5,62,7,51.4,6.9,48.4c-0.2,0.1-0.5,0.1-0.7,0.1
				C5.8,48.5,5.5,48.4,5.2,48.2z"/>
			<path fill="#A5A08C" d="M4.2,44.8v1.8c0,0.7,0.4,1.4,1,1.7c0.3,0.2,0.6,0.2,1,0.2c0.3,0,0.5,0,0.7-0.1c0.7-0.3,1.2-1,1.2-1.8V45
				c-0.5,0.1-1.2,0.3-1.8,0.3C5.6,45.3,4.9,45,4.2,44.8z"/>
			<polygon fill="#A5A08C" points="5.3,3.3 5.3,6.5 7.5,6.5 7.7,6.5 7.7,3.3 6.6,3.3 			"/>
			<path fill="#D9D6C0" d="M8.8,10.9c0.3,0,0.5,0.2,0.5,0.5c0,0.3-0.2,0.5-0.5,0.5l-1.3,0l0,3h1.3c0.3,0,0.5,0.2,0.5,0.5
				c0,0.3-0.2,0.5-0.5,0.5l-1.3,0l0,3.3l1.3,0c0.3,0,0.5,0.2,0.5,0.5c0,0.3-0.2,0.5-0.5,0.5H7.5l0.1,2.9l3.2,0c0.6,0,0.9,0.5,0.9,1
				c0,0.4-0.3,0.6-0.6,0.8l0.1,13.2c0,0,0,0,0,0c0,0,0,0,0,0c0,2.5-2,4.5-4.5,4.5c-2.4,0-4.4-1.8-4.6-4.1c0-0.2,0-0.3,0-0.5
				l0.1-13.2c-0.4-0.1-0.7-0.5-0.7-1c0-0.6,0.5-0.9,1-0.9l3-0.1l0-2.8H4.1c-0.3,0-0.5-0.2-0.5-0.5c0-0.3,0.2-0.5,0.5-0.5l1.4,0
				l0-3.3H4.1c-0.3,0-0.5-0.2-0.5-0.5S3.8,15,4.1,15l1.4,0l0-3l-1.4,0c-0.3,0-0.5-0.2-0.5-0.5c0-0.3,0.2-0.5,0.5-0.5l1.4,0L5.3,6.5
				l2.2,0l-2.2,0L2,6.5c-1.1,0-2,0.9-2,2l0,30.4c0,0.2,0,0.4,0,0.7c0.2,2.5,1.9,4.5,4.2,5.4c0.7,0.3,1.5,0.4,2.3,0.4
				c0.6,0,1.1-0.1,1.7-0.2c2.7-0.7,4.7-3.2,4.7-6.2c0,0,0,0,0-0.1c0,0,0,0,0,0l0-30.4c0-1.1-0.9-2-2-2l-3.3,0l0,4.4L8.8,10.9z"/>
			<path fill="#64625F" d="M2.3,25.4c-0.1,0-0.2,0-0.4-0.1v13.1c0,0.2,0,0.3,0,0.5c0.2,2.3,2.2,4.1,4.6,4.1c2.5,0,4.5-2,4.5-4.5
				c0,0,0,0,0,0c0,0,0,0,0,0l0-13.1c-0.1,0.1-0.3,0.1-0.4,0.1L2.3,25.4z"/>
			<polygon fill="#A5A08C" points="13.1,0 0.2,0 0.3,3.4 13.1,3.4 			"/>
			<g>
				<path fill="#A5A08C" d="M7.7,23.3l0-16.8H5.3l0,16.8h-3c-0.6,0-1,0.5-1,1c0,0.4,0.3,0.8,0.7,1c0.1,0,0.2,0.1,0.4,0.1h8.4
					c0.1,0,0.3,0,0.4-0.1c0.4-0.2,0.6-0.5,0.6-1c0-0.6-0.5-1-1-1L7.7,23.3z"/>
			</g>
			<g>
				<path fill="#EFECDA" d="M4.1,19.4c-0.3,0-0.5,0.2-0.5,0.5c0,0.3,0.2,0.5,0.5,0.5l1.2,0h2.4h1.1c0.3,0,0.5-0.2,0.5-0.5
					c0-0.3-0.2-0.5-0.5-0.5l-1.1,0l-2.4,0L4.1,19.4z"/>
				<path fill="#EFECDA" d="M4.1,15c-0.3,0-0.5,0.2-0.5,0.5s0.2,0.5,0.5,0.5l1.2,0l2.4,0l1.1,0c0.3,0,0.5-0.2,0.5-0.5
					c0-0.3-0.2-0.5-0.5-0.5H7.7H5.3L4.1,15z"/>
				<path fill="#EFECDA" d="M3.5,11.4c0,0.3,0.2,0.5,0.5,0.5l1.3,0h2.4l1.1,0c0.3,0,0.5-0.2,0.5-0.5c0-0.3-0.2-0.5-0.5-0.5l-1.1,0
					l-2.4,0l-1.3,0C3.8,10.9,3.5,11.1,3.5,11.4z"/>
			</g>
		</g>
	</g>
</g>
</svg>
