<?xml version="1.0" encoding="utf-8"?>
<!-- Generator: Adobe Illustrator 18.1.1, SVG Export Plug-In . SVG Version: 6.00 Build 0)  -->
<!DOCTYPE svg PUBLIC "-//W3C//DTD SVG 1.1//EN" "http://www.w3.org/Graphics/SVG/1.1/DTD/svg11.dtd" [
	<!ENTITY ns_extend "http://ns.adobe.com/Extensibility/1.0/">
	<!ENTITY ns_ai "http://ns.adobe.com/AdobeIllustrator/10.0/">
	<!ENTITY ns_graphs "http://ns.adobe.com/Graphs/1.0/">
	<!ENTITY ns_vars "http://ns.adobe.com/Variables/1.0/">
	<!ENTITY ns_imrep "http://ns.adobe.com/ImageReplacement/1.0/">
	<!ENTITY ns_sfw "http://ns.adobe.com/SaveForWeb/1.0/">
	<!ENTITY ns_custom "http://ns.adobe.com/GenericCustomNamespace/1.0/">
	<!ENTITY ns_adobe_xpath "http://ns.adobe.com/XPath/1.0/">
]>
<svg version="1.1" id="Layer_1" xmlns:x="&ns_extend;" xmlns:i="&ns_ai;" xmlns:graph="&ns_graphs;"
	 xmlns="http://www.w3.org/2000/svg" xmlns:xlink="http://www.w3.org/1999/xlink" x="0px" y="0px" viewBox="0 0 76.8 58.1"
	 enable-background="new 0 0 76.8 58.1" xml:space="preserve">
<metadata>
	<sfw  xmlns="&ns_sfw;">
		<slices></slices>
		<sliceSourceBounds  width="86.7" height="69.4" y="-574.4" x="916.3" bottomLeftOrigin="true"></sliceSourceBounds>
	</sfw>
</metadata>
<g>
	<g>
		<rect x="14.5" y="0" fill="#C1BDA8" width="62.3" height="58.1"/>
	</g>
	<g>
		<defs>
			<rect id="XMLID_521_" x="17.7" y="3.1" width="55.8" height="52.4"/>
		</defs>
		<use xlink:href="#XMLID_521_"  overflow="visible" fill="#64625F"/>
		<clipPath id="XMLID_2_">
			<use xlink:href="#XMLID_521_"  overflow="visible"/>
		</clipPath>
		<ellipse clip-path="url(#XMLID_2_)" fill="#D9D6C0" cx="54.4" cy="21" rx="32.3" ry="32.2"/>
		<g clip-path="url(#XMLID_2_)">
			<defs>
				<ellipse id="XMLID_520_" cx="54.4" cy="21" rx="28.6" ry="28.5"/>
			</defs>
			<use xlink:href="#XMLID_520_"  overflow="visible" fill="#FFFFFF"/>
			<clipPath id="XMLID_3_">
				<use xlink:href="#XMLID_520_"  overflow="visible"/>
			</clipPath>
		</g>
		<g clip-path="url(#XMLID_2_)">
			<path fill="#EFECDA" d="M44.5,48.7c-1.3,1.3-7.1,8.1-7.1,8.1l1,0c0,0,5.7-5.7,7-7.1c-0.2-0.1-0.3-0.2-0.5-0.3
				C44.7,49.2,44.6,48.9,44.5,48.7z"/>
			<path fill="#D9D6C0" d="M45.9,46.2l-1,1c-0.4,0.4-0.5,1-0.4,1.5c0.1,0.2,0.2,0.5,0.4,0.7c0.1,0.1,0.3,0.2,0.5,0.3
				c0.6,0.2,1.2,0.1,1.7-0.3l0.9-0.9c-0.4-0.2-0.8-0.5-1.1-0.8C46.3,47.3,46.1,46.8,45.9,46.2z"/>
			<polygon fill="#A5A08C" points="69.2,24.1 67.5,25.8 68.7,27 68.8,27.2 70.5,25.4 69.9,24.8 			"/>
			<path fill="#EFECDA" d="M67,30.1c0.2,0.2,0.2,0.4,0,0.6c-0.2,0.2-0.4,0.2-0.6,0L65.7,30L64,31.7l0.7,0.7c0.2,0.2,0.2,0.4,0,0.6
				c-0.2,0.2-0.4,0.2-0.6,0l-0.7-0.7l-1.8,1.8l0.7,0.7c0.2,0.2,0.2,0.4,0,0.6c-0.2,0.2-0.4,0.2-0.6,0L61,34.7l-1.6,1.7l1.8,1.8
				c0.3,0.3,0.2,0.7-0.1,1c-0.2,0.2-0.5,0.2-0.8,0.1l-7.2,7.3c0,0,0,0,0,0c0,0,0,0,0,0c-1.4,1.4-3.6,1.4-5,0
				c-1.3-1.3-1.4-3.4-0.3-4.8c0.1-0.1,0.2-0.2,0.3-0.3l7.3-7.2c-0.1-0.3-0.1-0.7,0.2-0.9c0.3-0.3,0.7-0.2,1,0.1l1.7,1.6l1.6-1.6
				l-0.8-0.8c-0.2-0.2-0.2-0.4,0-0.6c0.2-0.2,0.4-0.2,0.6,0l0.8,0.8l1.8-1.8l-0.8-0.8c-0.2-0.2-0.2-0.4,0-0.6s0.4-0.2,0.6,0l0.8,0.8
				l1.7-1.7l-0.8-0.8c-0.2-0.2-0.2-0.4,0-0.6s0.4-0.2,0.6,0l0.8,0.8l2.3-2.5l1.2,1.2l-1.2-1.2L65.6,24c-0.6-0.6-1.6-0.6-2.2,0
				L46.8,40.7c-0.1,0.1-0.2,0.2-0.4,0.4c-1.2,1.5-1.4,3.6-0.6,5.3c0.2,0.5,0.6,1,1,1.5c0.3,0.3,0.7,0.6,1,0.8c1.9,1.1,4.3,0.8,6-0.8
				c0,0,0,0,0,0c0,0,0,0,0,0L70.5,31c0.6-0.6,0.6-1.6,0-2.2l-1.8-1.8l-2.4,2.4L67,30.1z"/>
			<path fill="#FFFFFF" d="M55.4,34.6c-0.1-0.1-0.1-0.1-0.2-0.2l-7.2,7.2c-0.1,0.1-0.2,0.2-0.3,0.3c-1.2,1.4-1,3.5,0.3,4.8
				c1.4,1.4,3.6,1.4,5,0c0,0,0,0,0,0c0,0,0,0,0,0l7.2-7.2c-0.1,0-0.2-0.1-0.3-0.2L55.4,34.6z"/>
			<polygon fill="#C1BDA8" points="75.3,26.5 68.2,19.5 66.4,21.4 73.4,28.4 			"/>
			<g>
				<path fill="#D9D6C0" d="M59.5,36.4l9.3-9.2l-1.3-1.3L58.2,35l-1.6-1.6c-0.3-0.3-0.8-0.3-1.1,0c-0.2,0.2-0.3,0.6-0.2,0.9
					c0,0.1,0.1,0.2,0.2,0.2l4.6,4.6c0.1,0.1,0.2,0.1,0.3,0.2c0.3,0.1,0.6,0.1,0.9-0.2c0.3-0.3,0.3-0.8,0-1.1L59.5,36.4z"/>
			</g>
			<g>
				<path fill="#FFFFFF" d="M59.7,32.2c-0.2-0.2-0.4-0.2-0.6,0c-0.2,0.2-0.2,0.4,0,0.6l0.7,0.7l1.3,1.3l0.6,0.6
					c0.2,0.2,0.4,0.2,0.6,0c0.2-0.2,0.2-0.4,0-0.6l-0.6-0.6l-1.3-1.3L59.7,32.2z"/>
				<path fill="#FFFFFF" d="M62.1,29.8c-0.2-0.2-0.4-0.2-0.6,0c-0.2,0.2-0.2,0.4,0,0.6l0.7,0.7l1.3,1.3l0.6,0.6
					c0.2,0.2,0.4,0.2,0.6,0c0.2-0.2,0.2-0.4,0-0.6l-0.6-0.6l-1.3-1.3L62.1,29.8z"/>
				<path fill="#FFFFFF" d="M63.8,27.5c-0.2,0.2-0.2,0.4,0,0.6l0.7,0.7l1.3,1.3l0.6,0.6c0.2,0.2,0.4,0.2,0.6,0
					c0.2-0.2,0.2-0.4,0-0.6l-0.6-0.6l-1.3-1.3l-0.7-0.7C64.2,27.4,63.9,27.4,63.8,27.5z"/>
			</g>
		</g>
	</g>
	<g>
		<g>
			<defs>
				<circle id="XMLID_519_" cx="16" cy="29.1" r="15.5"/>
			</defs>
			<use xlink:href="#XMLID_519_"  overflow="visible" fill="#FFFFFF"/>
			<clipPath id="XMLID_4_">
				<use xlink:href="#XMLID_519_"  overflow="visible"/>
			</clipPath>
			<ellipse clip-path="url(#XMLID_4_)" fill="#EFECDA" cx="54.4" cy="21" rx="32.3" ry="32.2"/>
			<ellipse clip-path="url(#XMLID_4_)" fill="#C1BDA8" cx="54.4" cy="21" rx="28.6" ry="28.5"/>
			<use xlink:href="#XMLID_519_"  overflow="visible" fill="none" stroke="#C1BDA8" stroke-miterlimit="10"/>
		</g>
		<g>
			<path fill="#A5A08C" d="M27.5,28.9L16.6,34c-0.9,0.5-1.9,0.1-2.3-0.8c-0.4-0.9,0-2,0.9-2.5L27.5,28.9z"/>
			<path fill="#A5A08C" d="M16,15.9l1.7,15.6c0.2,1.3-0.6,2.5-1.9,2.7c-0.6,0.1-1.3,0-1.7-0.4c-0.7-0.5-1-1.4-0.8-2.2L16,15.9z"/>
		</g>
	</g>
	<g>
		<line fill="none" stroke="#64625F" stroke-width="4" stroke-miterlimit="10" x1="39" y1="13.1" x2="54.8" y2="28.9"/>
		<line fill="none" stroke="#64625F" stroke-width="4" stroke-miterlimit="10" x1="39" y1="28.9" x2="54.8" y2="13.1"/>
	</g>
</g>
</svg>
