<?xml version="1.0" encoding="utf-8"?>
<!-- Generator: Adobe Illustrator 18.1.1, SVG Export Plug-In . SVG Version: 6.00 Build 0)  -->
<!DOCTYPE svg PUBLIC "-//W3C//DTD SVG 1.1//EN" "http://www.w3.org/Graphics/SVG/1.1/DTD/svg11.dtd" [
	<!ENTITY ns_extend "http://ns.adobe.com/Extensibility/1.0/">
	<!ENTITY ns_ai "http://ns.adobe.com/AdobeIllustrator/10.0/">
	<!ENTITY ns_graphs "http://ns.adobe.com/Graphs/1.0/">
	<!ENTITY ns_vars "http://ns.adobe.com/Variables/1.0/">
	<!ENTITY ns_imrep "http://ns.adobe.com/ImageReplacement/1.0/">
	<!ENTITY ns_sfw "http://ns.adobe.com/SaveForWeb/1.0/">
	<!ENTITY ns_custom "http://ns.adobe.com/GenericCustomNamespace/1.0/">
	<!ENTITY ns_adobe_xpath "http://ns.adobe.com/XPath/1.0/">
]>
<svg version="1.1" id="Layer_1" xmlns:x="&ns_extend;" xmlns:i="&ns_ai;" xmlns:graph="&ns_graphs;"
	 xmlns="http://www.w3.org/2000/svg" xmlns:xlink="http://www.w3.org/1999/xlink" x="0px" y="0px" viewBox="0 0 42.3 66.9"
	 enable-background="new 0 0 42.3 66.9" xml:space="preserve">
<metadata>
	<sfw  xmlns="&ns_sfw;">
		<slices></slices>
		<sliceSourceBounds  width="50.3" height="66.9" x="226.1" y="-284.5" bottomLeftOrigin="true"></sliceSourceBounds>
	</sfw>
</metadata>
<g>
	<g>
		<g>
			<g>
				<path fill="none" stroke="#B5935B" stroke-width="3" stroke-linejoin="round" stroke-miterlimit="10" d="M27.3,2.5
					c10.3,3.4,15.9,14.4,12.6,24.6S25.4,42.9,15.1,39.5S-0.9,25.1,2.5,14.9S16.9-0.9,27.3,2.5z"/>
				<g>
					<defs>
						<path id="XMLID_1365_" d="M25.4,8.2c7.1,2.3,10.9,9.9,8.6,17s-9.9,10.9-17,8.6c-7.1-2.3-10.9-9.9-8.6-17S18.3,5.9,25.4,8.2z"
							/>
					</defs>
					<clipPath id="XMLID_2_">
						<use xlink:href="#XMLID_1365_"  overflow="visible"/>
					</clipPath>
					<g id="XMLID_1366_" display="none" clip-path="url(#XMLID_2_)">
						<defs>
							<rect id="XMLID_1367_" x="6.9" y="7.3" width="39.7" height="28.4"/>
						</defs>
						<use xlink:href="#XMLID_1367_"  display="inline" overflow="visible" fill="#4D7637"/>
						<clipPath id="XMLID_3_" display="inline">
							<use xlink:href="#XMLID_1367_"  overflow="visible"/>
						</clipPath>
						
							<rect id="XMLID_1457_" x="1" y="3.1" display="inline" clip-path="url(#XMLID_3_)" fill="#981F1F" width="49.3" height="23.7"/>
						<g id="XMLID_1368_" display="inline" clip-path="url(#XMLID_3_)">
							<rect id="XMLID_1456_" x="6.9" y="6.2" fill="#FFFFFF" width="9.1" height="30.7"/>
							<g id="h_22_">
								<g id="q_44_" transform="scale(5.304347826,9)">
									<path id="XMLID_1442_" fill="#945251" d="M1.8,0.9H2v0.1h0.1V1h0.1V1h0.1v0.1h0.1v0.1H2.2v0.1H2.1v0.1H2.1v0.1H2v0.1H1.9
										v0.1H1.9V1.4H1.8V1.3H1.8V1.3H1.7V1.2H1.7V1.2H1.6V1.1h0.1V1h0.1V1h0.1L1.8,0.9L1.8,0.9L1.8,0.9z M1.9,1L1.9,1L1.9,1L2,1
										v0.1h0.1v0.1H2v0.1H1.9v0.1H1.9V1.2H1.8V1.2H1.8V1.1h0.1L1.9,1L1.9,1L1.9,1z M1.9,1.1L1.9,1.1L1.9,1.1L1.9,1.1L1.9,1.1z
										 M1.6,0.9L1.6,0.9L1.6,0.9L1.6,0.9L1.6,0.9z M1.6,1.3L1.6,1.3L1.6,1.3L1.6,1.3L1.6,1.3z M2.2,0.9L2.2,0.9l0,0.1h0V0.9z
										 M2.2,1.3L2.2,1.3l0,0.1h0V1.3z M1.7,1.4L1.7,1.4L1.7,1.4l0.1,0.1v0.1h0.1v0.1H1.8v0.1H1.8v0.1H1.7V1.6H1.7V1.5H1.6V1.5
										h0.1L1.7,1.4L1.7,1.4L1.7,1.4z M1.7,1.5L1.7,1.5L1.7,1.5L1.7,1.5L1.7,1.5z M2.1,1.4L2.1,1.4L2.1,1.4l0.1,0.1v0.1h0.1v0.1
										H2.2v0.1H2.1v0.1H2.1V1.6H2V1.5H1.9V1.5H2L2.1,1.4L2.1,1.4L2.1,1.4z M2.1,1.5L2.1,1.5L2.1,1.5L2.1,1.5L2.1,1.5z M1.6,1.7
										L1.6,1.7L1.6,1.7L1.6,1.7L1.6,1.7z M2.2,1.7L2.2,1.7l0,0.1h0V1.7z"/>
									<path id="XMLID_1436_" fill="#945251" d="M1.6,1.9L1.6,1.9L1.6,1.9l0.1-0.1V1.8h0.1V1.7h0.1V1.7h0.1V1.6h0.1v0.1H2v0.1h0.1
										v0.1h0.1v0.1h0.1v0.1h0.1v0.1h0v0.2h0v0.1H2.2v0.1H2.1v0.1H2.1v0.1H2v0.1H1.9v0.1H1.8v0H1.8V2.5H1.7V2.4H1.7V2.4H1.6V2.2
										h0.1v0.1h0.1v0.1h0.1v0.1h0.1V2.3h0.1V2.3h0.1V2.2H2V2.1h0.1V2.1h0.1V2H2.1V2H2V1.9H1.8V2h0.1V2H1.9v0.1H1.8v0.1H1.8V2.1
										H1.7V2H1.7V2H1.6V1.9z M1.6,2.1L1.6,2.1L1.6,2.1L1.6,2.1L1.6,2.1z M2.2,2.3L2.2,2.3L2.2,2.3L2.2,2.3L2.2,2.3z M2.1,2.4
										L2.1,2.4L2.1,2.4l0.1,0.1v0.1h0v0.1h0v0H2.2V2.5H2.1V2.4z M2,2.5L2,2.5L2,2.5L2,2.5L2,2.5z"/>
								</g>
								<g id="XMLID_1411_">
									<g id="q_43_" transform="scale(5.304347826,9)">
										<path id="XMLID_1422_" fill="#945251" d="M2.7,0.9H2.5v0.1H2.4V1H2.4V1H2.3v0.1H2.3v0.1h0.1v0.1h0.1v0.1h0.1v0.1h0.1v0.1
											h0.1v0.1h0.1V1.4h0.1V1.3h0.1V1.3h0.1V1.2h0.1V1.2h0.1V1.1H2.8V1H2.8V1H2.7L2.7,0.9L2.7,0.9L2.7,0.9z M2.6,1L2.6,1L2.6,1
											L2.5,1v0.1H2.4v0.1h0.1v0.1h0.1v0.1h0.1V1.2h0.1V1.2h0.1V1.1H2.7L2.6,1L2.6,1L2.6,1z M2.6,1.1L2.6,1.1L2.6,1.1L2.6,1.1
											L2.6,1.1z M2.9,0.9L2.9,0.9L2.9,0.9L2.9,0.9L2.9,0.9z M2.9,1.3L2.9,1.3L2.9,1.3L2.9,1.3L2.9,1.3z M2.3,0.9L2.3,0.9l0,0.1
											h0V0.9z M2.3,1.3L2.3,1.3l0,0.1h0V1.3z M2.8,1.4L2.8,1.4L2.8,1.4L2.7,1.4v0.1H2.6v0.1h0.1v0.1h0.1v0.1h0.1V1.6h0.1V1.5
											h0.1V1.5H2.8L2.8,1.4L2.8,1.4L2.8,1.4z M2.8,1.5L2.8,1.5L2.8,1.5L2.8,1.5L2.8,1.5z M2.4,1.4L2.4,1.4L2.4,1.4L2.3,1.4v0.1
											H2.3v0.1h0.1v0.1h0.1v0.1h0.1V1.6h0.1V1.5h0.1V1.5H2.5L2.4,1.4L2.4,1.4L2.4,1.4z M2.4,1.5L2.4,1.5L2.4,1.5L2.4,1.5
											L2.4,1.5z M2.9,1.7L2.9,1.7L2.9,1.7L2.9,1.7L2.9,1.7z M2.3,1.7L2.3,1.7l0,0.1h0V1.7z"/>
										<path id="XMLID_1412_" fill="#945251" d="M2.9,1.9L2.9,1.9L2.9,1.9L2.8,1.8V1.8H2.7V1.7H2.7V1.7H2.6V1.6H2.6v0.1H2.5v0.1
											H2.4v0.1H2.4v0.1H2.3v0.1H2.3v0.1h0v0.2h0v0.1h0.1v0.1h0.1v0.1h0.1v0.1h0.1v0.1h0.1v0.1h0.1v0h0.1V2.5h0.1V2.4h0.1V2.4
											h0.1V2.2H2.8v0.1H2.8v0.1H2.7v0.1H2.7V2.3H2.6V2.3H2.6V2.2H2.5V2.1H2.4V2.1H2.4V2h0.1V2h0.1V1.9h0.2V2H2.6V2h0.1v0.1h0.1
											v0.1h0.1V2.1h0.1V2h0.1V2h0.1V1.9z M2.9,2.1L2.9,2.1L2.9,2.1L2.9,2.1L2.9,2.1z M2.3,2.3L2.3,2.3L2.3,2.3L2.3,2.3L2.3,2.3z
											 M2.4,2.4L2.4,2.4L2.4,2.4L2.3,2.4v0.1h0v0.1h0v0h0.1V2.5h0.1V2.4z M2.5,2.5L2.5,2.5L2.5,2.5L2.5,2.5L2.5,2.5z"/>
									</g>
								</g>
							</g>
							<g id="XMLID_1369_">
								<g id="h_21_">
									<g id="q_42_" transform="scale(5.304347826,9)">
										<path id="XMLID_1397_" fill="#945251" d="M1.8,4.2H2V4.2h0.1V4.1h0.1V4.1h0.1V4h0.1V4H2.2V3.9H2.1V3.9H2.1V3.8H2V3.7H1.9
											V3.7H1.9v0.1H1.8v0.1H1.8v0.1H1.7v0.1H1.7V4H1.6V4h0.1v0.1h0.1v0.1h0.1L1.8,4.2L1.8,4.2L1.8,4.2z M1.9,4.1L1.9,4.1
											L1.9,4.1L2,4.1V4h0.1V4H2V3.9H1.9V3.9H1.9v0.1H1.8V4H1.8V4h0.1L1.9,4.1L1.9,4.1L1.9,4.1z M1.9,4L1.9,4L1.9,4L1.9,4L1.9,4z
											 M1.6,4.2L1.6,4.2L1.6,4.2L1.6,4.2L1.6,4.2z M1.6,3.9L1.6,3.9L1.6,3.9L1.6,3.9L1.6,3.9z M2.2,4.2L2.2,4.2l0-0.1h0V4.2z
											 M2.2,3.9L2.2,3.9l0-0.1h0V3.9z M1.7,3.7L1.7,3.7L1.7,3.7l0.1-0.1V3.6h0.1V3.6H1.8V3.5H1.8V3.5H1.7v0.1H1.7v0.1H1.6v0.1
											h0.1L1.7,3.7L1.7,3.7L1.7,3.7z M1.7,3.6L1.7,3.6L1.7,3.6L1.7,3.6L1.7,3.6z M2.1,3.7L2.1,3.7L2.1,3.7l0.1-0.1V3.6h0.1V3.6
											H2.2V3.5H2.1V3.5H2.1v0.1H2v0.1H1.9v0.1H2L2.1,3.7L2.1,3.7L2.1,3.7z M2.1,3.6L2.1,3.6L2.1,3.6L2.1,3.6L2.1,3.6z M1.6,3.4
											L1.6,3.4L1.6,3.4L1.6,3.4L1.6,3.4z M2.2,3.5L2.2,3.5l0-0.1h0V3.5z"/>
										<path id="XMLID_1391_" fill="#945251" d="M1.6,3.3L1.6,3.3L1.6,3.3l0.1,0.1v0.1h0.1v0.1h0.1v0.1h0.1v0.1h0.1V3.5H2V3.4
											h0.1V3.4h0.1V3.3h0.1V3.3h0.1V3.2h0V3h0V2.9H2.2V2.9H2.1V2.8H2.1V2.8H2V2.7H1.9V2.6H1.8v0H1.8v0.1H1.7v0.1H1.7v0.1H1.6
											v0.2h0.1V2.9h0.1V2.8h0.1V2.8h0.1v0.1h0.1v0.1h0.1v0.1H2V3h0.1V3h0.1v0.1H2.1v0.1H2v0.1H1.8V3.1h0.1V3.1H1.9V3H1.8V3H1.8
											V3H1.7v0.1H1.7v0.1H1.6V3.3z M1.6,3L1.6,3L1.6,3L1.6,3L1.6,3z M2.2,2.9L2.2,2.9L2.2,2.9L2.2,2.9L2.2,2.9z M2.1,2.8
											L2.1,2.8L2.1,2.8l0.1-0.1V2.6h0V2.6h0v0H2.2v0.1H2.1V2.8z M2,2.6L2,2.6L2,2.6L2,2.6L2,2.6z"/>
									</g>
									<g id="XMLID_1370_" transform="translate(0,549) scale(1,-1)">
										<g id="q_41_" transform="scale(5.304347826,9)">
											<path id="XMLID_1377_" fill="#945251" d="M2.7,4.2H2.5V4.2H2.4V4.1H2.4V4.1H2.3V4H2.3V4h0.1V3.9h0.1V3.9h0.1V3.8h0.1V3.7
												h0.1V3.7h0.1v0.1h0.1v0.1h0.1v0.1h0.1v0.1h0.1V4h0.1V4H2.8v0.1H2.8v0.1H2.7L2.7,4.2L2.7,4.2L2.7,4.2z M2.6,4.1L2.6,4.1
												L2.6,4.1L2.5,4.1V4H2.4V4h0.1V3.9h0.1V3.9h0.1v0.1h0.1V4h0.1V4H2.7L2.6,4.1L2.6,4.1L2.6,4.1z M2.6,4L2.6,4L2.6,4L2.6,4
												L2.6,4z M2.9,4.2L2.9,4.2L2.9,4.2L2.9,4.2L2.9,4.2z M2.9,3.9L2.9,3.9L2.9,3.9L2.9,3.9L2.9,3.9z M2.3,4.2L2.3,4.2l0-0.1h0
												V4.2z M2.3,3.9L2.3,3.9l0-0.1h0V3.9z M2.8,3.7L2.8,3.7L2.8,3.7L2.7,3.7V3.6H2.6V3.6h0.1V3.5h0.1V3.5h0.1v0.1h0.1v0.1h0.1
												v0.1H2.8L2.8,3.7L2.8,3.7L2.8,3.7z M2.8,3.6L2.8,3.6L2.8,3.6L2.8,3.6L2.8,3.6z M2.4,3.7L2.4,3.7L2.4,3.7L2.3,3.7V3.6H2.3
												V3.6h0.1V3.5h0.1V3.5h0.1v0.1h0.1v0.1h0.1v0.1H2.5L2.4,3.7L2.4,3.7L2.4,3.7z M2.4,3.6L2.4,3.6L2.4,3.6L2.4,3.6L2.4,3.6z
												 M2.9,3.4L2.9,3.4L2.9,3.4L2.9,3.4L2.9,3.4z M2.3,3.5L2.3,3.5l0-0.1h0V3.5z"/>
											<path id="XMLID_1371_" fill="#945251" d="M2.9,3.3L2.9,3.3L2.9,3.3L2.8,3.3v0.1H2.7v0.1H2.7v0.1H2.6v0.1H2.6V3.5H2.5V3.4
												H2.4V3.4H2.4V3.3H2.3V3.3H2.3V3.2h0V3h0V2.9h0.1V2.9h0.1V2.8h0.1V2.8h0.1V2.7h0.1V2.6h0.1v0h0.1v0.1h0.1v0.1h0.1v0.1h0.1
												v0.2H2.8V2.9H2.8V2.8H2.7V2.8H2.7v0.1H2.6v0.1H2.6v0.1H2.5V3H2.4V3H2.4v0.1h0.1v0.1h0.1v0.1h0.2V3.1H2.6V3.1h0.1V3h0.1V3
												h0.1V3h0.1v0.1h0.1v0.1h0.1V3.3z M2.9,3L2.9,3L2.9,3L2.9,3L2.9,3z M2.3,2.9L2.3,2.9L2.3,2.9L2.3,2.9L2.3,2.9z M2.4,2.8
												L2.4,2.8L2.4,2.8L2.3,2.7V2.6h0V2.6h0v0h0.1v0.1h0.1V2.8z M2.5,2.6L2.5,2.6L2.5,2.6L2.5,2.6L2.5,2.6z"/>
										</g>
									</g>
								</g>
							</g>
						</g>
					</g>
					
						<use xlink:href="#XMLID_1365_"  overflow="visible" fill="none" stroke="#B5935B" stroke-linejoin="round" stroke-miterlimit="10"/>
				</g>
			</g>
		</g>
	</g>
	<g>
		<defs>
			<path id="XMLID_1364_" d="M19.4,46.7c0,0-6.5,2.1-5.7,7.4c0.8,5.4,5.5,12.2,12.2,12.3s10-1.7,11.8-6.2c1.2-3.1,1.5-11.7,0.1-14.7
				c-0.7-1.6-2.7-2.7-3.9-1.8c0.2-3.6-4.3-4.2-5.5-2.6c-1.2-1.4-3.7-2.2-5.2-0.1c-0.1,1.6-0.1-10.4-0.1-10.4s0.5-2.5-1.8-2.5
				c-2.4,0-1.9,2.3-1.9,2.3V46.7z"/>
		</defs>
		<use xlink:href="#XMLID_1364_"  overflow="visible" fill="#354568"/>
		<clipPath id="XMLID_4_">
			<use xlink:href="#XMLID_1364_"  overflow="visible"/>
		</clipPath>
		
			<line clip-path="url(#XMLID_4_)" fill="#354568" stroke="#B5935B" stroke-linecap="round" stroke-linejoin="round" stroke-miterlimit="10" x1="19.4" y1="46.5" x2="19.4" y2="53.5"/>
		
			<line clip-path="url(#XMLID_4_)" fill="#354568" stroke="#B5935B" stroke-linecap="round" stroke-linejoin="round" stroke-miterlimit="10" x1="23.2" y1="40" x2="23.3" y2="45.5"/>
		
			<line clip-path="url(#XMLID_4_)" fill="#354568" stroke="#B5935B" stroke-linecap="round" stroke-linejoin="round" stroke-miterlimit="10" x1="28.4" y1="40.5" x2="28.4" y2="43.5"/>
		
			<line clip-path="url(#XMLID_4_)" fill="#354568" stroke="#B5935B" stroke-linecap="round" stroke-linejoin="round" stroke-miterlimit="10" x1="33.9" y1="42.5" x2="33.9" y2="46.8"/>
		
			<use xlink:href="#XMLID_1364_"  overflow="visible" fill="none" stroke="#B5935B" stroke-linecap="round" stroke-linejoin="round" stroke-miterlimit="10"/>
	</g>
</g>
</svg>
