<?xml version="1.0" encoding="utf-8"?>
<!-- Generator: Avocode 2.6.0 - http://avocode.com -->
<svg height="60" width="13" xmlns:xlink="http://www.w3.org/1999/xlink" xmlns="http://www.w3.org/2000/svg" viewBox="0 0 13 60">
    <path fill="#b6ced6" fill-rule="evenodd" d="M 6 0 C 6 0 7 0 7 0 C 7 0 7 27 7 27 C 7 27 6 27 6 27 C 6 27 6 0 6 0 Z" />
    <path stroke-width="3" stroke="#b6ced6" fill="none" fill-rule="evenodd" d="M 6.5 24 C 10.09 24 13 26.91 13 30.5 C 13 34.09 10.09 37 6.5 37 C 2.91 37 0 34.09 0 30.5 C 0 26.91 2.91 24 6.5 24 Z" />
    <path fill="#b6ced6" fill-rule="evenodd" d="M 6 36 C 6 36 7 36 7 36 C 7 36 7 60 7 60 C 7 60 6 60 6 60 C 6 60 6 36 6 36 Z" />
</svg>