<?xml version="1.0" encoding="utf-8"?>
<!-- Generator: Adobe Illustrator 18.1.1, SVG Export Plug-In . SVG Version: 6.00 Build 0)  -->
<!DOCTYPE svg PUBLIC "-//W3C//DTD SVG 1.1//EN" "http://www.w3.org/Graphics/SVG/1.1/DTD/svg11.dtd" [
	<!ENTITY ns_extend "http://ns.adobe.com/Extensibility/1.0/">
	<!ENTITY ns_ai "http://ns.adobe.com/AdobeIllustrator/10.0/">
	<!ENTITY ns_graphs "http://ns.adobe.com/Graphs/1.0/">
	<!ENTITY ns_vars "http://ns.adobe.com/Variables/1.0/">
	<!ENTITY ns_imrep "http://ns.adobe.com/ImageReplacement/1.0/">
	<!ENTITY ns_sfw "http://ns.adobe.com/SaveForWeb/1.0/">
	<!ENTITY ns_custom "http://ns.adobe.com/GenericCustomNamespace/1.0/">
	<!ENTITY ns_adobe_xpath "http://ns.adobe.com/XPath/1.0/">
]>
<svg version="1.1" id="Layer_1" xmlns:x="&ns_extend;" xmlns:i="&ns_ai;" xmlns:graph="&ns_graphs;"
	 xmlns="http://www.w3.org/2000/svg" xmlns:xlink="http://www.w3.org/1999/xlink" x="0px" y="0px" viewBox="0 0 820.7 435"
	 enable-background="new 0 0 820.7 435" xml:space="preserve">
<metadata>
	<sfw  xmlns="&ns_sfw;">
		<slices></slices>
		<sliceSourceBounds  width="820.7" height="435" y="-592.5" x="265.2" bottomLeftOrigin="true"></sliceSourceBounds>
	</sfw>
</metadata>
<g>
	<path fill="#041944" stroke="#898989" stroke-linecap="round" stroke-linejoin="round" stroke-miterlimit="10" d="M724.7,324.4
		c0-1-0.3-1.6-0.9-2.4c-0.9-1.1-1.4-2.6-2-3.9c-0.3-0.6-0.8-1.1-1.3-1.5c-0.9-0.7-1.7-1.4-2.7-2c-0.9-0.6-1.9-1-2.8-1.6
		c-0.7-0.4-1.6-0.9-2.2-1.5c-0.3-0.3-0.5-0.8-0.8-1.1c-0.3-0.3-0.6-0.4-0.9-0.7c-0.5-0.6-1.2-1.1-1.6-1.7c-0.4-0.6-0.8-1.1-1-1.7
		c-0.3-0.8-0.1-1.6-0.3-2.4c-0.2-0.6-0.3-1.1-0.3-1.7c0-0.7-0.2-1.3-0.2-2c-0.1-1-0.7-2.2-1.1-3.2c-0.1-0.4-0.3-0.8-0.5-1.1
		c-0.2-0.4-0.5-0.6-0.6-1c0.7-0.5,1.6-0.5,2.4-0.5c1.7,0,3.1,0.8,4.5,1.5c1.2,0.6,2.5,1.1,3.7,1.8c0.6,0.4,1.5,1.5,2.2,1.5
		c0.1-0.7-0.6-1.3-1.1-1.7c-0.7-0.7-1.4-1.4-2-2.2c-1.5-1.9-4.2-2.6-6.3-3.7c-2.9-1.5-5.5-3.2-7-6.2c-0.5-1-0.9-2-1.3-3
		c-0.4-1-0.5-2.1-1-3.1c-0.2-0.5-0.4-0.9-0.8-1.3c-0.4-0.5-0.9-0.9-1.3-1.4c-0.1-0.2-0.3-0.4-0.4-0.6c-0.3-0.3-0.6-0.4-0.9-0.7
		c-0.6-0.6-1.1-1.3-1.7-1.9c-0.4-0.4-0.7-0.8-1.1-1.1c-0.4-0.3-0.9-0.3-1.3-0.5c-0.5-0.3-1-0.7-1.5-1c-0.8-0.5-1.5-1-2.3-1.6
		c-1.1-0.9-1.6-2.2-2.2-3.4c-0.2-0.5-0.5-0.9-0.6-1.4c-0.1-0.5,0-1,0-1.5c0-0.8,0.1-1.6-0.3-2.4c-0.2-0.3-0.3-0.8-0.6-1
		c-0.2-0.1-0.5-0.2-0.7-0.3c-0.2-0.2-0.4-0.4-0.7-0.6c-0.7-0.5-1.5-0.9-2.2-1.3c-0.4-0.2-1-0.4-1.3-0.8c-0.2-0.2,1-0.3,1.1-0.6
		c-0.6-0.1-0.7-0.5-1.1-0.8c-0.5-0.4-0.8-0.6-1.1-1.1c-0.4-0.7-0.8-1.5-1.3-2.2c-0.5-0.9-1.5-1.5-2.2-2.2c-1.3-1.3-2.5-2.5-4.2-3.4
		c-1.3-0.6-2.2-1.8-3.4-2.5c-0.3-0.2-0.9-0.6-1.3-0.3c-0.2,0.2,0,1,0,1.2c0,0.6,0,1.1,0.2,1.6c0.5,1.4,2.1,2.1,3.3,2.8
		c1.6,0.9,3.3,1.5,4.8,2.6c0.8,0.6,3.8,4.5,3.5,4.6c-0.3,0.2-0.7,0.4-1,0.5c-0.8,0.3-4.4,1-4.3,1.5c0.3,1.4,2.2,4.8,3.2,5.6
		c1.2,1.1,2.6,1.5,3.3,3.1c0.4,0.8,0.2,2,0.2,2.9c0,0.6-0.1,1,0.4,1.5c0.6,0.6,1.3,1,2,1.5c0.7,0.5,1.3,1.2,2,1.8
		c0.6,0.5,1.2,1,1.8,1.6c0.3,0.3,0.5,0.7,0.7,1c0.3,0.3,0.7,0.6,1,0.9c0.5,0.5,1.1,1,1.5,1.6c0.6,0.9,1.3,1.8,1.6,2.8
		c0.2,1,0.4,2.1,0.7,3.1c0.3,0.9,1,1.8,1.5,2.7c0.3,0.5,0.8,0.9,1.1,1.5c0.5,0.8,1,1.5,1.5,2.3c0.2,0.4,0.6,0.8,0.8,1.2
		c0.1,0.3,0.1,0.6,0.2,0.9c0.1,0.2,0.2,0.4,0.3,0.6c0.1,0.4,0,0.9,0,1.3c0,0.2,0,0.5,0,0.7c-0.1,0.3-0.3,0.6-0.4,0.9
		c-0.2,0.8-0.2,2.4,0.2,3.1c0.3,0.7,0.6,1.2,1.3,1.7c0.6,0.5,1,1,1.6,1.5c0.4,0.3,0.8,0.6,1.1,1c0.3,0.3,0.4,0.6,0.7,0.8
		c0.3,0.3,0.4,0.4,0.7,0.7c0.3,0.4,0.8,0.9,1,1.3c0.1,0.2,0,0.4,0.1,0.7c0.1,0.3,0.3,0.7,0.4,0.9c0.6,1.1,1.3,2.4,2.1,3.3
		c0.5,0.5,0.9,1,1.3,1.5c0.5,0.5,0.9,0.8,1.1,1.5c0.3,1,0.7,1.8,0.7,2.9c0,0.6,0,1.3,0,1.9c0,0.2,0,0.4,0,0.6c0,0.5,0.2,0.5,0.4,0.9
		c0.7,1,1.5,1.9,2.4,2.6c0.5,0.4,1,0.8,1.5,1.1c0.6,0.4,0.9,0.8,1.3,1.3c0.2,0.2,0.4,0.5,0.6,0.8c0.2,0.3,0.3,1,0.7,1
		c0.1-0.2,0-0.6,0-0.9c0-0.7,0.2-1.3,0.3-2c0.1-0.6,0.2-1.2,0.3-1.8c0.1-0.5,0-1,0.1-1.5c0.2-0.7,0.4-0.6,1-0.6c0.8,0,1.4,0,2.2,0.3
		c0.8,0.2,1.6,0.6,2.3,0.9c0.5,0.2,1.1,0.4,1.4,0.8c0.8,0.9,1.1,1.9,1.3,3.1C724.9,326.6,724.7,324.8,724.7,324.4z"/>
	<path fill="#041944" stroke="#898989" stroke-linecap="round" stroke-linejoin="round" stroke-miterlimit="10" d="M338.7,29.3
		c-0.3-0.5-0.5-1.2-0.7-1.8c-0.3-0.8-0.5-1.3-1.5-1.5c-0.8-0.1-1.5-0.1-2.2-0.5c-0.8-0.4-1.8-0.4-2.6-0.8c-0.8-0.3-1.3-0.8-2-1.3
		c-0.7-0.5-1.2-1.5-2-2c-0.7-0.5-1.5-0.2-2.2,0.2c-0.4,0.2-0.7,0.6-1.3,0.5c-0.3-0.1-0.7-1-0.6-1.3c-0.2,0-0.3-0.1-0.4-0.2
		c-0.4-0.2-0.4-0.2-0.8-0.2c-0.8,0-1.5,0-2.3,0c-1.3,0-2.8,0.4-2.8,1.9c0,0.3-0.1,0.8,0,1.1c0.1,0.6,0.5,0.7,0.9,1.1
		c0.5,0.5,0.4,1,0.4,1.6c-2.5-0.4-5.7-0.7-6.1-0.9c-0.6-0.4-1.2-0.9-1.8-1.3c-0.3-0.1-0.6-0.2-0.8-0.4c-0.1-0.1-0.2-0.3-0.3-0.5
		c-0.1-0.1-0.2-0.2-0.3-0.2c-0.2-0.6,0-1.6,0.1-2.1c0.2-0.7,0.5-1.4,0.7-2.2c0.2-0.6,0.5-1.2,0.6-1.7c0.1-0.3,0-0.6,0-0.9
		c0-0.4,0-0.4-0.2-0.6c-0.3-0.3-0.9-0.3-1.3-0.5c-0.6-0.2-1.3-0.5-2-0.7c-1.5-0.4-2.8-0.8-4.3-1.1c-0.6-0.1-1.2-0.2-1.8-0.2
		c-0.6,0-0.8,0.1-1,0.6c-0.3,0.8-0.3,1.6-0.3,2.4c0,0.5,0,0.9,0,1.4c0,0.4,0.1,0.7,0.2,1c0.1,0.5-0.3,0.6-0.8,0.7
		c-0.4,0-1,0.1-1.3-0.2c-0.4-0.4-0.4-1.1-0.5-1.6c-0.1-0.3-0.3-0.6-0.3-1c-0.1-0.2-0.1-0.5,0-0.7c0-0.1,0-0.2-0.2-0.3
		c-0.1-0.4,0.1-0.8-0.2-1.1c-0.3-0.3-0.8-0.2-1.2-0.2c-1.1,0.1-1.9,0.6-2.8,0.8c-0.6,0.2-1.3,0.2-1.9,0.5c-0.9,0.4-2.1,1-2.7,1.7
		c-0.6,0.6-1.2,1.5-2.1,1.1c-0.4-0.2-0.6-0.7-0.6-1c0-0.4-0.1-1.1,0-1.6c0.1-0.5,0.6-0.4,1.1-0.6c0.8-0.3,1.7-0.6,2.5-1
		c0.6-0.3,1.1-0.5,1.8-0.6c0.5-0.1,1,0.1,1.5,0c1.1-0.2,2.1-0.6,3.1-0.8c0.7-0.2,1.6,0.1,1.8-0.9c0.1-0.5,0-1,0-1.5
		c0-0.9,0.1-1.1-0.7-1.5c-1.4-0.8-2.1-2.3-3.5-3.1c-0.4-0.2-0.9-0.5-1.3-0.7c-0.5-0.3-0.7-0.6-1.1-1.1c-0.3-0.4-0.9-0.8-1.3-1
		c-0.5-0.3-1-0.6-1.5-0.9c-1-0.6-2-1.2-3.2-1.1c-1.4,0.1-1.9,2.3-2,3.5c0,0.4,0.2,1.2,0,1.6c-0.2,0.4-0.7,0.1-1.1,0.2
		c-0.2,0-0.4,0.2-0.7,0.2c-0.3,0-0.6,0-0.9,0c-1,0.2-2.1,0.2-3.1,0.7c-1.1,0.5-1.7,0.9-1.7,2.1c0,0.5-0.1,0.9,0.2,1.3
		c0.4,0.5,1,0.9,1.5,1.3c0.7,0.6,1.9,0.8,1.5,2c-0.1,0.3-0.6,0.8-0.9,1.1c-0.4,0.4-0.6,1-0.5,1.5c0.1,0.4,0.7,0.5,1.1,0.6
		c0.6,0.2,1.2,0.4,1.7,0.7c0.9,0.3,1.8,0.7,2.6,1.1c0.4,0.2,0.8,0.2,1.1,0.4c0.3,0.2,0.6,0.5,0.9,0.7c0.7,0.4,1.6,0.7,2.4,0.9
		c0.4,0.1,0.7,0.1,1.1,0.3c0.4,0.2,0.9,0.1,1.3,0.4c0.7,0.4,1.2,1.2,1.8,1.8c0.6,0.6,1.4,1.4,2.1,1.8c0.8,0.4,1.5,0.7,2.4,1
		c1.1,0.3,2.3,0.6,3.4,0.8c1.3,0.2,2.6,0.3,4,0.3c0.9,0,2.2-0.2,3.1,0c0.8,0.3,1.5,1.4,1.8,2.1c0.1,0.3,0.1,0.7,0.4,0.8
		c0.3,0.2,0.9,0,1.3,0c0.9,0,2,0.2,2.8,0c0.9-0.2,1.6-0.9,2.1-1.7c0.1-0.1,0.1-0.2,0.1-0.3c0.3-0.3,0.1-0.1,0.4-0.2
		c0.2-0.1,2.3-0.1,4.1-0.1c0.3,0.5,0.7,0.9,0.9,1.4c0.1,0.4,0.1,0.8-0.2,1c-0.2,0.1-0.3,0.1-0.5,0.3c-0.3,0.2-0.3,0.4-0.5,0.7
		c-0.4,0.6-1.2,1.2-1.3,2c-0.1,0.8-0.1,1.7,0.9,1.9c1.4,0.4,2.9-0.1,4.1-0.6c0.4-0.2,0.9-0.4,1.3-0.4c0.4,0,0.5,0,0.9-0.3
		c0.4-0.3,0.7-0.5,1.1-0.7c0.3-0.1,0.7-0.3,0.9-0.3c0.7-0.2,1.6,0,2.4,0c0.4,0,0.6,0.1,0.9,0.2c0.4,0.1,0.7,0.3,1,0.3
		c0.3,0,0.8,0.1,1.1,0c0.4-0.1,1.1-0.6,1.5-0.9c0.4-0.3,0.9-0.8,1.4-1.1c0.4-0.2,2.9-0.8,3.4-0.8c0.1,0,0.1,0,0.2,0.1l0.4-0.5
		C338.7,29.4,338.7,29.3,338.7,29.3z"/>
	<g>
		<defs>
			<path id="XMLID_2308_" d="M819.4,102.6c-0.3-0.3-0.5-0.6-0.9-0.8c-0.7-0.5-1.5-0.7-2.3-0.9c-0.4-0.1-0.8,0-1.2,0
				c-0.3,0-0.5-0.2-0.9-0.2c-0.4-0.1-0.7,0.1-1.1,0c-0.2-0.1-0.4-0.2-0.6-0.2c-1.3-0.4-2.2-1.1-2.8-2.4c-0.1-0.3-0.2-0.6-0.5-0.8
				c-0.4-0.4-0.6-1-1.1-1.4c-0.1-0.1-0.3-0.2-0.5-0.3c-0.3-0.3-0.6-0.6-0.9-0.9c-1.1-2.4-1.6-4.1,0.9-5.8c0.5-0.4,1.1-0.6,1.7-0.8
				c0.2,0,0.5-0.1,0.7-0.1c0.3-0.1,0.6-0.3,0.9-0.4c0.2-0.1,0.4-0.2,0.6-0.3c0.6-0.2,1.8-0.5,1.5-1.3c-0.1-0.4-0.4-0.7-0.7-1
				c-0.6-0.6-1.3-0.8-2.1-1.1c-0.5-0.2-1-0.4-1.6-0.6c-1.2-0.8-2.4-1.6-3.5-2.6c-1.8-1.5-3.9-2.6-6.2-2.8c-6.3-0.7-13.8,1-19.9-0.5
				c-0.7-0.2-1.3-0.4-1.9-0.7l-0.7-1.2l-0.4,0.7c0,0-0.1,0-0.1-0.1c0.2-0.3,0.2-0.4,0.2-0.4l-0.9,0c-0.7-0.5-1.4-1-2.1-1.5
				c-2.4-1.8-5.1-3-8-3.8c-2.5-0.7-4.3-1.3-6.4-3c-0.1-0.1-0.3-0.2-0.4-0.3l-1.8-3.1l-0.8,1.4c0,0-0.1,0-0.1,0
				c0.4-0.8,0.7-1.2,0.7-1.2l-14,0.1l-1.9,3.2c-2.5,0.1-5.4-0.4-7.6-0.7c-5.9-1.1-10.8-3.6-17-3.6c-3.4,0-6.9,0.1-10.2-0.2
				c-3.4-0.3-6.8-1.3-10.2-1.3c-2.3,0-4.7,0.2-7.2,0.6c-0.9-0.3-1.8-0.6-2.7-0.8c-0.4-0.1-1.3-0.2-1.7,0c-0.7,0.3-0.9,0.9-0.9,1.6
				c-0.1,0.1-0.2,0.3-0.3,0.4c-1.2,0.3-2.3,0.7-3.4,1.1c-0.4-0.1-0.7-0.1-1.1,0c-0.7,0.1-1.6,0.2-2.1,0.6c-0.3,0.2-0.8,0.8-0.7,1.2
				c-1.8,1-3.5,2-5.3,2.9c-0.6,0-1.3,0-1.9,0c-0.8,0-1.8,0.1-2.1,0.9c-0.1,0.3-0.2,0.6-0.3,0.9c-0.3,0.3-0.4,0.6-0.4,1.1
				c-0.2,0.4-0.3,0.7-0.5,1.1c-0.3,0.9-0.5,1.5-1.5,2c-1,0.5-2,0.5-3.1,0.8c-0.9,0.2-2,0-3,0c-0.9,0-1.9,0-2.8,0
				c-0.6,0-1.2,0.2-1.8,0.2c-0.5,0-0.9,0-1.4,0c-0.8,0-1.6,0.1-2.3,0.4l-11.5,0.1l-2.2,3.7c-0.5-0.2-1.1-0.4-1.5-0.6
				c-0.7-0.4-1.1-0.8-1.7-1.3c-0.3-0.3-0.7-0.4-0.8-0.9c-0.3-0.8,0.1-1.8,0-2.6c-0.1-0.5-0.1-0.4-0.6-0.6c-0.3-0.1-0.6-0.2-0.9-0.3
				c-0.6-0.2-1.2-0.4-1.8-0.6c-1-0.3-2.1-0.5-3.1-0.9c-0.5-0.2-0.9-0.5-1.3-0.8c-0.4-0.3-0.7-0.7-1.1-1.1c-0.8-0.7-1.9-1.3-3-1.5
				c-1-0.2-2.4-0.1-3.3,0.1c-0.5,0.1-1,0-1.5,0c-0.7,0-1.3,0.3-2,0.4c-0.9,0.2-1.9,0.1-2.8,0.3c-0.9,0.2-1.8,0.4-2.6,0.6
				c-0.6,0.1-1.1,0-1.7,0.1c-0.4,0.1-0.8,0.2-1.2,0.3c-0.6-0.2-1.3-0.4-2.1-0.5c-2.4-0.3-5.2,0.6-7.5-0.1c-1.1-0.3-2-1.2-2.9-1.9
				l-2.7-4.6l-0.3,0.1l-14,0.1l-1.7,2.8c-1.7,0.1-3.3,0.1-4.9,0.1c-1.3,0-2.6-0.1-3.8-0.2c-1.2-0.3-2.3-0.6-3.6-0.7l-1.5,0
				c-0.4,0-0.8,0-1.2,0c-0.6-0.1-1.1-0.1-1.7-0.1c-2.8-0.2-5.6-0.1-8.4,0l-0.9-1.6l-0.3,0.1l-14,0.1l-0.5,0.8
				c-0.3,0-0.6,0.1-0.8,0.2c-0.7,0.2-1.3,0.8-2,1.4c-1.8-0.2-3.7-0.4-5.6-0.3c-0.5,0-1.3,0.3-1.8,0.6c-0.5,0.3-0.9,0.5-1.3,0.9
				c-0.6,0.6-1.1,0.9-1.1,1.8c0,0.4-0.1,0.8,0.2,1.1c0.4,0.3,1.1,0.1,1.5,0.3c0.6,0.1,0.7,0.2,0.7,0.8c0,0.2,0,0.4,0,0.6
				c-1.7,1.3-3.5,2.7-5.3,3.9l-5.7,0l-2.4,4c-7.7,2-15.8-2.3-23.4-3c-0.1,0-0.2,0-0.2,0l-0.7-1.2l-0.3,0.1l-5.4,0
				c-0.6-0.2-1.3-0.3-1.9-0.5c-0.1-0.1-0.1-0.2-0.2-0.3c-0.6-0.8-0.7-1.8-1.5-2.5c-0.9-0.8-2-1.2-3-1.7c-0.6-0.3-1.1-0.7-1.7-1
				c-0.7-0.3-1.4-0.7-2.1-1.2c-1.2-0.7-2.2-1.4-3.4-2l-1.6-2.7l-0.3,0.1l-14,0.1l-1.2,2c-0.3,0-0.6,0-0.8,0
				c-1.1,0.1-2.2,0.3-3.2,0.6c-0.3,0.1-1.7,0.2-1.8,0.4c0.2,0.2,0.1,0.3,0.2,0.5c0.1,0.1,0.2,0.3,0.4,0.5c-1.2,0.5-2.3,1.1-3.2,1.7
				c-1.5,1-3,2.1-4.5,3.2c-0.9-0.1-1.7-0.1-2.4-0.2c-2.4-0.4-4.6-1.2-6.7-2.1c-0.2-0.2-0.5-0.4-0.7-0.6l-4-6.9l-0.3,0.1
				c0,0-14,0.1-14,0.1l-17.7-7c0.1,0.2,0.1,0.4,0.2,0.6c0,0-0.1,0-0.1-0.1c-0.4-0.3-0.8-0.6-1.2-1l1,0.4c-0.3-0.9-0.8-2-1.3-3
				c0.2-0.1,0.4-0.2,0.6-0.3c0.3-0.2,0.6-0.6,0.5-1.1c-0.1-0.3-0.6-0.8-0.9-1.1c0-0.1,0-0.2,0-0.4c0-0.8,0.3-2.1-0.5-2.6
				c-0.8-0.6-2.1-0.5-3-0.5c-0.3,0-0.6,0-0.8,0c-0.2-0.1-0.3-0.3-0.5-0.4c-0.1-0.1-0.3-0.2-0.4-0.3c-0.1-0.3-0.2-0.6-0.3-0.8
				c-0.3-1-0.8-1.6-1.7-2.2c-0.9-0.5-2.2-0.7-3.2-0.4c-1,0.2-2,0.2-3,0.2c-0.6,0-1.1,0.1-1.7,0.1c-1.3-0.1-2.6,0-3.9,0
				c-0.3-0.1-0.7-0.2-1-0.3c-0.7-0.2-1.5-0.1-2.2-0.1c-0.4,0-0.8,0.1-1.1,0.3c-0.5-0.1-1-0.2-1.5-0.2c-1.1-0.2-2.5-0.3-3.1,0.8
				c0,0,0,0,0,0.1c-0.1,0-0.2,0-0.3,0c-0.5,0-1-0.1-1.5-0.1l-2-0.8l-1.5-0.6c0-0.1-0.1-0.2-0.2-0.3c-0.3-0.3-0.8-0.3-1.3-0.3
				l-5.8-2.3c0-0.4-0.1-0.8-0.1-1.1c0-0.1,0-0.3,0-0.4c0.2-0.1,0.3-0.2,0.4-0.5c-0.1-0.1-0.3-0.1-0.4-0.1c0-0.3-0.1-0.6-0.4-0.8
				c-0.4-0.3-1-0.6-1.5-0.7c-0.8-0.1-4.5-0.4-5.1-0.2c-0.4,0.1-0.8,0.5-1.1,0.6c-0.6,0.2-1.1,0.5-1.7,0.8c-1.4,0.7-2.8,1.2-3.7,2.5
				c-0.4,0.7-1,1.2-1.5,1.8c-0.5,0.6-1.2,1-1.6,1.7c-0.3,0.5-0.8,1-0.9,1.6c-0.1,0.4-0.1,1.3,0,1.7c0.4,0.8,1.8,1,2.6,1.4
				c0.2,0.1,0.7,0.3,1.3,0.5c-0.2,0.3-0.4,0.6-0.5,0.8c-1.5-0.3-2.8-0.7-4.4-0.6c-0.4,0-2.3,0.2-1.7,1.1c0.2,0.3,0.7,0.2,1,0.3
				c0.6,0.2,1.1,0.3,1.7,0.4c0.3,0,0.9,2.2,0.1,2.8c-0.6,0.2-1.2,0.5-1.8,0.7c-0.6,0.3-1.1,0.5-1.6,0.9c-2.1,0.5-4.4,0.4-6.8,0.1
				c-0.4-0.5-0.8-0.9-1.4-1.2c-0.1-0.1-0.2-0.1-0.4-0.1l-1.5-2.6l-0.3,0.1l-14,0.1l-2.5,4.3c-0.5,0.1-1,0.3-1.5,0.5
				c-4.3,1.4-4.5,3.2-6.1,7.2c-0.4,1.1-1.3,2.4-2.3,3.7c-0.2,0.1-0.5,0.2-0.7,0.3c-0.6,0.2-1,0.2-1.6,0.3c-0.5,0.1-0.9,0.4-1.3,0.7
				c-0.3,0.2-0.7,0.5-0.9,0.9c-0.3,0.5-0.4,1-0.9,1.3c-0.1,0.1-0.3,0.2-0.5,0.3c-0.2-0.1-0.4-0.1-0.6-0.1c-0.6,0-1.4-0.1-2,0.1
				c-0.8,0.2-0.9,0.5-0.8,1.3c0,0.4,0.2,1,0.5,1.3c0.4,0.5,1,0.3,1.5,0.4c0.2,0,0.4,0.2,0.6,0.2c0.3,0.1,0.6,0,0.9,0
				c0.7,0.2,0.9,0.3,0.9,1c0,0.6,0.1,0.7,0.4,1.1c0.3,0.5,0.5,0.9,0.9,1.3c0.4,0.4,0.8,0.7,1.1,1.3c0.2,0.6,0.4,1.2,0.7,1.7
				c0.2,0.3,0.4,0.5,0.7,0.7c0,0,0,0.1,0,0.1c-0.3,1-2,0.6-2.8,0.6c-0.7,0-1.8-0.3-2.3,0.4c-0.5,0.9-1.2,2-2.1,2.6
				c-0.7,0.4-1.7,0.4-2.4,0.5c-0.8,0.2-1.6,0.2-2.4,0.2c-0.9,0-1.8-0.2-2.7-0.2c-0.7,0-1.3-0.2-1.9-0.2c-1-0.1-2-0.2-3.1-0.2
				c-0.7,0-1.3,0-2,0c-0.7,0-1,0.2-1.6,0.7c-0.6,0.5-1.1,0.7-1.1,1.5c0,0.6,0.2,0.7,0.7,1.1l0.4,0c0,0.1,0,0.3,0,0.4
				c0,1.1,0,2,0.9,2.8c0.4,0.3,1.1,0.6,1.6,0.9c0.2,0.1,0.6,0.2,0.8,0.3c0.1,0,0.6,0.1,0.6,0.2c0.3,0.4-0.3,1-0.4,1.3
				c-0.1,0.2,0,0.4-0.1,0.6c-0.1,0.2-0.4,0.4-0.5,0.7c-0.3,0.7-0.3,1.8,0.3,2.4c-1,0.4-2,0.9-2.9,1.4l-6,0l-1.6,2.8
				c-0.3,0-0.6,0-0.9,0c-2.4-0.1-4.9-1.5-7-2.5c-0.1-0.7-0.3-1.4-0.8-2c-0.7-0.8-1.7-1.2-2.8-1.1c-0.7,0-1.6-0.3-1.8,0.6
				c0,0.1,0,0.2,0,0.3c-0.3-0.1-0.6-0.1-0.9-0.2c-0.2,2,2.4,5.9,1.4,7.8c-1.1,0.5-2.2,0.9-3.4,1.2c-1.6-0.3-3.4-1.1-5-2
				c-0.1-1.4-0.1-2.8-0.2-4.1c-2.6,0.1-2.4-1.4-4.1-2.5c-1.2-0.8-3.7-0.4-5.3-0.8c-3.2-0.8-8.2-2.4-9.1,2c-0.1,0.3-0.1,0.6-0.2,1
				l-6.8,11.6l5.1,8.9c-0.6,1.3-1.9,2.4-1.2,3.7c0.7,1.2,3.1,1.1,2.9,3.2c-0.2,1.5-2.1,1.8-1.1,3.4c0.8,1.2,3.7,1,4.7,2.1
				c1,1.1,0.9,2.2,2.2,3.2c1.2,0.9,3.4,1.5,4.2,2.9c0.8,1.6-0.7,3.9,0.2,5c-0.1-0.1-0.2-0.2-0.2,0c0.1,0.4-0.3,0.7-0.7,0.8
				c-0.4,0.1-0.8,0.1-1.1,0.3c-0.4,0.2-0.8,0.3-1.3,0.2c-0.1,0-0.2-0.1-0.3-0.2c-0.8-0.7-1.3-1.7-1.9-2.5c-0.7-0.9-1.4-2-2.3-2.6
				c-1-0.6-2.2-0.8-3.4-1c-0.2-0.1-0.4-0.2-0.6-0.3c-0.3-0.3-0.7-0.7-1.1-1c-0.3-0.3-0.7-0.6-1-0.8c-0.2-0.1-0.3-0.1-0.5-0.2
				c-0.1,0-0.4-0.1-0.5-0.2c-0.7-0.2-1.4-0.4-2.1-0.6c-0.5-0.4-0.9-0.9-1.5-1.2c-0.8-0.5-1.8-0.7-2.7-0.9c-0.8-0.2-1.4-0.4-2.3-0.4
				c0,0-0.1,0-0.1,0c-0.5-0.4-1.1-0.8-1.6-0.9c-0.2,0-0.5,0-0.7,0c-0.3,0-0.6-0.1-0.9-0.2c-0.4-0.1-0.7,0-1.1,0
				c-0.3-0.2-0.6-0.4-1-0.5c-0.8-0.2-1.6-0.6-2.3-1c-2.3-1.2-5-1.4-7.3-2.5c-1.3-0.6-2.3-1.6-3.5-2.2c-0.4-0.2-0.9-0.4-1.4-0.6
				c-1-0.5-2.2-0.7-3.3-0.7l-1.2,0c-0.2-0.1-0.3-0.2-0.5-0.2c-0.4-0.1-0.6,0.1-0.7,0.3c-0.1,0-0.1,0-0.2,0c-2.1-1.8-5.2-4.2-5.4-4.3
				c-0.6-0.4-1.2-0.9-1.8-1.3c-0.5-0.3-0.9-0.6-1.4-1c-0.5-0.4-0.9-0.7-1.5-1c-0.7-0.4-1.5-0.8-2.2-1.2c-0.5-0.2-0.9-0.4-1.4-0.7
				c-0.1-0.1-0.2-0.1-0.3-0.2c-0.5-0.9-0.9-1.9-1.7-2.7c-0.2-0.2-0.3-0.3-0.5-0.5c-0.1-0.5,0-1.1,0-1.6l3.2,0c2.7,0,5.2-1.4,6.5-3.8
				c3.1-5.3,3.1-11.9,0-17.2c-0.6-1.1-0.5-2.5,0.4-3.4l0.8-0.8c0.9-1,2.7-2.3,3.8-3c0.6-0.3,1.2-0.7,1.8-1c0.7-0.4,1.3-1.1,1.6-1.9
				c0.6-1.5,1.7-2.9,2.8-4c0.7-0.7,1.6-1.4,2.5-1.9c0.5-0.3,1.2-0.4,1.7-0.6c1-0.4,2.1-0.8,3.1-1.3c2-1,3.9-2.2,5.7-3.5
				c0.5-0.4,1.1-0.6,1.7-0.7c1.9-0.3,3.8-0.6,5.7-1.1c2.2-0.6,4.4-1.7,5.7-3.7c0.7-1,0.8-3.2,0-4.2c-0.5-0.6-1.2-0.9-1.9-1.3
				c-0.9-0.4-1.8-0.4-2.7-0.4c-1.5,0-3.5-0.4-4.8,0.4c-0.7,0.5-1.5,0.8-2.1,1.5c-3.4,4.4-5,4.4-10.3,4.6c-5.3,0.2-10.7-0.2-16-0.7
				c-4.4-0.4-12.2-1.8-16.2,0.6c-5.3,3.2-5.3,12.1-3,17c1.2,2.5,2,5.8,0.8,8.4c-1.8,3.9-5.4,4.5-5.2,10.3c0.1,1.9-0.5,3.7-1.8,5.1
				c-2.1,2.2-2.8,0.7-3.4,3.3c-0.2,1,0.7,4.5,1.3,5.3c1.3,1.8,5.3,3.9,7.1,5.5c3.7,3.3,9,4.1,13.8,4.6c4.7,0.5,9.1-1,12.8,2.5
				c-0.7,0.3-1.5,1.1-1.3,2c0.2,0.6,0.8,1,1.3,1.3c0.2,0.2,0.4,0.3,0.7,0.4c0.3,0,0.4,0.2,0.6,0.3c0.4,0.2,0.5,0.1,0.9,0.2
				c0.2,0,0.4,0.1,0.5,0.1c4.3,0.8,10.9,5.2,8.6,10.3c-3,6.6-11.3,2-16.1,0.8c-5.1-1.3-10.3-5.6-15.8-4.3c-4.5,1-6,6.3-8.1,10
				c-0.9,0.3-1.9,0.5-2.8,0.8c-2.1,0.8-2.4,2.9-4.3,3.8c-1.8,0.8-4.8,0.1-6.9,0.8c-4.6,1.5-8.2,4.9-11-1.1c-1.3-2.7-2.2-4.5-5.6-5.7
				c-1.2-0.4-4.7-0.8-5.9-0.4c-1.5,0.5-1.7,2-2.6,2.4c-3.9,1.7-12.7,0.1-15.3-3.5c-2.4-3.3-5.6-9.1-10.2-9.5
				c-0.9-0.1-12.3,2.4-12,1.9l-2.3,3.8c-0.7,0-1.4,0-2-0.2c-1-0.5-2.1-0.9-3.1-1.4c-0.4-0.2-0.7-0.6-0.7-1.1c0-0.5,0-0.6-0.3-1.1
				c-0.6-1-1.7-1.7-2.8-1.9c-1.8-0.4-4-0.5-5.8,0.2c-1.3,0.5-2.2,1.1-3.3,2c-0.5,0.4-0.9,0.8-1.4,1.2c-0.2,0.1-0.4,0.3-0.6,0.4
				c-0.1,0.1-0.1,0.2-0.2,0.3c-0.3,0.2-0.9,0-1.3,0c-0.8,0-1.6,0.2-2.4,0.4c-0.6,0.2-1.3,0.2-1.8,0.6c-0.3,0.3-0.4,0.8-0.6,1.1
				c-0.4,0.6-0.8,1.1-1.2,1.6c-0.8,0.9-0.7,2.3-0.7,3.4c0,0.5,0,1.1,0,1.6c0,0.3,0.1,0.7-0.1,1.1c-0.2,0.3-0.5,0.5-0.8,0.7
				c-0.2,0.2-0.4,0.5-0.5,0.8c-0.4,0.6-0.6,0.9-0.7,1.6c0,0.4-0.2,1.2,0,1.6c0.3,0.6,1.6,0.4,2.2,0.4c1.2,0,2.4,0,3.6,0
				c0.4,0,1.4-0.2,1.9,0l-4.1,7l0.3,0.5c-0.3,0.3-0.6,0.7-0.9,1c-0.4,0.4-1,0.9-0.8,1.6c0.1,0.2,0.4,0.7,0.6,0.8
				c0.2,0.3,0.4,0.4,0.7,0.7c0.7,0.7,1.4,1.3,2.2,2c0.3,0.3,0.5,0.5,0.7,0.9c0.4,0.6,0.5,1.3,0.6,2.1c0.1,1.2-0.5,2.2-0.4,3.3
				c0,1.1,0.1,2.2,0,3.3c-0.1,0.5-0.4,0.8-0.7,1.2c-0.4,0.6-0.6,1.3-0.7,2c0,0.6,0,1-0.2,1.5c-0.2,0.6-0.7,1-0.8,1.5
				c-0.4,1.2,0.8,1.9,0.8,3c0,0.9,0.2,1.8,0.2,2.6c0,1,0.4,1.9,0.4,2.9c0,0.4,0.1,1.1,0,1.5c-0.1,0.4-0.3,0.3-0.5,0.6
				c-0.2,0.3-0.1,0.1-0.2,0.5c-0.1,0.4-0.1,1.4,0,1.8c0.1,0.4,0.5,0.7,0.8,0.9c0.3,0.4,0.6,0.7,1,1c0.3,0.2,0.6,0.4,0.8,0.6
				c0.2,0.3,0.4,0.6,0.7,0.8c0.1,0.1,0.3,0.2,0.4,0.3l-5.1,8.7l1.6,2.7c-0.8,0.8-1.6,1.6-2.5,2.3c-0.2,0.2-0.4,0.5-0.7,0.6
				c-0.3,0.2-0.6,0.2-0.9,0.4c-1.2,0.9-2.3,2.1-3.4,3.1c-0.6,0.6-1,1-1.8,1.4c-0.4,0.2-0.7,0.5-0.9,0.8c-0.8,1.2-1.5,2.5-2.4,3.6
				c-0.7,0.9-1.2,1.9-1.7,2.9c-0.2,0.3-0.5,0.9-0.2,1.3c0.3,0.6,1.8,0.6,2.4,0.7c1.8,0.3,3.8-0.1,5.5,0.6c0.4,0.2,0.6,0.5,0.8,0.8
				c0.3,0.8,0.5,1,1.2,1.3c0.4,0.2,0.9,0.3,1.3,0.4c0,0,0,0.1,0,0.1c-0.1,0.2-0.6,0.3-0.8,0.4c-0.1,0.1-0.2,0.1-0.3,0.2L29.8,232
				l-7.2,12.2c0,0,6.7,11.7,6.7,11.7c-0.4,1.2-0.8,2.2-0.8,3.4l-5.4,9.2l0-0.1l-14,0.1l-7.2,12.2l3.8,6.6c-0.3,0.1-0.6,0.3-0.8,0.5
				c-0.2,0.3-0.2,0.8-0.3,1.1c-0.1,0.4-0.2,0.7-0.2,1.1c0,0.7-0.1,1.1-0.5,1.6c0,0.2,0,0.3,0,0.4c0,0.7-0.2,1.3-0.2,2.1
				c0,0.6,0,1.2,0.2,1.8c0.2,0.7,0.5,1.1,0.9,1.8c0.1,0.2,0.2,0.4,0.3,0.6c0,0.1,0.1,0.2,0.2,0.3l-3.1,5.3c-0.1,0-0.2,0.1-0.3,0.1
				c-0.5,0.1-1.2,0.1-1.4,0.6c-0.3,1,0.5,1.8,0.9,2.6c0.9,2,0.8,3.6,2.4,5.2c1.2,1.2,2.7,2.3,4.2,3c2.9,1.2,6.6,1.5,9.8,1.8
				c5.8,0.6,11-1.5,16.6-1.8c0.6,0,1.2,0,1.9,0.2c1.2,0.3,2.5,0.5,3.7,0.8c0.3,0.1,0.6,0,0.9,0c0.3,0.1,0.5,0.2,0.9,0.2
				c1.8,0.1,2.6-1.7,2.6-3.3c0-1.1,0.1-1.8-0.6-2.6c-0.4-0.4-1.1-1-0.9-1.7c1.3-0.3,2.6-0.4,3.9-0.5c0.1,0,0.2,0,0.3,0
				c-1.7-3.8,3.6,1.7,7.4-0.5c1,0.1,2.1,0.1,2.9-0.3c1.9-0.9,3.7-1.8,5.6-2.5c1.8-0.6,1.6,1.7,1.6,2.9c0,1.3-0.1,2.5-0.4,3.8
				c-0.2,0.9-0.2,2.4,0.2,3.2c0.3,0.5,0.7,1,1,1.5c0.3,0.4,0.3,0.8,0.8,1c0.7,0.5,2,0.7,2.3,1.6c0.4,1-0.3,2.2,0.7,3
				c0.3,0.3,0.7,0.3,1.1,0.4c1.2,0.3,2.4,0.5,3.6,0.5c1.8,0,3.5,0.3,5.3,0.2c0.4,0.1,0.8,0.2,1.2,0.4c0.5,0.4,1,0.9,1.6,1.2
				c1.5,0.9,3,1.5,4.6,2.2c0.9,0.4,1.7,0.9,2.4,1.6c0.9,0.9,1.7,1.8,3,2.2c1.2,0.3,2.4,0.5,3.1,1.6c0.6,0.9,0.5,2,0,3
				c-0.3,0.6-0.7,1-0.9,1.6c-0.2,0.7-0.1,1.5-0.1,2.2c0,0.5,0.1,0.5,0.4,0.9c0.1,0.1,0.2,0.3,0.2,0.5l-1.5,0l-2.9,5
				c-0.2,0-0.3,0.1-0.5,0.3c-0.4,0.4-0.5,1-0.8,1.5c-0.3,0.6-0.6,1.1-1.1,1.5c-0.7,0.6-1.6,0.9-2.3,1.5c-0.8,0.5-1,1.3-1.1,2.3
				c-0.1,1.7,1.1,1.5,2.4,1.8c0,0,0.1,0.1,0.1,0.1l1.2,2.1c-1.2,0.7-2.5,1.3-3.6,2.1c-0.7,0.5-1.5,1.5-1.5,2.4
				c0,0.4-0.1,0.9,0.2,1.3c0.3,0.3,1,0.6,1.3,1c0.7,1.1-1.5,2.2-2.1,2.5c-2.3,1.2-5.2,4-5.6,6.6c-1.2-0.4-2.5-0.5-3.6-1.2
				c-1.7-1-1.8-2.6-4.2-1.9c-0.4,0.1-0.8,0.2-1.2,0.1c-0.6-0.1-1.2-0.2-1.8-0.4c-0.5-0.2-0.8-0.4-1-0.8c-0.2-0.4-0.6-0.6-0.9-0.9
				c-0.3-0.4-0.2-0.6-0.3-1c-0.1-0.5-0.1-1.1-0.6-1.3c-1.1-0.4-2.1-0.7-3.3-0.7c-0.6,0-1.2,0-1.8,0c-0.5,0-1.3-0.1-1.7,0.3
				c-0.5,0.4-0.7,1.2-1.1,1.7c-0.5,0.5-0.9,1-1.4,1.6c-0.6,0.9-1.4,1.5-2.2,2.2c-0.8,0.8-0.9,1.6,0.2,2.1c1,0.5,2,0.9,3.1,1.3
				c0.8,0.2,1.3,0.9,1.3,1.7c0,2-0.6,4.9,2.2,5.1c1.4,0.1,2.9-0.7,4.1-1.4c0.8-0.4,1.5-1,2.2-1.6c0.5-0.5,1-0.7,1.6-1.1
				c2-1.3,5.4-2.7,9.7-2.4c1.7,0.1,5.7,2.7,5.8,4.5c0.1,1.2,1.5,1.2,2.5,1.3c0.4,0,0.8,0.2,1.2,0.2c0.3,0,0.7-0.1,1,0
				c0.4,0,0.7,0.2,1,0.3l1.5,2.7c0,0.1,0,0.2,0.1,0.3c0.1,0.3,0.3,0.6,0.6,0.8l2.9,5.1l5.1,0c0.4,0.6,1.1,1,1.8,0.9
				c0.7-0.1,1.4-0.4,2-0.6c0.9-0.3,1.7-0.3,2.6-0.3c1.2,0,2.3,0,3.3,0.9c0.4,0.3,0.7,0.9,1.1,1.1c0.5,0.2,1.3,0,1.9,0
				c1.2,0,2.3,0.1,3.5,0.5c0.5,0.2,1.1,0.3,1.6,0.4c0.6,0.2,1.1,0.1,1.7,0.2c1,0.1,0.9,1.3,1.5,2c0.3,0.4,0.7,0.8,1.1,1.1
				c0.5,0.4,1,0.9,1.5,1.2c1.1,0.5,2,0.5,3.1-0.1c0.8-0.5,1.4-1.1,2.3-1.5c0.5-0.3,1.1-0.4,1.7-0.5c1.8-0.3,3.9,0.9,4.7,2.5
				c0.4,0.9,0.6,2,1.4,2.7c0.8,0.8,1.7,2.3,2.2,3.3c0.2,0.4,0.5,0.7,1,0.9c0.3,0.1,0.6,0.3,0.9,0.4c0.4,0.1,0.8,0,1.1,0.1
				c0.4,0.1,0.9,0.1,1.3,0.2c0.2,0.1,0.8,0.3,1,0.4c0.5,0.3,0.6,1,1,1.5c0.5,0.7,1.1,1.1,1.5,1.7c0.4,0.5,0.8,1.1,1.4,1.4
				c0.8,0.4,1.6-0.2,2.2-0.8c0.6-0.5,1.1-1.1,1.7-1.5c0.5-0.4,1.2-0.6,1.6-1.1c0.5-0.5,0.7-1.1,0.9-1.7c0.2-0.6,0.6-1.3,0.4-1.9
				c-0.1-0.5-0.7-0.9-1.1-1.2c-0.9-0.7-2.3-0.8-3.4-1.3c-0.9-0.4-1.7-1-2.3-1.7c-1.2-1.5-1.3-3.5-0.9-5.3c0.3-1.4,0.6-2.7,0.8-4.1
				c0.1-0.8,0.7-2.9,0-3.6c-0.7-0.8-2.3-0.6-3.2-0.7c-1.1-0.2-2.1-0.5-3.1-0.6c-0.1-0.5-0.1-1.1,0.2-1.5c0.3-0.5,0.9-1.3,0.9-1.9
				c0-0.6-0.8-0.9-1.3-1.3c-0.2-0.1-0.4-0.3-0.6-0.4c-0.4-0.2-0.4-0.4-0.7-0.7c-0.2-0.3-0.4-0.3-0.6-0.5c-0.3-0.3-0.2-0.5-0.2-0.8
				c0-0.6-0.1-1,0.6-1.1c0.6-0.1,1.8-0.1,2.4,0c0.6,0.2,1.1,0.7,1.7,0.8c0.2-0.5,0-1.4,0-1.9v-2.8c0-0.6-0.1-1.1,0.2-1.6
				c0.3-0.6,0.6-0.7,1.1-0.9c0.9-0.3,1.7-0.2,2.6-0.2c0.5,0,1.1,0.1,1.5,0c0.8-0.2,1.1-1.2,1.5-1.8c0.4-0.6,0.7-1.4,0.9-2.1
				c-0.1-0.2-0.2-0.3-0.3-0.5c2.2-1.2,4.1-2.4,4.2-2.6c0.3-0.5,0.7-1.1,1.1-1.6c0.4-0.4,0.9-0.6,1.5-0.7c0.8-0.1,1.7-0.2,2.5-0.4
				c0.7-0.1,1.4,0,2-0.2c1.1-0.4,2.2-0.3,3.4-0.3c0.8,0,1.4-0.2,2.2-0.2c0.7,0,1.1-0.1,1.8-0.3c0.9-0.3,2.6-0.9,3.3,0.1
				c0.4,0.5,0.6,1.3,0.7,1.9c0.1,0.6,0.4,1.4,0.2,2c-0.2,0.8-1.1,1.4-1.5,2.2c-0.3,0.5-0.4,1-0.4,1.6c0,0.4,0.2,0.9,0.5,1.1
				c0.6,0.5,1.2,1,1.7,1.6c0.2,0.2,0.3,0.3,0.5,0.5l-1.9,3.2c-1.1,0-2.4,0.2-3.5-0.2c-0.8-0.3-1.6-0.7-2.4-1.1
				c-1.2-0.5-2-0.3-2.9,0.7c-0.5,0.4-0.9,1.1-1.1,1.7c-0.1,0.5,0,1.1,0,1.6c0,0.6-0.1,1.1,0.2,1.5c0.1,0.2,0.2,0.4,0.3,0.6
				c0.2,0.4,0.4,0.5,0.7,0.9c0.5,0.6,0.1,0.7-0.5,0.9c-0.5,0.2-0.5,0.4-1.1,0.4c-0.6,0-1,0-1.6-0.2c-0.3-0.1-0.7-0.2-1-0.2
				c-0.3,0-0.5-0.2-0.7-0.2c-0.4-0.1-0.8-0.2-1.1,0.1c-0.3,0.3-0.4,1.5-0.4,1.9c0,0.4-0.1,1,0,1.4c0.3,0.6,1.3,0.9,1.9,1.1
				c0.6,0.3,1,0.7,1.6,1c0.5,0.4,0.8,0.4,0.9,1.1c0,0.5,0,1,0,1.5c0,0.6-0.2,1.1-0.2,1.7c0,1.1,0,2.1,0.4,3.1
				c0.2,0.4,0.3,0.8,0.6,1.1c0.5,0.4,1.2,0.5,1.8,0.7c0.5,0.2,1.1,0.3,1.6,0.5l-0.6,0.8c-0.1,0.8,2.4,0.8,2.9,0.9
				c0.7,0.1,1.4,0.2,2.1,0.4c0.6,0.2,1.2,0.5,1.7,0.7c0.4,0.1,1.2,0.1,1.5,0.5c0.1,0.2,0.1,0.4,0.1,0.7c-0.2,0.4-0.6,0.7-0.9,1
				c-0.6,0.6-1.5,1.3-1.8,2.1c-0.1,0.5-0.2,1-0.2,1.5c0,0.6-0.2,0.8,0.5,0.9c0.5,0,1.2,0.1,1.7,0c0.1,0,0.3-0.1,0.4-0.1
				c0.5,0.1,1,0.2,1.4,0.5c1-0.7,2.1-1.1,3.2-1.7c0.6-0.3,1.2-0.7,1.8-0.9c0.2-0.1,0.4-0.1,0.7-0.1c0.2-0.1,0.4-0.3,0.6-0.4
				c0,0,0,0,0.1,0c1.5,0.6,3.2,0.1,4.7,0.6c0.7,0.2,1.2,0.5,1.5,1.1c0.3,0.6,0.4,1.3,0.6,2c0.2,1,0.4,2.2,1.1,3.1
				c0.7,1,1.6,1.8,2.6,2.4c0.9,0.6,1.5,1.3,2.2,2.2c0.2,0.3,0.7,0.8,1.1,0.9c0.8,0.2,1.3-1.2,1.4-1.8c0.2-0.9,0.4-1.9,0.4-2.8
				c0-0.7-0.1-1.5,0-2.2c0.1-0.3,0.2-0.5,0.2-0.8c0-0.3-0.1-0.6,0-0.9c0.1-0.6,0.2-1,0.2-1.6c0-0.9,0.2-2,0-2.8
				c-0.1-0.6-0.5-0.9-0.8-1.3c-0.4-0.5-0.6-1-0.8-1.6c-0.3-1.1-0.2-2.5-0.8-3.5c-0.6-1.1-1.3-2.2-1.4-3.5c0-0.4,0-0.7,0-1.1
				c0-0.6,0.1-1,0.2-1.5c0.1-0.4-0.1-0.7,0.1-1.1c0.2-0.5,0.6-0.8,0.9-1.3c0.1-0.2,0.2-0.5,0.3-0.7c0.1-0.1,0.2-0.2,0.4-0.3
				c0.2-0.4,0.1-1.7,0-2.1c0-0.1-0.1-0.2-0.1-0.4l3.2-5.5l-1.7-2.9c0.5-0.2,1.1-0.4,1.7-0.6c1.1-0.3,2-0.7,3-1.2
				c1-0.4,1.8-0.9,2.9-1.2c0.8-0.2,1.6-0.1,2.5-0.2c0.2,0,0.6-0.1,0.8,0c0.2,0,0.4,0.2,0.7,0.2c0.5,0.1,1,0.1,1.5,0.2
				c0.5,0.1,1.1,0.4,1.5,0.6c1.1,0.4,2,1.2,3,1.8c0.1,0,0.1,0.1,0.2,0.1l-2.1,3.6l7,12.1l14.3,0l0.7-1.3c0.5,0,1-0.1,1.4-0.2
				c1.2-0.2,2.3-0.5,3.5-0.8c0.5-0.1,1,0,1.5-0.2c0.2,0,0.2-0.2,0.4-0.2c0.2,0,0.5,0,0.7,0c1.1,0,2.1,0.3,3.1,0.7
				c0.3,0.1,0.7,0.3,1.1,0.2c0.2,0,0.4-0.1,0.6-0.2c0.1,0.2,0.3,0.4,0.5,0.5c0.4,0.3,1,0.4,1.5,0.3c0.5-0.1,0.9-0.4,1.3-0.6
				c0.5-0.3,1-0.7,1.5-0.7c0.5,0,0.9,0,1.3,0.3c0.3,0.2,0.3,0.4,0.5,0.6c0.2,0.2,0.4,0.3,0.6,0.5c0.3,0.7,0.6,1.4,1,2.1
				c0.3,0.5,0.6,0.9,0.9,1.3c0.2,0.3,0.4,0.7,0.7,0.9c0.4,0.5,1,0.8,1.4,1.3L253,401l7,12.1l14.1,0c0,0,0,0,0,0.1
				c-0.1,0.2-0.2,0.5-0.2,0.6c-0.1,0.5,0,0.3,0.4,0.4c0.2,0,0.3,0.1,0.5,0.1c0,0,0,0.1,0,0.1c-1.5,6.2,11-0.2,12.4-0.4
				c5.8-1,12.1,3.6,17.2,5.4c1.7,6,1.8,8.6,7.7,11.6c1.1,0.6,0.4,2.2,2.2,2.3c1.3,0.1,3.7-2.7,4.1-4c0.7-2.6-1.7-4.8-0.9-7.4
				c1.1-3.3,7.5-6.8,9.9-8.8c3.1-2.5,3.9-6,6.7-8.1c2.2-1.6,5.8-0.6,8-2.2c1.9-1.3,2.4-3.4,3.7-5.1c1.3-1.8,2-1.1,2.8-3.3
				c1.1-2.9-1.3-4.3,3.4-4.5c1.2-0.1,1.2-0.8,1.1-1.8c-0.1-2-1.9-3-2.6-4.8c-0.4-1-0.6-2.1-0.5-3.2c0-0.5,0.2-0.9,0.2-1.4
				c0-0.4,0-0.9,0-1.3c0-0.1,0.1-0.6,0-0.7c-0.1-0.3-0.2-0.1-0.5-0.3c-0.8-0.4-1.4-1-1.7-1.7c-0.4-0.9-1.1-1.2-2-1.5
				c-1.1-0.4-2.5-0.9-3.5-1.5c-0.5-0.3-0.9-0.5-0.9-1.1c0-0.5-0.1-1.1,0-1.5c1-0.2,2.2,0.1,3.3,0.4c1.4,0.3,2.9,0.9,4.3,0.9
				c0.8,0,1.4,0.1,2.2,0.3c0.4,0.1,0.5,0.2,0.9,0.2c0.4,0,0.7,0.2,1.1,0.2c0.4,0.1,0.8,0,1.2,0c0.6,0.1,1.2,0.2,1.8,0.4
				c0.8,0.2,1.5,0.3,2.2,0.2c0.8,0,1.1-0.8,1.1-1.5c0-0.5-0.2-0.9-0.4-1.4c-0.2-0.4-0.7-0.8-0.8-1.3c-0.1-0.3,0-0.6-0.1-0.9
				c-0.1-0.4-0.2-0.7-0.2-1.1c0-0.1,0-0.2,0-0.3l7.1-12.4l-1-1.8c0-0.1,0.1-0.1,0.2-0.2c0.3-0.3,0.6-0.4,0.9-0.5
				c0.6-0.2,1.2-0.2,1.8-0.2c0.9,0,1.8,0.2,2.8,0.2c0.7,0,1.5,0,2.2,0c0.7,0,0.8-0.2,1.3-0.7c0.5-0.4,0.7-0.4,0.7-1.1
				c0-0.6,0.1-0.9-0.4-1.3c-0.4-0.3-0.7-0.7-1.1-1.1c-0.4-0.5-0.4-0.7-0.4-1.4c0-0.6-0.2-1.2-0.2-1.8c0-0.5,0.2-1.4,0-1.9
				c-0.1-0.4-0.6-0.7-0.8-1.1c-0.3-0.4-0.5-1.1-0.7-1.5c-0.1-0.3-0.3-0.6-0.4-0.9c-0.3-0.5-0.7-2.1,0.1-2.4c0.5-0.2,1.3,0,1.8,0
				c0.4,0,0.9,0.1,1.3,0c1.1-0.1,3-1,3.3-2.2c0.1-0.2,0-0.5,0-0.7c0-0.3,0.1-0.4,0.2-0.7c0.1-0.4,0.2-1.1,0-1.5
				c-0.2-0.5-0.6-0.5-0.8-1c-0.2-0.2-0.3-0.4-0.2-0.8l3.3,0l2.9-5c0.9-0.1,1.9,0.2,2.6,0.3c0.5,0.1,1.3,0.4,1.7,0.1
				c0.3-0.1,0.5-0.7,0.6-0.9c0.4-0.6,0.9-0.9,1.3-1.5c0.3-0.4,0.6-0.9,0.9-1.3c0.3-0.4,0.3-0.8,0.5-1.3c0.1-0.3,0.3-0.4,0.5-0.7
				c0.1-0.2,0.1-0.5,0.2-0.7c0.2-0.4,0.6-0.6,1-0.8l8.3,0l4.8-8.3c0,0,0,0,0,0c0.7,0.5,1.5,0.6,1.9,1.4c0.2,0.5,0.4,0.9,0.8,1.2
				c1.4,1.2,3.4,0.3,5,0.7c1.4,0.3,1.9,1.4,2.3,2.6c0.5,1.7,2,3,3.6,3.6c0.7,0.2,1.5,0.4,2.1,0.5c0.5,0.1,1.4,0.1,1.8-0.2
				c0.3-0.4,0.3-1.1,0.5-1.5c0.4-0.8,0.8-0.6,1.5-0.7c0.4-0.1,0.7-0.2,1.1-0.2c0.4,0,0.8,0.1,1.1,0c0.3,0,0.4-0.2,0.6-0.2
				c0.1,0,0.1,0,0.2,0l0.6,1l5.4,0c0.2,0.1,0.4,0.3,0.6,0.4c0.2,0.1,0.6,0.5,0.9,0.4c0.1-0.3,0.1-0.5,0.1-0.8l7.3,0l7.1-12.4
				l-2.8-4.8c0.7,0.2,1.4,0.3,2,0.3c0.9,0,1.8-0.1,2.6,0.1c0.8,0.1,1.1,0.6,1.5,1.2c0.6,0.8,1.6,1.2,2.4,1.7
				c1.2,0.7,2.8,0.8,3.7,1.9c0.2,0.3,0.6,0.6,0.8,1c0.1,0.3,0.1,0.6,0.3,1c0.2,0.4,0.3,0.7,0.5,1.2c0.2,0.5,0.5,0.9,1,1.2
				c1.3,0.6,2.8,0.7,4.2,0.9c0.1,0,0.3,0,0.4,0l3.8,6.6l14.3,0l4.1-7.2c0.3,0.1,0.5,0.2,0.7,0.3c0.5,0.2,1.3,0.4,1.7,0.7
				c0.4,0.3,0.2,0.6,0.3,1c0.1,0.5,0.6,0.9,1,1.2c0.5,0.3,1,0.4,1.5,0.5c0.9,0.3,1.7,0.5,2.6,0.9c1.5,0.6,3,1,4.4,1.8
				c0.6,0.3,1.2,0.5,1.9,0.4c1.1,0,2.3,0,3.4,0c1.1,0,2.6-0.3,3.3,0.6c0.3,0.4,0.4,0.9,0.7,1.3c0.2,0.5,0.3,0.8,0.8,0.9
				c2,0.3,4.2-0.5,6.1-0.9c0.6-0.2,1.5-0.4,1.9-0.8c0.1-0.1,0.2-0.2,0.2-0.3l7.2,0l1.9-3.4c0.2,0,0.4-0.1,0.5-0.2
				c0.3-0.4,0.4-1,0.5-1.6l3.3-5.7c1.1-0.1,2.2-0.1,3.2-0.1c0.5,0,1.1,0,1.5,0.3c0.3,0.3,0.3,0.5,0.5,0.8c0.2,0.4,0.5,0.9,0.8,1.2
				c0.2,0.2,0.4,0.2,0.6,0.1c0.2-0.2,0.5-0.3,0.7-0.4c0.4-0.1,0.7-0.3,1.1-0.4c0.1,0,0.1-0.1,0.2-0.1c1.6,1,3.3,1.9,4.9,2.1
				c0.8,0.1,1.7,0.2,2.6,0.2c0.7,0.1,1.4,0,2.1,0c1.3,0,2.7,0.2,4,0.2c1,0,2.1,0,3,0.5c0.3,0.1,0.6,0.5,0.8,0.6
				c0.2-0.4,0-1.1-0.1-1.5c-0.1-0.4-0.1-0.9-0.2-1.3c0.8-1.7,2.6-2.9,2.5-5.1c-0.1-1.3-0.7-2.5-1.5-3.7c0-0.1,0-0.2,0-0.4
				c-0.1-0.8-0.4-1.4-0.9-2c-0.3-0.4-0.7-0.6-0.8-1.1c-0.2-0.6,0-1.3,0-1.9c0-1,0.2-1.7,0.6-2.6c0.3-0.5,0.5-0.9,0.8-1.4
				c0.4-0.7,0.8-1.6,1.3-2.2c0.2-0.3,0.4-0.7,0.4-1c0-0.6,0-1.2,0-1.8c0-0.6,0.1-1.2,0-1.8c-0.1-0.5-0.2-0.4-0.4-0.7
				c-0.6-0.6-0.9-1.1-0.9-1.9c0-0.9-0.6-1.1-1.3-1.5c-0.6-0.4-1.2-0.7-1.5-1.3c-0.4-0.7-0.9-1.5-1.3-2.2c-0.2-0.4-1.2-1.5-1.1-1.9
				c0.9-0.2,1.7-0.3,2.6-0.7c0.6-0.3,1.3-0.4,1.9-0.7c0.8-0.4,1.3-1.3,1.9-1.9c3.1-0.5,5.7,0.5,8.3,2.9c1,1,2,1.8,2.9,2.5l2.5,4.3
				l10,0c1,0.6,2,1.4,3.3,2.5c1.7,1.5,3.2,3.2,4.8,4.7l3.1,5.4l6,0c1.3,0.6,2.6,1.3,3.8,2.3c1.2,1,2.3,2.2,3.4,3.4
				c0.1,0.2,0.1,0.4,0.3,0.6c0.1,0.2,0.3,0.2,0.4,0.4c0.2,0.3,0.3,0.6,0.5,0.8c0.6,0.7,0.8,1.4,1.7,1.7c1.4,0.5,3,1,4.5,1.1l0.6,1
				l8.6,0c0.6,0.2,1.2,0.4,1.8,0.5c0.5,0.1,0.9,0.2,1.4,0.4c0.6,0.3,1.2,0.6,1.7,1c1.4,1,2.5,2.3,3.5,3.6l4,7l1.1,0
				c0,0.2,0,0.5,0.1,0.7c0.3,0.3,0.9,0.3,1.3,0.4c1.2,0.1,2.5,0.3,3.7,0.4c0.9,0.1,2,0,2.9,0c1,0,1.8-0.9,2.5-1.5l2.6,0l1.2-2
				c0.4-0.1,0.9-0.2,1.4-0.3c0.2,0,0.4,0.1,0.7,0c0.3-0.1,0.6-0.2,0.9-0.2c0.4,0,0.7-0.1,1.1-0.3c0.7-0.3,1.4-0.3,2.1-0.5
				c0.1,0,0.1,0,0.2-0.1c0.2,0,0.4,0.1,0.6,0.1c2.6,0.5,2.9,2,2.7,4.6c0,0.1,0,0.2,0,0.3c-0.1,0.3-0.2,0.5-0.3,0.8
				c-0.7,1.8-1.8,3.5-2,5.5c-0.2,1.2-0.1,2.8,0.4,3.9l-3.2,0l-7.2,12.2l7,12.1l1.6,0c0.5,1,1.1,2,1,3.1c-0.1,0.7-0.6,1.2-0.7,1.9
				c-0.1,0.5-0.1,0.7-0.4,1.1c-0.7,1.1-1.5,2.2-1.6,3.5c-0.1,0.7,0,1.4,0,2c0,0.7,0.2,1.1,0.4,1.7c0.2,0.5,0.1,1.1,0.5,1.5
				c0.3,0.4,0.8,0.3,1.3,0.3c1.1,0,2,0.1,2.8-0.7c0.4-0.4,0.9-0.9,1.3-1.3c0.6-0.7,0.9-1.6,1.3-2.4c0.3-0.5,0.5-1.1,0.8-1.7
				c0.2-0.4,0.7-0.7,1.2-0.7c0.8,0,1.4,0,2.2,0.4c1,0.6,2.3,0.9,3.3,1.5c0.5,0.3,0.8,0.7,1,1.3c0.1,0.4,0.3,0.7,0.6,1.1
				c0.3,0.5,0.2,0.7,0.9,0.7c0.8,0,1.6,0,2.4,0c1.2,0,2.3-0.4,3.5-0.4c0.6,0,0.8-0.1,0.9-0.6c0.1-0.6,0.1-1.2,0.3-1.8
				c0.2-0.9,0.5-1.6,1-2.3c0.3-0.4,0.7-0.8,1.1-1.1c0.5-0.3,0.7-0.4,1.3-0.5c1.5-0.3,2.9-0.4,3.7-1.7c0.8-1.3,0.4-3.1,0.4-4.6
				c0-1-0.4-1.8-0.9-2.6c-0.2-0.4-0.5-0.7-0.7-1.1c-0.1-0.3-0.2-0.6-0.3-0.8c-0.1-0.2-0.3-0.4-0.4-0.6c-0.1-0.5-0.2-1.2-0.3-1.8
				c0-0.9,0.3-1.5,0.9-2.2c1-1.1,1.6-2.7,2.8-3.6c0.2-0.1,0.3,0,0.4-0.3c0.1-0.2,0.3-0.5,0.3-0.7c0.3-0.8,0.5-1.7,0.7-2.5
				c0.1-0.5,0.1-1,0-1.5c-0.1-1,0.2-1.9,0.2-2.9c0.1-1.4,0.1-2.9,0-4.3c0-0.8-0.4-1.3-0.6-2c-0.3-0.8-0.6-1.6-0.9-2.5
				c-0.6-1.5-1-3.3-1.4-4.9c-0.2-0.8-0.2-1.4-0.2-2.2c0-0.3-0.1-0.7,0-0.9c0.1-0.5,0.4-0.4,0.7-0.7c0.3-0.2,0.4-0.6,0.6-0.9
				c0.3-0.4,0.6-0.7,0.9-1.1c0.3-0.4,0.6-0.7,0.9-1c0.2-0.3,0.4-0.6,0.6-0.9c0.5-0.7,1-1.4,1.5-2.2c0.6-0.9,0.7-1.8,0.7-2.8
				c0-0.7,0.1-1.3-0.2-2c-0.4-0.8-1.2-1.3-1.8-1.8c-1.3-1-2.7-2.3-3.3-3.9c-0.2-0.7-0.6-1.3-0.9-2c-0.3-0.7-0.5-1.4-0.8-2.2
				c-0.4-1-0.9-2.1-1.6-3c-0.6-0.8-1.2-1.5-1.8-2.3c-0.9-1.3-1.4-2.6-2.1-4c-0.1-0.3-0.4-0.4-0.6-0.6c-0.5-0.3-1-0.7-1.3-1.2
				c-0.3-0.4-0.6-0.8-0.9-1.1c-0.3-0.5-0.4-1.3-0.4-1.9c0-0.8-0.2-1.4-0.5-2.1c-0.2-0.4-0.1-0.8-0.2-1.3c0-0.3-0.1-0.4-0.2-0.7
				c-0.1-0.2,0-0.4,0-0.7c-0.1-0.5-0.4-0.7-0.7-1c-0.7-0.7-1.3-1.5-1.9-2.2c-0.9-1-0.9-2-0.9-3.3c0-0.5,0.1-0.9-0.2-1.3
				c-0.2-0.4-0.5-0.6-0.8-0.9c-1.1-1-1.8-2.4-2.7-3.7l-4-6.8l0.1-0.3c-0.1-0.3-0.2-0.5-0.3-0.8c-0.2-0.6-0.3-1.1-0.8-1.5
				c-0.5-0.4-1.3-0.8-2-0.9c-0.5-0.1-1-0.2-1.5-0.3c-1.7-0.6-3.6-1-5.1-2c-2-1.3-2.8-3.7-4.7-5.3c-4-3.3-16.6-1.8-18.3-7.4
				c-0.7-2.4-1.3-7.3-1-9.5l4.6-8l-1.3-2.2c0.1-0.2,0.1-0.4,0.2-0.6c0.3-1.3,0.5-2.6,1-3.9c0.5-1.3,1.2-2.5,1.5-4
				c0.5-2.3,0.3-4.7,0.3-7c0-0.6-0.1-1.2,0-1.8c0.2-0.9,0.6-1.7,0.8-2.6c0.1-0.5,0-1.1,0.2-1.6l9.5,0c0.1,0.3,0.2,0.6,0.4,0.7
				c0.5,0.3,1.2-0.6,1.5-0.8c0.9-0.6,1.7-0.9,2.7-1.1c1.4-0.3,2.8-0.4,4.2-0.4c1.6,0,1.8-0.1,2.5,0.2c0.4,0.2,1.1,0.4,1.5,0.4
				c1,0.1,1.7-0.4,2.6-0.7c1.5-0.6,3.2-0.4,4.9-0.4c0.4,0,0.9,0.1,1.2-0.2c0.3-0.3,0.3-0.9,0.4-1.3c0.1-0.6,0.2-1,0.2-1.6
				c0-0.5-0.1-1.1,0.2-1.3c0.3-0.2,1.1-0.4,1.5-0.5c0.2-0.1,0.4-0.1,0.6-0.1l4.2,7.3l14.3,0l4.2-7.3c0.8,0,1.7,0.1,2.5-0.1
				c0.8-0.2,1.6-0.2,2.4-0.2c0.6,0,1.4-0.1,1.9-0.3c0-0.5-0.4-0.6-0.6-0.8c-0.2-0.2-0.3-0.5-0.5-0.7c-0.1-0.1-0.2-0.2-0.4-0.3
				c-0.2-0.2-0.2-0.4-0.4-0.6c-0.2-0.2-0.4-0.3-0.6-0.4c-0.3-0.3-0.6-0.6-0.9-0.9c-0.2-0.2-0.4-0.3-0.7-0.5l0.2-0.4l-6.3-10.9
				c0-0.5,0.1-1.1-0.1-1.6c-0.1-0.2-0.3-0.4-0.3-0.6c-0.1-0.3,0-0.6,0-0.9c0-0.7,0-1.4,0-2.1c0-0.6-0.2-1-0.2-1.6
				c-0.1-1.2,0-2.5,0.4-3.7c0.4-1.2,1.2-2.4,2.1-3.3c0.5-0.5,1.2-0.6,1.8-1c0.6-0.4,1.3-0.8,2-0.8c0.6,0,1.2,0,1.9,0
				c0.7,0,1.3,0.2,2,0.2c0.6,0.1,1.2,0.2,1.9,0.2c0.8,0,1.5,0.2,2.2,0.5c0.5,0.2,1.1,0.4,0.8,1c-0.1,0.3-0.5,0.6-0.6,0.9
				c-0.2,0.3-0.5,0.8-0.6,1.2c-0.3,1,0,2.4,0.8,3.1c0.4,0.3,0.7,0.5,1.1,0.8c0.4,0.3,0.7,0.6,1.1,0.9c1.4,1,3,2.4,4.8,2.4
				c0.4,0,1.1,0.1,1.3-0.4c0.1-0.2,0-0.4,0-0.7c0.1-0.2,0.2-0.5,0.4-0.7c0.2-0.3,0.7-0.4,0.9-0.7c0.4-0.4,0.8-0.7,1.2-1.1
				c0.7-0.6,1.2-1.4,1.7-2.1c0.4-0.5,1-1.2,1.1-1.8c0.1-0.4,0-0.8,0-1.1c0-0.4,0.1-0.8,0-1.1c-0.1-0.3-0.4-0.6-0.5-0.9
				c0.1-0.8,0.4-1.6,0.9-2.2c1.3-1.4,4-1.7,6.2-1.5c0.1,0.1,0.2,0.1,0.4,0.2c0.7,0.4,0.8,0.7,1.2,1.3c0.3,0.5,0.6,1.2,1,1.5
				c0.5,0.4,0.7,0.5,0.7,1.2c0,0.7,0,1.4,0.2,2.1c0.1,0.4,0.2,0.8,0.4,1.2c-0.8,1.5-1.9,3-2.5,4.2c-0.1,0.2-0.2,0.4-0.3,0.7
				c-0.3,0.1-0.7,0.3-1,0.4c-0.5,0.2-0.9,0.2-1.4,0.4c-0.5,0.2-0.8,0.9-0.5,1.3c0.3,0.5,1,0.7,1.5,1.2c0.1,0.1,0.1,0.2,0.2,0.2
				c-1.6,7,1.3,15.3,1.2,22.7c0,0.4,0,0.7,0,1.1c0,0.8-0.1,1.6-0.3,2.4c-0.2,0.9-0.6,1.8-1.2,2.6c-1,0-2.1-0.1-3.1,0
				c-0.2,0-1.3,0.1-1.4,0.3c-0.2,0.2-0.1,0.4-0.1,0.6c0,0.4-0.2,1.1,0,1.5c0.2,0.5,0.7,0.7,1,1c0.3,0.2,0.5,0.5,0.7,0.9
				c-0.5,1.1-0.6,2.4,0.1,3.7c0.1,0.1,0.1,0.2,0.2,0.3c-0.2,0.4-0.4,0.9-0.5,1.3c-0.2,0.8-0.6,2.4,0.2,3.1c0.5,0.4,1,0.6,1.6,0.8
				c1,0.3,2,0.1,3,0.4c0.8,0.3,1.3,1.7,1.5,2.5c0.3,1.1,0,2.4,0.5,3.6c0.2,0.5,0.5,0.9,0.8,1.3c0.4,0.5,0.5,1.2,0.8,1.7
				c0.2,0.5,0.5,0.9,0.8,1.3c0.3,0.4,0.7,0.9,1,1.3c0.2,0.2,0.4,0.2,0.6,0.5c0.2,0.2,0.3,0.5,0.5,0.7c0.2,0.3,0.3,0.6,0.5,0.8
				c0.2,0.3,0.6,0.4,0.8,0.6c0.2,0.2,0.2,0.4,0.4,0.6c0.2,0.2,0.5,0.3,0.7,0.4c0.4,0.3,0.7,0.8,1.1,1.1c0.9,1.1,1.7,2.2,2.6,3.3
				c0.4,0.5,0.8,1.1,1.4,1.5c0.6,0.5,1.1,0.9,1.6,1.5c0.5,0.5,1,0.9,1.6,1.3c0.6,0.5,1.3,0.7,1.8,1.3c0.6,0.6,1.3,1.4,1.5,2.2
				c0.2,0.8,0.1,2.2,0.7,2.9c0.2,0.2,0.4,0.2,0.6,0.4c0.1,0.1,0.2,0.3,0.3,0.4c0.2,0.2,0.4,0.3,0.6,0.4c0.3,0.2,0.5,0.6,0.7,0.8
				c0.5,0.5,1,0.9,1.5,1.4c0.2,0.2,0.3,0.4,0.6,0.6c0.3,0.2,0.6,0.4,0.9,0.7c1.2,1.6,2.6,3.1,3.7,4.9c0.2,0.4,0.4,0.7,0.6,1.1
				c0.1,0.2,0.3,0.5,0.4,0.6c0.2,0.2,0.3,0.1,0.4,0.2c1.2,0.8,2,1.9,2.9,3c0.2,0.3,0.4,0.5,0.7,0.7c0.3,0.3,0.5,0.6,0.8,0.8
				c0.4,0.3,0.8,0.6,1.3,0.9c0.5,0.2,1,0.3,1.5,0.5c0.6,0.3,1.2,0.6,1.7,1c0.6,0.5,1.1,1.1,1.7,1.6c0.7,0.6,1.1,1.5,1.8,2.1
				c0.3,0.3,0.5,0.6,0.9,0.7c0.3,0.1,0.1,0.2,0.4,0c0.1-0.1,0.4-0.8,0.4-0.9c0.3-0.9,0.1-1.8,0.3-2.8c0.1-0.3,0.2-0.5,0.2-0.9
				c0.1-0.4-0.1-0.9,0-1.4c0.2-1.4,0.8-2.8,0.9-4.2c0-0.5,0-1,0-1.5c0-0.5,0.1-1.2,0-1.7c-0.3-1.3-1.8-2.1-2.9-2.6
				c-0.3-0.2-0.8-0.3-1.1-0.5c-0.3-0.3-0.5-0.6-0.7-1c-0.2-0.5-0.3-0.6-0.8-0.7c-0.5-0.1-1.1-0.2-1.6-0.3c-1.1-0.2-2.6-0.7-2.8-1.9
				c-0.1-0.6-0.1-1.3,0.5-1.5c1-0.3,2.3-0.4,3.3-0.3c0.4,0.1,0.8,0.2,1.3,0.2c0.4,0,0.9,0,1.3,0c0.9,0,1-0.4,1.3-1.1
				c0.3-0.6,0.7-0.3,1.1-0.6c0.7-0.4,0.4-1.3,0-1.8c-1.1-1.2-1.6-2.7-2.6-3.9c-0.5-0.6-0.9-1.1-1.5-1.5c-1-0.8-2.1-1.8-3.3-2.3
				c-0.4-0.1-0.7-0.3-1.1-0.5c-0.5-0.3-0.4-0.4-0.4-1c0-0.3-0.1-0.8,0-1c0.2-0.4,0.8-0.9,1.2-1.1c0.6-0.3,1.3-0.4,2-0.6
				c0.9-0.2,1.9-0.3,2.9-0.5c1.4-0.4,2.9,0.1,4.3-0.2c0.1-0.4,0.1-0.8,0-1.2c2.5-2.1-0.2-3.2-2.3-3.9c-0.2-0.2-0.4-0.4-0.5-0.7
				c-0.5-0.7-1-1.6-1.7-2.2c-0.4-0.3-0.8-0.4-1.2-0.6c-0.6-0.4-1.1-0.9-1.7-1.4c-0.7-0.5-1.1-1.2-1.8-1.7c-0.5-2.5,2.2-4.1,1.8-6.3
				c-0.1-0.3-0.2-0.6-0.4-0.9c0.8-0.2,0.3-0.5,0-1c-0.3-0.6-0.3-1.4-0.6-2c-0.2-0.5-0.6-0.9-1.1-1.1c-0.8-0.3-1.8,0-2.6-0.5
				c-0.8-0.4-1.5-1-2.2-1.5c-0.5-0.3-1-0.6-1.4-0.9c-0.7-0.6-0.7-1.3-0.7-2.1c0-0.5-0.1-1.1,0-1.5c0.1-0.7,0.3-1.2,0.2-1.9
				c-0.1-0.6-0.4-1.5-0.8-2c-0.4-0.5-0.8-0.5-1.3-0.4c-0.6,0-1,0.4-1.4,0.6c-0.3,0.1-0.7,0.1-1.1-0.1c-0.3-0.1-1-0.4-1.4-0.7
				c-0.5-0.4-1.2-0.9-1.7-1.4c-0.5-0.5-1.1-0.7-1.5-1.2c-1.2-1.3-2.2-2.8-2.7-4.7c-1.5-5.5-1.8-11.3,3.3-15.1c0.5-0.3,1-0.6,1.5-0.9
				c0.1,0.1,0.3,0.2,0.5,0.2c0.6,0.1,1.2,0.1,1.8-0.1c0.5-0.2,1.5-0.4,1.7-0.9c0.1-0.3,0-0.9,0-1.3c0,0,0,0,0-0.1
				c0.3-0.3,0.6-0.6,0.8-1c0.8-1.4,0.7-3.1,0.6-4.8c0.2-0.2,0.4-0.4,0.6-0.6c0.2-0.2,0.3-0.4,0.4-0.7c0.2-0.4,0.3-0.5,0.5-0.8
				c0-0.1,0.1-0.1,0.1-0.2c0.3,0,0.7-0.1,1-0.1c0.7,0,1.3,0,2,0c0.5,0,0.9,0.4,1.3,0.6c1,0.6,1.9,1.3,2.8,2c0.4,0.3,1,0.5,1.5,0.5
				c0.7,0,1.5,0.1,2.2,0c0.1,0,0.2,0,0.3,0c2.4,1.7,3.4-2.9,3-4.5c-0.1-0.2-0.2-0.4-0.4-0.7c-0.1-0.2-0.1-0.3,0-0.5
				c-0.1-0.4-0.2-0.5-0.2-0.9c0-0.2,0-0.4,0-0.6c0.1-0.1,0.1-0.3,0.2-0.4c0.1-0.2,0.2-0.4,0.3-0.7c0,0,0.2-0.4,0.3-0.4
				c0.2-0.2,0.4-0.2,0.6-0.3c0.2-0.2,0.3-0.4,0.4-0.6c0.4-0.3,0.7-0.5,1-0.9c0.3-0.6,0.2-1.1,0-1.7c0.1-0.2,0.2-0.4,0.2-0.7
				c0-0.4,0-0.7,0-1.1c0-0.3,0-0.6,0-0.9c0-0.7,0.4-1.1,0.7-1.7c0.1-0.2,0.2-0.4,0.2-0.6l2.6-4.5c0.8-0.7,1.8-1.7,2.2-2.5
				c0.1-0.3,0.3-0.7,0.4-1c0.1-0.6,0.2-1.1,0.4-1.7c0,0,0-0.1,0-0.1l0.6-1l-0.2-0.4c0-0.1,0-0.1,0.1-0.2c0.2-0.5,0.4-1,0.4-1.5
				c0-0.4,0-0.8,0-1.2c0.4-0.3,1-0.3,1.5-0.4c0.6-0.2,1.3-0.3,1.9-0.4c0.7,0,1.6-0.1,2.3,0.1c0.7,0.1,1.4,0.5,2,0.7
				c0.8,0.2,1.3,0.8,2,1.2c0.7,0.5,1.4,1.2,2.3,1.5c0.2,0.1,1.4,0.2,1.6,0c0.2-0.2,0-1.1,0.1-1.3c0.1-0.6,0.2-1.1,0.2-1.7
				c0-0.3-0.1-0.5-0.2-0.7c-0.1-0.3,0-0.6-0.1-0.8c-0.1-0.5-0.4-1.1-0.7-1.5c-0.3-0.4-0.6-0.8-0.8-1.1c-0.4-0.5-0.9-0.9-1.2-1.5
				c-0.3-0.7-0.6-1.4-1-2c-0.2-0.4-0.7-0.6-1.1-0.9c-0.9-0.6-2-0.9-2.9-1.5c-0.6-0.5-1.4-0.8-2.1-1.1c-0.5-0.3-1.1-0.4-1.6-0.6
				c-0.6-0.2-1.1-0.5-1.7-0.7c-0.3-0.1-0.6-0.1-0.9-0.2c-0.3-0.6-0.9-1.1-1.9-1.7c-2.6-1.7-5.6-2.4-8.4-3.6c-2.7-1.1-5.2-1-7.9-1.9
				c-0.1-0.6-0.1-1.1,0-1.6c0.5,0,1-0.2,1.4-0.4c0.3-0.2,0.6-0.6,0.9-0.8c1-0.8,1.9-1.6,2.8-2.5c0.2-0.1,0.3-0.3,0.5-0.4
				c0.4-0.1,0.8-0.2,1.2-0.4c5-1.6,9.5-3.4,15-3.2c1.6,0.1,3.2,0.5,4.7,0.6c0.4,0.2,0.8,0.3,1.2,0.4c0.5,0.2,1,0.3,1.5,0.4
				c0.4,0.1,0.9-0.1,1.3,0c0.6,0.1,1,0.5,1.5,0.8c0.5,0.3,1.4,0.5,2,0.7c1.5,0.3,3.2-0.1,4.7-0.5c0.5-0.1,1.2-0.3,1.8-0.1
				c0.5,0.2,0.9,0.6,1.4,0.8c1.1,0.5,2.7,0.2,3.8,0c1.2-0.2,2.2-0.9,3.5-1.1c1-0.2,2.1-0.4,3-0.9c0.8-0.4,2-0.6,2.6-1.4
				C820,103,819.6,102.8,819.4,102.6z"/>
		</defs>
		<use xlink:href="#XMLID_2308_"  overflow="visible" fill="#041944"/>
		<clipPath id="XMLID_2_">
			<use xlink:href="#XMLID_2308_"  overflow="visible"/>
		</clipPath>
		
			<use xlink:href="#XMLID_2308_"  overflow="visible" fill="none" stroke="#898989" stroke-linecap="round" stroke-linejoin="round" stroke-miterlimit="10"/>
	</g>
	<path fill="#041944" stroke="#898989" stroke-linecap="round" stroke-linejoin="round" stroke-miterlimit="10" d="M479.3,38.8
		c0,0.6,0.3,0.8,0.6,1.3c0.8,1.1,2.3,1.5,3.5,2.2c0.6,0.4,1.3,0.6,2,0.9c0.6,0.4,1.3,0.7,2,1c1.1,0.5,2.1,0.9,3.1,1.6
		c0.9,0.6,1.8,2,2.8,2.2c1.2,0.2,2.3,0.4,3.5,0c0.7-0.2,1.3-0.6,2-1c1-0.7,2.2-1.2,3.2-2c0.7-0.5,1-0.9,1.8-0.9c0.4,0,0.9,0,1.3,0
		c0.7,0,1.1,0.2,1.7,0.5c0.5,0.2,1,0.5,1.5,0.2c0.4-0.2,1-0.6,1.3-1c0.2-0.4,0.3-1,0.5-1.4c0.2-0.4,0.5-0.8,0.8-1.1
		c0.2-0.2,0.4-0.4,0.6-0.5c0.3-0.2,0.5-0.1,0.9-0.1c0.3-0.1,0.6-0.2,0.9-0.2c0.4-0.1,0.9-0.1,1.3-0.2c1.3-0.4,0.4-1.4-0.2-2
		c-0.6-0.5-1.1-0.7-1.1-1.5c0-0.3-0.1-0.8,0-1.1c0.1-0.4,0.2-0.7,0.3-1.1c0.7,0.3,1.7,0.5,2.5,0.8c0.5,0.2,1,0.4,1.6,0.6
		c0.4,0.1,0.8,0.3,1,0.6c0.1,0.2,0.2,0.4,0.3,0.6c0.1,0.2,0.3,0.4,0.4,0.7c0.1,0.4,0.2,0.9,0.5,1.3c0.2,0.2,0.6,0.4,0.8,0.5
		c0.3,0.1,0.6,0,0.9,0c0.6,0.1,1.2,0.2,1.8,0.2c2.6,0,5.2,0,7.8,0c1,0,2.2-0.2,3.2,0c0.3,0.1,0.6,0.3,1,0.4c0.4,0.1,5,0.1,5.4,0.2
		l1.3-0.5c0.6-0.3,1.3-0.9,1.7-1.5c0.2-0.3,0.3-0.9,0.2-1.3c-0.1-0.4-1.2-0.6-1.6-0.7c-0.5-0.1-1-0.2-1.5-0.4
		c-0.5-0.2-0.8-0.5-1.3-0.6c-0.9-0.2-2.1-0.5-2.8-1.1c-0.3-0.2-0.4-0.6-0.7-0.9c-0.4-0.3-0.9-0.2-1.3-0.2c-1.9,0-3.8,0.2-5.7,0.6
		c-0.9,0.2-1.7,0.3-2.6,0.3c-0.9,0-1.7,0-2.6,0.2c-0.5,0.1-0.9,0.2-1.3,0.4c-0.3,0.1-0.6,0.2-0.9,0.3c-0.3,0.1-0.5,0.1-0.9,0.1
		c-0.3,0.1-0.7,0.3-1.1,0.4c-0.4,0.1-0.9,0.2-1.3,0.3c-1,0.1-1.6-0.7-2.4-1.1c-0.2-0.1-0.2-0.2-0.4-0.2c-0.3-0.1-0.6,0.1-0.9,0
		c-0.3-0.1-0.3-0.2-0.6-0.2c-0.3,0-0.6,0-0.9,0c-1.1,0-2.4,0.2-3.3-0.2c-1.1-0.4-2.1-1.3-3.2-1.4c-1.1-0.1-2.4-0.1-3.5,0
		c-1.1,0.1-2.2,0.5-3.3,0.6c-0.4,0-1.1,0.1-1.5,0c-0.5-0.1-1.4-0.8-1.8-1.1c-0.3-0.3-0.5-0.5-0.8-0.7c-0.2-0.1-0.4-0.3-0.6-0.4
		c-0.6-0.3-1.3-0.2-2-0.2c-0.6,0-1.2-0.1-1.8,0c-0.4,0.1-0.7,0.2-1.1,0.4c-0.2,0-0.5,0.1-0.7,0.2c-0.2,0.2-0.2,0.4-0.2,0.7
		c0.1,0.6,0.2,0.5,0.6,0.9c0.4,0.4,0.7,0.9,1.1,1.3c0.3,0.2,0.8,0.5,0.9,0.9c0.1,0.3-0.3,0.7-0.6,1c-0.2-0.2-0.4-0.3-0.5-0.3
		c-0.9-0.5-1.8-0.9-2.8-1.2c-1.6-0.4-3.4,0-5-0.1c-1.2-0.1-1.2-1-2-1.7c-1.4-1.2-1.7,0.9-1.7,1.9c0,0.6-0.1,1.3,0,1.8
		c0.1,0.4,0.4,0.8,0.2,1.3C479.4,38.3,479.3,38.2,479.3,38.8z"/>
	<path fill="#041944" stroke="#898989" stroke-linecap="round" stroke-linejoin="round" stroke-miterlimit="10" d="M131.4,422.9
		c0.2-1.7,2.6-2.4,2.6-4.1c-0.2-1.9-5-1.9-5-3.6c0-1.7,2.6-4.1,2.6-4.1s-3.3-4.2-7.7-4.5c0,0-8.4,2.4-8.4,2.4l-4.1,0.5l2.2,3.6
		c0,0-1,4.1-1,6c-0.2,2.2,2.6,3.6,5.8,5.5c3.1,1.9,12.9,7.4,12.9,7.4s2.9,0.2,2.9,1.7c0,1.4,3.6,0.7,4.1,0c0.5-0.7,0-6,0-6
		S131.2,424.5,131.4,422.9z"/>
</g>
</svg>
