<?xml version="1.0" encoding="utf-8"?>
<!-- Generator: Adobe Illustrator 18.1.1, SVG Export Plug-In . SVG Version: 6.00 Build 0)  -->
<!DOCTYPE svg PUBLIC "-//W3C//DTD SVG 1.1//EN" "http://www.w3.org/Graphics/SVG/1.1/DTD/svg11.dtd" [
	<!ENTITY ns_extend "http://ns.adobe.com/Extensibility/1.0/">
	<!ENTITY ns_ai "http://ns.adobe.com/AdobeIllustrator/10.0/">
	<!ENTITY ns_graphs "http://ns.adobe.com/Graphs/1.0/">
	<!ENTITY ns_vars "http://ns.adobe.com/Variables/1.0/">
	<!ENTITY ns_imrep "http://ns.adobe.com/ImageReplacement/1.0/">
	<!ENTITY ns_sfw "http://ns.adobe.com/SaveForWeb/1.0/">
	<!ENTITY ns_custom "http://ns.adobe.com/GenericCustomNamespace/1.0/">
	<!ENTITY ns_adobe_xpath "http://ns.adobe.com/XPath/1.0/">
]>
<svg version="1.1" id="Layer_1" xmlns:x="&ns_extend;" xmlns:i="&ns_ai;" xmlns:graph="&ns_graphs;"
	 xmlns="http://www.w3.org/2000/svg" xmlns:xlink="http://www.w3.org/1999/xlink" x="0px" y="0px" viewBox="0 0 235.6 131.1"
	 enable-background="new 0 0 235.6 131.1" xml:space="preserve">
<metadata>
	<sfw  xmlns="&ns_sfw;">
		<slices></slices>
		<sliceSourceBounds  width="238.5" height="131.1" y="-88.1" x="311.8" bottomLeftOrigin="true"></sliceSourceBounds>
	</sfw>
</metadata>
<g>
	<g>
		<path fill="#AAAAAA" d="M167,58.8c0,1-0.3,1.8-1,2.3c-0.7,0.5-1.7,0.8-3,0.8h-1.2v3.9h-1.2v-10h2.6C165.8,55.9,167,56.9,167,58.8z
			 M161.9,61h1c1,0,1.8-0.2,2.2-0.5s0.7-0.9,0.7-1.6c0-0.7-0.2-1.2-0.6-1.5s-1.1-0.5-2-0.5h-1.3V61z"/>
		<path fill="#AAAAAA" d="M175.4,62.1c0,1.2-0.3,2.2-0.9,2.9c-0.6,0.7-1.5,1-2.5,1c-0.7,0-1.3-0.2-1.8-0.5s-0.9-0.8-1.2-1.4
			s-0.4-1.3-0.4-2.1c0-1.2,0.3-2.2,0.9-2.9c0.6-0.7,1.5-1,2.5-1c1,0,1.9,0.3,2.5,1S175.4,60.9,175.4,62.1z M169.7,62.1
			c0,1,0.2,1.7,0.6,2.2s0.9,0.8,1.7,0.8s1.3-0.2,1.7-0.7c0.4-0.5,0.6-1.2,0.6-2.2c0-1-0.2-1.7-0.6-2.2c-0.4-0.5-1-0.7-1.7-0.7
			c-0.7,0-1.3,0.2-1.7,0.7S169.7,61.2,169.7,62.1z"/>
		<path fill="#AAAAAA" d="M180.4,66c-1.1,0-1.9-0.3-2.5-1c-0.6-0.7-0.9-1.6-0.9-2.8c0-1.3,0.3-2.2,0.9-2.9s1.5-1,2.6-1
			c0.4,0,0.7,0,1.1,0.1s0.6,0.2,0.8,0.3l-0.3,1c-0.3-0.1-0.5-0.2-0.8-0.3c-0.3-0.1-0.6-0.1-0.8-0.1c-1.5,0-2.3,1-2.3,2.9
			c0,0.9,0.2,1.6,0.6,2.1s0.9,0.7,1.7,0.7c0.6,0,1.3-0.1,1.9-0.4v1C181.8,65.9,181.2,66,180.4,66z"/>
		<path fill="#AAAAAA" d="M187.1,66c-1.1,0-1.9-0.3-2.5-1c-0.6-0.7-0.9-1.6-0.9-2.8c0-1.3,0.3-2.2,0.9-2.9s1.5-1,2.6-1
			c0.4,0,0.7,0,1.1,0.1s0.6,0.2,0.8,0.3l-0.3,1c-0.3-0.1-0.5-0.2-0.8-0.3c-0.3-0.1-0.6-0.1-0.8-0.1c-1.5,0-2.3,1-2.3,2.9
			c0,0.9,0.2,1.6,0.6,2.1s0.9,0.7,1.7,0.7c0.6,0,1.3-0.1,1.9-0.4v1C188.5,65.9,187.8,66,187.1,66z"/>
		<path fill="#AAAAAA" d="M191.8,58.4v4.8l0,1.2l0,0.4l4.1-6.4h1.4v7.5h-1.1v-4.6l0-0.9l0-0.9l-4,6.4h-1.4v-7.5H191.8z"/>
		<path fill="#AAAAAA" d="M200.7,58.4v4.8l0,1.2l0,0.4l4.1-6.4h1.4v7.5H205v-4.6l0-0.9l0-0.9l-4,6.4h-1.4v-7.5H200.7z M202.8,57.4
			c-0.8,0-1.5-0.2-1.8-0.5c-0.4-0.3-0.6-0.9-0.6-1.6h1.1c0,0.5,0.2,0.8,0.4,1s0.6,0.3,1.1,0.3c0.5,0,0.8-0.1,1-0.3s0.4-0.5,0.4-1
			h1.1c-0.1,0.7-0.3,1.3-0.7,1.6C204.3,57.2,203.7,57.4,202.8,57.4z"/>
		<path fill="#AAAAAA" d="M211.5,66c-1.1,0-1.9-0.3-2.5-1c-0.6-0.7-0.9-1.6-0.9-2.8c0-1.3,0.3-2.2,0.9-2.9s1.5-1,2.6-1
			c0.4,0,0.7,0,1.1,0.1s0.6,0.2,0.8,0.3l-0.3,1c-0.3-0.1-0.5-0.2-0.8-0.3c-0.3-0.1-0.6-0.1-0.8-0.1c-1.5,0-2.3,1-2.3,2.9
			c0,0.9,0.2,1.6,0.6,2.1s0.9,0.7,1.7,0.7c0.6,0,1.3-0.1,1.9-0.4v1C212.9,65.9,212.2,66,211.5,66z"/>
		<path fill="#AAAAAA" d="M219.5,58.4h1.2l-3.2,3.6l3.5,3.9h-1.3l-3.4-3.8v3.8h-1.1v-7.5h1.1V62L219.5,58.4z"/>
		<path fill="#AAAAAA" d="M227,65.9l-0.2-1.1h-0.1c-0.4,0.5-0.7,0.8-1.1,1c-0.4,0.2-0.8,0.3-1.4,0.3c-0.7,0-1.3-0.2-1.7-0.6
			s-0.6-0.9-0.6-1.6c0-1.5,1.2-2.3,3.6-2.4l1.3,0v-0.5c0-0.6-0.1-1-0.4-1.3c-0.3-0.3-0.7-0.4-1.2-0.4c-0.6,0-1.3,0.2-2.1,0.6
			l-0.3-0.9c0.4-0.2,0.8-0.4,1.2-0.5s0.9-0.2,1.3-0.2c0.9,0,1.6,0.2,2,0.6s0.6,1,0.6,1.9v5.1H227z M224.5,65.1
			c0.7,0,1.3-0.2,1.7-0.6s0.6-0.9,0.6-1.6v-0.7l-1.1,0c-0.9,0-1.6,0.2-2,0.4c-0.4,0.2-0.6,0.6-0.6,1.2c0,0.4,0.1,0.7,0.4,0.9
			S224,65.1,224.5,65.1z"/>
		<path fill="#AAAAAA" d="M230.6,65.9h-1.3l2.2-3.2c-0.6-0.1-1-0.4-1.3-0.7c-0.3-0.4-0.5-0.8-0.5-1.4c0-0.7,0.2-1.2,0.7-1.6
			s1.1-0.6,1.9-0.6h3.3v7.5h-1.1v-3h-1.9L230.6,65.9z M230.7,60.6c0,0.9,0.6,1.3,1.9,1.3h1.8v-2.5h-2.1
			C231.3,59.4,230.7,59.8,230.7,60.6z"/>
		<path fill="#AAAAAA" d="M164.3,73.7h1.2V75h0.5c0.8,0,1.5,0.2,2,0.5s1,0.7,1.3,1.3s0.5,1.2,0.5,1.9c0,0.8-0.2,1.4-0.5,2
			c-0.3,0.6-0.8,1-1.4,1.3s-1.3,0.4-2.1,0.4h-0.3V84h-1.2v-1.5H164c-0.8,0-1.5-0.2-2.1-0.5s-1-0.7-1.4-1.3s-0.5-1.3-0.5-2
			c0-0.7,0.2-1.4,0.5-1.9s0.7-1,1.3-1.3c0.6-0.3,1.3-0.5,2-0.5h0.5V73.7z M164.3,76h-0.4c-0.8,0-1.5,0.2-2,0.7s-0.7,1.1-0.7,2
			c0,0.9,0.3,1.6,0.8,2.1c0.5,0.5,1.2,0.7,2.1,0.7h0.2V76z M165.5,81.5h0.2c0.9,0,1.6-0.3,2.1-0.7c0.5-0.5,0.8-1.2,0.8-2.1
			c0-0.8-0.2-1.5-0.7-2s-1.1-0.7-2-0.7h-0.4V81.5z"/>
		<path fill="#AAAAAA" d="M174.9,84c-1.1,0-2-0.3-2.6-1s-1-1.6-1-2.8c0-1.2,0.3-2.2,0.9-2.9s1.4-1.1,2.4-1.1c0.9,0,1.7,0.3,2.2,0.9
			c0.5,0.6,0.8,1.4,0.8,2.4v0.7h-5.2c0,0.9,0.2,1.5,0.7,2s1,0.7,1.8,0.7c0.8,0,1.6-0.2,2.4-0.5v1c-0.4,0.2-0.8,0.3-1.1,0.4
			C175.8,84,175.4,84,174.9,84z M174.5,77.2c-0.6,0-1.1,0.2-1.4,0.6s-0.6,0.9-0.6,1.6h3.9c0-0.7-0.2-1.3-0.5-1.6
			C175.6,77.4,175.1,77.2,174.5,77.2z"/>
		<path fill="#AAAAAA" d="M186.1,86.5H185v-2.6h-5.2v2.6h-1.1v-3.6h0.6c0.6-0.8,1.1-1.8,1.4-2.9s0.5-2.3,0.5-3.6h3.8v6.5h1.1V86.5z
			 M183.9,82.9v-5.6h-1.7c-0.1,1-0.3,2-0.6,3.1c-0.3,1-0.7,1.9-1.2,2.5H183.9z"/>
		<path fill="#AAAAAA" d="M190.7,84c-1.1,0-2-0.3-2.6-1s-1-1.6-1-2.8c0-1.2,0.3-2.2,0.9-2.9s1.4-1.1,2.4-1.1c0.9,0,1.7,0.3,2.2,0.9
			c0.5,0.6,0.8,1.4,0.8,2.4v0.7h-5.2c0,0.9,0.2,1.5,0.7,2s1,0.7,1.8,0.7c0.8,0,1.6-0.2,2.4-0.5v1c-0.4,0.2-0.8,0.3-1.1,0.4
			C191.7,84,191.2,84,190.7,84z M190.4,77.2c-0.6,0-1.1,0.2-1.4,0.6s-0.6,0.9-0.6,1.6h3.9c0-0.7-0.2-1.3-0.5-1.6
			C191.5,77.4,191,77.2,190.4,77.2z"/>
		<path fill="#AAAAAA" d="M198.9,84c-0.5,0-0.9-0.1-1.3-0.3c-0.4-0.2-0.7-0.5-1-0.8h-0.1c0.1,0.4,0.1,0.9,0.1,1.2v3.1h-1.1V76.4h0.9
			l0.2,1h0.1c0.3-0.4,0.6-0.7,1-0.9s0.8-0.3,1.3-0.3c1,0,1.8,0.3,2.3,1s0.8,1.6,0.8,2.9c0,1.2-0.3,2.2-0.8,2.9
			C200.6,83.7,199.9,84,198.9,84z M198.7,77.2c-0.8,0-1.3,0.2-1.7,0.6s-0.5,1.1-0.5,2v0.3c0,1.1,0.2,1.8,0.5,2.3
			c0.4,0.5,0.9,0.7,1.7,0.7c0.6,0,1.2-0.3,1.5-0.8s0.6-1.2,0.6-2.2c0-0.9-0.2-1.7-0.6-2.1C199.9,77.5,199.4,77.2,198.7,77.2z"/>
		<path fill="#AAAAAA" d="M208.6,83.9l-0.2-1.1h-0.1c-0.4,0.5-0.7,0.8-1.1,1c-0.4,0.2-0.8,0.3-1.4,0.3c-0.7,0-1.3-0.2-1.7-0.6
			s-0.6-0.9-0.6-1.6c0-1.5,1.2-2.3,3.6-2.4l1.3,0v-0.5c0-0.6-0.1-1-0.4-1.3c-0.3-0.3-0.7-0.4-1.2-0.4c-0.6,0-1.3,0.2-2.1,0.6
			l-0.3-0.9c0.4-0.2,0.8-0.4,1.2-0.5s0.9-0.2,1.3-0.2c0.9,0,1.6,0.2,2,0.6s0.6,1,0.6,1.9v5.1H208.6z M206,83.1
			c0.7,0,1.3-0.2,1.7-0.6s0.6-0.9,0.6-1.6v-0.7l-1.1,0c-0.9,0-1.6,0.2-2,0.4c-0.4,0.2-0.6,0.6-0.6,1.2c0,0.4,0.1,0.7,0.4,0.9
			S205.6,83.1,206,83.1z"/>
		<path fill="#AAAAAA" d="M219.1,86.5h-1.1v-2.6h-6.2v-7.5h1.1v6.5h4v-6.5h1.1v6.5h1.1V86.5z"/>
		<path fill="#AAAAAA" d="M221.6,76.4v4.8l0,1.2l0,0.4l4.1-6.4h1.4v7.5h-1.1v-4.6l0-0.9l0-0.9l-4,6.4h-1.4v-7.5H221.6z"/>
		<path fill="#AAAAAA" d="M229.8,83.9h-1.3l2.2-3.2c-0.6-0.1-1-0.4-1.3-0.7c-0.3-0.4-0.5-0.8-0.5-1.4c0-0.7,0.2-1.2,0.7-1.6
			s1.1-0.6,1.9-0.6h3.3v7.5h-1.1v-3h-1.9L229.8,83.9z M229.9,78.6c0,0.9,0.6,1.3,1.9,1.3h1.8v-2.5h-2.1
			C230.5,77.4,229.9,77.8,229.9,78.6z"/>
	</g>
</g>
<g>
	<g>
		<defs>
			<path id="XMLID_2098_" d="M92.5,50.1l-3-2.6c-2.4-2.1-4.4-5.4-4.9-14.6l0,0c-1,10.6-2.4,12.2-4.6,14.3l-3.6,3.3
				c-2.1,1.6-2.4,3.9-1,5.8l2.3,4.3l13.7-0.1l2.3-4.4C95.3,54.2,94.8,51.7,92.5,50.1z"/>
		</defs>
		<use xlink:href="#XMLID_2098_"  overflow="visible" fill="#041944"/>
		<clipPath id="XMLID_2_">
			<use xlink:href="#XMLID_2098_"  overflow="visible"/>
		</clipPath>
		
			<use xlink:href="#XMLID_2098_"  overflow="visible" fill="none" stroke="#898989" stroke-linecap="round" stroke-linejoin="round" stroke-miterlimit="10"/>
	</g>
	<g>
		<defs>
			<path id="XMLID_2097_" d="M148.4,79.9l0-10c0-1.7-1.4-3.1-3.1-3.1l0,0v-7.4l1.4,0v-5.1h-13.1l0.1,5.2l1.4,0.1v7.2l-6.2,0
				l-5.2-10.6l-0.1-18l-22.8,0l0.8,49.6l8.9,24.3h41V88l0,0C149.5,85.8,148.4,82.9,148.4,79.9z"/>
		</defs>
		<use xlink:href="#XMLID_2097_"  overflow="visible" fill="#041944"/>
		<clipPath id="XMLID_3_">
			<use xlink:href="#XMLID_2097_"  overflow="visible"/>
		</clipPath>
		
			<line clip-path="url(#XMLID_3_)" fill="#041944" stroke="#898989" stroke-linecap="round" stroke-linejoin="round" stroke-miterlimit="10" x1="133.1" y1="57.6" x2="155.6" y2="57.6"/>
		
			<rect x="122.5" y="93.3" clip-path="url(#XMLID_3_)" fill="#041944" stroke="#898989" stroke-linecap="round" stroke-linejoin="round" stroke-miterlimit="10" width="24.9" height="22.3"/>
		
			<path clip-path="url(#XMLID_3_)" fill="#041944" stroke="#898989" stroke-linecap="round" stroke-linejoin="round" stroke-miterlimit="10" d="
			M143.5,99c0-1.8-1.4-3.2-3.2-3.2c-1.8,0-3.2,1.4-3.2,3.2v2.3h-1.4V99c0-1.8-1.4-3.2-3.2-3.2s-3.2,1.4-3.2,3.2v13.2h4.5v2.6h5.8
			v-2.6h4V99z"/>
		
			<use xlink:href="#XMLID_2097_"  overflow="visible" fill="none" stroke="#898989" stroke-linecap="round" stroke-linejoin="round" stroke-miterlimit="10"/>
	</g>
	<g>
		<defs>
			<rect id="XMLID_2096_" x="76.9" y="59" width="15.2" height="16"/>
		</defs>
		<use xlink:href="#XMLID_2096_"  overflow="visible" fill="#041944"/>
		<clipPath id="XMLID_4_">
			<use xlink:href="#XMLID_2096_"  overflow="visible"/>
		</clipPath>
		
			<rect x="73.3" y="57.5" clip-path="url(#XMLID_4_)" fill="#041944" stroke="#898989" stroke-linecap="round" stroke-linejoin="round" stroke-miterlimit="10" width="21.2" height="5.3"/>
		
			<use xlink:href="#XMLID_2096_"  overflow="visible" fill="none" stroke="#898989" stroke-linecap="round" stroke-linejoin="round" stroke-miterlimit="10"/>
	</g>
	<path fill="#041944" stroke="#898989" stroke-linecap="round" stroke-linejoin="round" stroke-miterlimit="10" d="M146.8,47.1
		l-2.6-2.4c-1.9-1.7-3.3-4.3-4-7.2c0.1,1.8-1.6,5.4-3.4,7.1l-2.9,2.8c-1.6,1.3-2,3.2-0.8,4.8l1.8,2.4l11-0.3l1.8-2.3
		C149.1,50.5,148.7,48.4,146.8,47.1z"/>
	<path fill="#041944" stroke="#898989" stroke-linecap="round" stroke-linejoin="round" stroke-miterlimit="10" d="M122.3,36.4
		l-4.8-12.1c-1.4-3.6-2.1-7.3-2.1-11V8.2h-5.3v5.1c0,3.7-0.7,7.5-2.1,11l-4.8,12.1H122.3z"/>
	
		<rect x="98.2" y="60.1" fill="#041944" stroke="#898989" stroke-linecap="round" stroke-linejoin="round" stroke-miterlimit="10" width="12.6" height="15.2"/>
	<g>
		<defs>
			<path id="XMLID_2095_" d="M89.6,71.8L76,71.7c-2.5,0-4.7,1.8-5.1,4.3l-1.7,10.7h0c-2-0.1-3.7,1.5-3.7,3.5l-0.1,21.7h58V93.1l0,0
				c-7.2-3.8-11.7-11.3-11.6-19.4l0-1.7c0.1-0.6-1.5-2.4-1.9-2.4l0,0c-1,0-2.1,2.1-2,2.4l-0.6,0c0.1-0.5-1.3-2.4-2-2.4h0
				c-1.1,0-2,2.2-1.9,2.3l-0.6,0c0-0.1-0.9-2.3-1.9-2.3h-0.1c-1.1,0-2.4,2.6-2.4,2.6l-5.9-0.1"/>
		</defs>
		<use xlink:href="#XMLID_2095_"  overflow="visible" fill="#041944"/>
		<clipPath id="XMLID_5_">
			<use xlink:href="#XMLID_2095_"  overflow="visible"/>
		</clipPath>
		
			<line clip-path="url(#XMLID_5_)" fill="#041944" stroke="#898989" stroke-linecap="round" stroke-linejoin="round" stroke-miterlimit="10" x1="76.9" y1="64" x2="99.1" y2="64"/>
		
			<line clip-path="url(#XMLID_5_)" fill="#041944" stroke="#898989" stroke-linecap="round" stroke-linejoin="round" stroke-miterlimit="10" x1="82.9" y1="86.7" x2="55.7" y2="86.7"/>
		
			<line clip-path="url(#XMLID_5_)" fill="#041944" stroke="#898989" stroke-linecap="round" stroke-linejoin="round" stroke-miterlimit="10" x1="98.3" y1="71.7" x2="98.3" y2="72"/>
		
			<use xlink:href="#XMLID_2095_"  overflow="visible" fill="none" stroke="#898989" stroke-linecap="round" stroke-linejoin="round" stroke-miterlimit="10"/>
	</g>
	<g>
		<defs>
			<path id="XMLID_2094_" d="M93.6,82.6l2.6-0.1l-0.1,4l-13.5,0.1l0-1.6c0-1.4,1.1-2.5,2.5-2.5l1.3,0v-9.2h7.2V82.6z"/>
		</defs>
		<use xlink:href="#XMLID_2094_"  overflow="visible" fill="#041944"/>
		<clipPath id="XMLID_6_">
			<use xlink:href="#XMLID_2094_"  overflow="visible"/>
		</clipPath>
		
			<line clip-path="url(#XMLID_6_)" fill="#041944" stroke="#898989" stroke-linecap="round" stroke-linejoin="round" stroke-miterlimit="10" x1="86.4" y1="82.7" x2="99.9" y2="82.7"/>
		
			<use xlink:href="#XMLID_2094_"  overflow="visible" fill="none" stroke="#898989" stroke-linecap="round" stroke-linejoin="round" stroke-miterlimit="10"/>
	</g>
	<path fill="#041944" stroke="#898989" stroke-linecap="round" stroke-linejoin="round" stroke-miterlimit="10" d="M113.5,94.8
		L113.5,94.8c0-1.5-1.2-2.9-2.7-3c-1.6-0.1-3,1.2-3,2.9v4l-2.2,0v-3.8c0-1.5-1.2-2.9-2.7-3c-1.6-0.1-3,1.2-3,2.9v3.9l-2.1,0l0-3.8
		c0-1.5-1.2-2.9-2.7-3c-1.6-0.1-3,1.2-3,2.9v3.9l-2.1,0v-3.8c0-1.5-1.2-2.9-2.7-3c-1.6-0.1-3,1.2-3,2.9v3.9l-1.5,0v-3.8
		c0-1.5-1.2-2.9-2.7-3c-1.6-0.1-3,1.2-3,2.9v3.9l-1.8,0v-3.7c0-1.5-1.2-2.9-2.7-3c-1.6-0.1-3,1.2-3,2.9v3.9l-3.7-0.1l-0.1,13.7h57.8
		l0.2-8.3l-6.7-3.3C114.9,99.5,113.5,97.2,113.5,94.8z"/>
	<polygon fill="#041944" stroke="#898989" stroke-linecap="round" stroke-linejoin="round" stroke-miterlimit="10" points="
		130.3,76.9 134.5,84 118.4,83.9 122.4,76.9 122.4,68.8 130.3,68.8 	"/>
	
		<line fill="#041944" stroke="#898989" stroke-linecap="round" stroke-linejoin="round" stroke-miterlimit="10" x1="127.7" y1="73.3" x2="127.7" y2="76.2"/>
	<path fill="#041944" stroke="#898989" stroke-linecap="round" stroke-linejoin="round" stroke-miterlimit="10" d="M126.2,55.4
		l-4.8,6.2c-1.2,1.3-1.5,3.2-0.6,4.8l1.4,2.4l8.3-0.3l1.3-2.3c1-1.6,0.7-3.7-0.7-5L126.2,55.4z"/>
	<path fill="#041944" stroke="#898989" stroke-linecap="round" stroke-linejoin="round" stroke-miterlimit="10" d="M89.7,59.9
		l-4.8,6.2c-1.2,1.3-1.5,3.2-0.6,4.8l1.4,2.4l8.3-0.3l1.3-2.3c1-1.6,0.7-3.7-0.7-5L89.7,59.9z"/>
	<path fill="#041944" stroke="#898989" stroke-linecap="round" stroke-linejoin="round" stroke-miterlimit="10" d="M112.6,0.5
		L109.2,4c-0.9,0.7-1,1.8-0.4,2.7l1,1.4l5.8-0.1l0.9-1.3c0.7-0.9,0.5-2.1-0.5-2.8L112.6,0.5z"/>
	<g>
		<defs>
			<path id="XMLID_2093_" d="M127.2,93.2c0-0.2,8.7-16.7,8.7-16.7l9.6,16.8L127.2,93.2z"/>
		</defs>
		<use xlink:href="#XMLID_2093_"  overflow="visible" fill="#041944"/>
		<clipPath id="XMLID_7_">
			<use xlink:href="#XMLID_2093_"  overflow="visible"/>
		</clipPath>
		
			<line clip-path="url(#XMLID_7_)" fill="#041944" stroke="#898989" stroke-linecap="round" stroke-linejoin="round" stroke-miterlimit="10" x1="135.9" y1="76.5" x2="131.3" y2="94.4"/>
		
			<line clip-path="url(#XMLID_7_)" fill="#041944" stroke="#898989" stroke-linecap="round" stroke-linejoin="round" stroke-miterlimit="10" x1="136" y1="76.4" x2="140.3" y2="94.5"/>
		
			<use xlink:href="#XMLID_2093_"  overflow="visible" fill="none" stroke="#898989" stroke-linecap="round" stroke-linejoin="round" stroke-miterlimit="10"/>
	</g>
	
		<rect x="100.8" y="35.3" fill="#041944" stroke="#898989" stroke-linecap="round" stroke-linejoin="round" stroke-miterlimit="10" width="23.1" height="3.5"/>
	
		<rect x="108" y="7.2" fill="#041944" stroke="#898989" stroke-linecap="round" stroke-linejoin="round" stroke-miterlimit="10" width="9.5" height="1.8"/>
	
		<rect x="85" y="72.8" fill="#041944" stroke="#898989" stroke-linecap="round" stroke-linejoin="round" stroke-miterlimit="10" width="8.9" height="3.1"/>
	<polygon fill="#041944" stroke="#898989" stroke-linecap="round" stroke-linejoin="round" stroke-miterlimit="10" points="
		130.1,70.6 122.2,70.5 121.8,68.2 130.7,68.2 	"/>
	<path fill="#041944" stroke="#898989" stroke-linecap="round" stroke-linejoin="round" stroke-miterlimit="10" d="M111.3,51
		c0,0-5.9-4.7-6.7-9.9c-0.9,5-6.8,10.3-6.8,10.3c-1.7,1.5-2.1,3.9-0.8,5.7l1.9,2.9l11.5-0.1l1.9-3C113.7,55.1,113.3,52.6,111.3,51z"
		/>
	
		<rect x="97.2" y="57.6" fill="#041944" stroke="#898989" stroke-linecap="round" stroke-linejoin="round" stroke-miterlimit="10" width="15" height="2.8"/>
	<polygon fill="#041944" stroke="#898989" stroke-linecap="round" stroke-linejoin="round" stroke-miterlimit="10" points="
		146.9,54.9 133.7,54.9 133.7,53 147.1,53 	"/>
	
		<rect x="137.7" y="59.7" fill="#041944" stroke="#898989" stroke-linecap="round" stroke-linejoin="round" stroke-miterlimit="10" width="1.9" height="4.8"/>
	<g>
		
			<rect x="101.2" y="63.3" fill="#041944" stroke="#898989" stroke-linecap="round" stroke-linejoin="round" stroke-miterlimit="10" width="1.7" height="3.8"/>
		
			<rect x="106.9" y="63.3" fill="#041944" stroke="#898989" stroke-linecap="round" stroke-linejoin="round" stroke-miterlimit="10" width="1.7" height="3.8"/>
	</g>
	<g>
		
			<line fill="#041944" stroke="#898989" stroke-linecap="round" stroke-linejoin="round" stroke-miterlimit="10" x1="72.1" y1="95" x2="72.1" y2="97.3"/>
		
			<line fill="#041944" stroke="#898989" stroke-linecap="round" stroke-linejoin="round" stroke-miterlimit="10" x1="79.6" y1="95" x2="79.6" y2="97.3"/>
		
			<line fill="#041944" stroke="#898989" stroke-linecap="round" stroke-linejoin="round" stroke-miterlimit="10" x1="87.2" y1="95" x2="87.2" y2="97.3"/>
		
			<line fill="#041944" stroke="#898989" stroke-linecap="round" stroke-linejoin="round" stroke-miterlimit="10" x1="94.7" y1="95" x2="94.7" y2="97.3"/>
		
			<line fill="#041944" stroke="#898989" stroke-linecap="round" stroke-linejoin="round" stroke-miterlimit="10" x1="102.6" y1="95" x2="102.6" y2="97.3"/>
		
			<line fill="#041944" stroke="#898989" stroke-linecap="round" stroke-linejoin="round" stroke-miterlimit="10" x1="110.1" y1="95" x2="110.1" y2="97.3"/>
	</g>
	<g>
		<defs>
			<path id="XMLID_2092_" d="M156.7,117.8H65.4v-9h82.2C152.6,108.8,156.7,112.8,156.7,117.8L156.7,117.8z"/>
		</defs>
		<use xlink:href="#XMLID_2092_"  overflow="visible" fill="#041944"/>
		<clipPath id="XMLID_8_">
			<use xlink:href="#XMLID_2092_"  overflow="visible"/>
		</clipPath>
		
			<line clip-path="url(#XMLID_8_)" fill="none" stroke="#898989" stroke-linecap="round" stroke-linejoin="round" stroke-miterlimit="10" x1="58.1" y1="114.8" x2="164.1" y2="114.8"/>
		
			<use xlink:href="#XMLID_2092_"  overflow="visible" fill="none" stroke="#898989" stroke-linecap="round" stroke-linejoin="round" stroke-miterlimit="10"/>
	</g>
	
		<line fill="#041944" stroke="#898989" stroke-linecap="round" stroke-linejoin="round" stroke-miterlimit="10" x1="125.1" y1="73.3" x2="125.1" y2="76.2"/>
	
		<line fill="none" stroke="#898989" stroke-linecap="round" stroke-linejoin="round" stroke-miterlimit="10" x1="118.2" y1="83.8" x2="106.1" y2="83.8"/>
	
		<line fill="none" stroke="#898989" stroke-linecap="round" stroke-linejoin="round" stroke-miterlimit="10" x1="118.6" y1="15.7" x2="106.4" y2="15.7"/>
	<circle fill="#041944" stroke="#898989" stroke-linejoin="round" stroke-miterlimit="10" cx="105.6" cy="83.5" r="2.9"/>
	
		<line fill="none" stroke="#898989" stroke-linecap="round" stroke-linejoin="round" stroke-miterlimit="10" x1="84.6" y1="37" x2="84.6" y2="23.8"/>
</g>
<path fill="none" stroke="#898989" stroke-linejoin="round" stroke-miterlimit="10" d="M24.2,104.3l21.4,19.1
	c3.1,2.8,7.2,4.4,11.4,4.4h53.5"/>
<g>
	<g>
		<path fill="#041944" stroke="#898989" stroke-width="3" stroke-linejoin="round" stroke-miterlimit="10" d="M27.3,79.9
			c10.3,3.4,15.9,14.4,12.6,24.6s-14.5,15.8-24.8,12.4S-0.9,102.5,2.5,92.3S16.9,76.5,27.3,79.9z"/>
		<g>
			<defs>
				<path id="XMLID_158_" d="M25.4,85.6c7.1,2.3,10.9,9.9,8.6,17c-2.3,7.1-9.9,10.9-17,8.6s-10.9-9.9-8.6-17S18.3,83.3,25.4,85.6z"
					/>
			</defs>
			<use xlink:href="#XMLID_158_"  overflow="visible" fill="#041944"/>
			<clipPath id="XMLID_9_">
				<use xlink:href="#XMLID_158_"  overflow="visible"/>
			</clipPath>
			<g id="XMLID_159_" clip-path="url(#XMLID_9_)">
				<defs>
					<rect id="XMLID_2089_" x="3.4" y="82.6" width="42.7" height="30.6"/>
				</defs>
				<use xlink:href="#XMLID_2089_"  overflow="visible" fill="#D73227"/>
				<clipPath id="XMLID_10_">
					<use xlink:href="#XMLID_2089_"  overflow="visible"/>
				</clipPath>
				<rect id="XMLID_2091_" x="-2.9" y="92.8" clip-path="url(#XMLID_10_)" fill="#174A92" width="53" height="10.8"/>
				<g clip-path="url(#XMLID_10_)">
					<defs>
						<rect id="XMLID_2090_" x="-1.7" y="82.6" width="49.5" height="10.8"/>
					</defs>
					<use xlink:href="#XMLID_2090_"  overflow="visible" fill="#FFFFFF"/>
					<clipPath id="XMLID_11_">
						<use xlink:href="#XMLID_2090_"  overflow="visible"/>
					</clipPath>
				</g>
			</g>
			
				<use xlink:href="#XMLID_158_"  overflow="visible" fill="none" stroke="#898989" stroke-linejoin="round" stroke-miterlimit="10"/>
		</g>
	</g>
</g>
<g>
	<circle fill="#041944" stroke="#898989" stroke-linejoin="round" stroke-miterlimit="10" cx="35.6" cy="114.9" r="2.9"/>
</g>
<g>
	<circle fill="#041944" stroke="#898989" stroke-linejoin="round" stroke-miterlimit="10" cx="109.6" cy="127.7" r="2.9"/>
</g>
</svg>
