<?xml version="1.0" encoding="utf-8"?>
<!-- Generator: Adobe Illustrator 18.1.1, SVG Export Plug-In . SVG Version: 6.00 Build 0)  -->
<!DOCTYPE svg PUBLIC "-//W3C//DTD SVG 1.1//EN" "http://www.w3.org/Graphics/SVG/1.1/DTD/svg11.dtd" [
	<!ENTITY ns_extend "http://ns.adobe.com/Extensibility/1.0/">
	<!ENTITY ns_ai "http://ns.adobe.com/AdobeIllustrator/10.0/">
	<!ENTITY ns_graphs "http://ns.adobe.com/Graphs/1.0/">
	<!ENTITY ns_vars "http://ns.adobe.com/Variables/1.0/">
	<!ENTITY ns_imrep "http://ns.adobe.com/ImageReplacement/1.0/">
	<!ENTITY ns_sfw "http://ns.adobe.com/SaveForWeb/1.0/">
	<!ENTITY ns_custom "http://ns.adobe.com/GenericCustomNamespace/1.0/">
	<!ENTITY ns_adobe_xpath "http://ns.adobe.com/XPath/1.0/">
]>
<svg version="1.1" id="Layer_1" xmlns:x="&ns_extend;" xmlns:i="&ns_ai;" xmlns:graph="&ns_graphs;"
	 xmlns="http://www.w3.org/2000/svg" xmlns:xlink="http://www.w3.org/1999/xlink" x="0px" y="0px" viewBox="0 0 209.5 104.7"
	 enable-background="new 0 0 209.5 104.7" xml:space="preserve">
<metadata>
	<sfw  xmlns="&ns_sfw;">
		<slices></slices>
		<sliceSourceBounds  width="209.5" height="104.7" y="-427.1" x="570.6" bottomLeftOrigin="true"></sliceSourceBounds>
	</sfw>
</metadata>
<rect x="0" y="0" fill="#00B0CA" width="209.5" height="104.7"/>
<g id="XMLID_4136_">
	<g id="XMLID_4137_">
		<path id="XMLID_4300_" fill-rule="evenodd" clip-rule="evenodd" fill="#F6DB6B" d="M101.1,70.7C86.3,70.7,76,59,75,47.1
			c0,0-0.6-0.2-0.7,0.3c-0.2,1.2,0.3,5.1,0.1,4.8c-0.4-0.5-3-7.7-3.5-6.9c-0.7,1,3,9.2,2.8,9.5c-0.7,0.9-4.9-8-5.3-7.3
			C67.2,50,73.7,58,73.7,58.4c-0.1,1.1-4.9-4.3-5.3-3.8c-0.9,1.3,5.2,6.1,5.5,6.4c0.9,1.1-3.3-1.9-3.4-0.9c-0.1,0.8,2.1,2.6,3.4,3.3
			s1.7,0.5,2.1,1.1c0.3,0.5-2.4-0.3-2.4,0.3c0.1,1.2,3,0.9,3.4,1.5s-1.9,0.1-1.8,0.6c0.2,0.8,2.6,0.9,2.6,1.2c0,0.3-1.5,0.1-1.4,0.7
			c0.1,0.5,2.4,0.4,3,0.8c0.6,0.4-2.1,0.1,0,1.1c2.1,1,4.5,2.2,7.7,2.8c3.3,0.6,4.9-0.1,5-0.3s-1.5,0.2-3.9-0.2
			c-2.3-0.4-5.4-1.9-6.7-2.6c-0.4-0.2,1.2-0.7,0.9-1.1c-0.3-0.4-1.7,0.1-2.2-0.6c-0.3-0.4,0.6-0.4,0.6-0.7c0-0.2-1.8-0.7-2.1-1.1
			c-0.3-0.4,0.8-0.4,0.9-0.7c0-0.2-1.1-0.6-1.2-0.9c-0.1-0.3,1.3-0.2,0.6-0.6c-0.7-0.4-2.5-0.9-2.9-1.5c-0.3-0.7,1.4,0.1,1-0.5
			c-0.3-0.4-2-1.2-2.4-2.1c-0.2-0.7,1.2-0.1,1.2-0.5c0-0.7-0.9-0.2-1.1-2.2c-0.1-0.6,1.1-0.2,1.1-0.2l0.2-0.3c0,0,1.4,0.8,3.3,3
			c1.9,2.2,2.4,4.2,4.2,5.7c0.8,0.7,0.9-0.3,2.8,0.9c1.9,1.2,2.7,2,4.7,3.7c0.3,0.2,1.6-0.2,5.4,0.6c2.1,0.4,2.5,1.5,2.5,1.5
			c0,0,1.2-0.7,1.7-1.5c0.2-0.3,0.4,0,0.5-0.1C101.3,71,101.1,70.7,101.1,70.7L101.1,70.7z"/>
		<path id="XMLID_4299_" fill-rule="evenodd" clip-rule="evenodd" fill="#F6DB6B" d="M111,75.1c-0.5-0.1-0.5,0.3-0.5,0.3
			c0,0.5-0.3,1.1-0.8,1.2c-0.3,0.1-0.2,0.3-0.3,0.6l-1.4-0.1c-2.3,1.2-5.1,1.7-8.5,1.3c0,0-0.7,0.5-1.4,1.1
			c-0.6,0.6-1.1,0.7-1.2,1.1c-0.1,0.5,0.3,0.7,0.9,0.7c0.6,0,1.4-0.5,1.4-0.5s0.1,0.5,0.6,0.5c0.5,0,1.5-0.3,1.5-0.3
			s0.8,0.4,1.5,0.3c0.6-0.1,1.2-0.5,1.2-0.5s0.2,0.7,0.8,0.8s1.6-0.8,1.6-0.8s0.5,0.5,1,0.5c0.6-0.1,1.3-0.7,1.3-0.7
			s0.7,0.3,1.4,0.1s1.3-0.9,1.3-0.9s0.6,0.5,1.1,0.3c0.5-0.2,0.9-0.9,0.9-0.9s1.5,0.6,2.4,0.1c0.7-0.3,0.5-1.4,0.5-1.4s4,0.6,3.8-2
			C120.2,75.5,113.8,75.6,111,75.1L111,75.1z"/>
		<path id="XMLID_4298_" fill-rule="evenodd" clip-rule="evenodd" fill="#F6DB6B" d="M102.5,72.3c0,0,1.1-0.4,3.2-0.9
			c3.9-0.8,5.2-0.5,5.5-0.8c3.1-3.4,5.3-3.7,7.5-4.5c1.8-1.5,2.3-3.6,4.2-5.8c1.9-2.2,3-2.3,3-2.3l0.3,0.5c0,0,1-0.8,1-0.1
			c-0.1,1-0.9,1.9-0.8,2.6c0,0.4,1.4-0.2,1.2,0.2c-0.3,1-1.4,1.6-1.7,2c-0.5,0.6,1.2-0.2,0.9,0.4c-0.4,0.7-2.1,1.3-2.7,1.8
			c-0.4,0.3,0.4,0.3,0.4,0.6c-0.1,0.3-1.9,0.9-1.8,1.2c0,0.3,0.5,0.3,0.3,0.6c-0.4,0.4-1.8,0.5-1.9,0.7c0,0.3,0.3,0.5,0,0.9
			c-0.5,0.6-0.9,0-1.1,0.5c-0.1,0.3,0.8,0.9,0.2,1c-0.9,0.2-1.6,0.5-2.3,1c-0.3,0.2-1.6,0.4-2.3,0.6c-0.5,0.1-3.2,0.5-3.1,0.7
			c0.1,0.2,1.8,0.2,5.5-0.4c1.6-0.3,2.5-0.5,4.9-1.2c2.8-0.9-0.7-0.9-0.1-1.3c0.6-0.4,3-0.2,3.1-0.7c0.1-0.6-1.4-0.4-1.3-0.8
			c0-0.3,3-0.3,3.1-1.1c0.1-0.4-1.7-0.1-1.3-0.7c0.4-0.5,2.8-0.6,2.8-1.7c0-0.6-1.9,0.1-1.7-0.4c0.1-0.2,0.9-0.4,1.7-1
			c1.2-0.9,3.2-2.3,3.1-3.2c-0.1-1-4,2.4-3.7,1.1c0.1-0.5,6.4-5.4,5.4-6.6c-0.7-0.8-5.2,4.5-5.3,3.4c0-0.3,7-8.3,5.7-10.8
			c-0.3-0.7-5.6,9.5-6.4,8.6c-0.2-0.2,4.5-10,3.8-11c-0.4-0.5-1.1,1.1-1.9,2.9c-0.8,1.8-1.7,3.8-1.9,4c-0.2,0.3,0.2-3.8,0-5.1
			c-0.1-0.5-0.7-0.3-0.7-0.3c-0.8,12.7-13,22.1-22.8,23.5c-2.5,0.4-3.3,1.5-6.1,3.1c-0.9,0.5-2.4,0.8-3.6,1.5s-2.1,1.7-2.5,2.4
			c-0.2,0.3,0.1,1.2,0.3,1.3c0.3,0.1,0.2-0.7,0.5-0.8c0.3-0.1,0.3,0.3,0.6,0.3c0.3,0,0.7-0.3,0.7-0.3s6.9,0,9.8-0.1
			c0.5,0,1.4-0.2,1.8-0.6c-0.1-0.3-0.9-0.1-1.4-0.1c-2.1-0.1-4.8,0-6.7-0.1c0,0-0.3,0-0.3-0.3c0-0.1,1.2-1.5,1.2-1.5h-1
			c0,0-0.6,0.3-0.9,0.4c-0.3,0-0.4-0.2-0.3-0.2C98.1,74.3,102.5,72.3,102.5,72.3L102.5,72.3z"/>
		<path id="XMLID_4297_" fill-rule="evenodd" clip-rule="evenodd" fill="#F6DB6B" d="M95.7,76.5c0-0.2-0.3-0.1-0.6,0
			c-0.2,0.1-0.4,0.2-0.4,0.3c0,0.2,0.3,0.1,0.6,0C95.5,76.8,95.7,76.6,95.7,76.5L95.7,76.5z"/>
		<g id="XMLID_4295_">
			<path id="XMLID_4296_" fill-rule="evenodd" clip-rule="evenodd" fill="#F6DB6B" d="M104.4,26.7c0.8,0.2,1.2-0.3,1.4-0.9
				c0.2-0.8-0.2-5-0.2-5s-1.9,3.7-2.1,4.5C103.4,25.9,103.6,26.5,104.4,26.7L104.4,26.7L104.4,26.7z"/>
		</g>
		<g id="XMLID_4293_">
			<path id="XMLID_4294_" fill-rule="evenodd" clip-rule="evenodd" fill="#F6DB6B" d="M107.5,27.6c0.8,0.3,1.3-0.1,1.5-0.6
				c0.3-0.8,0.8-4.9,0.8-4.9s-2.6,3.3-2.9,4C106.6,26.6,106.7,27.3,107.5,27.6L107.5,27.6L107.5,27.6z"/>
		</g>
		<g id="XMLID_4291_">
			<path id="XMLID_4292_" fill-rule="evenodd" clip-rule="evenodd" fill="#F6DB6B" d="M110.3,29.1c0.7,0.5,1.3,0.2,1.6-0.3
				c0.5-0.7,1.7-4.7,1.7-4.7s-3.2,2.7-3.7,3.4C109.6,28,109.6,28.6,110.3,29.1L110.3,29.1L110.3,29.1z"/>
		</g>
		<g id="XMLID_4289_">
			<path id="XMLID_4290_" fill-rule="evenodd" clip-rule="evenodd" fill="#F6DB6B" d="M112.7,31.1c0.6,0.6,1.2,0.4,1.6,0
				c0.6-0.6,2.6-4.3,2.6-4.3s-3.7,2-4.3,2.6C112.3,29.9,112.1,30.5,112.7,31.1L112.7,31.1L112.7,31.1z"/>
		</g>
		<g id="XMLID_4287_">
			<path id="XMLID_4288_" fill-rule="evenodd" clip-rule="evenodd" fill="#F6DB6B" d="M114.7,33.5c0.5,0.7,1.1,0.7,1.6,0.3
				c0.7-0.5,3.4-3.7,3.4-3.7s-4,1.3-4.7,1.7C114.5,32.3,114.2,32.8,114.7,33.5L114.7,33.5L114.7,33.5z"/>
		</g>
		<g id="XMLID_4285_">
			<path id="XMLID_4286_" fill-rule="evenodd" clip-rule="evenodd" fill="#F6DB6B" d="M116.2,36.3c0.3,0.8,0.9,0.9,1.5,0.6
				c0.8-0.3,4-2.9,4-2.9s-4.2,0.5-4.9,0.8C116.2,35,115.9,35.5,116.2,36.3L116.2,36.3L116.2,36.3z"/>
		</g>
		<g id="XMLID_4283_">
			<path id="XMLID_4284_" fill-rule="evenodd" clip-rule="evenodd" fill="#F6DB6B" d="M117.1,39.3c0.2,0.8,0.8,1,1.4,0.9
				c0.8-0.2,4.5-2.1,4.5-2.1s-4.2-0.4-5-0.2C117.4,38.1,116.9,38.5,117.1,39.3L117.1,39.3L117.1,39.3z"/>
		</g>
		<g id="XMLID_4281_">
			<path id="XMLID_4282_" fill-rule="evenodd" clip-rule="evenodd" fill="#F6DB6B" d="M117.4,42.5c0,0.8,0.5,1.2,1.2,1.2
				c0.8,0,4.9-1.2,4.9-1.2s-4-1.2-4.9-1.2C118,41.3,117.4,41.6,117.4,42.5L117.4,42.5L117.4,42.5z"/>
		</g>
		<g id="XMLID_4279_">
			<path id="XMLID_4280_" fill-rule="evenodd" clip-rule="evenodd" fill="#F6DB6B" d="M117.1,45.6c-0.2,0.8,0.3,1.2,0.9,1.4
				c0.8,0.2,5-0.2,5-0.2s-3.7-1.9-4.5-2.1C117.9,44.6,117.3,44.8,117.1,45.6L117.1,45.6L117.1,45.6z"/>
		</g>
		<g id="XMLID_4277_">
			<path id="XMLID_4278_" fill-rule="evenodd" clip-rule="evenodd" fill="#F6DB6B" d="M116.2,48.6c-0.3,0.8,0.1,1.3,0.6,1.5
				c0.8,0.3,4.9,0.8,4.9,0.8s-3.3-2.6-4-2.9C117.1,47.8,116.5,47.9,116.2,48.6L116.2,48.6L116.2,48.6z"/>
		</g>
		<g id="XMLID_4275_">
			<path id="XMLID_4276_" fill-rule="evenodd" clip-rule="evenodd" fill="#F6DB6B" d="M114.7,51.4c-0.5,0.7-0.2,1.3,0.3,1.6
				c0.7,0.5,4.7,1.7,4.7,1.7s-2.7-3.2-3.4-3.7C115.8,50.8,115.2,50.7,114.7,51.4L114.7,51.4L114.7,51.4z"/>
		</g>
		<g id="XMLID_4273_">
			<path id="XMLID_4274_" fill-rule="evenodd" clip-rule="evenodd" fill="#F6DB6B" d="M112.7,53.9c-0.6,0.6-0.4,1.2,0,1.6
				c0.6,0.6,4.3,2.6,4.3,2.6s-2-3.7-2.6-4.3C113.9,53.4,113.3,53.3,112.7,53.9L112.7,53.9L112.7,53.9z"/>
		</g>
		<g id="XMLID_4271_">
			<path id="XMLID_4272_" fill-rule="evenodd" clip-rule="evenodd" fill="#F6DB6B" d="M110.3,55.9c-0.7,0.5-0.7,1.1-0.3,1.6
				c0.5,0.7,3.7,3.4,3.7,3.4s-1.3-4-1.7-4.7C111.5,55.7,111,55.4,110.3,55.9L110.3,55.9L110.3,55.9z"/>
		</g>
		<g id="XMLID_4269_">
			<path id="XMLID_4270_" fill-rule="evenodd" clip-rule="evenodd" fill="#F6DB6B" d="M107.5,57.4c-0.8,0.3-0.9,0.9-0.6,1.5
				c0.3,0.8,2.9,4,2.9,4s-0.5-4.2-0.8-4.9C108.7,57.4,108.2,57,107.5,57.4L107.5,57.4L107.5,57.4z"/>
		</g>
		<g id="XMLID_4267_">
			<path id="XMLID_4268_" fill-rule="evenodd" clip-rule="evenodd" fill="#F6DB6B" d="M92.3,55.9c-0.7-0.5-1.3-0.2-1.6,0.3
				c-0.5,0.7-1.7,4.7-1.7,4.7s3.2-2.7,3.7-3.4C93,57,93,56.3,92.3,55.9L92.3,55.9L92.3,55.9z"/>
		</g>
		<g id="XMLID_4265_">
			<path id="XMLID_4266_" fill-rule="evenodd" clip-rule="evenodd" fill="#F6DB6B" d="M89.9,53.9c-0.6-0.6-1.2-0.4-1.6,0
				c-0.6,0.6-2.6,4.3-2.6,4.3s3.7-2,4.3-2.6C90.3,55.1,90.5,54.5,89.9,53.9L89.9,53.9L89.9,53.9z"/>
		</g>
		<g id="XMLID_4263_">
			<path id="XMLID_4264_" fill-rule="evenodd" clip-rule="evenodd" fill="#F6DB6B" d="M87.9,51.4c-0.5-0.7-1.1-0.7-1.6-0.3
				c-0.7,0.5-3.4,3.7-3.4,3.7s4-1.3,4.7-1.7C88.1,52.7,88.4,52.1,87.9,51.4L87.9,51.4L87.9,51.4z"/>
		</g>
		<g id="XMLID_4261_">
			<path id="XMLID_4262_" fill-rule="evenodd" clip-rule="evenodd" fill="#F6DB6B" d="M86.4,48.6c-0.3-0.8-0.9-0.9-1.5-0.6
				c-0.8,0.3-4,2.9-4,2.9s4.2-0.5,4.9-0.8C86.4,49.9,86.7,49.4,86.4,48.6L86.4,48.6L86.4,48.6z"/>
		</g>
		<g id="XMLID_4259_">
			<path id="XMLID_4260_" fill-rule="evenodd" clip-rule="evenodd" fill="#F6DB6B" d="M85.5,45.6c-0.2-0.8-0.8-1-1.4-0.9
				c-0.8,0.2-4.5,2.1-4.5,2.1s4.2,0.4,5,0.2C85.2,46.9,85.7,46.5,85.5,45.6L85.5,45.6L85.5,45.6z"/>
		</g>
		<g id="XMLID_4257_">
			<path id="XMLID_4258_" fill-rule="evenodd" clip-rule="evenodd" fill="#F6DB6B" d="M85.2,42.5c0-0.8-0.5-1.2-1.2-1.2
				c-0.8,0-4.9,1.2-4.9,1.2s4,1.2,4.9,1.2C84.6,43.6,85.2,43.3,85.2,42.5L85.2,42.5L85.2,42.5z"/>
		</g>
		<g id="XMLID_4255_">
			<path id="XMLID_4256_" fill-rule="evenodd" clip-rule="evenodd" fill="#F6DB6B" d="M85.5,39.3c0.2-0.8-0.3-1.2-0.9-1.4
				c-0.8-0.2-5,0.2-5,0.2s3.7,1.9,4.5,2.1C84.7,40.4,85.3,40.2,85.5,39.3L85.5,39.3L85.5,39.3z"/>
		</g>
		<g id="XMLID_4253_">
			<path id="XMLID_4254_" fill-rule="evenodd" clip-rule="evenodd" fill="#F6DB6B" d="M86.4,36.3c0.3-0.8-0.1-1.3-0.6-1.5
				C85,34.5,80.8,34,80.8,34s3.3,2.6,4,2.9C85.5,37.2,86.1,37.1,86.4,36.3L86.4,36.3L86.4,36.3z"/>
		</g>
		<g id="XMLID_4251_">
			<path id="XMLID_4252_" fill-rule="evenodd" clip-rule="evenodd" fill="#F6DB6B" d="M87.9,33.5c0.5-0.7,0.2-1.3-0.3-1.6
				c-0.7-0.5-4.7-1.7-4.7-1.7s2.7,3.2,3.4,3.7C86.8,34.2,87.4,34.2,87.9,33.5L87.9,33.5L87.9,33.5z"/>
		</g>
		<g id="XMLID_4249_">
			<path id="XMLID_4250_" fill-rule="evenodd" clip-rule="evenodd" fill="#F6DB6B" d="M89.9,31.1c0.6-0.6,0.4-1.2,0-1.6
				c-0.6-0.6-4.3-2.6-4.3-2.6s2,3.7,2.6,4.3C88.7,31.5,89.3,31.7,89.9,31.1L89.9,31.1L89.9,31.1z"/>
		</g>
		<circle id="XMLID_4248_" fill-rule="evenodd" clip-rule="evenodd" fill="#F6DB6B" cx="101.3" cy="42.5" r="14.2"/>
		<g id="XMLID_4246_">
			<path id="XMLID_4247_" fill-rule="evenodd" clip-rule="evenodd" fill="#F6DB6B" d="M101.3,26.4c0.8,0,1.2-0.5,1.2-1.2
				c0-0.8-1.2-4.9-1.2-4.9s-1.2,4-1.2,4.9C100.1,25.8,100.5,26.4,101.3,26.4L101.3,26.4L101.3,26.4z"/>
		</g>
		<g id="XMLID_4244_">
			<path id="XMLID_4245_" fill-rule="evenodd" clip-rule="evenodd" fill="#F6DB6B" d="M104.4,58.3c-0.8,0.2-1,0.8-0.9,1.4
				c0.2,0.8,2.1,4.5,2.1,4.5s0.4-4.2,0.2-5C105.7,58.6,105.3,58.1,104.4,58.3L104.4,58.3L104.4,58.3z"/>
		</g>
		<g id="XMLID_4242_">
			<path id="XMLID_4243_" fill-rule="evenodd" clip-rule="evenodd" fill="#F6DB6B" d="M101.3,58.6c-0.8,0-1.2,0.5-1.2,1.2
				c0,0.8,1.2,4.9,1.2,4.9s1.2-4,1.2-4.9C102.5,59.1,102.1,58.6,101.3,58.6L101.3,58.6L101.3,58.6z"/>
		</g>
		<g id="XMLID_4240_">
			<path id="XMLID_4241_" fill-rule="evenodd" clip-rule="evenodd" fill="#F6DB6B" d="M98.2,58.3c-0.8-0.2-1.2,0.3-1.4,0.9
				c-0.2,0.8,0.2,5,0.2,5s1.9-3.7,2.1-4.5C99.2,59,99,58.5,98.2,58.3L98.2,58.3L98.2,58.3z"/>
		</g>
		<g id="XMLID_4238_">
			<path id="XMLID_4239_" fill-rule="evenodd" clip-rule="evenodd" fill="#F6DB6B" d="M95.1,57.4c-0.8-0.3-1.3,0.1-1.5,0.6
				c-0.3,0.8-0.8,4.9-0.8,4.9s2.6-3.3,2.9-4C96,58.3,95.9,57.7,95.1,57.4L95.1,57.4L95.1,57.4z"/>
		</g>
		<g id="XMLID_4236_">
			<path id="XMLID_4237_" fill-rule="evenodd" clip-rule="evenodd" fill="#F6DB6B" d="M92.3,29.1c0.7-0.5,0.7-1.1,0.3-1.6
				c-0.5-0.7-3.7-3.4-3.7-3.4s1.3,4,1.7,4.7C91.1,29.3,91.6,29.5,92.3,29.1L92.3,29.1L92.3,29.1z"/>
		</g>
		<g id="XMLID_4234_">
			<path id="XMLID_4235_" fill-rule="evenodd" clip-rule="evenodd" fill="#F6DB6B" d="M95.1,27.6c0.8-0.3,0.9-0.9,0.6-1.5
				c-0.3-0.8-2.9-4-2.9-4s0.5,4.2,0.8,4.9C93.9,27.5,94.4,27.9,95.1,27.6L95.1,27.6L95.1,27.6z"/>
		</g>
		<g id="XMLID_4232_">
			<path id="XMLID_4233_" fill-rule="evenodd" clip-rule="evenodd" fill="#F6DB6B" d="M98.2,26.7c0.8-0.2,1-0.8,0.9-1.4
				c-0.2-0.8-2.1-4.5-2.1-4.5s-0.4,4.2-0.2,5C96.9,26.4,97.3,26.8,98.2,26.7L98.2,26.7L98.2,26.7z"/>
		</g>
	</g>
</g>
</svg>
