<?xml version="1.0" encoding="utf-8"?>
<!-- Generator: Adobe Illustrator 18.1.1, SVG Export Plug-In . SVG Version: 6.00 Build 0)  -->
<!DOCTYPE svg PUBLIC "-//W3C//DTD SVG 1.1//EN" "http://www.w3.org/Graphics/SVG/1.1/DTD/svg11.dtd" [
	<!ENTITY ns_extend "http://ns.adobe.com/Extensibility/1.0/">
	<!ENTITY ns_ai "http://ns.adobe.com/AdobeIllustrator/10.0/">
	<!ENTITY ns_graphs "http://ns.adobe.com/Graphs/1.0/">
	<!ENTITY ns_vars "http://ns.adobe.com/Variables/1.0/">
	<!ENTITY ns_imrep "http://ns.adobe.com/ImageReplacement/1.0/">
	<!ENTITY ns_sfw "http://ns.adobe.com/SaveForWeb/1.0/">
	<!ENTITY ns_custom "http://ns.adobe.com/GenericCustomNamespace/1.0/">
	<!ENTITY ns_adobe_xpath "http://ns.adobe.com/XPath/1.0/">
]>
<svg version="1.1" id="Layer_1" xmlns:x="&ns_extend;" xmlns:i="&ns_ai;" xmlns:graph="&ns_graphs;"
	 xmlns="http://www.w3.org/2000/svg" xmlns:xlink="http://www.w3.org/1999/xlink" x="0px" y="0px" viewBox="0 0 227.4 176.3"
	 enable-background="new 0 0 227.4 176.3" xml:space="preserve">
<metadata>
	<sfw  xmlns="&ns_sfw;">
		<slices></slices>
		<sliceSourceBounds  width="227.2" height="176.3" y="-462.3" x="575.8" bottomLeftOrigin="true"></sliceSourceBounds>
	</sfw>
</metadata>
<path fill="none" stroke="#B5935B" stroke-linejoin="round" stroke-miterlimit="10" d="M186.1,155.1h-11.6c-5.1,0-9.9-2.3-13.1-6.3
	v0c-3.2-4-8-6.3-13.1-6.3h-21.2"/>
<g>
	<g>
		<path fill="#B5935B" d="M35.2,59.6c0,1-0.3,1.8-1,2.3c-0.7,0.5-1.7,0.8-3,0.8H30v3.9h-1.2v-10h2.6C34,56.7,35.2,57.7,35.2,59.6z
			 M30,61.8h1c1,0,1.8-0.2,2.2-0.5c0.5-0.3,0.7-0.9,0.7-1.6c0-0.7-0.2-1.2-0.6-1.5c-0.4-0.3-1.1-0.5-2-0.5H30V61.8z"/>
		<path fill="#B5935B" d="M40.3,66.9c-1.1,0-2-0.3-2.6-1c-0.6-0.7-1-1.6-1-2.8c0-1.2,0.3-2.2,0.9-2.9s1.4-1.1,2.4-1.1
			c0.9,0,1.7,0.3,2.2,0.9c0.5,0.6,0.8,1.4,0.8,2.4v0.7h-5.2c0,0.9,0.2,1.5,0.7,2c0.4,0.5,1,0.7,1.8,0.7c0.8,0,1.6-0.2,2.4-0.5v1
			c-0.4,0.2-0.8,0.3-1.1,0.4C41.2,66.8,40.8,66.9,40.3,66.9z M40,60c-0.6,0-1.1,0.2-1.4,0.6c-0.4,0.4-0.6,0.9-0.6,1.6h3.9
			c0-0.7-0.2-1.3-0.5-1.6C41,60.2,40.6,60,40,60z"/>
		<path fill="#B5935B" d="M48,66.9c-1.1,0-1.9-0.3-2.5-1c-0.6-0.7-0.9-1.6-0.9-2.8c0-1.3,0.3-2.2,0.9-2.9c0.6-0.7,1.5-1,2.6-1
			c0.4,0,0.7,0,1.1,0.1c0.4,0.1,0.6,0.2,0.8,0.3l-0.3,1c-0.3-0.1-0.5-0.2-0.8-0.3c-0.3-0.1-0.6-0.1-0.8-0.1c-1.5,0-2.3,1-2.3,2.9
			c0,0.9,0.2,1.6,0.6,2.1c0.4,0.5,0.9,0.7,1.7,0.7c0.6,0,1.3-0.1,1.9-0.4v1C49.4,66.7,48.8,66.9,48,66.9z"/>
		<path fill="#B5935B" d="M52.8,66.7h-1.1v-7.5H58v7.5h-1.1v-6.5h-4V66.7z"/>
		<path fill="#B5935B" d="M59.2,59.2h1.2l1.6,4.3c0.4,1,0.6,1.7,0.7,2.1h0.1c0.1-0.2,0.2-0.6,0.4-1.2c0.2-0.6,0.8-2.3,1.9-5.2h1.2
			L63,67.8c-0.3,0.8-0.7,1.4-1.1,1.8c-0.4,0.4-0.9,0.5-1.6,0.5c-0.3,0-0.7,0-1-0.1v-0.9c0.3,0.1,0.5,0.1,0.8,0.1
			c0.8,0,1.3-0.4,1.7-1.3l0.4-1.1L59.2,59.2z"/>
		<path fill="#B5935B" d="M67,62.2c0-1.6,0.2-2.9,0.7-3.8c0.5-0.9,1.2-1.5,2.3-1.7c1.3-0.3,2.5-0.5,3.4-0.7l0.2,1
			c-1.6,0.3-2.7,0.5-3.4,0.6c-0.7,0.2-1.2,0.5-1.5,1.1c-0.3,0.6-0.5,1.3-0.5,2.3h0.1c0.3-0.4,0.6-0.7,1.1-0.9
			c0.4-0.2,0.9-0.3,1.4-0.3c0.9,0,1.6,0.3,2.2,0.9c0.5,0.6,0.8,1.4,0.8,2.5c0,1.2-0.3,2.1-0.9,2.7c-0.6,0.7-1.4,1-2.5,1
			c-1.1,0-1.9-0.4-2.5-1.2C67.3,64.8,67,63.7,67,62.2z M70.5,65.9c1.4,0,2.1-0.9,2.1-2.7c0-1.7-0.6-2.5-1.9-2.5
			c-0.3,0-0.7,0.1-1,0.2c-0.3,0.1-0.6,0.3-0.9,0.6s-0.5,0.5-0.6,0.7c0,1.2,0.2,2.1,0.6,2.7C69.1,65.6,69.7,65.9,70.5,65.9z"/>
		<path fill="#B5935B" d="M81.3,66.7h-1.1v-6.5h-2.2c-0.1,1.6-0.3,2.9-0.5,3.9c-0.2,1-0.5,1.6-0.9,2.1s-0.8,0.7-1.3,0.7
			c-0.2,0-0.4,0-0.6-0.1v-0.8c0.1,0,0.2,0,0.3,0c0.5,0,0.9-0.6,1.3-1.7c0.3-1.1,0.5-2.8,0.7-5h4.4V66.7z"/>
		<path fill="#B5935B" d="M84.8,59.2V64l0,1.2l0,0.4l4.1-6.4h1.4v7.5h-1.1v-4.6l0-0.9l0-0.9l-4,6.4h-1.4v-7.5H84.8z"/>
		<path fill="#B5935B" d="M97,59.2h1.2L95,62.9l3.5,3.9h-1.3l-3.4-3.8v3.8h-1.1v-7.5h1.1v3.6L97,59.2z"/>
		<path fill="#B5935B" d="M104.5,66.7l-0.2-1.1h-0.1c-0.4,0.5-0.7,0.8-1.1,1c-0.4,0.2-0.8,0.3-1.4,0.3c-0.7,0-1.3-0.2-1.7-0.6
			c-0.4-0.4-0.6-0.9-0.6-1.6c0-1.5,1.2-2.3,3.6-2.4l1.3,0v-0.5c0-0.6-0.1-1-0.4-1.3c-0.3-0.3-0.7-0.4-1.2-0.4
			c-0.6,0-1.3,0.2-2.1,0.6l-0.3-0.9c0.4-0.2,0.8-0.4,1.2-0.5c0.4-0.1,0.9-0.2,1.3-0.2c0.9,0,1.6,0.2,2,0.6s0.6,1,0.6,1.9v5.1H104.5z
			 M101.9,65.9c0.7,0,1.3-0.2,1.7-0.6s0.6-0.9,0.6-1.6V63l-1.1,0c-0.9,0-1.6,0.2-2,0.4c-0.4,0.2-0.6,0.6-0.6,1.2
			c0,0.4,0.1,0.7,0.4,0.9C101.1,65.8,101.5,65.9,101.9,65.9z"/>
		<path fill="#B5935B" d="M51.5,81.8c0,1-0.3,1.7-0.9,2.2c-0.6,0.5-1.5,0.7-2.7,0.7h-2.9v-10h5.9v1h-4.7V79h1.6
			c0.9,0,1.6,0.1,2.1,0.3c0.6,0.2,1,0.5,1.2,0.9C51.4,80.6,51.5,81.1,51.5,81.8z M46.2,83.7h1.6c0.9,0,1.5-0.1,1.9-0.4
			c0.4-0.3,0.6-0.8,0.6-1.5c0-0.6-0.2-1.1-0.6-1.4c-0.4-0.3-1.1-0.4-2.1-0.4h-1.4V83.7z"/>
		<path fill="#B5935B" d="M56.6,84.9c-1.1,0-2-0.3-2.6-1c-0.6-0.7-1-1.6-1-2.8c0-1.2,0.3-2.2,0.9-2.9s1.4-1.1,2.4-1.1
			c0.9,0,1.7,0.3,2.2,0.9c0.5,0.6,0.8,1.4,0.8,2.4v0.7h-5.2c0,0.9,0.2,1.5,0.7,2c0.4,0.5,1,0.7,1.8,0.7c0.8,0,1.6-0.2,2.4-0.5v1
			c-0.4,0.2-0.8,0.3-1.1,0.4C57.6,84.8,57.1,84.9,56.6,84.9z M56.3,78c-0.6,0-1.1,0.2-1.4,0.6c-0.4,0.4-0.6,0.9-0.6,1.6h3.9
			c0-0.7-0.2-1.3-0.5-1.6C57.4,78.2,56.9,78,56.3,78z"/>
		<path fill="#B5935B" d="M66.9,84.7h-1.1v-6.5h-2.2c-0.1,1.6-0.3,2.9-0.5,3.9s-0.5,1.6-0.9,2.1s-0.8,0.7-1.3,0.7
			c-0.2,0-0.4,0-0.6-0.1v-0.8c0.1,0,0.2,0,0.3,0c0.5,0,0.9-0.6,1.3-1.7c0.3-1.1,0.5-2.8,0.7-5h4.4V84.7z"/>
		<path fill="#B5935B" d="M73.9,84.7l-0.2-1.1h-0.1c-0.4,0.5-0.7,0.8-1.1,1c-0.4,0.2-0.8,0.3-1.4,0.3c-0.7,0-1.3-0.2-1.7-0.6
			c-0.4-0.4-0.6-0.9-0.6-1.6c0-1.5,1.2-2.3,3.6-2.4l1.3,0v-0.5c0-0.6-0.1-1-0.4-1.3C73,78.2,72.6,78,72.1,78c-0.6,0-1.3,0.2-2.1,0.6
			l-0.3-0.9c0.4-0.2,0.8-0.4,1.2-0.5c0.4-0.1,0.9-0.2,1.3-0.2c0.9,0,1.6,0.2,2,0.6s0.6,1,0.6,1.9v5.1H73.9z M71.3,83.9
			c0.7,0,1.3-0.2,1.7-0.6s0.6-0.9,0.6-1.6V81l-1.1,0c-0.9,0-1.6,0.2-2,0.4c-0.4,0.2-0.6,0.6-0.6,1.2c0,0.4,0.1,0.7,0.4,0.9
			C70.6,83.8,70.9,83.9,71.3,83.9z"/>
		<path fill="#B5935B" d="M80.6,84.9c-0.5,0-0.9-0.1-1.3-0.3c-0.4-0.2-0.7-0.5-1-0.8h-0.1c0.1,0.4,0.1,0.9,0.1,1.2v3.1h-1.1V77.2H78
			l0.2,1h0.1c0.3-0.4,0.6-0.7,1-0.9c0.4-0.2,0.8-0.3,1.3-0.3c1,0,1.8,0.3,2.3,1s0.8,1.6,0.8,2.9c0,1.2-0.3,2.2-0.8,2.9
			C82.3,84.5,81.6,84.9,80.6,84.9z M80.4,78.1c-0.8,0-1.3,0.2-1.7,0.6s-0.5,1.1-0.5,2V81c0,1.1,0.2,1.8,0.5,2.3
			c0.4,0.5,0.9,0.7,1.7,0.7c0.6,0,1.2-0.3,1.5-0.8c0.4-0.5,0.6-1.2,0.6-2.2c0-0.9-0.2-1.7-0.6-2.1C81.6,78.3,81.1,78.1,80.4,78.1z"
			/>
		<path fill="#B5935B" d="M84.5,77.2h1.2l1.6,4.3c0.4,1,0.6,1.7,0.7,2.1h0.1c0.1-0.2,0.2-0.6,0.4-1.2c0.2-0.6,0.8-2.3,1.9-5.2h1.2
			l-3.2,8.5c-0.3,0.8-0.7,1.4-1.1,1.8c-0.4,0.4-0.9,0.5-1.6,0.5c-0.3,0-0.7,0-1-0.1v-0.9c0.3,0.1,0.5,0.1,0.8,0.1
			c0.8,0,1.3-0.4,1.7-1.3l0.4-1.1L84.5,77.2z"/>
		<path fill="#B5935B" d="M95.7,84.9c-1.1,0-1.9-0.3-2.5-1c-0.6-0.7-0.9-1.6-0.9-2.8c0-1.3,0.3-2.2,0.9-2.9c0.6-0.7,1.5-1,2.6-1
			c0.4,0,0.7,0,1.1,0.1c0.4,0.1,0.6,0.2,0.8,0.3l-0.3,1c-0.3-0.1-0.5-0.2-0.8-0.3c-0.3-0.1-0.6-0.1-0.8-0.1c-1.5,0-2.3,1-2.3,2.9
			c0,0.9,0.2,1.6,0.6,2.1c0.4,0.5,0.9,0.7,1.7,0.7c0.6,0,1.3-0.1,1.9-0.4v1C97.1,84.7,96.5,84.9,95.7,84.9z"/>
		<path fill="#B5935B" d="M100.5,80.3h2.3c1.9,0,2.9,0.7,2.9,2.1c0,0.7-0.3,1.3-0.7,1.7s-1.2,0.6-2.2,0.6h-3.4v-7.5h1.1V80.3z
			 M100.5,81.3v2.5h2.2c0.6,0,1.1-0.1,1.4-0.3c0.3-0.2,0.5-0.5,0.5-1c0-0.4-0.1-0.7-0.4-0.9c-0.3-0.2-0.8-0.3-1.5-0.3H100.5z"/>
	</g>
</g>
<g>
	<g>
		<defs>
			<path id="XMLID_2304_" d="M131,88.6h-9.5V23.3c0-0.9,0.2-1.7,0.7-2.5l0,0c1.4-2.3,2.3-5,2.6-7.7l0.5-4.7l1.8,0.1l0.3,3.9
				c0.2,3,1.2,5.9,2.8,8.4l0,0c0.5,0.8,0.8,1.7,0.8,2.6V88.6z"/>
		</defs>
		<use xlink:href="#XMLID_2304_"  overflow="visible" fill="#041944"/>
		<clipPath id="XMLID_2_">
			<use xlink:href="#XMLID_2304_"  overflow="visible"/>
		</clipPath>
		
			<rect x="119.7" y="23.4" clip-path="url(#XMLID_2_)" fill="#041944" stroke="#B5935B" stroke-miterlimit="10" width="13.2" height="2.2"/>
		
			<rect x="120" y="32.5" clip-path="url(#XMLID_2_)" fill="#041944" stroke="#B5935B" stroke-miterlimit="10" width="12.8" height="2.2"/>
		
			<rect x="118.5" y="42.1" clip-path="url(#XMLID_2_)" fill="#041944" stroke="#B5935B" stroke-miterlimit="10" width="15.1" height="2.2"/>
		
			<rect x="118.5" y="59.9" clip-path="url(#XMLID_2_)" fill="#041944" stroke="#B5935B" stroke-miterlimit="10" width="15.8" height="7.7"/>
		
			<ellipse clip-path="url(#XMLID_2_)" fill="#041944" stroke="#B5935B" stroke-miterlimit="10" cx="126.5" cy="78.7" rx="2" ry="1.9"/>
		<use xlink:href="#XMLID_2304_"  overflow="visible" fill="none" stroke="#B5935B" stroke-miterlimit="10"/>
	</g>
	<rect x="120.2" y="89.6" fill="#041944" stroke="#B5935B" stroke-miterlimit="10" width="12.1" height="10.6"/>
	<rect x="116.3" y="96.7" fill="#041944" stroke="#B5935B" stroke-miterlimit="10" width="19.9" height="13"/>
	<rect x="114.8" y="109.3" fill="#041944" stroke="#B5935B" stroke-miterlimit="10" width="22.9" height="3.8"/>
	<rect x="112.8" y="126.4" fill="#041944" stroke="#B5935B" stroke-miterlimit="10" width="26.8" height="4.3"/>
	<g>
		<defs>
			<path id="XMLID_2303_" d="M150.7,130.7h-49l0,0c0-2.6,1.2-5.1,3.3-6.8l3.7-3c0.6-0.5,1.3-0.7,2.1-0.7h30.6c0.8,0,1.5,0.3,2.2,0.8
				l4,3.3C149.5,125.9,150.6,128.2,150.7,130.7L150.7,130.7z"/>
		</defs>
		<use xlink:href="#XMLID_2303_"  overflow="visible" fill="#041944"/>
		<clipPath id="XMLID_3_">
			<use xlink:href="#XMLID_2303_"  overflow="visible"/>
		</clipPath>
		<circle clip-path="url(#XMLID_3_)" fill="#041944" stroke="#B5935B" stroke-miterlimit="10" cx="133.7" cy="123" r="12.5"/>
		<use xlink:href="#XMLID_2303_"  overflow="visible" fill="none" stroke="#B5935B" stroke-miterlimit="10"/>
	</g>
	<rect x="117.3" y="87.7" fill="#041944" stroke="#B5935B" stroke-miterlimit="10" width="18" height="4.3"/>
	<rect x="118.2" y="98.6" fill="#041944" stroke="#B5935B" stroke-miterlimit="10" width="16.1" height="8.6"/>
	<polygon fill="#041944" stroke="#B5935B" stroke-miterlimit="10" points="130.1,12.3 126.4,10.5 122.8,12.5 123.4,8.4 120.3,5.6 
		124.4,4.9 126.2,1.1 128.1,4.8 132.2,5.3 129.3,8.3 	"/>
	
		<rect x="110.9" y="112.4" fill="#041944" stroke="#B5935B" stroke-linejoin="round" stroke-miterlimit="10" width="30.8" height="7.8"/>
</g>
<circle fill="#041944" stroke="#B5935B" stroke-linejoin="round" stroke-miterlimit="10" cx="127.1" cy="142.2" r="2.9"/>
<g>
	<path fill="#041944" stroke="#B5935B" stroke-width="3" stroke-linejoin="round" stroke-miterlimit="10" d="M212.4,136.7
		c10.3,3.4,15.9,14.4,12.6,24.6c-3.4,10.2-14.5,15.8-24.8,12.4s-15.9-14.4-12.6-24.6C190.9,138.9,202,133.4,212.4,136.7z"/>
	<g>
		<defs>
			<path id="XMLID_210_" d="M210.5,142.4c7.1,2.3,10.9,9.9,8.6,17c-2.3,7.1-9.9,10.9-17,8.6c-7.1-2.3-10.9-9.9-8.6-17
				C195.8,144,203.4,140.1,210.5,142.4z"/>
		</defs>
		<use xlink:href="#XMLID_210_"  overflow="visible" fill="#041944"/>
		<clipPath id="XMLID_4_">
			<use xlink:href="#XMLID_210_"  overflow="visible"/>
		</clipPath>
		<g clip-path="url(#XMLID_4_)">
			<rect x="192.7" y="139.2" fill="#C8313E" width="63.3" height="31.7"/>
			<rect x="192.7" y="160.3" fill="#4AA657" width="29.2" height="10.6"/>
			<rect x="192.7" y="139.2" fill="#FFFFFF" width="7" height="31.7"/>
			<path fill="#C8313E" d="M194,139.2h0.9v0.5h0.3v0.5h0.3v0.5h0.3v0.5h0.3v0.5h-0.3v0.5h-0.3v0.5h-0.3v0.5h-0.3v0.5h-0.3v0.5h-0.3
				v-0.5H194v-0.5h-0.3v-0.5h-0.3v-0.5H193v-0.5h-0.3v-0.5h0.3v-0.5h0.3v-0.5h0.3v-0.5h0.3V139.2z M194.3,140.3h0.3v0.5h0.3v0.5h0.3
				v0.5h-0.3v0.5h-0.3v0.5h-0.3v-0.5H194v-0.5h-0.3v-0.5h0.3v-0.5h0.3V140.3z M194.3,141.3h0.3v0.5h-0.3V141.3z M192.7,139.7h0.3
				v0.5h-0.3V139.7z M192.7,142.8h0.3v0.5h-0.3V142.8z M196.1,139.2h0.2v1h-0.2V139.2z M196.1,142.8h0.2v1h-0.2V142.8z M193.3,143.9
				h0.3v0.5h0.3v0.5h0.3v0.5H194v0.5h-0.3v0.5h-0.3V146H193v-0.5h-0.3v-0.5h0.3v-0.5h0.3V143.9z M193.3,144.9h0.3v0.5h-0.3V144.9z
				 M195.2,143.9h0.3v0.5h0.3v0.5h0.3v0.5h-0.3v0.5h-0.3v0.5h-0.3V146h-0.3v-0.5h-0.3v-0.5h0.3v-0.5h0.3V143.9z M195.2,144.9h0.3
				v0.5h-0.3V144.9z M192.7,147h0.3v0.5h-0.3V147z M196.1,146.5h0.2v1h-0.2V146.5z"/>
			<path fill="#C8313E" d="M192.7,148.6h0.3V148h0.3v-0.5h0.3V147h0.3v-0.5h0.3V146h0.3v0.5h0.3v0.5h0.3v0.5h0.3v0.5h0.3v0.5h0.3
				v0.5h0.2v2.1h-0.2v0.5h-0.3v0.5h-0.3v0.5h-0.3v0.5h-0.3v0.5h-0.3v1.3H194v-0.3h-0.3v-0.5h-0.3v-0.5H193v-0.5h-0.3v-1.6h0.3v0.5
				h0.3v0.5h0.3v0.5h0.3v-0.5h0.3v-0.5h0.3v-0.5h0.3v-0.5h0.3v-0.5h0.3v-0.5h-0.3v-0.5h-0.3v-0.5H194v0.5h0.6v0.5h-0.3v0.5H194v0.5
				h-0.3v-0.5h-0.3v-0.5H193v-0.5h-0.3V148.6z M192.7,150.6h0.3v0.5h-0.3V150.6z M196.1,152.2h0.2v0.5h-0.2V152.2z M195.5,153.2h0.3
				v0.5h0.3v0.5h0.2v0.8h-0.2v-0.3h-0.3v-0.5h-0.3V153.2z M194.9,154.8h0.3v0.3h-0.3V154.8z"/>
			<path fill="#C8313E" d="M198.5,139.2h-0.9v0.5h-0.3v0.5H197v0.5h-0.3v0.5h-0.3v0.5h0.3v0.5h0.3v0.5h0.3v0.5h0.3v0.5h0.3v0.5h0.3
				v-0.5h0.3v-0.5h0.3v-0.5h0.3v-0.5h0.3v-0.5h0.3v-0.5h-0.3v-0.5h-0.3v-0.5h-0.3v-0.5h-0.3V139.2z M198.2,140.3h-0.3v0.5h-0.3v0.5
				h-0.3v0.5h0.3v0.5h0.3v0.5h0.3v-0.5h0.3v-0.5h0.3v-0.5h-0.3v-0.5h-0.3V140.3z M198.2,141.3h-0.3v0.5h0.3V141.3z M199.8,139.7
				h-0.3v0.5h0.3V139.7z M199.8,142.8h-0.3v0.5h0.3V142.8z M196.4,139.2h-0.2v1h0.2V139.2z M196.4,142.8h-0.2v1h0.2V142.8z
				 M199.2,143.9h-0.3v0.5h-0.3v0.5h-0.3v0.5h0.3v0.5h0.3v0.5h0.3V146h0.3v-0.5h0.3v-0.5h-0.3v-0.5h-0.3V143.9z M199.2,144.9h-0.3
				v0.5h0.3V144.9z M197.3,143.9H197v0.5h-0.3v0.5h-0.3v0.5h0.3v0.5h0.3v0.5h0.3V146h0.3v-0.5h0.3v-0.5h-0.3v-0.5h-0.3V143.9z
				 M197.3,144.9H197v0.5h0.3V144.9z M199.8,147h-0.3v0.5h0.3V147z M196.4,146.5h-0.2v1h0.2V146.5z"/>
			<path fill="#C8313E" d="M199.8,148.6h-0.3V148h-0.3v-0.5h-0.3V147h-0.3v-0.5h-0.3V146h-0.3v0.5h-0.3v0.5h-0.3v0.5H197v0.5h-0.3
				v0.5h-0.3v0.5h-0.2v2.1h0.2v0.5h0.3v0.5h0.3v0.5h0.3v0.5h0.3v0.5h0.3v1.3h0.6v-0.3h0.3v-0.5h0.3v-0.5h0.3v-0.5h0.3v-1.6h-0.3v0.5
				h-0.3v0.5h-0.3v0.5h-0.3v-0.5h-0.3v-0.5h-0.3v-0.5h-0.3v-0.5h-0.3v-0.5H197v-0.5h0.3v-0.5h0.3v-0.5h0.9v0.5h-0.6v0.5h0.3v0.5h0.3
				v0.5h0.3v-0.5h0.3v-0.5h0.3v-0.5h0.3V148.6z M199.8,150.6h-0.3v0.5h0.3V150.6z M196.4,152.2h-0.2v0.5h0.2V152.2z M197,153.2h-0.3
				v0.5h-0.3v0.5h-0.2v0.8h0.2v-0.3h0.3v-0.5h0.3V153.2z M197.6,154.8h-0.3v0.3h0.3V154.8z"/>
			<path fill="#C8313E" d="M194,170.9h0.9v-0.5h0.3v-0.5h0.3v-0.5h0.3v-0.5h0.3v-0.5h-0.3v-0.5h-0.3v-0.5h-0.3v-0.5h-0.3v-0.5h-0.3
				v-0.5h-0.3v0.5H194v0.5h-0.3v0.5h-0.3v0.5H193v0.5h-0.3v0.5h0.3v0.5h0.3v0.5h0.3v0.5h0.3V170.9z M194.3,169.8h0.3v-0.5h0.3v-0.5
				h0.3v-0.5h-0.3v-0.5h-0.3v-0.5h-0.3v0.5H194v0.5h-0.3v0.5h0.3v0.5h0.3V169.8z M194.3,168.8h0.3v-0.5h-0.3V168.8z M192.7,170.4
				h0.3v-0.5h-0.3V170.4z M192.7,167.2h0.3v-0.5h-0.3V167.2z M196.1,170.9h0.2v-1h-0.2V170.9z M196.1,167.2h0.2v-1h-0.2V167.2z
				 M193.3,166.2h0.3v-0.5h0.3v-0.5h0.3v-0.5H194v-0.5h-0.3v-0.5h-0.3v0.5H193v0.5h-0.3v0.5h0.3v0.5h0.3V166.2z M193.3,165.2h0.3
				v-0.5h-0.3V165.2z M195.2,166.2h0.3v-0.5h0.3v-0.5h0.3v-0.5h-0.3v-0.5h-0.3v-0.5h-0.3v0.5h-0.3v0.5h-0.3v0.5h0.3v0.5h0.3V166.2z
				 M195.2,165.2h0.3v-0.5h-0.3V165.2z M192.7,163.1h0.3v-0.5h-0.3V163.1z M196.1,163.6h0.2v-1h-0.2V163.6z"/>
			<path fill="#C8313E" d="M192.7,161.5h0.3v0.5h0.3v0.5h0.3v0.5h0.3v0.5h0.3v0.5h0.3v-0.5h0.3v-0.5h0.3v-0.5h0.3v-0.5h0.3v-0.5h0.3
				V161h0.2v-2.1h-0.2v-0.5h-0.3v-0.5h-0.3v-0.5h-0.3v-0.5h-0.3v-0.5h-0.3V155H194v0.3h-0.3v0.5h-0.3v0.5H193v0.5h-0.3v1.6h0.3v-0.5
				h0.3v-0.5h0.3v-0.5h0.3v0.5h0.3v0.5h0.3v0.5h0.3v0.5h0.3v0.5h0.3v0.5h-0.3v0.5h-0.3v0.5H194v-0.5h0.6V160h-0.3v-0.5H194v-0.5
				h-0.3v0.5h-0.3v0.5H193v0.5h-0.3V161.5z M192.7,159.5h0.3v-0.5h-0.3V159.5z M196.1,157.9h0.2v-0.5h-0.2V157.9z M195.5,156.9h0.3
				v-0.5h0.3v-0.5h0.2V155h-0.2v0.3h-0.3v0.5h-0.3V156.9z M194.9,155.3h0.3V155h-0.3V155.3z"/>
			<path fill="#C8313E" d="M198.5,170.9h-0.9v-0.5h-0.3v-0.5H197v-0.5h-0.3v-0.5h-0.3v-0.5h0.3v-0.5h0.3v-0.5h0.3v-0.5h0.3v-0.5h0.3
				v-0.5h0.3v0.5h0.3v0.5h0.3v0.5h0.3v0.5h0.3v0.5h0.3v0.5h-0.3v0.5h-0.3v0.5h-0.3v0.5h-0.3V170.9z M198.2,169.8h-0.3v-0.5h-0.3
				v-0.5h-0.3v-0.5h0.3v-0.5h0.3v-0.5h0.3v0.5h0.3v0.5h0.3v0.5h-0.3v0.5h-0.3V169.8z M198.2,168.8h-0.3v-0.5h0.3V168.8z
				 M199.8,170.4h-0.3v-0.5h0.3V170.4z M199.8,167.2h-0.3v-0.5h0.3V167.2z M196.4,170.9h-0.2v-1h0.2V170.9z M196.4,167.2h-0.2v-1
				h0.2V167.2z M199.2,166.2h-0.3v-0.5h-0.3v-0.5h-0.3v-0.5h0.3v-0.5h0.3v-0.5h0.3v0.5h0.3v0.5h0.3v0.5h-0.3v0.5h-0.3V166.2z
				 M199.2,165.2h-0.3v-0.5h0.3V165.2z M197.3,166.2H197v-0.5h-0.3v-0.5h-0.3v-0.5h0.3v-0.5h0.3v-0.5h0.3v0.5h0.3v0.5h0.3v0.5h-0.3
				v0.5h-0.3V166.2z M197.3,165.2H197v-0.5h0.3V165.2z M199.8,163.1h-0.3v-0.5h0.3V163.1z M196.4,163.6h-0.2v-1h0.2V163.6z"/>
			<path fill="#C8313E" d="M199.8,161.5h-0.3v0.5h-0.3v0.5h-0.3v0.5h-0.3v0.5h-0.3v0.5h-0.3v-0.5h-0.3v-0.5h-0.3v-0.5H197v-0.5h-0.3
				v-0.5h-0.3V161h-0.2v-2.1h0.2v-0.5h0.3v-0.5h0.3v-0.5h0.3v-0.5h0.3v-0.5h0.3V155h0.6v0.3h0.3v0.5h0.3v0.5h0.3v0.5h0.3v1.6h-0.3
				v-0.5h-0.3v-0.5h-0.3v-0.5h-0.3v0.5h-0.3v0.5h-0.3v0.5h-0.3v0.5h-0.3v0.5H197v0.5h0.3v0.5h0.3v0.5h0.9v-0.5h-0.6V160h0.3v-0.5
				h0.3v-0.5h0.3v0.5h0.3v0.5h0.3v0.5h0.3V161.5z M199.8,159.5h-0.3v-0.5h0.3V159.5z M196.4,157.9h-0.2v-0.5h0.2V157.9z M197,156.9
				h-0.3v-0.5h-0.3v-0.5h-0.2V155h0.2v0.3h0.3v0.5h0.3V156.9z M197.6,155.3h-0.3V155h0.3V155.3z"/>
		</g>
		
			<use xlink:href="#XMLID_210_"  overflow="visible" fill="none" stroke="#B5935B" stroke-linejoin="round" stroke-miterlimit="10"/>
	</g>
</g>
<circle fill="#041944" stroke="#B5935B" stroke-linejoin="round" stroke-miterlimit="10" cx="184.9" cy="155.1" r="2.9"/>
</svg>
