<?xml version="1.0" encoding="utf-8"?>
<!-- Generator: Adobe Illustrator 18.1.1, SVG Export Plug-In . SVG Version: 6.00 Build 0)  -->
<!DOCTYPE svg PUBLIC "-//W3C//DTD SVG 1.1//EN" "http://www.w3.org/Graphics/SVG/1.1/DTD/svg11.dtd" [
	<!ENTITY ns_extend "http://ns.adobe.com/Extensibility/1.0/">
	<!ENTITY ns_ai "http://ns.adobe.com/AdobeIllustrator/10.0/">
	<!ENTITY ns_graphs "http://ns.adobe.com/Graphs/1.0/">
	<!ENTITY ns_vars "http://ns.adobe.com/Variables/1.0/">
	<!ENTITY ns_imrep "http://ns.adobe.com/ImageReplacement/1.0/">
	<!ENTITY ns_sfw "http://ns.adobe.com/SaveForWeb/1.0/">
	<!ENTITY ns_custom "http://ns.adobe.com/GenericCustomNamespace/1.0/">
	<!ENTITY ns_adobe_xpath "http://ns.adobe.com/XPath/1.0/">
]>
<svg version="1.1" id="Layer_1" xmlns:x="&ns_extend;" xmlns:i="&ns_ai;" xmlns:graph="&ns_graphs;"
	 xmlns="http://www.w3.org/2000/svg" xmlns:xlink="http://www.w3.org/1999/xlink" x="0px" y="0px" viewBox="0 0 208.5 125.1"
	 enable-background="new 0 0 208.5 125.1" xml:space="preserve">
<metadata>
	<sfw  xmlns="&ns_sfw;">
		<slices></slices>
		<sliceSourceBounds  width="208.5" height="125.1" y="-438.2" x="571" bottomLeftOrigin="true"></sliceSourceBounds>
	</sfw>
</metadata>
<g>
	<rect x="0" y="0" fill="#E8112D" width="208.5" height="125.1"/>
	<g>
		<path id="r1_79_" fill="#FFEF00" d="M410,340.3c7,18.3-8,46.7,7,60c-5-20,11.7-41.7,7-60C419.3,321.9,403,321.9,410,340.3z"/>
		<path id="r1_78_" fill="#FFEF00" d="M326.9,243.2c-18.3,7-46.7-8-60,7c20-5,41.7,11.7,60,7C345.3,252.5,345.3,236.2,326.9,243.2z"
			/>
		<path id="r1_77_" fill="#FFEF00" d="M424,160.1c-7-18.3,8-46.7-7-60c5,20-11.7,41.7-7,60C414.7,178.5,431,178.5,424,160.1z"/>
		<path id="r1_76_" fill="#FFEF00" d="M507.1,257.2c18.3-7,46.7,8,60-7c-20,5-41.7-11.7-60-7S488.7,264.2,507.1,257.2z"/>
	</g>
	<g>
		<g id="r4_18_">
			<path id="r1_75_" fill="#FFEF00" d="M95.6,83.4c0.2,4.9-5.5,10.5-3,14.8c0.4-5.1,6-9,6.3-13.7C99.3,79.8,95.4,78.5,95.6,83.4z"/>
			<g transform="rotate(90)">
				<path id="r1_74_" fill="#FFEF00" d="M83.4,53.9c-4.9,0.2-10.5-5.5-14.8-3c5.1,0.4,9,6,13.7,6.3C87,57.6,88.3,53.7,83.4,53.9z"/>
			</g>
			<g transform="rotate(180)">
				<path id="r1_73_" fill="#FFEF00" d="M112.9,41.7c-0.2-4.9,5.5-10.5,3-14.8c-0.4,5.1-6,9-6.3,13.7
					C109.2,45.3,113.1,46.6,112.9,41.7z"/>
			</g>
			<g transform="rotate(18)">
				<path id="r1_72_" fill="#FFEF00" d="M125.1,71.2c4.9-0.2,10.5,5.5,14.8,3c-5.1-0.4-9-6-13.7-6.3
					C121.5,67.5,120.2,71.4,125.1,71.2z"/>
			</g>
		</g>
	</g>
	<g>
		<path id="r1_71_" fill="#FFEF00" d="M89.6,79.7c-1.3,4.7-8.5,8.3-7.4,13.2c1.9-4.8,8.5-6.7,10.2-11.1C94.2,77.4,90.9,75,89.6,79.7
			z"/>
		<g transform="rotate(90)">
			<path id="r1_70_" fill="#FFEF00" d="M87.1,47.9c-4.7-1.3-8.3-8.5-13.2-7.4c4.8,1.9,6.7,8.5,11.1,10.2
				C89.4,52.5,91.8,49.2,87.1,47.9z"/>
		</g>
		<g transform="rotate(180)">
			<path id="r1_69_" fill="#FFEF00" d="M118.9,45.4c1.3-4.7,8.5-8.3,7.4-13.2c-1.9,4.8-8.5,6.7-10.2,11.1
				C114.3,47.7,117.6,50.1,118.9,45.4z"/>
		</g>
		<g transform="rotate(36)">
			<path id="r1_68_" fill="#FFEF00" d="M121.4,77.2c4.7,1.3,8.3,8.5,13.2,7.4c-4.8-1.9-6.7-8.5-11.1-10.2
				C119.1,72.6,116.7,75.9,121.4,77.2z"/>
		</g>
		<path id="r1_67_" fill="#FFEF00" d="M85,74.4c-2.7,4.1-10.6,5.2-11.1,10.2c3.3-4,10.1-3.8,13.2-7.4C90.1,73.6,87.7,70.3,85,74.4z"
			/>
		<g transform="rotate(90)">
			<path id="r1_66_" fill="#FFEF00" d="M92.4,43.3c-4.1-2.7-5.2-10.6-10.2-11.1c4,3.3,3.8,10.1,7.4,13.2
				C93.2,48.4,96.5,46,92.4,43.3z"/>
		</g>
		<g transform="rotate(180)">
			<path id="r1_65_" fill="#FFEF00" d="M123.5,50.7c2.7-4.1,10.6-5.2,11.1-10.2c-3.3,4-10.1,3.8-13.2,7.4S120.8,54.8,123.5,50.7z"/>
		</g>
		<g transform="rotate(54)">
			<path id="r1_64_" fill="#FFEF00" d="M116.1,81.8c4.1,2.7,5.2,10.6,10.2,11.1c-4-3.3-3.8-10.1-7.4-13.2
				C115.3,76.7,112,79.1,116.1,81.8z"/>
		</g>
		<path id="r1_63_" fill="#FFEF00" d="M82.3,67.8c-3.8,3.1-11.7,1.7-13.7,6.3c4.4-2.7,10.8-0.4,14.8-3
			C87.4,68.6,86.1,64.8,82.3,67.8z"/>
		<g transform="rotate(90)">
			<path id="r1_62_" fill="#FFEF00" d="M99,40.6c-3.1-3.8-1.7-11.7-6.3-13.7c2.7,4.4,0.4,10.8,3,14.8S102,44.4,99,40.6z"/>
		</g>
		<g transform="rotate(180)">
			<path id="r1_61_" fill="#FFEF00" d="M126.2,57.3c3.8-3.1,11.7-1.7,13.7-6.3c-4.4,2.7-10.8,0.4-14.8,3
				C121.1,56.5,122.4,60.3,126.2,57.3z"/>
		</g>
		<g transform="rotate(72)">
			<path id="r1_60_" fill="#FFEF00" d="M109.5,84.5c3.1,3.8,1.7,11.7,6.3,13.7c-2.7-4.4-0.4-10.8-3-14.8
				C110.3,79.4,106.5,80.7,109.5,84.5z"/>
		</g>
		<g id="r4_14_">
			<path id="r1_59_" fill="#FFEF00" d="M99,84.5c1,4.8-3.8,11.2-0.6,15.1c-0.5-5.1,4.5-9.8,4.1-14.6C102,80.4,98,79.7,99,84.5z"/>
			<g transform="rotate(90)">
				<path id="r1_58_" fill="#FFEF00" d="M82.3,57.3c-4.8,1-11.2-3.8-15.1-0.6c5.1-0.5,9.8,4.5,14.6,4.1S87.1,56.3,82.3,57.3z"/>
			</g>
			<g transform="rotate(180)">
				<path id="r1_57_" fill="#FFEF00" d="M109.5,40.6c-1-4.8,3.8-11.2,0.6-15.1c0.5,5.1-4.5,9.8-4.1,14.6S110.5,45.4,109.5,40.6z"/>
			</g>
			<g transform="rotate(270)">
				<path id="r1_56_" fill="#FFEF00" d="M126.2,67.8c4.8-1,11.2,3.8,15.1,0.6c-5.1,0.5-9.8-4.5-14.6-4.1
					C122,64.8,121.4,68.8,126.2,67.8z"/>
			</g>
		</g>
		<g id="r4_13_">
			<path id="r1_55_" fill="#FFEF00" d="M92.5,81.8c-0.5,4.9-7.1,9.5-5.3,14.2c1.2-5,7.3-8,8.4-12.6C96.6,78.8,93,76.9,92.5,81.8z"/>
			<g transform="rotate(90)">
				<path id="r1_54_" fill="#FFEF00" d="M85,50.8c-4.9-0.5-9.5-7.1-14.2-5.3c5,1.2,8,7.3,12.6,8.4C88,54.9,89.9,51.3,85,50.8z"/>
			</g>
			<g transform="rotate(180)">
				<path id="r1_53_" fill="#FFEF00" d="M116,43.3c0.5-4.9,7.1-9.5,5.3-14.2c-1.2,5-7.3,8-8.4,12.6S115.5,48.2,116,43.3z"/>
			</g>
			<g transform="rotate(18)">
				<path id="r1_52_" fill="#FFEF00" d="M123.5,74.3c4.9,0.5,9.5,7.1,14.2,5.3c-5-1.2-8-7.3-12.6-8.4
					C120.5,70.2,118.6,73.8,123.5,74.3z"/>
			</g>
		</g>
		<g id="r4_12_">
			<path id="r1_51_" fill="#FFEF00" d="M87.1,77.2c-2,4.5-9.7,6.8-9.4,11.9c2.7-4.4,9.4-5.3,11.9-9.4C92,75.6,89.1,72.8,87.1,77.2z"
				/>
			<g transform="rotate(90)">
				<path id="r1_50_" fill="#FFEF00" d="M89.6,45.4c-4.5-2-6.8-9.7-11.9-9.4c4.4,2.7,5.3,9.4,9.4,11.9S94,47.4,89.6,45.4z"/>
			</g>
			<g transform="rotate(180)">
				<path id="r1_49_" fill="#FFEF00" d="M121.4,47.9c2-4.5,9.7-6.8,9.4-11.9c-2.7,4.4-9.4,5.3-11.9,9.4S119.4,52.3,121.4,47.9z"/>
			</g>
			<g transform="rotate(36)">
				<path id="r1_48_" fill="#FFEF00" d="M118.9,79.7c4.5,2,6.8,9.7,11.9,9.4c-4.4-2.7-5.3-9.4-9.4-11.9S114.5,77.7,118.9,79.7z"/>
			</g>
		</g>
		<path id="r1_47_" fill="#FFEF00" d="M83.4,71.2c-3.3,3.6-11.3,3.5-12.6,8.4c3.9-3.4,10.6-2.1,14.2-5.3
			C88.5,71.2,86.7,67.6,83.4,71.2z"/>
		<g transform="rotate(90)">
			<path id="r1_46_" fill="#FFEF00" d="M95.6,41.7c-3.6-3.3-3.5-11.3-8.4-12.6c3.4,3.9,2.1,10.6,5.3,14.2
				C95.6,46.8,99.2,45,95.6,41.7z"/>
		</g>
		<g transform="rotate(180)">
			<path id="r1_45_" fill="#FFEF00" d="M125.1,53.9c3.3-3.6,11.3-3.5,12.6-8.4c-3.9,3.4-10.6,2.1-14.2,5.3
				C120,53.9,121.8,57.5,125.1,53.9z"/>
		</g>
		<g transform="rotate(54)">
			<path id="r1_44_" fill="#FFEF00" d="M112.9,83.4c3.6,3.3,3.5,11.3,8.4,12.6c-3.4-3.9-2.1-10.6-5.3-14.2
				C112.9,78.3,109.3,80.1,112.9,83.4z"/>
		</g>
		<path id="r1_43_" fill="#FFEF00" d="M81.7,64.3c-4.3,2.4-11.8-0.2-14.6,4.1c4.7-2,10.8,1.3,15.1-0.6C86.6,65.9,86,61.9,81.7,64.3z
			"/>
		<g transform="rotate(90)">
			<path id="r1_42_" fill="#FFEF00" d="M102.5,40c-2.4-4.3,0.2-11.8-4.1-14.6c2,4.7-1.3,10.8,0.6,15.1S104.9,44.3,102.5,40z"/>
		</g>
		<g transform="rotate(180)">
			<path id="r1_41_" fill="#FFEF00" d="M126.8,60.8c4.3-2.4,11.8,0.2,14.6-4.1c-4.7,2-10.8-1.3-15.1,0.6
				C121.9,59.2,122.5,63.2,126.8,60.8z"/>
		</g>
		<g transform="rotate(9)">
			<path id="r1_40_" fill="#FFEF00" d="M106,85.1c2.4,4.3-0.2,11.8,4.1,14.6c-2-4.7,1.3-10.8-0.6-15.1
				C107.6,80.2,103.6,80.8,106,85.1z"/>
		</g>
		<circle fill="#E8112D" cx="104.2" cy="62.5" r="22.5"/>
		<circle fill="#FFEF00" cx="104.2" cy="61.3" r="18.8"/>
		<g>
			<defs>
				<circle id="SVGID_1_" cx="104.2" cy="62.5" r="20.8"/>
			</defs>
			<clipPath id="SVGID_2_">
				<use xlink:href="#SVGID_1_"  overflow="visible"/>
			</clipPath>
			<path clip-path="url(#SVGID_2_)" fill="#E8112D" d="M85,77.6c0-17.4,14.1-31.5,31.5-31.5S148,60.2,148,77.6c0,0,0,0,0,0h0.3
				c0-16.7-13.5-30.2-30.2-30.2S87.8,60.9,87.8,77.6H85z"/>
			<path clip-path="url(#SVGID_2_)" fill="#E8112D" d="M89.6,77.6c0-16.3,13.2-29.4,29.4-29.4s29.4,13.2,29.4,29.4h0.4
				c0-15.6-12.7-28.3-28.3-28.3S92.2,61.9,92.2,77.6H89.6z"/>
			<path clip-path="url(#SVGID_2_)" fill="#E8112D" d="M121.5,50c-15.2,0-27.6,12.3-27.6,27.6s12.3,27.6,27.6,27.6l1.5-1
				c-14.7,0-26.5-11.9-26.5-26.5C96.5,62.9,108.4,51,123,51h0L121.5,50z"/>
		</g>
		<g>
			<defs>
				<circle id="SVGID_3_" cx="104.2" cy="62.5" r="20.8"/>
			</defs>
			<clipPath id="SVGID_4_">
				<use xlink:href="#SVGID_3_"  overflow="visible"/>
			</clipPath>
			<path clip-path="url(#SVGID_4_)" fill="#E8112D" d="M123.5,77.6c0-17.4-14.1-31.5-31.5-31.5S60.5,60.2,60.5,77.6c0,0,0,0,0,0
				h-0.3c0-16.7,13.5-30.2,30.2-30.2s30.2,13.5,30.2,30.2H123.5z"/>
			<path clip-path="url(#SVGID_4_)" fill="#E8112D" d="M118.9,77.6c0-16.3-13.2-29.4-29.4-29.4S60,61.3,60,77.6h-0.4
				c0-15.6,12.7-28.3,28.3-28.3s28.3,12.7,28.3,28.3H118.9z"/>
			<path clip-path="url(#SVGID_4_)" fill="#E8112D" d="M87,50c15.2,0,27.6,12.3,27.6,27.6s-12.3,27.6-27.6,27.6l-1.5-1
				c14.7,0,26.5-11.9,26.5-26.5C112,62.9,100.1,51,85.5,51c0,0,0,0,0,0L87,50z"/>
		</g>
	</g>
</g>
</svg>
