<?xml version="1.0" encoding="utf-8"?>
<!-- Generator: Adobe Illustrator 18.1.1, SVG Export Plug-In . SVG Version: 6.00 Build 0)  -->
<!DOCTYPE svg PUBLIC "-//W3C//DTD SVG 1.1//EN" "http://www.w3.org/Graphics/SVG/1.1/DTD/svg11.dtd" [
	<!ENTITY ns_extend "http://ns.adobe.com/Extensibility/1.0/">
	<!ENTITY ns_ai "http://ns.adobe.com/AdobeIllustrator/10.0/">
	<!ENTITY ns_graphs "http://ns.adobe.com/Graphs/1.0/">
	<!ENTITY ns_vars "http://ns.adobe.com/Variables/1.0/">
	<!ENTITY ns_imrep "http://ns.adobe.com/ImageReplacement/1.0/">
	<!ENTITY ns_sfw "http://ns.adobe.com/SaveForWeb/1.0/">
	<!ENTITY ns_custom "http://ns.adobe.com/GenericCustomNamespace/1.0/">
	<!ENTITY ns_adobe_xpath "http://ns.adobe.com/XPath/1.0/">
]>
<svg version="1.1" id="Layer_1" xmlns:x="&ns_extend;" xmlns:i="&ns_ai;" xmlns:graph="&ns_graphs;"
	 xmlns="http://www.w3.org/2000/svg" xmlns:xlink="http://www.w3.org/1999/xlink" x="0px" y="0px" viewBox="0 0 209 104.5"
	 enable-background="new 0 0 209 104.5" xml:space="preserve">
<metadata>
	<sfw  xmlns="&ns_sfw;">
		<slices></slices>
		<sliceSourceBounds  width="209" height="104.5" y="-427.8" x="570" bottomLeftOrigin="true"></sliceSourceBounds>
	</sfw>
</metadata>
<g>
	<rect x="0" y="0" fill="#C8313E" width="209" height="104.5"/>
	<rect x="0" y="69.7" fill="#4AA657" width="209" height="34.8"/>
	<rect x="0" y="0" fill="#FFFFFF" width="23.2" height="104.5"/>
	<g>
		<path fill="#C8313E" d="M4,0h3v1.7h1v1.7h1v1.7h1v1.7h1v1.7h-1v1.7h-1V12h-1v1.7h-1v1.7h-1v1.7H5v-1.7H4v-1.7H3V12H2v-1.7H1V8.6H0
			V6.9h1V5.1h1V3.4h1V1.7h1V0z M5,3.4h1v1.7h1v1.7h1v1.7h-1v1.7h-1V12H5v-1.7H4V8.6H3V6.9h1V5.1h1V3.4z M5,6.9h1v1.7H5V6.9z M0,1.7
			h1v1.7H0V1.7z M0,12h1v1.7H0V12z M11.1,0h0.6v3.4h-0.6V0z M11.1,12h0.6v3.4h-0.6V12z M2,15.4h1v1.7h1v1.7h1v1.7H4v1.7H3V24H2v-1.7
			H1v-1.7H0v-1.7h1v-1.7h1V15.4z M2,18.8h1v1.7H2V18.8z M8.1,15.4h1v1.7h1v1.7h1v1.7h-1v1.7h-1V24h-1v-1.7h-1v-1.7h-1v-1.7h1v-1.7h1
			V15.4z M8.1,18.8h1v1.7h-1V18.8z M0,25.7h1v1.7H0V25.7z M11.1,24h0.6v3.4h-0.6V24z"/>
		<path fill="#C8313E" d="M0,30.8h1v-1.7h1v-1.7h1v-1.7h1V24h1v-1.7h1V24h1v1.7h1v1.7h1v1.7h1v1.7h1v1.7h0.6v6.9h-0.6v1.7h-1v1.7h-1
			v1.7h-1v1.7h-1V48h-1v4.5H4v-1H3v-1.7H2V48H1v-1.7H0v-5.1h1v1.7h1v1.7h1v1.7h1v-1.7h1v-1.7h1v-1.7h1v-1.7h1v-1.7h1V36h-1v-1.7h-1
			v-1.7H4v1.7h2V36H5v1.7H4v1.7H3v-1.7H2V36H1v-1.7H0V30.8z M0,37.7h1v1.7H0V37.7z M11.1,42.8h0.6v1.7h-0.6V42.8z M9.1,46.3h1V48h1
			v1.7h0.6v2.7h-0.6v-1h-1v-1.7h-1V46.3z M7.1,51.4h1v1h-1V51.4z"/>
		<path fill="#C8313E" d="M19.2,0h-3v1.7h-1v1.7h-1v1.7h-1v1.7h-1v1.7h1v1.7h1V12h1v1.7h1v1.7h1v1.7h1v-1.7h1v-1.7h1V12h1v-1.7h1
			V8.6h1V6.9h-1V5.1h-1V3.4h-1V1.7h-1V0z M18.2,3.4h-1v1.7h-1v1.7h-1v1.7h1v1.7h1V12h1v-1.7h1V8.6h1V6.9h-1V5.1h-1V3.4z M18.2,6.9
			h-1v1.7h1V6.9z M23.2,1.7h-1v1.7h1V1.7z M23.2,12h-1v1.7h1V12z M12.1,0h-0.6v3.4h0.6V0z M12.1,12h-0.6v3.4h0.6V12z M21.2,15.4h-1
			v1.7h-1v1.7h-1v1.7h1v1.7h1V24h1v-1.7h1v-1.7h1v-1.7h-1v-1.7h-1V15.4z M21.2,18.8h-1v1.7h1V18.8z M15.1,15.4h-1v1.7h-1v1.7h-1v1.7
			h1v1.7h1V24h1v-1.7h1v-1.7h1v-1.7h-1v-1.7h-1V15.4z M15.1,18.8h-1v1.7h1V18.8z M23.2,25.7h-1v1.7h1V25.7z M12.1,24h-0.6v3.4h0.6
			V24z"/>
		<path fill="#C8313E" d="M23.2,30.8h-1v-1.7h-1v-1.7h-1v-1.7h-1V24h-1v-1.7h-1V24h-1v1.7h-1v1.7h-1v1.7h-1v1.7h-1v1.7h-0.6v6.9h0.6
			v1.7h1v1.7h1v1.7h1v1.7h1V48h1v4.5h2v-1h1v-1.7h1V48h1v-1.7h1v-5.1h-1v1.7h-1v1.7h-1v1.7h-1v-1.7h-1v-1.7h-1v-1.7h-1v-1.7h-1v-1.7
			h-1V36h1v-1.7h1v-1.7h3v1.7h-2V36h1v1.7h1v1.7h1v-1.7h1V36h1v-1.7h1V30.8z M23.2,37.7h-1v1.7h1V37.7z M12.1,42.8h-0.6v1.7h0.6
			V42.8z M14.1,46.3h-1V48h-1v1.7h-0.6v2.7h0.6v-1h1v-1.7h1V46.3z M16.2,51.4h-1v1h1V51.4z"/>
		<path fill="#C8313E" d="M4,104.5h3v-1.7h1v-1.7h1v-1.7h1v-1.7h1V96h-1v-1.7h-1v-1.7h-1v-1.7h-1v-1.7h-1v-1.7H5v1.7H4v1.7H3v1.7H2
			v1.7H1V96H0v1.7h1v1.7h1v1.7h1v1.7h1V104.5z M5,101.1h1v-1.7h1v-1.7h1V96h-1v-1.7h-1v-1.7H5v1.7H4V96H3v1.7h1v1.7h1V101.1z
			 M5,97.7h1V96H5V97.7z M0,102.8h1v-1.7H0V102.8z M0,92.5h1v-1.7H0V92.5z M11.1,104.5h0.6v-3.4h-0.6V104.5z M11.1,92.5h0.6v-3.4
			h-0.6V92.5z M2,89.1h1v-1.7h1v-1.7h1V84H4v-1.7H3v-1.7H2v1.7H1V84H0v1.7h1v1.7h1V89.1z M2,85.7h1V84H2V85.7z M8.1,89.1h1v-1.7h1
			v-1.7h1V84h-1v-1.7h-1v-1.7h-1v1.7h-1V84h-1v1.7h1v1.7h1V89.1z M8.1,85.7h1V84h-1V85.7z M0,78.8h1v-1.7H0V78.8z M11.1,80.5h0.6
			v-3.4h-0.6V80.5z"/>
		<path fill="#C8313E" d="M0,73.7h1v1.7h1v1.7h1v1.7h1v1.7h1v1.7h1v-1.7h1v-1.7h1v-1.7h1v-1.7h1v-1.7h1V72h0.6v-6.9h-0.6v-1.7h-1
			v-1.7h-1V60h-1v-1.7h-1v-1.7h-1v-4.5H4v1H3v1.7H2v1.7H1v1.7H0v5.1h1v-1.7h1V60h1v-1.7h1V60h1v1.7h1v1.7h1v1.7h1v1.7h1v1.7h-1v1.7
			h-1V72H4v-1.7h2v-1.7H5v-1.7H4v-1.7H3v1.7H2v1.7H1v1.7H0V73.7z M0,66.8h1v-1.7H0V66.8z M11.1,61.7h0.6V60h-0.6V61.7z M9.1,58.3h1
			v-1.7h1v-1.7h0.6v-2.7h-0.6v1h-1v1.7h-1V58.3z M7.1,53.1h1v-1h-1V53.1z"/>
		<path fill="#C8313E" d="M19.2,104.5h-3v-1.7h-1v-1.7h-1v-1.7h-1v-1.7h-1V96h1v-1.7h1v-1.7h1v-1.7h1v-1.7h1v-1.7h1v1.7h1v1.7h1v1.7
			h1v1.7h1V96h1v1.7h-1v1.7h-1v1.7h-1v1.7h-1V104.5z M18.2,101.1h-1v-1.7h-1v-1.7h-1V96h1v-1.7h1v-1.7h1v1.7h1V96h1v1.7h-1v1.7h-1
			V101.1z M18.2,97.7h-1V96h1V97.7z M23.2,102.8h-1v-1.7h1V102.8z M23.2,92.5h-1v-1.7h1V92.5z M12.1,104.5h-0.6v-3.4h0.6V104.5z
			 M12.1,92.5h-0.6v-3.4h0.6V92.5z M21.2,89.1h-1v-1.7h-1v-1.7h-1V84h1v-1.7h1v-1.7h1v1.7h1V84h1v1.7h-1v1.7h-1V89.1z M21.2,85.7h-1
			V84h1V85.7z M15.1,89.1h-1v-1.7h-1v-1.7h-1V84h1v-1.7h1v-1.7h1v1.7h1V84h1v1.7h-1v1.7h-1V89.1z M15.1,85.7h-1V84h1V85.7z
			 M23.2,78.8h-1v-1.7h1V78.8z M12.1,80.5h-0.6v-3.4h0.6V80.5z"/>
		<path fill="#C8313E" d="M23.2,73.7h-1v1.7h-1v1.7h-1v1.7h-1v1.7h-1v1.7h-1v-1.7h-1v-1.7h-1v-1.7h-1v-1.7h-1v-1.7h-1V72h-0.6v-6.9
			h0.6v-1.7h1v-1.7h1V60h1v-1.7h1v-1.7h1v-4.5h2v1h1v1.7h1v1.7h1v1.7h1v5.1h-1v-1.7h-1V60h-1v-1.7h-1V60h-1v1.7h-1v1.7h-1v1.7h-1
			v1.7h-1v1.7h1v1.7h1V72h3v-1.7h-2v-1.7h1v-1.7h1v-1.7h1v1.7h1v1.7h1v1.7h1V73.7z M23.2,66.8h-1v-1.7h1V66.8z M12.1,61.7h-0.6V60
			h0.6V61.7z M14.1,58.3h-1v-1.7h-1v-1.7h-0.6v-2.7h0.6v1h1v1.7h1V58.3z M16.2,53.1h-1v-1h1V53.1z"/>
	</g>
</g>
</svg>
