<?xml version="1.0" encoding="utf-8"?>
<!-- Generator: Adobe Illustrator 18.1.1, SVG Export Plug-In . SVG Version: 6.00 Build 0)  -->
<!DOCTYPE svg PUBLIC "-//W3C//DTD SVG 1.1//EN" "http://www.w3.org/Graphics/SVG/1.1/DTD/svg11.dtd" [
	<!ENTITY ns_extend "http://ns.adobe.com/Extensibility/1.0/">
	<!ENTITY ns_ai "http://ns.adobe.com/AdobeIllustrator/10.0/">
	<!ENTITY ns_graphs "http://ns.adobe.com/Graphs/1.0/">
	<!ENTITY ns_vars "http://ns.adobe.com/Variables/1.0/">
	<!ENTITY ns_imrep "http://ns.adobe.com/ImageReplacement/1.0/">
	<!ENTITY ns_sfw "http://ns.adobe.com/SaveForWeb/1.0/">
	<!ENTITY ns_custom "http://ns.adobe.com/GenericCustomNamespace/1.0/">
	<!ENTITY ns_adobe_xpath "http://ns.adobe.com/XPath/1.0/">
]>
<svg version="1.1" id="Layer_1" xmlns:x="&ns_extend;" xmlns:i="&ns_ai;" xmlns:graph="&ns_graphs;"
	 xmlns="http://www.w3.org/2000/svg" xmlns:xlink="http://www.w3.org/1999/xlink" x="0px" y="0px" viewBox="0 0 101.6 66.9"
	 enable-background="new 0 0 101.6 66.9" xml:space="preserve">
<metadata>
	<sfw  xmlns="&ns_sfw;">
		<slices></slices>
		<sliceSourceBounds  width="109.6" height="66.9" y="-408.5" x="620.7" bottomLeftOrigin="true"></sliceSourceBounds>
	</sfw>
</metadata>
<g>
	<g>
		<g>
			<g>
				<line fill="none" stroke="#B5935B" stroke-linejoin="round" x1="19.8" y1="8.5" x2="17.8" y2="8.5"/>
				
					<line fill="none" stroke="#B5935B" stroke-linejoin="round" stroke-dasharray="3.1574,3.1574" x1="14.6" y1="8.5" x2="3.6" y2="8.5"/>
				<line fill="none" stroke="#B5935B" stroke-linejoin="round" x1="2" y1="8.5" x2="0" y2="8.5"/>
			</g>
		</g>
		<path fill="none" stroke="#B5935B" stroke-linejoin="round" stroke-miterlimit="10" d="M33.8,14.2c-2.3-2.5-5.2-4.3-8.5-5.2"/>
		<path fill="none" stroke="#B5935B" stroke-linejoin="round" stroke-miterlimit="10" d="M59,21.1H47.4c-4,0-7.9-1.4-10.9-4"/>
		<g>
			<g>
				<path fill="#041944" stroke="#B5935B" stroke-width="3" stroke-linejoin="round" stroke-miterlimit="10" d="M86.6,2.5
					c10.3,3.4,15.9,14.4,12.6,24.6c-3.4,10.2-14.5,15.8-24.8,12.4c-10.3-3.4-15.9-14.4-12.6-24.6C65.2,4.7,76.3-0.9,86.6,2.5z"/>
				<g>
					<defs>
						<path id="XMLID_2441_" d="M84.7,8.2c7.1,2.3,10.9,9.9,8.6,17s-9.9,10.9-17,8.6c-7.1-2.3-10.9-9.9-8.6-17S77.6,5.9,84.7,8.2z"
							/>
					</defs>
					<use xlink:href="#XMLID_2441_"  overflow="visible" fill="#041944"/>
					<clipPath id="XMLID_2_">
						<use xlink:href="#XMLID_2441_"  overflow="visible"/>
					</clipPath>
					<g id="XMLID_2442_" display="none" clip-path="url(#XMLID_2_)">
						<defs>
							<rect id="XMLID_2443_" x="66.3" y="7.3" width="39.7" height="28.4"/>
						</defs>
						<use xlink:href="#XMLID_2443_"  display="inline" overflow="visible" fill="#4D7637"/>
						<clipPath id="XMLID_3_" display="inline">
							<use xlink:href="#XMLID_2443_"  overflow="visible"/>
						</clipPath>
						
							<rect id="XMLID_2529_" x="60.4" y="3.1" display="inline" clip-path="url(#XMLID_3_)" fill="#981F1F" width="49.3" height="23.7"/>
						<g id="XMLID_2444_" display="inline" clip-path="url(#XMLID_3_)">
							<rect id="XMLID_2528_" x="66.2" y="6.2" fill="#FFFFFF" width="9.1" height="30.7"/>
							<g id="h_22_">
								<g id="q_44_" transform="scale(5.304347826,9)">
									<path id="XMLID_2514_" fill="#945251" d="M13,0.9h0.2v0.1h0.1V1h0.1V1h0.1v0.1h0.1v0.1h-0.1v0.1h-0.1v0.1h-0.1v0.1h-0.1
										v0.1h-0.1v0.1h-0.1V1.4H13V1.3H13V1.3h-0.1V1.2h-0.1V1.2h-0.1V1.1h0.1V1h0.1V1H13L13,0.9L13,0.9L13,0.9z M13.1,1L13.1,1
										L13.1,1L13.2,1v0.1h0.1v0.1h-0.1v0.1h-0.1v0.1h-0.1V1.2H13V1.2H13V1.1H13L13.1,1L13.1,1L13.1,1z M13.1,1.1L13.1,1.1
										L13.1,1.1L13.1,1.1L13.1,1.1z M12.8,0.9L12.8,0.9L12.8,0.9L12.8,0.9L12.8,0.9z M12.8,1.3L12.8,1.3L12.8,1.3L12.8,1.3
										L12.8,1.3z M13.4,0.9L13.4,0.9l0,0.1h0V0.9z M13.4,1.3L13.4,1.3l0,0.1h0V1.3z M12.9,1.4L12.9,1.4L12.9,1.4L13,1.4v0.1h0.1
										v0.1H13v0.1H13v0.1h-0.1V1.6h-0.1V1.5h-0.1V1.5h0.1L12.9,1.4L12.9,1.4L12.9,1.4z M12.9,1.5L12.9,1.5L12.9,1.5L12.9,1.5
										L12.9,1.5z M13.2,1.4L13.2,1.4L13.2,1.4l0.1,0.1v0.1h0.1v0.1h-0.1v0.1h-0.1v0.1h-0.1V1.6h-0.1V1.5h-0.1V1.5h0.1L13.2,1.4
										L13.2,1.4L13.2,1.4z M13.2,1.5L13.2,1.5L13.2,1.5L13.2,1.5L13.2,1.5z M12.8,1.7L12.8,1.7L12.8,1.7L12.8,1.7L12.8,1.7z
										 M13.4,1.7L13.4,1.7l0,0.1h0V1.7z"/>
									<path id="XMLID_2508_" fill="#945251" d="M12.8,1.9L12.8,1.9L12.8,1.9l0.1-0.1V1.8H13V1.7H13V1.7h0.1V1.6h0.1v0.1h0.1v0.1
										h0.1v0.1h0.1v0.1h0.1v0.1h0.1v0.1h0v0.2h0v0.1h-0.1v0.1h-0.1v0.1h-0.1v0.1h-0.1v0.1h-0.1v0.1H13v0H13V2.5h-0.1V2.4h-0.1
										V2.4h-0.1V2.2h0.1v0.1h0.1v0.1H13v0.1H13V2.3h0.1V2.3h0.1V2.2h0.1V2.1h0.1V2.1h0.1V2h-0.1V2h-0.1V1.9H13V2h0.1V2h-0.1v0.1
										H13v0.1H13V2.1h-0.1V2h-0.1V2h-0.1V1.9z M12.8,2.1L12.8,2.1L12.8,2.1L12.8,2.1L12.8,2.1z M13.4,2.3L13.4,2.3L13.4,2.3
										L13.4,2.3L13.4,2.3z M13.3,2.4L13.3,2.4L13.3,2.4l0.1,0.1v0.1h0v0.1h0v0h-0.1V2.5h-0.1V2.4z M13.2,2.5L13.2,2.5L13.2,2.5
										L13.2,2.5L13.2,2.5z"/>
								</g>
								<g id="XMLID_2487_">
									<g id="q_43_" transform="scale(5.304347826,9)">
										<path id="XMLID_2494_" fill="#945251" d="M13.8,0.9h-0.2v0.1h-0.1V1h-0.1V1h-0.1v0.1h-0.1v0.1h0.1v0.1h0.1v0.1h0.1v0.1
											h0.1v0.1h0.1v0.1h0.1V1.4h0.1V1.3h0.1V1.3H14V1.2H14V1.2h0.1V1.1H14V1H14V1h-0.1L13.8,0.9L13.8,0.9L13.8,0.9z M13.8,1
											L13.8,1L13.8,1L13.7,1v0.1h-0.1v0.1h0.1v0.1h0.1v0.1h0.1V1.2h0.1V1.2h0.1V1.1h-0.1L13.8,1L13.8,1L13.8,1z M13.8,1.1
											L13.8,1.1L13.8,1.1L13.8,1.1L13.8,1.1z M14.1,0.9L14.1,0.9L14.1,0.9L14.1,0.9L14.1,0.9z M14.1,1.3L14.1,1.3L14.1,1.3
											L14.1,1.3L14.1,1.3z M13.5,0.9L13.5,0.9l0,0.1h0V0.9z M13.5,1.3L13.5,1.3l0,0.1h0V1.3z M14,1.4L14,1.4L14,1.4l-0.1,0.1
											v0.1h-0.1v0.1h0.1v0.1h0.1v0.1H14V1.6H14V1.5h0.1V1.5H14L14,1.4L14,1.4L14,1.4z M14,1.5L14,1.5L14,1.5L14,1.5L14,1.5z
											 M13.6,1.4L13.6,1.4L13.6,1.4l-0.1,0.1v0.1h-0.1v0.1h0.1v0.1h0.1v0.1h0.1V1.6h0.1V1.5h0.1V1.5h-0.1L13.6,1.4L13.6,1.4
											L13.6,1.4z M13.6,1.5L13.6,1.5L13.6,1.5L13.6,1.5L13.6,1.5z M14.1,1.7L14.1,1.7L14.1,1.7L14.1,1.7L14.1,1.7z M13.5,1.7
											L13.5,1.7l0,0.1h0V1.7z"/>
										<path id="XMLID_2488_" fill="#945251" d="M14.1,1.9L14.1,1.9L14.1,1.9L14,1.8V1.8h-0.1V1.7h-0.1V1.7h-0.1V1.6h-0.1v0.1
											h-0.1v0.1h-0.1v0.1h-0.1v0.1h-0.1v0.1h-0.1v0.1h0v0.2h0v0.1h0.1v0.1h0.1v0.1h0.1v0.1h0.1v0.1h0.1v0.1h0.1v0h0.1V2.5H14
											V2.4H14V2.4h0.1V2.2H14v0.1H14v0.1h-0.1v0.1h-0.1V2.3h-0.1V2.3h-0.1V2.2h-0.1V2.1h-0.1V2.1h-0.1V2h0.1V2h0.1V1.9h0.2V2
											h-0.1V2h0.1v0.1h0.1v0.1h0.1V2.1H14V2H14V2h0.1V1.9z M14.1,2.1L14.1,2.1L14.1,2.1L14.1,2.1L14.1,2.1z M13.5,2.3L13.5,2.3
											L13.5,2.3L13.5,2.3L13.5,2.3z M13.6,2.4L13.6,2.4L13.6,2.4l-0.1,0.1v0.1h0v0.1h0v0h0.1V2.5h0.1V2.4z M13.7,2.5L13.7,2.5
											L13.7,2.5L13.7,2.5L13.7,2.5z"/>
									</g>
								</g>
							</g>
							<g id="XMLID_2445_">
								<g id="h_21_">
									<g id="q_42_" transform="scale(5.304347826,9)">
										<path id="XMLID_2473_" fill="#945251" d="M13,4.2h0.2V4.2h0.1V4.1h0.1V4.1h0.1V4h0.1V4h-0.1V3.9h-0.1V3.9h-0.1V3.8h-0.1
											V3.7h-0.1V3.7h-0.1v0.1H13v0.1H13v0.1h-0.1v0.1h-0.1V4h-0.1V4h0.1v0.1h0.1v0.1H13L13,4.2L13,4.2L13,4.2z M13.1,4.1
											L13.1,4.1L13.1,4.1l0.1-0.1V4h0.1V4h-0.1V3.9h-0.1V3.9h-0.1v0.1H13V4H13V4H13L13.1,4.1L13.1,4.1L13.1,4.1z M13.1,4L13.1,4
											L13.1,4L13.1,4L13.1,4z M12.8,4.2L12.8,4.2L12.8,4.2L12.8,4.2L12.8,4.2z M12.8,3.9L12.8,3.9L12.8,3.9L12.8,3.9L12.8,3.9z
											 M13.4,4.2L13.4,4.2l0-0.1h0V4.2z M13.4,3.9L13.4,3.9l0-0.1h0V3.9z M12.9,3.7L12.9,3.7L12.9,3.7L13,3.7V3.6h0.1V3.6H13
											V3.5H13V3.5h-0.1v0.1h-0.1v0.1h-0.1v0.1h0.1L12.9,3.7L12.9,3.7L12.9,3.7z M12.9,3.6L12.9,3.6L12.9,3.6L12.9,3.6L12.9,3.6z
											 M13.2,3.7L13.2,3.7L13.2,3.7l0.1-0.1V3.6h0.1V3.6h-0.1V3.5h-0.1V3.5h-0.1v0.1h-0.1v0.1h-0.1v0.1h0.1L13.2,3.7L13.2,3.7
											L13.2,3.7z M13.2,3.6L13.2,3.6L13.2,3.6L13.2,3.6L13.2,3.6z M12.8,3.4L12.8,3.4L12.8,3.4L12.8,3.4L12.8,3.4z M13.4,3.5
											L13.4,3.5l0-0.1h0V3.5z"/>
										<path id="XMLID_2467_" fill="#945251" d="M12.8,3.3L12.8,3.3L12.8,3.3l0.1,0.1v0.1H13v0.1H13v0.1h0.1v0.1h0.1V3.5h0.1V3.4
											h0.1V3.4h0.1V3.3h0.1V3.3h0.1V3.2h0V3h0V2.9h-0.1V2.9h-0.1V2.8h-0.1V2.8h-0.1V2.7h-0.1V2.6H13v0H13v0.1h-0.1v0.1h-0.1v0.1
											h-0.1v0.2h0.1V2.9h0.1V2.8H13V2.8H13v0.1h0.1v0.1h0.1v0.1h0.1V3h0.1V3h0.1v0.1h-0.1v0.1h-0.1v0.1H13V3.1h0.1V3.1h-0.1V3
											H13V3H13V3h-0.1v0.1h-0.1v0.1h-0.1V3.3z M12.8,3L12.8,3L12.8,3L12.8,3L12.8,3z M13.4,2.9L13.4,2.9L13.4,2.9L13.4,2.9
											L13.4,2.9z M13.3,2.8L13.3,2.8L13.3,2.8l0.1-0.1V2.6h0V2.6h0v0h-0.1v0.1h-0.1V2.8z M13.2,2.6L13.2,2.6L13.2,2.6L13.2,2.6
											L13.2,2.6z"/>
									</g>
									<g id="XMLID_2446_" transform="translate(0,549) scale(1,-1)">
										<g id="q_41_" transform="scale(5.304347826,9)">
											<path id="XMLID_2453_" fill="#945251" d="M13.8,4.2h-0.2V4.2h-0.1V4.1h-0.1V4.1h-0.1V4h-0.1V4h0.1V3.9h0.1V3.9h0.1V3.8
												h0.1V3.7h0.1V3.7h0.1v0.1h0.1v0.1h0.1v0.1H14v0.1H14V4h0.1V4H14v0.1H14v0.1h-0.1L13.8,4.2L13.8,4.2L13.8,4.2z M13.8,4.1
												L13.8,4.1L13.8,4.1l-0.1-0.1V4h-0.1V4h0.1V3.9h0.1V3.9h0.1v0.1h0.1V4h0.1V4h-0.1L13.8,4.1L13.8,4.1L13.8,4.1z M13.8,4
												L13.8,4L13.8,4L13.8,4L13.8,4z M14.1,4.2L14.1,4.2L14.1,4.2L14.1,4.2L14.1,4.2z M14.1,3.9L14.1,3.9L14.1,3.9L14.1,3.9
												L14.1,3.9z M13.5,4.2L13.5,4.2l0-0.1h0V4.2z M13.5,3.9L13.5,3.9l0-0.1h0V3.9z M14,3.7L14,3.7L14,3.7l-0.1-0.1V3.6h-0.1
												V3.6h0.1V3.5h0.1V3.5H14v0.1H14v0.1h0.1v0.1H14L14,3.7L14,3.7L14,3.7z M14,3.6L14,3.6L14,3.6L14,3.6L14,3.6z M13.6,3.7
												L13.6,3.7L13.6,3.7l-0.1-0.1V3.6h-0.1V3.6h0.1V3.5h0.1V3.5h0.1v0.1h0.1v0.1h0.1v0.1h-0.1L13.6,3.7L13.6,3.7L13.6,3.7z
												 M13.6,3.6L13.6,3.6L13.6,3.6L13.6,3.6L13.6,3.6z M14.1,3.4L14.1,3.4L14.1,3.4L14.1,3.4L14.1,3.4z M13.5,3.5L13.5,3.5
												l0-0.1h0V3.5z"/>
											<path id="XMLID_2447_" fill="#945251" d="M14.1,3.3L14.1,3.3L14.1,3.3L14,3.3v0.1h-0.1v0.1h-0.1v0.1h-0.1v0.1h-0.1V3.5
												h-0.1V3.4h-0.1V3.4h-0.1V3.3h-0.1V3.3h-0.1V3.2h0V3h0V2.9h0.1V2.9h0.1V2.8h0.1V2.8h0.1V2.7h0.1V2.6h0.1v0h0.1v0.1H14v0.1
												H14v0.1h0.1v0.2H14V2.9H14V2.8h-0.1V2.8h-0.1v0.1h-0.1v0.1h-0.1v0.1h-0.1V3h-0.1V3h-0.1v0.1h0.1v0.1h0.1v0.1h0.2V3.1
												h-0.1V3.1h0.1V3h0.1V3h0.1V3H14v0.1H14v0.1h0.1V3.3z M14.1,3L14.1,3L14.1,3L14.1,3L14.1,3z M13.5,2.9L13.5,2.9L13.5,2.9
												L13.5,2.9L13.5,2.9z M13.6,2.8L13.6,2.8L13.6,2.8l-0.1-0.1V2.6h0V2.6h0v0h0.1v0.1h0.1V2.8z M13.7,2.6L13.7,2.6L13.7,2.6
												L13.7,2.6L13.7,2.6z"/>
										</g>
									</g>
								</g>
							</g>
						</g>
					</g>
					
						<use xlink:href="#XMLID_2441_"  overflow="visible" fill="none" stroke="#B5935B" stroke-linejoin="round" stroke-miterlimit="10"/>
				</g>
			</g>
			<circle fill="#041944" stroke="#B5935B" stroke-linejoin="round" stroke-miterlimit="10" cx="59.1" cy="21" r="2.9"/>
		</g>
	</g>
	<g>
		<defs>
			<path id="XMLID_2530_" d="M77.8,46.7c0,0-6,2.1-5.2,7.4c0.8,5.4,5.8,12.2,12.5,12.3s10.2-1.7,11.9-6.2c1.2-3.1,1.6-11.7,0.2-14.7
				c-0.7-1.6-2.7-2.7-3.9-1.8c0.2-3.6-4.3-4.2-5.5-2.6c-1.2-1.4-3.7-2.2-5.2-0.1c-0.1,1.6-0.1-10.4-0.1-10.4s0.3-2.5-2.3-2.5
				c-2.4,0-2.4,2.3-2.4,2.3V46.7z"/>
		</defs>
		<use xlink:href="#XMLID_2530_"  overflow="visible" fill="#041944"/>
		<clipPath id="XMLID_4_">
			<use xlink:href="#XMLID_2530_"  overflow="visible"/>
		</clipPath>
		
			<line clip-path="url(#XMLID_4_)" fill="#041944" stroke="#B5935B" stroke-linecap="round" stroke-linejoin="round" stroke-miterlimit="10" x1="77.8" y1="46.5" x2="77.8" y2="53.5"/>
		
			<line clip-path="url(#XMLID_4_)" fill="#041944" stroke="#B5935B" stroke-linecap="round" stroke-linejoin="round" stroke-miterlimit="10" x1="82.5" y1="40" x2="82.6" y2="45.5"/>
		
			<line clip-path="url(#XMLID_4_)" fill="#041944" stroke="#B5935B" stroke-linecap="round" stroke-linejoin="round" stroke-miterlimit="10" x1="87.8" y1="40.5" x2="87.8" y2="43.5"/>
		
			<line clip-path="url(#XMLID_4_)" fill="#041944" stroke="#B5935B" stroke-linecap="round" stroke-linejoin="round" stroke-miterlimit="10" x1="93.2" y1="42.5" x2="93.2" y2="46.8"/>
		
			<use xlink:href="#XMLID_2530_"  overflow="visible" fill="none" stroke="#B5935B" stroke-linecap="round" stroke-linejoin="round" stroke-miterlimit="10"/>
	</g>
</g>
</svg>
