<?xml version="1.0" encoding="utf-8"?>
<!-- Generator: Adobe Illustrator 18.1.1, SVG Export Plug-In . SVG Version: 6.00 Build 0)  -->
<!DOCTYPE svg PUBLIC "-//W3C//DTD SVG 1.1//EN" "http://www.w3.org/Graphics/SVG/1.1/DTD/svg11.dtd" [
	<!ENTITY ns_extend "http://ns.adobe.com/Extensibility/1.0/">
	<!ENTITY ns_ai "http://ns.adobe.com/AdobeIllustrator/10.0/">
	<!ENTITY ns_graphs "http://ns.adobe.com/Graphs/1.0/">
	<!ENTITY ns_vars "http://ns.adobe.com/Variables/1.0/">
	<!ENTITY ns_imrep "http://ns.adobe.com/ImageReplacement/1.0/">
	<!ENTITY ns_sfw "http://ns.adobe.com/SaveForWeb/1.0/">
	<!ENTITY ns_custom "http://ns.adobe.com/GenericCustomNamespace/1.0/">
	<!ENTITY ns_adobe_xpath "http://ns.adobe.com/XPath/1.0/">
]>
<svg version="1.1" id="Layer_1" xmlns:x="&ns_extend;" xmlns:i="&ns_ai;" xmlns:graph="&ns_graphs;"
	 xmlns="http://www.w3.org/2000/svg" xmlns:xlink="http://www.w3.org/1999/xlink" x="0px" y="0px" viewBox="0 0 242.6 87.5"
	 enable-background="new 0 0 242.6 87.5" xml:space="preserve">
<metadata>
	<sfw  xmlns="&ns_sfw;">
		<slices></slices>
		<sliceSourceBounds  width="245.6" height="91.4" y="-420.5" x="552.5" bottomLeftOrigin="true"></sliceSourceBounds>
	</sfw>
</metadata>
<path fill="none" stroke="#898989" stroke-linejoin="round" stroke-miterlimit="10" d="M220.2,53L200,75.3
	c-4.8,5.3-11.7,8.4-18.9,8.4h-48.4"/>
<g>
	<g>
		<path fill="#AAAAAA" d="M6.3,45c0,1-0.3,1.8-1,2.3c-0.7,0.5-1.7,0.8-3,0.8H1.2v3.9H0v-10h2.6C5.1,42.1,6.3,43,6.3,45z M1.2,47.1h1
			c1,0,1.8-0.2,2.2-0.5s0.7-0.9,0.7-1.6c0-0.7-0.2-1.2-0.6-1.5s-1.1-0.5-2-0.5H1.2V47.1z"/>
		<path fill="#AAAAAA" d="M11.4,52.2c-1.1,0-2-0.3-2.6-1s-1-1.6-1-2.8c0-1.2,0.3-2.2,0.9-2.9s1.4-1.1,2.4-1.1c0.9,0,1.7,0.3,2.2,0.9
			c0.5,0.6,0.8,1.4,0.8,2.4v0.7H9c0,0.9,0.2,1.5,0.7,2s1,0.7,1.8,0.7c0.8,0,1.6-0.2,2.4-0.5v1c-0.4,0.2-0.8,0.3-1.1,0.4
			C12.4,52.2,11.9,52.2,11.4,52.2z M11.1,45.4c-0.6,0-1.1,0.2-1.4,0.6S9.1,46.9,9,47.6H13c0-0.7-0.2-1.3-0.5-1.6
			C12.2,45.6,11.7,45.4,11.1,45.4z"/>
		<path fill="#AAAAAA" d="M19.1,52.2c-1.1,0-1.9-0.3-2.5-1c-0.6-0.7-0.9-1.6-0.9-2.8c0-1.3,0.3-2.2,0.9-2.9s1.5-1,2.6-1
			c0.4,0,0.7,0,1.1,0.1s0.6,0.2,0.8,0.3l-0.3,1c-0.3-0.1-0.5-0.2-0.8-0.3c-0.3-0.1-0.6-0.1-0.8-0.1c-1.5,0-2.3,1-2.3,2.9
			c0,0.9,0.2,1.6,0.6,2.1s0.9,0.7,1.7,0.7c0.6,0,1.3-0.1,1.9-0.4v1C20.5,52.1,19.9,52.2,19.1,52.2z"/>
		<path fill="#AAAAAA" d="M23.9,52.1h-1.1v-7.5h6.3v7.5h-1.1v-6.5h-4V52.1z"/>
		<path fill="#AAAAAA" d="M30.3,44.6h1.2l1.6,4.3c0.4,1,0.6,1.7,0.7,2.1h0.1c0.1-0.2,0.2-0.6,0.4-1.2c0.2-0.6,0.8-2.3,1.9-5.2h1.2
			l-3.2,8.5c-0.3,0.8-0.7,1.4-1.1,1.8c-0.4,0.4-0.9,0.5-1.6,0.5c-0.3,0-0.7,0-1-0.1v-0.9c0.3,0.1,0.5,0.1,0.8,0.1
			c0.8,0,1.3-0.4,1.7-1.3l0.4-1.1L30.3,44.6z"/>
		<path fill="#AAAAAA" d="M38.1,47.6c0-1.6,0.2-2.9,0.7-3.8c0.5-0.9,1.2-1.5,2.3-1.7c1.3-0.3,2.5-0.5,3.4-0.7l0.2,1
			c-1.6,0.3-2.7,0.5-3.4,0.6c-0.7,0.2-1.2,0.5-1.5,1.1s-0.5,1.3-0.5,2.3h0.1c0.3-0.4,0.6-0.7,1.1-0.9s0.9-0.3,1.4-0.3
			c0.9,0,1.6,0.3,2.2,0.9s0.8,1.4,0.8,2.5c0,1.2-0.3,2.1-0.9,2.7c-0.6,0.7-1.4,1-2.5,1c-1.1,0-1.9-0.4-2.5-1.2S38.1,49,38.1,47.6z
			 M41.6,51.3c1.4,0,2.1-0.9,2.1-2.7c0-1.7-0.6-2.5-1.9-2.5c-0.3,0-0.7,0.1-1,0.2c-0.3,0.1-0.6,0.3-0.9,0.6s-0.5,0.5-0.6,0.7
			c0,1.2,0.2,2.1,0.6,2.7C40.2,50.9,40.8,51.3,41.6,51.3z"/>
		<path fill="#AAAAAA" d="M52.5,52.1h-1.1v-6.5h-2.2c-0.1,1.6-0.3,2.9-0.5,3.9s-0.5,1.6-0.9,2.1s-0.8,0.7-1.3,0.7
			c-0.2,0-0.4,0-0.6-0.1v-0.8c0.1,0,0.2,0,0.3,0c0.5,0,0.9-0.6,1.3-1.7s0.5-2.8,0.7-5h4.4V52.1z"/>
		<path fill="#AAAAAA" d="M55.9,44.6v4.8l0,1.2l0,0.4l4.1-6.4h1.4v7.5h-1.1v-4.6l0-0.9l0-0.9l-4,6.4h-1.4v-7.5H55.9z"/>
		<path fill="#AAAAAA" d="M68.1,44.6h1.2l-3.2,3.6l3.5,3.9h-1.3l-3.4-3.8v3.8h-1.1v-7.5h1.1v3.6L68.1,44.6z"/>
		<path fill="#AAAAAA" d="M75.6,52.1L75.4,51h-0.1c-0.4,0.5-0.7,0.8-1.1,1c-0.4,0.2-0.8,0.3-1.4,0.3c-0.7,0-1.3-0.2-1.7-0.6
			s-0.6-0.9-0.6-1.6c0-1.5,1.2-2.3,3.6-2.4l1.3,0v-0.5c0-0.6-0.1-1-0.4-1.3c-0.3-0.3-0.7-0.4-1.2-0.4c-0.6,0-1.3,0.2-2.1,0.6
			l-0.3-0.9c0.4-0.2,0.8-0.4,1.2-0.5s0.9-0.2,1.3-0.2c0.9,0,1.6,0.2,2,0.6s0.6,1,0.6,1.9v5.1H75.6z M73,51.3c0.7,0,1.3-0.2,1.7-0.6
			s0.6-0.9,0.6-1.6v-0.7l-1.1,0c-0.9,0-1.6,0.2-2,0.4c-0.4,0.2-0.6,0.6-0.6,1.2c0,0.4,0.1,0.7,0.4,0.9S72.6,51.3,73,51.3z"/>
		<path fill="#AAAAAA" d="M24.1,70.1l-1.2-3.2h-4l-1.2,3.2h-1.2l4-10h1l3.9,10H24.1z M22.5,65.8l-1.2-3.1c-0.2-0.4-0.3-0.9-0.5-1.4
			c-0.1,0.4-0.2,0.9-0.4,1.4l-1.2,3.1H22.5z"/>
		<path fill="#AAAAAA" d="M30,70.2c-0.5,0-0.9-0.1-1.3-0.3c-0.4-0.2-0.7-0.5-1-0.8h-0.1c0.1,0.4,0.1,0.9,0.1,1.2v3.1h-1.1V62.6h0.9
			l0.2,1h0.1c0.3-0.4,0.6-0.7,1-0.9s0.8-0.3,1.3-0.3c1,0,1.8,0.3,2.3,1c0.5,0.7,0.8,1.6,0.8,2.9c0,1.2-0.3,2.2-0.8,2.9
			C31.8,69.9,31,70.2,30,70.2z M29.9,63.4c-0.8,0-1.3,0.2-1.7,0.6s-0.5,1.1-0.5,2v0.3c0,1.1,0.2,1.8,0.5,2.3
			c0.4,0.5,0.9,0.7,1.7,0.7c0.6,0,1.2-0.3,1.5-0.8s0.6-1.2,0.6-2.2c0-0.9-0.2-1.7-0.6-2.1C31.1,63.6,30.5,63.4,29.9,63.4z"/>
		<path fill="#AAAAAA" d="M39,69l0.2-0.6l0.3-0.8l2-4.9H43v7.5h-1v-6.2l-0.1,0.4l-0.4,1l-1.9,4.7h-1l-1.9-4.8
			c-0.2-0.6-0.4-1.1-0.5-1.4v6.2h-1v-7.5h1.4l2,4.8C38.7,67.8,38.9,68.4,39,69z"/>
		<path fill="#AAAAAA" d="M48.6,70.2c-1.1,0-2-0.3-2.6-1s-1-1.6-1-2.8c0-1.2,0.3-2.2,0.9-2.9s1.4-1.1,2.4-1.1c0.9,0,1.7,0.3,2.2,0.9
			c0.5,0.6,0.8,1.4,0.8,2.4v0.7h-5.2c0,0.9,0.2,1.5,0.7,2s1,0.7,1.8,0.7c0.8,0,1.6-0.2,2.4-0.5v1c-0.4,0.2-0.8,0.3-1.1,0.4
			C49.5,70.2,49.1,70.2,48.6,70.2z M48.3,63.4c-0.6,0-1.1,0.2-1.4,0.6s-0.6,0.9-0.6,1.6h3.9c0-0.7-0.2-1.3-0.5-1.6
			C49.3,63.6,48.9,63.4,48.3,63.4z"/>
		<path fill="#AAAAAA" d="M54.4,62.6v3.1h4.2v-3.1h1.1v7.5h-1.1v-3.4h-4.2v3.4h-1.1v-7.5H54.4z"/>
		<path fill="#AAAAAA" d="M63.2,62.6v4.8l0,1.2l0,0.4l4.1-6.4h1.4v7.5h-1.1v-4.6l0-0.9l0-0.9l-4,6.4h-1.4v-7.5H63.2z"/>
		<path fill="#AAAAAA" d="M71.4,70.1h-1.3l2.2-3.2c-0.6-0.1-1-0.4-1.3-0.7c-0.3-0.4-0.5-0.8-0.5-1.4c0-0.7,0.2-1.2,0.7-1.6
			s1.1-0.6,1.9-0.6h3.3v7.5h-1.1v-3h-1.9L71.4,70.1z M71.5,64.8c0,0.9,0.6,1.3,1.9,1.3h1.8v-2.5h-2.1C72.1,63.6,71.5,64,71.5,64.8z"
			/>
	</g>
</g>
<g>
	<g>
		<polygon fill="#041944" stroke="#898989" stroke-linecap="round" stroke-linejoin="round" stroke-miterlimit="10" points="
			143.1,31.2 119.8,31.3 119.8,14.6 143.1,14.5 		"/>
		<g>
			<defs>
				<path id="XMLID_2213_" d="M143,14.5L143,14.5c0-2-1.1-3.9-3-4.8l-2.4-1.2C134.3,7,132,4,131.2,0.5v0l0,0.1
					c-0.7,3.5-3,6.5-6.2,8.1l-2.2,1.1c-1.7,0.9-2.9,2.6-2.9,4.6l0,0.3L143,14.5z"/>
			</defs>
			<use xlink:href="#XMLID_2213_"  overflow="visible" fill="#041944"/>
			<clipPath id="XMLID_2_">
				<use xlink:href="#XMLID_2213_"  overflow="visible"/>
			</clipPath>
			
				<circle clip-path="url(#XMLID_2_)" fill="#041944" stroke="#898989" stroke-linecap="round" stroke-linejoin="round" stroke-miterlimit="10" cx="133.3" cy="3.7" r="7.1"/>
			
				<use xlink:href="#XMLID_2213_"  overflow="visible" fill="none" stroke="#898989" stroke-linecap="round" stroke-linejoin="round" stroke-miterlimit="10"/>
		</g>
		<g>
			<path fill="#041944" stroke="#898989" stroke-linecap="round" stroke-linejoin="round" stroke-miterlimit="10" d="M125.6,26.9
				h-2.5v-7.1c0-0.9,0.6-1.7,1.2-1.7l0,0c0.7,0,1.2,0.8,1.2,1.7V26.9z"/>
			<path fill="#041944" stroke="#898989" stroke-linecap="round" stroke-linejoin="round" stroke-miterlimit="10" d="M130.4,26.9
				h-2.5v-7.1c0-0.9,0.6-1.7,1.2-1.7l0,0c0.7,0,1.2,0.8,1.2,1.7V26.9z"/>
			<path fill="#041944" stroke="#898989" stroke-linecap="round" stroke-linejoin="round" stroke-miterlimit="10" d="M135.2,26.9
				h-2.5v-7.1c0-0.9,0.6-1.7,1.2-1.7l0,0c0.7,0,1.2,0.8,1.2,1.7V26.9z"/>
			<path fill="#041944" stroke="#898989" stroke-linecap="round" stroke-linejoin="round" stroke-miterlimit="10" d="M140,26.9h-2.5
				v-7.1c0-0.9,0.6-1.7,1.2-1.7l0,0c0.7,0,1.2,0.8,1.2,1.7V26.9z"/>
		</g>
		<g>
			<defs>
				<rect id="XMLID_2212_" x="89.3" y="50.4" width="84.5" height="20.4"/>
			</defs>
			<use xlink:href="#XMLID_2212_"  overflow="visible" fill="#041944"/>
			<clipPath id="XMLID_3_">
				<use xlink:href="#XMLID_2212_"  overflow="visible"/>
			</clipPath>
			
				<line clip-path="url(#XMLID_3_)" fill="#041944" stroke="#898989" stroke-linecap="round" stroke-linejoin="round" stroke-miterlimit="10" x1="87.7" y1="63.7" x2="178.8" y2="63.7"/>
			
				<line clip-path="url(#XMLID_3_)" fill="#041944" stroke="#898989" stroke-linecap="round" stroke-linejoin="round" stroke-miterlimit="10" x1="87.9" y1="56.1" x2="180.6" y2="56.1"/>
			
				<rect x="155" y="49" clip-path="url(#XMLID_3_)" fill="#041944" stroke="#898989" stroke-linecap="round" stroke-linejoin="round" stroke-miterlimit="10" width="9.9" height="28"/>
			
				<rect x="99" y="48.9" clip-path="url(#XMLID_3_)" fill="#041944" stroke="#898989" stroke-linecap="round" stroke-linejoin="round" stroke-miterlimit="10" width="9.9" height="28"/>
			
				<path clip-path="url(#XMLID_3_)" fill="#041944" stroke="#898989" stroke-linecap="round" stroke-linejoin="round" stroke-miterlimit="10" d="
				M94,74.1L94,74.1c-1.3,0-2.4-1.1-2.4-2.4V56.1c0-1.3,1.1-2.4,2.4-2.4h0c1.3,0,2.4,1.1,2.4,2.4v15.6C96.4,73,95.3,74.1,94,74.1z"
				/>
			
				<path clip-path="url(#XMLID_3_)" fill="#041944" stroke="#898989" stroke-linecap="round" stroke-linejoin="round" stroke-miterlimit="10" d="
				M169.4,73.5L169.4,73.5c-1.3,0-2.4-1.1-2.4-2.4V55.5c0-1.3,1.1-2.4,2.4-2.4l0,0c1.3,0,2.4,1.1,2.4,2.4v15.6
				C171.8,72.4,170.7,73.5,169.4,73.5z"/>
			
				<use xlink:href="#XMLID_2212_"  overflow="visible" fill="none" stroke="#898989" stroke-linecap="round" stroke-linejoin="round" stroke-miterlimit="10"/>
		</g>
		<g>
			<defs>
				<path id="XMLID_2211_" d="M175.6,46.4l-1.8-1.1c-4.5-2.6-7.3-7.5-7.3-12.7v-2.4H151v4.9l-3-2c-2.8-1.8-4.6-4.9-4.7-8.3l0-0.3
					l-23.4,0.1v0c-0.1,3.4-1.8,6.5-4.6,8.3l-2.7,1.8v-4.7H96.9v2.1c0,5.5-3.1,10.6-8,13.1l0,0l-1.8,0.9H175.6z"/>
			</defs>
			<use xlink:href="#XMLID_2211_"  overflow="visible" fill="#041944"/>
			<clipPath id="XMLID_4_">
				<use xlink:href="#XMLID_2211_"  overflow="visible"/>
			</clipPath>
			
				<rect x="116.3" y="23.7" clip-path="url(#XMLID_4_)" fill="#041944" stroke="#898989" stroke-linecap="round" stroke-linejoin="round" stroke-miterlimit="10" width="30.9" height="3.9"/>
			
				<use xlink:href="#XMLID_2211_"  overflow="visible" fill="none" stroke="#898989" stroke-linecap="round" stroke-linejoin="round" stroke-miterlimit="10"/>
		</g>
		<g>
			<defs>
				<path id="XMLID_2210_" d="M112.7,30.9L112.7,30.9c0-1.5-0.6-2.9-1.7-3.8l-4.3-3.6c-0.9-0.7-1.6-1.7-2.1-2.8l0,0l-0.3,0.5
					c-0.4,0.8-1,1.5-1.7,2.1l-4.4,3.8c-1,0.9-1.6,2.2-1.6,3.6l0,0.3L112.7,30.9z"/>
			</defs>
			<use xlink:href="#XMLID_2210_"  overflow="visible" fill="#041944"/>
			<clipPath id="XMLID_5_">
				<use xlink:href="#XMLID_2210_"  overflow="visible"/>
			</clipPath>
			
				<circle clip-path="url(#XMLID_5_)" fill="#041944" stroke="#898989" stroke-linecap="round" stroke-linejoin="round" stroke-miterlimit="10" cx="106.7" cy="22.1" r="5.9"/>
			
				<use xlink:href="#XMLID_2210_"  overflow="visible" fill="none" stroke="#898989" stroke-linecap="round" stroke-linejoin="round" stroke-miterlimit="10"/>
		</g>
		<g>
			<defs>
				<path id="XMLID_2209_" d="M166.3,30.7L166.3,30.7c0-2.1-1-4-2.6-5l-1.6-1c-1.8-1.6-3.1-3.8-3.6-6.3l0-0.1v0
					c-0.5,2.6-1.7,4.9-3.6,6.6l-1.4,0.9c-1.5,1-2.5,2.8-2.5,4.8l0,0.2L166.3,30.7z"/>
			</defs>
			<use xlink:href="#XMLID_2209_"  overflow="visible" fill="#041944"/>
			<clipPath id="XMLID_6_">
				<use xlink:href="#XMLID_2209_"  overflow="visible"/>
			</clipPath>
			
				<ellipse clip-path="url(#XMLID_6_)" fill="#041944" stroke="#898989" stroke-linecap="round" stroke-linejoin="round" stroke-miterlimit="10" cx="161.9" cy="22.7" rx="7.4" ry="7.5"/>
			
				<use xlink:href="#XMLID_2209_"  overflow="visible" fill="none" stroke="#898989" stroke-linecap="round" stroke-linejoin="round" stroke-miterlimit="10"/>
		</g>
		<path fill="#041944" stroke="#898989" stroke-linecap="round" stroke-linejoin="round" stroke-miterlimit="10" d="M105.5,39.7H103
			v-4.2c0-0.6,0.6-1,1.3-1h0c0.7,0,1.3,0.5,1.3,1V39.7z"/>
		<path fill="#041944" stroke="#898989" stroke-linecap="round" stroke-linejoin="round" stroke-miterlimit="10" d="M160.1,39.4
			h-2.5v-4.2c0-0.6,0.6-1,1.3-1l0,0c0.7,0,1.3,0.5,1.3,1V39.4z"/>
		<g>
			<defs>
				<rect id="XMLID_2208_" x="113.1" y="46" width="37.2" height="24.7"/>
			</defs>
			<use xlink:href="#XMLID_2208_"  overflow="visible" fill="#041944"/>
			<clipPath id="XMLID_7_">
				<use xlink:href="#XMLID_2208_"  overflow="visible"/>
			</clipPath>
			
				<use xlink:href="#XMLID_2208_"  overflow="visible" fill="none" stroke="#898989" stroke-linecap="round" stroke-linejoin="round" stroke-miterlimit="10"/>
		</g>
		<g>
			
				<rect x="129.2" y="37.2" fill="#041944" stroke="#898989" stroke-linecap="round" stroke-linejoin="round" stroke-miterlimit="10" width="5.3" height="4"/>
			
				<rect x="123.5" y="39.6" fill="#041944" stroke="#898989" stroke-linecap="round" stroke-linejoin="round" stroke-miterlimit="10" width="16.8" height="31.2"/>
		</g>
		<path fill="#041944" stroke="#898989" stroke-linecap="round" stroke-linejoin="round" stroke-miterlimit="10" d="M120.1,70.8h-4
			v-6.5c0-0.9,0.9-1.6,2-1.6h0c1.1,0,2,0.7,2,1.6V70.8z"/>
		<path fill="#041944" stroke="#898989" stroke-linecap="round" stroke-linejoin="round" stroke-miterlimit="10" d="M147.3,70.8h-4
			v-6.5c0-0.9,0.9-1.6,2-1.6l0,0c1.1,0,2,0.7,2,1.6V70.8z"/>
		<g>
			<path fill="#041944" stroke="#898989" stroke-linecap="round" stroke-linejoin="round" stroke-miterlimit="10" d="M131,45.7h-3.4
				v-4.9c0-0.7,0.8-1.2,1.7-1.2l0,0c0.9,0,1.7,0.5,1.7,1.2V45.7z"/>
			<path fill="#041944" stroke="#898989" stroke-linecap="round" stroke-linejoin="round" stroke-miterlimit="10" d="M136.6,45.7
				h-3.4v-4.9c0-0.7,0.8-1.2,1.7-1.2l0,0c0.9,0,1.7,0.5,1.7,1.2V45.7z"/>
		</g>
		<path fill="#041944" stroke="#898989" stroke-linecap="round" stroke-linejoin="round" stroke-miterlimit="10" d="M135.6,70.8
			h-7.4V59.8c0-2,1.6-3.7,3.7-3.7l0,0c2,0,3.7,1.6,3.7,3.7V70.8z"/>
		<polygon fill="#041944" stroke="#898989" stroke-linecap="round" stroke-linejoin="round" stroke-miterlimit="10" points="
			112.8,48.2 86.4,48.2 86.9,45.7 112.8,45.7 		"/>
		<polygon fill="#041944" stroke="#898989" stroke-linecap="round" stroke-linejoin="round" stroke-miterlimit="10" points="
			176.9,48.2 150.5,48.2 150.5,45.7 175.9,45.7 		"/>
	</g>
	<path fill="#041944" stroke="#898989" stroke-linecap="round" stroke-linejoin="round" stroke-miterlimit="10" d="M179.4,73.9H88.9
		v-4.4h82.8C174.8,69.6,177.8,71.2,179.4,73.9L179.4,73.9z"/>
</g>
<g>
	<path fill="#041944" stroke="#898989" stroke-width="3" stroke-linejoin="round" stroke-miterlimit="10" d="M227.5,33.7
		c10.3,3.4,15.9,14.4,12.6,24.6s-14.5,15.8-24.8,12.4c-10.3-3.4-15.9-14.4-12.6-24.6S217.2,30.3,227.5,33.7z"/>
	<g>
		<defs>
			<path id="XMLID_2099_" d="M225.6,39.4c7.1,2.3,10.9,9.9,8.6,17c-2.3,7.1-9.9,10.9-17,8.6c-7.1-2.3-10.9-9.9-8.6-17
				C210.9,40.9,218.5,37.1,225.6,39.4z"/>
		</defs>
		<use xlink:href="#XMLID_2099_"  overflow="visible" fill="#041944"/>
		<clipPath id="XMLID_8_">
			<use xlink:href="#XMLID_2099_"  overflow="visible"/>
		</clipPath>
		<g id="XMLID_2100_" clip-path="url(#XMLID_8_)">
			<defs>
				<rect id="XMLID_2101_" x="202.4" y="37.9" width="39.6" height="28.3"/>
			</defs>
			<use xlink:href="#XMLID_2101_"  overflow="visible" fill="#E4B86B"/>
			<clipPath id="XMLID_9_">
				<use xlink:href="#XMLID_2101_"  overflow="visible"/>
			</clipPath>
			<rect id="XMLID_2103_" x="196.5" y="47.4" clip-path="url(#XMLID_9_)" fill="#0033A0" width="49.1" height="10"/>
			<rect id="XMLID_2102_" x="197.6" y="37.9" clip-path="url(#XMLID_9_)" fill="#AE3C25" width="45.9" height="10"/>
		</g>
		
			<use xlink:href="#XMLID_2099_"  overflow="visible" fill="none" stroke="#898989" stroke-linejoin="round" stroke-miterlimit="10"/>
	</g>
</g>
<g>
	<circle fill="#041944" stroke="#898989" stroke-linejoin="round" stroke-miterlimit="10" cx="206.6" cy="68" r="2.9"/>
</g>
<g>
	<circle fill="#041944" stroke="#898989" stroke-linejoin="round" stroke-miterlimit="10" cx="132.7" cy="84.1" r="2.9"/>
</g>
</svg>
