<?xml version="1.0" encoding="utf-8"?>
<!-- Generator: Adobe Illustrator 18.1.1, SVG Export Plug-In . SVG Version: 6.00 Build 0)  -->
<!DOCTYPE svg PUBLIC "-//W3C//DTD SVG 1.1//EN" "http://www.w3.org/Graphics/SVG/1.1/DTD/svg11.dtd" [
	<!ENTITY ns_extend "http://ns.adobe.com/Extensibility/1.0/">
	<!ENTITY ns_ai "http://ns.adobe.com/AdobeIllustrator/10.0/">
	<!ENTITY ns_graphs "http://ns.adobe.com/Graphs/1.0/">
	<!ENTITY ns_vars "http://ns.adobe.com/Variables/1.0/">
	<!ENTITY ns_imrep "http://ns.adobe.com/ImageReplacement/1.0/">
	<!ENTITY ns_sfw "http://ns.adobe.com/SaveForWeb/1.0/">
	<!ENTITY ns_custom "http://ns.adobe.com/GenericCustomNamespace/1.0/">
	<!ENTITY ns_adobe_xpath "http://ns.adobe.com/XPath/1.0/">
]>
<svg version="1.1" id="Layer_1" xmlns:x="&ns_extend;" xmlns:i="&ns_ai;" xmlns:graph="&ns_graphs;"
	 xmlns="http://www.w3.org/2000/svg" xmlns:xlink="http://www.w3.org/1999/xlink" x="0px" y="0px" viewBox="0 0 250.8 146.1"
	 enable-background="new 0 0 250.8 146.1" xml:space="preserve">
<metadata>
	<sfw  xmlns="&ns_sfw;">
		<slices></slices>
		<sliceSourceBounds  width="223.6" height="146.1" x="549.5" y="-448.5" bottomLeftOrigin="true"></sliceSourceBounds>
	</sfw>
</metadata>
<g>
	<g>
		<path fill="#B5935B" d="M152.4,83.7H151l-4.6-5.1v5.1h-1.2v-10h1.2v4.8l4.5-4.8h1.3l-4.4,4.9L152.4,83.7z"/>
		<path fill="#B5935B" d="M154.7,79.3h2c1,0,1.7,0.2,2.1,0.5c0.5,0.4,0.7,0.9,0.7,1.6c0,0.8-0.2,1.3-0.7,1.7
			c-0.5,0.4-1.2,0.6-2.1,0.6h-3.1v-7.5h1.1V79.3z M154.7,80.3v2.5h1.9c1.2,0,1.8-0.4,1.8-1.3c0-0.4-0.1-0.7-0.4-0.9
			c-0.3-0.2-0.8-0.3-1.4-0.3H154.7z M162,83.7h-1.1v-7.5h1.1V83.7z"/>
		<path fill="#B5935B" d="M167.9,83.9c-0.5,0-0.9-0.1-1.3-0.3c-0.4-0.2-0.7-0.5-1-0.8h-0.1c0.1,0.4,0.1,0.9,0.1,1.2v3.1h-1.1V76.2
			h0.9l0.2,1h0.1c0.3-0.4,0.6-0.7,1-0.9c0.4-0.2,0.8-0.3,1.3-0.3c1,0,1.8,0.3,2.3,1s0.8,1.6,0.8,2.9c0,1.2-0.3,2.2-0.8,2.9
			C169.6,83.5,168.8,83.9,167.9,83.9z M167.7,77.1c-0.8,0-1.3,0.2-1.7,0.6s-0.5,1.1-0.5,2V80c0,1.1,0.2,1.8,0.5,2.3
			c0.4,0.5,0.9,0.7,1.7,0.7c0.6,0,1.2-0.3,1.5-0.8s0.5-1.2,0.5-2.2c0-0.9-0.2-1.7-0.5-2.1C168.9,77.3,168.4,77.1,167.7,77.1z"/>
		<path fill="#B5935B" d="M177.5,77.2h-3.4v6.5H173v-7.5h4.5V77.2z"/>
		<path fill="#B5935B" d="M180.1,79.3h2c1,0,1.7,0.2,2.1,0.5c0.5,0.4,0.7,0.9,0.7,1.6c0,0.8-0.2,1.3-0.7,1.7
			c-0.5,0.4-1.2,0.6-2.1,0.6H179v-7.5h1.1V79.3z M180.1,80.3v2.5h1.9c1.2,0,1.8-0.4,1.8-1.3c0-0.4-0.1-0.7-0.4-0.9
			c-0.3-0.2-0.8-0.3-1.4-0.3H180.1z M187.3,83.7h-1.1v-7.5h1.1V83.7z"/>
		<path fill="#B5935B" d="M191.2,79.3c1.4,0,2.1-0.4,2.1-1.2c0-0.7-0.6-1.1-1.7-1.1c-0.4,0-0.7,0-1,0.1s-0.7,0.2-1.1,0.4l-0.4-0.9
			c0.8-0.3,1.6-0.5,2.5-0.5c0.9,0,1.5,0.2,2,0.5c0.5,0.4,0.7,0.8,0.7,1.4c0,0.8-0.5,1.4-1.4,1.6v0.1c0.6,0.2,1,0.4,1.3,0.7
			c0.3,0.3,0.4,0.7,0.4,1.2c0,0.7-0.3,1.2-0.8,1.6c-0.6,0.4-1.3,0.6-2.3,0.6c-1.1,0-1.9-0.2-2.5-0.5v-1c0.8,0.4,1.7,0.6,2.5,0.6
			c0.7,0,1.2-0.1,1.5-0.3c0.3-0.2,0.5-0.5,0.5-1c0-0.9-0.7-1.3-2.1-1.3h-1v-1H191.2z"/>
		<path fill="#B5935B" d="M199.5,83.9c-1.1,0-1.9-0.3-2.5-1c-0.6-0.7-0.9-1.6-0.9-2.8c0-1.3,0.3-2.2,0.9-2.9s1.5-1,2.6-1
			c0.4,0,0.7,0,1.1,0.1c0.4,0.1,0.6,0.2,0.8,0.3l-0.3,1c-0.3-0.1-0.5-0.2-0.8-0.3c-0.3-0.1-0.6-0.1-0.8-0.1c-1.5,0-2.3,1-2.3,2.9
			c0,0.9,0.2,1.6,0.6,2.1s0.9,0.7,1.7,0.7c0.6,0,1.3-0.1,1.9-0.4v1C200.9,83.7,200.3,83.9,199.5,83.9z"/>
		<path fill="#B5935B" d="M207.5,76.2h1.2l-3.2,3.6l3.5,3.9h-1.3l-3.4-3.8v3.8h-1.1v-7.5h1.1v3.6L207.5,76.2z"/>
		<path fill="#B5935B" d="M215,83.7l-0.2-1.1h-0.1c-0.4,0.5-0.7,0.8-1.1,1c-0.4,0.2-0.8,0.3-1.4,0.3c-0.7,0-1.3-0.2-1.7-0.6
			s-0.6-0.9-0.6-1.6c0-1.5,1.2-2.3,3.6-2.4l1.3,0v-0.5c0-0.6-0.1-1-0.4-1.3c-0.3-0.3-0.7-0.4-1.2-0.4c-0.6,0-1.3,0.2-2.1,0.6
			l-0.3-0.9c0.4-0.2,0.8-0.4,1.2-0.5s0.9-0.2,1.3-0.2c0.9,0,1.6,0.2,2,0.6s0.6,1,0.6,1.9v5.1H215z M212.5,82.9
			c0.7,0,1.3-0.2,1.7-0.6s0.6-0.9,0.6-1.6V80l-1.1,0c-0.9,0-1.6,0.2-2,0.4c-0.4,0.2-0.6,0.6-0.6,1.2c0,0.4,0.1,0.7,0.4,0.9
			S212,82.9,212.5,82.9z"/>
		<path fill="#B5935B" d="M218.6,83.7h-1.3l2.2-3.2c-0.6-0.1-1-0.4-1.3-0.7c-0.3-0.4-0.5-0.8-0.5-1.4c0-0.7,0.2-1.2,0.7-1.6
			c0.5-0.4,1.1-0.6,1.9-0.6h3.3v7.5h-1.1v-3h-1.9L218.6,83.7z M218.7,78.4c0,0.9,0.6,1.3,1.9,1.3h1.8v-2.5h-2.1
			C219.3,77.2,218.7,77.6,218.7,78.4z"/>
		<path fill="#B5935B" d="M151.5,94.6c0,1-0.3,1.8-1,2.3c-0.7,0.5-1.7,0.8-3,0.8h-1.2v3.9h-1.2v-10h2.6
			C150.3,91.7,151.5,92.7,151.5,94.6z M146.4,96.8h1c1,0,1.8-0.2,2.2-0.5c0.5-0.3,0.7-0.9,0.7-1.6c0-0.7-0.2-1.2-0.7-1.5
			c-0.4-0.3-1.1-0.5-2-0.5h-1.3V96.8z"/>
		<path fill="#B5935B" d="M156.6,101.9c-1.1,0-2-0.3-2.6-1s-1-1.6-1-2.8c0-1.2,0.3-2.2,0.9-2.9s1.4-1.1,2.4-1.1
			c0.9,0,1.7,0.3,2.2,0.9c0.5,0.6,0.8,1.4,0.8,2.4v0.7h-5.2c0,0.9,0.2,1.5,0.7,2s1,0.7,1.8,0.7c0.8,0,1.6-0.2,2.4-0.5v1
			c-0.4,0.2-0.8,0.3-1.1,0.4C157.6,101.8,157.1,101.9,156.6,101.9z M156.3,95c-0.6,0-1.1,0.2-1.4,0.6s-0.6,0.9-0.6,1.6h3.9
			c0-0.7-0.2-1.3-0.5-1.6C157.4,95.2,156.9,95,156.3,95z"/>
		<path fill="#B5935B" d="M164.3,101.9c-1.1,0-1.9-0.3-2.5-1c-0.6-0.7-0.9-1.6-0.9-2.8c0-1.3,0.3-2.2,0.9-2.9s1.5-1,2.6-1
			c0.4,0,0.7,0,1.1,0.1c0.4,0.1,0.6,0.2,0.8,0.3l-0.3,1c-0.3-0.1-0.5-0.2-0.8-0.3c-0.3-0.1-0.6-0.1-0.8-0.1c-1.5,0-2.3,1-2.3,2.9
			c0,0.9,0.2,1.6,0.6,2.1s0.9,0.7,1.7,0.7c0.6,0,1.3-0.1,1.9-0.4v1C165.7,101.7,165.1,101.9,164.3,101.9z"/>
		<path fill="#B5935B" d="M169.1,101.7H168v-7.5h6.3v7.5h-1.1v-6.5h-4V101.7z"/>
		<path fill="#B5935B" d="M175.5,94.2h1.2l1.6,4.3c0.4,1,0.6,1.7,0.7,2.1h0.1c0.1-0.2,0.2-0.6,0.4-1.2c0.2-0.6,0.8-2.3,1.9-5.2h1.2
			l-3.2,8.5c-0.3,0.8-0.7,1.4-1.1,1.8c-0.4,0.4-0.9,0.5-1.6,0.5c-0.3,0-0.7,0-1-0.1v-0.9c0.3,0.1,0.5,0.1,0.8,0.1
			c0.8,0,1.3-0.4,1.7-1.3l0.4-1.1L175.5,94.2z"/>
		<path fill="#B5935B" d="M183.3,97.2c0-1.6,0.2-2.9,0.7-3.8c0.5-0.9,1.2-1.5,2.3-1.7c1.3-0.3,2.5-0.5,3.4-0.7l0.2,1
			c-1.6,0.3-2.7,0.5-3.4,0.6c-0.7,0.2-1.2,0.5-1.5,1.1s-0.5,1.3-0.5,2.3h0.1c0.3-0.4,0.6-0.7,1.1-0.9c0.4-0.2,0.9-0.3,1.4-0.3
			c0.9,0,1.6,0.3,2.2,0.9c0.5,0.6,0.8,1.4,0.8,2.5c0,1.2-0.3,2.1-0.9,2.7c-0.6,0.7-1.4,1-2.5,1c-1.1,0-1.9-0.4-2.5-1.2
			C183.6,99.8,183.3,98.7,183.3,97.2z M186.8,100.9c1.4,0,2.1-0.9,2.1-2.7c0-1.7-0.6-2.5-1.9-2.5c-0.3,0-0.7,0.1-1,0.2
			c-0.3,0.1-0.6,0.3-0.9,0.6s-0.5,0.5-0.6,0.7c0,1.2,0.2,2.1,0.6,2.7C185.5,100.6,186,100.9,186.8,100.9z"/>
		<path fill="#B5935B" d="M197.7,101.7h-1.1v-6.5h-2.2c-0.1,1.6-0.3,2.9-0.5,3.9s-0.5,1.6-0.9,2.1s-0.8,0.7-1.3,0.7
			c-0.2,0-0.4,0-0.6-0.1v-0.8c0.1,0,0.2,0,0.3,0c0.5,0,0.9-0.6,1.3-1.7c0.3-1.1,0.5-2.8,0.7-5h4.4V101.7z"/>
		<path fill="#B5935B" d="M201.1,94.2V99l0,1.2l0,0.4l4.1-6.4h1.4v7.5h-1.1v-4.6l0-0.9l0-0.9l-4,6.4h-1.4v-7.5H201.1z"/>
		<path fill="#B5935B" d="M213.3,94.2h1.2l-3.2,3.6l3.5,3.9h-1.3l-3.4-3.8v3.8h-1.1v-7.5h1.1v3.6L213.3,94.2z"/>
		<path fill="#B5935B" d="M220.8,101.7l-0.2-1.1h-0.1c-0.4,0.5-0.7,0.8-1.1,1c-0.4,0.2-0.8,0.3-1.4,0.3c-0.7,0-1.3-0.2-1.7-0.6
			s-0.6-0.9-0.6-1.6c0-1.5,1.2-2.3,3.6-2.4l1.3,0v-0.5c0-0.6-0.1-1-0.4-1.3c-0.3-0.3-0.7-0.4-1.2-0.4c-0.6,0-1.3,0.2-2.1,0.6
			l-0.3-0.9c0.4-0.2,0.8-0.4,1.2-0.5s0.9-0.2,1.3-0.2c0.9,0,1.6,0.2,2,0.6s0.6,1,0.6,1.9v5.1H220.8z M218.3,100.9
			c0.7,0,1.3-0.2,1.7-0.6s0.6-0.9,0.6-1.6V98l-1.1,0c-0.9,0-1.6,0.2-2,0.4c-0.4,0.2-0.6,0.6-0.6,1.2c0,0.4,0.1,0.7,0.4,0.9
			S217.8,100.9,218.3,100.9z"/>
	</g>
</g>
<g>
	<rect x="105.2" y="99.4" fill="#041944" stroke="#B5935B" stroke-miterlimit="10" width="9.3" height="11.1"/>
	<g>
		<rect x="108.2" y="30" fill="#041944" stroke="#B5935B" stroke-miterlimit="10" width="3.7" height="72.3"/>
		<g>
			<defs>
				<path id="XMLID_5856_" d="M102.6,24.2c0.4,0,6.5-22.3,6.5-22.3l6.1,22.6L102.6,24.2z"/>
			</defs>
			<use xlink:href="#XMLID_5856_"  overflow="visible" fill="#041944"/>
			<clipPath id="XMLID_2_">
				<use xlink:href="#XMLID_5856_"  overflow="visible"/>
			</clipPath>
			
				<line clip-path="url(#XMLID_2_)" fill="#041944" stroke="#B5935B" stroke-miterlimit="10" x1="101.8" y1="19.1" x2="118.8" y2="19.1"/>
			
				<line clip-path="url(#XMLID_2_)" fill="#041944" stroke="#B5935B" stroke-miterlimit="10" x1="102.7" y1="16.6" x2="128.4" y2="16.6"/>
			<use xlink:href="#XMLID_5856_"  overflow="visible" fill="none" stroke="#B5935B" stroke-miterlimit="10"/>
		</g>
		<g>
			<defs>
				<path id="XMLID_5855_" d="M104.7,23.6l8.6-0.1c2.9,0,5.3,2.2,5.6,5.1l6.3,75.1l-5.5,0.1l-5.1-66.4c-0.2-2.7-2.5-4.8-5.2-4.8h0
					c-2.7,0-5,2.1-5.2,4.8L99.8,103l-6.1-0.1l5.6-74.1C99.4,25.8,101.8,23.6,104.7,23.6z"/>
			</defs>
			<use xlink:href="#XMLID_5855_"  overflow="visible" fill="#041944"/>
			<clipPath id="XMLID_3_">
				<use xlink:href="#XMLID_5855_"  overflow="visible"/>
			</clipPath>
			<path clip-path="url(#XMLID_3_)" fill="#041944" stroke="#B5935B" stroke-miterlimit="10" d="M121,103.2l-4.5-65.6
				c-0.2-2.5-1.6-4.6-3.6-5.7c-0.5-0.3-0.8-0.8-0.9-1.3c0-0.3-0.1-0.5-0.1-0.8c-0.1-0.9-0.9-1.6-1.8-1.6h-0.4c-1,0-1.8,0.8-1.8,1.8
				v0c0,0.7-0.5,1.4-1.1,1.7c-2.3,1-3.9,3.2-4.1,5.9l-4.9,65.9"/>
			<use xlink:href="#XMLID_5855_"  overflow="visible" fill="none" stroke="#B5935B" stroke-miterlimit="10"/>
		</g>
		<polygon fill="#041944" stroke="#B5935B" stroke-miterlimit="10" points="102.1,43.2 116.8,43.2 117,45.5 102.1,45.8 		"/>
		<rect x="100.9" y="41.3" fill="#041944" stroke="#B5935B" stroke-miterlimit="10" width="16.9" height="1.8"/>
		<rect x="104.9" y="85.5" fill="#041944" stroke="#B5935B" stroke-miterlimit="10" width="10" height="6.3"/>
		<path fill="#041944" stroke="#B5935B" stroke-miterlimit="10" d="M123.8,88.7l-2.8,0c-2.1,0-3.9-1.5-4.1-3.6l-0.3-2.9h5.4
			c0.9,0,1.7,0.7,1.9,1.6v0c0.1,0.6,0.6,1,1.1,1l0,0c0.6,0,1.1,0.5,1.1,1l1.3,14.3l-2.6,0L123.8,88.7z"/>
		<path fill="#041944" stroke="#B5935B" stroke-miterlimit="10" d="M97.8,88.3l-1.4,0c-1,0-1.9,0.8-2,1.8l-0.5,10l-2.2,0.1l1-13.8
			c0.1-1,0.9-1.8,1.9-1.8l0,0v0c0.2-1.4,1.4-2.4,2.8-2.4h5.5l-0.2,1.8C102.4,86.5,100.3,88.3,97.8,88.3z"/>
		<path fill="#041944" stroke="#B5935B" stroke-miterlimit="10" d="M102.7,104.5H91.2l0.3-4l7,0
			C100.9,100.4,102.7,102.2,102.7,104.5L102.7,104.5z"/>
		<path fill="#041944" stroke="#B5935B" stroke-miterlimit="10" d="M128.2,103.7h-11.5v0c0-2.2,1.8-4.1,4.1-4.1l6.9,0L128.2,103.7z"
			/>
		<g>
			<defs>
				<path id="XMLID_5854_" d="M133.7,111.1H84.8l0.8-2.4c0.9-2.9,3.6-4.8,6.6-4.8h13l0.4,1.9c0.5,2,2.3,3.4,4.3,3.4h0
					c2.1,0,3.9-1.5,4.3-3.5l0.4-1.8h11.9c3.3,0,6.1,2.3,6.8,5.5L133.7,111.1z"/>
			</defs>
			<use xlink:href="#XMLID_5854_"  overflow="visible" fill="#041944"/>
			<clipPath id="XMLID_4_">
				<use xlink:href="#XMLID_5854_"  overflow="visible"/>
			</clipPath>
			<circle clip-path="url(#XMLID_4_)" fill="#041944" stroke="#B5935B" stroke-miterlimit="10" cx="126.2" cy="104.4" r="7.8"/>
			<use xlink:href="#XMLID_5854_"  overflow="visible" fill="none" stroke="#B5935B" stroke-miterlimit="10"/>
		</g>
	</g>
	<circle fill="#041944" stroke="#B5935B" stroke-miterlimit="10" cx="109.9" cy="88.6" r="1.3"/>
	<path fill="#041944" stroke="#B5935B" stroke-miterlimit="10" d="M135.8,113.7H81.9l0,0c0-2.2,1.8-3.9,3.9-3.9h46.1
		C134.1,109.8,135.8,111.5,135.8,113.7L135.8,113.7z"/>
</g>
<line fill="none" stroke="#B5935B" stroke-linejoin="round" stroke-miterlimit="10" x1="20.9" y1="125.1" x2="110.5" y2="125.1"/>
<g>
	<path fill="#041944" stroke="#B5935B" stroke-width="3" stroke-linejoin="round" stroke-miterlimit="10" d="M27.3,106.6
		c10.3,3.4,15.9,14.4,12.6,24.6c-3.4,10.2-14.5,15.8-24.8,12.4S-0.9,129.3,2.5,119S16.9,103.2,27.3,106.6z"/>
	<g>
		<defs>
			<path id="XMLID_5828_" d="M25.4,112.3c7.1,2.3,10.9,9.9,8.6,17c-2.3,7.1-9.9,10.9-17,8.6S6,128,8.3,120.9
				C10.7,113.8,18.3,110,25.4,112.3z"/>
		</defs>
		<use xlink:href="#XMLID_5828_"  overflow="visible" fill="#041944"/>
		<clipPath id="XMLID_5_">
			<use xlink:href="#XMLID_5828_"  overflow="visible"/>
		</clipPath>
		<g id="XMLID_5829_" clip-path="url(#XMLID_5_)">
			<g id="XMLID_5852_">
				<defs>
					<rect id="XMLID_5853_" x="0.1" y="110.5" width="41.7" height="29.9"/>
				</defs>
				<use xlink:href="#XMLID_5853_"  overflow="visible" fill="#EA2030"/>
				<clipPath id="XMLID_6_">
					<use xlink:href="#XMLID_5853_"  overflow="visible"/>
				</clipPath>
			</g>
			<g id="XMLID_5830_">
				<g id="XMLID_5850_">
					<path id="XMLID_5851_" fill="#FDDF14" d="M21.3,120.1c0-0.9,0.8-1.6,0.9-2.8c0.6,0.7-0.4,2.1,0,3c0.2-0.9,1.1-1.4,1.3-2.6
						c0.5,0.8-0.7,2.1-0.5,2.9c0.3-0.9,1.3-1.2,1.7-2.4c0.3,0.9-1,1.9-1,2.8c0.4-0.8,1.5-1,2.1-2.1c0.2,0.9-1.3,1.7-1.4,2.6
						c0.6-0.7,1.6-0.8,2.4-1.8c0,1-1.6,1.5-1.8,2.4c0.7-0.7,1.7-0.5,2.6-1.4c-0.1,0.9-1.8,1.2-2.1,2.1c0.8-0.5,1.8-0.2,2.8-1
						c-0.3,0.9-2,0.9-2.4,1.7c0.8-0.4,1.8,0,2.9-0.5c-0.4,0.9-2.1,0.6-2.6,1.3c0.9-0.3,1.8,0.3,3,0c-0.5,0.8-2.2,0.3-2.8,0.9
						c0.9-0.1,1.7,0.6,2.9,0.4c-0.6,0.7-2.2,0-2.9,0.4c0.9,0,1.6,0.8,2.8,0.9c-0.7,0.6-2.1-0.4-3,0c0.9,0.2,1.4,1.1,2.6,1.3
						c-0.8,0.5-2.1-0.7-2.9-0.5c0.9,0.3,1.2,1.3,2.4,1.7c-0.9,0.3-1.9-1-2.8-1c0.8,0.4,1,1.5,2.1,2.1c-0.9,0.2-1.7-1.3-2.6-1.4
						c0.7,0.6,0.8,1.6,1.8,2.4c-1,0-1.5-1.6-2.4-1.8c0.7,0.7,0.5,1.7,1.4,2.6c-0.9-0.1-1.2-1.8-2.1-2.1c0.5,0.8,0.2,1.8,1,2.8
						c-0.9-0.3-0.9-2-1.7-2.4c0.4,0.8,0,1.8,0.5,2.9c-0.9-0.4-0.6-2.1-1.3-2.6c0.3,0.9-0.3,1.8,0,3c-0.8-0.5-0.3-2.2-0.9-2.8
						c0.1,0.9-0.6,1.7-0.4,2.9c-0.7-0.6,0-2.2-0.4-2.9c0,0.9-0.8,1.6-0.9,2.8c-0.6-0.7,0.4-2.1,0-3c-0.2,0.9-1.1,1.4-1.3,2.6
						c-0.5-0.8,0.7-2.1,0.5-2.9c-0.3,0.9-1.3,1.2-1.7,2.4c-0.3-0.9,1-1.9,1-2.8c-0.4,0.8-1.5,1-2.1,2.1c-0.2-0.9,1.3-1.7,1.4-2.6
						c-0.6,0.7-1.6,0.8-2.4,1.8c0-1,1.6-1.5,1.8-2.4c-0.7,0.7-1.7,0.5-2.6,1.4c0.1-0.9,1.8-1.2,2.1-2.1c-0.8,0.5-1.8,0.2-2.8,1
						c0.3-0.9,2-0.9,2.4-1.7c-0.8,0.4-1.8,0-2.9,0.5c0.4-0.9,2.1-0.6,2.6-1.3c-0.9,0.3-1.8-0.3-3,0c0.5-0.8,2.2-0.3,2.8-0.9
						c-0.9,0.1-1.7-0.6-2.9-0.4c0.6-0.7,2.2,0,2.9-0.4c-0.9,0-1.6-0.8-2.8-0.9c0.7-0.6,2.1,0.4,3,0c-0.9-0.2-1.4-1.1-2.6-1.3
						c0.8-0.5,2.1,0.7,2.9,0.5c-0.9-0.3-1.2-1.3-2.4-1.7c0.9-0.3,1.9,1,2.8,1c-0.8-0.4-1-1.5-2.1-2.1c0.9-0.2,1.7,1.3,2.6,1.4
						c-0.7-0.6-0.8-1.6-1.8-2.4c1,0,1.5,1.6,2.4,1.8c-0.7-0.7-0.5-1.7-1.4-2.6c0.9,0.1,1.2,1.8,2.1,2.1c-0.5-0.8-0.2-1.8-1-2.8
						c0.9,0.3,0.9,2,1.7,2.4c-0.4-0.8,0-1.8-0.5-2.9c0.9,0.4,0.6,2.1,1.3,2.6c-0.3-0.9,0.3-1.8,0-3c0.8,0.5,0.3,2.2,0.9,2.8
						c-0.1-0.9,0.6-1.7,0.4-2.9C21.6,117.8,20.9,119.3,21.3,120.1z"/>
				</g>
				<circle id="XMLID_5849_" fill="#EA2030" cx="20.9" cy="125.5" r="4.4"/>
				<g id="XMLID_5831_">
					<g id="XMLID_5832_">
						<path id="XMLID_5848_" fill="#FDDF14" d="M20.9,121.6c1.1,0,2.1,0.5,2.8,1.2c-1.1,0.1-2,0.4-2.8,0.8c-0.8-0.4-1.7-0.7-2.8-0.8
							C18.8,122.1,19.8,121.6,20.9,121.6z"/>
						<path id="XMLID_5847_" fill="#FDDF14" d="M20.6,123.8c-0.1,0-0.2,0.1-0.3,0.2c-0.7-0.4-1.6-0.6-2.6-0.7c0-0.1,0.1-0.1,0.1-0.2
							C19,123.2,19.9,123.4,20.6,123.8z"/>
						<path id="XMLID_5846_" fill="#FDDF14" d="M21.2,123.8c0.1,0,0.2,0.1,0.3,0.2c0.7-0.4,1.6-0.6,2.6-0.7c0-0.1-0.1-0.1-0.1-0.2
							C22.8,123.2,21.9,123.4,21.2,123.8z"/>
						<path id="XMLID_5845_" fill="#FDDF14" d="M17.6,123.5c0,0.1-0.1,0.1-0.1,0.2c0.9,0,1.7,0.2,2.4,0.6c0.1-0.1,0.1-0.1,0.2-0.1
							C19.4,123.7,18.6,123.5,17.6,123.5z"/>
						<path id="XMLID_5844_" fill="#FDDF14" d="M17.6,127.4c-0.3-0.6-0.5-1.2-0.5-1.9c0-0.6,0.1-1.1,0.3-1.6c0.9,0,1.7,0.2,2.3,0.5
							C18.8,125.2,18.1,126.2,17.6,127.4z"/>
						<path id="XMLID_5843_" fill="#FDDF14" d="M19.5,129c-0.2-0.1-0.3-0.1-0.5-0.2c0.1-1.4,0.6-2.8,1.5-3.8
							c0.1,0.1,0.1,0.1,0.2,0.2C19.9,126.2,19.5,127.6,19.5,129z"/>
						<path id="XMLID_5842_" fill="#FDDF14" d="M24.2,123.5c0,0.1,0.1,0.1,0.1,0.2c-0.9,0-1.7,0.2-2.4,0.6c-0.1-0.1-0.1-0.1-0.2-0.1
							C22.4,123.7,23.2,123.5,24.2,123.5z"/>
						<path id="XMLID_5841_" fill="#FDDF14" d="M24.2,127.4c0.3-0.6,0.5-1.2,0.5-1.9c0-0.6-0.1-1.1-0.3-1.6c-0.9,0-1.7,0.2-2.3,0.5
							C23,125.2,23.7,126.2,24.2,127.4z"/>
						<path id="XMLID_5840_" fill="#FDDF14" d="M20.9,125.4c0.8,1,1.1,2.4,0.9,3.8c-0.3,0.1-0.6,0.1-0.9,0.1s-0.6,0-0.9-0.1
							C19.8,127.8,20.1,126.4,20.9,125.4z"/>
						<path id="XMLID_5839_" fill="#FDDF14" d="M22.3,129c0.2-0.1,0.3-0.1,0.5-0.2c-0.1-1.4-0.6-2.8-1.5-3.8
							c-0.1,0.1-0.1,0.1-0.2,0.2C22,126.2,22.3,127.6,22.3,129z"/>
						<path id="XMLID_5838_" fill="#FDDF14" d="M20.3,124.8c-0.1-0.1-0.2-0.1-0.3-0.2c-1,0.9-1.6,2-2,3.4c0.1,0.2,0.3,0.3,0.5,0.5
							C18.8,127,19.3,125.7,20.3,124.8z"/>
						<path id="XMLID_5837_" fill="#FDDF14" d="M21.5,124.8c0.1-0.1,0.2-0.1,0.3-0.2c1,0.9,1.6,2,2,3.4c-0.1,0.2-0.3,0.3-0.5,0.5
							C23,127,22.5,125.7,21.5,124.8z"/>
						<path id="XMLID_5836_" fill="#FDDF14" d="M20.9,124c0,0,0.2,0.1,0.3,0.2c-0.1,0-0.2,0.1-0.3,0.2c0,0-0.2-0.1-0.3-0.2
							C20.7,124.1,20.9,124,20.9,124z"/>
						<path id="XMLID_5835_" fill="#FDDF14" d="M20.4,124.3c-0.1,0-0.2,0.1-0.2,0.2c0.1,0.1,0.2,0.2,0.3,0.2c0,0,0.1-0.1,0.2-0.2
							C20.6,124.4,20.5,124.3,20.4,124.3z"/>
						<path id="XMLID_5834_" fill="#FDDF14" d="M21.4,124.3c0.1,0,0.2,0.1,0.2,0.2c-0.1,0.1-0.2,0.2-0.3,0.2c0,0-0.1-0.1-0.2-0.2
							C21.2,124.4,21.3,124.3,21.4,124.3z"/>
						<path id="XMLID_5833_" fill="#FDDF14" d="M20.9,124.6c0,0,0.2,0.1,0.2,0.2c-0.1,0.1-0.2,0.1-0.2,0.2c0-0.1-0.1-0.1-0.2-0.2
							C20.7,124.8,20.9,124.7,20.9,124.6z"/>
					</g>
				</g>
			</g>
		</g>
		
			<use xlink:href="#XMLID_5828_"  overflow="visible" fill="none" stroke="#B5935B" stroke-linejoin="round" stroke-miterlimit="10"/>
	</g>
</g>
<circle fill="#041944" stroke="#B5935B" stroke-linejoin="round" stroke-miterlimit="10" cx="43.1" cy="125.1" r="2.9"/>
<circle fill="#041944" stroke="#B5935B" stroke-linejoin="round" stroke-miterlimit="10" cx="109.4" cy="125.1" r="2.9"/>
</svg>
