<?xml version="1.0" encoding="utf-8"?>
<!-- Generator: Adobe Illustrator 18.1.1, SVG Export Plug-In . SVG Version: 6.00 Build 0)  -->
<!DOCTYPE svg PUBLIC "-//W3C//DTD SVG 1.1//EN" "http://www.w3.org/Graphics/SVG/1.1/DTD/svg11.dtd" [
	<!ENTITY ns_extend "http://ns.adobe.com/Extensibility/1.0/">
	<!ENTITY ns_ai "http://ns.adobe.com/AdobeIllustrator/10.0/">
	<!ENTITY ns_graphs "http://ns.adobe.com/Graphs/1.0/">
	<!ENTITY ns_vars "http://ns.adobe.com/Variables/1.0/">
	<!ENTITY ns_imrep "http://ns.adobe.com/ImageReplacement/1.0/">
	<!ENTITY ns_sfw "http://ns.adobe.com/SaveForWeb/1.0/">
	<!ENTITY ns_custom "http://ns.adobe.com/GenericCustomNamespace/1.0/">
	<!ENTITY ns_adobe_xpath "http://ns.adobe.com/XPath/1.0/">
]>
<svg version="1.1" id="Layer_1" xmlns:x="&ns_extend;" xmlns:i="&ns_ai;" xmlns:graph="&ns_graphs;"
	 xmlns="http://www.w3.org/2000/svg" xmlns:xlink="http://www.w3.org/1999/xlink" x="0px" y="0px" viewBox="0 0 223.7 227.7"
	 enable-background="new 0 0 223.7 227.7" xml:space="preserve">
<metadata>
	<sfw  xmlns="&ns_sfw;">
		<slices></slices>
		<sliceSourceBounds  width="223.7" height="227.7" x="563.3" y="-489.2" bottomLeftOrigin="true"></sliceSourceBounds>
	</sfw>
</metadata>
<g>
	<linearGradient id="SVGID_1_" gradientUnits="userSpaceOnUse" x1="39.2362" y1="-39.2362" x2="264.9026" y2="186.4304">
		<stop  offset="0" style="stop-color:#B5935B"/>
		<stop  offset="0.1066" style="stop-color:#B7965F"/>
		<stop  offset="0.2206" style="stop-color:#BD9E6C"/>
		<stop  offset="0.338" style="stop-color:#C6AC82"/>
		<stop  offset="0.4578" style="stop-color:#D4C09F"/>
		<stop  offset="0.5794" style="stop-color:#E5D9C6"/>
		<stop  offset="0.7009" style="stop-color:#FAF8F5"/>
		<stop  offset="0.7258" style="stop-color:#FFFFFF"/>
	</linearGradient>
	<path fill="url(#SVGID_1_)" d="M223.7,227.7h-6V67.6c0-10.1-8.2-18.3-18.3-18.3c-6.5,0-12.6-2.5-17.2-7.2c-4.6-4.6-7.1-10.8-7-17.3
		l0-0.5c0-4.9-1.8-9.5-5.3-13s-8.1-5.4-13-5.4H0V0h156.9c6.5,0,12.6,2.5,17.2,7.2c4.6,4.6,7.1,10.8,7,17.3l0,0.5
		c0,4.9,1.8,9.5,5.3,13s8.1,5.4,13,5.4c13.4,0,24.3,10.9,24.3,24.3V227.7z"/>
</g>
</svg>
