<?xml version="1.0" encoding="utf-8"?>
<!-- Generator: Adobe Illustrator 18.1.1, SVG Export Plug-In . SVG Version: 6.00 Build 0)  -->
<!DOCTYPE svg PUBLIC "-//W3C//DTD SVG 1.1//EN" "http://www.w3.org/Graphics/SVG/1.1/DTD/svg11.dtd" [
	<!ENTITY ns_extend "http://ns.adobe.com/Extensibility/1.0/">
	<!ENTITY ns_ai "http://ns.adobe.com/AdobeIllustrator/10.0/">
	<!ENTITY ns_graphs "http://ns.adobe.com/Graphs/1.0/">
	<!ENTITY ns_vars "http://ns.adobe.com/Variables/1.0/">
	<!ENTITY ns_imrep "http://ns.adobe.com/ImageReplacement/1.0/">
	<!ENTITY ns_sfw "http://ns.adobe.com/SaveForWeb/1.0/">
	<!ENTITY ns_custom "http://ns.adobe.com/GenericCustomNamespace/1.0/">
	<!ENTITY ns_adobe_xpath "http://ns.adobe.com/XPath/1.0/">
]>
<svg version="1.1" id="Layer_1" xmlns:x="&ns_extend;" xmlns:i="&ns_ai;" xmlns:graph="&ns_graphs;"
	 xmlns="http://www.w3.org/2000/svg" xmlns:xlink="http://www.w3.org/1999/xlink" x="0px" y="0px" viewBox="0 0 207.6 222.9"
	 enable-background="new 0 0 207.6 222.9" xml:space="preserve">
<metadata>
	<sfw  xmlns="&ns_sfw;">
		<slices></slices>
		<sliceSourceBounds  width="207.6" height="222.9" y="-485.7" x="572" bottomLeftOrigin="true"></sliceSourceBounds>
	</sfw>
</metadata>
<g>
	<g>
		<path fill="#898989" d="M137.4,90.7c0,1-0.3,1.8-1,2.3c-0.7,0.5-1.7,0.8-3,0.8h-1.2v3.9h-1.2v-10h2.6
			C136.2,87.8,137.4,88.8,137.4,90.7z M132.3,92.9h1c1,0,1.8-0.2,2.2-0.5s0.7-0.9,0.7-1.6c0-0.7-0.2-1.2-0.6-1.5s-1.1-0.5-2-0.5
			h-1.3V92.9z"/>
		<path fill="#898989" d="M142.5,97.9c-1.1,0-2-0.3-2.6-1s-1-1.6-1-2.8c0-1.2,0.3-2.2,0.9-2.9s1.4-1.1,2.4-1.1
			c0.9,0,1.7,0.3,2.2,0.9c0.5,0.6,0.8,1.4,0.8,2.4v0.7h-5.2c0,0.9,0.2,1.5,0.7,2s1,0.7,1.8,0.7c0.8,0,1.6-0.2,2.4-0.5v1
			c-0.4,0.2-0.8,0.3-1.1,0.4C143.5,97.9,143,97.9,142.5,97.9z M142.2,91.1c-0.6,0-1.1,0.2-1.4,0.6s-0.6,0.9-0.6,1.6h3.9
			c0-0.7-0.2-1.3-0.5-1.6C143.3,91.3,142.8,91.1,142.2,91.1z"/>
		<path fill="#898989" d="M150.2,97.9c-1.1,0-1.9-0.3-2.5-1c-0.6-0.7-0.9-1.6-0.9-2.8c0-1.3,0.3-2.2,0.9-2.9s1.5-1,2.6-1
			c0.4,0,0.7,0,1.1,0.1s0.6,0.2,0.8,0.3l-0.3,1c-0.3-0.1-0.5-0.2-0.8-0.3c-0.3-0.1-0.6-0.1-0.8-0.1c-1.5,0-2.3,1-2.3,2.9
			c0,0.9,0.2,1.6,0.6,2.1s0.9,0.7,1.7,0.7c0.6,0,1.3-0.1,1.9-0.4v1C151.6,97.8,151,97.9,150.2,97.9z"/>
		<path fill="#898989" d="M155,97.8h-1.1v-7.5h6.3v7.5H159v-6.5h-4V97.8z"/>
		<path fill="#898989" d="M161.4,90.3h1.2l1.6,4.3c0.4,1,0.6,1.7,0.7,2.1h0.1c0.1-0.2,0.2-0.6,0.4-1.2c0.2-0.6,0.8-2.3,1.9-5.2h1.2
			l-3.2,8.5c-0.3,0.8-0.7,1.4-1.1,1.8c-0.4,0.4-0.9,0.5-1.6,0.5c-0.3,0-0.7,0-1-0.1v-0.9c0.3,0.1,0.5,0.1,0.8,0.1
			c0.8,0,1.3-0.4,1.7-1.3l0.4-1.1L161.4,90.3z"/>
		<path fill="#898989" d="M169.2,93.3c0-1.6,0.2-2.9,0.7-3.8c0.5-0.9,1.2-1.5,2.3-1.7c1.3-0.3,2.5-0.5,3.4-0.7l0.2,1
			c-1.6,0.3-2.7,0.5-3.4,0.6c-0.7,0.2-1.2,0.5-1.5,1.1s-0.5,1.3-0.5,2.3h0.1c0.3-0.4,0.6-0.7,1.1-0.9s0.9-0.3,1.4-0.3
			c0.9,0,1.6,0.3,2.2,0.9s0.8,1.4,0.8,2.5c0,1.2-0.3,2.1-0.9,2.7c-0.6,0.7-1.4,1-2.5,1c-1.1,0-1.9-0.4-2.5-1.2
			S169.2,94.8,169.2,93.3z M172.7,97c1.4,0,2.1-0.9,2.1-2.7c0-1.7-0.6-2.5-1.9-2.5c-0.3,0-0.7,0.1-1,0.2c-0.3,0.1-0.6,0.3-0.9,0.6
			s-0.5,0.5-0.6,0.7c0,1.2,0.2,2.1,0.6,2.7C171.3,96.7,171.9,97,172.7,97z"/>
		<path fill="#898989" d="M183.6,97.8h-1.1v-6.5h-2.2c-0.1,1.6-0.3,2.9-0.5,3.9s-0.5,1.6-0.9,2.1s-0.8,0.7-1.3,0.7
			c-0.2,0-0.4,0-0.6-0.1V97c0.1,0,0.2,0,0.3,0c0.5,0,0.9-0.6,1.3-1.7s0.5-2.8,0.7-5h4.4V97.8z"/>
		<path fill="#898989" d="M187,90.3v4.8l0,1.2l0,0.4l4.1-6.4h1.4v7.5h-1.1v-4.6l0-0.9l0-0.9l-4,6.4H186v-7.5H187z"/>
		<path fill="#898989" d="M199.2,90.3h1.2l-3.2,3.6l3.5,3.9h-1.3L196,94v3.8h-1.1v-7.5h1.1V94L199.2,90.3z"/>
		<path fill="#898989" d="M206.7,97.8l-0.2-1.1h-0.1c-0.4,0.5-0.7,0.8-1.1,1c-0.4,0.2-0.8,0.3-1.4,0.3c-0.7,0-1.3-0.2-1.7-0.6
			s-0.6-0.9-0.6-1.6c0-1.5,1.2-2.3,3.6-2.4l1.3,0v-0.5c0-0.6-0.1-1-0.4-1.3c-0.3-0.3-0.7-0.4-1.2-0.4c-0.6,0-1.3,0.2-2.1,0.6
			l-0.3-0.9c0.4-0.2,0.8-0.4,1.2-0.5s0.9-0.2,1.3-0.2c0.9,0,1.6,0.2,2,0.6s0.6,1,0.6,1.9v5.1H206.7z M204.1,97
			c0.7,0,1.3-0.2,1.7-0.6s0.6-0.9,0.6-1.6v-0.7l-1.1,0c-0.9,0-1.6,0.2-2,0.4c-0.4,0.2-0.6,0.6-0.6,1.2c0,0.4,0.1,0.7,0.4,0.9
			S203.7,97,204.1,97z"/>
		<path fill="#898989" d="M138.3,115.8h-1.4l-4.6-5.1v5.1h-1.2v-10h1.2v4.8l4.5-4.8h1.3l-4.4,4.9L138.3,115.8z"/>
		<path fill="#898989" d="M144.1,115.8l-0.2-1.1h-0.1c-0.4,0.5-0.7,0.8-1.1,1c-0.4,0.2-0.8,0.3-1.4,0.3c-0.7,0-1.3-0.2-1.7-0.6
			s-0.6-0.9-0.6-1.6c0-1.5,1.2-2.3,3.6-2.4l1.3,0v-0.5c0-0.6-0.1-1-0.4-1.3c-0.3-0.3-0.7-0.4-1.2-0.4c-0.6,0-1.3,0.2-2.1,0.6
			l-0.3-0.9c0.4-0.2,0.8-0.4,1.2-0.5s0.9-0.2,1.3-0.2c0.9,0,1.6,0.2,2,0.6s0.6,1,0.6,1.9v5.1H144.1z M141.5,115
			c0.7,0,1.3-0.2,1.7-0.6s0.6-0.9,0.6-1.6v-0.7l-1.1,0c-0.9,0-1.6,0.2-2,0.4c-0.4,0.2-0.6,0.6-0.6,1.2c0,0.4,0.1,0.7,0.4,0.9
			S141.1,115,141.5,115z"/>
		<path fill="#898989" d="M148.7,111.4c1.4,0,2.1-0.4,2.1-1.2c0-0.7-0.6-1.1-1.7-1.1c-0.4,0-0.7,0-1,0.1s-0.7,0.2-1.1,0.4l-0.4-0.9
			c0.8-0.3,1.6-0.5,2.5-0.5c0.9,0,1.5,0.2,2,0.5c0.5,0.4,0.7,0.8,0.7,1.4c0,0.8-0.5,1.4-1.4,1.6v0.1c0.6,0.2,1,0.4,1.3,0.7
			c0.3,0.3,0.4,0.7,0.4,1.2c0,0.7-0.3,1.2-0.8,1.6c-0.6,0.4-1.3,0.6-2.3,0.6c-1.1,0-1.9-0.2-2.5-0.5v-1c0.8,0.4,1.7,0.6,2.5,0.6
			c0.7,0,1.2-0.1,1.5-0.3c0.3-0.2,0.5-0.5,0.5-1c0-0.9-0.7-1.3-2.1-1.3h-1v-1H148.7z"/>
		<path fill="#898989" d="M158.6,115.8l-0.2-1.1h-0.1c-0.4,0.5-0.7,0.8-1.1,1c-0.4,0.2-0.8,0.3-1.4,0.3c-0.7,0-1.3-0.2-1.7-0.6
			s-0.6-0.9-0.6-1.6c0-1.5,1.2-2.3,3.6-2.4l1.3,0v-0.5c0-0.6-0.1-1-0.4-1.3c-0.3-0.3-0.7-0.4-1.2-0.4c-0.6,0-1.3,0.2-2.1,0.6
			l-0.3-0.9c0.4-0.2,0.8-0.4,1.2-0.5s0.9-0.2,1.3-0.2c0.9,0,1.6,0.2,2,0.6s0.6,1,0.6,1.9v5.1H158.6z M156.1,115
			c0.7,0,1.3-0.2,1.7-0.6s0.6-0.9,0.6-1.6v-0.7l-1.1,0c-0.9,0-1.6,0.2-2,0.4c-0.4,0.2-0.6,0.6-0.6,1.2c0,0.4,0.1,0.7,0.4,0.9
			S155.6,115,156.1,115z"/>
		<path fill="#898989" d="M163.6,112l-2.6-3.7h1.3l2,2.9l2-2.9h1.3l-2.6,3.7l2.7,3.8h-1.3l-2.1-3l-2.1,3h-1.3L163.6,112z"/>
		<path fill="#898989" d="M172.2,115.9c-1.1,0-1.9-0.3-2.5-1c-0.6-0.7-0.9-1.6-0.9-2.8c0-1.3,0.3-2.2,0.9-2.9s1.5-1,2.6-1
			c0.4,0,0.7,0,1.1,0.1s0.6,0.2,0.8,0.3l-0.3,1c-0.3-0.1-0.5-0.2-0.8-0.3c-0.3-0.1-0.6-0.1-0.8-0.1c-1.5,0-2.3,1-2.3,2.9
			c0,0.9,0.2,1.6,0.6,2.1s0.9,0.7,1.7,0.7c0.6,0,1.3-0.1,1.9-0.4v1C173.5,115.8,172.9,115.9,172.2,115.9z"/>
		<path fill="#898989" d="M180.9,109.3h-2.4v6.5h-1.1v-6.5h-2.4v-1h6V109.3z"/>
		<path fill="#898989" d="M187,115.8l-0.2-1.1h-0.1c-0.4,0.5-0.7,0.8-1.1,1c-0.4,0.2-0.8,0.3-1.4,0.3c-0.7,0-1.3-0.2-1.7-0.6
			s-0.6-0.9-0.6-1.6c0-1.5,1.2-2.3,3.6-2.4l1.3,0v-0.5c0-0.6-0.1-1-0.4-1.3c-0.3-0.3-0.7-0.4-1.2-0.4c-0.6,0-1.3,0.2-2.1,0.6
			l-0.3-0.9c0.4-0.2,0.8-0.4,1.2-0.5s0.9-0.2,1.3-0.2c0.9,0,1.6,0.2,2,0.6s0.6,1,0.6,1.9v5.1H187z M184.4,115c0.7,0,1.3-0.2,1.7-0.6
			s0.6-0.9,0.6-1.6v-0.7l-1.1,0c-0.9,0-1.6,0.2-2,0.4c-0.4,0.2-0.6,0.6-0.6,1.2c0,0.4,0.1,0.7,0.4,0.9S184,115,184.4,115z"/>
		<path fill="#898989" d="M191.3,108.3v3.1h4.2v-3.1h1.1v7.5h-1.1v-3.4h-4.2v3.4h-1.1v-7.5H191.3z"/>
	</g>
</g>
<g>
	
		<circle id="XMLID_2307_" fill="#051945" stroke="#898989" stroke-linecap="round" stroke-linejoin="round" stroke-miterlimit="10" cx="111.7" cy="18.9" r="18.4"/>
	<path fill="#041944" stroke="#898989" stroke-linecap="round" stroke-linejoin="round" stroke-miterlimit="10" d="M101.9,54.6
		c1.5,9.7,1.9,32.3,1.9,51.5c0,10.2-2.9,18.9-3,23.1h4.8c2.1-9.5,0.6-77.2,0.4-78.1c-0.6-2.8-8.1-26-8.1-26l-11.4-9.3
		C86.4,15.9,99.3,37.8,101.9,54.6z"/>
	<path fill="#041944" stroke="#898989" stroke-linecap="round" stroke-linejoin="round" stroke-miterlimit="10" d="M105.7,50.1
		c0.6,14.4,0.8,36.8,0.8,55.8c0,10.1-0.5,18.7-0.5,23.3h4.8c0-13.2-0.9-78.5-0.9-78.5s-2.7-12.8-4.4-20.6c-0.8-3.7-2.8-7.1-5.5-9.8
		l-5.3-5.1C95.3,16.4,105.9,50.4,105.7,50.1z"/>
	<path fill="#041944" stroke="#898989" stroke-linecap="round" stroke-linejoin="round" stroke-miterlimit="10" d="M120.8,54.6
		c-1.5,9.7-1.9,32.3-1.9,51.5c0,10.2,2.9,18.9,3,23.1h-4.8c-2.1-9.5-0.6-77.2-0.4-78.1c0.6-2.8,8.1-26,8.1-26l11.4-9.3
		C136.2,15.9,123.4,37.8,120.8,54.6z"/>
	<path fill="#041944" stroke="#898989" stroke-linecap="round" stroke-linejoin="round" stroke-miterlimit="10" d="M117,50.1
		c-0.6,14.4-0.8,36.8-0.8,55.8c0,10.1,0.5,18.7,0.5,23.3h-4.8c0-13.2,0.9-78.5,0.9-78.5s2.7-12.8,4.4-20.6c0.8-3.7,2.8-7.1,5.5-9.8
		l5.3-5.1C127.4,16.4,116.7,50.4,117,50.1z"/>
	<path fill="#041944" stroke="#898989" stroke-linecap="round" stroke-linejoin="round" stroke-miterlimit="10" d="M112.6,129.2
		c0,0,1.2-84.2,2.5-102.1c0.2-2.4-0.2-4.9-1-7.1c-1.1-3.1-2.6-6.8-2.6-6.8s-2,4.5-3.3,7.7c-0.8,1.8-1.1,3.8-0.9,5.8
		c1.6,16.9,3.4,102.5,3.4,102.5H112.6z"/>
	<polygon fill="#041944" stroke="#898989" stroke-linecap="round" stroke-linejoin="round" stroke-miterlimit="10" points="
		122.7,52.6 99.7,52.6 100.8,49.5 121.9,49.5 	"/>
	<polygon fill="#041944" stroke="#898989" stroke-linecap="round" stroke-linejoin="round" stroke-miterlimit="10" points="
		127.7,32.8 95.3,33 94.7,31 128.7,31 	"/>
	<polygon fill="#041944" stroke="#898989" stroke-linecap="round" stroke-linejoin="round" stroke-miterlimit="10" points="
		122.8,84.6 100.8,84.6 103.1,81.3 119.9,81.3 	"/>
	<g>
		<defs>
			<polygon id="XMLID_2306_" points="121.7,107.9 119.2,110.7 103.3,110.9 101.7,108 103.1,105.6 119.4,105.6 			"/>
		</defs>
		<use xlink:href="#XMLID_2306_"  overflow="visible" fill="#041944"/>
		<clipPath id="XMLID_2_">
			<use xlink:href="#XMLID_2306_"  overflow="visible"/>
		</clipPath>
		
			<line clip-path="url(#XMLID_2_)" fill="none" stroke="#898989" stroke-linecap="round" stroke-linejoin="round" stroke-miterlimit="10" x1="100.2" y1="107.9" x2="128.2" y2="107.9"/>
		
			<use xlink:href="#XMLID_2306_"  overflow="visible" fill="none" stroke="#898989" stroke-linecap="round" stroke-linejoin="round" stroke-miterlimit="10"/>
	</g>
	<g>
		<defs>
			<path id="XMLID_2305_" d="M127.3,130.7H96.6l0.5-2.3c0.6-2.8,3-4.7,5.8-4.7h18c2.7,0,5.1,1.8,5.8,4.5L127.3,130.7z"/>
		</defs>
		<use xlink:href="#XMLID_2305_"  overflow="visible" fill="#051945"/>
		<clipPath id="XMLID_3_">
			<use xlink:href="#XMLID_2305_"  overflow="visible"/>
		</clipPath>
		
			<use xlink:href="#XMLID_2305_"  overflow="visible" fill="none" stroke="#898989" stroke-linecap="round" stroke-linejoin="round" stroke-miterlimit="10"/>
	</g>
	
		<line fill="none" stroke="#898989" stroke-linecap="round" stroke-linejoin="round" stroke-miterlimit="10" x1="96.6" y1="37" x2="125.6" y2="37"/>
	
		<rect x="101.7" y="116.8" fill="#041944" stroke="#898989" stroke-linecap="round" stroke-linejoin="round" stroke-miterlimit="10" width="18.8" height="2.5"/>
</g>
<path fill="none" stroke="#898989" stroke-linejoin="round" stroke-miterlimit="10" d="M9.5,213.1l66-66.6c4.5-4.5,10.5-7,16.9-7
	h19.7"/>
<g>
	<path fill="#041944" stroke="#898989" stroke-width="3" stroke-linejoin="round" stroke-miterlimit="10" d="M27.3,183.4
		c10.3,3.4,15.9,14.4,12.6,24.6c-3.4,10.2-14.5,15.8-24.8,12.4S-0.9,206,2.5,195.8C5.8,185.6,16.9,180,27.3,183.4z"/>
	<g>
		<defs>
			<path id="XMLID_2133_" d="M25.4,189.1c7.1,2.3,10.9,9.9,8.6,17c-2.3,7.1-9.9,10.9-17,8.6s-10.9-9.9-8.6-17
				C10.7,190.6,18.3,186.7,25.4,189.1z"/>
		</defs>
		<use xlink:href="#XMLID_2133_"  overflow="visible" fill="#00B0CA"/>
		<clipPath id="XMLID_4_">
			<use xlink:href="#XMLID_2133_"  overflow="visible"/>
		</clipPath>
		<g id="XMLID_2134_" clip-path="url(#XMLID_4_)">
			<g id="XMLID_2135_">
				<g id="XMLID_2136_">
					<path id="XMLID_2205_" fill-rule="evenodd" clip-rule="evenodd" fill="#F6DB6B" d="M21.3,207.4c-3.8,0-6.4-3-6.7-6
						c0,0-0.1-0.1-0.2,0.1c0,0.3,0.1,1.3,0,1.2c-0.1-0.1-0.8-2-0.9-1.8c-0.2,0.3,0.8,2.4,0.7,2.4c-0.2,0.2-1.3-2-1.4-1.9
						c-0.3,0.6,1.3,2.7,1.3,2.8c0,0.3-1.3-1.1-1.4-1c-0.2,0.3,1.3,1.6,1.4,1.6c0.2,0.3-0.8-0.5-0.9-0.2c0,0.2,0.5,0.7,0.9,0.8
						c0.3,0.2,0.4,0.1,0.5,0.3c0.1,0.1-0.6-0.1-0.6,0.1c0,0.3,0.8,0.2,0.9,0.4c0.1,0.1-0.5,0-0.5,0.1c0,0.2,0.7,0.2,0.7,0.3
						c0,0.1-0.4,0-0.4,0.2c0,0.1,0.6,0.1,0.8,0.2c0.1,0.1-0.5,0,0,0.3c0.5,0.3,1.1,0.6,2,0.7c0.8,0.2,1.3,0,1.3-0.1
						c0-0.1-0.4,0-1-0.1c-0.6-0.1-1.4-0.5-1.7-0.7c-0.1-0.1,0.3-0.2,0.2-0.3c-0.1-0.1-0.4,0-0.6-0.1c-0.1-0.1,0.2-0.1,0.2-0.2
						c0-0.1-0.5-0.2-0.5-0.3c-0.1-0.1,0.2-0.1,0.2-0.2c0-0.1-0.3-0.2-0.3-0.2c0-0.1,0.3-0.1,0.2-0.1c-0.2-0.1-0.7-0.2-0.7-0.4
						c-0.1-0.2,0.4,0,0.2-0.1c-0.1-0.1-0.5-0.3-0.6-0.5c-0.1-0.2,0.3,0,0.3-0.1c0-0.2-0.2-0.1-0.3-0.6c0-0.2,0.3-0.1,0.3-0.1l0-0.1
						c0,0,0.4,0.2,0.8,0.8c0.5,0.6,0.6,1.1,1.1,1.5c0.2,0.2,0.2-0.1,0.7,0.2c0.5,0.3,0.7,0.5,1.2,1c0.1,0.1,0.4-0.1,1.4,0.1
						c0.5,0.1,0.6,0.4,0.6,0.4c0,0,0.3-0.2,0.4-0.4c0.1-0.1,0.1,0,0.1,0C21.3,207.4,21.3,207.4,21.3,207.4L21.3,207.4z"/>
					<path id="XMLID_2204_" fill-rule="evenodd" clip-rule="evenodd" fill="#F6DB6B" d="M23.8,208.5c-0.1,0-0.1,0.1-0.1,0.1
						c0,0.1-0.1,0.3-0.2,0.3c-0.1,0,0,0.1-0.1,0.1l-0.4,0c-0.6,0.3-1.3,0.4-2.2,0.3c0,0-0.2,0.1-0.3,0.3c-0.2,0.1-0.3,0.2-0.3,0.3
						c0,0.1,0.1,0.2,0.2,0.2c0.2,0,0.3-0.1,0.3-0.1s0,0.1,0.2,0.1s0.4-0.1,0.4-0.1s0.2,0.1,0.4,0.1c0.2,0,0.3-0.1,0.3-0.1
						s0,0.2,0.2,0.2c0.2,0,0.4-0.2,0.4-0.2s0.1,0.1,0.3,0.1c0.1,0,0.3-0.2,0.3-0.2s0.2,0.1,0.4,0s0.3-0.2,0.3-0.2s0.2,0.1,0.3,0.1
						c0.1,0,0.2-0.2,0.2-0.2s0.4,0.1,0.6,0c0.2-0.1,0.1-0.4,0.1-0.4s1,0.1,1-0.5C26.2,208.6,24.5,208.6,23.8,208.5L23.8,208.5z"/>
					<path id="XMLID_2203_" fill-rule="evenodd" clip-rule="evenodd" fill="#F6DB6B" d="M21.6,207.8c0,0,0.3-0.1,0.8-0.2
						c1-0.2,1.3-0.1,1.4-0.2c0.8-0.9,1.4-0.9,1.9-1.2c0.5-0.4,0.6-0.9,1.1-1.5c0.5-0.6,0.8-0.6,0.8-0.6l0.1,0.1c0,0,0.3-0.2,0.2,0
						c0,0.2-0.2,0.5-0.2,0.7c0,0.1,0.4,0,0.3,0.1c-0.1,0.3-0.4,0.4-0.4,0.5c-0.1,0.2,0.3-0.1,0.2,0.1c-0.1,0.2-0.5,0.3-0.7,0.4
						c-0.1,0.1,0.1,0.1,0.1,0.2c0,0.1-0.5,0.2-0.5,0.3c0,0.1,0.1,0.1,0.1,0.1c-0.1,0.1-0.5,0.1-0.5,0.2c0,0.1,0.1,0.1,0,0.2
						c-0.1,0.2-0.2,0-0.3,0.1c0,0.1,0.2,0.2,0,0.3c-0.2,0-0.4,0.1-0.6,0.3c-0.1,0-0.4,0.1-0.6,0.2c-0.1,0-0.8,0.1-0.8,0.2
						c0,0.1,0.5,0,1.4-0.1c0.4-0.1,0.6-0.1,1.3-0.3c0.7-0.2-0.2-0.2,0-0.3c0.1-0.1,0.8-0.1,0.8-0.2c0-0.2-0.3-0.1-0.3-0.2
						c0-0.1,0.8-0.1,0.8-0.3c0-0.1-0.4,0-0.3-0.2c0.1-0.1,0.7-0.2,0.7-0.4c0-0.2-0.5,0-0.4-0.1c0-0.1,0.2-0.1,0.4-0.2
						c0.3-0.2,0.8-0.6,0.8-0.8c0-0.3-1,0.6-0.9,0.3c0-0.1,1.6-1.4,1.4-1.7c-0.2-0.2-1.3,1.2-1.4,0.9c0-0.1,1.8-2.1,1.5-2.8
						c-0.1-0.2-1.4,2.4-1.6,2.2c-0.1-0.1,1.2-2.6,1-2.8c-0.1-0.1-0.3,0.3-0.5,0.8c-0.2,0.5-0.4,1-0.5,1c0,0.1,0.1-1,0-1.3
						c0-0.1-0.2-0.1-0.2-0.1c-0.2,3.3-3.3,5.7-5.8,6c-0.6,0.1-0.9,0.4-1.6,0.8c-0.2,0.1-0.6,0.2-0.9,0.4s-0.5,0.4-0.6,0.6
						c-0.1,0.1,0,0.3,0.1,0.3c0.1,0,0.1-0.2,0.1-0.2c0.1,0,0.1,0.1,0.2,0.1c0.1,0,0.2-0.1,0.2-0.1s1.8,0,2.5,0
						c0.1,0,0.4-0.1,0.5-0.2c0-0.1-0.2,0-0.4,0c-0.5,0-1.2,0-1.7,0c0,0-0.1,0-0.1-0.1c0,0,0.3-0.4,0.3-0.4h-0.2c0,0-0.1,0.1-0.2,0.1
						s-0.1,0-0.1-0.1C20.5,208.3,21.6,207.8,21.6,207.8L21.6,207.8z"/>
					<path id="XMLID_2202_" fill-rule="evenodd" clip-rule="evenodd" fill="#F6DB6B" d="M19.9,208.8c0,0-0.1,0-0.1,0
						c-0.1,0-0.1,0-0.1,0.1C19.6,209,19.7,208.9,19.9,208.8C19.9,208.9,19.9,208.9,19.9,208.8L19.9,208.8z"/>
					<g id="XMLID_2200_">
						<path id="XMLID_2201_" fill-rule="evenodd" clip-rule="evenodd" fill="#F6DB6B" d="M22.1,196.1c0.2,0,0.3-0.1,0.3-0.2
							c0-0.2,0-1.3,0-1.3s-0.5,1-0.5,1.2C21.9,195.9,21.9,196.1,22.1,196.1L22.1,196.1L22.1,196.1z"/>
					</g>
					<g id="XMLID_2198_">
						<path id="XMLID_2199_" fill-rule="evenodd" clip-rule="evenodd" fill="#F6DB6B" d="M22.9,196.3c0.2,0.1,0.3,0,0.4-0.2
							c0.1-0.2,0.2-1.3,0.2-1.3s-0.7,0.8-0.8,1C22.7,196.1,22.7,196.3,22.9,196.3L22.9,196.3L22.9,196.3z"/>
					</g>
					<g id="XMLID_2196_">
						<path id="XMLID_2197_" fill-rule="evenodd" clip-rule="evenodd" fill="#F6DB6B" d="M23.6,196.7c0.2,0.1,0.3,0.1,0.4-0.1
							c0.1-0.2,0.4-1.2,0.4-1.2s-0.8,0.7-0.9,0.9C23.5,196.4,23.4,196.6,23.6,196.7L23.6,196.7L23.6,196.7z"/>
					</g>
					<g id="XMLID_2194_">
						<path id="XMLID_2195_" fill-rule="evenodd" clip-rule="evenodd" fill="#F6DB6B" d="M24.2,197.2c0.2,0.2,0.3,0.1,0.4,0
							c0.2-0.2,0.7-1.1,0.7-1.1s-0.9,0.5-1.1,0.7C24.1,196.9,24.1,197.1,24.2,197.2L24.2,197.2L24.2,197.2z"/>
					</g>
					<g id="XMLID_2192_">
						<path id="XMLID_2193_" fill-rule="evenodd" clip-rule="evenodd" fill="#F6DB6B" d="M24.8,197.9c0.1,0.2,0.3,0.2,0.4,0.1
							c0.2-0.1,0.9-0.9,0.9-0.9s-1,0.3-1.2,0.4C24.7,197.5,24.6,197.7,24.8,197.9L24.8,197.9L24.8,197.9z"/>
					</g>
					<g id="XMLID_2190_">
						<path id="XMLID_2191_" fill-rule="evenodd" clip-rule="evenodd" fill="#F6DB6B" d="M25.1,198.6c0.1,0.2,0.2,0.2,0.4,0.2
							c0.2-0.1,1-0.8,1-0.8s-1.1,0.1-1.3,0.2C25.2,198.2,25.1,198.4,25.1,198.6L25.1,198.6L25.1,198.6z"/>
					</g>
					<g id="XMLID_2188_">
						<path id="XMLID_2189_" fill-rule="evenodd" clip-rule="evenodd" fill="#F6DB6B" d="M25.4,199.3c0,0.2,0.2,0.3,0.4,0.2
							c0.2,0,1.2-0.5,1.2-0.5s-1.1-0.1-1.3,0C25.5,199,25.3,199.1,25.4,199.3L25.4,199.3L25.4,199.3z"/>
					</g>
					<g id="XMLID_2186_">
						<path id="XMLID_2187_" fill-rule="evenodd" clip-rule="evenodd" fill="#F6DB6B" d="M25.5,200.1c0,0.2,0.1,0.3,0.3,0.3
							c0.2,0,1.2-0.3,1.2-0.3s-1-0.3-1.2-0.3C25.6,199.9,25.5,199.9,25.5,200.1L25.5,200.1L25.5,200.1z"/>
					</g>
					<g id="XMLID_2184_">
						<path id="XMLID_2185_" fill-rule="evenodd" clip-rule="evenodd" fill="#F6DB6B" d="M25.4,201c0,0.2,0.1,0.3,0.2,0.3
							c0.2,0,1.3,0,1.3,0s-1-0.5-1.2-0.5C25.6,200.7,25.4,200.7,25.4,201L25.4,201L25.4,201z"/>
					</g>
					<g id="XMLID_2182_">
						<path id="XMLID_2183_" fill-rule="evenodd" clip-rule="evenodd" fill="#F6DB6B" d="M25.1,201.7c-0.1,0.2,0,0.3,0.2,0.4
							c0.2,0.1,1.3,0.2,1.3,0.2s-0.8-0.7-1-0.8C25.4,201.5,25.2,201.5,25.1,201.7L25.1,201.7L25.1,201.7z"/>
					</g>
					<g id="XMLID_2180_">
						<path id="XMLID_2181_" fill-rule="evenodd" clip-rule="evenodd" fill="#F6DB6B" d="M24.8,202.4c-0.1,0.2-0.1,0.3,0.1,0.4
							c0.2,0.1,1.2,0.4,1.2,0.4s-0.7-0.8-0.9-0.9C25,202.3,24.9,202.3,24.8,202.4L24.8,202.4L24.8,202.4z"/>
					</g>
					<g id="XMLID_2178_">
						<path id="XMLID_2179_" fill-rule="evenodd" clip-rule="evenodd" fill="#F6DB6B" d="M24.2,203.1c-0.2,0.2-0.1,0.3,0,0.4
							c0.2,0.2,1.1,0.7,1.1,0.7s-0.5-0.9-0.7-1.1C24.6,203,24.4,202.9,24.2,203.1L24.2,203.1L24.2,203.1z"/>
					</g>
					<g id="XMLID_2176_">
						<path id="XMLID_2177_" fill-rule="evenodd" clip-rule="evenodd" fill="#F6DB6B" d="M23.6,203.6c-0.2,0.1-0.2,0.3-0.1,0.4
							c0.1,0.2,0.9,0.9,0.9,0.9s-0.3-1-0.4-1.2C23.9,203.5,23.8,203.5,23.6,203.6L23.6,203.6L23.6,203.6z"/>
					</g>
					<g id="XMLID_2174_">
						<path id="XMLID_2175_" fill-rule="evenodd" clip-rule="evenodd" fill="#F6DB6B" d="M22.9,204c-0.2,0.1-0.2,0.2-0.2,0.4
							c0.1,0.2,0.8,1,0.8,1s-0.1-1.1-0.2-1.3C23.2,204,23.1,203.9,22.9,204L22.9,204L22.9,204z"/>
					</g>
					<g id="XMLID_2172_">
						<path id="XMLID_2173_" fill-rule="evenodd" clip-rule="evenodd" fill="#F6DB6B" d="M19,203.6c-0.2-0.1-0.3-0.1-0.4,0.1
							c-0.1,0.2-0.4,1.2-0.4,1.2s0.8-0.7,0.9-0.9C19.2,203.9,19.2,203.7,19,203.6L19,203.6L19,203.6z"/>
					</g>
					<g id="XMLID_2170_">
						<path id="XMLID_2171_" fill-rule="evenodd" clip-rule="evenodd" fill="#F6DB6B" d="M18.4,203.1c-0.2-0.2-0.3-0.1-0.4,0
							c-0.2,0.2-0.7,1.1-0.7,1.1s0.9-0.5,1.1-0.7C18.5,203.4,18.6,203.2,18.4,203.1L18.4,203.1L18.4,203.1z"/>
					</g>
					<g id="XMLID_2168_">
						<path id="XMLID_2169_" fill-rule="evenodd" clip-rule="evenodd" fill="#F6DB6B" d="M17.9,202.4c-0.1-0.2-0.3-0.2-0.4-0.1
							c-0.2,0.1-0.9,0.9-0.9,0.9s1-0.3,1.2-0.4C18,202.8,18,202.6,17.9,202.4L17.9,202.4L17.9,202.4z"/>
					</g>
					<g id="XMLID_2166_">
						<path id="XMLID_2167_" fill-rule="evenodd" clip-rule="evenodd" fill="#F6DB6B" d="M17.5,201.7c-0.1-0.2-0.2-0.2-0.4-0.2
							c-0.2,0.1-1,0.8-1,0.8s1.1-0.1,1.3-0.2C17.5,202.1,17.6,201.9,17.5,201.7L17.5,201.7L17.5,201.7z"/>
					</g>
					<g id="XMLID_2164_">
						<path id="XMLID_2165_" fill-rule="evenodd" clip-rule="evenodd" fill="#F6DB6B" d="M17.3,201c0-0.2-0.2-0.3-0.4-0.2
							c-0.2,0-1.2,0.5-1.2,0.5s1.1,0.1,1.3,0C17.2,201.3,17.3,201.2,17.3,201L17.3,201L17.3,201z"/>
					</g>
					<g id="XMLID_2162_">
						<path id="XMLID_2163_" fill-rule="evenodd" clip-rule="evenodd" fill="#F6DB6B" d="M17.2,200.1c0-0.2-0.1-0.3-0.3-0.3
							c-0.2,0-1.2,0.3-1.2,0.3s1,0.3,1.2,0.3C17.1,200.4,17.2,200.4,17.2,200.1L17.2,200.1L17.2,200.1z"/>
					</g>
					<g id="XMLID_2160_">
						<path id="XMLID_2161_" fill-rule="evenodd" clip-rule="evenodd" fill="#F6DB6B" d="M17.3,199.3c0-0.2-0.1-0.3-0.2-0.3
							c-0.2,0-1.3,0-1.3,0s1,0.5,1.2,0.5C17.1,199.6,17.2,199.6,17.3,199.3L17.3,199.3L17.3,199.3z"/>
					</g>
					<g id="XMLID_2158_">
						<path id="XMLID_2159_" fill-rule="evenodd" clip-rule="evenodd" fill="#F6DB6B" d="M17.5,198.6c0.1-0.2,0-0.3-0.2-0.4
							c-0.2-0.1-1.3-0.2-1.3-0.2s0.8,0.7,1,0.8C17.3,198.8,17.4,198.8,17.5,198.6L17.5,198.6L17.5,198.6z"/>
					</g>
					<g id="XMLID_2156_">
						<path id="XMLID_2157_" fill-rule="evenodd" clip-rule="evenodd" fill="#F6DB6B" d="M17.9,197.9c0.1-0.2,0.1-0.3-0.1-0.4
							c-0.2-0.1-1.2-0.4-1.2-0.4s0.7,0.8,0.9,0.9C17.6,198,17.8,198,17.9,197.9L17.9,197.9L17.9,197.9z"/>
					</g>
					<g id="XMLID_2154_">
						<path id="XMLID_2155_" fill-rule="evenodd" clip-rule="evenodd" fill="#F6DB6B" d="M18.4,197.2c0.2-0.2,0.1-0.3,0-0.4
							c-0.2-0.2-1.1-0.7-1.1-0.7s0.5,0.9,0.7,1.1C18.1,197.3,18.3,197.4,18.4,197.2L18.4,197.2L18.4,197.2z"/>
					</g>
					<circle id="XMLID_2153_" fill-rule="evenodd" clip-rule="evenodd" fill="#F6DB6B" cx="21.3" cy="200.2" r="3.6"/>
					<g id="XMLID_2151_">
						<path id="XMLID_2152_" fill-rule="evenodd" clip-rule="evenodd" fill="#F6DB6B" d="M21.3,196c0.2,0,0.3-0.1,0.3-0.3
							c0-0.2-0.3-1.2-0.3-1.2s-0.3,1-0.3,1.2C21,195.9,21.1,196,21.3,196L21.3,196L21.3,196z"/>
					</g>
					<g id="XMLID_2149_">
						<path id="XMLID_2150_" fill-rule="evenodd" clip-rule="evenodd" fill="#F6DB6B" d="M22.1,204.2c-0.2,0-0.3,0.2-0.2,0.4
							c0,0.2,0.5,1.2,0.5,1.2s0.1-1.1,0-1.3C22.5,204.3,22.3,204.2,22.1,204.2L22.1,204.2L22.1,204.2z"/>
					</g>
					<g id="XMLID_2147_">
						<path id="XMLID_2148_" fill-rule="evenodd" clip-rule="evenodd" fill="#F6DB6B" d="M21.3,204.3c-0.2,0-0.3,0.1-0.3,0.3
							c0,0.2,0.3,1.2,0.3,1.2s0.3-1,0.3-1.2C21.6,204.4,21.5,204.3,21.3,204.3L21.3,204.3L21.3,204.3z"/>
					</g>
					<g id="XMLID_2145_">
						<path id="XMLID_2146_" fill-rule="evenodd" clip-rule="evenodd" fill="#F6DB6B" d="M20.5,204.2c-0.2,0-0.3,0.1-0.3,0.2
							c0,0.2,0,1.3,0,1.3s0.5-1,0.5-1.2C20.8,204.4,20.7,204.2,20.5,204.2L20.5,204.2L20.5,204.2z"/>
					</g>
					<g id="XMLID_2143_">
						<path id="XMLID_2144_" fill-rule="evenodd" clip-rule="evenodd" fill="#F6DB6B" d="M19.8,204c-0.2-0.1-0.3,0-0.4,0.2
							c-0.1,0.2-0.2,1.3-0.2,1.3s0.7-0.8,0.8-1C20,204.2,20,204,19.8,204L19.8,204L19.8,204z"/>
					</g>
					<g id="XMLID_2141_">
						<path id="XMLID_2142_" fill-rule="evenodd" clip-rule="evenodd" fill="#F6DB6B" d="M19,196.7c0.2-0.1,0.2-0.3,0.1-0.4
							c-0.1-0.2-0.9-0.9-0.9-0.9s0.3,1,0.4,1.2C18.7,196.8,18.9,196.8,19,196.7L19,196.7L19,196.7z"/>
					</g>
					<g id="XMLID_2139_">
						<path id="XMLID_2140_" fill-rule="evenodd" clip-rule="evenodd" fill="#F6DB6B" d="M19.8,196.3c0.2-0.1,0.2-0.2,0.2-0.4
							c-0.1-0.2-0.8-1-0.8-1s0.1,1.1,0.2,1.3C19.4,196.3,19.6,196.4,19.8,196.3L19.8,196.3L19.8,196.3z"/>
					</g>
					<g id="XMLID_2137_">
						<path id="XMLID_2138_" fill-rule="evenodd" clip-rule="evenodd" fill="#F6DB6B" d="M20.5,196.1c0.2,0,0.3-0.2,0.2-0.4
							c0-0.2-0.5-1.2-0.5-1.2s-0.1,1.1,0,1.3C20.2,196,20.3,196.1,20.5,196.1L20.5,196.1L20.5,196.1z"/>
					</g>
				</g>
			</g>
		</g>
		
			<use xlink:href="#XMLID_2133_"  overflow="visible" fill="none" stroke="#898989" stroke-linejoin="round" stroke-miterlimit="10"/>
	</g>
</g>
<circle fill="#041944" stroke="#898989" stroke-linejoin="round" stroke-miterlimit="10" cx="110.7" cy="140" r="2.9"/>
</svg>
