<?xml version="1.0" encoding="utf-8"?>
<!-- Generator: Adobe Illustrator 18.1.1, SVG Export Plug-In . SVG Version: 6.00 Build 0)  -->
<!DOCTYPE svg PUBLIC "-//W3C//DTD SVG 1.1//EN" "http://www.w3.org/Graphics/SVG/1.1/DTD/svg11.dtd" [
	<!ENTITY ns_extend "http://ns.adobe.com/Extensibility/1.0/">
	<!ENTITY ns_ai "http://ns.adobe.com/AdobeIllustrator/10.0/">
	<!ENTITY ns_graphs "http://ns.adobe.com/Graphs/1.0/">
	<!ENTITY ns_vars "http://ns.adobe.com/Variables/1.0/">
	<!ENTITY ns_imrep "http://ns.adobe.com/ImageReplacement/1.0/">
	<!ENTITY ns_sfw "http://ns.adobe.com/SaveForWeb/1.0/">
	<!ENTITY ns_custom "http://ns.adobe.com/GenericCustomNamespace/1.0/">
	<!ENTITY ns_adobe_xpath "http://ns.adobe.com/XPath/1.0/">
]>
<svg version="1.1" id="Layer_1" xmlns:x="&ns_extend;" xmlns:i="&ns_ai;" xmlns:graph="&ns_graphs;"
	 xmlns="http://www.w3.org/2000/svg" xmlns:xlink="http://www.w3.org/1999/xlink" x="0px" y="0px" viewBox="0 0 161 176.4"
	 enable-background="new 0 0 161 176.4" xml:space="preserve">
<metadata>
	<sfw  xmlns="&ns_sfw;">
		<slices></slices>
		<sliceSourceBounds  width="183.8" height="181.8" y="-465.4" x="583.4" bottomLeftOrigin="true"></sliceSourceBounds>
	</sfw>
</metadata>
<g>
	<line fill="none" stroke="#B5935B" stroke-linejoin="round" stroke-miterlimit="10" x1="45.7" y1="44.3" x2="45.7" y2="31.5"/>
	
		<line fill="none" stroke="#B5935B" stroke-linejoin="round" stroke-miterlimit="10" stroke-dasharray="2" x1="45.7" y1="92.8" x2="45.7" y2="47.3"/>
	<polyline fill="none" stroke="#B5935B" stroke-linejoin="round" stroke-miterlimit="10" points="39.2,57.6 0.5,57.6 0.5,175.9 
		160.5,175.9 160.5,57.6 51.7,57.6 	"/>
	<g id="_x31__1_">
		<defs>
			<polyline id="XMLID_2431_" points="39.2,61.9 4.7,61.9 4.7,172.3 156.5,172.3 156.5,61.9 52,61.9 			"/>
		</defs>
		<clipPath id="XMLID_2_">
			<use xlink:href="#XMLID_2431_"  overflow="visible"/>
		</clipPath>
		
			<line clip-path="url(#XMLID_2_)" fill="none" stroke="#B5935B" stroke-linejoin="round" stroke-miterlimit="10" x1="-22.8" y1="149.8" x2="103" y2="149.8"/>
		<path clip-path="url(#XMLID_2_)" fill="none" stroke="#B5935B" stroke-linejoin="round" stroke-miterlimit="10" d="M113.5,152.8
			H46.6c-4.4,0-8.6,2-11.3,5.5l0,0c-2.7,3.5-6.9,5.5-11.3,5.5H-3.4"/>
		<g clip-path="url(#XMLID_2_)">
			<defs>
				<rect id="XMLID_2432_" x="101.8" y="117.8" width="46.1" height="63.5"/>
			</defs>
			<use xlink:href="#XMLID_2432_"  overflow="visible" fill="#FFFFFF"/>
			<clipPath id="XMLID_3_">
				<use xlink:href="#XMLID_2432_"  overflow="visible"/>
			</clipPath>
			<g clip-path="url(#XMLID_3_)">
				<defs>
					<rect id="XMLID_2433_" x="105.8" y="126.9" width="37.8" height="41.2"/>
				</defs>
				<use xlink:href="#XMLID_2433_"  overflow="visible" fill="#FFFFFF"/>
				<clipPath id="XMLID_4_">
					<use xlink:href="#XMLID_2433_"  overflow="visible"/>
				</clipPath>
				<path clip-path="url(#XMLID_4_)" fill="#FFFFFF" stroke="#B5935B" stroke-linejoin="round" stroke-miterlimit="10" d="
					M110,122.3l4.1,12.4c0.9,2.8,3.6,4.7,6.5,4.7h0c3,0,5.6,1.9,6.6,4.8l1.1,3.4c0.9,2.8,3.6,4.8,6.6,4.8h16.5v-30L110,122.3z"/>
				<path clip-path="url(#XMLID_4_)" fill="#FFFFFF" stroke="#B5935B" stroke-linejoin="round" stroke-miterlimit="10" d="
					M138.7,139.9L138.7,139.9c-1.3,0-2.4,1.1-2.4,2.4v10.3h4.8v-10.3C141,140.9,140,139.9,138.7,139.9z"/>
				<polyline clip-path="url(#XMLID_4_)" fill="#FFFFFF" stroke="#B5935B" stroke-linejoin="round" stroke-miterlimit="10" points="
					146,156.5 122.3,156.5 122.3,180.9 				"/>
				<polyline clip-path="url(#XMLID_4_)" fill="none" stroke="#B5935B" stroke-linejoin="round" stroke-miterlimit="10" points="
					136.3,156.5 136.3,163.1 140.9,163.1 140.9,159.6 				"/>
				
					<line clip-path="url(#XMLID_4_)" fill="none" stroke="#B5935B" stroke-linejoin="round" stroke-miterlimit="10" x1="126.2" y1="123.7" x2="126.2" y2="133.2"/>
				
					<circle clip-path="url(#XMLID_4_)" fill="#FFFFFF" stroke="#B5935B" stroke-linejoin="round" stroke-miterlimit="10" cx="126.2" cy="134.1" r="2.6"/>
				
					<use xlink:href="#XMLID_2433_"  overflow="visible" fill="none" stroke="#B5935B" stroke-linejoin="round" stroke-miterlimit="10"/>
			</g>
			<polyline clip-path="url(#XMLID_3_)" fill="none" stroke="#B5935B" stroke-linejoin="round" stroke-miterlimit="10" points="
				147.8,124 110.7,124 109,118.1 			"/>
			<polyline clip-path="url(#XMLID_3_)" fill="none" stroke="#B5935B" stroke-linejoin="round" stroke-miterlimit="10" points="
				118.8,168.1 118.8,156.2 109,156.2 109,168.1 			"/>
			
				<line clip-path="url(#XMLID_3_)" fill="none" stroke="#B5935B" stroke-linejoin="round" stroke-miterlimit="10" x1="113.9" y1="156.2" x2="113.9" y2="142.6"/>
			
				<line clip-path="url(#XMLID_3_)" fill="none" stroke="#B5935B" stroke-linejoin="round" stroke-miterlimit="10" x1="116.8" y1="142.6" x2="116.8" y2="147"/>
			
				<line clip-path="url(#XMLID_3_)" fill="none" stroke="#B5935B" stroke-linejoin="round" stroke-miterlimit="10" x1="120.3" y1="142" x2="105.8" y2="142"/>
			
				<use xlink:href="#XMLID_2432_"  overflow="visible" fill="none" stroke="#B5935B" stroke-linejoin="round" stroke-miterlimit="10"/>
		</g>
		
			<use xlink:href="#XMLID_2431_"  overflow="visible" fill="none" stroke="#B5935B" stroke-linejoin="round" stroke-miterlimit="10"/>
	</g>
	<g>
		<path fill="#FFFFFF" stroke="#B5935B" stroke-linejoin="round" stroke-miterlimit="10" d="M127.3,37.1c0,1.9-2.7,3.4-6,3.4
			c-3.3,0-6-1.5-6-3.4s2.7-4.4,6-4.4C124.6,32.7,127.3,35.2,127.3,37.1z"/>
		<g>
			<defs>
				<path id="XMLID_2430_" d="M138.5,55.7c-0.8-10-5.7-18.4-17.4-18.2c-11.8,0.2-16.6,8.3-17.4,18.2H138.5z"/>
			</defs>
			<use xlink:href="#XMLID_2430_"  overflow="visible" fill="#FFFFFF"/>
			<clipPath id="XMLID_5_">
				<use xlink:href="#XMLID_2430_"  overflow="visible"/>
			</clipPath>
			<path clip-path="url(#XMLID_5_)" fill="none" stroke="#B5935B" stroke-linejoin="round" stroke-miterlimit="10" d="M110.2,60
				c0,0-1.1-22.1,10.6-22.4c13.5-0.3,11.6,22.8,11.6,22.8"/>
			<path clip-path="url(#XMLID_5_)" fill="none" stroke="#B5935B" stroke-linejoin="round" stroke-miterlimit="10" d="M116.3,60
				c0,0-0.5-22.1,4.7-22.4c5.9-0.3,5.1,22.8,5.1,22.8"/>
			
				<use xlink:href="#XMLID_2430_"  overflow="visible" fill="none" stroke="#B5935B" stroke-linejoin="round" stroke-miterlimit="10"/>
		</g>
		
			<rect x="101.8" y="54.1" fill="#FFFFFF" stroke="#B5935B" stroke-linejoin="round" stroke-miterlimit="10" width="38.6" height="3.5"/>
		
			<rect x="113" y="35.8" fill="#FFFFFF" stroke="#B5935B" stroke-linejoin="round" stroke-miterlimit="10" width="16.1" height="3.6"/>
		<line fill="none" stroke="#B5935B" stroke-linejoin="round" stroke-miterlimit="10" x1="121.3" y1="32.7" x2="121.3" y2="26.8"/>
	</g>
	<g>
		<g>
			<defs>
				<rect id="XMLID_2429_" x="126.2" y="67" width="15.1" height="47.8"/>
			</defs>
			<clipPath id="XMLID_6_">
				<use xlink:href="#XMLID_2429_"  overflow="visible"/>
			</clipPath>
			
				<line clip-path="url(#XMLID_6_)" fill="none" stroke="#B5935B" stroke-linejoin="round" stroke-miterlimit="10" x1="128.8" y1="115.1" x2="128.8" y2="70.1"/>
			
				<line clip-path="url(#XMLID_6_)" fill="none" stroke="#B5935B" stroke-linejoin="round" stroke-miterlimit="10" x1="131.7" y1="114.5" x2="131.7" y2="69.5"/>
			
				<use xlink:href="#XMLID_2429_"  overflow="visible" fill="none" stroke="#B5935B" stroke-linejoin="round" stroke-miterlimit="10"/>
		</g>
		<rect x="97.4" y="67" fill="#FFFFFF" stroke="#B5935B" stroke-linejoin="round" stroke-miterlimit="10" width="50.5" height="5"/>
	</g>
	<line fill="none" stroke="#B5935B" stroke-linejoin="round" stroke-miterlimit="10" x1="121.1" y1="105.5" x2="120.8" y2="72"/>
	<line fill="none" stroke="#B5935B" stroke-linejoin="round" stroke-miterlimit="10" x1="116.6" y1="105.7" x2="116.3" y2="72.2"/>
	<polyline fill="none" stroke="#B5935B" stroke-linejoin="round" stroke-miterlimit="10" points="101.8,71.9 101.8,94.2 116.3,94.2 
			"/>
	<line fill="none" stroke="#B5935B" stroke-linejoin="round" stroke-miterlimit="10" x1="116.3" y1="105.5" x2="126.2" y2="105.5"/>
	<line fill="none" stroke="#B5935B" stroke-linejoin="round" stroke-miterlimit="10" x1="105.8" y1="144" x2="113.9" y2="144"/>
	<line fill="none" stroke="#B5935B" stroke-linejoin="round" stroke-miterlimit="10" x1="105.8" y1="146" x2="113.9" y2="146"/>
	<line fill="none" stroke="#B5935B" stroke-linejoin="round" stroke-miterlimit="10" x1="124.3" y1="156.5" x2="124.3" y2="167.7"/>
	<line fill="none" stroke="#B5935B" stroke-linejoin="round" stroke-miterlimit="10" x1="126.7" y1="167.9" x2="126.7" y2="156.5"/>
	<line fill="none" stroke="#B5935B" stroke-linejoin="round" stroke-miterlimit="10" x1="128.8" y1="168.1" x2="128.8" y2="156.8"/>
	<line fill="none" stroke="#B5935B" stroke-linejoin="round" stroke-miterlimit="10" x1="110" y1="121.7" x2="147.8" y2="121.7"/>
	<line fill="none" stroke="#B5935B" stroke-linejoin="round" stroke-miterlimit="10" x1="99.1" y1="152.8" x2="99.1" y2="172.3"/>
	<line fill="none" stroke="#B5935B" stroke-linejoin="round" stroke-miterlimit="10" x1="96.3" y1="152.8" x2="96.3" y2="172.3"/>
	<line fill="none" stroke="#B5935B" stroke-linejoin="round" stroke-miterlimit="10" x1="128.8" y1="134.1" x2="143.7" y2="134.1"/>
	<line fill="none" stroke="#B5935B" stroke-linejoin="round" stroke-miterlimit="10" x1="104.4" y1="93.5" x2="104.4" y2="72.4"/>
	<line fill="none" stroke="#B5935B" stroke-linejoin="round" stroke-miterlimit="10" x1="107.1" y1="93.8" x2="107.1" y2="72.2"/>
	<line fill="none" stroke="#B5935B" stroke-linejoin="round" stroke-miterlimit="10" x1="109.8" y1="93.7" x2="109.8" y2="72"/>
	<line fill="none" stroke="#B5935B" stroke-linejoin="round" stroke-miterlimit="10" x1="112.4" y1="93.8" x2="112.4" y2="72.3"/>
	<ellipse fill="#FFFFFF" stroke="#B5935B" stroke-linejoin="round" stroke-miterlimit="10" cx="46" cy="109.3" rx="16.1" ry="16"/>
	
		<ellipse fill="#FFFFFF" stroke="#B5935B" stroke-linejoin="round" stroke-miterlimit="10" cx="46" cy="109.3" rx="13.5" ry="13.3"/>
	
		<ellipse fill="#B5935B" stroke="#B5935B" stroke-linejoin="round" stroke-miterlimit="10" cx="46.2" cy="109.3" rx="11.1" ry="11"/>
	<g>
		<defs>
			<rect id="XMLID_2439_" x="47.2" y="102" width="23" height="15.5"/>
		</defs>
		<use xlink:href="#XMLID_2439_"  overflow="visible" fill="#FFFFFF"/>
		<clipPath id="XMLID_7_">
			<use xlink:href="#XMLID_2439_"  overflow="visible"/>
		</clipPath>
		<path clip-path="url(#XMLID_7_)" fill="#FFFFFF" stroke="#B5935B" stroke-linejoin="round" stroke-miterlimit="10" d="M47.3,122.3
			c0-0.3-0.2-5-0.2-5l6.4-11.8h10.8l6.7,13.2"/>
		<polyline clip-path="url(#XMLID_7_)" fill="#FFFFFF" stroke="#B5935B" stroke-linejoin="round" stroke-miterlimit="10" points="
			49.1,99 47.2,102 58.7,112.7 70.7,101.3 69.2,98.4 		"/>
		
			<use xlink:href="#XMLID_2439_"  overflow="visible" fill="none" stroke="#B5935B" stroke-linejoin="round" stroke-miterlimit="10"/>
	</g>
	<circle fill="#FFFFFF" stroke="#B5935B" stroke-linejoin="round" stroke-miterlimit="10" cx="19.4" cy="150" r="2.6"/>
	<g>
		
			<ellipse fill="#FFFFFF" stroke="#B5935B" stroke-width="4" stroke-linejoin="round" stroke-miterlimit="10" cx="45.6" cy="15.4" rx="13.5" ry="13.4"/>
		<ellipse fill="#FFFFFF" stroke="#B5935B" stroke-linejoin="round" stroke-miterlimit="10" cx="45.6" cy="15.4" rx="9" ry="8.8"/>
	</g>
	<circle fill="#FFFFFF" stroke="#B5935B" stroke-linejoin="round" stroke-miterlimit="10" cx="45.6" cy="31.3" r="2.6"/>
	<line fill="none" stroke="#B5935B" stroke-linejoin="round" stroke-miterlimit="10" x1="69.7" y1="109.8" x2="125.5" y2="109.8"/>
	<polygon fill="#FFFFFF" stroke="#B5935B" stroke-linejoin="round" stroke-miterlimit="10" points="41.5,80.4 45.5,89.4 49.2,80.5 	
		"/>
	<polygon fill="#FFFFFF" stroke="#B5935B" stroke-linejoin="round" stroke-miterlimit="10" points="80.5,114.1 89.4,109.8 
		80.4,106.4 	"/>
	<g>
		<path fill="#B5935B" d="M44.6,17.3v-0.5c0-0.4,0.1-0.8,0.3-1.1c0.2-0.3,0.5-0.7,1-1c0.5-0.3,0.8-0.6,0.9-0.8
			c0.2-0.2,0.2-0.5,0.2-0.7c0-0.3-0.1-0.5-0.3-0.7c-0.2-0.2-0.5-0.2-0.9-0.2c-0.7,0-1.5,0.2-2.3,0.7l-0.7-1.5c1-0.6,2.1-0.9,3.2-0.9
			c0.9,0,1.7,0.2,2.2,0.7c0.6,0.5,0.8,1.1,0.8,1.8c0,0.5-0.1,0.9-0.3,1.3c-0.2,0.4-0.7,0.8-1.3,1.2c-0.4,0.3-0.7,0.6-0.8,0.7
			c-0.1,0.2-0.2,0.4-0.2,0.7v0.4H44.6z M44.4,19.7c0-0.4,0.1-0.7,0.3-0.9c0.2-0.2,0.5-0.3,0.9-0.3c0.4,0,0.7,0.1,0.9,0.3
			c0.2,0.2,0.3,0.5,0.3,0.9c0,0.4-0.1,0.6-0.3,0.9s-0.5,0.3-0.9,0.3c-0.4,0-0.7-0.1-0.9-0.3C44.5,20.3,44.4,20,44.4,19.7z"/>
	</g>
</g>
</svg>
