<?xml version="1.0" encoding="utf-8"?>
<!-- Generator: Adobe Illustrator 18.1.1, SVG Export Plug-In . SVG Version: 6.00 Build 0)  -->
<!DOCTYPE svg PUBLIC "-//W3C//DTD SVG 1.1//EN" "http://www.w3.org/Graphics/SVG/1.1/DTD/svg11.dtd" [
	<!ENTITY ns_extend "http://ns.adobe.com/Extensibility/1.0/">
	<!ENTITY ns_ai "http://ns.adobe.com/AdobeIllustrator/10.0/">
	<!ENTITY ns_graphs "http://ns.adobe.com/Graphs/1.0/">
	<!ENTITY ns_vars "http://ns.adobe.com/Variables/1.0/">
	<!ENTITY ns_imrep "http://ns.adobe.com/ImageReplacement/1.0/">
	<!ENTITY ns_sfw "http://ns.adobe.com/SaveForWeb/1.0/">
	<!ENTITY ns_custom "http://ns.adobe.com/GenericCustomNamespace/1.0/">
	<!ENTITY ns_adobe_xpath "http://ns.adobe.com/XPath/1.0/">
]>
<svg version="1.1" id="Layer_1" xmlns:x="&ns_extend;" xmlns:i="&ns_ai;" xmlns:graph="&ns_graphs;"
	 xmlns="http://www.w3.org/2000/svg" xmlns:xlink="http://www.w3.org/1999/xlink" x="0px" y="0px" viewBox="0 0 242.1 242.1"
	 enable-background="new 0 0 242.1 242.1" xml:space="preserve">
<metadata>
	<sfw  xmlns="&ns_sfw;">
		<slices></slices>
		<sliceSourceBounds  width="242.1" height="242.7" y="-496.5" x="554.4" bottomLeftOrigin="true"></sliceSourceBounds>
	</sfw>
</metadata>
<g>
	<g>
		<g>
			
				<circle fill="#B5935B" stroke="#B5935B" stroke-linecap="round" stroke-linejoin="round" stroke-miterlimit="10" cx="119.9" cy="122.2" r="119.4"/>
			
				<circle fill="#041944" stroke="#B5935B" stroke-linecap="round" stroke-linejoin="round" stroke-miterlimit="10" cx="119.9" cy="122.2" r="109.4"/>
			<g>
				<defs>
					<ellipse id="XMLID_87_" cx="120" cy="121.8" rx="103" ry="103"/>
				</defs>
				<use xlink:href="#XMLID_87_"  overflow="visible" fill="#041944"/>
				<clipPath id="XMLID_2_">
					<use xlink:href="#XMLID_87_"  overflow="visible"/>
				</clipPath>
				
					<line clip-path="url(#XMLID_2_)" fill="none" stroke="#B5935B" stroke-linecap="round" stroke-linejoin="round" stroke-miterlimit="10" x1="41.8" y1="49.3" x2="78.1" y2="49.3"/>
				
					<line clip-path="url(#XMLID_2_)" fill="none" stroke="#B5935B" stroke-linecap="round" stroke-linejoin="round" stroke-miterlimit="10" x1="45.8" y1="82.6" x2="120.8" y2="82.6"/>
				
					<line clip-path="url(#XMLID_2_)" fill="none" stroke="#B5935B" stroke-linecap="round" stroke-linejoin="round" stroke-miterlimit="10" x1="176.8" y1="171" x2="227.1" y2="171"/>
				
					<path clip-path="url(#XMLID_2_)" fill="none" stroke="#B5935B" stroke-linecap="round" stroke-linejoin="round" stroke-miterlimit="10" d="
					M136.8,158.5h6.1c14.4,0,27.3,8.9,32.5,22.3l22.4,57.7"/>
				
					<path clip-path="url(#XMLID_2_)" fill="none" stroke="#B5935B" stroke-linecap="round" stroke-linejoin="round" stroke-miterlimit="10" d="
					M56.2,128.4c0.1,0.4,0.2,0.8,0.3,1.2c4.2,14.7,16.3,25.5,30.9,28.2"/>
				
					<path clip-path="url(#XMLID_2_)" fill="none" stroke="#B5935B" stroke-linecap="round" stroke-linejoin="round" stroke-miterlimit="10" d="
					M22.3,8c0,0.9,16.8,60.1,29.3,104"/>
				
					<line clip-path="url(#XMLID_2_)" fill="none" stroke="#B5935B" stroke-linecap="round" stroke-linejoin="round" stroke-miterlimit="10" x1="179.2" y1="179.9" x2="200.3" y2="234.5"/>
				
					<path clip-path="url(#XMLID_2_)" fill="none" stroke="#B5935B" stroke-linecap="round" stroke-linejoin="round" stroke-miterlimit="10" d="
					M141.1,154.5h0.9c8.1,0,15.8,2.5,22.2,6.8"/>
				
					<path clip-path="url(#XMLID_2_)" fill="none" stroke="#B5935B" stroke-linecap="round" stroke-linejoin="round" stroke-miterlimit="10" d="
					M59.1,125.6c0.2,0.8,0.4,1.5,0.7,2.3c3.9,13.7,15.3,23.7,29,26"/>
				
					<path clip-path="url(#XMLID_2_)" fill="none" stroke="#B5935B" stroke-linecap="round" stroke-linejoin="round" stroke-miterlimit="10" d="
					M24.8,4c0,1,17.1,61.2,29.6,105.1"/>
				
					<circle clip-path="url(#XMLID_2_)" fill="#041944" stroke="#B5935B" stroke-linecap="round" stroke-linejoin="round" stroke-miterlimit="10" cx="45" cy="82.7" r="7.8"/>
				
					<circle clip-path="url(#XMLID_2_)" fill="#041944" stroke="#B5935B" stroke-linecap="round" stroke-linejoin="round" stroke-miterlimit="10" cx="171.8" cy="171.2" r="6"/>
				
					<line clip-path="url(#XMLID_2_)" fill="none" stroke="#B5935B" stroke-linecap="round" stroke-linejoin="round" stroke-miterlimit="10" x1="78.8" y1="82.3" x2="78.8" y2="0"/>
				
					<line clip-path="url(#XMLID_2_)" fill="none" stroke="#B5935B" stroke-linecap="round" stroke-linejoin="round" stroke-miterlimit="10" x1="181" y1="196.1" x2="121.1" y2="196.1"/>
				
					<line clip-path="url(#XMLID_2_)" fill="none" stroke="#B5935B" stroke-linecap="round" stroke-linejoin="round" stroke-miterlimit="10" x1="120" y1="180.6" x2="120" y2="238.6"/>
				
					<circle clip-path="url(#XMLID_2_)" fill="#041944" stroke="#B5935B" stroke-linecap="round" stroke-linejoin="round" stroke-miterlimit="10" cx="120.1" cy="195.6" r="3"/>
				
					<circle clip-path="url(#XMLID_2_)" fill="#041944" stroke="#B5935B" stroke-linecap="round" stroke-linejoin="round" stroke-miterlimit="10" cx="119.8" cy="180.3" r="3"/>
				
					<circle clip-path="url(#XMLID_2_)" fill="#041944" stroke="#B5935B" stroke-linecap="round" stroke-linejoin="round" stroke-miterlimit="10" cx="194.5" cy="171" r="3"/>
				
					<circle clip-path="url(#XMLID_2_)" fill="#041944" stroke="#B5935B" stroke-linecap="round" stroke-linejoin="round" stroke-miterlimit="10" cx="171.8" cy="171.3" r="3"/>
				
					<circle clip-path="url(#XMLID_2_)" fill="#041944" stroke="#B5935B" stroke-linecap="round" stroke-linejoin="round" stroke-miterlimit="10" cx="45.1" cy="82.6" r="3"/>
				
					<circle clip-path="url(#XMLID_2_)" fill="#041944" stroke="#B5935B" stroke-linecap="round" stroke-linejoin="round" stroke-miterlimit="10" cx="78.5" cy="49.6" r="3"/>
				
					<line clip-path="url(#XMLID_2_)" fill="none" stroke="#B5935B" stroke-linecap="round" stroke-linejoin="round" stroke-miterlimit="10" x1="147.8" y1="196" x2="147.8" y2="158.6"/>
				
					<line clip-path="url(#XMLID_2_)" fill="none" stroke="#B5935B" stroke-linecap="round" stroke-linejoin="round" stroke-miterlimit="10" x1="78.8" y1="35.6" x2="214.1" y2="35.6"/>
				
					<line clip-path="url(#XMLID_2_)" fill="none" stroke="#B5935B" stroke-linecap="round" stroke-linejoin="round" stroke-miterlimit="10" x1="119.5" y1="213" x2="12.8" y2="213"/>
				
					<use xlink:href="#XMLID_87_"  overflow="visible" fill="none" stroke="#B5935B" stroke-linecap="round" stroke-linejoin="round" stroke-miterlimit="10"/>
			</g>
		</g>
		
			<circle fill="#041944" stroke="#B5935B" stroke-linecap="round" stroke-linejoin="round" stroke-miterlimit="10" cx="167.4" cy="12.8" r="2.9"/>
		
			<circle fill="#041944" stroke="#B5935B" stroke-linecap="round" stroke-linejoin="round" stroke-miterlimit="10" cx="238.7" cy="113.3" r="2.9"/>
		
			<circle fill="#041944" stroke="#B5935B" stroke-linecap="round" stroke-linejoin="round" stroke-miterlimit="10" cx="64.2" cy="228.9" r="2.9"/>
		<path fill="#041944" stroke="#B5935B" stroke-linecap="round" stroke-linejoin="round" stroke-miterlimit="10" d="M74.4,234.8
			c-0.1-3.3,2.2-6.1,5.3-6.2c3-0.1,5.6,2.4,5.7,5.7c0.1,3.3-2.2,6.1-5.3,6.2C77.1,240.7,74.5,238.1,74.4,234.8z"/>
		<path fill="#041944" stroke="#B5935B" stroke-linecap="round" stroke-linejoin="round" stroke-miterlimit="10" d="M146.8,6.7
			c-0.1-3.3,2.2-6.1,5.3-6.2c3-0.1,5.6,2.4,5.7,5.7c0.1,3.3-2.2,6.1-5.3,6.2C149.5,12.6,146.9,10,146.8,6.7z"/>
		
			<circle fill="#041944" stroke="#B5935B" stroke-linecap="round" stroke-linejoin="round" stroke-miterlimit="10" cx="175.8" cy="227.5" r="3.5"/>
	</g>
	<g>
		<path fill="#041944" stroke="#B5935B" stroke-linecap="round" stroke-linejoin="round" stroke-miterlimit="10" d="M135.7,61.6
			c-26.5-4.1-107.5,80.6-107.5,80.6s45.1-39.5,62.6-31.8c13.5,5.9-1.9,36.9-1.9,36.9C103.8,131,162.2,65.7,135.7,61.6"/>
		<path fill="#B5935B" stroke="#B5935B" stroke-linecap="round" stroke-linejoin="round" stroke-miterlimit="10" d="M96.4,174
			c26.5,4.1,107.5-80.6,107.5-80.6s-45.1,39.5-62.6,31.8c-13.5-5.9,1.9-36.9,1.9-36.9C128.3,104.6,69.9,169.9,96.4,174"/>
		<path fill="#041944" stroke="#B5935B" stroke-linecap="round" stroke-linejoin="round" stroke-miterlimit="10" d="M98.8,114.2
			c2-9.6,11.4-15.7,20.9-13.7c9.6,2,15.7,11.4,13.7,20.9c-2,9.6-11.4,15.7-20.9,13.7C102.9,133.1,96.7,123.7,98.8,114.2"/>
		<path fill="#B5935B" stroke="#B5935B" stroke-linecap="round" stroke-linejoin="round" stroke-miterlimit="10" d="M119.7,100.5
			c-9.6-2-18.9,4.1-20.9,13.7c-1.5,7.4,1.7,14.6,7.7,18.5l19.2-29.7C123.9,101.8,121.9,101,119.7,100.5"/>
		<g>
			<path fill="#041944" stroke="#B5935B" stroke-linecap="round" stroke-linejoin="round" stroke-miterlimit="10" d="M106.4,109.7
				c0.2-0.1,0.3-0.1,0.4-0.1c0.1,0,0.3-0.1,0.3-0.2s-0.3,0-0.3-0.1c0-0.1,0.1-0.2-0.1-0.2c-0.2,0-0.2,0.2-0.3,0.2
				c-0.2,0-0.4,0-0.4,0c-0.1,0.1,0.2,0.3,0.2,0.4C106.1,109.7,106.2,109.7,106.4,109.7z"/>
			<path fill="#041944" stroke="#B5935B" stroke-linecap="round" stroke-linejoin="round" stroke-miterlimit="10" d="M106,111
				c0.2-0.1,0.3-0.1,0.6-0.4c0.3-0.3,0.5-0.7,0.8-0.8c0.3-0.1,0.4-0.2,0.6-0.3c0.2-0.1,0.2-0.3-0.1-0.3c-0.4,0.1-0.6,0.3-0.7,0.3
				c-0.1,0.1,0,0.3-0.3,0.4c-0.3,0.1-0.4-0.1-0.6,0c-0.2,0.1-0.6,0.2-0.6,0.2C105.8,110.5,105.8,111,106,111z"/>
			<path fill="#041944" stroke="#B5935B" stroke-linecap="round" stroke-linejoin="round" stroke-miterlimit="10" d="M130.4,118.5
				c-0.1-0.4-0.1-0.9-0.3-1c-0.2-0.2-0.3-0.3-0.1-0.5c0.2-0.2,0.1-0.3,0.1-0.6c0-0.3-0.1-0.2-0.3-0.1c-0.2,0.1-0.5,0-0.4,0.1
				c0.1,0.2,0.2,0.4,0.1,0.6c0,0.2,0.2,0.4,0.3,0.5c0.1,0.2,0.2,0.5,0.2,0.9c0.1,0.4-0.2,0.7-0.3,1c-0.1,0.2-0.5,0.6-0.7,0.8
				c-0.2,0.2-0.1,0.3-0.2,0.6c0,0,0.1,0.3,0.3,0.5c0.2,0.2,0.2-0.3,0.2-0.6c0-0.3,0.4-0.5,0.7-0.9
				C130.3,119.3,130.4,119,130.4,118.5z"/>
			<path fill="#041944" stroke="#B5935B" stroke-linecap="round" stroke-linejoin="round" stroke-miterlimit="10" d="M128.7,118
				c0.1-0.3,0.2-1,0.1-1.5c0-0.5-0.3-1-0.5-1.2c-0.1-0.3-0.1-0.6-0.4-0.7c-0.3,0-0.3,0.4-0.4,0.4c-0.1,0-0.5,0.1-0.4-0.2
				c0-0.3,0-1.1-0.1-1.3c0-0.2-0.1-0.4,0.2-0.6c0.2-0.2,0-0.4,0.2-0.5c0.1-0.1,0.5-0.2,0.4-0.4c-0.1-0.2-0.4-0.3-0.4-0.6
				c-0.1-0.3-0.1-0.5,0-0.4c0.1,0.1,0.3-0.1,0.1-0.3c-0.1-0.1-0.4-0.7,0.1-0.1c0.5,0.6,0.3,0.6,0.5,1c0.2,0.4,0.1,0.8,0.8,1.2
				c0.7,0.4,0.8,0.5,0.4-0.4c-0.4-0.9-0.7-1-0.9-1.1c-0.2-0.2-0.5-0.5-0.6-0.7c-0.1-0.2,0.2-0.5-0.1-0.8c-0.3-0.3-0.5-1-0.5-1
				c0-0.1-0.5-0.1-0.5,0c0,0.2-0.1,0-0.2-0.2c-0.1-0.2-0.4-0.2-0.2-0.5c0.3-0.2,0.1-0.3-0.1-0.4c-0.2-0.2-0.4-0.3-0.4,0
				c0,0.3-0.4,0.3-0.5,0.7c-0.1,0.3-0.3,0.7-0.1,0.7c0.3,0,0.2,0.7,0,0.8c-0.2,0.1-0.6,0-0.7,0.3c-0.1,0.4-0.3,0.1-0.6,0.3
				c-0.4,0.2-0.4,0.4-0.2,0.5c0.1,0.1,0,0.3-0.2,0.4c-0.2,0.1,0,0.4-0.3,0.2c-0.3-0.2-0.3-0.4-0.7-0.3c-0.3,0.1,0,0.3-0.2,0.3
				c-0.2,0-0.4-0.1-0.7,0.1c-0.3,0.2-0.8,0.6-0.5,0c0.3-0.6,0.1-0.7-0.1-0.7c-0.2,0-0.4,0.2-0.5,0c-0.1-0.2-0.2-0.2-0.3,0.1
				c-0.1,0.3-0.3,0.3-0.6,0.4c-0.3,0.1-0.6,0.2-0.5,0.4c0.1,0.2,0.1,0.3-0.1,0.3c-0.3,0-0.4,0.2-0.3,0.4c0.1,0.2-0.2-0.3-0.5-0.2
				c-0.3,0.1-0.4-0.4-0.6-0.3c-0.2,0.1-0.7,0.5-0.6,0.8c0.1,0.4-0.1,0.3-0.4,0c-0.3-0.3-0.3,0.1-0.6,0.1c-0.3,0-0.4-0.4-0.8-0.3
				c-0.4,0.1-0.7,0-1.2,0.1c-0.5,0.2-1.2,0.3-1.3,0.1c-0.1-0.2,0.2-0.6,0.2-1c0.1-0.4,0.2,0.7,0.5,0.6c0.3-0.1,0.6,0,0.6-0.4
				c0-0.4-0.5-0.8-0.4-0.9c0.1-0.1,0.5-0.2,0.2-0.5c-0.4-0.3-1.1-0.5-1.9-0.4c-0.8,0.1-1.4,0.2-1.6,0.1c-0.2-0.1-0.4-0.3-0.8-0.2
				c-0.3,0.2-1.1,0.4-1,0.6c0.1,0.2,0.5,0.3,0.6,0.3c0.1,0-0.1,0.1-0.2,0.3c-0.2,0.2-0.2,0.5-0.4,0.4c-0.2,0-0.6-0.1-0.4-0.2
				c0.2-0.1,0.6-0.2,0.6-0.3c0-0.1-0.1-0.2-0.3-0.1c-0.2,0.1-0.5,0.2-0.7,0.4c-0.2,0.2-0.5,0.1-0.5-0.1c0-0.2-0.1-0.3-0.3-0.2
				c-0.2,0-0.5,0-0.6-0.1c-0.2-0.1-0.4,0.1-0.5-0.1c-0.1-0.2,0-0.2-0.2-0.3c-0.2-0.1-0.1-0.4-0.3-0.3c-0.2,0.1-0.1,0.4-0.3,0.7
				c-0.2,0.3-0.7,0.6-0.9,0.6c-0.1,0-0.1-0.5-0.1-0.8c0-0.2-0.1-0.5-0.2-0.5c-0.1,0-0.5,0.4-0.8,0.4c-0.3,0.1-0.4,0.2-0.5,0.3
				c-0.2,0.1-0.3,0.2-0.3,0.3c0,0.2-0.3,0.6-0.2,0.7c0.1,0.1,0.3,0.2,0.3,0.4c0,0.2,0.5,0.2,0.5,0.2c0.1,0,0.3-0.2,0.5-0.2
				c0.2,0,0.5,0.3,0.6,0.2c0.1-0.1,0.2-0.3,0.4-0.2c0.2,0.1,0,0.5,0.1,0.5c0.1,0,0.5,0.1,0.6,0.2c0,0.1,0.1,0.3,0,0.4
				c-0.1,0.1-0.3,0.2-0.3,0.5c0,0.2-0.1,0.5-0.1,0.7c0,0.2,0,0.6-0.2,0.6c-0.1,0.1-0.4,0.1-0.4,0.2c0.1,0.1,0.3,0.1,0.5,0
				c0.1-0.1,0.3-0.4,0.3-0.3c0.1,0.1-0.1,0.3,0,0.3c0.1,0,0.2-0.2,0.2-0.4c0-0.3-0.1-0.7,0-0.9c0.2-0.2,0.1-0.5,0.2-0.5
				c0.1-0.1,0.3-0.2,0.4-0.1c0.1,0.2-0.2,0.3-0.2,0.6c0,0.3-0.1,0.7-0.1,0.9c0,0.2,0,0.4-0.2,0.5c-0.2,0.1-0.3,0.5-0.3,0.6
				c0,0.1-0.3,0.2-0.3,0.4c0,0.3-0.1,0.5,0,0.5c0.1,0,0.3-0.4,0.4-0.3c0.1,0.1,0.4,0.1,0.3-0.2c0-0.2,0.1-0.6,0.2-0.5
				c0.1,0.1,0.4,0.2,0.6,0.3c0.2,0.1,0.6-0.1,0.6-0.1c0.3,0,0.6-0.2,0.7-0.3c0.1,0,0.3-0.2,0.6-0.2c0.3,0.1,0.4,0.4,0.4,0.5
				c0,0.1-0.3-0.1-0.3,0.1c0,0.2-0.3,0.3-0.2,0.3c0.1,0.1,0.7,0.2,0.7,0.1c0-0.1-0.1-0.4,0-0.4c0.2,0,1,0.1,0.9,0.2
				c-0.1,0.1-0.7,0.2-0.7,0.4c0,0.2,0.3,0.8,0.2,1.1c-0.1,0.2-0.1,0.4-0.4,0.3c-0.3-0.1-0.9-0.3-0.8-0.5c0.1-0.2-0.2-0.4-0.4-0.6
				c-0.2-0.2-0.6-0.2-0.7-0.3c-0.1-0.1-0.2-0.3-0.2-0.3c0-0.1-0.1-0.3-0.2-0.3c-0.1,0-0.2,0.2-0.3,0.2c-0.2,0-0.7,0.4-0.6,0.8
				c0.1,0.4,0.2,0.8,0.4,0.7c0.1-0.1,0.3-0.1,0.3,0.1c0.1,0.2,0.3,0.4,0.6,0.4c0.2,0.1,0.2,0.2,0.1,0.3c-0.1,0.1,0,0.3-0.3,0.4
				c-0.3,0.1-0.7,0.5-0.8,0.5c-0.2,0-0.5-0.3-0.5-0.3c-0.1,0.1-0.2,0.5-0.2,0.8c0,0.3,0.1,0.4,0.3,0.2c0.2-0.2,0.1,0,0.1,0.3
				c0,0.2,0,1.6,0,1.8c-0.1,0.2,0,0.5,0,1c0,0.4,0.2,0.7,0.1,0.9c-0.1,0.2-0.4,0.7-0.1,0.8c0.2,0.1,1.4,0.5,1.6,0.4
				c0.2,0,0.9,0.1,1,0.1c0.1,0,0.1-0.2,0.6-0.1c0.5,0.1,1.3,0,1.4-0.1c0.1-0.1,0.8-0.5,0.8-0.6c0-0.1-0.1-0.3-0.3-0.5
				c-0.2-0.1-0.5-0.3-0.4-0.5c0.1-0.2,0-0.2-0.3-0.1c-0.3,0.1-0.4,0.2-0.7,0.1c-0.2-0.1-0.4-0.1-0.4-0.3c0-0.2,0-0.4-0.1-0.7
				c-0.1-0.3-0.2-0.9-0.1-1c0.1-0.1,0.5,0.1,0.6,0.2c0.1,0.1,0.1,0.6,0.2,0.8c0.1,0.2,0.2,0.5,0.5,0.6c0.3,0,0.6-0.1,0.6,0.1
				c0,0.2-0.2,0.3,0.7,0.7c0.9,0.4,1.8,0.4,1.8,0.5c0,0.1,0,0.4,0.2,0.5c0.2,0.1,0.1,0.3,0.3,0.3c0.2,0-0.2,0.1,0,0.2
				c0.1,0.1,0.1,0.4,0.3,0.4c0.2,0,0.5-0.4,0.6-0.3c0.1,0.1-0.1,0.4-0.1,0.8c0,0.4-0.2,0.6,0,0.9c0.1,0.3,0.1,0.7,0.2,0.9
				c0.1,0.2,0.1,0.4,0.2,0.5c0.1,0.2,0.2,0.3,0.2,0.3c0.2,0,0.3-0.1,0.3-0.1c0-0.1,0.3-0.1,0.3-0.1c0.1-0.1,0.2-0.1,0.2-0.1
				c0-0.1,0.1-0.3,0.2-0.4c0.1-0.1,0.1-0.1,0.1-0.4c0.1-0.3,0.2-0.4,0.3-0.4c0.1,0,0.1-0.1,0.3-0.1c0.1,0,0.2,0,0.3-0.1
				c0.1-0.1,0.1-0.1,0.3-0.2c0.2-0.1,0.6-0.4,0.7-0.4c0.1-0.1,0.6-0.2,0.6-0.3c0.1-0.1-0.1-0.2,0.4-0.3c0.5,0,1-0.4,1.1-0.3
				c0.1,0.1,0,0.4,0.2,0.6c0.2,0.1,0.5,0.4,0.4,0.6c-0.1,0.2-0.2,0.4-0.1,0.4c0.1,0,0.5-0.1,0.6-0.2c0.1-0.1,0.2-0.3,0.3-0.1
				c0.1,0.2,0.2,0.8,0.2,1c0,0.2,0,0.3,0.2,0.2c0.1-0.1,0.2-0.7,0.4-0.6c0.2,0,0.4,0.1,0.6,0.3c0.2,0.2,0.4,0.1,0.5,0.2
				c0,0.1,0.1,0.1,0.4-0.1c0.3-0.2,0.9-0.3,1-0.7c0-0.4,0-0.7-0.4-0.8c-0.3-0.1-0.6-0.4-0.5-0.6c0.1-0.2,0.4-0.6,0.7-0.7
				c0.4-0.1,0.5,0.1,1-0.3c0.5-0.4,1.3-0.9,1.4-1.1c0.2-0.2,0.6-1.3,0.7-1.7c0.1-0.4-0.2-0.2-0.1-0.4c0.1-0.2,0.1-0.4-0.1-0.5
				c-0.2-0.2-0.4-0.2-0.4-0.3c0-0.1,0-0.5,0.2-0.7c0.2-0.1,0.4-0.4,0.1-0.3c-0.3,0.1-0.3,0.5-0.5,0.4c-0.1-0.1-0.6-0.2-0.4-0.4
				c0.2-0.2,0.3-0.3,0.4-0.6c0.1-0.2,0.3-0.4,0.3-0.2c0,0.2-0.1,0.5,0.3,0.1c0.4-0.4,0.5-0.2,0.5,0c0,0.2,0,0.3,0.2,0.2
				c0.2-0.1,0.1,0.3,0.2,0.4c0.1,0.1,0,0.5,0.2,0.4c0.2-0.1,0.5-0.5,0.4-0.8c-0.1-0.3-0.4-0.5-0.6-0.6c-0.2-0.1,0.1-0.3,0.1-0.6
				c0.1-0.2-0.1-0.3,0-0.6C128.4,118.1,128.6,118.3,128.7,118z M111.3,118.7c-0.2,0-0.1,0.2-0.3,0.1c-0.2,0-0.1,0-0.1,0.3
				c0,0.2,0.3,0.1,0.2,0.3c-0.1,0.2-0.2,0.3-0.2,0.4c0,0.1,0.3-0.3,0.3-0.1c0.1,0.2,0,0.3,0,0.4c-0.1,0.1-0.4-0.2-0.4-0.1
				c0,0.1,0,0.1,0,0.4c0,0.2-0.1,0.6-0.3,0.7c-0.1,0.1-0.4,0-0.6-0.1c-0.2-0.2-0.4-0.6-0.4-0.6c0.1-0.2,0.4-0.6,0.6-0.5
				c0.2,0-0.3-0.5-0.2-0.7c0.1-0.2,0.2-0.4,0.2-0.6c0-0.2-0.1-0.3,0.6-0.4c0.7,0,1.1,0,1,0.2C111.8,118.7,111.4,118.8,111.3,118.7z
				 M111.8,111.6c-0.2,0.1-0.8,0-1,0.1c-0.2,0.1-0.5,0.3-0.6,0.5c-0.1,0.2,0.1,0.3,0.3,0.4c0.2,0.1,0.3,0.3,0.3,0.4
				c0,0-0.2,0.1-0.3,0c-0.2-0.1-0.3-0.3-0.5-0.3c-0.2,0-0.1,0.2-0.3,0.3c-0.1,0.1-0.2,0.2-0.3,0.1c-0.1-0.1,0-0.3-0.2-0.3
				c-0.2,0-0.3,0.2-0.5,0.3c-0.2,0.1-0.4,0-0.4-0.1c0-0.1,0-0.3-0.3-0.3c-0.2,0-0.3-0.2-0.3-0.3c0-0.2-0.3-0.2-0.3-0.4
				c0-0.1,0.2-0.1,0.2,0c0,0.1,0.3,0.1,0.3,0.2c0,0.1,0.1,0.1,0.2,0c0.1-0.1,0.2,0.2,0.3,0.2c0.1,0,0.5-0.2,0.7-0.3
				c0.2-0.1,0.4,0,0.6,0c0.2,0,0.1-0.2,0.1-0.3c0-0.1,0.3-0.2,0.4-0.3c0.1-0.1,0.5,0,0.7,0.1c0.2,0,0.3-0.1,0.5-0.2
				c0.1-0.1,0.2-0.1,0.4,0.1C112.1,111.5,112,111.4,111.8,111.6z"/>
		</g>
	</g>
</g>
</svg>
